M48
; DRILL file {KiCad (5.1.5)-3} date 4/24/2021 10:05:04 PM
; FORMAT={-:-/ absolute / metric / decimal}
; #@! TF.CreationDate,2021-04-24T22:05:04+09:00
; #@! TF.GenerationSoftware,Kicad,Pcbnew,(5.1.5)-3
FMAT,2
METRIC
T1C0.400
T2C0.800
T3C1.000
T4C1.016
T5C1.200
T6C1.470
T7C1.200
T8C1.700
T9C1.750
T10C3.988
%
G90
G05
T1
X222.25Y-73.5
X223.25Y-73.25
T2
X199.05Y-35.15
X199.05Y-37.69
X199.05Y-40.23
X199.05Y-42.77
X199.05Y-45.31
X199.05Y-47.85
X199.05Y-50.39
X199.05Y-52.93
X199.05Y-55.47
X199.05Y-58.01
X199.05Y-60.55
X199.05Y-63.09
X199.05Y-65.63
X199.05Y-68.17
X199.05Y-70.71
X199.05Y-73.25
X219.37Y-45.31
X219.37Y-47.85
X219.37Y-50.39
X219.37Y-52.93
X219.37Y-55.47
X219.37Y-58.01
X219.37Y-60.55
X219.37Y-63.09
X219.37Y-65.63
X219.37Y-68.17
X219.37Y-70.71
X219.37Y-73.25
X205.138Y-127.05
X205.138Y-134.67
X207.678Y-127.05
X207.678Y-134.67
X210.218Y-127.05
X210.218Y-134.67
X212.758Y-127.05
X212.758Y-134.67
T3
X263.355Y-90.827
X265.374Y-98.361
X132.51Y-129.498
X134.529Y-121.964
X246.901Y-121.881
X252.417Y-127.396
X228.377Y-142.333
X235.131Y-146.233
X191.903Y-162.767
X198.658Y-158.867
X317.538Y-73.772
X319.556Y-81.307
X285.557Y-102.012
X287.576Y-109.546
X342.412Y-93.196
X344.431Y-100.73
X72.829Y-102.636
X74.848Y-95.102
X136.091Y-86.769
X138.11Y-79.235
X148.503Y-114.631
X150.522Y-107.097
X176.121Y-84.968
X178.14Y-77.434
X267.774Y-109.054
X269.792Y-116.589
X164.746Y-154.509
X170.262Y-148.994
X257.939Y-72.349
X259.957Y-79.883
X288.159Y-37.541
X290.178Y-45.076
X307.509Y-37.119
X309.528Y-44.653
X337.495Y-74.843
X339.514Y-82.378
X82.69Y-65.834
X84.709Y-58.3
X166.312Y-121.577
X168.331Y-114.043
X158.338Y-77.926
X160.357Y-70.391
X297.994Y-74.247
X300.013Y-81.781
X114.209Y-124.387
X116.228Y-116.853
X260.619Y-135.316
X266.134Y-140.832
X77.772Y-84.187
X79.791Y-76.653
X207.75Y-116.2
X207.75Y-124.0
X178.323Y-141.216
X183.838Y-135.7
X302.912Y-92.599
X304.931Y-100.133
X177.973Y-170.7
X184.727Y-166.8
X150.844Y-139.48
X154.744Y-132.725
X87.581Y-47.578
X89.6Y-40.044
X348.983Y-106.959
X356.517Y-104.941
X347.349Y-87.989
X354.883Y-85.971
X131.148Y-105.218
X133.166Y-97.684
X126.357Y-49.686
X128.376Y-42.152
X205.25Y-116.2
X205.25Y-124.0
X171.23Y-103.224
X173.248Y-95.69
X270.804Y-46.954
X272.823Y-54.488
X320.032Y-112.445
X322.051Y-119.979
X342.483Y-69.83
X350.017Y-67.811
X244.831Y-151.833
X251.586Y-155.733
X101.482Y-69.11
X103.501Y-61.576
X91.647Y-105.815
X93.666Y-98.281
X121.466Y-67.942
X123.484Y-60.408
X337.514Y-51.284
X345.048Y-49.265
X111.605Y-104.744
X113.623Y-97.21
X163.256Y-59.573
X165.274Y-52.039
X275.722Y-65.307
X277.741Y-72.841
X327.66Y-38.138
X329.679Y-45.673
X96.565Y-87.462
X98.584Y-79.928
X322.455Y-92.125
X324.474Y-99.659
X106.426Y-50.661
X108.445Y-43.126
X140.983Y-68.513
X143.002Y-60.979
X153.446Y-96.182
X155.465Y-88.647
X181.039Y-66.616
X183.058Y-59.081
X280.38Y-82.693
X282.399Y-90.227
X301.486Y-117.414
X303.505Y-124.948
X279.863Y-123.614
X283.763Y-130.369
X253.021Y-53.997
X255.04Y-61.531
X116.522Y-86.391
X118.541Y-78.857
X312.62Y-55.42
X314.639Y-62.954
X293.077Y-55.894
X295.096Y-63.428
X145.9Y-50.16
X147.919Y-42.626
X332.629Y-56.684
X334.648Y-64.218
T4
X201.63Y-32.55
X201.63Y-35.09
X201.63Y-37.63
X201.63Y-40.17
X201.63Y-42.71
X201.63Y-45.25
X201.63Y-47.79
X201.63Y-50.33
X201.63Y-52.87
X201.63Y-55.41
X201.63Y-57.95
X201.63Y-60.49
X216.87Y-32.55
X216.87Y-35.09
X216.87Y-37.63
X216.87Y-40.17
X216.87Y-42.71
X216.87Y-45.25
X216.87Y-47.79
X216.87Y-50.33
X216.87Y-52.87
X216.87Y-55.41
X216.87Y-57.95
X216.87Y-60.49
T5
X139.286Y-38.139
X143.573Y-41.461
X293.122Y-93.152
X298.495Y-93.886
X270.849Y-84.212
X276.222Y-84.946
X252.417Y-140.69
X257.437Y-138.639
X221.944Y-149.474
X226.263Y-146.194
X66.215Y-90.615
X70.501Y-93.937
X80.968Y-35.557
X85.254Y-38.879
X104.991Y-92.722
X109.277Y-96.045
X134.369Y-56.492
X138.655Y-59.814
X156.642Y-47.552
X160.928Y-50.874
X265.931Y-65.859
X271.304Y-66.594
X310.241Y-112.997
X315.614Y-113.732
X238.399Y-158.974
X242.718Y-155.694
X119.743Y-37.665
X124.029Y-40.987
X169.507Y-72.947
X173.793Y-76.269
X109.908Y-74.37
X114.194Y-77.692
X351.634Y-90.518
X357.007Y-91.253
X327.704Y-75.396
X333.078Y-76.131
X297.912Y-37.62
X303.285Y-38.354
X248.196Y-72.889
X253.569Y-73.623
X275.766Y-102.565
X281.139Y-103.299
X243.279Y-54.536
X248.652Y-55.271
X159.672Y-109.652
X163.958Y-112.974
X317.869Y-38.691
X323.242Y-39.425
X332.622Y-93.749
X337.995Y-94.483
X85.033Y-93.794
X89.319Y-97.116
X302.83Y-55.973
X308.203Y-56.707
X129.451Y-74.844
X133.737Y-78.167
X151.724Y-65.904
X156.01Y-69.227
X257.983Y-109.607
X263.356Y-110.342
X174.425Y-54.594
X178.711Y-57.917
X165.17Y-140.792
X167.221Y-145.812
X253.066Y-91.255
X258.439Y-91.989
X89.951Y-75.441
X94.237Y-78.764
X114.826Y-56.017
X119.112Y-59.34
X341.798Y-53.813
X347.172Y-54.547
X307.747Y-74.325
X313.12Y-75.059
X278.369Y-38.094
X283.742Y-38.829
X261.014Y-47.507
X266.387Y-48.241
X125.811Y-118.179
X130.098Y-121.501
X238.982Y-127.255
X244.002Y-125.204
X164.59Y-91.299
X168.876Y-94.622
X107.266Y-113.209
X111.552Y-116.532
X99.786Y-38.736
X104.072Y-42.058
X336.881Y-35.46
X342.254Y-36.195
X322.787Y-57.044
X328.16Y-57.778
X346.716Y-72.166
X352.089Y-72.9
X76.05Y-53.91
X80.336Y-57.232
X124.534Y-93.197
X128.82Y-96.519
X283.286Y-56.447
X288.66Y-57.181
X146.806Y-84.257
X151.093Y-87.579
X147.03Y-126.885
X150.311Y-131.204
X178.719Y-127.28
X180.77Y-132.3
X270.549Y-126.682
X275.929Y-126.001
X94.868Y-57.088
X99.155Y-60.411
X71.132Y-72.262
X75.418Y-75.585
X312.665Y-92.678
X318.038Y-93.412
X288.204Y-74.799
X293.577Y-75.534
X141.889Y-102.609
X146.175Y-105.932
X291.695Y-117.967
X297.069Y-118.701
X195.59Y-149.553
X196.272Y-154.933
X179.136Y-159.053
X179.817Y-164.433
T6
X66.583Y-74.522
X68.226Y-73.45
X73.185Y-74.261
X73.374Y-73.712
X309.854Y-96.909
X310.742Y-95.16
X315.33Y-92.812
X315.442Y-93.383
X285.393Y-79.031
X286.281Y-77.282
X290.87Y-74.934
X290.981Y-75.505
X137.339Y-104.869
X138.982Y-103.798
X143.941Y-104.609
X144.13Y-104.059
X288.885Y-122.198
X289.772Y-120.449
X294.361Y-118.101
X294.473Y-118.672
X190.775Y-147.933
X192.695Y-148.338
X195.628Y-152.418
X196.15Y-152.163
X174.321Y-157.433
X176.24Y-157.838
X179.173Y-161.918
X179.696Y-161.663
X134.737Y-40.398
X136.38Y-39.327
X141.339Y-40.138
X141.528Y-39.588
X290.311Y-97.384
X291.198Y-95.634
X295.787Y-93.287
X295.899Y-93.857
X268.038Y-88.444
X268.926Y-86.694
X273.514Y-84.347
X273.626Y-84.917
X251.992Y-143.801
X252.098Y-145.76
X254.792Y-139.474
X255.174Y-139.912
X222.34Y-152.589
X222.949Y-154.453
X223.925Y-147.684
X224.407Y-148.009
X61.665Y-92.874
X63.308Y-91.803
X68.267Y-92.614
X68.456Y-92.064
X76.418Y-37.816
X78.061Y-36.745
X83.02Y-37.556
X83.209Y-37.006
X100.441Y-94.982
X102.084Y-93.911
X107.043Y-94.722
X107.232Y-94.172
X129.819Y-58.751
X131.462Y-57.68
X136.421Y-58.491
X136.61Y-57.941
X152.092Y-49.811
X153.735Y-48.74
X158.694Y-49.551
X158.883Y-49.001
X263.121Y-70.091
X264.008Y-68.342
X268.597Y-65.994
X268.708Y-66.565
X307.431Y-117.229
X308.318Y-115.48
X312.907Y-113.132
X313.018Y-113.703
X238.794Y-162.089
X239.404Y-163.953
X240.379Y-157.184
X240.861Y-157.509
X115.193Y-39.924
X116.837Y-38.853
X121.796Y-39.664
X121.984Y-39.114
X164.957Y-75.206
X166.601Y-74.135
X171.56Y-74.946
X171.748Y-74.396
X105.358Y-76.629
X107.002Y-75.558
X111.961Y-76.369
X112.149Y-75.819
X348.823Y-94.75
X349.711Y-93.001
X354.299Y-90.653
X354.411Y-91.223
X324.894Y-79.628
X325.781Y-77.879
X330.37Y-75.531
X330.482Y-76.102
X295.101Y-41.852
X295.989Y-40.102
X300.578Y-37.755
X300.689Y-38.325
X245.386Y-77.121
X246.273Y-75.371
X250.862Y-73.024
X250.973Y-73.594
X272.956Y-106.796
X273.843Y-105.047
X278.432Y-102.699
X278.543Y-103.27
X240.468Y-58.768
X241.356Y-57.019
X245.944Y-54.671
X246.056Y-55.242
X155.122Y-111.911
X156.766Y-110.84
X161.725Y-111.651
X161.913Y-111.101
X315.059Y-42.923
X315.946Y-41.173
X320.535Y-38.826
X320.646Y-39.396
X329.811Y-97.98
X330.699Y-96.231
X335.288Y-93.884
X335.399Y-94.454
X80.483Y-96.053
X82.127Y-94.982
X87.086Y-95.793
X87.275Y-95.243
X300.019Y-60.204
X300.907Y-58.455
X305.495Y-56.107
X305.607Y-56.678
X124.901Y-77.104
X126.545Y-76.032
X131.504Y-76.843
X131.692Y-76.294
X147.174Y-68.164
X148.817Y-67.092
X153.777Y-67.903
X153.965Y-67.354
X255.173Y-113.839
X256.06Y-112.089
X260.649Y-109.742
X260.76Y-110.312
X169.875Y-56.854
X171.518Y-55.782
X176.477Y-56.593
X176.666Y-56.044
X160.101Y-140.473
X162.059Y-140.367
X165.948Y-143.549
X166.387Y-143.167
X250.255Y-95.486
X251.143Y-93.737
X255.731Y-91.389
X255.843Y-91.96
X85.401Y-77.7
X87.044Y-76.629
X92.003Y-77.44
X92.192Y-76.89
X110.276Y-58.277
X111.919Y-57.205
X116.878Y-58.017
X117.067Y-57.467
X338.988Y-58.045
X339.875Y-56.295
X344.464Y-53.948
X344.576Y-54.518
X304.937Y-78.557
X305.824Y-76.807
X310.413Y-74.46
X310.524Y-75.03
X275.558Y-42.326
X276.446Y-40.577
X281.035Y-38.229
X281.146Y-38.799
X258.203Y-51.738
X259.091Y-49.989
X263.679Y-47.641
X263.791Y-48.212
X121.262Y-120.438
X122.905Y-119.367
X127.864Y-120.178
X128.053Y-119.628
X238.557Y-130.366
X238.663Y-132.325
X241.357Y-126.039
X241.739Y-126.477
X160.04Y-93.559
X161.683Y-92.488
X166.642Y-93.299
X166.831Y-92.749
X102.716Y-115.469
X104.359Y-114.398
X109.318Y-115.209
X109.507Y-114.659
X95.236Y-40.995
X96.879Y-39.924
X101.838Y-40.735
X102.027Y-40.185
X334.07Y-39.692
X334.958Y-37.943
X339.547Y-35.595
X339.658Y-36.166
X319.976Y-61.275
X320.864Y-59.526
X325.453Y-57.178
X325.564Y-57.749
X343.905Y-76.397
X344.793Y-74.648
X349.382Y-72.3
X349.493Y-72.871
X71.5Y-56.169
X73.143Y-55.098
X78.102Y-55.909
X78.291Y-55.359
X119.984Y-95.456
X121.627Y-94.385
X126.586Y-95.196
X126.775Y-94.646
X280.476Y-60.678
X281.363Y-58.929
X285.952Y-56.581
X286.064Y-57.152
X142.257Y-86.516
X143.9Y-85.445
X148.859Y-86.256
X149.048Y-85.706
X142.051Y-127.89
X143.915Y-127.281
X148.496Y-129.348
X148.82Y-128.866
X173.649Y-126.961
X175.608Y-126.855
X179.497Y-130.037
X179.935Y-129.656
X268.929Y-131.497
X269.334Y-129.578
X273.159Y-126.122
X273.414Y-126.645
X90.319Y-59.348
X91.962Y-58.277
X96.921Y-59.088
X97.11Y-58.538
T7
X131.63Y-46.544
X290.693Y-104.259
X268.421Y-95.319
X255.867Y-151.523
X228.081Y-159.045
X58.559Y-99.02
X73.311Y-43.962
X97.334Y-101.127
X126.713Y-64.896
X148.985Y-55.956
X263.503Y-76.966
X307.813Y-124.104
X244.536Y-168.545
X112.087Y-46.069
X161.851Y-81.352
X102.252Y-82.775
X349.206Y-101.625
X325.276Y-86.503
X295.484Y-48.727
X245.768Y-83.996
X273.338Y-113.671
X240.851Y-65.643
X152.016Y-118.057
X315.441Y-49.798
X330.194Y-104.856
X77.377Y-102.198
X300.402Y-67.079
X121.795Y-83.249
X144.068Y-74.309
X255.555Y-120.714
X166.769Y-62.999
X154.338Y-144.242
X250.638Y-102.361
X82.295Y-83.846
X107.169Y-64.422
X339.37Y-64.92
X305.319Y-85.432
X275.941Y-49.201
X258.586Y-58.614
X118.155Y-126.583
X242.432Y-138.088
X156.933Y-99.704
X99.609Y-121.614
X92.13Y-47.141
X334.453Y-46.567
X320.359Y-68.151
X344.288Y-83.273
X68.394Y-62.314
X116.878Y-101.602
X280.858Y-67.554
X139.15Y-92.662
X137.46Y-133.022
X167.886Y-130.73
X271.078Y-138.039
X87.212Y-65.493
X63.476Y-80.667
X310.237Y-103.785
X285.776Y-85.906
X134.233Y-111.014
X289.267Y-129.074
X184.233Y-150.082
X167.779Y-159.582
T8
X132.447Y-42.414
X143.072Y-45.261
X289.336Y-100.274
X299.961Y-97.427
X267.063Y-91.334
X277.688Y-88.487
X252.699Y-148.751
X260.478Y-140.973
X224.304Y-157.187
X229.804Y-147.661
X59.375Y-94.89
X70.0Y-97.737
X74.128Y-39.832
X84.753Y-42.679
X98.151Y-96.998
X108.776Y-99.845
X127.529Y-60.767
X138.154Y-63.614
X149.802Y-51.827
X160.427Y-54.674
X262.146Y-72.982
X272.771Y-70.135
X306.456Y-120.12
X317.081Y-117.273
X240.758Y-166.687
X246.258Y-157.161
X112.904Y-41.94
X123.529Y-44.787
X162.668Y-77.222
X173.293Y-80.069
X103.068Y-78.645
X113.694Y-81.492
X347.848Y-97.641
X358.473Y-94.794
X323.919Y-82.519
X334.544Y-79.672
X294.126Y-44.742
X304.752Y-41.895
X244.411Y-80.012
X255.036Y-77.165
X271.981Y-109.687
X282.606Y-106.84
X239.493Y-61.659
X250.118Y-58.812
X152.832Y-113.927
X163.458Y-116.774
X314.084Y-45.814
X324.709Y-42.967
X328.836Y-100.871
X339.462Y-98.024
X78.194Y-98.069
X88.819Y-100.916
X299.044Y-63.095
X309.669Y-60.248
X122.612Y-79.12
X133.237Y-81.967
X144.884Y-70.18
X155.51Y-73.027
X254.198Y-116.73
X264.823Y-113.883
X167.585Y-58.87
X178.21Y-61.717
X157.109Y-141.074
X164.888Y-148.853
X249.28Y-98.377
X259.905Y-95.53
X83.111Y-79.716
X93.736Y-82.563
X107.986Y-60.293
X118.611Y-63.14
X338.013Y-60.936
X348.638Y-58.088
X303.962Y-81.448
X314.587Y-78.601
X274.583Y-45.217
X285.208Y-42.37
X257.228Y-54.629
X267.853Y-51.782
X118.972Y-122.454
X129.597Y-125.301
X239.264Y-135.316
X247.043Y-127.538
X157.75Y-95.575
X168.375Y-98.422
X100.426Y-117.485
X111.051Y-120.332
X92.946Y-43.011
X103.572Y-45.858
X333.095Y-42.583
X343.721Y-39.736
X319.001Y-64.166
X329.626Y-61.319
X342.93Y-79.288
X353.556Y-76.441
X69.21Y-58.185
X79.836Y-61.032
X117.694Y-97.472
X128.319Y-100.319
X279.501Y-63.569
X290.126Y-60.722
X139.967Y-88.532
X150.592Y-91.379
X139.317Y-129.245
X148.844Y-134.745
X170.658Y-127.562
X178.436Y-135.341
X268.736Y-134.542
X278.262Y-129.042
X88.029Y-61.364
X98.654Y-64.211
X64.293Y-76.538
X74.918Y-79.385
X308.879Y-99.8
X319.504Y-96.953
X284.418Y-81.922
X295.044Y-79.075
X135.049Y-106.885
X145.674Y-109.732
X287.91Y-125.089
X298.535Y-122.242
X187.731Y-147.74
X193.231Y-157.266
X171.276Y-157.24
X176.776Y-166.766
T9
X187.941Y-148.104
X193.021Y-156.902
X171.486Y-157.604
X176.566Y-166.402
X132.852Y-42.523
X142.666Y-45.153
X289.742Y-100.166
X299.555Y-97.536
X267.469Y-91.226
X277.283Y-88.596
X252.996Y-148.454
X260.181Y-141.27
X224.514Y-156.823
X229.594Y-148.025
X59.781Y-94.999
X69.595Y-97.628
X74.534Y-39.941
X84.347Y-42.571
X98.557Y-97.107
X108.37Y-99.736
X127.935Y-60.876
X137.749Y-63.505
X150.208Y-51.936
X160.021Y-54.565
X262.551Y-72.873
X272.365Y-70.244
X306.861Y-120.011
X316.675Y-117.381
X240.968Y-166.323
X246.048Y-157.525
X113.309Y-42.049
X123.123Y-44.678
X163.073Y-77.331
X172.887Y-79.96
X103.474Y-78.754
X113.288Y-81.384
X348.254Y-97.532
X358.068Y-94.902
X324.325Y-82.41
X334.138Y-79.78
X294.532Y-44.634
X304.346Y-42.004
X244.816Y-79.903
X254.63Y-77.273
X272.386Y-109.578
X282.2Y-106.949
X239.899Y-61.55
X249.713Y-58.921
X153.238Y-114.036
X163.052Y-116.666
X314.489Y-45.705
X324.303Y-43.075
X329.242Y-100.763
X339.056Y-98.133
X78.599Y-98.178
X88.413Y-100.807
X299.45Y-62.986
X309.263Y-60.357
X123.017Y-79.228
X132.831Y-81.858
X145.29Y-70.288
X155.104Y-72.918
X254.603Y-116.621
X264.417Y-113.991
X167.991Y-58.978
X177.805Y-61.608
X157.406Y-141.371
X164.591Y-148.556
X249.686Y-98.268
X259.5Y-95.639
X83.517Y-79.825
X93.331Y-82.455
X108.392Y-60.401
X118.206Y-63.031
X338.419Y-60.827
X348.232Y-58.197
X304.367Y-81.339
X314.181Y-78.709
X274.989Y-45.108
X284.803Y-42.478
X257.634Y-54.521
X267.448Y-51.891
X119.378Y-122.563
X129.191Y-125.192
X239.561Y-135.019
X246.746Y-127.835
X158.156Y-95.683
X167.97Y-98.313
X100.832Y-117.594
X110.646Y-120.223
X93.352Y-43.12
X103.166Y-45.75
X333.501Y-42.474
X343.315Y-39.845
X319.407Y-64.057
X329.221Y-61.428
X343.336Y-79.179
X353.15Y-76.55
X69.616Y-58.294
X79.43Y-60.923
X118.1Y-97.581
X127.914Y-100.21
X279.907Y-63.461
X289.72Y-60.831
X140.373Y-88.641
X150.186Y-91.27
X139.681Y-129.455
X148.48Y-134.535
X170.955Y-127.859
X178.139Y-135.044
X269.1Y-134.332
X277.898Y-129.252
X88.434Y-61.473
X98.248Y-64.102
X64.698Y-76.646
X74.512Y-79.276
X309.285Y-99.691
X319.099Y-97.062
X284.824Y-81.813
X294.638Y-79.184
X135.455Y-106.993
X145.269Y-109.623
X288.316Y-124.98
X298.129Y-122.351
T10
X174.547Y-131.452
X273.499Y-131.792
X93.341Y-62.787
X69.605Y-77.961
X314.192Y-98.377
X289.731Y-80.498
X140.362Y-108.308
X293.222Y-123.666
X190.481Y-152.503
X174.026Y-162.003
X137.759Y-43.838
X294.649Y-98.851
X272.376Y-89.911
X256.589Y-144.862
X227.054Y-152.424
X64.688Y-96.314
X79.44Y-41.256
X103.464Y-98.421
X132.842Y-62.191
X155.115Y-53.251
X267.458Y-71.558
X311.768Y-118.696
X243.508Y-161.924
X118.216Y-43.364
X167.98Y-78.646
X108.381Y-80.069
X353.161Y-96.217
X329.231Y-81.095
X299.439Y-43.319
X249.723Y-78.588
X277.293Y-108.264
X244.806Y-60.235
X158.145Y-115.351
X319.396Y-44.39
X334.149Y-99.448
X83.506Y-99.493
X304.357Y-61.671
X127.924Y-80.543
X150.197Y-71.603
X259.51Y-115.306
X172.898Y-60.293
X160.999Y-144.964
X254.593Y-96.954
X88.424Y-81.14
X113.299Y-61.716
X343.326Y-59.512
X309.274Y-80.024
X279.896Y-43.793
X262.541Y-53.206
X124.284Y-123.878
X243.153Y-131.427
X163.063Y-96.998
X105.739Y-118.908
X98.259Y-44.435
X338.408Y-41.159
X324.314Y-62.743
X348.243Y-77.865
X74.523Y-59.608
X123.007Y-98.896
X284.813Y-62.146
X145.279Y-89.956
X144.081Y-131.995
T0
M30
