G04 #@! TF.GenerationSoftware,KiCad,Pcbnew,(5.1.5)-3*
G04 #@! TF.CreationDate,2021-04-24T22:04:19+09:00*
G04 #@! TF.ProjectId,brimstone,6272696d-7374-46f6-9e65-2e6b69636164,rev?*
G04 #@! TF.SameCoordinates,Original*
G04 #@! TF.FileFunction,Copper,L1,Top*
G04 #@! TF.FilePolarity,Positive*
%FSLAX46Y46*%
G04 Gerber Fmt 4.6, Leading zero omitted, Abs format (unit mm)*
G04 Created by KiCad (PCBNEW (5.1.5)-3) date 2021-04-24 22:04:19*
%MOMM*%
%LPD*%
G04 APERTURE LIST*
%ADD10O,1.600000X1.600000*%
%ADD11R,1.600000X1.600000*%
%ADD12R,0.500000X2.900000*%
%ADD13C,1.600000*%
%ADD14R,1.200000X1.600000*%
%ADD15C,1.879600*%
%ADD16C,2.000000*%
%ADD17C,2.250000*%
%ADD18C,2.250000*%
%ADD19C,0.100000*%
%ADD20C,0.800000*%
%ADD21C,0.250000*%
G04 APERTURE END LIST*
D10*
X205138000Y-127049999D03*
X212758000Y-134669999D03*
X207678000Y-127049999D03*
X210218000Y-134669999D03*
X210218000Y-127049999D03*
X207678000Y-134669999D03*
X212758000Y-127049999D03*
D11*
X205138000Y-134669999D03*
D12*
X207750000Y-117600000D03*
X207750000Y-122600000D03*
D11*
X207750000Y-116200000D03*
D13*
X207750000Y-124000000D03*
D14*
X207750000Y-121500000D03*
X207750000Y-118700000D03*
D12*
X205250000Y-117600000D03*
X205250000Y-122600000D03*
D11*
X205250000Y-116200000D03*
D13*
X205250000Y-124000000D03*
D14*
X205250000Y-121500000D03*
X205250000Y-118700000D03*
D13*
X219370000Y-73250000D03*
X219370000Y-70710000D03*
X219370000Y-68170000D03*
X219370000Y-65630000D03*
X219370000Y-63090000D03*
X219370000Y-60550000D03*
X219370000Y-58010000D03*
X219370000Y-55470000D03*
X219370000Y-52930000D03*
X219370000Y-50390000D03*
X219370000Y-47850000D03*
X219370000Y-45310000D03*
D11*
X199050000Y-35150000D03*
D13*
X199050000Y-37690000D03*
X199050000Y-40230000D03*
X199050000Y-42770000D03*
X199050000Y-45310000D03*
X199050000Y-47850000D03*
X199050000Y-50390000D03*
X199050000Y-52930000D03*
X199050000Y-55470000D03*
X199050000Y-58010000D03*
X199050000Y-60550000D03*
X199050000Y-63090000D03*
X199050000Y-65630000D03*
X199050000Y-68170000D03*
X199050000Y-70710000D03*
X199050000Y-73250000D03*
D15*
X216870000Y-32550000D03*
X216870000Y-35090000D03*
X216870000Y-37630000D03*
X216870000Y-40170000D03*
X216870000Y-42710000D03*
X216870000Y-45250000D03*
X216870000Y-47790000D03*
X216870000Y-50330000D03*
X216870000Y-52870000D03*
X216870000Y-55410000D03*
X216870000Y-57950000D03*
X216870000Y-60490000D03*
X201630000Y-60490000D03*
X201630000Y-57950000D03*
X201630000Y-55410000D03*
X201630000Y-52870000D03*
X201630000Y-50330000D03*
X201630000Y-47790000D03*
X201630000Y-45250000D03*
X201630000Y-42710000D03*
X201630000Y-40170000D03*
X201630000Y-37630000D03*
X201630000Y-35090000D03*
X201630000Y-32550000D03*
D16*
X119743244Y-37664653D03*
X124029354Y-40987192D03*
D17*
X116836674Y-38852864D03*
D18*
X115193435Y-39924063D02*
X116836667Y-38852853D01*
D17*
X121984464Y-39114112D03*
D18*
X121795712Y-39663996D02*
X121984030Y-39113962D01*
G04 #@! TA.AperFunction,Conductor*
D19*
G36*
X163751750Y-56755394D02*
G01*
X164234713Y-56884803D01*
X163484138Y-59685988D01*
X163001175Y-59556579D01*
X163751750Y-56755394D01*
G37*
G04 #@! TD.AperFunction*
G04 #@! TA.AperFunction,Conductor*
G36*
X165045846Y-51925764D02*
G01*
X165528809Y-52055173D01*
X164778234Y-54856358D01*
X164295271Y-54726949D01*
X165045846Y-51925764D01*
G37*
G04 #@! TD.AperFunction*
G04 #@! TA.AperFunction,ComponentPad*
G36*
X162689913Y-58593191D02*
G01*
X164235394Y-59007302D01*
X163821283Y-60552783D01*
X162275802Y-60138672D01*
X162689913Y-58593191D01*
G37*
G04 #@! TD.AperFunction*
D13*
X165274386Y-52038765D03*
G04 #@! TA.AperFunction,SMDPad,CuDef*
D19*
G36*
X164254839Y-53525548D02*
G01*
X165413950Y-53836131D01*
X164999839Y-55381612D01*
X163840728Y-55071029D01*
X164254839Y-53525548D01*
G37*
G04 #@! TD.AperFunction*
G04 #@! TA.AperFunction,SMDPad,CuDef*
G36*
X163530145Y-56230140D02*
G01*
X164689256Y-56540723D01*
X164275145Y-58086204D01*
X163116034Y-57775621D01*
X163530145Y-56230140D01*
G37*
G04 #@! TD.AperFunction*
G04 #@! TA.AperFunction,Conductor*
G36*
X181534938Y-63797993D02*
G01*
X182017901Y-63927402D01*
X181267326Y-66728587D01*
X180784363Y-66599178D01*
X181534938Y-63797993D01*
G37*
G04 #@! TD.AperFunction*
G04 #@! TA.AperFunction,Conductor*
G36*
X182829034Y-58968363D02*
G01*
X183311997Y-59097772D01*
X182561422Y-61898957D01*
X182078459Y-61769548D01*
X182829034Y-58968363D01*
G37*
G04 #@! TD.AperFunction*
G04 #@! TA.AperFunction,ComponentPad*
G36*
X180473101Y-65635790D02*
G01*
X182018582Y-66049901D01*
X181604471Y-67595382D01*
X180058990Y-67181271D01*
X180473101Y-65635790D01*
G37*
G04 #@! TD.AperFunction*
D13*
X183057574Y-59081364D03*
G04 #@! TA.AperFunction,SMDPad,CuDef*
D19*
G36*
X182038027Y-60568147D02*
G01*
X183197138Y-60878730D01*
X182783027Y-62424211D01*
X181623916Y-62113628D01*
X182038027Y-60568147D01*
G37*
G04 #@! TD.AperFunction*
G04 #@! TA.AperFunction,SMDPad,CuDef*
G36*
X181313333Y-63272739D02*
G01*
X182472444Y-63583322D01*
X182058333Y-65128803D01*
X180899222Y-64818220D01*
X181313333Y-63272739D01*
G37*
G04 #@! TD.AperFunction*
G04 #@! TA.AperFunction,Conductor*
G36*
X158834188Y-75107985D02*
G01*
X159317151Y-75237394D01*
X158566576Y-78038579D01*
X158083613Y-77909170D01*
X158834188Y-75107985D01*
G37*
G04 #@! TD.AperFunction*
G04 #@! TA.AperFunction,Conductor*
G36*
X160128284Y-70278355D02*
G01*
X160611247Y-70407764D01*
X159860672Y-73208949D01*
X159377709Y-73079540D01*
X160128284Y-70278355D01*
G37*
G04 #@! TD.AperFunction*
G04 #@! TA.AperFunction,ComponentPad*
G36*
X157772351Y-76945782D02*
G01*
X159317832Y-77359893D01*
X158903721Y-78905374D01*
X157358240Y-78491263D01*
X157772351Y-76945782D01*
G37*
G04 #@! TD.AperFunction*
D13*
X160356824Y-70391356D03*
G04 #@! TA.AperFunction,SMDPad,CuDef*
D19*
G36*
X159337277Y-71878139D02*
G01*
X160496388Y-72188722D01*
X160082277Y-73734203D01*
X158923166Y-73423620D01*
X159337277Y-71878139D01*
G37*
G04 #@! TD.AperFunction*
G04 #@! TA.AperFunction,SMDPad,CuDef*
G36*
X158612583Y-74582731D02*
G01*
X159771694Y-74893314D01*
X159357583Y-76438795D01*
X158198472Y-76128212D01*
X158612583Y-74582731D01*
G37*
G04 #@! TD.AperFunction*
G04 #@! TA.AperFunction,Conductor*
G36*
X166808135Y-118759172D02*
G01*
X167291098Y-118888581D01*
X166540523Y-121689766D01*
X166057560Y-121560357D01*
X166808135Y-118759172D01*
G37*
G04 #@! TD.AperFunction*
G04 #@! TA.AperFunction,Conductor*
G36*
X168102231Y-113929542D02*
G01*
X168585194Y-114058951D01*
X167834619Y-116860136D01*
X167351656Y-116730727D01*
X168102231Y-113929542D01*
G37*
G04 #@! TD.AperFunction*
G04 #@! TA.AperFunction,ComponentPad*
G36*
X165746298Y-120596969D02*
G01*
X167291779Y-121011080D01*
X166877668Y-122556561D01*
X165332187Y-122142450D01*
X165746298Y-120596969D01*
G37*
G04 #@! TD.AperFunction*
D13*
X168330771Y-114042543D03*
G04 #@! TA.AperFunction,SMDPad,CuDef*
D19*
G36*
X167311224Y-115529326D02*
G01*
X168470335Y-115839909D01*
X168056224Y-117385390D01*
X166897113Y-117074807D01*
X167311224Y-115529326D01*
G37*
G04 #@! TD.AperFunction*
G04 #@! TA.AperFunction,SMDPad,CuDef*
G36*
X166586530Y-118233918D02*
G01*
X167745641Y-118544501D01*
X167331530Y-120089982D01*
X166172419Y-119779399D01*
X166586530Y-118233918D01*
G37*
G04 #@! TD.AperFunction*
G04 #@! TA.AperFunction,Conductor*
G36*
X153942508Y-93363983D02*
G01*
X154425471Y-93493392D01*
X153674896Y-96294577D01*
X153191933Y-96165168D01*
X153942508Y-93363983D01*
G37*
G04 #@! TD.AperFunction*
G04 #@! TA.AperFunction,Conductor*
G36*
X155236604Y-88534353D02*
G01*
X155719567Y-88663762D01*
X154968992Y-91464947D01*
X154486029Y-91335538D01*
X155236604Y-88534353D01*
G37*
G04 #@! TD.AperFunction*
G04 #@! TA.AperFunction,ComponentPad*
G36*
X152880671Y-95201780D02*
G01*
X154426152Y-95615891D01*
X154012041Y-97161372D01*
X152466560Y-96747261D01*
X152880671Y-95201780D01*
G37*
G04 #@! TD.AperFunction*
D13*
X155465144Y-88647354D03*
G04 #@! TA.AperFunction,SMDPad,CuDef*
D19*
G36*
X154445597Y-90134137D02*
G01*
X155604708Y-90444720D01*
X155190597Y-91990201D01*
X154031486Y-91679618D01*
X154445597Y-90134137D01*
G37*
G04 #@! TD.AperFunction*
G04 #@! TA.AperFunction,SMDPad,CuDef*
G36*
X153720903Y-92838729D02*
G01*
X154880014Y-93149312D01*
X154465903Y-94694793D01*
X153306792Y-94384210D01*
X153720903Y-92838729D01*
G37*
G04 #@! TD.AperFunction*
G04 #@! TA.AperFunction,Conductor*
G36*
X176617377Y-82150583D02*
G01*
X177100340Y-82279992D01*
X176349765Y-85081177D01*
X175866802Y-84951768D01*
X176617377Y-82150583D01*
G37*
G04 #@! TD.AperFunction*
G04 #@! TA.AperFunction,Conductor*
G36*
X177911473Y-77320953D02*
G01*
X178394436Y-77450362D01*
X177643861Y-80251547D01*
X177160898Y-80122138D01*
X177911473Y-77320953D01*
G37*
G04 #@! TD.AperFunction*
G04 #@! TA.AperFunction,ComponentPad*
G36*
X175555540Y-83988380D02*
G01*
X177101021Y-84402491D01*
X176686910Y-85947972D01*
X175141429Y-85533861D01*
X175555540Y-83988380D01*
G37*
G04 #@! TD.AperFunction*
D13*
X178140013Y-77433954D03*
G04 #@! TA.AperFunction,SMDPad,CuDef*
D19*
G36*
X177120466Y-78920737D02*
G01*
X178279577Y-79231320D01*
X177865466Y-80776801D01*
X176706355Y-80466218D01*
X177120466Y-78920737D01*
G37*
G04 #@! TD.AperFunction*
G04 #@! TA.AperFunction,SMDPad,CuDef*
G36*
X176395772Y-81625329D02*
G01*
X177554883Y-81935912D01*
X177140772Y-83481393D01*
X175981661Y-83170810D01*
X176395772Y-81625329D01*
G37*
G04 #@! TD.AperFunction*
G04 #@! TA.AperFunction,Conductor*
G36*
X148999064Y-111813166D02*
G01*
X149482027Y-111942575D01*
X148731452Y-114743760D01*
X148248489Y-114614351D01*
X148999064Y-111813166D01*
G37*
G04 #@! TD.AperFunction*
G04 #@! TA.AperFunction,Conductor*
G36*
X150293160Y-106983536D02*
G01*
X150776123Y-107112945D01*
X150025548Y-109914130D01*
X149542585Y-109784721D01*
X150293160Y-106983536D01*
G37*
G04 #@! TD.AperFunction*
G04 #@! TA.AperFunction,ComponentPad*
G36*
X147937227Y-113650963D02*
G01*
X149482708Y-114065074D01*
X149068597Y-115610555D01*
X147523116Y-115196444D01*
X147937227Y-113650963D01*
G37*
G04 #@! TD.AperFunction*
D13*
X150521700Y-107096537D03*
G04 #@! TA.AperFunction,SMDPad,CuDef*
D19*
G36*
X149502153Y-108583320D02*
G01*
X150661264Y-108893903D01*
X150247153Y-110439384D01*
X149088042Y-110128801D01*
X149502153Y-108583320D01*
G37*
G04 #@! TD.AperFunction*
G04 #@! TA.AperFunction,SMDPad,CuDef*
G36*
X148777459Y-111287912D02*
G01*
X149936570Y-111598495D01*
X149522459Y-113143976D01*
X148363348Y-112833393D01*
X148777459Y-111287912D01*
G37*
G04 #@! TD.AperFunction*
G04 #@! TA.AperFunction,Conductor*
G36*
X171725697Y-100406581D02*
G01*
X172208660Y-100535990D01*
X171458085Y-103337175D01*
X170975122Y-103207766D01*
X171725697Y-100406581D01*
G37*
G04 #@! TD.AperFunction*
G04 #@! TA.AperFunction,Conductor*
G36*
X173019793Y-95576951D02*
G01*
X173502756Y-95706360D01*
X172752181Y-98507545D01*
X172269218Y-98378136D01*
X173019793Y-95576951D01*
G37*
G04 #@! TD.AperFunction*
G04 #@! TA.AperFunction,ComponentPad*
G36*
X170663860Y-102244378D02*
G01*
X172209341Y-102658489D01*
X171795230Y-104203970D01*
X170249749Y-103789859D01*
X170663860Y-102244378D01*
G37*
G04 #@! TD.AperFunction*
D13*
X173248333Y-95689952D03*
G04 #@! TA.AperFunction,SMDPad,CuDef*
D19*
G36*
X172228786Y-97176735D02*
G01*
X173387897Y-97487318D01*
X172973786Y-99032799D01*
X171814675Y-98722216D01*
X172228786Y-97176735D01*
G37*
G04 #@! TD.AperFunction*
G04 #@! TA.AperFunction,SMDPad,CuDef*
G36*
X171504092Y-99881327D02*
G01*
X172663203Y-100191910D01*
X172249092Y-101737391D01*
X171089981Y-101426808D01*
X171504092Y-99881327D01*
G37*
G04 #@! TD.AperFunction*
D16*
X159672113Y-109651911D03*
X163958223Y-112974450D03*
D17*
X156765543Y-110840122D03*
D18*
X155122304Y-111911321D02*
X156765536Y-110840111D01*
D17*
X161913333Y-111101370D03*
D18*
X161724581Y-111651254D02*
X161912899Y-111101220D01*
D16*
X169507237Y-72946730D03*
X173793347Y-76269269D03*
D17*
X166600667Y-74134941D03*
D18*
X164957428Y-75206140D02*
X166600660Y-74134930D01*
D17*
X171748457Y-74396189D03*
D18*
X171559705Y-74946073D02*
X171748023Y-74396039D01*
D16*
X164589675Y-91299320D03*
X168875785Y-94621859D03*
D17*
X161683105Y-92487531D03*
D18*
X160039866Y-93558730D02*
X161683098Y-92487520D01*
D17*
X166830895Y-92748779D03*
D18*
X166642143Y-93298663D02*
X166830461Y-92748629D01*
D16*
X174424799Y-54594139D03*
X178710909Y-57916678D03*
D17*
X171518229Y-55782350D03*
D18*
X169874990Y-56853549D02*
X171518222Y-55782339D01*
D17*
X176666019Y-56043598D03*
D18*
X176477267Y-56593482D02*
X176665585Y-56043448D01*
G04 #@! TA.AperFunction,Conductor*
D19*
G36*
X180161153Y-139023814D02*
G01*
X180514707Y-139377368D01*
X178464097Y-141427978D01*
X178110543Y-141074424D01*
X180161153Y-139023814D01*
G37*
G04 #@! TD.AperFunction*
G04 #@! TA.AperFunction,Conductor*
G36*
X183696687Y-135488280D02*
G01*
X184050241Y-135841834D01*
X181999631Y-137892444D01*
X181646077Y-137538890D01*
X183696687Y-135488280D01*
G37*
G04 #@! TD.AperFunction*
G04 #@! TA.AperFunction,ComponentPad*
G36*
X178322676Y-140084474D02*
G01*
X179454047Y-141215845D01*
X178322676Y-142347216D01*
X177191305Y-141215845D01*
X178322676Y-140084474D01*
G37*
G04 #@! TD.AperFunction*
D13*
X183838108Y-135700413D03*
G04 #@! TA.AperFunction,SMDPad,CuDef*
D19*
G36*
X182211762Y-136478231D02*
G01*
X183060290Y-137326759D01*
X181928920Y-138458129D01*
X181080392Y-137609601D01*
X182211762Y-136478231D01*
G37*
G04 #@! TD.AperFunction*
G04 #@! TA.AperFunction,SMDPad,CuDef*
G36*
X180231864Y-138458129D02*
G01*
X181080392Y-139306657D01*
X179949022Y-140438027D01*
X179100494Y-139589499D01*
X180231864Y-138458129D01*
G37*
G04 #@! TD.AperFunction*
D16*
X238398934Y-158973939D03*
X242717587Y-155693812D03*
D17*
X238794382Y-162089003D03*
D18*
X239403779Y-163953496D02*
X238794369Y-162089006D01*
D17*
X240379075Y-157184234D03*
D18*
X240861370Y-157508875D02*
X240378820Y-157184615D01*
D16*
X221944452Y-149473939D03*
X226263105Y-146193812D03*
D17*
X222339900Y-152589003D03*
D18*
X222949297Y-154453496D02*
X222339887Y-152589006D01*
D17*
X223924593Y-147684234D03*
D18*
X224406888Y-148008875D02*
X223924338Y-147684615D01*
D16*
X238981566Y-127255077D03*
X244002024Y-125204467D03*
D17*
X238557302Y-130366347D03*
D18*
X238663368Y-132325033D02*
X238557290Y-130366347D01*
D17*
X241357445Y-126038853D03*
D18*
X241739282Y-126477260D02*
X241357098Y-126039154D01*
D16*
X252416595Y-140690106D03*
X257437053Y-138639496D03*
D17*
X251992331Y-143801376D03*
D18*
X252098397Y-145760062D02*
X251992319Y-143801376D01*
D17*
X254792474Y-139473882D03*
D18*
X255174311Y-139912289D02*
X254792127Y-139474183D01*
D16*
X270548950Y-126682193D03*
X275929077Y-126000846D03*
D17*
X269333886Y-129577641D03*
D18*
X268929393Y-131497038D02*
X269333875Y-129577638D01*
D17*
X273158655Y-126122334D03*
D18*
X273414014Y-126644629D02*
X273158244Y-126122535D01*
D16*
X291695438Y-117966644D03*
X297068587Y-118700993D03*
D17*
X289772379Y-120448950D03*
D18*
X288884892Y-122198255D02*
X289772368Y-120448945D01*
D17*
X294361121Y-118101302D03*
D18*
X294472599Y-118671892D02*
X294360671Y-118101390D01*
D16*
X310241213Y-112997319D03*
X315614362Y-113731668D03*
D17*
X308318154Y-115479625D03*
D18*
X307430667Y-117228930D02*
X308318143Y-115479620D01*
D17*
X312906896Y-113131977D03*
D18*
X313018374Y-113702567D02*
X312906446Y-113132065D01*
D16*
X195590160Y-149552961D03*
X196271507Y-154933088D03*
D17*
X192694712Y-148337897D03*
D18*
X190775315Y-147933404D02*
X192694715Y-148337886D01*
D17*
X196150019Y-152162666D03*
D18*
X195627724Y-152418025D02*
X196149818Y-152162255D01*
D16*
X179135677Y-159052962D03*
X179817024Y-164433089D03*
D17*
X176240229Y-157837898D03*
D18*
X174320832Y-157433405D02*
X176240232Y-157837887D01*
D17*
X179695536Y-161662667D03*
D18*
X179173241Y-161918026D02*
X179695335Y-161662256D01*
D16*
X178719239Y-127279628D03*
X180769849Y-132300086D03*
D17*
X175607969Y-126855364D03*
D18*
X173649283Y-126961430D02*
X175607969Y-126855352D01*
D17*
X179935463Y-129655507D03*
D18*
X179497056Y-130037344D02*
X179935162Y-129655160D01*
D16*
X165170490Y-140791582D03*
X167221100Y-145812040D03*
D17*
X162059220Y-140367318D03*
D18*
X160100534Y-140473384D02*
X162059220Y-140367306D01*
D17*
X166386714Y-143167461D03*
D18*
X165948307Y-143549298D02*
X166386413Y-143167114D01*
D16*
X147030500Y-126885454D03*
X150310627Y-131204107D03*
D17*
X143915436Y-127280902D03*
D18*
X142050943Y-127890299D02*
X143915433Y-127280889D01*
D17*
X148820205Y-128865595D03*
D18*
X148495564Y-129347890D02*
X148819824Y-128865340D01*
D16*
X125811452Y-118178669D03*
X130097562Y-121501208D03*
D17*
X122904882Y-119366880D03*
D18*
X121261643Y-120438079D02*
X122904875Y-119366869D01*
D17*
X128052672Y-119628128D03*
D18*
X127863920Y-120178012D02*
X128052238Y-119627978D01*
D16*
X107265676Y-113209344D03*
X111551786Y-116531883D03*
D17*
X104359106Y-114397555D03*
D18*
X102715867Y-115468754D02*
X104359099Y-114397544D01*
D17*
X109506896Y-114658803D03*
D18*
X109318144Y-115208687D02*
X109506462Y-114658653D01*
D16*
X257983133Y-109607189D03*
X263356282Y-110341538D03*
D17*
X256060074Y-112089495D03*
D18*
X255172587Y-113838800D02*
X256060063Y-112089490D01*
D17*
X260648816Y-109741847D03*
D18*
X260760294Y-110312437D02*
X260648366Y-109741935D01*
D16*
X253065571Y-91254599D03*
X258438720Y-91988948D03*
D17*
X251142512Y-93736905D03*
D18*
X250255025Y-95486210D02*
X251142501Y-93736900D01*
D17*
X255731254Y-91389257D03*
D18*
X255842732Y-91959847D02*
X255730804Y-91389345D01*
D16*
X248196305Y-72889067D03*
X253569454Y-73623416D03*
D17*
X246273246Y-75371373D03*
D18*
X245385759Y-77120678D02*
X246273235Y-75371368D01*
D17*
X250861988Y-73023725D03*
D18*
X250973466Y-73594315D02*
X250861538Y-73023813D01*
D16*
X243278743Y-54536476D03*
X248651892Y-55270825D03*
D17*
X241355684Y-57018782D03*
D18*
X240468197Y-58768087D02*
X241355673Y-57018777D01*
D17*
X245944426Y-54671134D03*
D18*
X246055904Y-55241724D02*
X245943976Y-54671222D01*
D16*
X275766321Y-102564591D03*
X281139470Y-103298940D03*
D17*
X273843262Y-105046897D03*
D18*
X272955775Y-106796202D02*
X273843251Y-105046892D01*
D17*
X278432004Y-102699249D03*
D18*
X278543482Y-103269839D02*
X278431554Y-102699337D01*
D16*
X270848759Y-84212000D03*
X276221908Y-84946349D03*
D17*
X268925700Y-86694306D03*
D18*
X268038213Y-88443611D02*
X268925689Y-86694301D01*
D17*
X273514442Y-84346658D03*
D18*
X273625920Y-84917248D02*
X273513992Y-84346746D01*
D16*
X265931198Y-65859409D03*
X271304347Y-66593758D03*
D17*
X264008139Y-68341715D03*
D18*
X263120652Y-70091020D02*
X264008128Y-68341710D01*
D17*
X268596881Y-65994067D03*
D18*
X268708359Y-66564657D02*
X268596431Y-65994155D01*
D16*
X261013636Y-47506819D03*
X266386785Y-48241168D03*
D17*
X259090577Y-49989125D03*
D18*
X258203090Y-51738430D02*
X259090566Y-49989120D01*
D17*
X263679319Y-47641477D03*
D18*
X263790797Y-48212067D02*
X263678869Y-47641565D01*
D16*
X141888925Y-102609312D03*
X146175035Y-105931851D03*
D17*
X138982355Y-103797523D03*
D18*
X137339116Y-104868722D02*
X138982348Y-103797512D01*
D17*
X144130145Y-104058771D03*
D18*
X143941393Y-104608655D02*
X144129711Y-104058621D01*
D16*
X146806486Y-84256722D03*
X151092596Y-87579261D03*
D17*
X143899916Y-85444933D03*
D18*
X142256677Y-86516132D02*
X143899909Y-85444922D01*
D17*
X149047706Y-85706181D03*
D18*
X148858954Y-86256065D02*
X149047272Y-85706031D01*
D16*
X151724048Y-65904131D03*
X156010158Y-69226670D03*
D17*
X148817478Y-67092342D03*
D18*
X147174239Y-68163541D02*
X148817471Y-67092331D01*
D17*
X153965268Y-67353590D03*
D18*
X153776516Y-67903474D02*
X153964834Y-67353440D01*
D16*
X156641610Y-47551540D03*
X160927720Y-50874079D03*
D17*
X153735040Y-48739751D03*
D18*
X152091801Y-49810950D02*
X153735033Y-48739740D01*
D17*
X158882830Y-49000999D03*
D18*
X158694078Y-49550883D02*
X158882396Y-49000849D01*
D16*
X293121530Y-93152006D03*
X298494679Y-93886355D03*
D17*
X291198471Y-95634312D03*
D18*
X290310984Y-97383617D02*
X291198460Y-95634307D01*
D17*
X295787213Y-93286664D03*
D18*
X295898691Y-93857254D02*
X295786763Y-93286752D01*
D16*
X288203968Y-74799415D03*
X293577117Y-75533764D03*
D17*
X286280909Y-77281721D03*
D18*
X285393422Y-79031026D02*
X286280898Y-77281716D01*
D17*
X290869651Y-74934073D03*
D18*
X290981129Y-75504663D02*
X290869201Y-74934161D01*
D16*
X283286406Y-56446825D03*
X288659555Y-57181174D03*
D17*
X281363347Y-58929131D03*
D18*
X280475860Y-60678436D02*
X281363336Y-58929126D01*
D17*
X285952089Y-56581483D03*
D18*
X286063567Y-57152073D02*
X285951639Y-56581571D01*
D16*
X278368844Y-38094234D03*
X283741993Y-38828583D03*
D17*
X276445785Y-40576540D03*
D18*
X275558298Y-42325845D02*
X276445774Y-40576535D01*
D17*
X281034527Y-38228892D03*
D18*
X281146005Y-38799482D02*
X281034077Y-38228980D01*
D16*
X124533716Y-93196728D03*
X128819826Y-96519267D03*
D17*
X121627146Y-94384939D03*
D18*
X119983907Y-95456138D02*
X121627139Y-94384928D01*
D17*
X126774936Y-94646187D03*
D18*
X126586184Y-95196071D02*
X126774502Y-94646037D01*
D16*
X129451278Y-74844137D03*
X133737388Y-78166676D03*
D17*
X126544708Y-76032348D03*
D18*
X124901469Y-77103547D02*
X126544701Y-76032337D01*
D17*
X131692498Y-76293596D03*
D18*
X131503746Y-76843480D02*
X131692064Y-76293446D01*
D16*
X134368840Y-56491547D03*
X138654950Y-59814086D03*
D17*
X131462270Y-57679758D03*
D18*
X129819031Y-58750957D02*
X131462263Y-57679747D01*
D17*
X136610060Y-57941006D03*
D18*
X136421308Y-58490890D02*
X136609626Y-57940856D01*
D16*
X139286402Y-38138956D03*
X143572512Y-41461495D03*
D17*
X136379832Y-39327167D03*
D18*
X134736593Y-40398366D02*
X136379825Y-39327156D01*
D17*
X141527622Y-39588415D03*
D18*
X141338870Y-40138299D02*
X141527188Y-39588265D01*
D16*
X312664688Y-92677703D03*
X318037837Y-93412052D03*
D17*
X310741629Y-95160009D03*
D18*
X309854142Y-96909314D02*
X310741618Y-95160004D01*
D17*
X315330371Y-92812361D03*
D18*
X315441849Y-93382951D02*
X315329921Y-92812449D01*
D16*
X307747126Y-74325112D03*
X313120275Y-75059461D03*
D17*
X305824067Y-76807418D03*
D18*
X304936580Y-78556723D02*
X305824056Y-76807413D01*
D17*
X310412809Y-74459770D03*
D18*
X310524287Y-75030360D02*
X310412359Y-74459858D01*
D16*
X302829564Y-55972522D03*
X308202713Y-56706871D03*
D17*
X300906505Y-58454828D03*
D18*
X300019018Y-60204133D02*
X300906494Y-58454823D01*
D17*
X305495247Y-56107180D03*
D18*
X305606725Y-56677770D02*
X305494797Y-56107268D01*
D16*
X297912002Y-37619931D03*
X303285151Y-38354280D03*
D17*
X295988943Y-40102237D03*
D18*
X295101456Y-41851542D02*
X295988932Y-40102232D01*
D17*
X300577685Y-37754589D03*
D18*
X300689163Y-38325179D02*
X300577235Y-37754677D01*
D16*
X104990558Y-92722425D03*
X109276668Y-96044964D03*
D17*
X102083988Y-93910636D03*
D18*
X100440749Y-94981835D02*
X102083981Y-93910625D01*
D17*
X107231778Y-94171884D03*
D18*
X107043026Y-94721768D02*
X107231344Y-94171734D01*
D16*
X109908120Y-74369834D03*
X114194230Y-77692373D03*
D17*
X107001550Y-75558045D03*
D18*
X105358311Y-76629244D02*
X107001543Y-75558034D01*
D17*
X112149340Y-75819293D03*
D18*
X111960588Y-76369177D02*
X112148906Y-75819143D01*
D16*
X114825682Y-56017244D03*
X119111792Y-59339783D03*
D17*
X111919112Y-57205455D03*
D18*
X110275873Y-58276654D02*
X111919105Y-57205444D01*
D17*
X117066902Y-57466703D03*
D18*
X116878150Y-58016587D02*
X117066468Y-57466553D01*
D16*
X332621957Y-93748881D03*
X337995106Y-94483230D03*
D17*
X330698898Y-96231187D03*
D18*
X329811411Y-97980492D02*
X330698887Y-96231182D01*
D17*
X335287640Y-93883539D03*
D18*
X335399118Y-94454129D02*
X335287190Y-93883627D01*
D16*
X327704395Y-75396291D03*
X333077544Y-76130640D03*
D17*
X325781336Y-77878597D03*
D18*
X324893849Y-79627902D02*
X325781325Y-77878592D01*
D17*
X330370078Y-75530949D03*
D18*
X330481556Y-76101539D02*
X330369628Y-75531037D01*
D16*
X322786833Y-57043700D03*
X328159982Y-57778049D03*
D17*
X320863774Y-59526006D03*
D18*
X319976287Y-61275311D02*
X320863763Y-59526001D01*
D17*
X325452516Y-57178358D03*
D18*
X325563994Y-57748948D02*
X325452066Y-57178446D01*
D16*
X317869271Y-38691109D03*
X323242420Y-39425458D03*
D17*
X315946212Y-41173415D03*
D18*
X315058725Y-42922720D02*
X315946201Y-41173410D01*
D17*
X320534954Y-38825767D03*
D18*
X320646432Y-39396357D02*
X320534504Y-38825855D01*
D16*
X85033289Y-93793603D03*
X89319399Y-97116142D03*
D17*
X82126719Y-94981814D03*
D18*
X80483480Y-96053013D02*
X82126712Y-94981803D01*
D17*
X87274509Y-95243062D03*
D18*
X87085757Y-95792946D02*
X87274075Y-95242912D01*
D16*
X89950851Y-75441012D03*
X94236961Y-78763551D03*
D17*
X87044281Y-76629223D03*
D18*
X85401042Y-77700422D02*
X87044274Y-76629212D01*
D17*
X92192071Y-76890471D03*
D18*
X92003319Y-77440355D02*
X92191637Y-76890321D01*
D16*
X94868413Y-57088422D03*
X99154523Y-60410961D03*
D17*
X91961843Y-58276633D03*
D18*
X90318604Y-59347832D02*
X91961836Y-58276622D01*
D17*
X97109633Y-58537881D03*
D18*
X96920881Y-59087765D02*
X97109199Y-58537731D01*
D16*
X99785975Y-38735831D03*
X104072085Y-42058370D03*
D17*
X96879405Y-39924042D03*
D18*
X95236166Y-40995241D02*
X96879398Y-39924031D01*
D17*
X102027195Y-40185290D03*
D18*
X101838443Y-40735174D02*
X102026761Y-40185140D01*
D16*
X351633607Y-90518222D03*
X357006756Y-91252571D03*
D17*
X349710548Y-93000528D03*
D18*
X348823061Y-94749833D02*
X349710537Y-93000523D01*
D17*
X354299290Y-90652880D03*
D18*
X354410768Y-91223470D02*
X354298840Y-90652968D01*
D16*
X346716045Y-72165632D03*
X352089194Y-72899981D03*
D17*
X344792986Y-74647938D03*
D18*
X343905499Y-76397243D02*
X344792975Y-74647933D01*
D17*
X349381728Y-72300290D03*
D18*
X349493206Y-72870880D02*
X349381278Y-72300378D01*
D16*
X341798483Y-53813041D03*
X347171632Y-54547390D03*
D17*
X339875424Y-56295347D03*
D18*
X338987937Y-58044652D02*
X339875413Y-56295342D01*
D17*
X344464166Y-53947699D03*
D18*
X344575644Y-54518289D02*
X344463716Y-53947787D01*
D16*
X336880921Y-35460450D03*
X342254070Y-36194799D03*
D17*
X334957862Y-37942756D03*
D18*
X334070375Y-39692061D02*
X334957851Y-37942751D01*
D17*
X339546604Y-35595108D03*
D18*
X339658082Y-36165698D02*
X339546154Y-35595196D01*
D16*
X66214824Y-90614708D03*
X70500934Y-93937247D03*
D17*
X63308254Y-91802919D03*
D18*
X61665015Y-92874118D02*
X63308247Y-91802908D01*
D17*
X68456044Y-92064167D03*
D18*
X68267292Y-92614051D02*
X68455610Y-92064017D01*
D16*
X71132386Y-72262117D03*
X75418496Y-75584656D03*
D17*
X68225816Y-73450328D03*
D18*
X66582577Y-74521527D02*
X68225809Y-73450317D01*
D17*
X73373606Y-73711576D03*
D18*
X73184854Y-74261460D02*
X73373172Y-73711426D01*
D16*
X76049948Y-53909526D03*
X80336058Y-57232065D03*
D17*
X73143378Y-55097737D03*
D18*
X71500139Y-56168936D02*
X73143371Y-55097726D01*
D17*
X78291168Y-55358985D03*
D18*
X78102416Y-55908869D02*
X78290734Y-55358835D01*
D16*
X80967510Y-35556936D03*
X85253620Y-38879475D03*
D17*
X78060940Y-36745147D03*
D18*
X76417701Y-37816346D02*
X78060933Y-36745136D01*
D17*
X83208730Y-37006395D03*
D18*
X83019978Y-37556279D02*
X83208296Y-37006245D01*
G04 #@! TA.AperFunction,Conductor*
D19*
G36*
X248992811Y-154524807D02*
G01*
X249242811Y-154091795D01*
X251754285Y-155541795D01*
X251504285Y-155974807D01*
X248992811Y-154524807D01*
G37*
G04 #@! TD.AperFunction*
G04 #@! TA.AperFunction,Conductor*
G36*
X244662683Y-152024807D02*
G01*
X244912683Y-151591795D01*
X247424157Y-153041795D01*
X247174157Y-153474807D01*
X244662683Y-152024807D01*
G37*
G04 #@! TD.AperFunction*
G04 #@! TA.AperFunction,ComponentPad*
G36*
X250493163Y-156026121D02*
G01*
X251293163Y-154640481D01*
X252678803Y-155440481D01*
X251878803Y-156826121D01*
X250493163Y-156026121D01*
G37*
G04 #@! TD.AperFunction*
D13*
X244830985Y-151833301D03*
G04 #@! TA.AperFunction,SMDPad,CuDef*
D19*
G36*
X246003228Y-153202916D02*
G01*
X246603228Y-152163686D01*
X247988868Y-152963686D01*
X247388868Y-154002916D01*
X246003228Y-153202916D01*
G37*
G04 #@! TD.AperFunction*
G04 #@! TA.AperFunction,SMDPad,CuDef*
G36*
X248428100Y-154602916D02*
G01*
X249028100Y-153563686D01*
X250413740Y-154363686D01*
X249813740Y-155402916D01*
X248428100Y-154602916D01*
G37*
G04 #@! TD.AperFunction*
G04 #@! TA.AperFunction,Conductor*
G36*
X232538328Y-145024806D02*
G01*
X232788328Y-144591794D01*
X235299802Y-146041794D01*
X235049802Y-146474806D01*
X232538328Y-145024806D01*
G37*
G04 #@! TD.AperFunction*
G04 #@! TA.AperFunction,Conductor*
G36*
X228208200Y-142524806D02*
G01*
X228458200Y-142091794D01*
X230969674Y-143541794D01*
X230719674Y-143974806D01*
X228208200Y-142524806D01*
G37*
G04 #@! TD.AperFunction*
G04 #@! TA.AperFunction,ComponentPad*
G36*
X234038680Y-146526120D02*
G01*
X234838680Y-145140480D01*
X236224320Y-145940480D01*
X235424320Y-147326120D01*
X234038680Y-146526120D01*
G37*
G04 #@! TD.AperFunction*
D13*
X228376502Y-142333300D03*
G04 #@! TA.AperFunction,SMDPad,CuDef*
D19*
G36*
X229548745Y-143702915D02*
G01*
X230148745Y-142663685D01*
X231534385Y-143463685D01*
X230934385Y-144502915D01*
X229548745Y-143702915D01*
G37*
G04 #@! TD.AperFunction*
G04 #@! TA.AperFunction,SMDPad,CuDef*
G36*
X231973617Y-145102915D02*
G01*
X232573617Y-144063685D01*
X233959257Y-144863685D01*
X233359257Y-145902915D01*
X231973617Y-145102915D01*
G37*
G04 #@! TD.AperFunction*
G04 #@! TA.AperFunction,Conductor*
G36*
X250224563Y-125558021D02*
G01*
X250578117Y-125204467D01*
X252628727Y-127255077D01*
X252275173Y-127608631D01*
X250224563Y-125558021D01*
G37*
G04 #@! TD.AperFunction*
G04 #@! TA.AperFunction,Conductor*
G36*
X246689029Y-122022487D02*
G01*
X247042583Y-121668933D01*
X249093193Y-123719543D01*
X248739639Y-124073097D01*
X246689029Y-122022487D01*
G37*
G04 #@! TD.AperFunction*
G04 #@! TA.AperFunction,ComponentPad*
G36*
X251285223Y-127396498D02*
G01*
X252416594Y-126265127D01*
X253547965Y-127396498D01*
X252416594Y-128527869D01*
X251285223Y-127396498D01*
G37*
G04 #@! TD.AperFunction*
D13*
X246901162Y-121881066D03*
G04 #@! TA.AperFunction,SMDPad,CuDef*
D19*
G36*
X247678980Y-123507412D02*
G01*
X248527508Y-122658884D01*
X249658878Y-123790254D01*
X248810350Y-124638782D01*
X247678980Y-123507412D01*
G37*
G04 #@! TD.AperFunction*
G04 #@! TA.AperFunction,SMDPad,CuDef*
G36*
X249658878Y-125487310D02*
G01*
X250507406Y-124638782D01*
X251638776Y-125770152D01*
X250790248Y-126618680D01*
X249658878Y-125487310D01*
G37*
G04 #@! TD.AperFunction*
G04 #@! TA.AperFunction,Conductor*
G36*
X263942434Y-138993050D02*
G01*
X264295988Y-138639496D01*
X266346598Y-140690106D01*
X265993044Y-141043660D01*
X263942434Y-138993050D01*
G37*
G04 #@! TD.AperFunction*
G04 #@! TA.AperFunction,Conductor*
G36*
X260406900Y-135457516D02*
G01*
X260760454Y-135103962D01*
X262811064Y-137154572D01*
X262457510Y-137508126D01*
X260406900Y-135457516D01*
G37*
G04 #@! TD.AperFunction*
G04 #@! TA.AperFunction,ComponentPad*
G36*
X265003094Y-140831527D02*
G01*
X266134465Y-139700156D01*
X267265836Y-140831527D01*
X266134465Y-141962898D01*
X265003094Y-140831527D01*
G37*
G04 #@! TD.AperFunction*
D13*
X260619033Y-135316095D03*
G04 #@! TA.AperFunction,SMDPad,CuDef*
D19*
G36*
X261396851Y-136942441D02*
G01*
X262245379Y-136093913D01*
X263376749Y-137225283D01*
X262528221Y-138073811D01*
X261396851Y-136942441D01*
G37*
G04 #@! TD.AperFunction*
G04 #@! TA.AperFunction,SMDPad,CuDef*
G36*
X263376749Y-138922339D02*
G01*
X264225277Y-138073811D01*
X265356647Y-139205181D01*
X264508119Y-140053709D01*
X263376749Y-138922339D01*
G37*
G04 #@! TD.AperFunction*
G04 #@! TA.AperFunction,Conductor*
G36*
X282121288Y-128026070D02*
G01*
X282554300Y-127776070D01*
X284004300Y-130287544D01*
X283571288Y-130537544D01*
X282121288Y-128026070D01*
G37*
G04 #@! TD.AperFunction*
G04 #@! TA.AperFunction,Conductor*
G36*
X279621288Y-123695942D02*
G01*
X280054300Y-123445942D01*
X281504300Y-125957416D01*
X281071288Y-126207416D01*
X279621288Y-123695942D01*
G37*
G04 #@! TD.AperFunction*
G04 #@! TA.AperFunction,ComponentPad*
G36*
X282669974Y-130076422D02*
G01*
X284055614Y-129276422D01*
X284855614Y-130662062D01*
X283469974Y-131462062D01*
X282669974Y-130076422D01*
G37*
G04 #@! TD.AperFunction*
D13*
X279862794Y-123614244D03*
G04 #@! TA.AperFunction,SMDPad,CuDef*
D19*
G36*
X280193179Y-125386487D02*
G01*
X281232409Y-124786487D01*
X282032409Y-126172127D01*
X280993179Y-126772127D01*
X280193179Y-125386487D01*
G37*
G04 #@! TD.AperFunction*
G04 #@! TA.AperFunction,SMDPad,CuDef*
G36*
X281593179Y-127811359D02*
G01*
X282632409Y-127211359D01*
X283432409Y-128596999D01*
X282393179Y-129196999D01*
X281593179Y-127811359D01*
G37*
G04 #@! TD.AperFunction*
G04 #@! TA.AperFunction,Conductor*
G36*
X302525637Y-122259870D02*
G01*
X303008600Y-122130461D01*
X303759175Y-124931646D01*
X303276212Y-125061055D01*
X302525637Y-122259870D01*
G37*
G04 #@! TD.AperFunction*
G04 #@! TA.AperFunction,Conductor*
G36*
X301231541Y-117430240D02*
G01*
X301714504Y-117300831D01*
X302465079Y-120102016D01*
X301982116Y-120231425D01*
X301231541Y-117430240D01*
G37*
G04 #@! TD.AperFunction*
G04 #@! TA.AperFunction,ComponentPad*
G36*
X302524956Y-124382369D02*
G01*
X304070437Y-123968258D01*
X304484548Y-125513739D01*
X302939067Y-125927850D01*
X302524956Y-124382369D01*
G37*
G04 #@! TD.AperFunction*
D13*
X301485964Y-117413832D03*
G04 #@! TA.AperFunction,SMDPad,CuDef*
D19*
G36*
X301346400Y-119211198D02*
G01*
X302505511Y-118900615D01*
X302919622Y-120446096D01*
X301760511Y-120756679D01*
X301346400Y-119211198D01*
G37*
G04 #@! TD.AperFunction*
G04 #@! TA.AperFunction,SMDPad,CuDef*
G36*
X302071094Y-121915790D02*
G01*
X303230205Y-121605207D01*
X303644316Y-123150688D01*
X302485205Y-123461271D01*
X302071094Y-121915790D01*
G37*
G04 #@! TD.AperFunction*
G04 #@! TA.AperFunction,Conductor*
G36*
X321071412Y-117290545D02*
G01*
X321554375Y-117161136D01*
X322304950Y-119962321D01*
X321821987Y-120091730D01*
X321071412Y-117290545D01*
G37*
G04 #@! TD.AperFunction*
G04 #@! TA.AperFunction,Conductor*
G36*
X319777316Y-112460915D02*
G01*
X320260279Y-112331506D01*
X321010854Y-115132691D01*
X320527891Y-115262100D01*
X319777316Y-112460915D01*
G37*
G04 #@! TD.AperFunction*
G04 #@! TA.AperFunction,ComponentPad*
G36*
X321070731Y-119413044D02*
G01*
X322616212Y-118998933D01*
X323030323Y-120544414D01*
X321484842Y-120958525D01*
X321070731Y-119413044D01*
G37*
G04 #@! TD.AperFunction*
D13*
X320031739Y-112444507D03*
G04 #@! TA.AperFunction,SMDPad,CuDef*
D19*
G36*
X319892175Y-114241873D02*
G01*
X321051286Y-113931290D01*
X321465397Y-115476771D01*
X320306286Y-115787354D01*
X319892175Y-114241873D01*
G37*
G04 #@! TD.AperFunction*
G04 #@! TA.AperFunction,SMDPad,CuDef*
G36*
X320616869Y-116946465D02*
G01*
X321775980Y-116635882D01*
X322190091Y-118181363D01*
X321030980Y-118491946D01*
X320616869Y-116946465D01*
G37*
G04 #@! TD.AperFunction*
G04 #@! TA.AperFunction,Conductor*
G36*
X194246284Y-161125299D02*
G01*
X194496284Y-161558311D01*
X191984810Y-163008311D01*
X191734810Y-162575299D01*
X194246284Y-161125299D01*
G37*
G04 #@! TD.AperFunction*
G04 #@! TA.AperFunction,Conductor*
G36*
X198576412Y-158625299D02*
G01*
X198826412Y-159058311D01*
X196314938Y-160508311D01*
X196064938Y-160075299D01*
X198576412Y-158625299D01*
G37*
G04 #@! TD.AperFunction*
G04 #@! TA.AperFunction,ComponentPad*
G36*
X192195932Y-161673985D02*
G01*
X192995932Y-163059625D01*
X191610292Y-163859625D01*
X190810292Y-162473985D01*
X192195932Y-161673985D01*
G37*
G04 #@! TD.AperFunction*
D13*
X198658110Y-158866805D03*
G04 #@! TA.AperFunction,SMDPad,CuDef*
D19*
G36*
X196885867Y-159197190D02*
G01*
X197485867Y-160236420D01*
X196100227Y-161036420D01*
X195500227Y-159997190D01*
X196885867Y-159197190D01*
G37*
G04 #@! TD.AperFunction*
G04 #@! TA.AperFunction,SMDPad,CuDef*
G36*
X194460995Y-160597190D02*
G01*
X195060995Y-161636420D01*
X193675355Y-162436420D01*
X193075355Y-161397190D01*
X194460995Y-160597190D01*
G37*
G04 #@! TD.AperFunction*
G04 #@! TA.AperFunction,Conductor*
G36*
X180315673Y-169058494D02*
G01*
X180565673Y-169491506D01*
X178054199Y-170941506D01*
X177804199Y-170508494D01*
X180315673Y-169058494D01*
G37*
G04 #@! TD.AperFunction*
G04 #@! TA.AperFunction,Conductor*
G36*
X184645801Y-166558494D02*
G01*
X184895801Y-166991506D01*
X182384327Y-168441506D01*
X182134327Y-168008494D01*
X184645801Y-166558494D01*
G37*
G04 #@! TD.AperFunction*
G04 #@! TA.AperFunction,ComponentPad*
G36*
X178265321Y-169607180D02*
G01*
X179065321Y-170992820D01*
X177679681Y-171792820D01*
X176879681Y-170407180D01*
X178265321Y-169607180D01*
G37*
G04 #@! TD.AperFunction*
D13*
X184727499Y-166800000D03*
G04 #@! TA.AperFunction,SMDPad,CuDef*
D19*
G36*
X182955256Y-167130385D02*
G01*
X183555256Y-168169615D01*
X182169616Y-168969615D01*
X181569616Y-167930385D01*
X182955256Y-167130385D01*
G37*
G04 #@! TD.AperFunction*
G04 #@! TA.AperFunction,SMDPad,CuDef*
G36*
X180530384Y-168530385D02*
G01*
X181130384Y-169569615D01*
X179744744Y-170369615D01*
X179144744Y-169330385D01*
X180530384Y-168530385D01*
G37*
G04 #@! TD.AperFunction*
G04 #@! TA.AperFunction,Conductor*
G36*
X166584703Y-152317422D02*
G01*
X166938257Y-152670976D01*
X164887647Y-154721586D01*
X164534093Y-154368032D01*
X166584703Y-152317422D01*
G37*
G04 #@! TD.AperFunction*
G04 #@! TA.AperFunction,Conductor*
G36*
X170120237Y-148781888D02*
G01*
X170473791Y-149135442D01*
X168423181Y-151186052D01*
X168069627Y-150832498D01*
X170120237Y-148781888D01*
G37*
G04 #@! TD.AperFunction*
G04 #@! TA.AperFunction,ComponentPad*
G36*
X164746226Y-153378082D02*
G01*
X165877597Y-154509453D01*
X164746226Y-155640824D01*
X163614855Y-154509453D01*
X164746226Y-153378082D01*
G37*
G04 #@! TD.AperFunction*
D13*
X170261658Y-148994021D03*
G04 #@! TA.AperFunction,SMDPad,CuDef*
D19*
G36*
X168635312Y-149771839D02*
G01*
X169483840Y-150620367D01*
X168352470Y-151751737D01*
X167503942Y-150903209D01*
X168635312Y-149771839D01*
G37*
G04 #@! TD.AperFunction*
G04 #@! TA.AperFunction,SMDPad,CuDef*
G36*
X166655414Y-151751737D02*
G01*
X167503942Y-152600265D01*
X166372572Y-153731635D01*
X165524044Y-152883107D01*
X166655414Y-151751737D01*
G37*
G04 #@! TD.AperFunction*
G04 #@! TA.AperFunction,Conductor*
G36*
X152052838Y-136886510D02*
G01*
X152485850Y-137136510D01*
X151035850Y-139647984D01*
X150602838Y-139397984D01*
X152052838Y-136886510D01*
G37*
G04 #@! TD.AperFunction*
G04 #@! TA.AperFunction,Conductor*
G36*
X154552838Y-132556382D02*
G01*
X154985850Y-132806382D01*
X153535850Y-135317856D01*
X153102838Y-135067856D01*
X154552838Y-132556382D01*
G37*
G04 #@! TD.AperFunction*
G04 #@! TA.AperFunction,ComponentPad*
G36*
X150551524Y-138386862D02*
G01*
X151937164Y-139186862D01*
X151137164Y-140572502D01*
X149751524Y-139772502D01*
X150551524Y-138386862D01*
G37*
G04 #@! TD.AperFunction*
D13*
X154744344Y-132724684D03*
G04 #@! TA.AperFunction,SMDPad,CuDef*
D19*
G36*
X153374729Y-133896927D02*
G01*
X154413959Y-134496927D01*
X153613959Y-135882567D01*
X152574729Y-135282567D01*
X153374729Y-133896927D01*
G37*
G04 #@! TD.AperFunction*
G04 #@! TA.AperFunction,SMDPad,CuDef*
G36*
X151974729Y-136321799D02*
G01*
X153013959Y-136921799D01*
X152213959Y-138307439D01*
X151174729Y-137707439D01*
X151974729Y-136321799D01*
G37*
G04 #@! TD.AperFunction*
G04 #@! TA.AperFunction,Conductor*
G36*
X133006172Y-126680493D02*
G01*
X133489135Y-126809902D01*
X132738560Y-129611087D01*
X132255597Y-129481678D01*
X133006172Y-126680493D01*
G37*
G04 #@! TD.AperFunction*
G04 #@! TA.AperFunction,Conductor*
G36*
X134300268Y-121850863D02*
G01*
X134783231Y-121980272D01*
X134032656Y-124781457D01*
X133549693Y-124652048D01*
X134300268Y-121850863D01*
G37*
G04 #@! TD.AperFunction*
G04 #@! TA.AperFunction,ComponentPad*
G36*
X131944335Y-128518290D02*
G01*
X133489816Y-128932401D01*
X133075705Y-130477882D01*
X131530224Y-130063771D01*
X131944335Y-128518290D01*
G37*
G04 #@! TD.AperFunction*
D13*
X134528808Y-121963864D03*
G04 #@! TA.AperFunction,SMDPad,CuDef*
D19*
G36*
X133509261Y-123450647D02*
G01*
X134668372Y-123761230D01*
X134254261Y-125306711D01*
X133095150Y-124996128D01*
X133509261Y-123450647D01*
G37*
G04 #@! TD.AperFunction*
G04 #@! TA.AperFunction,SMDPad,CuDef*
G36*
X132784567Y-126155239D02*
G01*
X133943678Y-126465822D01*
X133529567Y-128011303D01*
X132370456Y-127700720D01*
X132784567Y-126155239D01*
G37*
G04 #@! TD.AperFunction*
G04 #@! TA.AperFunction,Conductor*
G36*
X114705345Y-121569746D02*
G01*
X115188308Y-121699155D01*
X114437733Y-124500340D01*
X113954770Y-124370931D01*
X114705345Y-121569746D01*
G37*
G04 #@! TD.AperFunction*
G04 #@! TA.AperFunction,Conductor*
G36*
X115999441Y-116740116D02*
G01*
X116482404Y-116869525D01*
X115731829Y-119670710D01*
X115248866Y-119541301D01*
X115999441Y-116740116D01*
G37*
G04 #@! TD.AperFunction*
G04 #@! TA.AperFunction,ComponentPad*
G36*
X113643508Y-123407543D02*
G01*
X115188989Y-123821654D01*
X114774878Y-125367135D01*
X113229397Y-124953024D01*
X113643508Y-123407543D01*
G37*
G04 #@! TD.AperFunction*
D13*
X116227981Y-116853117D03*
G04 #@! TA.AperFunction,SMDPad,CuDef*
D19*
G36*
X115208434Y-118339900D02*
G01*
X116367545Y-118650483D01*
X115953434Y-120195964D01*
X114794323Y-119885381D01*
X115208434Y-118339900D01*
G37*
G04 #@! TD.AperFunction*
G04 #@! TA.AperFunction,SMDPad,CuDef*
G36*
X114483740Y-121044492D02*
G01*
X115642851Y-121355075D01*
X115228740Y-122900556D01*
X114069629Y-122589973D01*
X114483740Y-121044492D01*
G37*
G04 #@! TD.AperFunction*
G04 #@! TA.AperFunction,Conductor*
G36*
X268813331Y-113900416D02*
G01*
X269296294Y-113771007D01*
X270046869Y-116572192D01*
X269563906Y-116701601D01*
X268813331Y-113900416D01*
G37*
G04 #@! TD.AperFunction*
G04 #@! TA.AperFunction,Conductor*
G36*
X267519235Y-109070786D02*
G01*
X268002198Y-108941377D01*
X268752773Y-111742562D01*
X268269810Y-111871971D01*
X267519235Y-109070786D01*
G37*
G04 #@! TD.AperFunction*
G04 #@! TA.AperFunction,ComponentPad*
G36*
X268812650Y-116022915D02*
G01*
X270358131Y-115608804D01*
X270772242Y-117154285D01*
X269226761Y-117568396D01*
X268812650Y-116022915D01*
G37*
G04 #@! TD.AperFunction*
D13*
X267773658Y-109054378D03*
G04 #@! TA.AperFunction,SMDPad,CuDef*
D19*
G36*
X267634094Y-110851744D02*
G01*
X268793205Y-110541161D01*
X269207316Y-112086642D01*
X268048205Y-112397225D01*
X267634094Y-110851744D01*
G37*
G04 #@! TD.AperFunction*
G04 #@! TA.AperFunction,SMDPad,CuDef*
G36*
X268358788Y-113556336D02*
G01*
X269517899Y-113245753D01*
X269932010Y-114791234D01*
X268772899Y-115101817D01*
X268358788Y-113556336D01*
G37*
G04 #@! TD.AperFunction*
G04 #@! TA.AperFunction,Conductor*
G36*
X264395141Y-95672838D02*
G01*
X264878104Y-95543429D01*
X265628679Y-98344614D01*
X265145716Y-98474023D01*
X264395141Y-95672838D01*
G37*
G04 #@! TD.AperFunction*
G04 #@! TA.AperFunction,Conductor*
G36*
X263101045Y-90843208D02*
G01*
X263584008Y-90713799D01*
X264334583Y-93514984D01*
X263851620Y-93644393D01*
X263101045Y-90843208D01*
G37*
G04 #@! TD.AperFunction*
G04 #@! TA.AperFunction,ComponentPad*
G36*
X264394460Y-97795337D02*
G01*
X265939941Y-97381226D01*
X266354052Y-98926707D01*
X264808571Y-99340818D01*
X264394460Y-97795337D01*
G37*
G04 #@! TD.AperFunction*
D13*
X263355468Y-90826800D03*
G04 #@! TA.AperFunction,SMDPad,CuDef*
D19*
G36*
X263215904Y-92624166D02*
G01*
X264375015Y-92313583D01*
X264789126Y-93859064D01*
X263630015Y-94169647D01*
X263215904Y-92624166D01*
G37*
G04 #@! TD.AperFunction*
G04 #@! TA.AperFunction,SMDPad,CuDef*
G36*
X263940598Y-95328758D02*
G01*
X265099709Y-95018175D01*
X265513820Y-96563656D01*
X264354709Y-96874239D01*
X263940598Y-95328758D01*
G37*
G04 #@! TD.AperFunction*
G04 #@! TA.AperFunction,Conductor*
G36*
X258978208Y-77195234D02*
G01*
X259461171Y-77065825D01*
X260211746Y-79867010D01*
X259728783Y-79996419D01*
X258978208Y-77195234D01*
G37*
G04 #@! TD.AperFunction*
G04 #@! TA.AperFunction,Conductor*
G36*
X257684112Y-72365604D02*
G01*
X258167075Y-72236195D01*
X258917650Y-75037380D01*
X258434687Y-75166789D01*
X257684112Y-72365604D01*
G37*
G04 #@! TD.AperFunction*
G04 #@! TA.AperFunction,ComponentPad*
G36*
X258977527Y-79317733D02*
G01*
X260523008Y-78903622D01*
X260937119Y-80449103D01*
X259391638Y-80863214D01*
X258977527Y-79317733D01*
G37*
G04 #@! TD.AperFunction*
D13*
X257938535Y-72349196D03*
G04 #@! TA.AperFunction,SMDPad,CuDef*
D19*
G36*
X257798971Y-74146562D02*
G01*
X258958082Y-73835979D01*
X259372193Y-75381460D01*
X258213082Y-75692043D01*
X257798971Y-74146562D01*
G37*
G04 #@! TD.AperFunction*
G04 #@! TA.AperFunction,SMDPad,CuDef*
G36*
X258523665Y-76851154D02*
G01*
X259682776Y-76540571D01*
X260096887Y-78086052D01*
X258937776Y-78396635D01*
X258523665Y-76851154D01*
G37*
G04 #@! TD.AperFunction*
G04 #@! TA.AperFunction,Conductor*
G36*
X254060646Y-58842643D02*
G01*
X254543609Y-58713234D01*
X255294184Y-61514419D01*
X254811221Y-61643828D01*
X254060646Y-58842643D01*
G37*
G04 #@! TD.AperFunction*
G04 #@! TA.AperFunction,Conductor*
G36*
X252766550Y-54013013D02*
G01*
X253249513Y-53883604D01*
X254000088Y-56684789D01*
X253517125Y-56814198D01*
X252766550Y-54013013D01*
G37*
G04 #@! TD.AperFunction*
G04 #@! TA.AperFunction,ComponentPad*
G36*
X254059965Y-60965142D02*
G01*
X255605446Y-60551031D01*
X256019557Y-62096512D01*
X254474076Y-62510623D01*
X254059965Y-60965142D01*
G37*
G04 #@! TD.AperFunction*
D13*
X253020973Y-53996605D03*
G04 #@! TA.AperFunction,SMDPad,CuDef*
D19*
G36*
X252881409Y-55793971D02*
G01*
X254040520Y-55483388D01*
X254454631Y-57028869D01*
X253295520Y-57339452D01*
X252881409Y-55793971D01*
G37*
G04 #@! TD.AperFunction*
G04 #@! TA.AperFunction,SMDPad,CuDef*
G36*
X253606103Y-58498563D02*
G01*
X254765214Y-58187980D01*
X255179325Y-59733461D01*
X254020214Y-60044044D01*
X253606103Y-58498563D01*
G37*
G04 #@! TD.AperFunction*
G04 #@! TA.AperFunction,Conductor*
G36*
X286596520Y-106857817D02*
G01*
X287079483Y-106728408D01*
X287830058Y-109529593D01*
X287347095Y-109659002D01*
X286596520Y-106857817D01*
G37*
G04 #@! TD.AperFunction*
G04 #@! TA.AperFunction,Conductor*
G36*
X285302424Y-102028187D02*
G01*
X285785387Y-101898778D01*
X286535962Y-104699963D01*
X286052999Y-104829372D01*
X285302424Y-102028187D01*
G37*
G04 #@! TD.AperFunction*
G04 #@! TA.AperFunction,ComponentPad*
G36*
X286595839Y-108980316D02*
G01*
X288141320Y-108566205D01*
X288555431Y-110111686D01*
X287009950Y-110525797D01*
X286595839Y-108980316D01*
G37*
G04 #@! TD.AperFunction*
D13*
X285556847Y-102011779D03*
G04 #@! TA.AperFunction,SMDPad,CuDef*
D19*
G36*
X285417283Y-103809145D02*
G01*
X286576394Y-103498562D01*
X286990505Y-105044043D01*
X285831394Y-105354626D01*
X285417283Y-103809145D01*
G37*
G04 #@! TD.AperFunction*
G04 #@! TA.AperFunction,SMDPad,CuDef*
G36*
X286141977Y-106513737D02*
G01*
X287301088Y-106203154D01*
X287715199Y-107748635D01*
X286556088Y-108059218D01*
X286141977Y-106513737D01*
G37*
G04 #@! TD.AperFunction*
G04 #@! TA.AperFunction,Conductor*
G36*
X281420139Y-87539300D02*
G01*
X281903102Y-87409891D01*
X282653677Y-90211076D01*
X282170714Y-90340485D01*
X281420139Y-87539300D01*
G37*
G04 #@! TD.AperFunction*
G04 #@! TA.AperFunction,Conductor*
G36*
X280126043Y-82709670D02*
G01*
X280609006Y-82580261D01*
X281359581Y-85381446D01*
X280876618Y-85510855D01*
X280126043Y-82709670D01*
G37*
G04 #@! TD.AperFunction*
G04 #@! TA.AperFunction,ComponentPad*
G36*
X281419458Y-89661799D02*
G01*
X282964939Y-89247688D01*
X283379050Y-90793169D01*
X281833569Y-91207280D01*
X281419458Y-89661799D01*
G37*
G04 #@! TD.AperFunction*
D13*
X280380466Y-82693262D03*
G04 #@! TA.AperFunction,SMDPad,CuDef*
D19*
G36*
X280240902Y-84490628D02*
G01*
X281400013Y-84180045D01*
X281814124Y-85725526D01*
X280655013Y-86036109D01*
X280240902Y-84490628D01*
G37*
G04 #@! TD.AperFunction*
G04 #@! TA.AperFunction,SMDPad,CuDef*
G36*
X280965596Y-87195220D02*
G01*
X282124707Y-86884637D01*
X282538818Y-88430118D01*
X281379707Y-88740701D01*
X280965596Y-87195220D01*
G37*
G04 #@! TD.AperFunction*
G04 #@! TA.AperFunction,Conductor*
G36*
X276761397Y-70152635D02*
G01*
X277244360Y-70023226D01*
X277994935Y-72824411D01*
X277511972Y-72953820D01*
X276761397Y-70152635D01*
G37*
G04 #@! TD.AperFunction*
G04 #@! TA.AperFunction,Conductor*
G36*
X275467301Y-65323005D02*
G01*
X275950264Y-65193596D01*
X276700839Y-67994781D01*
X276217876Y-68124190D01*
X275467301Y-65323005D01*
G37*
G04 #@! TD.AperFunction*
G04 #@! TA.AperFunction,ComponentPad*
G36*
X276760716Y-72275134D02*
G01*
X278306197Y-71861023D01*
X278720308Y-73406504D01*
X277174827Y-73820615D01*
X276760716Y-72275134D01*
G37*
G04 #@! TD.AperFunction*
D13*
X275721724Y-65306597D03*
G04 #@! TA.AperFunction,SMDPad,CuDef*
D19*
G36*
X275582160Y-67103963D02*
G01*
X276741271Y-66793380D01*
X277155382Y-68338861D01*
X275996271Y-68649444D01*
X275582160Y-67103963D01*
G37*
G04 #@! TD.AperFunction*
G04 #@! TA.AperFunction,SMDPad,CuDef*
G36*
X276306854Y-69808555D02*
G01*
X277465965Y-69497972D01*
X277880076Y-71043453D01*
X276720965Y-71354036D01*
X276306854Y-69808555D01*
G37*
G04 #@! TD.AperFunction*
G04 #@! TA.AperFunction,Conductor*
G36*
X271843835Y-51800045D02*
G01*
X272326798Y-51670636D01*
X273077373Y-54471821D01*
X272594410Y-54601230D01*
X271843835Y-51800045D01*
G37*
G04 #@! TD.AperFunction*
G04 #@! TA.AperFunction,Conductor*
G36*
X270549739Y-46970415D02*
G01*
X271032702Y-46841006D01*
X271783277Y-49642191D01*
X271300314Y-49771600D01*
X270549739Y-46970415D01*
G37*
G04 #@! TD.AperFunction*
G04 #@! TA.AperFunction,ComponentPad*
G36*
X271843154Y-53922544D02*
G01*
X273388635Y-53508433D01*
X273802746Y-55053914D01*
X272257265Y-55468025D01*
X271843154Y-53922544D01*
G37*
G04 #@! TD.AperFunction*
D13*
X270804162Y-46954007D03*
G04 #@! TA.AperFunction,SMDPad,CuDef*
D19*
G36*
X270664598Y-48751373D02*
G01*
X271823709Y-48440790D01*
X272237820Y-49986271D01*
X271078709Y-50296854D01*
X270664598Y-48751373D01*
G37*
G04 #@! TD.AperFunction*
G04 #@! TA.AperFunction,SMDPad,CuDef*
G36*
X271389292Y-51455965D02*
G01*
X272548403Y-51145382D01*
X272962514Y-52690863D01*
X271803403Y-53001446D01*
X271389292Y-51455965D01*
G37*
G04 #@! TD.AperFunction*
G04 #@! TA.AperFunction,Conductor*
G36*
X303951728Y-97445232D02*
G01*
X304434691Y-97315823D01*
X305185266Y-100117008D01*
X304702303Y-100246417D01*
X303951728Y-97445232D01*
G37*
G04 #@! TD.AperFunction*
G04 #@! TA.AperFunction,Conductor*
G36*
X302657632Y-92615602D02*
G01*
X303140595Y-92486193D01*
X303891170Y-95287378D01*
X303408207Y-95416787D01*
X302657632Y-92615602D01*
G37*
G04 #@! TD.AperFunction*
G04 #@! TA.AperFunction,ComponentPad*
G36*
X303951047Y-99567731D02*
G01*
X305496528Y-99153620D01*
X305910639Y-100699101D01*
X304365158Y-101113212D01*
X303951047Y-99567731D01*
G37*
G04 #@! TD.AperFunction*
D13*
X302912055Y-92599194D03*
G04 #@! TA.AperFunction,SMDPad,CuDef*
D19*
G36*
X302772491Y-94396560D02*
G01*
X303931602Y-94085977D01*
X304345713Y-95631458D01*
X303186602Y-95942041D01*
X302772491Y-94396560D01*
G37*
G04 #@! TD.AperFunction*
G04 #@! TA.AperFunction,SMDPad,CuDef*
G36*
X303497185Y-97101152D02*
G01*
X304656296Y-96790569D01*
X305070407Y-98336050D01*
X303911296Y-98646633D01*
X303497185Y-97101152D01*
G37*
G04 #@! TD.AperFunction*
G04 #@! TA.AperFunction,Conductor*
G36*
X299034167Y-79092642D02*
G01*
X299517130Y-78963233D01*
X300267705Y-81764418D01*
X299784742Y-81893827D01*
X299034167Y-79092642D01*
G37*
G04 #@! TD.AperFunction*
G04 #@! TA.AperFunction,Conductor*
G36*
X297740071Y-74263012D02*
G01*
X298223034Y-74133603D01*
X298973609Y-76934788D01*
X298490646Y-77064197D01*
X297740071Y-74263012D01*
G37*
G04 #@! TD.AperFunction*
G04 #@! TA.AperFunction,ComponentPad*
G36*
X299033486Y-81215141D02*
G01*
X300578967Y-80801030D01*
X300993078Y-82346511D01*
X299447597Y-82760622D01*
X299033486Y-81215141D01*
G37*
G04 #@! TD.AperFunction*
D13*
X297994494Y-74246604D03*
G04 #@! TA.AperFunction,SMDPad,CuDef*
D19*
G36*
X297854930Y-76043970D02*
G01*
X299014041Y-75733387D01*
X299428152Y-77278868D01*
X298269041Y-77589451D01*
X297854930Y-76043970D01*
G37*
G04 #@! TD.AperFunction*
G04 #@! TA.AperFunction,SMDPad,CuDef*
G36*
X298579624Y-78748562D02*
G01*
X299738735Y-78437979D01*
X300152846Y-79983460D01*
X298993735Y-80294043D01*
X298579624Y-78748562D01*
G37*
G04 #@! TD.AperFunction*
G04 #@! TA.AperFunction,Conductor*
G36*
X294116605Y-60740051D02*
G01*
X294599568Y-60610642D01*
X295350143Y-63411827D01*
X294867180Y-63541236D01*
X294116605Y-60740051D01*
G37*
G04 #@! TD.AperFunction*
G04 #@! TA.AperFunction,Conductor*
G36*
X292822509Y-55910421D02*
G01*
X293305472Y-55781012D01*
X294056047Y-58582197D01*
X293573084Y-58711606D01*
X292822509Y-55910421D01*
G37*
G04 #@! TD.AperFunction*
G04 #@! TA.AperFunction,ComponentPad*
G36*
X294115924Y-62862550D02*
G01*
X295661405Y-62448439D01*
X296075516Y-63993920D01*
X294530035Y-64408031D01*
X294115924Y-62862550D01*
G37*
G04 #@! TD.AperFunction*
D13*
X293076932Y-55894013D03*
G04 #@! TA.AperFunction,SMDPad,CuDef*
D19*
G36*
X292937368Y-57691379D02*
G01*
X294096479Y-57380796D01*
X294510590Y-58926277D01*
X293351479Y-59236860D01*
X292937368Y-57691379D01*
G37*
G04 #@! TD.AperFunction*
G04 #@! TA.AperFunction,SMDPad,CuDef*
G36*
X293662062Y-60395971D02*
G01*
X294821173Y-60085388D01*
X295235284Y-61630869D01*
X294076173Y-61941452D01*
X293662062Y-60395971D01*
G37*
G04 #@! TD.AperFunction*
G04 #@! TA.AperFunction,Conductor*
G36*
X289199043Y-42387460D02*
G01*
X289682006Y-42258051D01*
X290432581Y-45059236D01*
X289949618Y-45188645D01*
X289199043Y-42387460D01*
G37*
G04 #@! TD.AperFunction*
G04 #@! TA.AperFunction,Conductor*
G36*
X287904947Y-37557830D02*
G01*
X288387910Y-37428421D01*
X289138485Y-40229606D01*
X288655522Y-40359015D01*
X287904947Y-37557830D01*
G37*
G04 #@! TD.AperFunction*
G04 #@! TA.AperFunction,ComponentPad*
G36*
X289198362Y-44509959D02*
G01*
X290743843Y-44095848D01*
X291157954Y-45641329D01*
X289612473Y-46055440D01*
X289198362Y-44509959D01*
G37*
G04 #@! TD.AperFunction*
D13*
X288159370Y-37541422D03*
G04 #@! TA.AperFunction,SMDPad,CuDef*
D19*
G36*
X288019806Y-39338788D02*
G01*
X289178917Y-39028205D01*
X289593028Y-40573686D01*
X288433917Y-40884269D01*
X288019806Y-39338788D01*
G37*
G04 #@! TD.AperFunction*
G04 #@! TA.AperFunction,SMDPad,CuDef*
G36*
X288744500Y-42043380D02*
G01*
X289903611Y-41732797D01*
X290317722Y-43278278D01*
X289158611Y-43588861D01*
X288744500Y-42043380D01*
G37*
G04 #@! TD.AperFunction*
G04 #@! TA.AperFunction,Conductor*
G36*
X131643856Y-102400581D02*
G01*
X132126819Y-102529990D01*
X131376244Y-105331175D01*
X130893281Y-105201766D01*
X131643856Y-102400581D01*
G37*
G04 #@! TD.AperFunction*
G04 #@! TA.AperFunction,Conductor*
G36*
X132937952Y-97570951D02*
G01*
X133420915Y-97700360D01*
X132670340Y-100501545D01*
X132187377Y-100372136D01*
X132937952Y-97570951D01*
G37*
G04 #@! TD.AperFunction*
G04 #@! TA.AperFunction,ComponentPad*
G36*
X130582019Y-104238378D02*
G01*
X132127500Y-104652489D01*
X131713389Y-106197970D01*
X130167908Y-105783859D01*
X130582019Y-104238378D01*
G37*
G04 #@! TD.AperFunction*
D13*
X133166492Y-97683952D03*
G04 #@! TA.AperFunction,SMDPad,CuDef*
D19*
G36*
X132146945Y-99170735D02*
G01*
X133306056Y-99481318D01*
X132891945Y-101026799D01*
X131732834Y-100716216D01*
X132146945Y-99170735D01*
G37*
G04 #@! TD.AperFunction*
G04 #@! TA.AperFunction,SMDPad,CuDef*
G36*
X131422251Y-101875327D02*
G01*
X132581362Y-102185910D01*
X132167251Y-103731391D01*
X131008140Y-103420808D01*
X131422251Y-101875327D01*
G37*
G04 #@! TD.AperFunction*
G04 #@! TA.AperFunction,Conductor*
G36*
X136587300Y-83951398D02*
G01*
X137070263Y-84080807D01*
X136319688Y-86881992D01*
X135836725Y-86752583D01*
X136587300Y-83951398D01*
G37*
G04 #@! TD.AperFunction*
G04 #@! TA.AperFunction,Conductor*
G36*
X137881396Y-79121768D02*
G01*
X138364359Y-79251177D01*
X137613784Y-82052362D01*
X137130821Y-81922953D01*
X137881396Y-79121768D01*
G37*
G04 #@! TD.AperFunction*
G04 #@! TA.AperFunction,ComponentPad*
G36*
X135525463Y-85789195D02*
G01*
X137070944Y-86203306D01*
X136656833Y-87748787D01*
X135111352Y-87334676D01*
X135525463Y-85789195D01*
G37*
G04 #@! TD.AperFunction*
D13*
X138109936Y-79234769D03*
G04 #@! TA.AperFunction,SMDPad,CuDef*
D19*
G36*
X137090389Y-80721552D02*
G01*
X138249500Y-81032135D01*
X137835389Y-82577616D01*
X136676278Y-82267033D01*
X137090389Y-80721552D01*
G37*
G04 #@! TD.AperFunction*
G04 #@! TA.AperFunction,SMDPad,CuDef*
G36*
X136365695Y-83426144D02*
G01*
X137524806Y-83736727D01*
X137110695Y-85282208D01*
X135951584Y-84971625D01*
X136365695Y-83426144D01*
G37*
G04 #@! TD.AperFunction*
G04 #@! TA.AperFunction,Conductor*
G36*
X141478979Y-65695400D02*
G01*
X141961942Y-65824809D01*
X141211367Y-68625994D01*
X140728404Y-68496585D01*
X141478979Y-65695400D01*
G37*
G04 #@! TD.AperFunction*
G04 #@! TA.AperFunction,Conductor*
G36*
X142773075Y-60865770D02*
G01*
X143256038Y-60995179D01*
X142505463Y-63796364D01*
X142022500Y-63666955D01*
X142773075Y-60865770D01*
G37*
G04 #@! TD.AperFunction*
G04 #@! TA.AperFunction,ComponentPad*
G36*
X140417142Y-67533197D02*
G01*
X141962623Y-67947308D01*
X141548512Y-69492789D01*
X140003031Y-69078678D01*
X140417142Y-67533197D01*
G37*
G04 #@! TD.AperFunction*
D13*
X143001615Y-60978771D03*
G04 #@! TA.AperFunction,SMDPad,CuDef*
D19*
G36*
X141982068Y-62465554D02*
G01*
X143141179Y-62776137D01*
X142727068Y-64321618D01*
X141567957Y-64011035D01*
X141982068Y-62465554D01*
G37*
G04 #@! TD.AperFunction*
G04 #@! TA.AperFunction,SMDPad,CuDef*
G36*
X141257374Y-65170146D02*
G01*
X142416485Y-65480729D01*
X142002374Y-67026210D01*
X140843263Y-66715627D01*
X141257374Y-65170146D01*
G37*
G04 #@! TD.AperFunction*
G04 #@! TA.AperFunction,Conductor*
G36*
X146396541Y-47342809D02*
G01*
X146879504Y-47472218D01*
X146128929Y-50273403D01*
X145645966Y-50143994D01*
X146396541Y-47342809D01*
G37*
G04 #@! TD.AperFunction*
G04 #@! TA.AperFunction,Conductor*
G36*
X147690637Y-42513179D02*
G01*
X148173600Y-42642588D01*
X147423025Y-45443773D01*
X146940062Y-45314364D01*
X147690637Y-42513179D01*
G37*
G04 #@! TD.AperFunction*
G04 #@! TA.AperFunction,ComponentPad*
G36*
X145334704Y-49180606D02*
G01*
X146880185Y-49594717D01*
X146466074Y-51140198D01*
X144920593Y-50726087D01*
X145334704Y-49180606D01*
G37*
G04 #@! TD.AperFunction*
D13*
X147919177Y-42626180D03*
G04 #@! TA.AperFunction,SMDPad,CuDef*
D19*
G36*
X146899630Y-44112963D02*
G01*
X148058741Y-44423546D01*
X147644630Y-45969027D01*
X146485519Y-45658444D01*
X146899630Y-44112963D01*
G37*
G04 #@! TD.AperFunction*
G04 #@! TA.AperFunction,SMDPad,CuDef*
G36*
X146174936Y-46817555D02*
G01*
X147334047Y-47128138D01*
X146919936Y-48673619D01*
X145760825Y-48363036D01*
X146174936Y-46817555D01*
G37*
G04 #@! TD.AperFunction*
G04 #@! TA.AperFunction,Conductor*
G36*
X323494887Y-96970929D02*
G01*
X323977850Y-96841520D01*
X324728425Y-99642705D01*
X324245462Y-99772114D01*
X323494887Y-96970929D01*
G37*
G04 #@! TD.AperFunction*
G04 #@! TA.AperFunction,Conductor*
G36*
X322200791Y-92141299D02*
G01*
X322683754Y-92011890D01*
X323434329Y-94813075D01*
X322951366Y-94942484D01*
X322200791Y-92141299D01*
G37*
G04 #@! TD.AperFunction*
G04 #@! TA.AperFunction,ComponentPad*
G36*
X323494206Y-99093428D02*
G01*
X325039687Y-98679317D01*
X325453798Y-100224798D01*
X323908317Y-100638909D01*
X323494206Y-99093428D01*
G37*
G04 #@! TD.AperFunction*
D13*
X322455214Y-92124891D03*
G04 #@! TA.AperFunction,SMDPad,CuDef*
D19*
G36*
X322315650Y-93922257D02*
G01*
X323474761Y-93611674D01*
X323888872Y-95157155D01*
X322729761Y-95467738D01*
X322315650Y-93922257D01*
G37*
G04 #@! TD.AperFunction*
G04 #@! TA.AperFunction,SMDPad,CuDef*
G36*
X323040344Y-96626849D02*
G01*
X324199455Y-96316266D01*
X324613566Y-97861747D01*
X323454455Y-98172330D01*
X323040344Y-96626849D01*
G37*
G04 #@! TD.AperFunction*
G04 #@! TA.AperFunction,Conductor*
G36*
X318577325Y-78618339D02*
G01*
X319060288Y-78488930D01*
X319810863Y-81290115D01*
X319327900Y-81419524D01*
X318577325Y-78618339D01*
G37*
G04 #@! TD.AperFunction*
G04 #@! TA.AperFunction,Conductor*
G36*
X317283229Y-73788709D02*
G01*
X317766192Y-73659300D01*
X318516767Y-76460485D01*
X318033804Y-76589894D01*
X317283229Y-73788709D01*
G37*
G04 #@! TD.AperFunction*
G04 #@! TA.AperFunction,ComponentPad*
G36*
X318576644Y-80740838D02*
G01*
X320122125Y-80326727D01*
X320536236Y-81872208D01*
X318990755Y-82286319D01*
X318576644Y-80740838D01*
G37*
G04 #@! TD.AperFunction*
D13*
X317537652Y-73772301D03*
G04 #@! TA.AperFunction,SMDPad,CuDef*
D19*
G36*
X317398088Y-75569667D02*
G01*
X318557199Y-75259084D01*
X318971310Y-76804565D01*
X317812199Y-77115148D01*
X317398088Y-75569667D01*
G37*
G04 #@! TD.AperFunction*
G04 #@! TA.AperFunction,SMDPad,CuDef*
G36*
X318122782Y-78274259D02*
G01*
X319281893Y-77963676D01*
X319696004Y-79509157D01*
X318536893Y-79819740D01*
X318122782Y-78274259D01*
G37*
G04 #@! TD.AperFunction*
G04 #@! TA.AperFunction,Conductor*
G36*
X313659763Y-60265748D02*
G01*
X314142726Y-60136339D01*
X314893301Y-62937524D01*
X314410338Y-63066933D01*
X313659763Y-60265748D01*
G37*
G04 #@! TD.AperFunction*
G04 #@! TA.AperFunction,Conductor*
G36*
X312365667Y-55436118D02*
G01*
X312848630Y-55306709D01*
X313599205Y-58107894D01*
X313116242Y-58237303D01*
X312365667Y-55436118D01*
G37*
G04 #@! TD.AperFunction*
G04 #@! TA.AperFunction,ComponentPad*
G36*
X313659082Y-62388247D02*
G01*
X315204563Y-61974136D01*
X315618674Y-63519617D01*
X314073193Y-63933728D01*
X313659082Y-62388247D01*
G37*
G04 #@! TD.AperFunction*
D13*
X312620090Y-55419710D03*
G04 #@! TA.AperFunction,SMDPad,CuDef*
D19*
G36*
X312480526Y-57217076D02*
G01*
X313639637Y-56906493D01*
X314053748Y-58451974D01*
X312894637Y-58762557D01*
X312480526Y-57217076D01*
G37*
G04 #@! TD.AperFunction*
G04 #@! TA.AperFunction,SMDPad,CuDef*
G36*
X313205220Y-59921668D02*
G01*
X314364331Y-59611085D01*
X314778442Y-61156566D01*
X313619331Y-61467149D01*
X313205220Y-59921668D01*
G37*
G04 #@! TD.AperFunction*
G04 #@! TA.AperFunction,Conductor*
G36*
X308549016Y-41964921D02*
G01*
X309031979Y-41835512D01*
X309782554Y-44636697D01*
X309299591Y-44766106D01*
X308549016Y-41964921D01*
G37*
G04 #@! TD.AperFunction*
G04 #@! TA.AperFunction,Conductor*
G36*
X307254920Y-37135291D02*
G01*
X307737883Y-37005882D01*
X308488458Y-39807067D01*
X308005495Y-39936476D01*
X307254920Y-37135291D01*
G37*
G04 #@! TD.AperFunction*
G04 #@! TA.AperFunction,ComponentPad*
G36*
X308548335Y-44087420D02*
G01*
X310093816Y-43673309D01*
X310507927Y-45218790D01*
X308962446Y-45632901D01*
X308548335Y-44087420D01*
G37*
G04 #@! TD.AperFunction*
D13*
X307509343Y-37118883D03*
G04 #@! TA.AperFunction,SMDPad,CuDef*
D19*
G36*
X307369779Y-38916249D02*
G01*
X308528890Y-38605666D01*
X308943001Y-40151147D01*
X307783890Y-40461730D01*
X307369779Y-38916249D01*
G37*
G04 #@! TD.AperFunction*
G04 #@! TA.AperFunction,SMDPad,CuDef*
G36*
X308094473Y-41620841D02*
G01*
X309253584Y-41310258D01*
X309667695Y-42855739D01*
X308508584Y-43166322D01*
X308094473Y-41620841D01*
G37*
G04 #@! TD.AperFunction*
G04 #@! TA.AperFunction,Conductor*
G36*
X112100697Y-101926278D02*
G01*
X112583660Y-102055687D01*
X111833085Y-104856872D01*
X111350122Y-104727463D01*
X112100697Y-101926278D01*
G37*
G04 #@! TD.AperFunction*
G04 #@! TA.AperFunction,Conductor*
G36*
X113394793Y-97096648D02*
G01*
X113877756Y-97226057D01*
X113127181Y-100027242D01*
X112644218Y-99897833D01*
X113394793Y-97096648D01*
G37*
G04 #@! TD.AperFunction*
G04 #@! TA.AperFunction,ComponentPad*
G36*
X111038860Y-103764075D02*
G01*
X112584341Y-104178186D01*
X112170230Y-105723667D01*
X110624749Y-105309556D01*
X111038860Y-103764075D01*
G37*
G04 #@! TD.AperFunction*
D13*
X113623333Y-97209649D03*
G04 #@! TA.AperFunction,SMDPad,CuDef*
D19*
G36*
X112603786Y-98696432D02*
G01*
X113762897Y-99007015D01*
X113348786Y-100552496D01*
X112189675Y-100241913D01*
X112603786Y-98696432D01*
G37*
G04 #@! TD.AperFunction*
G04 #@! TA.AperFunction,SMDPad,CuDef*
G36*
X111879092Y-101401024D02*
G01*
X113038203Y-101711607D01*
X112624092Y-103257088D01*
X111464981Y-102946505D01*
X111879092Y-101401024D01*
G37*
G04 #@! TD.AperFunction*
G04 #@! TA.AperFunction,Conductor*
G36*
X117018259Y-83573688D02*
G01*
X117501222Y-83703097D01*
X116750647Y-86504282D01*
X116267684Y-86374873D01*
X117018259Y-83573688D01*
G37*
G04 #@! TD.AperFunction*
G04 #@! TA.AperFunction,Conductor*
G36*
X118312355Y-78744058D02*
G01*
X118795318Y-78873467D01*
X118044743Y-81674652D01*
X117561780Y-81545243D01*
X118312355Y-78744058D01*
G37*
G04 #@! TD.AperFunction*
G04 #@! TA.AperFunction,ComponentPad*
G36*
X115956422Y-85411485D02*
G01*
X117501903Y-85825596D01*
X117087792Y-87371077D01*
X115542311Y-86956966D01*
X115956422Y-85411485D01*
G37*
G04 #@! TD.AperFunction*
D13*
X118540895Y-78857059D03*
G04 #@! TA.AperFunction,SMDPad,CuDef*
D19*
G36*
X117521348Y-80343842D02*
G01*
X118680459Y-80654425D01*
X118266348Y-82199906D01*
X117107237Y-81889323D01*
X117521348Y-80343842D01*
G37*
G04 #@! TD.AperFunction*
G04 #@! TA.AperFunction,SMDPad,CuDef*
G36*
X116796654Y-83048434D02*
G01*
X117955765Y-83359017D01*
X117541654Y-84904498D01*
X116382543Y-84593915D01*
X116796654Y-83048434D01*
G37*
G04 #@! TD.AperFunction*
G04 #@! TA.AperFunction,Conductor*
G36*
X121961703Y-65124504D02*
G01*
X122444666Y-65253913D01*
X121694091Y-68055098D01*
X121211128Y-67925689D01*
X121961703Y-65124504D01*
G37*
G04 #@! TD.AperFunction*
G04 #@! TA.AperFunction,Conductor*
G36*
X123255799Y-60294874D02*
G01*
X123738762Y-60424283D01*
X122988187Y-63225468D01*
X122505224Y-63096059D01*
X123255799Y-60294874D01*
G37*
G04 #@! TD.AperFunction*
G04 #@! TA.AperFunction,ComponentPad*
G36*
X120899866Y-66962301D02*
G01*
X122445347Y-67376412D01*
X122031236Y-68921893D01*
X120485755Y-68507782D01*
X120899866Y-66962301D01*
G37*
G04 #@! TD.AperFunction*
D13*
X123484339Y-60407875D03*
G04 #@! TA.AperFunction,SMDPad,CuDef*
D19*
G36*
X122464792Y-61894658D02*
G01*
X123623903Y-62205241D01*
X123209792Y-63750722D01*
X122050681Y-63440139D01*
X122464792Y-61894658D01*
G37*
G04 #@! TD.AperFunction*
G04 #@! TA.AperFunction,SMDPad,CuDef*
G36*
X121740098Y-64599250D02*
G01*
X122899209Y-64909833D01*
X122485098Y-66455314D01*
X121325987Y-66144731D01*
X121740098Y-64599250D01*
G37*
G04 #@! TD.AperFunction*
G04 #@! TA.AperFunction,Conductor*
G36*
X126853383Y-46868506D02*
G01*
X127336346Y-46997915D01*
X126585771Y-49799100D01*
X126102808Y-49669691D01*
X126853383Y-46868506D01*
G37*
G04 #@! TD.AperFunction*
G04 #@! TA.AperFunction,Conductor*
G36*
X128147479Y-42038876D02*
G01*
X128630442Y-42168285D01*
X127879867Y-44969470D01*
X127396904Y-44840061D01*
X128147479Y-42038876D01*
G37*
G04 #@! TD.AperFunction*
G04 #@! TA.AperFunction,ComponentPad*
G36*
X125791546Y-48706303D02*
G01*
X127337027Y-49120414D01*
X126922916Y-50665895D01*
X125377435Y-50251784D01*
X125791546Y-48706303D01*
G37*
G04 #@! TD.AperFunction*
D13*
X128376019Y-42151877D03*
G04 #@! TA.AperFunction,SMDPad,CuDef*
D19*
G36*
X127356472Y-43638660D02*
G01*
X128515583Y-43949243D01*
X128101472Y-45494724D01*
X126942361Y-45184141D01*
X127356472Y-43638660D01*
G37*
G04 #@! TD.AperFunction*
G04 #@! TA.AperFunction,SMDPad,CuDef*
G36*
X126631778Y-46343252D02*
G01*
X127790889Y-46653835D01*
X127376778Y-48199316D01*
X126217667Y-47888733D01*
X126631778Y-46343252D01*
G37*
G04 #@! TD.AperFunction*
G04 #@! TA.AperFunction,Conductor*
G36*
X343452156Y-98042108D02*
G01*
X343935119Y-97912699D01*
X344685694Y-100713884D01*
X344202731Y-100843293D01*
X343452156Y-98042108D01*
G37*
G04 #@! TD.AperFunction*
G04 #@! TA.AperFunction,Conductor*
G36*
X342158060Y-93212478D02*
G01*
X342641023Y-93083069D01*
X343391598Y-95884254D01*
X342908635Y-96013663D01*
X342158060Y-93212478D01*
G37*
G04 #@! TD.AperFunction*
G04 #@! TA.AperFunction,ComponentPad*
G36*
X343451475Y-100164607D02*
G01*
X344996956Y-99750496D01*
X345411067Y-101295977D01*
X343865586Y-101710088D01*
X343451475Y-100164607D01*
G37*
G04 #@! TD.AperFunction*
D13*
X342412483Y-93196070D03*
G04 #@! TA.AperFunction,SMDPad,CuDef*
D19*
G36*
X342272919Y-94993436D02*
G01*
X343432030Y-94682853D01*
X343846141Y-96228334D01*
X342687030Y-96538917D01*
X342272919Y-94993436D01*
G37*
G04 #@! TD.AperFunction*
G04 #@! TA.AperFunction,SMDPad,CuDef*
G36*
X342997613Y-97698028D02*
G01*
X344156724Y-97387445D01*
X344570835Y-98932926D01*
X343411724Y-99243509D01*
X342997613Y-97698028D01*
G37*
G04 #@! TD.AperFunction*
G04 #@! TA.AperFunction,Conductor*
G36*
X338534594Y-79689517D02*
G01*
X339017557Y-79560108D01*
X339768132Y-82361293D01*
X339285169Y-82490702D01*
X338534594Y-79689517D01*
G37*
G04 #@! TD.AperFunction*
G04 #@! TA.AperFunction,Conductor*
G36*
X337240498Y-74859887D02*
G01*
X337723461Y-74730478D01*
X338474036Y-77531663D01*
X337991073Y-77661072D01*
X337240498Y-74859887D01*
G37*
G04 #@! TD.AperFunction*
G04 #@! TA.AperFunction,ComponentPad*
G36*
X338533913Y-81812016D02*
G01*
X340079394Y-81397905D01*
X340493505Y-82943386D01*
X338948024Y-83357497D01*
X338533913Y-81812016D01*
G37*
G04 #@! TD.AperFunction*
D13*
X337494921Y-74843479D03*
G04 #@! TA.AperFunction,SMDPad,CuDef*
D19*
G36*
X337355357Y-76640845D02*
G01*
X338514468Y-76330262D01*
X338928579Y-77875743D01*
X337769468Y-78186326D01*
X337355357Y-76640845D01*
G37*
G04 #@! TD.AperFunction*
G04 #@! TA.AperFunction,SMDPad,CuDef*
G36*
X338080051Y-79345437D02*
G01*
X339239162Y-79034854D01*
X339653273Y-80580335D01*
X338494162Y-80890918D01*
X338080051Y-79345437D01*
G37*
G04 #@! TD.AperFunction*
G04 #@! TA.AperFunction,Conductor*
G36*
X333668796Y-61530111D02*
G01*
X334151759Y-61400702D01*
X334902334Y-64201887D01*
X334419371Y-64331296D01*
X333668796Y-61530111D01*
G37*
G04 #@! TD.AperFunction*
G04 #@! TA.AperFunction,Conductor*
G36*
X332374700Y-56700481D02*
G01*
X332857663Y-56571072D01*
X333608238Y-59372257D01*
X333125275Y-59501666D01*
X332374700Y-56700481D01*
G37*
G04 #@! TD.AperFunction*
G04 #@! TA.AperFunction,ComponentPad*
G36*
X333668115Y-63652610D02*
G01*
X335213596Y-63238499D01*
X335627707Y-64783980D01*
X334082226Y-65198091D01*
X333668115Y-63652610D01*
G37*
G04 #@! TD.AperFunction*
D13*
X332629123Y-56684073D03*
G04 #@! TA.AperFunction,SMDPad,CuDef*
D19*
G36*
X332489559Y-58481439D02*
G01*
X333648670Y-58170856D01*
X334062781Y-59716337D01*
X332903670Y-60026920D01*
X332489559Y-58481439D01*
G37*
G04 #@! TD.AperFunction*
G04 #@! TA.AperFunction,SMDPad,CuDef*
G36*
X333214253Y-61186031D02*
G01*
X334373364Y-60875448D01*
X334787475Y-62420929D01*
X333628364Y-62731512D01*
X333214253Y-61186031D01*
G37*
G04 #@! TD.AperFunction*
G04 #@! TA.AperFunction,Conductor*
G36*
X328699470Y-42984335D02*
G01*
X329182433Y-42854926D01*
X329933008Y-45656111D01*
X329450045Y-45785520D01*
X328699470Y-42984335D01*
G37*
G04 #@! TD.AperFunction*
G04 #@! TA.AperFunction,Conductor*
G36*
X327405374Y-38154705D02*
G01*
X327888337Y-38025296D01*
X328638912Y-40826481D01*
X328155949Y-40955890D01*
X327405374Y-38154705D01*
G37*
G04 #@! TD.AperFunction*
G04 #@! TA.AperFunction,ComponentPad*
G36*
X328698789Y-45106834D02*
G01*
X330244270Y-44692723D01*
X330658381Y-46238204D01*
X329112900Y-46652315D01*
X328698789Y-45106834D01*
G37*
G04 #@! TD.AperFunction*
D13*
X327659797Y-38138297D03*
G04 #@! TA.AperFunction,SMDPad,CuDef*
D19*
G36*
X327520233Y-39935663D02*
G01*
X328679344Y-39625080D01*
X329093455Y-41170561D01*
X327934344Y-41481144D01*
X327520233Y-39935663D01*
G37*
G04 #@! TD.AperFunction*
G04 #@! TA.AperFunction,SMDPad,CuDef*
G36*
X328244927Y-42640255D02*
G01*
X329404038Y-42329672D01*
X329818149Y-43875153D01*
X328659038Y-44185736D01*
X328244927Y-42640255D01*
G37*
G04 #@! TD.AperFunction*
G04 #@! TA.AperFunction,Conductor*
G36*
X92143429Y-102997457D02*
G01*
X92626392Y-103126866D01*
X91875817Y-105928051D01*
X91392854Y-105798642D01*
X92143429Y-102997457D01*
G37*
G04 #@! TD.AperFunction*
G04 #@! TA.AperFunction,Conductor*
G36*
X93437525Y-98167827D02*
G01*
X93920488Y-98297236D01*
X93169913Y-101098421D01*
X92686950Y-100969012D01*
X93437525Y-98167827D01*
G37*
G04 #@! TD.AperFunction*
G04 #@! TA.AperFunction,ComponentPad*
G36*
X91081592Y-104835254D02*
G01*
X92627073Y-105249365D01*
X92212962Y-106794846D01*
X90667481Y-106380735D01*
X91081592Y-104835254D01*
G37*
G04 #@! TD.AperFunction*
D13*
X93666065Y-98280828D03*
G04 #@! TA.AperFunction,SMDPad,CuDef*
D19*
G36*
X92646518Y-99767611D02*
G01*
X93805629Y-100078194D01*
X93391518Y-101623675D01*
X92232407Y-101313092D01*
X92646518Y-99767611D01*
G37*
G04 #@! TD.AperFunction*
G04 #@! TA.AperFunction,SMDPad,CuDef*
G36*
X91921824Y-102472203D02*
G01*
X93080935Y-102782786D01*
X92666824Y-104328267D01*
X91507713Y-104017684D01*
X91921824Y-102472203D01*
G37*
G04 #@! TD.AperFunction*
G04 #@! TA.AperFunction,Conductor*
G36*
X97060991Y-84644866D02*
G01*
X97543954Y-84774275D01*
X96793379Y-87575460D01*
X96310416Y-87446051D01*
X97060991Y-84644866D01*
G37*
G04 #@! TD.AperFunction*
G04 #@! TA.AperFunction,Conductor*
G36*
X98355087Y-79815236D02*
G01*
X98838050Y-79944645D01*
X98087475Y-82745830D01*
X97604512Y-82616421D01*
X98355087Y-79815236D01*
G37*
G04 #@! TD.AperFunction*
G04 #@! TA.AperFunction,ComponentPad*
G36*
X95999154Y-86482663D02*
G01*
X97544635Y-86896774D01*
X97130524Y-88442255D01*
X95585043Y-88028144D01*
X95999154Y-86482663D01*
G37*
G04 #@! TD.AperFunction*
D13*
X98583627Y-79928237D03*
G04 #@! TA.AperFunction,SMDPad,CuDef*
D19*
G36*
X97564080Y-81415020D02*
G01*
X98723191Y-81725603D01*
X98309080Y-83271084D01*
X97149969Y-82960501D01*
X97564080Y-81415020D01*
G37*
G04 #@! TD.AperFunction*
G04 #@! TA.AperFunction,SMDPad,CuDef*
G36*
X96839386Y-84119612D02*
G01*
X97998497Y-84430195D01*
X97584386Y-85975676D01*
X96425275Y-85665093D01*
X96839386Y-84119612D01*
G37*
G04 #@! TD.AperFunction*
G04 #@! TA.AperFunction,Conductor*
G36*
X101978552Y-66292275D02*
G01*
X102461515Y-66421684D01*
X101710940Y-69222869D01*
X101227977Y-69093460D01*
X101978552Y-66292275D01*
G37*
G04 #@! TD.AperFunction*
G04 #@! TA.AperFunction,Conductor*
G36*
X103272648Y-61462645D02*
G01*
X103755611Y-61592054D01*
X103005036Y-64393239D01*
X102522073Y-64263830D01*
X103272648Y-61462645D01*
G37*
G04 #@! TD.AperFunction*
G04 #@! TA.AperFunction,ComponentPad*
G36*
X100916715Y-68130072D02*
G01*
X102462196Y-68544183D01*
X102048085Y-70089664D01*
X100502604Y-69675553D01*
X100916715Y-68130072D01*
G37*
G04 #@! TD.AperFunction*
D13*
X103501188Y-61575646D03*
G04 #@! TA.AperFunction,SMDPad,CuDef*
D19*
G36*
X102481641Y-63062429D02*
G01*
X103640752Y-63373012D01*
X103226641Y-64918493D01*
X102067530Y-64607910D01*
X102481641Y-63062429D01*
G37*
G04 #@! TD.AperFunction*
G04 #@! TA.AperFunction,SMDPad,CuDef*
G36*
X101756947Y-65767021D02*
G01*
X102916058Y-66077604D01*
X102501947Y-67623085D01*
X101342836Y-67312502D01*
X101756947Y-65767021D01*
G37*
G04 #@! TD.AperFunction*
G04 #@! TA.AperFunction,Conductor*
G36*
X106921996Y-47843092D02*
G01*
X107404959Y-47972501D01*
X106654384Y-50773686D01*
X106171421Y-50644277D01*
X106921996Y-47843092D01*
G37*
G04 #@! TD.AperFunction*
G04 #@! TA.AperFunction,Conductor*
G36*
X108216092Y-43013462D02*
G01*
X108699055Y-43142871D01*
X107948480Y-45944056D01*
X107465517Y-45814647D01*
X108216092Y-43013462D01*
G37*
G04 #@! TD.AperFunction*
G04 #@! TA.AperFunction,ComponentPad*
G36*
X105860159Y-49680889D02*
G01*
X107405640Y-50095000D01*
X106991529Y-51640481D01*
X105446048Y-51226370D01*
X105860159Y-49680889D01*
G37*
G04 #@! TD.AperFunction*
D13*
X108444632Y-43126463D03*
G04 #@! TA.AperFunction,SMDPad,CuDef*
D19*
G36*
X107425085Y-44613246D02*
G01*
X108584196Y-44923829D01*
X108170085Y-46469310D01*
X107010974Y-46158727D01*
X107425085Y-44613246D01*
G37*
G04 #@! TD.AperFunction*
G04 #@! TA.AperFunction,SMDPad,CuDef*
G36*
X106700391Y-47317838D02*
G01*
X107859502Y-47628421D01*
X107445391Y-49173902D01*
X106286280Y-48863319D01*
X106700391Y-47317838D01*
G37*
G04 #@! TD.AperFunction*
G04 #@! TA.AperFunction,Conductor*
G36*
X351671073Y-105980279D02*
G01*
X351800482Y-106463242D01*
X348999297Y-107213817D01*
X348869888Y-106730854D01*
X351671073Y-105980279D01*
G37*
G04 #@! TD.AperFunction*
G04 #@! TA.AperFunction,Conductor*
G36*
X356500703Y-104686183D02*
G01*
X356630112Y-105169146D01*
X353828927Y-105919721D01*
X353699518Y-105436758D01*
X356500703Y-104686183D01*
G37*
G04 #@! TD.AperFunction*
G04 #@! TA.AperFunction,ComponentPad*
G36*
X349548574Y-105979598D02*
G01*
X349962685Y-107525079D01*
X348417204Y-107939190D01*
X348003093Y-106393709D01*
X349548574Y-105979598D01*
G37*
G04 #@! TD.AperFunction*
D13*
X356517111Y-104940606D03*
G04 #@! TA.AperFunction,SMDPad,CuDef*
D19*
G36*
X354719745Y-104801042D02*
G01*
X355030328Y-105960153D01*
X353484847Y-106374264D01*
X353174264Y-105215153D01*
X354719745Y-104801042D01*
G37*
G04 #@! TD.AperFunction*
G04 #@! TA.AperFunction,SMDPad,CuDef*
G36*
X352015153Y-105525736D02*
G01*
X352325736Y-106684847D01*
X350780255Y-107098958D01*
X350469672Y-105939847D01*
X352015153Y-105525736D01*
G37*
G04 #@! TD.AperFunction*
G04 #@! TA.AperFunction,Conductor*
G36*
X350037038Y-87010210D02*
G01*
X350166447Y-87493173D01*
X347365262Y-88243748D01*
X347235853Y-87760785D01*
X350037038Y-87010210D01*
G37*
G04 #@! TD.AperFunction*
G04 #@! TA.AperFunction,Conductor*
G36*
X354866668Y-85716114D02*
G01*
X354996077Y-86199077D01*
X352194892Y-86949652D01*
X352065483Y-86466689D01*
X354866668Y-85716114D01*
G37*
G04 #@! TD.AperFunction*
G04 #@! TA.AperFunction,ComponentPad*
G36*
X347914539Y-87009529D02*
G01*
X348328650Y-88555010D01*
X346783169Y-88969121D01*
X346369058Y-87423640D01*
X347914539Y-87009529D01*
G37*
G04 #@! TD.AperFunction*
D13*
X354883076Y-85970537D03*
G04 #@! TA.AperFunction,SMDPad,CuDef*
D19*
G36*
X353085710Y-85830973D02*
G01*
X353396293Y-86990084D01*
X351850812Y-87404195D01*
X351540229Y-86245084D01*
X353085710Y-85830973D01*
G37*
G04 #@! TD.AperFunction*
G04 #@! TA.AperFunction,SMDPad,CuDef*
G36*
X350381118Y-86555667D02*
G01*
X350691701Y-87714778D01*
X349146220Y-88128889D01*
X348835637Y-86969778D01*
X350381118Y-86555667D01*
G37*
G04 #@! TD.AperFunction*
G04 #@! TA.AperFunction,Conductor*
G36*
X345171240Y-68850804D02*
G01*
X345300649Y-69333767D01*
X342499464Y-70084342D01*
X342370055Y-69601379D01*
X345171240Y-68850804D01*
G37*
G04 #@! TD.AperFunction*
G04 #@! TA.AperFunction,Conductor*
G36*
X350000870Y-67556708D02*
G01*
X350130279Y-68039671D01*
X347329094Y-68790246D01*
X347199685Y-68307283D01*
X350000870Y-67556708D01*
G37*
G04 #@! TD.AperFunction*
G04 #@! TA.AperFunction,ComponentPad*
G36*
X343048741Y-68850123D02*
G01*
X343462852Y-70395604D01*
X341917371Y-70809715D01*
X341503260Y-69264234D01*
X343048741Y-68850123D01*
G37*
G04 #@! TD.AperFunction*
D13*
X350017278Y-67811131D03*
G04 #@! TA.AperFunction,SMDPad,CuDef*
D19*
G36*
X348219912Y-67671567D02*
G01*
X348530495Y-68830678D01*
X346985014Y-69244789D01*
X346674431Y-68085678D01*
X348219912Y-67671567D01*
G37*
G04 #@! TD.AperFunction*
G04 #@! TA.AperFunction,SMDPad,CuDef*
G36*
X345515320Y-68396261D02*
G01*
X345825903Y-69555372D01*
X344280422Y-69969483D01*
X343969839Y-68810372D01*
X345515320Y-68396261D01*
G37*
G04 #@! TD.AperFunction*
G04 #@! TA.AperFunction,Conductor*
G36*
X340201914Y-50305028D02*
G01*
X340331323Y-50787991D01*
X337530138Y-51538566D01*
X337400729Y-51055603D01*
X340201914Y-50305028D01*
G37*
G04 #@! TD.AperFunction*
G04 #@! TA.AperFunction,Conductor*
G36*
X345031544Y-49010932D02*
G01*
X345160953Y-49493895D01*
X342359768Y-50244470D01*
X342230359Y-49761507D01*
X345031544Y-49010932D01*
G37*
G04 #@! TD.AperFunction*
G04 #@! TA.AperFunction,ComponentPad*
G36*
X338079415Y-50304347D02*
G01*
X338493526Y-51849828D01*
X336948045Y-52263939D01*
X336533934Y-50718458D01*
X338079415Y-50304347D01*
G37*
G04 #@! TD.AperFunction*
D13*
X345047952Y-49265355D03*
G04 #@! TA.AperFunction,SMDPad,CuDef*
D19*
G36*
X343250586Y-49125791D02*
G01*
X343561169Y-50284902D01*
X342015688Y-50699013D01*
X341705105Y-49539902D01*
X343250586Y-49125791D01*
G37*
G04 #@! TD.AperFunction*
G04 #@! TA.AperFunction,SMDPad,CuDef*
G36*
X340545994Y-49850485D02*
G01*
X340856577Y-51009596D01*
X339311096Y-51423707D01*
X339000513Y-50264596D01*
X340545994Y-49850485D01*
G37*
G04 #@! TD.AperFunction*
G04 #@! TA.AperFunction,Conductor*
G36*
X73324964Y-99818561D02*
G01*
X73807927Y-99947970D01*
X73057352Y-102749155D01*
X72574389Y-102619746D01*
X73324964Y-99818561D01*
G37*
G04 #@! TD.AperFunction*
G04 #@! TA.AperFunction,Conductor*
G36*
X74619060Y-94988931D02*
G01*
X75102023Y-95118340D01*
X74351448Y-97919525D01*
X73868485Y-97790116D01*
X74619060Y-94988931D01*
G37*
G04 #@! TD.AperFunction*
G04 #@! TA.AperFunction,ComponentPad*
G36*
X72263127Y-101656358D02*
G01*
X73808608Y-102070469D01*
X73394497Y-103615950D01*
X71849016Y-103201839D01*
X72263127Y-101656358D01*
G37*
G04 #@! TD.AperFunction*
D13*
X74847600Y-95101932D03*
G04 #@! TA.AperFunction,SMDPad,CuDef*
D19*
G36*
X73828053Y-96588715D02*
G01*
X74987164Y-96899298D01*
X74573053Y-98444779D01*
X73413942Y-98134196D01*
X73828053Y-96588715D01*
G37*
G04 #@! TD.AperFunction*
G04 #@! TA.AperFunction,SMDPad,CuDef*
G36*
X73103359Y-99293307D02*
G01*
X74262470Y-99603890D01*
X73848359Y-101149371D01*
X72689248Y-100838788D01*
X73103359Y-99293307D01*
G37*
G04 #@! TD.AperFunction*
G04 #@! TA.AperFunction,Conductor*
G36*
X78268407Y-81369378D02*
G01*
X78751370Y-81498787D01*
X78000795Y-84299972D01*
X77517832Y-84170563D01*
X78268407Y-81369378D01*
G37*
G04 #@! TD.AperFunction*
G04 #@! TA.AperFunction,Conductor*
G36*
X79562503Y-76539748D02*
G01*
X80045466Y-76669157D01*
X79294891Y-79470342D01*
X78811928Y-79340933D01*
X79562503Y-76539748D01*
G37*
G04 #@! TD.AperFunction*
G04 #@! TA.AperFunction,ComponentPad*
G36*
X77206570Y-83207175D02*
G01*
X78752051Y-83621286D01*
X78337940Y-85166767D01*
X76792459Y-84752656D01*
X77206570Y-83207175D01*
G37*
G04 #@! TD.AperFunction*
D13*
X79791043Y-76652749D03*
G04 #@! TA.AperFunction,SMDPad,CuDef*
D19*
G36*
X78771496Y-78139532D02*
G01*
X79930607Y-78450115D01*
X79516496Y-79995596D01*
X78357385Y-79685013D01*
X78771496Y-78139532D01*
G37*
G04 #@! TD.AperFunction*
G04 #@! TA.AperFunction,SMDPad,CuDef*
G36*
X78046802Y-80844124D02*
G01*
X79205913Y-81154707D01*
X78791802Y-82700188D01*
X77632691Y-82389605D01*
X78046802Y-80844124D01*
G37*
G04 #@! TD.AperFunction*
G04 #@! TA.AperFunction,Conductor*
G36*
X83185969Y-63016787D02*
G01*
X83668932Y-63146196D01*
X82918357Y-65947381D01*
X82435394Y-65817972D01*
X83185969Y-63016787D01*
G37*
G04 #@! TD.AperFunction*
G04 #@! TA.AperFunction,Conductor*
G36*
X84480065Y-58187157D02*
G01*
X84963028Y-58316566D01*
X84212453Y-61117751D01*
X83729490Y-60988342D01*
X84480065Y-58187157D01*
G37*
G04 #@! TD.AperFunction*
G04 #@! TA.AperFunction,ComponentPad*
G36*
X82124132Y-64854584D02*
G01*
X83669613Y-65268695D01*
X83255502Y-66814176D01*
X81710021Y-66400065D01*
X82124132Y-64854584D01*
G37*
G04 #@! TD.AperFunction*
D13*
X84708605Y-58300158D03*
G04 #@! TA.AperFunction,SMDPad,CuDef*
D19*
G36*
X83689058Y-59786941D02*
G01*
X84848169Y-60097524D01*
X84434058Y-61643005D01*
X83274947Y-61332422D01*
X83689058Y-59786941D01*
G37*
G04 #@! TD.AperFunction*
G04 #@! TA.AperFunction,SMDPad,CuDef*
G36*
X82964364Y-62491533D02*
G01*
X84123475Y-62802116D01*
X83709364Y-64347597D01*
X82550253Y-64037014D01*
X82964364Y-62491533D01*
G37*
G04 #@! TD.AperFunction*
G04 #@! TA.AperFunction,Conductor*
G36*
X88077649Y-44760789D02*
G01*
X88560612Y-44890198D01*
X87810037Y-47691383D01*
X87327074Y-47561974D01*
X88077649Y-44760789D01*
G37*
G04 #@! TD.AperFunction*
G04 #@! TA.AperFunction,Conductor*
G36*
X89371745Y-39931159D02*
G01*
X89854708Y-40060568D01*
X89104133Y-42861753D01*
X88621170Y-42732344D01*
X89371745Y-39931159D01*
G37*
G04 #@! TD.AperFunction*
G04 #@! TA.AperFunction,ComponentPad*
G36*
X87015812Y-46598586D02*
G01*
X88561293Y-47012697D01*
X88147182Y-48558178D01*
X86601701Y-48144067D01*
X87015812Y-46598586D01*
G37*
G04 #@! TD.AperFunction*
D13*
X89600285Y-40044160D03*
G04 #@! TA.AperFunction,SMDPad,CuDef*
D19*
G36*
X88580738Y-41530943D02*
G01*
X89739849Y-41841526D01*
X89325738Y-43387007D01*
X88166627Y-43076424D01*
X88580738Y-41530943D01*
G37*
G04 #@! TD.AperFunction*
G04 #@! TA.AperFunction,SMDPad,CuDef*
G36*
X87856044Y-44235535D02*
G01*
X89015155Y-44546118D01*
X88601044Y-46091599D01*
X87441933Y-45781016D01*
X87856044Y-44235535D01*
G37*
G04 #@! TD.AperFunction*
D20*
X222250000Y-73500000D03*
X223250000Y-73250000D03*
D21*
X215930201Y-48729799D02*
X216870000Y-47790000D01*
X215605199Y-49054801D02*
X215930201Y-48729799D01*
X215605199Y-61865199D02*
X215605199Y-49054801D01*
X219370000Y-65630000D02*
X215605199Y-61865199D01*
X181038786Y-67443806D02*
X181038786Y-66615586D01*
X181038786Y-109520785D02*
X181038786Y-67443806D01*
X205138000Y-133619999D02*
X181038786Y-109520785D01*
X205138000Y-134669999D02*
X205138000Y-133619999D01*
X205138000Y-134669999D02*
X207678000Y-134669999D01*
X219370000Y-68170000D02*
X214500000Y-63300000D01*
X215930201Y-46189799D02*
X216870000Y-45250000D01*
X215605199Y-46514801D02*
X215930201Y-46189799D01*
X215605199Y-47644801D02*
X215605199Y-46514801D01*
X214500000Y-48750000D02*
X215605199Y-47644801D01*
X214500000Y-63300000D02*
X214500000Y-48750000D01*
X214049990Y-45530010D02*
X215930201Y-43649799D01*
X215930201Y-43649799D02*
X216870000Y-42710000D01*
X214049990Y-65389990D02*
X214049990Y-45530010D01*
X219370000Y-70710000D02*
X214049990Y-65389990D01*
X202569799Y-33489799D02*
X201630000Y-32550000D01*
X211950010Y-42870010D02*
X202569799Y-33489799D01*
X211950010Y-65830010D02*
X211950010Y-64700010D01*
X211950010Y-64950010D02*
X211950010Y-64700010D01*
X219370000Y-73250000D02*
X211950010Y-65830010D01*
X211950010Y-64700010D02*
X211950010Y-42870010D01*
X217809799Y-51269799D02*
X216870000Y-50330000D01*
X218244999Y-51704999D02*
X217809799Y-51269799D01*
X218244999Y-61964999D02*
X218244999Y-51704999D01*
X219370000Y-63090000D02*
X218244999Y-61964999D01*
X257138536Y-73149195D02*
X257938535Y-72349196D01*
X256664315Y-73623416D02*
X257138536Y-73149195D01*
X253569454Y-73623416D02*
X256664315Y-73623416D01*
X76989741Y-37816346D02*
X76417701Y-37816346D01*
X79249151Y-35556936D02*
X76989741Y-37816346D01*
X80967510Y-35556936D02*
X79249151Y-35556936D01*
X72072179Y-56168936D02*
X71500139Y-56168936D01*
X74331589Y-53909526D02*
X72072179Y-56168936D01*
X76049948Y-53909526D02*
X74331589Y-53909526D01*
X69414027Y-72262117D02*
X68225816Y-73450328D01*
X71132386Y-72262117D02*
X69414027Y-72262117D01*
X62237055Y-92874118D02*
X61665015Y-92874118D01*
X64496465Y-90614708D02*
X62237055Y-92874118D01*
X66214824Y-90614708D02*
X64496465Y-90614708D01*
X76049948Y-38184099D02*
X76049948Y-53909526D01*
X76417701Y-37816346D02*
X76049948Y-38184099D01*
X71132386Y-56536689D02*
X71132386Y-72262117D01*
X71500139Y-56168936D02*
X71132386Y-56536689D01*
X66214824Y-74889280D02*
X66214824Y-90614708D01*
X66582577Y-74521527D02*
X66214824Y-74889280D01*
X336880921Y-36881515D02*
X334070375Y-39692061D01*
X336880921Y-35460450D02*
X336880921Y-36881515D01*
X334701051Y-40322737D02*
X334701051Y-41451051D01*
X334070375Y-39692061D02*
X334701051Y-40322737D01*
X341798483Y-52398828D02*
X341798483Y-53813041D01*
X341181587Y-51781932D02*
X341798483Y-52398828D01*
X341181587Y-47931587D02*
X341181587Y-51781932D01*
X334701051Y-41451051D02*
X341181587Y-47931587D01*
X339875424Y-55736100D02*
X339875424Y-56295347D01*
X341798483Y-53813041D02*
X339875424Y-55736100D01*
X339618613Y-58675328D02*
X339618613Y-60118613D01*
X338987937Y-58044652D02*
X339618613Y-58675328D01*
X346716045Y-70751419D02*
X346716045Y-72165632D01*
X346150913Y-70186287D02*
X346716045Y-70751419D01*
X346150913Y-66650913D02*
X346150913Y-70186287D01*
X339618613Y-60118613D02*
X346150913Y-66650913D01*
X346716045Y-73586697D02*
X343905499Y-76397243D01*
X346716045Y-72165632D02*
X346716045Y-73586697D01*
X344536175Y-77027919D02*
X344536175Y-78036175D01*
X343905499Y-76397243D02*
X344536175Y-77027919D01*
X351633607Y-89104009D02*
X351633607Y-90518222D01*
X351016711Y-88487113D02*
X351633607Y-89104009D01*
X351016711Y-84516711D02*
X351016711Y-88487113D01*
X344536175Y-78036175D02*
X351016711Y-84516711D01*
X351633607Y-91939287D02*
X348823061Y-94749833D01*
X351633607Y-90518222D02*
X351633607Y-91939287D01*
X186240000Y-32500000D02*
X199050000Y-45310000D01*
X80967510Y-35556936D02*
X84024446Y-32500000D01*
X84024446Y-32500000D02*
X186240000Y-32500000D01*
X201570000Y-45310000D02*
X201630000Y-45250000D01*
X202894801Y-46514801D02*
X203014801Y-46514801D01*
X201630000Y-45250000D02*
X202894801Y-46514801D01*
X203014801Y-46514801D02*
X211500000Y-55000000D01*
X211500000Y-55000000D02*
X211500000Y-75000000D01*
X211500000Y-75000000D02*
X214000000Y-77500000D01*
X214000000Y-77500000D02*
X221000000Y-77500000D01*
X221000000Y-77500000D02*
X224750000Y-73750000D01*
X335880922Y-34460451D02*
X336880921Y-35460450D01*
X258848126Y-34460451D02*
X335880922Y-34460451D01*
X224750000Y-73750000D02*
X224750000Y-68558577D01*
X224750000Y-68558577D02*
X258848126Y-34460451D01*
X98067616Y-38735831D02*
X96879405Y-39924042D01*
X99785975Y-38735831D02*
X98067616Y-38735831D01*
X93680202Y-58276633D02*
X91961843Y-58276633D01*
X94868413Y-57088422D02*
X93680202Y-58276633D01*
X88762640Y-76629223D02*
X87044281Y-76629223D01*
X89950851Y-75441012D02*
X88762640Y-76629223D01*
X81055520Y-96053013D02*
X80483480Y-96053013D01*
X83314930Y-93793603D02*
X81055520Y-96053013D01*
X85033289Y-93793603D02*
X83314930Y-93793603D01*
X94868413Y-41362994D02*
X94868413Y-57088422D01*
X95236166Y-40995241D02*
X94868413Y-41362994D01*
X89950851Y-59715585D02*
X89950851Y-75441012D01*
X90318604Y-59347832D02*
X89950851Y-59715585D01*
X85033289Y-78068175D02*
X85033289Y-93793603D01*
X85401042Y-77700422D02*
X85033289Y-78068175D01*
X317869271Y-40112174D02*
X315058725Y-42922720D01*
X317869271Y-38691109D02*
X317869271Y-40112174D01*
X315689401Y-43553396D02*
X315689401Y-44689401D01*
X315058725Y-42922720D02*
X315689401Y-43553396D01*
X322786833Y-51786833D02*
X322786833Y-57043700D01*
X315689401Y-44689401D02*
X322786833Y-51786833D01*
X320863774Y-57935016D02*
X320863774Y-59526006D01*
X320863774Y-57552546D02*
X320863774Y-57935016D01*
X321372620Y-57043700D02*
X320863774Y-57552546D01*
X322786833Y-57043700D02*
X321372620Y-57043700D01*
X319976287Y-61275311D02*
X319976287Y-61726287D01*
X319976287Y-61726287D02*
X321750000Y-63500000D01*
X321750000Y-69441896D02*
X327704395Y-75396291D01*
X321750000Y-63500000D02*
X321750000Y-69441896D01*
X327704395Y-76817356D02*
X324893849Y-79627902D01*
X327704395Y-75396291D02*
X327704395Y-76817356D01*
X324893849Y-79627902D02*
X324893849Y-80893849D01*
X332621957Y-88621957D02*
X332621957Y-94621957D01*
X324893849Y-80893849D02*
X332621957Y-88621957D01*
X332308128Y-94621957D02*
X329811411Y-97118674D01*
X329811411Y-97118674D02*
X329811411Y-97980492D01*
X332621957Y-94621957D02*
X332308128Y-94621957D01*
X99785975Y-38735831D02*
X104771806Y-33750000D01*
X104771806Y-33750000D02*
X185000000Y-33750000D01*
X185000000Y-33800000D02*
X199050000Y-47850000D01*
X185000000Y-33750000D02*
X185000000Y-33800000D01*
X201570000Y-47850000D02*
X201630000Y-47790000D01*
X201630000Y-47790000D02*
X210500000Y-56660000D01*
X221186401Y-77950009D02*
X225250000Y-73886410D01*
X210500000Y-56660000D02*
X210500000Y-74636410D01*
X213813600Y-77950010D02*
X221186401Y-77950009D01*
X210500000Y-74636410D02*
X213813600Y-77950010D01*
X316869272Y-37691110D02*
X317869271Y-38691109D01*
X314228152Y-35049990D02*
X316869272Y-37691110D01*
X258894997Y-35049990D02*
X314228152Y-35049990D01*
X225250003Y-68694984D02*
X258894997Y-35049990D01*
X225250000Y-73886410D02*
X225250003Y-68694984D01*
X114825682Y-40291816D02*
X114825682Y-56017244D01*
X115193435Y-39924063D02*
X114825682Y-40291816D01*
X110847913Y-58276654D02*
X110275873Y-58276654D01*
X113107323Y-56017244D02*
X110847913Y-58276654D01*
X114825682Y-56017244D02*
X113107323Y-56017244D01*
X109908120Y-58644407D02*
X109908120Y-74369834D01*
X110275873Y-58276654D02*
X109908120Y-58644407D01*
X106429510Y-75558045D02*
X105358311Y-76629244D01*
X108719909Y-75558045D02*
X106429510Y-75558045D01*
X109908120Y-74369834D02*
X108719909Y-75558045D01*
X104990558Y-76996997D02*
X104990558Y-92722425D01*
X105358311Y-76629244D02*
X104990558Y-76996997D01*
X101511948Y-93910636D02*
X100440749Y-94981835D01*
X103802347Y-93910636D02*
X101511948Y-93910636D01*
X104990558Y-92722425D02*
X103802347Y-93910636D01*
X297912002Y-39040996D02*
X295101456Y-41851542D01*
X297912002Y-37619931D02*
X297912002Y-39040996D01*
X302829564Y-51161801D02*
X302829564Y-54558309D01*
X302829564Y-54558309D02*
X302829564Y-55972522D01*
X295101456Y-43433693D02*
X302829564Y-51161801D01*
X295101456Y-41851542D02*
X295101456Y-43433693D01*
X300906505Y-57895581D02*
X300906505Y-58454828D01*
X302829564Y-55972522D02*
X300906505Y-57895581D01*
X300019018Y-60204133D02*
X300019018Y-61019018D01*
X300019018Y-61019018D02*
X301750000Y-62750000D01*
X301750000Y-62750000D02*
X301750000Y-64750000D01*
X307747126Y-72910899D02*
X307747126Y-74325112D01*
X307747126Y-70747126D02*
X307747126Y-72910899D01*
X301750000Y-64750000D02*
X307747126Y-70747126D01*
X305824067Y-76248171D02*
X305824067Y-76807418D01*
X307747126Y-74325112D02*
X305824067Y-76248171D01*
X304936580Y-78556723D02*
X304936580Y-79436580D01*
X312664688Y-87164688D02*
X312664688Y-92677703D01*
X304936580Y-79436580D02*
X312664688Y-87164688D01*
X310741629Y-94600762D02*
X310741629Y-95160009D01*
X312664688Y-92677703D02*
X310741629Y-94600762D01*
X120743243Y-36664654D02*
X120835346Y-36664654D01*
X119743244Y-37664653D02*
X120743243Y-36664654D01*
X120835346Y-36664654D02*
X122250000Y-35250000D01*
X183910000Y-35250000D02*
X199050000Y-50390000D01*
X122250000Y-35250000D02*
X183910000Y-35250000D01*
X201570000Y-50390000D02*
X201630000Y-50330000D01*
X202959077Y-50330000D02*
X210000000Y-57370923D01*
X201630000Y-50330000D02*
X202959077Y-50330000D01*
X213627201Y-78400019D02*
X221372802Y-78400018D01*
X221372802Y-78400018D02*
X225700010Y-74072810D01*
X210000000Y-57370923D02*
X210000000Y-74772820D01*
X210000000Y-74772820D02*
X213627201Y-78400019D01*
X225700012Y-68881385D02*
X259081397Y-35500000D01*
X225700010Y-74072810D02*
X225700012Y-68881385D01*
X295792071Y-35500000D02*
X297912002Y-37619931D01*
X259081397Y-35500000D02*
X295792071Y-35500000D01*
X118024885Y-37664653D02*
X116836674Y-38852864D01*
X119743244Y-37664653D02*
X118024885Y-37664653D01*
X134368840Y-40766119D02*
X134368840Y-56491547D01*
X134736593Y-40398366D02*
X134368840Y-40766119D01*
X130391071Y-58750957D02*
X129819031Y-58750957D01*
X132650481Y-56491547D02*
X130391071Y-58750957D01*
X134368840Y-56491547D02*
X132650481Y-56491547D01*
X129451278Y-59118710D02*
X129451278Y-74844137D01*
X129819031Y-58750957D02*
X129451278Y-59118710D01*
X125473509Y-77103547D02*
X124901469Y-77103547D01*
X127732919Y-74844137D02*
X125473509Y-77103547D01*
X129451278Y-74844137D02*
X127732919Y-74844137D01*
X124533716Y-77471300D02*
X124533716Y-93196728D01*
X124901469Y-77103547D02*
X124533716Y-77471300D01*
X121055106Y-94384939D02*
X119983907Y-95456138D01*
X123345505Y-94384939D02*
X121055106Y-94384939D01*
X124533716Y-93196728D02*
X123345505Y-94384939D01*
X283286406Y-55032612D02*
X283286406Y-56446825D01*
X283286406Y-51636104D02*
X283286406Y-55032612D01*
X275558298Y-43907996D02*
X283286406Y-51636104D01*
X275558298Y-42325845D02*
X275558298Y-43907996D01*
X281363347Y-58369884D02*
X281363347Y-58929131D01*
X283286406Y-56446825D02*
X281363347Y-58369884D01*
X278368844Y-39515299D02*
X275558298Y-42325845D01*
X278368844Y-38094234D02*
X278368844Y-39515299D01*
X281783346Y-61985922D02*
X281783346Y-64283346D01*
X280475860Y-60678436D02*
X281783346Y-61985922D01*
X288203968Y-70703968D02*
X288203968Y-74799415D01*
X281783346Y-64283346D02*
X288203968Y-70703968D01*
X286280909Y-76722474D02*
X286280909Y-77281721D01*
X288203968Y-74799415D02*
X286280909Y-76722474D01*
X285781026Y-79031026D02*
X286750000Y-80000000D01*
X285393422Y-79031026D02*
X285781026Y-79031026D01*
X286750000Y-86780476D02*
X293121530Y-93152006D01*
X286750000Y-80000000D02*
X286750000Y-86780476D01*
X293121530Y-94573071D02*
X290310984Y-97383617D01*
X293121530Y-93152006D02*
X293121530Y-94573071D01*
X198250001Y-52130001D02*
X199050000Y-52930000D01*
X140286401Y-37138957D02*
X183258957Y-37138957D01*
X183258957Y-37138957D02*
X198250001Y-52130001D01*
X139286402Y-38138956D02*
X140286401Y-37138957D01*
X201570000Y-52930000D02*
X201630000Y-52870000D01*
X201630000Y-52870000D02*
X209549990Y-60789990D01*
X213440802Y-78850028D02*
X221559203Y-78850027D01*
X209549990Y-60789990D02*
X209549991Y-74959221D01*
X209549991Y-74959221D02*
X213440802Y-78850028D01*
X226150021Y-69067786D02*
X252891962Y-42325845D01*
X226150019Y-74259211D02*
X226150021Y-69067786D01*
X226079615Y-74329615D02*
X226150019Y-74259211D01*
X252891962Y-42325845D02*
X275558298Y-42325845D01*
X221559203Y-78850027D02*
X226079615Y-74329615D01*
X226079615Y-74329615D02*
X226150020Y-74259210D01*
X138098191Y-39327167D02*
X136379832Y-39327167D01*
X139286402Y-38138956D02*
X138098191Y-39327167D01*
X151724048Y-50178703D02*
X151724048Y-65904131D01*
X152091801Y-49810950D02*
X151724048Y-50178703D01*
X150535837Y-67092342D02*
X148817478Y-67092342D01*
X151724048Y-65904131D02*
X150535837Y-67092342D01*
X146806486Y-68531294D02*
X146806486Y-84256722D01*
X147174239Y-68163541D02*
X146806486Y-68531294D01*
X143327876Y-85444933D02*
X142256677Y-86516132D01*
X145618275Y-85444933D02*
X143327876Y-85444933D01*
X146806486Y-84256722D02*
X145618275Y-85444933D01*
X141888925Y-86883884D02*
X141888925Y-102609312D01*
X142256677Y-86516132D02*
X141888925Y-86883884D01*
X140700714Y-103797523D02*
X138982355Y-103797523D01*
X141888925Y-102609312D02*
X140700714Y-103797523D01*
X259090577Y-49429878D02*
X259090577Y-49989125D01*
X261013636Y-47506819D02*
X259090577Y-49429878D01*
X259510576Y-56510576D02*
X265931198Y-62931198D01*
X265931198Y-62931198D02*
X265931198Y-65859409D01*
X258203090Y-51738430D02*
X259510576Y-53045916D01*
X259510576Y-53045916D02*
X259510576Y-56510576D01*
X264008139Y-67782468D02*
X264008139Y-68341715D01*
X265931198Y-65859409D02*
X264008139Y-67782468D01*
X263120652Y-70091020D02*
X263120652Y-71120652D01*
X270848759Y-78848759D02*
X270848759Y-84212000D01*
X263120652Y-71120652D02*
X270848759Y-78848759D01*
X270848759Y-85633065D02*
X268038213Y-88443611D01*
X270848759Y-84212000D02*
X270848759Y-85633065D01*
X268668889Y-89074287D02*
X268668889Y-90168889D01*
X268038213Y-88443611D02*
X268668889Y-89074287D01*
X275766321Y-97266321D02*
X275766321Y-102564591D01*
X268668889Y-90168889D02*
X275766321Y-97266321D01*
X275766321Y-103985656D02*
X272955775Y-106796202D01*
X275766321Y-102564591D02*
X275766321Y-103985656D01*
X198250001Y-54670001D02*
X199050000Y-55470000D01*
X201570000Y-55470000D02*
X201630000Y-55410000D01*
X201630000Y-55410000D02*
X209099982Y-62879982D01*
X213254403Y-79300037D02*
X221745604Y-79300036D01*
X221745604Y-79300036D02*
X226600030Y-74445610D01*
X209099982Y-62879982D02*
X209099983Y-75145622D01*
X209099983Y-75145622D02*
X213254403Y-79300037D01*
X244115787Y-51738430D02*
X258203090Y-51738430D01*
X226600030Y-69254187D02*
X244115787Y-51738430D01*
X226600030Y-74445610D02*
X226600030Y-69254187D01*
X155453399Y-48739751D02*
X153735040Y-48739751D01*
X156641610Y-47551540D02*
X155453399Y-48739751D01*
X190051541Y-46551541D02*
X191250000Y-47750000D01*
X157641609Y-46551541D02*
X190051541Y-46551541D01*
X156641610Y-47551540D02*
X157641609Y-46551541D01*
X191130998Y-47550998D02*
X191250000Y-47750000D01*
X191250000Y-47750000D02*
X198250001Y-54670001D01*
X170447030Y-56853549D02*
X169874990Y-56853549D01*
X172706440Y-54594139D02*
X170447030Y-56853549D01*
X174424799Y-54594139D02*
X172706440Y-54594139D01*
X169507237Y-57221302D02*
X169507237Y-72946730D01*
X169874990Y-56853549D02*
X169507237Y-57221302D01*
X167788878Y-72946730D02*
X166600667Y-74134941D01*
X169507237Y-72946730D02*
X167788878Y-72946730D01*
X164589675Y-75573893D02*
X164589675Y-91299320D01*
X164957428Y-75206140D02*
X164589675Y-75573893D01*
X163401464Y-92487531D02*
X161683105Y-92487531D01*
X164589675Y-91299320D02*
X163401464Y-92487531D01*
X159672113Y-93926483D02*
X159672113Y-109651911D01*
X160039866Y-93558730D02*
X159672113Y-93926483D01*
X157381714Y-109651911D02*
X155122304Y-111911321D01*
X159672113Y-109651911D02*
X157381714Y-109651911D01*
X241098873Y-59398763D02*
X241098873Y-60348873D01*
X240468197Y-58768087D02*
X241098873Y-59398763D01*
X248196305Y-67446305D02*
X248196305Y-72889067D01*
X241098873Y-60348873D02*
X248196305Y-67446305D01*
X248196305Y-74310132D02*
X245385759Y-77120678D01*
X248196305Y-72889067D02*
X248196305Y-74310132D01*
X245385759Y-78702829D02*
X250250000Y-83567070D01*
X245385759Y-77120678D02*
X245385759Y-78702829D01*
X250250000Y-88439028D02*
X253065571Y-91254599D01*
X250250000Y-83567070D02*
X250250000Y-88439028D01*
X253065571Y-92675664D02*
X250255025Y-95486210D01*
X253065571Y-91254599D02*
X253065571Y-92675664D01*
X250736210Y-95486210D02*
X251750000Y-96500000D01*
X250255025Y-95486210D02*
X250736210Y-95486210D01*
X251750000Y-96500000D02*
X251750000Y-99750000D01*
X257983133Y-105983133D02*
X257983133Y-109607189D01*
X251750000Y-99750000D02*
X257983133Y-105983133D01*
X256060074Y-111530248D02*
X256060074Y-112089495D01*
X257983133Y-109607189D02*
X256060074Y-111530248D01*
X243278743Y-55957541D02*
X240468197Y-58768087D01*
X243278743Y-54536476D02*
X243278743Y-55957541D01*
X198250001Y-57210001D02*
X199050000Y-58010000D01*
X194634140Y-53594140D02*
X198250001Y-57210001D01*
X175424798Y-53594140D02*
X194634140Y-53594140D01*
X174424799Y-54594139D02*
X175424798Y-53594140D01*
X201570000Y-58010000D02*
X201630000Y-57950000D01*
X201630000Y-57950000D02*
X203533590Y-57950000D01*
X203533590Y-57950000D02*
X208649974Y-63066384D01*
X221932005Y-79750045D02*
X227050040Y-74632010D01*
X213068004Y-79750046D02*
X221932005Y-79750045D01*
X208649974Y-63066384D02*
X208649975Y-75332023D01*
X208649975Y-75332023D02*
X213068004Y-79750046D01*
X242897091Y-74632010D02*
X245385759Y-77120678D01*
X227050040Y-74632010D02*
X242897091Y-74632010D01*
X105851463Y-113209344D02*
X107265676Y-113209344D01*
X103956327Y-113209344D02*
X105851463Y-113209344D01*
X102715867Y-114449804D02*
X103956327Y-113209344D01*
X102715867Y-115468754D02*
X102715867Y-114449804D01*
X122502103Y-118178669D02*
X124397239Y-118178669D01*
X121261643Y-119419129D02*
X122502103Y-118178669D01*
X124397239Y-118178669D02*
X125811452Y-118178669D01*
X121261643Y-120438079D02*
X121261643Y-119419129D01*
X133813204Y-117178670D02*
X142790437Y-126155903D01*
X142790437Y-126155903D02*
X143915436Y-127280902D01*
X126811451Y-117178670D02*
X133813204Y-117178670D01*
X125811452Y-118178669D02*
X126811451Y-117178670D01*
X142790437Y-128405901D02*
X143915436Y-127280902D01*
X142566545Y-128405901D02*
X142790437Y-128405901D01*
X142050943Y-127890299D02*
X142566545Y-128405901D01*
X146025655Y-127890299D02*
X147030500Y-126885454D01*
X142050943Y-127890299D02*
X146025655Y-127890299D01*
X147030500Y-126885454D02*
X153135454Y-126885454D01*
X160100534Y-133850534D02*
X160100534Y-140473384D01*
X153135454Y-126885454D02*
X160100534Y-133850534D01*
X160418732Y-140791582D02*
X165170490Y-140791582D01*
X160100534Y-140473384D02*
X160418732Y-140791582D01*
X165170490Y-140791582D02*
X165170490Y-136329510D01*
X173649283Y-127850717D02*
X173649283Y-126961430D01*
X165170490Y-136329510D02*
X173649283Y-127850717D01*
X173967481Y-127279628D02*
X178719239Y-127279628D01*
X173649283Y-126961430D02*
X173967481Y-127279628D01*
X176240229Y-156246908D02*
X176240229Y-157837898D01*
X166584703Y-140791582D02*
X176240229Y-150447108D01*
X165170490Y-140791582D02*
X166584703Y-140791582D01*
X177455293Y-159052962D02*
X179135677Y-159052962D01*
X176240229Y-157837898D02*
X177455293Y-159052962D01*
X190775315Y-147933404D02*
X190775315Y-147525315D01*
X189814820Y-146564820D02*
X179935180Y-146564820D01*
X190775315Y-147525315D02*
X189814820Y-146564820D01*
X176250000Y-150250000D02*
X176250000Y-150750000D01*
X179935180Y-146564820D02*
X176250000Y-150250000D01*
X176240229Y-150447108D02*
X176250000Y-150750000D01*
X176250000Y-150750000D02*
X176240229Y-156246908D01*
X194590161Y-148552962D02*
X195590160Y-149552961D01*
X193250097Y-147212898D02*
X194590161Y-148552962D01*
X191495821Y-147212898D02*
X193250097Y-147212898D01*
X190775315Y-147933404D02*
X191495821Y-147212898D01*
X197924999Y-107824999D02*
X197924999Y-69295001D01*
X197924999Y-69295001D02*
X198250001Y-68969999D01*
X205250000Y-115150000D02*
X197924999Y-107824999D01*
X198250001Y-68969999D02*
X199050000Y-68170000D01*
X205250000Y-116200000D02*
X205250000Y-115150000D01*
X108265675Y-112209345D02*
X107265676Y-113209344D01*
X121261643Y-120438079D02*
X121261643Y-117723641D01*
X116746804Y-113208802D02*
X116708802Y-113208802D01*
X121261643Y-117723641D02*
X116746804Y-113208802D01*
X115709345Y-112209345D02*
X108265675Y-112209345D01*
X116708802Y-113208802D02*
X115709345Y-112209345D01*
X308318154Y-114920378D02*
X308318154Y-115479625D01*
X310241213Y-112997319D02*
X308318154Y-114920378D01*
X307430667Y-117228930D02*
X305228930Y-117228930D01*
X292695437Y-116966645D02*
X291695438Y-117966644D01*
X304288831Y-116288831D02*
X293373251Y-116288831D01*
X293373251Y-116288831D02*
X292695437Y-116966645D01*
X305228930Y-117228930D02*
X304288831Y-116288831D01*
X291695438Y-119387709D02*
X288884892Y-122198255D01*
X291695438Y-117966644D02*
X291695438Y-119387709D01*
X270548950Y-125267980D02*
X270548950Y-126682193D01*
X273618675Y-122198255D02*
X270548950Y-125267980D01*
X288884892Y-122198255D02*
X273618675Y-122198255D01*
X269333886Y-127897257D02*
X269333886Y-129577641D01*
X270548950Y-126682193D02*
X269333886Y-127897257D01*
X268929393Y-131497038D02*
X258502962Y-131497038D01*
X252416595Y-137583405D02*
X252416595Y-140690106D01*
X258502962Y-131497038D02*
X252416595Y-137583405D01*
X252416595Y-145441864D02*
X252416595Y-140690106D01*
X252098397Y-145760062D02*
X252416595Y-145441864D01*
X238398934Y-157559726D02*
X238398934Y-158973939D01*
X238398934Y-156600350D02*
X238398934Y-157559726D01*
X249239222Y-145760062D02*
X238398934Y-156600350D01*
X252098397Y-145760062D02*
X249239222Y-145760062D01*
X239919381Y-163437894D02*
X239919381Y-160494386D01*
X239398933Y-159973938D02*
X238398934Y-158973939D01*
X239919381Y-160494386D02*
X239398933Y-159973938D01*
X239403779Y-163953496D02*
X239919381Y-163437894D01*
X226698089Y-155500000D02*
X223995801Y-155500000D01*
X238398934Y-158973939D02*
X230172028Y-158973939D01*
X223995801Y-155500000D02*
X222949297Y-154453496D01*
X230172028Y-158973939D02*
X226698089Y-155500000D01*
X222944451Y-150473938D02*
X221944452Y-149473939D01*
X223464899Y-153937894D02*
X223464899Y-150994386D01*
X223464899Y-150994386D02*
X222944451Y-150473938D01*
X222949297Y-154453496D02*
X223464899Y-153937894D01*
X238981566Y-132006835D02*
X238663368Y-132325033D01*
X238981566Y-127255077D02*
X238981566Y-132006835D01*
X247028441Y-140690106D02*
X252416595Y-140690106D01*
X238663368Y-132325033D02*
X247028441Y-140690106D01*
X207750000Y-79410000D02*
X199050000Y-70710000D01*
X207750000Y-116200000D02*
X207750000Y-79410000D01*
X207750000Y-118900000D02*
X207750000Y-118700000D01*
X216105077Y-127255077D02*
X207750000Y-118900000D01*
X238981566Y-127255077D02*
X216105077Y-127255077D01*
X219370000Y-47850000D02*
X222250000Y-50730000D01*
X222250000Y-50730000D02*
X222250000Y-73500000D01*
X222250000Y-73500000D02*
X222250000Y-73500000D01*
X209418001Y-127849998D02*
X210218000Y-127049999D01*
X197474989Y-121051990D02*
X204597999Y-128175000D01*
X197474989Y-68080009D02*
X197474989Y-121051990D01*
X199300003Y-67044999D02*
X198509999Y-67044999D01*
X200365199Y-65979803D02*
X199300003Y-67044999D01*
X204597999Y-128175000D02*
X209092999Y-128175000D01*
X200365199Y-44085199D02*
X200365199Y-65979803D01*
X209092999Y-128175000D02*
X209418001Y-127849998D01*
X198509999Y-67044999D02*
X197474989Y-68080009D01*
X199050000Y-42770000D02*
X200365199Y-44085199D01*
X211349370Y-127049999D02*
X212758000Y-127049999D01*
X210218000Y-127049999D02*
X211349370Y-127049999D01*
X216870000Y-37630000D02*
X223250000Y-44010000D01*
X223250000Y-44010000D02*
X223250000Y-73250000D01*
X223250000Y-73250000D02*
X223250000Y-73500000D01*
M02*
