M48
; DRILL file {KiCad (6.0.0)} date Tue Feb  8 17:16:59 2022
; FORMAT={-:-/ absolute / inch / decimal}
; #@! TF.CreationDate,2022-02-08T17:16:59+09:00
; #@! TF.GenerationSoftware,Kicad,Pcbnew,(6.0.0)
; #@! TF.FileFunction,NonPlated,1,2,NPTH
FMAT,2
INCH
; #@! TA.AperFunction,NonPlated,NPTH,ComponentDrill
T1C0.0315
; #@! TA.AperFunction,NonPlated,NPTH,ComponentDrill
T2C0.0390
; #@! TA.AperFunction,NonPlated,NPTH,ComponentDrill
T3C0.0670
; #@! TA.AperFunction,NonPlated,NPTH,ComponentDrill
T4C0.1570
%
G90
G05
T1
X6.7587Y-2.688
X6.7587Y-2.9635
X6.8256Y-2.6877
X6.8256Y-2.9633
T2
X1.5476Y-2.8612
X1.5476Y-3.6093
X1.5476Y-4.3573
X1.5476Y-5.1053
X1.587Y-5.8533
X1.9587Y-2.8612
X1.9587Y-3.6093
X1.9587Y-4.3573
X1.9587Y-5.1053
X1.998Y-5.8533
X2.2563Y-2.8219
X2.2563Y-3.5699
X2.2563Y-4.3179
X2.2563Y-5.0659
X2.2957Y-5.814
X2.6673Y-2.8219
X2.6673Y-3.5699
X2.6673Y-4.3179
X2.6673Y-5.0659
X2.7067Y-5.814
X2.965Y-2.5069
X2.965Y-3.2549
X2.965Y-4.003
X2.965Y-4.751
X3.0043Y-5.7746
X3.376Y-2.5069
X3.376Y-3.2549
X3.376Y-4.003
X3.376Y-4.751
X3.4154Y-5.7746
X3.6736Y-2.3494
X3.6736Y-3.0974
X3.6736Y-3.8455
X3.6736Y-4.5935
X3.713Y-5.7352
X4.0846Y-2.3494
X4.0846Y-3.0974
X4.0846Y-3.8455
X4.0846Y-4.5935
X4.124Y-5.7352
X4.3823Y-2.5069
X4.3823Y-3.2549
X4.3823Y-4.003
X4.3823Y-4.751
X4.4644Y-5.6348
X4.7933Y-2.5069
X4.7933Y-3.2549
X4.7933Y-4.003
X4.7933Y-4.751
X4.8754Y-5.6348
X5.0909Y-2.5856
X5.0909Y-3.3337
X5.0909Y-4.0817
X5.0909Y-4.8297
X5.2244Y-5.6807
X5.502Y-2.5856
X5.502Y-3.3337
X5.502Y-4.0817
X5.502Y-4.8297
X5.6215Y-5.7871
X5.8188Y-5.0487
X5.9454Y-5.9205
X6.2051Y-5.1893
X6.3014Y-6.126
T4
X1.7531Y-2.6959
X1.7531Y-3.4439
X1.7531Y-4.1919
X1.7531Y-4.94
X1.7925Y-5.688
X2.4618Y-2.6565
X2.4618Y-3.4045
X2.4618Y-4.1526
X2.4618Y-4.9006
X2.5012Y-5.6486
X3.1705Y-2.3415
X3.1705Y-3.0896
X3.1705Y-3.8376
X3.1705Y-4.5856
X3.2098Y-5.6093
X3.8791Y-2.1841
X3.8791Y-2.9321
X3.8791Y-3.6801
X3.8791Y-4.4281
X3.9185Y-5.5699
X4.5878Y-2.3415
X4.5878Y-3.0896
X4.5878Y-3.8376
X4.5878Y-4.5856
X4.6699Y-5.4694
X5.2965Y-2.4203
X5.2965Y-3.1683
X5.2965Y-3.9163
X5.2965Y-4.6644
X5.4657Y-5.5742
X6.0685Y-4.9636
X6.2061Y-5.8801
T3
G00X1.5531Y-2.6959
M15
G01X1.5366Y-2.6959
M16
G05
G00X1.5531Y-3.4439
M15
G01X1.5366Y-3.4439
M16
G05
G00X1.5531Y-4.1919
M15
G01X1.5366Y-4.1919
M16
G05
G00X1.5531Y-4.94
M15
G01X1.5366Y-4.94
M16
G05
G00X1.5925Y-5.688
M15
G01X1.576Y-5.688
M16
G05
G00X1.9531Y-2.6959
M15
G01X1.9697Y-2.6959
M16
G05
G00X1.9531Y-3.4439
M15
G01X1.9697Y-3.4439
M16
G05
G00X1.9531Y-4.1919
M15
G01X1.9697Y-4.1919
M16
G05
G00X1.9531Y-4.94
M15
G01X1.9697Y-4.94
M16
G05
G00X1.9925Y-5.688
M15
G01X2.0091Y-5.688
M16
G05
G00X2.2618Y-2.6565
M15
G01X2.2453Y-2.6565
M16
G05
G00X2.2618Y-3.4045
M15
G01X2.2453Y-3.4045
M16
G05
G00X2.2618Y-4.1526
M15
G01X2.2453Y-4.1526
M16
G05
G00X2.2618Y-4.9006
M15
G01X2.2453Y-4.9006
M16
G05
G00X2.3012Y-5.6486
M15
G01X2.2846Y-5.6486
M16
G05
G00X2.6618Y-2.6565
M15
G01X2.6783Y-2.6565
M16
G05
G00X2.6618Y-3.4045
M15
G01X2.6783Y-3.4045
M16
G05
G00X2.6618Y-4.1526
M15
G01X2.6783Y-4.1526
M16
G05
G00X2.6618Y-4.9006
M15
G01X2.6783Y-4.9006
M16
G05
G00X2.7012Y-5.6486
M15
G01X2.7177Y-5.6486
M16
G05
G00X2.9705Y-2.3415
M15
G01X2.9539Y-2.3415
M16
G05
G00X2.9705Y-3.0896
M15
G01X2.9539Y-3.0896
M16
G05
G00X2.9705Y-3.8376
M15
G01X2.9539Y-3.8376
M16
G05
G00X2.9705Y-4.5856
M15
G01X2.9539Y-4.5856
M16
G05
G00X3.0098Y-5.6093
M15
G01X2.9933Y-5.6093
M16
G05
G00X3.3705Y-2.3415
M15
G01X3.387Y-2.3415
M16
G05
G00X3.3705Y-3.0896
M15
G01X3.387Y-3.0896
M16
G05
G00X3.3705Y-3.8376
M15
G01X3.387Y-3.8376
M16
G05
G00X3.3705Y-4.5856
M15
G01X3.387Y-4.5856
M16
G05
G00X3.4098Y-5.6093
M15
G01X3.4264Y-5.6093
M16
G05
G00X3.6791Y-2.1841
M15
G01X3.6626Y-2.1841
M16
G05
G00X3.6791Y-2.9321
M15
G01X3.6626Y-2.9321
M16
G05
G00X3.6791Y-3.6801
M15
G01X3.6626Y-3.6801
M16
G05
G00X3.6791Y-4.4281
M15
G01X3.6626Y-4.4281
M16
G05
G00X3.7185Y-5.5699
M15
G01X3.702Y-5.5699
M16
G05
G00X4.0791Y-2.1841
M15
G01X4.0957Y-2.1841
M16
G05
G00X4.0791Y-2.9321
M15
G01X4.0957Y-2.9321
M16
G05
G00X4.0791Y-3.6801
M15
G01X4.0957Y-3.6801
M16
G05
G00X4.0791Y-4.4281
M15
G01X4.0957Y-4.4281
M16
G05
G00X4.1185Y-5.5699
M15
G01X4.135Y-5.5699
M16
G05
G00X4.3878Y-2.3415
M15
G01X4.3713Y-2.3415
M16
G05
G00X4.3878Y-3.0896
M15
G01X4.3713Y-3.0896
M16
G05
G00X4.3878Y-3.8376
M15
G01X4.3713Y-3.8376
M16
G05
G00X4.3878Y-4.5856
M15
G01X4.3713Y-4.5856
M16
G05
G00X4.4699Y-5.4694
M15
G01X4.4533Y-5.4694
M16
G05
G00X4.7878Y-2.3415
M15
G01X4.8043Y-2.3415
M16
G05
G00X4.7878Y-3.0896
M15
G01X4.8043Y-3.0896
M16
G05
G00X4.7878Y-3.8376
M15
G01X4.8043Y-3.8376
M16
G05
G00X4.7878Y-4.5856
M15
G01X4.8043Y-4.5856
M16
G05
G00X4.8699Y-5.4694
M15
G01X4.8864Y-5.4694
M16
G05
G00X5.0965Y-2.4203
M15
G01X5.0799Y-2.4203
M16
G05
G00X5.0965Y-3.1683
M15
G01X5.0799Y-3.1683
M16
G05
G00X5.0965Y-3.9163
M15
G01X5.0799Y-3.9163
M16
G05
G00X5.0965Y-4.6644
M15
G01X5.0799Y-4.6644
M16
G05
G00X5.2726Y-5.5224
M15
G01X5.2566Y-5.5182
M16
G05
G00X5.4965Y-2.4203
M15
G01X5.513Y-2.4203
M16
G05
G00X5.4965Y-3.1683
M15
G01X5.513Y-3.1683
M16
G05
G00X5.4965Y-3.9163
M15
G01X5.513Y-3.9163
M16
G05
G00X5.4965Y-4.6644
M15
G01X5.513Y-4.6644
M16
G05
G00X5.6589Y-5.626
M15
G01X5.6749Y-5.6303
M16
G05
T0
M30
