%TF.GenerationSoftware,KiCad,Pcbnew,(6.0.0)*%
%TF.CreationDate,2022-02-08T17:16:42+09:00*%
%TF.ProjectId,brimstone2,6272696d-7374-46f6-9e65-322e6b696361,rev?*%
%TF.SameCoordinates,Original*%
%TF.FileFunction,Soldermask,Bot*%
%TF.FilePolarity,Negative*%
%FSLAX46Y46*%
G04 Gerber Fmt 4.6, Leading zero omitted, Abs format (unit mm)*
G04 Created by KiCad (PCBNEW (6.0.0)) date 2022-02-08 17:16:42*
%MOMM*%
%LPD*%
G01*
G04 APERTURE LIST*
G04 Aperture macros list*
%AMRoundRect*
0 Rectangle with rounded corners*
0 $1 Rounding radius*
0 $2 $3 $4 $5 $6 $7 $8 $9 X,Y pos of 4 corners*
0 Add a 4 corners polygon primitive as box body*
4,1,4,$2,$3,$4,$5,$6,$7,$8,$9,$2,$3,0*
0 Add four circle primitives for the rounded corners*
1,1,$1+$1,$2,$3*
1,1,$1+$1,$4,$5*
1,1,$1+$1,$6,$7*
1,1,$1+$1,$8,$9*
0 Add four rect primitives between the rounded corners*
20,1,$1+$1,$2,$3,$4,$5,0*
20,1,$1+$1,$4,$5,$6,$7,0*
20,1,$1+$1,$6,$7,$8,$9,0*
20,1,$1+$1,$8,$9,$2,$3,0*%
%AMHorizOval*
0 Thick line with rounded ends*
0 $1 width*
0 $2 $3 position (X,Y) of the first rounded end (center of the circle)*
0 $4 $5 position (X,Y) of the second rounded end (center of the circle)*
0 Add line between two ends*
20,1,$1,$2,$3,$4,$5,0*
0 Add two circle primitives to create the rounded ends*
1,1,$1,$2,$3*
1,1,$1,$4,$5*%
%AMRotRect*
0 Rectangle, with rotation*
0 The origin of the aperture is its center*
0 $1 length*
0 $2 width*
0 $3 Rotation angle, in degrees counterclockwise*
0 Add horizontal line*
21,1,$1,$2,0,0,$3*%
%AMOutline5P*
0 Free polygon, 5 corners , with rotation*
0 The origin of the aperture is its center*
0 number of corners: always 5*
0 $1 to $10 corner X, Y*
0 $11 Rotation angle, in degrees counterclockwise*
0 create outline with 5 corners*
4,1,5,$1,$2,$3,$4,$5,$6,$7,$8,$9,$10,$1,$2,$11*%
%AMOutline6P*
0 Free polygon, 6 corners , with rotation*
0 The origin of the aperture is its center*
0 number of corners: always 6*
0 $1 to $12 corner X, Y*
0 $13 Rotation angle, in degrees counterclockwise*
0 create outline with 6 corners*
4,1,6,$1,$2,$3,$4,$5,$6,$7,$8,$9,$10,$11,$12,$1,$2,$13*%
%AMOutline7P*
0 Free polygon, 7 corners , with rotation*
0 The origin of the aperture is its center*
0 number of corners: always 7*
0 $1 to $14 corner X, Y*
0 $15 Rotation angle, in degrees counterclockwise*
0 create outline with 7 corners*
4,1,7,$1,$2,$3,$4,$5,$6,$7,$8,$9,$10,$11,$12,$13,$14,$1,$2,$15*%
%AMOutline8P*
0 Free polygon, 8 corners , with rotation*
0 The origin of the aperture is its center*
0 number of corners: always 8*
0 $1 to $16 corner X, Y*
0 $17 Rotation angle, in degrees counterclockwise*
0 create outline with 8 corners*
4,1,8,$1,$2,$3,$4,$5,$6,$7,$8,$9,$10,$11,$12,$13,$14,$15,$16,$1,$2,$17*%
%AMFreePoly0*
4,1,21,-0.579500,0.579500,0.000000,0.579500,0.149986,0.559754,0.289750,0.501862,0.409768,0.409768,0.501862,0.289750,0.559754,0.149986,0.579500,0.000000,0.559754,-0.149986,0.501862,-0.289750,0.409768,-0.409768,0.289750,-0.501862,0.149986,-0.559754,0.000000,-0.579500,-0.149986,-0.559754,-0.289750,-0.501862,-0.409768,-0.409768,-0.501862,-0.289750,-0.559754,-0.149986,-0.579500,0.000000,
-0.579500,0.579500,-0.579500,0.579500,$1*%
%AMFreePoly1*
4,1,6,1.000000,0.000000,0.500000,-0.750000,-0.500000,-0.750000,-0.500000,0.750000,0.500000,0.750000,1.000000,0.000000,1.000000,0.000000,$1*%
%AMFreePoly2*
4,1,6,0.500000,-0.750000,-0.650000,-0.750000,-0.150000,0.000000,-0.650000,0.750000,0.500000,0.750000,0.500000,-0.750000,0.500000,-0.750000,$1*%
%AMFreePoly3*
4,1,21,-0.579500,0.000000,-0.559754,0.149986,-0.501862,0.289750,-0.409768,0.409768,-0.289750,0.501862,-0.149986,0.559754,0.000000,0.579500,0.149986,0.559754,0.289750,0.501862,0.409768,0.409768,0.501862,0.289750,0.559754,0.149986,0.579500,0.000000,0.559754,-0.149986,0.501862,-0.289750,0.409768,-0.409768,0.289750,-0.501862,0.149986,-0.559754,0.000000,-0.579500,-0.579500,-0.579500,
-0.579500,0.000000,-0.579500,0.000000,$1*%
G04 Aperture macros list end*
%ADD10R,1.524000X1.524000*%
%ADD11RoundRect,0.250000X0.475000X-0.337500X0.475000X0.337500X-0.475000X0.337500X-0.475000X-0.337500X0*%
%ADD12C,1.524000*%
%ADD13C,3.987800*%
%ADD14O,2.121800X1.701800*%
%ADD15C,0.990600*%
%ADD16C,2.032000*%
%ADD17C,2.286000*%
%ADD18HorizOval,1.550000X0.350018X0.350018X-0.350018X-0.350018X0*%
%ADD19HorizOval,1.250000X0.335876X0.335876X-0.335876X-0.335876X0*%
%ADD20HorizOval,1.550000X-0.350018X0.350018X0.350018X-0.350018X0*%
%ADD21HorizOval,1.250000X-0.335876X0.335876X0.335876X-0.335876X0*%
%ADD22RoundRect,0.381000X0.381000X0.381000X-0.381000X0.381000X-0.381000X-0.381000X0.381000X-0.381000X0*%
%ADD23RoundRect,0.250000X0.337500X0.475000X-0.337500X0.475000X-0.337500X-0.475000X0.337500X-0.475000X0*%
%ADD24RoundRect,0.250000X-0.479606X-0.330922X0.154687X-0.561786X0.479606X0.330922X-0.154687X0.561786X0*%
%ADD25RoundRect,0.381000X-0.488333X-0.227713X0.227713X-0.488333X0.488333X0.227713X-0.227713X0.488333X0*%
%ADD26R,1.700000X0.820000*%
%ADD27RoundRect,0.205000X-0.645000X-0.205000X0.645000X-0.205000X0.645000X0.205000X-0.645000X0.205000X0*%
%ADD28HorizOval,1.701800X0.202844X-0.054352X-0.202844X0.054352X0*%
%ADD29HorizOval,1.701800X-0.202844X0.054352X0.202844X-0.054352X0*%
%ADD30HorizOval,1.550000X0.428683X0.247500X-0.428683X-0.247500X0*%
%ADD31HorizOval,1.550000X-0.247500X0.428683X0.247500X-0.428683X0*%
%ADD32HorizOval,1.250000X-0.237500X0.411362X0.237500X-0.411362X0*%
%ADD33HorizOval,1.250000X0.411362X0.237500X-0.411362X-0.237500X0*%
%ADD34RoundRect,0.381000X-0.381000X-0.381000X0.381000X-0.381000X0.381000X0.381000X-0.381000X0.381000X0*%
%ADD35RoundRect,0.250000X-0.337500X-0.475000X0.337500X-0.475000X0.337500X0.475000X-0.337500X0.475000X0*%
%ADD36RoundRect,0.205000X0.645000X0.205000X-0.645000X0.205000X-0.645000X-0.205000X0.645000X-0.205000X0*%
%ADD37RotRect,1.700000X0.820000X340.000000*%
%ADD38RoundRect,0.205000X-0.676216X0.027966X0.535988X-0.413240X0.676216X-0.027966X-0.535988X0.413240X0*%
%ADD39Outline5P,-0.225000X0.610000X-0.135000X0.700000X0.225000X0.700000X0.225000X-0.700000X-0.225000X-0.700000X0.000000*%
%ADD40R,0.450000X1.400000*%
%ADD41HorizOval,1.550000X-0.209196X0.448622X0.209196X-0.448622X0*%
%ADD42HorizOval,1.250000X0.430496X0.200744X-0.430496X-0.200744X0*%
%ADD43HorizOval,2.489200X0.197335X-0.071824X-0.197335X0.071824X0*%
%ADD44HorizOval,1.250000X0.446354X-0.162460X-0.446354X0.162460X0*%
%ADD45HorizOval,1.550000X0.448622X0.209196X-0.448622X-0.209196X0*%
%ADD46HorizOval,1.250000X-0.200744X0.430496X0.200744X-0.430496X0*%
%ADD47FreePoly0,353.500000*%
%ADD48C,1.159000*%
%ADD49C,1.200000*%
%ADD50RotRect,1.524000X1.524000X75.000000*%
%ADD51RoundRect,0.250000X0.371463X-0.448939X0.546166X0.203061X-0.371463X0.448939X-0.546166X-0.203061X0*%
%ADD52RoundRect,0.250000X-0.448939X-0.371463X0.203061X-0.546166X0.448939X0.371463X-0.203061X0.546166X0*%
%ADD53RoundRect,0.381000X-0.466628X-0.269408X0.269408X-0.466628X0.466628X0.269408X-0.269408X0.466628X0*%
%ADD54R,1.600000X1.600000*%
%ADD55C,1.600000*%
%ADD56RoundRect,0.250000X-0.529784X-0.242612X0.054784X-0.580112X0.529784X0.242612X-0.054784X0.580112X0*%
%ADD57RoundRect,0.381000X-0.520456X-0.139456X0.139456X-0.520456X0.520456X0.139456X-0.139456X0.520456X0*%
%ADD58C,0.800000*%
%ADD59O,1.600000X2.000000*%
%ADD60HorizOval,1.250000X0.458815X0.122939X-0.458815X-0.122939X0*%
%ADD61HorizOval,1.550000X-0.128115X0.478133X0.128115X-0.478133X0*%
%ADD62HorizOval,2.489200X0.181865X-0.105000X-0.181865X0.105000X0*%
%ADD63HorizOval,1.250000X0.411362X-0.237500X-0.411362X0.237500X0*%
%ADD64HorizOval,1.550000X0.478133X0.128115X-0.478133X-0.128115X0*%
%ADD65HorizOval,1.250000X-0.122939X0.458815X0.122939X-0.458815X0*%
%ADD66RotRect,1.700000X0.820000X345.000000*%
%ADD67RoundRect,0.205000X-0.676080X-0.031077X0.569964X-0.364953X0.676080X0.031077X-0.569964X0.364953X0*%
%ADD68RoundRect,0.250000X-0.475000X0.337500X-0.475000X-0.337500X0.475000X-0.337500X0.475000X0.337500X0*%
%ADD69RotRect,2.286000X2.286000X15.000000*%
%ADD70RotRect,1.700000X0.820000X330.000000*%
%ADD71RoundRect,0.205000X-0.661086X0.144965X0.456086X-0.500035X0.661086X-0.144965X-0.456086X0.500035X0*%
%ADD72FreePoly1,0.000000*%
%ADD73FreePoly2,0.000000*%
%ADD74FreePoly1,180.000000*%
%ADD75FreePoly2,180.000000*%
%ADD76R,1.500000X1.500000*%
%ADD77FreePoly3,173.500000*%
G04 APERTURE END LIST*
D10*
%TO.C,D12*%
X72600000Y-81485000D03*
D11*
X72600000Y-79982500D03*
X72600000Y-77907500D03*
D12*
X72600000Y-76405000D03*
%TD*%
D13*
%TO.C,SW7*%
X62530000Y-86475000D03*
D14*
X67820000Y-86475000D03*
X57240000Y-86475000D03*
D15*
X67750000Y-90675000D03*
X57310000Y-90675000D03*
D16*
X62530000Y-80575000D03*
D17*
X59990000Y-81395000D03*
D18*
X58720000Y-83935000D03*
D17*
X65070000Y-81395000D03*
D19*
X57430000Y-82575000D03*
D20*
X66340000Y-83935000D03*
D21*
X67630000Y-82575000D03*
%TD*%
D22*
%TO.C,C114*%
X83150000Y-124535000D03*
D23*
X81647500Y-124535000D03*
D22*
X78070000Y-124535000D03*
D23*
X79572500Y-124535000D03*
%TD*%
%TO.C,C127*%
X135647500Y-88485000D03*
D22*
X137150000Y-88485000D03*
D23*
X133572500Y-88485000D03*
D22*
X132070000Y-88485000D03*
%TD*%
D24*
%TO.C,C132*%
X150355069Y-133270154D03*
D25*
X148943181Y-132756269D03*
X153716819Y-134493731D03*
D24*
X152304931Y-133979846D03*
%TD*%
D15*
%TO.C,SW8*%
X67750000Y-109675000D03*
D14*
X67820000Y-105475000D03*
X57240000Y-105475000D03*
D13*
X62530000Y-105475000D03*
D15*
X57310000Y-109675000D03*
D17*
X59990000Y-100395000D03*
D18*
X58720000Y-102935000D03*
D16*
X62530000Y-99575000D03*
D21*
X67630000Y-101575000D03*
D17*
X65070000Y-100395000D03*
D19*
X57430000Y-101575000D03*
D20*
X66340000Y-102935000D03*
%TD*%
D14*
%TO.C,SW14*%
X75240000Y-116475000D03*
D15*
X75310000Y-120675000D03*
X85750000Y-120675000D03*
D14*
X85820000Y-116475000D03*
D13*
X80530000Y-116475000D03*
D17*
X77990000Y-111395000D03*
D16*
X80530000Y-110575000D03*
D18*
X76720000Y-113935000D03*
D21*
X85630000Y-112575000D03*
D20*
X84340000Y-113935000D03*
D19*
X75430000Y-112575000D03*
D17*
X83070000Y-111395000D03*
%TD*%
D10*
%TO.C,D23*%
X108540000Y-93235000D03*
D11*
X108540000Y-91732500D03*
D12*
X108540000Y-88155000D03*
D11*
X108540000Y-89657500D03*
%TD*%
D10*
%TO.C,D36*%
X98060000Y-129915000D03*
D12*
X92980000Y-129915000D03*
%TD*%
D14*
%TO.C,SW5*%
X50820000Y-144475000D03*
D15*
X40310000Y-148675000D03*
X50750000Y-148675000D03*
D14*
X40240000Y-144475000D03*
D13*
X45530000Y-144475000D03*
D18*
X41720000Y-141935000D03*
D16*
X45530000Y-138575000D03*
D17*
X42990000Y-139395000D03*
D20*
X49340000Y-141935000D03*
D17*
X48070000Y-139395000D03*
D21*
X50630000Y-140575000D03*
D19*
X40430000Y-140575000D03*
%TD*%
D26*
%TO.C,D123*%
X113905600Y-101435600D03*
X113905600Y-102935600D03*
D27*
X119205600Y-102935600D03*
D26*
X119205600Y-101435600D03*
%TD*%
D13*
%TO.C,SW30*%
X138830000Y-141585000D03*
D15*
X132700827Y-144290853D03*
D28*
X143939748Y-142954153D03*
D29*
X133720252Y-140215847D03*
D15*
X142785093Y-146992924D03*
D17*
X137691349Y-136020696D03*
D30*
X135807223Y-138145448D03*
D16*
X140357032Y-135886038D03*
D31*
X143167578Y-140117649D03*
D32*
X144765616Y-139137866D03*
D33*
X134913173Y-136497912D03*
D17*
X142598252Y-137335497D03*
%TD*%
D34*
%TO.C,C121*%
X113800000Y-67455000D03*
D35*
X115302500Y-67455000D03*
X117377500Y-67455000D03*
D34*
X118880000Y-67455000D03*
%TD*%
D22*
%TO.C,C107*%
X65180000Y-94465000D03*
D23*
X63677500Y-94465000D03*
D22*
X60100000Y-94465000D03*
D23*
X61602500Y-94465000D03*
%TD*%
D26*
%TO.C,D109*%
X65205600Y-129935600D03*
X65205600Y-128435600D03*
D36*
X59905600Y-128435600D03*
D26*
X59905600Y-129935600D03*
%TD*%
%TO.C,D108*%
X59905600Y-109435600D03*
X59905600Y-110935600D03*
D27*
X65205600Y-110935600D03*
D26*
X65205600Y-109435600D03*
%TD*%
D11*
%TO.C,D29*%
X125340000Y-117132500D03*
D10*
X125340000Y-118635000D03*
D12*
X125340000Y-113555000D03*
D11*
X125340000Y-115057500D03*
%TD*%
D23*
%TO.C,D33*%
X89227500Y-132115000D03*
D10*
X90730000Y-132115000D03*
D23*
X87152500Y-132115000D03*
D12*
X85650000Y-132115000D03*
%TD*%
D37*
%TO.C,D44*%
X150274048Y-128919298D03*
X149761017Y-130328837D03*
D38*
X154741388Y-132141544D03*
D37*
X155254419Y-130732005D03*
%TD*%
D11*
%TO.C,D10*%
X71650000Y-141052500D03*
D10*
X71650000Y-142555000D03*
D11*
X71650000Y-138977500D03*
D12*
X71650000Y-137475000D03*
%TD*%
D11*
%TO.C,D1*%
X53580000Y-66352500D03*
D10*
X53580000Y-67855000D03*
D12*
X53580000Y-62775000D03*
D11*
X53580000Y-64277500D03*
%TD*%
D39*
%TO.C,IC2*%
X88715000Y-74015000D03*
D40*
X89365000Y-74015000D03*
X90015000Y-74015000D03*
X90665000Y-74015000D03*
X90665000Y-78415000D03*
X90015000Y-78415000D03*
X89365000Y-78415000D03*
X88715000Y-78415000D03*
%TD*%
D26*
%TO.C,D112*%
X83205600Y-83935600D03*
X83205600Y-82435600D03*
D36*
X77905600Y-82435600D03*
D26*
X77905600Y-83935600D03*
%TD*%
D15*
%TO.C,SW20*%
X94310000Y-145675000D03*
D13*
X99530000Y-141475000D03*
D15*
X104750000Y-145675000D03*
D14*
X104820000Y-141475000D03*
X94240000Y-141475000D03*
D17*
X96990000Y-136395000D03*
D18*
X95720000Y-138935000D03*
D16*
X99530000Y-135575000D03*
D21*
X104630000Y-137575000D03*
D19*
X94430000Y-137575000D03*
D17*
X102070000Y-136395000D03*
D20*
X103340000Y-138935000D03*
%TD*%
D26*
%TO.C,D117*%
X101205600Y-79935600D03*
X101205600Y-78435600D03*
D36*
X95905600Y-78435600D03*
D26*
X95905600Y-79935600D03*
%TD*%
D14*
%TO.C,SW21*%
X121820000Y-59475000D03*
D15*
X111310000Y-63675000D03*
X121750000Y-63675000D03*
D14*
X111240000Y-59475000D03*
D13*
X116530000Y-59475000D03*
D16*
X116530000Y-53575000D03*
D18*
X112720000Y-56935000D03*
D17*
X113990000Y-54395000D03*
D20*
X120340000Y-56935000D03*
D19*
X111430000Y-55575000D03*
D21*
X121630000Y-55575000D03*
D17*
X119070000Y-54395000D03*
%TD*%
D26*
%TO.C,D116*%
X95905600Y-59435600D03*
X95905600Y-60935600D03*
D27*
X101205600Y-60935600D03*
D26*
X101205600Y-59435600D03*
%TD*%
%TO.C,D125*%
X115990684Y-142883625D03*
X115990684Y-144383625D03*
D27*
X121290684Y-144383625D03*
D26*
X121290684Y-142883625D03*
%TD*%
D13*
%TO.C,S2*%
X154140000Y-126075000D03*
D15*
X147798320Y-128236364D03*
X157608711Y-131807054D03*
D41*
X158588960Y-124991277D03*
D42*
X150681446Y-120665896D03*
D43*
X149169026Y-124265713D03*
D44*
X148458315Y-126773898D03*
X158043180Y-130262504D03*
D43*
X159110974Y-127884287D03*
D45*
X151428502Y-122385084D03*
D46*
X160266311Y-124154502D03*
D16*
X156157919Y-120530814D03*
D17*
X153490643Y-120432630D03*
X158264282Y-122170093D03*
%TD*%
D11*
%TO.C,D18*%
X106570000Y-91672500D03*
D10*
X106570000Y-93175000D03*
D11*
X106570000Y-89597500D03*
D12*
X106570000Y-88095000D03*
%TD*%
D11*
%TO.C,D11*%
X72510000Y-63862500D03*
D10*
X72510000Y-65365000D03*
D11*
X72510000Y-61787500D03*
D12*
X72510000Y-60285000D03*
%TD*%
D10*
%TO.C,D35*%
X90730000Y-129905000D03*
D23*
X89227500Y-129905000D03*
D12*
X85650000Y-129905000D03*
D23*
X87152500Y-129905000D03*
%TD*%
D34*
%TO.C,C113*%
X77992500Y-105445000D03*
D35*
X79495000Y-105445000D03*
X81570000Y-105445000D03*
D34*
X83072500Y-105445000D03*
%TD*%
D35*
%TO.C,C106*%
X61552500Y-75485000D03*
D34*
X60050000Y-75485000D03*
D35*
X63627500Y-75485000D03*
D34*
X65130000Y-75485000D03*
%TD*%
D11*
%TO.C,D16*%
X106540000Y-57642500D03*
D10*
X106540000Y-59145000D03*
D12*
X106540000Y-54065000D03*
D11*
X106540000Y-55567500D03*
%TD*%
D35*
%TO.C,C123*%
X115005000Y-105545000D03*
D34*
X113502500Y-105545000D03*
X118582500Y-105545000D03*
D35*
X117080000Y-105545000D03*
%TD*%
D10*
%TO.C,D14*%
X72560000Y-121025000D03*
D11*
X72560000Y-119522500D03*
X72560000Y-117447500D03*
D12*
X72560000Y-115945000D03*
%TD*%
D15*
%TO.C,SW10*%
X68750000Y-147675000D03*
D14*
X68820000Y-143475000D03*
D13*
X63530000Y-143475000D03*
D14*
X58240000Y-143475000D03*
D15*
X58310000Y-147675000D03*
D17*
X60990000Y-138395000D03*
D16*
X63530000Y-137575000D03*
D18*
X59720000Y-140935000D03*
D19*
X58430000Y-139575000D03*
D20*
X67340000Y-140935000D03*
D21*
X68630000Y-139575000D03*
D17*
X66070000Y-138395000D03*
%TD*%
D26*
%TO.C,D102*%
X47205600Y-92935600D03*
X47205600Y-91435600D03*
D36*
X41905600Y-91435600D03*
D26*
X41905600Y-92935600D03*
%TD*%
D15*
%TO.C,SW24*%
X121750000Y-120675000D03*
D14*
X111240000Y-116475000D03*
D13*
X116530000Y-116475000D03*
D14*
X121820000Y-116475000D03*
D15*
X111310000Y-120675000D03*
D16*
X116530000Y-110575000D03*
D18*
X112720000Y-113935000D03*
D17*
X113990000Y-111395000D03*
D19*
X111430000Y-112575000D03*
D20*
X120340000Y-113935000D03*
D17*
X119070000Y-111395000D03*
D21*
X121630000Y-112575000D03*
%TD*%
D15*
%TO.C,SW3*%
X39310000Y-110675000D03*
D14*
X39240000Y-106475000D03*
X49820000Y-106475000D03*
D15*
X49750000Y-110675000D03*
D13*
X44530000Y-106475000D03*
D17*
X41990000Y-101395000D03*
D18*
X40720000Y-103935000D03*
D16*
X44530000Y-100575000D03*
D20*
X48340000Y-103935000D03*
D21*
X49630000Y-102575000D03*
D19*
X39430000Y-102575000D03*
D17*
X47070000Y-101395000D03*
%TD*%
D15*
%TO.C,SW16*%
X103750000Y-59675000D03*
D14*
X93240000Y-55475000D03*
D15*
X93310000Y-59675000D03*
D13*
X98530000Y-55475000D03*
D14*
X103820000Y-55475000D03*
D17*
X95990000Y-50395000D03*
D18*
X94720000Y-52935000D03*
D16*
X98530000Y-49575000D03*
D17*
X101070000Y-50395000D03*
D21*
X103630000Y-51575000D03*
D19*
X93430000Y-51575000D03*
D20*
X102340000Y-52935000D03*
%TD*%
D11*
%TO.C,D3*%
X52610000Y-103952500D03*
D10*
X52610000Y-105455000D03*
D11*
X52610000Y-101877500D03*
D12*
X52610000Y-100375000D03*
%TD*%
D26*
%TO.C,D126*%
X131905600Y-65435600D03*
X131905600Y-66935600D03*
D27*
X137205600Y-66935600D03*
D26*
X137205600Y-65435600D03*
%TD*%
D15*
%TO.C,SW11*%
X85750000Y-63675000D03*
D14*
X85820000Y-59475000D03*
D13*
X80530000Y-59475000D03*
D14*
X75240000Y-59475000D03*
D15*
X75310000Y-63675000D03*
D16*
X80530000Y-53575000D03*
D17*
X77990000Y-54395000D03*
D18*
X76720000Y-56935000D03*
D21*
X85630000Y-55575000D03*
D19*
X75430000Y-55575000D03*
D20*
X84340000Y-56935000D03*
D17*
X83070000Y-54395000D03*
%TD*%
D10*
%TO.C,D40*%
X132330000Y-132595000D03*
D23*
X130827500Y-132595000D03*
D12*
X127250000Y-132595000D03*
D23*
X128752500Y-132595000D03*
%TD*%
D10*
%TO.C,D24*%
X108550000Y-113265000D03*
D11*
X108550000Y-111762500D03*
D12*
X108550000Y-108185000D03*
D11*
X108550000Y-109687500D03*
%TD*%
D26*
%TO.C,D118*%
X95905600Y-97435600D03*
X95905600Y-98935600D03*
D27*
X101205600Y-98935600D03*
D26*
X101205600Y-97435600D03*
%TD*%
D47*
%TO.C,IC6*%
X171152480Y-91578385D03*
D48*
X170864944Y-94102058D03*
X170577408Y-96625730D03*
X170289872Y-99149403D03*
X170002336Y-101673075D03*
X169714800Y-104196748D03*
X169427263Y-106720420D03*
X169139727Y-109244093D03*
X168852191Y-111767765D03*
X168564655Y-114291438D03*
X168277119Y-116815110D03*
X167989583Y-119338783D03*
X167702046Y-121862455D03*
X167414510Y-124386128D03*
X175301484Y-125284735D03*
X175589020Y-122761062D03*
X175876556Y-120237390D03*
X176164092Y-117713717D03*
X176451628Y-115190045D03*
X176739164Y-112666372D03*
X177026701Y-110142700D03*
X177314237Y-107619027D03*
X177601773Y-105095355D03*
X177889309Y-102571682D03*
X178176845Y-100048010D03*
X178464381Y-97524337D03*
X178751918Y-95000665D03*
X179039454Y-92476992D03*
%TD*%
D12*
%TO.C,R1*%
X143140000Y-68197500D03*
D11*
X143140000Y-66695000D03*
D12*
X143140000Y-63117500D03*
D11*
X143140000Y-64620000D03*
%TD*%
D35*
%TO.C,C108*%
X61365000Y-113485000D03*
D34*
X59862500Y-113485000D03*
D35*
X63440000Y-113485000D03*
D34*
X64942500Y-113485000D03*
%TD*%
D49*
%TO.C,SW31*%
X168094511Y-132418961D03*
X167225780Y-134805780D03*
X166357049Y-137192600D03*
X165707692Y-131550230D03*
X164838961Y-133937049D03*
X163970229Y-136323868D03*
X172868150Y-134156423D03*
X171130687Y-138930062D03*
%TD*%
D50*
%TO.C,D30*%
X129911125Y-141476304D03*
D51*
X130300000Y-140025000D03*
D12*
X131225925Y-136569400D03*
D51*
X130837050Y-138020704D03*
%TD*%
D26*
%TO.C,D129*%
X137205600Y-123935600D03*
X137205600Y-122435600D03*
D36*
X131905600Y-122435600D03*
D26*
X131905600Y-123935600D03*
%TD*%
D14*
%TO.C,SW1*%
X39240000Y-68475000D03*
X49820000Y-68475000D03*
D13*
X44530000Y-68475000D03*
D15*
X49750000Y-72675000D03*
X39310000Y-72675000D03*
D18*
X40720000Y-65935000D03*
D17*
X41990000Y-63395000D03*
D16*
X44530000Y-62575000D03*
D21*
X49630000Y-64575000D03*
D19*
X39430000Y-64575000D03*
D20*
X48340000Y-65935000D03*
D17*
X47070000Y-63395000D03*
%TD*%
D11*
%TO.C,D2*%
X52860000Y-85582500D03*
D10*
X52860000Y-87085000D03*
D12*
X52860000Y-82005000D03*
D11*
X52860000Y-83507500D03*
%TD*%
%TO.C,D15*%
X73640000Y-141052500D03*
D10*
X73640000Y-142555000D03*
D12*
X73640000Y-137475000D03*
D11*
X73640000Y-138977500D03*
%TD*%
D13*
%TO.C,SW4*%
X44530000Y-125475000D03*
D14*
X39240000Y-125475000D03*
D15*
X39310000Y-129675000D03*
D14*
X49820000Y-125475000D03*
D15*
X49750000Y-129675000D03*
D17*
X41990000Y-120395000D03*
D16*
X44530000Y-119575000D03*
D18*
X40720000Y-122935000D03*
D17*
X47070000Y-120395000D03*
D21*
X49630000Y-121575000D03*
D20*
X48340000Y-122935000D03*
D19*
X39430000Y-121575000D03*
%TD*%
D10*
%TO.C,D17*%
X106460000Y-75715000D03*
D11*
X106460000Y-74212500D03*
X106460000Y-72137500D03*
D12*
X106460000Y-70635000D03*
%TD*%
D23*
%TO.C,C119*%
X99657500Y-120655000D03*
D22*
X101160000Y-120655000D03*
X96080000Y-120655000D03*
D23*
X97582500Y-120655000D03*
%TD*%
D11*
%TO.C,D7*%
X70630000Y-79992500D03*
D10*
X70630000Y-81495000D03*
D11*
X70630000Y-77917500D03*
D12*
X70630000Y-76415000D03*
%TD*%
D23*
%TO.C,C104*%
X45407500Y-133555000D03*
D22*
X46910000Y-133555000D03*
X41830000Y-133555000D03*
D23*
X43332500Y-133555000D03*
%TD*%
D15*
%TO.C,SW13*%
X85750000Y-101675000D03*
X75310000Y-101675000D03*
D14*
X85820000Y-97475000D03*
D13*
X80530000Y-97475000D03*
D14*
X75240000Y-97475000D03*
D17*
X77990000Y-92395000D03*
D16*
X80530000Y-91575000D03*
D18*
X76720000Y-94935000D03*
D20*
X84340000Y-94935000D03*
D19*
X75430000Y-93575000D03*
D17*
X83070000Y-92395000D03*
D21*
X85630000Y-93575000D03*
%TD*%
D10*
%TO.C,D32*%
X110570000Y-133105000D03*
D23*
X109067500Y-133105000D03*
X106992500Y-133105000D03*
D12*
X105490000Y-133105000D03*
%TD*%
D26*
%TO.C,D110*%
X60905600Y-147435600D03*
X60905600Y-148935600D03*
D27*
X66205600Y-148935600D03*
D26*
X66205600Y-147435600D03*
%TD*%
D10*
%TO.C,D13*%
X72540000Y-103055000D03*
D11*
X72540000Y-101552500D03*
X72540000Y-99477500D03*
D12*
X72540000Y-97975000D03*
%TD*%
D14*
%TO.C,SW15*%
X86820000Y-142475000D03*
D15*
X76310000Y-146675000D03*
X86750000Y-146675000D03*
D13*
X81530000Y-142475000D03*
D14*
X76240000Y-142475000D03*
D17*
X78990000Y-137395000D03*
D16*
X81530000Y-136575000D03*
D18*
X77720000Y-139935000D03*
D17*
X84070000Y-137395000D03*
D20*
X85340000Y-139935000D03*
D21*
X86630000Y-138575000D03*
D19*
X76430000Y-138575000D03*
%TD*%
D26*
%TO.C,D114*%
X83205600Y-121935600D03*
X83205600Y-120435600D03*
D36*
X77905600Y-120435600D03*
D26*
X77905600Y-121935600D03*
%TD*%
D35*
%TO.C,C125*%
X117632500Y-146965000D03*
D34*
X116130000Y-146965000D03*
X121210000Y-146965000D03*
D35*
X119707500Y-146965000D03*
%TD*%
D26*
%TO.C,D113*%
X77905600Y-101435600D03*
X77905600Y-102935600D03*
D27*
X83205600Y-102935600D03*
D26*
X83205600Y-101435600D03*
%TD*%
%TO.C,D119*%
X101205600Y-117935600D03*
X101205600Y-116435600D03*
D36*
X95905600Y-116435600D03*
D26*
X95905600Y-117935600D03*
%TD*%
D15*
%TO.C,SW18*%
X103750000Y-97675000D03*
X93310000Y-97675000D03*
D13*
X98530000Y-93475000D03*
D14*
X93240000Y-93475000D03*
X103820000Y-93475000D03*
D16*
X98530000Y-87575000D03*
D17*
X95990000Y-88395000D03*
D18*
X94720000Y-90935000D03*
D20*
X102340000Y-90935000D03*
D19*
X93430000Y-89575000D03*
D21*
X103630000Y-89575000D03*
D17*
X101070000Y-88395000D03*
%TD*%
D26*
%TO.C,D128*%
X131905600Y-103435600D03*
X131905600Y-104935600D03*
D27*
X137205600Y-104935600D03*
D26*
X137205600Y-103435600D03*
%TD*%
D52*
%TO.C,C130*%
X135687852Y-149096475D03*
D53*
X134236548Y-148707600D03*
D52*
X137692148Y-149633525D03*
D53*
X139143452Y-150022400D03*
%TD*%
D26*
%TO.C,D115*%
X78905600Y-146435600D03*
X78905600Y-147935600D03*
D27*
X84205600Y-147935600D03*
D26*
X84205600Y-146435600D03*
%TD*%
D54*
%TO.C,U1*%
X146040998Y-55012002D03*
D55*
X146040998Y-57552002D03*
X146040998Y-60092002D03*
X146040998Y-62632002D03*
X146040998Y-65172002D03*
X146040998Y-67712002D03*
X146040998Y-70252002D03*
X146040998Y-72792002D03*
X146040998Y-75332002D03*
X146040998Y-77872002D03*
X146040998Y-80412002D03*
X146040998Y-82952002D03*
X146040998Y-85492002D03*
X146040998Y-88032002D03*
X146040998Y-90572002D03*
X146040998Y-93112002D03*
X166360998Y-93112002D03*
X166360998Y-90572002D03*
X166360998Y-88032002D03*
X166360998Y-85492002D03*
X166360998Y-82952002D03*
X166360998Y-80412002D03*
X166360998Y-77872002D03*
X166360998Y-75332002D03*
X166360998Y-72792002D03*
X166360998Y-70252002D03*
X166360998Y-67712002D03*
X166360998Y-65172002D03*
%TD*%
D34*
%TO.C,C120*%
X97120000Y-149575000D03*
D35*
X98622500Y-149575000D03*
D34*
X102200000Y-149575000D03*
D35*
X100697500Y-149575000D03*
%TD*%
D10*
%TO.C,D6*%
X70540000Y-65355000D03*
D11*
X70540000Y-63852500D03*
D12*
X70540000Y-60275000D03*
D11*
X70540000Y-61777500D03*
%TD*%
D14*
%TO.C,SW22*%
X111240000Y-78475000D03*
D13*
X116530000Y-78475000D03*
D15*
X121750000Y-82675000D03*
X111310000Y-82675000D03*
D14*
X121820000Y-78475000D03*
D18*
X112720000Y-75935000D03*
D17*
X113990000Y-73395000D03*
D16*
X116530000Y-72575000D03*
D20*
X120340000Y-75935000D03*
D19*
X111430000Y-74575000D03*
D21*
X121630000Y-74575000D03*
D17*
X119070000Y-73395000D03*
%TD*%
D26*
%TO.C,D104*%
X47205600Y-130935600D03*
X47205600Y-129435600D03*
D36*
X41905600Y-129435600D03*
D26*
X41905600Y-130935600D03*
%TD*%
D39*
%TO.C,IC5*%
X89657391Y-137553820D03*
D40*
X90307391Y-137553820D03*
X90957391Y-137553820D03*
X91607391Y-137553820D03*
X91607391Y-141953820D03*
X90957391Y-141953820D03*
X90307391Y-141953820D03*
X89657391Y-141953820D03*
%TD*%
D35*
%TO.C,C111*%
X79342500Y-67445000D03*
D34*
X77840000Y-67445000D03*
D35*
X81417500Y-67445000D03*
D34*
X82920000Y-67445000D03*
%TD*%
D11*
%TO.C,D26*%
X125650000Y-58872500D03*
D10*
X125650000Y-60375000D03*
D12*
X125650000Y-55295000D03*
D11*
X125650000Y-56797500D03*
%TD*%
D14*
%TO.C,SW2*%
X49820000Y-87475000D03*
D15*
X39310000Y-91675000D03*
D14*
X39240000Y-87475000D03*
D15*
X49750000Y-91675000D03*
D13*
X44530000Y-87475000D03*
D17*
X41990000Y-82395000D03*
D16*
X44530000Y-81575000D03*
D18*
X40720000Y-84935000D03*
D17*
X47070000Y-82395000D03*
D19*
X39430000Y-83575000D03*
D20*
X48340000Y-84935000D03*
D21*
X49630000Y-83575000D03*
%TD*%
D14*
%TO.C,SW17*%
X93240000Y-74475000D03*
D15*
X103750000Y-78675000D03*
D13*
X98530000Y-74475000D03*
D14*
X103820000Y-74475000D03*
D15*
X93310000Y-78675000D03*
D18*
X94720000Y-71935000D03*
D17*
X95990000Y-69395000D03*
D16*
X98530000Y-68575000D03*
D20*
X102340000Y-71935000D03*
D17*
X101070000Y-69395000D03*
D21*
X103630000Y-70575000D03*
D19*
X93430000Y-70575000D03*
%TD*%
D26*
%TO.C,D120*%
X96905600Y-145435600D03*
X96905600Y-146935600D03*
D27*
X102205600Y-146935600D03*
D26*
X102205600Y-145435600D03*
%TD*%
D23*
%TO.C,C109*%
X63660000Y-132405000D03*
D22*
X65162500Y-132405000D03*
D23*
X61585000Y-132405000D03*
D22*
X60082500Y-132405000D03*
%TD*%
D15*
%TO.C,SW27*%
X129310000Y-84675000D03*
D14*
X139820000Y-80475000D03*
D15*
X139750000Y-84675000D03*
D13*
X134530000Y-80475000D03*
D14*
X129240000Y-80475000D03*
D16*
X134530000Y-74575000D03*
D18*
X130720000Y-77935000D03*
D17*
X131990000Y-75395000D03*
D20*
X138340000Y-77935000D03*
D17*
X137070000Y-75395000D03*
D21*
X139630000Y-76575000D03*
D19*
X129430000Y-76575000D03*
%TD*%
D22*
%TO.C,C122*%
X119160000Y-86595000D03*
D23*
X117657500Y-86595000D03*
X115582500Y-86595000D03*
D22*
X114080000Y-86595000D03*
%TD*%
D35*
%TO.C,C115*%
X80472500Y-150565000D03*
D34*
X78970000Y-150565000D03*
X84050000Y-150565000D03*
D35*
X82547500Y-150565000D03*
%TD*%
D15*
%TO.C,SW23*%
X111310000Y-101675000D03*
D14*
X121820000Y-97475000D03*
X111240000Y-97475000D03*
D15*
X121750000Y-101675000D03*
D13*
X116530000Y-97475000D03*
D16*
X116530000Y-91575000D03*
D18*
X112720000Y-94935000D03*
D17*
X113990000Y-92395000D03*
D21*
X121630000Y-93575000D03*
D19*
X111430000Y-93575000D03*
D17*
X119070000Y-92395000D03*
D20*
X120340000Y-94935000D03*
%TD*%
D23*
%TO.C,D38*%
X109067500Y-130995000D03*
D10*
X110570000Y-130995000D03*
D23*
X106992500Y-130995000D03*
D12*
X105490000Y-130995000D03*
%TD*%
D11*
%TO.C,D27*%
X125330000Y-76122500D03*
D10*
X125330000Y-77625000D03*
D11*
X125330000Y-74047500D03*
D12*
X125330000Y-72545000D03*
%TD*%
D23*
%TO.C,C129*%
X135537500Y-126445000D03*
D22*
X137040000Y-126445000D03*
D23*
X133462500Y-126445000D03*
D22*
X131960000Y-126445000D03*
%TD*%
D14*
%TO.C,SW25*%
X123905083Y-138923025D03*
X113325083Y-138923025D03*
D13*
X118615083Y-138923025D03*
D15*
X123835083Y-143123025D03*
X113395083Y-143123025D03*
D16*
X118615083Y-133023025D03*
D17*
X116075083Y-133843025D03*
D18*
X114805083Y-136383025D03*
D21*
X123715083Y-135023025D03*
D20*
X122425083Y-136383025D03*
D19*
X113515083Y-135023025D03*
D17*
X121155083Y-133843025D03*
%TD*%
D15*
%TO.C,SW26*%
X129310000Y-65675000D03*
D14*
X139820000Y-61475000D03*
D15*
X139750000Y-65675000D03*
D13*
X134530000Y-61475000D03*
D14*
X129240000Y-61475000D03*
D17*
X131990000Y-56395000D03*
D16*
X134530000Y-55575000D03*
D18*
X130720000Y-58935000D03*
D17*
X137070000Y-56395000D03*
D21*
X139630000Y-57575000D03*
D20*
X138340000Y-58935000D03*
D19*
X129430000Y-57575000D03*
%TD*%
D11*
%TO.C,D4*%
X52640000Y-122602500D03*
D10*
X52640000Y-124105000D03*
D11*
X52640000Y-120527500D03*
D12*
X52640000Y-119025000D03*
%TD*%
D56*
%TO.C,C131*%
X152431499Y-155756250D03*
D57*
X151130295Y-155005000D03*
X155529705Y-157545000D03*
D56*
X154228501Y-156793750D03*
%TD*%
D35*
%TO.C,C101*%
X43612500Y-76365000D03*
D34*
X42110000Y-76365000D03*
X47190000Y-76365000D03*
D35*
X45687500Y-76365000D03*
%TD*%
D58*
%TO.C,U4*%
X173370000Y-75267500D03*
X173370000Y-68267500D03*
D59*
X171070000Y-77967500D03*
X175670000Y-76867500D03*
X175670000Y-72867500D03*
X175670000Y-69867500D03*
%TD*%
D26*
%TO.C,D105*%
X42905600Y-148435600D03*
X42905600Y-149935600D03*
D27*
X48205600Y-149935600D03*
D26*
X48205600Y-148435600D03*
%TD*%
D10*
%TO.C,D5*%
X54170000Y-143295000D03*
D11*
X54170000Y-141792500D03*
D12*
X54170000Y-138215000D03*
D11*
X54170000Y-139717500D03*
%TD*%
D35*
%TO.C,C116*%
X97172500Y-63805000D03*
D34*
X95670000Y-63805000D03*
D35*
X99247500Y-63805000D03*
D34*
X100750000Y-63805000D03*
%TD*%
D26*
%TO.C,D121*%
X113905600Y-63435600D03*
X113905600Y-64935600D03*
D27*
X119205600Y-64935600D03*
D26*
X119205600Y-63435600D03*
%TD*%
D10*
%TO.C,D45*%
X143480000Y-94705000D03*
D11*
X143480000Y-93202500D03*
X143480000Y-91127500D03*
D12*
X143480000Y-89625000D03*
%TD*%
D10*
%TO.C,D22*%
X108560000Y-75765000D03*
D11*
X108560000Y-74262500D03*
D12*
X108560000Y-70685000D03*
D11*
X108560000Y-72187500D03*
%TD*%
D39*
%TO.C,IC3*%
X88775000Y-92545000D03*
D40*
X89425000Y-92545000D03*
X90075000Y-92545000D03*
X90725000Y-92545000D03*
X90725000Y-96945000D03*
X90075000Y-96945000D03*
X89425000Y-96945000D03*
X88775000Y-96945000D03*
%TD*%
D15*
%TO.C,S1*%
X151013837Y-150380789D03*
D13*
X157634490Y-149353482D03*
D15*
X160055143Y-155600789D03*
D60*
X155167760Y-143425983D03*
D61*
X162204047Y-149058777D03*
D62*
X153053216Y-146708482D03*
D63*
X151917760Y-149055148D03*
X160751220Y-154155148D03*
D62*
X162215764Y-151998482D03*
D64*
X155604933Y-145248777D03*
D65*
X164001220Y-148525983D03*
D17*
X162374195Y-146224073D03*
D16*
X160584490Y-144243932D03*
D17*
X157974785Y-143684073D03*
%TD*%
D23*
%TO.C,C112*%
X81587500Y-86555000D03*
D22*
X83090000Y-86555000D03*
D23*
X79512500Y-86555000D03*
D22*
X78010000Y-86555000D03*
%TD*%
%TO.C,C124*%
X119072500Y-124355000D03*
D23*
X117570000Y-124355000D03*
X115495000Y-124355000D03*
D22*
X113992500Y-124355000D03*
%TD*%
D66*
%TO.C,D130*%
X135269946Y-144731402D03*
X134881717Y-146180291D03*
D67*
X140001124Y-147552032D03*
D66*
X140389353Y-146103143D03*
%TD*%
D34*
%TO.C,C118*%
X95970000Y-101535000D03*
D35*
X97472500Y-101535000D03*
D34*
X101050000Y-101535000D03*
D35*
X99547500Y-101535000D03*
%TD*%
D26*
%TO.C,D124*%
X119205600Y-121935600D03*
X119205600Y-120435600D03*
D36*
X113905600Y-120435600D03*
D26*
X113905600Y-121935600D03*
%TD*%
D35*
%TO.C,C103*%
X43652500Y-114455000D03*
D34*
X42150000Y-114455000D03*
D35*
X45727500Y-114455000D03*
D34*
X47230000Y-114455000D03*
%TD*%
D15*
%TO.C,SW19*%
X103750000Y-116675000D03*
D13*
X98530000Y-112475000D03*
D14*
X93240000Y-112475000D03*
D15*
X93310000Y-116675000D03*
D14*
X103820000Y-112475000D03*
D17*
X95990000Y-107395000D03*
D16*
X98530000Y-106575000D03*
D18*
X94720000Y-109935000D03*
D21*
X103630000Y-108575000D03*
D17*
X101070000Y-107395000D03*
D19*
X93430000Y-108575000D03*
D20*
X102340000Y-109935000D03*
%TD*%
D10*
%TO.C,D9*%
X70600000Y-121025000D03*
D11*
X70600000Y-119522500D03*
D12*
X70600000Y-115945000D03*
D11*
X70600000Y-117447500D03*
%TD*%
D34*
%TO.C,C105*%
X42920000Y-152505000D03*
D35*
X44422500Y-152505000D03*
X46497500Y-152505000D03*
D34*
X48000000Y-152505000D03*
%TD*%
D13*
%TO.C,SW6*%
X62530000Y-67475000D03*
D15*
X67750000Y-71675000D03*
D14*
X67820000Y-67475000D03*
X57240000Y-67475000D03*
D15*
X57310000Y-71675000D03*
D16*
X62530000Y-61575000D03*
D18*
X58720000Y-64935000D03*
D17*
X59990000Y-62395000D03*
D21*
X67630000Y-63575000D03*
D19*
X57430000Y-63575000D03*
D20*
X66340000Y-64935000D03*
D17*
X65070000Y-62395000D03*
%TD*%
D68*
%TO.C,R2*%
X143140000Y-71437500D03*
D12*
X143140000Y-69935000D03*
X143140000Y-75015000D03*
D68*
X143140000Y-73512500D03*
%TD*%
D26*
%TO.C,D127*%
X137205600Y-85935600D03*
X137205600Y-84435600D03*
D36*
X131905600Y-84435600D03*
D26*
X131905600Y-85935600D03*
%TD*%
D10*
%TO.C,D21*%
X108580000Y-59145000D03*
D11*
X108580000Y-57642500D03*
X108580000Y-55567500D03*
D12*
X108580000Y-54065000D03*
%TD*%
D15*
%TO.C,SW29*%
X139750000Y-122675000D03*
D13*
X134530000Y-118475000D03*
D14*
X129240000Y-118475000D03*
X139820000Y-118475000D03*
D15*
X129310000Y-122675000D03*
D17*
X131990000Y-113395000D03*
D16*
X134530000Y-112575000D03*
D18*
X130720000Y-115935000D03*
D17*
X137070000Y-113395000D03*
D21*
X139630000Y-114575000D03*
D20*
X138340000Y-115935000D03*
D19*
X129430000Y-114575000D03*
%TD*%
D23*
%TO.C,D39*%
X92817500Y-123495000D03*
D10*
X94320000Y-123495000D03*
D12*
X89240000Y-123495000D03*
D23*
X90742500Y-123495000D03*
%TD*%
D34*
%TO.C,C110*%
X61040000Y-151485000D03*
D35*
X62542500Y-151485000D03*
D34*
X66120000Y-151485000D03*
D35*
X64617500Y-151485000D03*
%TD*%
D11*
%TO.C,D25*%
X110140000Y-139912500D03*
D10*
X110140000Y-141415000D03*
D11*
X110140000Y-137837500D03*
D12*
X110140000Y-136335000D03*
%TD*%
D26*
%TO.C,D122*%
X119205600Y-83935600D03*
X119205600Y-82435600D03*
D36*
X113905600Y-82435600D03*
D26*
X113905600Y-83935600D03*
%TD*%
D10*
%TO.C,D42*%
X101390000Y-123435000D03*
D12*
X96310000Y-123435000D03*
%TD*%
D14*
%TO.C,SW12*%
X85820000Y-78475000D03*
D15*
X85750000Y-82675000D03*
X75310000Y-82675000D03*
D13*
X80530000Y-78475000D03*
D14*
X75240000Y-78475000D03*
D18*
X76720000Y-75935000D03*
D17*
X77990000Y-73395000D03*
D16*
X80530000Y-72575000D03*
D20*
X84340000Y-75935000D03*
D17*
X83070000Y-73395000D03*
D19*
X75430000Y-74575000D03*
D21*
X85630000Y-74575000D03*
%TD*%
D10*
%TO.C,D20*%
X108090000Y-141402500D03*
D11*
X108090000Y-139900000D03*
D12*
X108090000Y-136322500D03*
D11*
X108090000Y-137825000D03*
%TD*%
D39*
%TO.C,IC1*%
X88640000Y-55119632D03*
D40*
X89290000Y-55119632D03*
X89940000Y-55119632D03*
X90590000Y-55119632D03*
X90590000Y-59519632D03*
X89940000Y-59519632D03*
X89290000Y-59519632D03*
X88640000Y-59519632D03*
%TD*%
D26*
%TO.C,D107*%
X65205600Y-91935600D03*
X65205600Y-90435600D03*
D36*
X59905600Y-90435600D03*
D26*
X59905600Y-91935600D03*
%TD*%
D13*
%TO.C,SW9*%
X62530000Y-124475000D03*
D14*
X67820000Y-124475000D03*
D15*
X57310000Y-128675000D03*
D14*
X57240000Y-124475000D03*
D15*
X67750000Y-128675000D03*
D18*
X58720000Y-121935000D03*
D17*
X59990000Y-119395000D03*
D16*
X62530000Y-118575000D03*
D21*
X67630000Y-120575000D03*
D19*
X57430000Y-120575000D03*
D17*
X65070000Y-119395000D03*
D20*
X66340000Y-121935000D03*
%TD*%
D23*
%TO.C,C102*%
X45727500Y-95395000D03*
D22*
X47230000Y-95395000D03*
D23*
X43652500Y-95395000D03*
D22*
X42150000Y-95395000D03*
%TD*%
D26*
%TO.C,D103*%
X41905600Y-110435600D03*
X41905600Y-111935600D03*
D27*
X47205600Y-111935600D03*
D26*
X47205600Y-110435600D03*
%TD*%
D11*
%TO.C,D19*%
X106520000Y-111762500D03*
D10*
X106520000Y-113265000D03*
D12*
X106520000Y-108185000D03*
D11*
X106520000Y-109687500D03*
%TD*%
D10*
%TO.C,D46*%
X143530000Y-102295000D03*
D11*
X143530000Y-100792500D03*
D12*
X143530000Y-97215000D03*
D11*
X143530000Y-98717500D03*
%TD*%
D26*
%TO.C,D111*%
X77905600Y-63435600D03*
X77905600Y-64935600D03*
D27*
X83205600Y-64935600D03*
D26*
X83205600Y-63435600D03*
%TD*%
D11*
%TO.C,D28*%
X125450000Y-93562500D03*
D10*
X125450000Y-95065000D03*
D12*
X125450000Y-89985000D03*
D11*
X125450000Y-91487500D03*
%TD*%
D26*
%TO.C,D101*%
X41905600Y-72435600D03*
X41905600Y-73935600D03*
D27*
X47205600Y-73935600D03*
D26*
X47205600Y-72435600D03*
%TD*%
D11*
%TO.C,D8*%
X70580000Y-101532500D03*
D10*
X70580000Y-103035000D03*
D12*
X70580000Y-97955000D03*
D11*
X70580000Y-99457500D03*
%TD*%
D10*
%TO.C,D41*%
X94320000Y-125695000D03*
D23*
X92817500Y-125695000D03*
X90742500Y-125695000D03*
D12*
X89240000Y-125695000D03*
%TD*%
D26*
%TO.C,D106*%
X59905600Y-71435600D03*
X59905600Y-72935600D03*
D27*
X65205600Y-72935600D03*
D26*
X65205600Y-71435600D03*
%TD*%
D69*
%TO.C,U3*%
X123625072Y-43207855D03*
D17*
X126078523Y-42550454D03*
X128531975Y-41893054D03*
X130949248Y-41245348D03*
X133438878Y-40578253D03*
X135892330Y-39920853D03*
X122967671Y-40754403D03*
X125421123Y-40097003D03*
X127873822Y-39436793D03*
X130291095Y-38789086D03*
X132780725Y-38121992D03*
X135234929Y-37467401D03*
%TD*%
D54*
%TO.C,U2*%
X148584998Y-51480002D03*
D55*
X148584998Y-54020002D03*
X148584998Y-56560002D03*
X148584998Y-59100002D03*
X148584998Y-61640002D03*
X148584998Y-64180002D03*
X148584998Y-66720002D03*
X148584998Y-69260002D03*
X148584998Y-71800002D03*
X148584998Y-74340002D03*
X148584998Y-76880002D03*
X148584998Y-79420002D03*
X163824998Y-79420002D03*
X163824998Y-76880002D03*
X163824998Y-74340002D03*
X163824998Y-71800002D03*
X163824998Y-69260002D03*
X163824998Y-66720002D03*
X163824998Y-64180002D03*
X163824998Y-61640002D03*
X163824998Y-59100002D03*
X163824998Y-56560002D03*
X163824998Y-54020002D03*
X163824998Y-51480002D03*
%TD*%
D14*
%TO.C,SW28*%
X129240000Y-99475000D03*
X139820000Y-99475000D03*
D15*
X139750000Y-103675000D03*
X129310000Y-103675000D03*
D13*
X134530000Y-99475000D03*
D18*
X130720000Y-96935000D03*
D17*
X131990000Y-94395000D03*
D16*
X134530000Y-93575000D03*
D21*
X139630000Y-95575000D03*
D20*
X138340000Y-96935000D03*
D19*
X129430000Y-95575000D03*
D17*
X137070000Y-94395000D03*
%TD*%
D39*
%TO.C,IC4*%
X88670000Y-111915402D03*
D40*
X89320000Y-111915402D03*
X89970000Y-111915402D03*
X90620000Y-111915402D03*
X90620000Y-116315402D03*
X89970000Y-116315402D03*
X89320000Y-116315402D03*
X88670000Y-116315402D03*
%TD*%
D70*
%TO.C,D43*%
X153266222Y-151519545D03*
X152516222Y-152818583D03*
D71*
X157106156Y-155468583D03*
D70*
X157856156Y-154169545D03*
%TD*%
D35*
%TO.C,C128*%
X133502500Y-107405000D03*
D34*
X132000000Y-107405000D03*
D35*
X135577500Y-107405000D03*
D34*
X137080000Y-107405000D03*
%TD*%
D23*
%TO.C,C117*%
X99417500Y-82655000D03*
D22*
X100920000Y-82655000D03*
D23*
X97342500Y-82655000D03*
D22*
X95840000Y-82655000D03*
%TD*%
D34*
%TO.C,C126*%
X131900000Y-69665000D03*
D35*
X133402500Y-69665000D03*
X135477500Y-69665000D03*
D34*
X136980000Y-69665000D03*
%TD*%
D10*
%TO.C,D34*%
X132320000Y-134575000D03*
D23*
X130817500Y-134575000D03*
D12*
X127240000Y-134575000D03*
D23*
X128742500Y-134575000D03*
%TD*%
D72*
%TO.C,JP6*%
X154759998Y-60630002D03*
D73*
X156209998Y-60630002D03*
%TD*%
D58*
%TO.C,U5*%
X171669999Y-68274000D03*
X171669999Y-75274000D03*
D59*
X173969999Y-77974000D03*
X169369999Y-76874000D03*
X169369999Y-72874000D03*
X169369999Y-69874000D03*
%TD*%
D72*
%TO.C,JP12*%
X99895000Y-132025000D03*
D73*
X101345000Y-132025000D03*
%TD*%
D23*
%TO.C,D37*%
X99887500Y-125605000D03*
D10*
X101390000Y-125605000D03*
D12*
X96310000Y-125605000D03*
D23*
X97812500Y-125605000D03*
%TD*%
D72*
%TO.C,JP10*%
X154620000Y-76030000D03*
D73*
X156070000Y-76030000D03*
%TD*%
D72*
%TO.C,JP4*%
X154629998Y-67970002D03*
D73*
X156079998Y-67970002D03*
%TD*%
D72*
%TO.C,JP8*%
X154654998Y-72090002D03*
D73*
X156104998Y-72090002D03*
%TD*%
D74*
%TO.C,JP2*%
X156170000Y-64300000D03*
D75*
X154720000Y-64300000D03*
%TD*%
D72*
%TO.C,JP14*%
X103265000Y-125545000D03*
D73*
X104715000Y-125545000D03*
%TD*%
D76*
%TO.C,JP16*%
X171640000Y-81320000D03*
X174040000Y-81320000D03*
D74*
X174840000Y-81320000D03*
D72*
X170840000Y-81320000D03*
%TD*%
D10*
%TO.C,D31*%
X98020000Y-132085000D03*
D23*
X96517500Y-132085000D03*
D12*
X92940000Y-132085000D03*
D23*
X94442500Y-132085000D03*
%TD*%
D77*
%TO.C,IC7*%
X179392472Y-93795432D03*
D48*
X179104936Y-96319105D03*
X178817399Y-98842777D03*
X178529863Y-101366450D03*
X178242327Y-103890122D03*
X177954791Y-106413795D03*
X177667255Y-108937467D03*
X177379719Y-111461140D03*
X177092182Y-113984812D03*
X176804646Y-116508485D03*
X176517110Y-119032157D03*
X176229574Y-121555830D03*
X175942038Y-124079502D03*
X175654502Y-126603175D03*
X167767528Y-125704568D03*
X168055064Y-123180895D03*
X168342601Y-120657223D03*
X168630137Y-118133550D03*
X168917673Y-115609878D03*
X169205209Y-113086205D03*
X169492745Y-110562533D03*
X169780281Y-108038860D03*
X170067818Y-105515188D03*
X170355354Y-102991515D03*
X170642890Y-100467843D03*
X170930426Y-97944170D03*
X171217962Y-95420498D03*
X171505498Y-92896825D03*
%TD*%
M02*
