%TF.GenerationSoftware,KiCad,Pcbnew,(6.0.0)*%
%TF.CreationDate,2022-02-08T17:16:42+09:00*%
%TF.ProjectId,brimstone2,6272696d-7374-46f6-9e65-322e6b696361,rev?*%
%TF.SameCoordinates,Original*%
%TF.FileFunction,Profile,NP*%
%FSLAX46Y46*%
G04 Gerber Fmt 4.6, Leading zero omitted, Abs format (unit mm)*
G04 Created by KiCad (PCBNEW (6.0.0)) date 2022-02-08 17:16:42*
%MOMM*%
%LPD*%
G01*
G04 APERTURE LIST*
%TA.AperFunction,Profile*%
%ADD10C,0.100000*%
%TD*%
%TA.AperFunction,Profile*%
%ADD11C,0.120000*%
%TD*%
G04 APERTURE END LIST*
D10*
X34287500Y-64192500D02*
X34300000Y-151175000D01*
X38167500Y-58252501D02*
G75*
G03*
X34287500Y-64192500I2819903J-6079162D01*
G01*
X162590000Y-160825000D02*
G75*
G03*
X162961896Y-33818003I-101753078J63801992D01*
G01*
X39300000Y-155993214D02*
X109300000Y-151885000D01*
X157050000Y-161935001D02*
G75*
G03*
X162590000Y-160825000I2198336J3408169D01*
G01*
X34300000Y-151175000D02*
G75*
G03*
X39300000Y-155993214I5000382J185612D01*
G01*
X162961896Y-33818003D02*
G75*
G03*
X152216896Y-29360000I-8515463J-5346395D01*
G01*
X38167500Y-58252500D02*
X152216896Y-29360000D01*
X157050000Y-161935000D02*
G75*
G03*
X109300000Y-151885000I-40743949J-75123488D01*
G01*
D11*
%TO.C,D123*%
X118255600Y-103685600D02*
X114855600Y-103685600D01*
X114855600Y-103685600D02*
X114855600Y-100685600D01*
X118255600Y-100685600D02*
X118255600Y-103685600D01*
X114855600Y-100685600D02*
X118255600Y-100685600D01*
%TO.C,D109*%
X60855600Y-127685600D02*
X64255600Y-127685600D01*
X64255600Y-127685600D02*
X64255600Y-130685600D01*
X60855600Y-130685600D02*
X60855600Y-127685600D01*
X64255600Y-130685600D02*
X60855600Y-130685600D01*
%TO.C,D108*%
X64255600Y-108685600D02*
X64255600Y-111685600D01*
X60855600Y-111685600D02*
X60855600Y-108685600D01*
X64255600Y-111685600D02*
X60855600Y-111685600D01*
X60855600Y-108685600D02*
X64255600Y-108685600D01*
%TO.C,D44*%
X150397210Y-131358526D02*
X151423271Y-128539448D01*
X154618226Y-129702316D02*
X153592165Y-132521394D01*
X153592165Y-132521394D02*
X150397210Y-131358526D01*
X151423271Y-128539448D02*
X154618226Y-129702316D01*
%TO.C,D112*%
X78855600Y-84685600D02*
X78855600Y-81685600D01*
X82255600Y-81685600D02*
X82255600Y-84685600D01*
X82255600Y-84685600D02*
X78855600Y-84685600D01*
X78855600Y-81685600D02*
X82255600Y-81685600D01*
%TO.C,D117*%
X96855600Y-80685600D02*
X96855600Y-77685600D01*
X96855600Y-77685600D02*
X100255600Y-77685600D01*
X100255600Y-80685600D02*
X96855600Y-80685600D01*
X100255600Y-77685600D02*
X100255600Y-80685600D01*
%TO.C,D116*%
X100255600Y-61685600D02*
X96855600Y-61685600D01*
X100255600Y-58685600D02*
X100255600Y-61685600D01*
X96855600Y-61685600D02*
X96855600Y-58685600D01*
X96855600Y-58685600D02*
X100255600Y-58685600D01*
%TO.C,D125*%
X116940684Y-145133625D02*
X116940684Y-142133625D01*
X120340684Y-142133625D02*
X120340684Y-145133625D01*
X120340684Y-145133625D02*
X116940684Y-145133625D01*
X116940684Y-142133625D02*
X120340684Y-142133625D01*
%TO.C,D102*%
X42855600Y-90685600D02*
X46255600Y-90685600D01*
X42855600Y-93685600D02*
X42855600Y-90685600D01*
X46255600Y-93685600D02*
X42855600Y-93685600D01*
X46255600Y-90685600D02*
X46255600Y-93685600D01*
%TO.C,D126*%
X132855600Y-67685600D02*
X132855600Y-64685600D01*
X136255600Y-64685600D02*
X136255600Y-67685600D01*
X136255600Y-67685600D02*
X132855600Y-67685600D01*
X132855600Y-64685600D02*
X136255600Y-64685600D01*
%TO.C,D118*%
X96855600Y-96685600D02*
X100255600Y-96685600D01*
X96855600Y-99685600D02*
X96855600Y-96685600D01*
X100255600Y-96685600D02*
X100255600Y-99685600D01*
X100255600Y-99685600D02*
X96855600Y-99685600D01*
%TO.C,D129*%
X132855600Y-124685600D02*
X132855600Y-121685600D01*
X132855600Y-121685600D02*
X136255600Y-121685600D01*
X136255600Y-121685600D02*
X136255600Y-124685600D01*
X136255600Y-124685600D02*
X132855600Y-124685600D01*
%TO.C,D110*%
X61855600Y-149685600D02*
X61855600Y-146685600D01*
X65255600Y-149685600D02*
X61855600Y-149685600D01*
X65255600Y-146685600D02*
X65255600Y-149685600D01*
X61855600Y-146685600D02*
X65255600Y-146685600D01*
%TO.C,D114*%
X78855600Y-119685600D02*
X82255600Y-119685600D01*
X82255600Y-122685600D02*
X78855600Y-122685600D01*
X82255600Y-119685600D02*
X82255600Y-122685600D01*
X78855600Y-122685600D02*
X78855600Y-119685600D01*
%TO.C,D113*%
X82255600Y-100685600D02*
X82255600Y-103685600D01*
X82255600Y-103685600D02*
X78855600Y-103685600D01*
X78855600Y-103685600D02*
X78855600Y-100685600D01*
X78855600Y-100685600D02*
X82255600Y-100685600D01*
%TO.C,D119*%
X96855600Y-118685600D02*
X96855600Y-115685600D01*
X100255600Y-118685600D02*
X96855600Y-118685600D01*
X100255600Y-115685600D02*
X100255600Y-118685600D01*
X96855600Y-115685600D02*
X100255600Y-115685600D01*
%TO.C,D128*%
X132855600Y-105685600D02*
X132855600Y-102685600D01*
X136255600Y-105685600D02*
X132855600Y-105685600D01*
X132855600Y-102685600D02*
X136255600Y-102685600D01*
X136255600Y-102685600D02*
X136255600Y-105685600D01*
%TO.C,D115*%
X79855600Y-145685600D02*
X83255600Y-145685600D01*
X83255600Y-145685600D02*
X83255600Y-148685600D01*
X79855600Y-148685600D02*
X79855600Y-145685600D01*
X83255600Y-148685600D02*
X79855600Y-148685600D01*
%TO.C,D104*%
X46255600Y-128685600D02*
X46255600Y-131685600D01*
X46255600Y-131685600D02*
X42855600Y-131685600D01*
X42855600Y-128685600D02*
X46255600Y-128685600D01*
X42855600Y-131685600D02*
X42855600Y-128685600D01*
%TO.C,D120*%
X97855600Y-147685600D02*
X97855600Y-144685600D01*
X101255600Y-144685600D02*
X101255600Y-147685600D01*
X101255600Y-147685600D02*
X97855600Y-147685600D01*
X97855600Y-144685600D02*
X101255600Y-144685600D01*
%TO.C,D105*%
X43855600Y-147685600D02*
X47255600Y-147685600D01*
X47255600Y-147685600D02*
X47255600Y-150685600D01*
X43855600Y-150685600D02*
X43855600Y-147685600D01*
X47255600Y-150685600D02*
X43855600Y-150685600D01*
%TO.C,D121*%
X114855600Y-62685600D02*
X118255600Y-62685600D01*
X114855600Y-65685600D02*
X114855600Y-62685600D01*
X118255600Y-65685600D02*
X114855600Y-65685600D01*
X118255600Y-62685600D02*
X118255600Y-65685600D01*
%TO.C,D130*%
X135605233Y-147150613D02*
X136381690Y-144252836D01*
X136381690Y-144252836D02*
X139665837Y-145132821D01*
X138889380Y-148030598D02*
X135605233Y-147150613D01*
X139665837Y-145132821D02*
X138889380Y-148030598D01*
%TO.C,D124*%
X118255600Y-119685600D02*
X118255600Y-122685600D01*
X118255600Y-122685600D02*
X114855600Y-122685600D01*
X114855600Y-122685600D02*
X114855600Y-119685600D01*
X114855600Y-119685600D02*
X118255600Y-119685600D01*
%TO.C,D127*%
X136255600Y-86685600D02*
X132855600Y-86685600D01*
X132855600Y-83685600D02*
X136255600Y-83685600D01*
X136255600Y-83685600D02*
X136255600Y-86685600D01*
X132855600Y-86685600D02*
X132855600Y-83685600D01*
%TO.C,D122*%
X114855600Y-81685600D02*
X118255600Y-81685600D01*
X118255600Y-81685600D02*
X118255600Y-84685600D01*
X118255600Y-84685600D02*
X114855600Y-84685600D01*
X114855600Y-84685600D02*
X114855600Y-81685600D01*
%TO.C,D107*%
X60855600Y-89685600D02*
X64255600Y-89685600D01*
X64255600Y-89685600D02*
X64255600Y-92685600D01*
X64255600Y-92685600D02*
X60855600Y-92685600D01*
X60855600Y-92685600D02*
X60855600Y-89685600D01*
%TO.C,D103*%
X42855600Y-112685600D02*
X42855600Y-109685600D01*
X46255600Y-109685600D02*
X46255600Y-112685600D01*
X46255600Y-112685600D02*
X42855600Y-112685600D01*
X42855600Y-109685600D02*
X46255600Y-109685600D01*
%TO.C,D111*%
X82255600Y-65685600D02*
X78855600Y-65685600D01*
X82255600Y-62685600D02*
X82255600Y-65685600D01*
X78855600Y-65685600D02*
X78855600Y-62685600D01*
X78855600Y-62685600D02*
X82255600Y-62685600D01*
%TO.C,D101*%
X46255600Y-71685600D02*
X46255600Y-74685600D01*
X46255600Y-74685600D02*
X42855600Y-74685600D01*
X42855600Y-74685600D02*
X42855600Y-71685600D01*
X42855600Y-71685600D02*
X46255600Y-71685600D01*
%TO.C,D106*%
X64255600Y-70685600D02*
X64255600Y-73685600D01*
X64255600Y-73685600D02*
X60855600Y-73685600D01*
X60855600Y-73685600D02*
X60855600Y-70685600D01*
X60855600Y-70685600D02*
X64255600Y-70685600D01*
%TO.C,D43*%
X155908432Y-155643102D02*
X152963946Y-153943102D01*
X154463946Y-151345026D02*
X157408432Y-153045026D01*
X157408432Y-153045026D02*
X155908432Y-155643102D01*
X152963946Y-153943102D02*
X154463946Y-151345026D01*
%TD*%
M02*
