G04 #@! TF.GenerationSoftware,KiCad,Pcbnew,(5.1.5)-3*
G04 #@! TF.CreationDate,2021-04-24T22:04:19+09:00*
G04 #@! TF.ProjectId,brimstone,6272696d-7374-46f6-9e65-2e6b69636164,rev?*
G04 #@! TF.SameCoordinates,Original*
G04 #@! TF.FileFunction,Legend,Bot*
G04 #@! TF.FilePolarity,Positive*
%FSLAX46Y46*%
G04 Gerber Fmt 4.6, Leading zero omitted, Abs format (unit mm)*
G04 Created by KiCad (PCBNEW (5.1.5)-3) date 2021-04-24 22:04:19*
%MOMM*%
%LPD*%
G04 APERTURE LIST*
%ADD10C,0.150000*%
%ADD11O,1.702000X1.702000*%
%ADD12R,1.702000X1.702000*%
%ADD13C,1.702000*%
%ADD14R,1.302000X1.702000*%
%ADD15C,2.082800*%
%ADD16C,1.302000*%
%ADD17C,1.802000*%
%ADD18C,2.102000*%
%ADD19C,1.852000*%
%ADD20C,2.352000*%
%ADD21C,4.089800*%
%ADD22C,2.352000*%
%ADD23C,0.100000*%
G04 APERTURE END LIST*
D10*
X119037567Y-47289738D02*
X118887253Y-47298760D01*
X118657271Y-47237136D01*
X118577603Y-47166491D01*
X118543931Y-47108169D01*
X118522584Y-47003852D01*
X118547233Y-46911859D01*
X118617879Y-46832191D01*
X118676200Y-46798519D01*
X118780518Y-46777172D01*
X118976828Y-46780474D01*
X119081146Y-46759127D01*
X119139467Y-46725455D01*
X119210113Y-46645787D01*
X119234763Y-46553794D01*
X119213416Y-46449477D01*
X119179744Y-46391155D01*
X119100076Y-46320509D01*
X118870093Y-46258886D01*
X118719779Y-46267908D01*
X118410129Y-46135639D02*
X117921327Y-47039941D01*
X117922212Y-46300695D01*
X117553356Y-46941343D01*
X117582192Y-45913794D01*
X116449440Y-46645550D02*
X117001398Y-46793447D01*
X116725419Y-46719498D02*
X116984238Y-45753573D01*
X117039257Y-45916211D01*
X117106600Y-46032854D01*
X117186269Y-46103500D01*
X116386284Y-45593351D02*
X115742333Y-45420805D01*
X115897483Y-46497653D01*
X158966436Y-119276996D02*
X158816122Y-119286018D01*
X158586140Y-119224394D01*
X158506472Y-119153749D01*
X158472800Y-119095427D01*
X158451453Y-118991110D01*
X158476102Y-118899117D01*
X158546748Y-118819449D01*
X158605069Y-118785777D01*
X158709387Y-118764430D01*
X158905697Y-118767732D01*
X159010015Y-118746385D01*
X159068336Y-118712713D01*
X159138982Y-118633045D01*
X159163632Y-118541052D01*
X159142285Y-118436735D01*
X159108613Y-118378413D01*
X159028945Y-118307767D01*
X158798962Y-118246144D01*
X158648648Y-118255166D01*
X158338998Y-118122897D02*
X157850196Y-119027199D01*
X157851081Y-118287953D01*
X157482225Y-118928601D01*
X157511061Y-117901052D01*
X156642848Y-118013507D02*
X156470302Y-118657457D01*
X156971428Y-117707159D02*
X157016540Y-118458729D01*
X156418586Y-118298508D01*
X155722919Y-117767013D02*
X155550373Y-118410963D01*
X156051499Y-117460664D02*
X156096611Y-118212235D01*
X155498656Y-118052014D01*
X168801560Y-82571815D02*
X168651246Y-82580837D01*
X168421264Y-82519213D01*
X168341596Y-82448568D01*
X168307924Y-82390246D01*
X168286577Y-82285929D01*
X168311226Y-82193936D01*
X168381872Y-82114268D01*
X168440193Y-82080596D01*
X168544511Y-82059249D01*
X168740821Y-82062551D01*
X168845139Y-82041204D01*
X168903460Y-82007532D01*
X168974106Y-81927864D01*
X168998756Y-81835871D01*
X168977409Y-81731554D01*
X168943737Y-81673232D01*
X168864069Y-81602586D01*
X168634086Y-81540963D01*
X168483772Y-81549985D01*
X168174122Y-81417716D02*
X167685320Y-82322018D01*
X167686205Y-81582772D01*
X167317349Y-82223420D01*
X167346185Y-81195871D01*
X166477972Y-81308326D02*
X166305426Y-81952276D01*
X166806552Y-81001978D02*
X166851664Y-81753548D01*
X166253710Y-81593327D01*
X166079631Y-80955096D02*
X166045959Y-80896775D01*
X165966291Y-80826129D01*
X165736309Y-80764506D01*
X165631991Y-80785853D01*
X165573670Y-80819525D01*
X165503024Y-80899193D01*
X165478375Y-80991186D01*
X165487397Y-81141500D01*
X165891458Y-81841354D01*
X165293504Y-81681133D01*
X163883998Y-100924405D02*
X163733684Y-100933427D01*
X163503702Y-100871803D01*
X163424034Y-100801158D01*
X163390362Y-100742836D01*
X163369015Y-100638519D01*
X163393664Y-100546526D01*
X163464310Y-100466858D01*
X163522631Y-100433186D01*
X163626949Y-100411839D01*
X163823259Y-100415141D01*
X163927577Y-100393794D01*
X163985898Y-100360122D01*
X164056544Y-100280454D01*
X164081194Y-100188461D01*
X164059847Y-100084144D01*
X164026175Y-100025822D01*
X163946507Y-99955176D01*
X163716524Y-99893553D01*
X163566210Y-99902575D01*
X163256560Y-99770306D02*
X162767758Y-100674608D01*
X162768643Y-99935362D01*
X162399787Y-100576010D01*
X162428623Y-99548461D01*
X161560410Y-99660916D02*
X161387864Y-100304866D01*
X161888990Y-99354568D02*
X161934102Y-100106138D01*
X161336148Y-99945917D01*
X161232715Y-99228018D02*
X160634761Y-99067797D01*
X160858139Y-99522042D01*
X160720149Y-99485068D01*
X160615831Y-99506415D01*
X160557510Y-99540086D01*
X160486864Y-99619755D01*
X160425241Y-99849737D01*
X160446588Y-99954055D01*
X160480260Y-100012376D01*
X160559928Y-100083022D01*
X160835907Y-100156970D01*
X160940224Y-100135623D01*
X160998545Y-100101951D01*
X173719122Y-64219224D02*
X173568808Y-64228246D01*
X173338826Y-64166622D01*
X173259158Y-64095977D01*
X173225486Y-64037655D01*
X173204139Y-63933338D01*
X173228788Y-63841345D01*
X173299434Y-63761677D01*
X173357755Y-63728005D01*
X173462073Y-63706658D01*
X173658383Y-63709960D01*
X173762701Y-63688613D01*
X173821022Y-63654941D01*
X173891668Y-63575273D01*
X173916318Y-63483280D01*
X173894971Y-63378963D01*
X173861299Y-63320641D01*
X173781631Y-63249995D01*
X173551648Y-63188372D01*
X173401334Y-63197394D01*
X173091684Y-63065125D02*
X172602882Y-63969427D01*
X172603767Y-63230181D01*
X172234911Y-63870829D01*
X172263747Y-62843280D01*
X171395534Y-62955735D02*
X171222988Y-63599685D01*
X171724114Y-62649387D02*
X171769226Y-63400957D01*
X171171272Y-63240736D01*
X170211066Y-63328542D02*
X170763024Y-63476438D01*
X170487045Y-63402490D02*
X170745864Y-62436564D01*
X170800883Y-62599203D01*
X170868226Y-62715845D01*
X170947894Y-62786491D01*
X247513410Y-162146726D02*
X247483221Y-162294253D01*
X247364174Y-162500450D01*
X247275315Y-162559119D01*
X247210266Y-162576549D01*
X247103978Y-162570169D01*
X247021500Y-162522550D01*
X246962831Y-162433692D01*
X246945401Y-162368643D01*
X246951781Y-162262355D01*
X247005779Y-162073588D01*
X247012159Y-161967300D01*
X246994729Y-161902251D01*
X246936060Y-161813393D01*
X246853582Y-161765773D01*
X246747293Y-161759394D01*
X246682245Y-161776824D01*
X246593386Y-161835493D01*
X246474339Y-162041689D01*
X246444149Y-162189217D01*
X246236243Y-162454082D02*
X246983221Y-163160279D01*
X246269394Y-162968093D01*
X246792745Y-163490193D01*
X245807672Y-163196390D01*
X245402910Y-163897458D02*
X245498148Y-163732501D01*
X245587007Y-163673832D01*
X245652055Y-163656402D01*
X245823392Y-163645352D01*
X246012159Y-163699351D01*
X246342074Y-163889827D01*
X246400743Y-163978685D01*
X246418172Y-164043734D01*
X246411793Y-164150022D01*
X246316555Y-164314979D01*
X246227696Y-164373648D01*
X246162647Y-164391078D01*
X246056359Y-164384698D01*
X245850163Y-164265651D01*
X245791494Y-164176792D01*
X245774064Y-164111744D01*
X245780444Y-164005455D01*
X245875682Y-163840498D01*
X245964540Y-163781829D01*
X246029589Y-163764399D01*
X246135877Y-163770779D01*
X245215395Y-164888911D02*
X245792745Y-165222244D01*
X245004528Y-164492238D02*
X245742165Y-164643184D01*
X245432641Y-165179295D01*
X231058928Y-152646726D02*
X231028739Y-152794253D01*
X230909692Y-153000450D01*
X230820833Y-153059119D01*
X230755784Y-153076549D01*
X230649496Y-153070169D01*
X230567018Y-153022550D01*
X230508349Y-152933692D01*
X230490919Y-152868643D01*
X230497299Y-152762355D01*
X230551297Y-152573588D01*
X230557677Y-152467300D01*
X230540247Y-152402251D01*
X230481578Y-152313393D01*
X230399100Y-152265773D01*
X230292811Y-152259394D01*
X230227763Y-152276824D01*
X230138904Y-152335493D01*
X230019857Y-152541689D01*
X229989667Y-152689217D01*
X229781761Y-152954082D02*
X230528739Y-153660279D01*
X229814912Y-153468093D01*
X230338263Y-153990193D01*
X229353190Y-153696390D01*
X228948428Y-154397458D02*
X229043666Y-154232501D01*
X229132525Y-154173832D01*
X229197573Y-154156402D01*
X229368910Y-154145352D01*
X229557677Y-154199351D01*
X229887592Y-154389827D01*
X229946261Y-154478685D01*
X229963690Y-154543734D01*
X229957311Y-154650022D01*
X229862073Y-154814979D01*
X229773214Y-154873648D01*
X229708165Y-154891078D01*
X229601877Y-154884698D01*
X229395681Y-154765651D01*
X229337012Y-154676792D01*
X229319582Y-154611744D01*
X229325962Y-154505455D01*
X229421200Y-154340498D01*
X229510058Y-154281829D01*
X229575107Y-154264399D01*
X229681395Y-154270779D01*
X228734142Y-154768612D02*
X228424619Y-155304723D01*
X228921200Y-155206524D01*
X228849771Y-155330242D01*
X228843391Y-155436530D01*
X228860821Y-155501578D01*
X228919490Y-155590437D01*
X229125687Y-155709484D01*
X229231975Y-155715864D01*
X229297024Y-155698434D01*
X229385882Y-155639765D01*
X229528739Y-155392330D01*
X229535119Y-155286041D01*
X229517689Y-155220993D01*
X246964296Y-132678754D02*
X246896952Y-132813441D01*
X246728594Y-132981800D01*
X246627578Y-133015471D01*
X246560235Y-133015471D01*
X246459220Y-132981800D01*
X246391876Y-132914456D01*
X246358204Y-132813441D01*
X246358204Y-132746097D01*
X246391876Y-132645082D01*
X246492891Y-132476723D01*
X246526563Y-132375708D01*
X246526563Y-132308365D01*
X246492891Y-132207349D01*
X246425548Y-132140006D01*
X246324533Y-132106334D01*
X246257189Y-132106334D01*
X246156174Y-132140006D01*
X245987815Y-132308365D01*
X245920472Y-132443052D01*
X245651098Y-132645082D02*
X246189846Y-133520548D01*
X245550082Y-133150158D01*
X245920472Y-133789922D01*
X245045006Y-133251174D01*
X244472586Y-133823593D02*
X244607273Y-133688906D01*
X244708289Y-133655235D01*
X244775632Y-133655235D01*
X244943991Y-133688906D01*
X245112350Y-133789922D01*
X245381724Y-134059296D01*
X245415395Y-134160311D01*
X245415395Y-134227654D01*
X245381724Y-134328670D01*
X245247037Y-134463357D01*
X245146021Y-134497028D01*
X245078678Y-134497028D01*
X244977663Y-134463357D01*
X244809304Y-134294998D01*
X244775632Y-134193983D01*
X244775632Y-134126639D01*
X244809304Y-134025624D01*
X244943991Y-133890937D01*
X245045006Y-133857265D01*
X245112350Y-133857265D01*
X245213365Y-133890937D01*
X244203212Y-134227654D02*
X244135869Y-134227654D01*
X244034854Y-134261326D01*
X243866495Y-134429685D01*
X243832823Y-134530700D01*
X243832823Y-134598044D01*
X243866495Y-134699059D01*
X243933838Y-134766402D01*
X244068525Y-134833746D01*
X244876647Y-134833746D01*
X244438915Y-135271479D01*
X260399325Y-146113783D02*
X260331981Y-146248470D01*
X260163623Y-146416829D01*
X260062607Y-146450500D01*
X259995264Y-146450500D01*
X259894249Y-146416829D01*
X259826905Y-146349485D01*
X259793233Y-146248470D01*
X259793233Y-146181126D01*
X259826905Y-146080111D01*
X259927920Y-145911752D01*
X259961592Y-145810737D01*
X259961592Y-145743394D01*
X259927920Y-145642378D01*
X259860577Y-145575035D01*
X259759562Y-145541363D01*
X259692218Y-145541363D01*
X259591203Y-145575035D01*
X259422844Y-145743394D01*
X259355501Y-145878081D01*
X259086127Y-146080111D02*
X259624875Y-146955577D01*
X258985111Y-146585187D01*
X259355501Y-147224951D01*
X258480035Y-146686203D01*
X257907615Y-147258622D02*
X258042302Y-147123935D01*
X258143318Y-147090264D01*
X258210661Y-147090264D01*
X258379020Y-147123935D01*
X258547379Y-147224951D01*
X258816753Y-147494325D01*
X258850424Y-147595340D01*
X258850424Y-147662683D01*
X258816753Y-147763699D01*
X258682066Y-147898386D01*
X258581050Y-147932057D01*
X258513707Y-147932057D01*
X258412692Y-147898386D01*
X258244333Y-147730027D01*
X258210661Y-147629012D01*
X258210661Y-147561668D01*
X258244333Y-147460653D01*
X258379020Y-147325966D01*
X258480035Y-147292294D01*
X258547379Y-147292294D01*
X258648394Y-147325966D01*
X257873944Y-148706508D02*
X258278005Y-148302447D01*
X258075974Y-148504477D02*
X257368867Y-147797370D01*
X257537226Y-147831042D01*
X257671913Y-147831042D01*
X257772928Y-147797370D01*
X276855924Y-133987146D02*
X276756016Y-134099814D01*
X276549819Y-134218861D01*
X276443531Y-134225241D01*
X276378482Y-134207811D01*
X276289624Y-134149142D01*
X276242005Y-134066663D01*
X276235625Y-133960375D01*
X276253055Y-133895326D01*
X276311724Y-133806468D01*
X276452872Y-133669991D01*
X276511541Y-133581132D01*
X276528970Y-133516084D01*
X276522591Y-133409795D01*
X276474972Y-133327317D01*
X276386113Y-133268648D01*
X276321064Y-133251218D01*
X276214776Y-133257598D01*
X276008580Y-133376645D01*
X275908671Y-133489313D01*
X275596187Y-133614741D02*
X275889990Y-134599814D01*
X275367890Y-134076462D01*
X275560076Y-134790290D01*
X274853879Y-134043312D01*
X274152811Y-134448074D02*
X274317768Y-134352836D01*
X274424056Y-134346456D01*
X274489105Y-134363886D01*
X274643012Y-134439985D01*
X274779490Y-134581132D01*
X274969966Y-134911047D01*
X274976346Y-135017335D01*
X274958916Y-135082384D01*
X274900247Y-135171242D01*
X274735290Y-135266480D01*
X274629002Y-135272860D01*
X274563953Y-135255430D01*
X274475094Y-135196761D01*
X274356047Y-134990565D01*
X274349667Y-134884276D01*
X274367097Y-134819228D01*
X274425766Y-134730369D01*
X274590723Y-134635131D01*
X274697011Y-134628751D01*
X274762060Y-134646181D01*
X274850918Y-134704850D01*
X273534222Y-134805217D02*
X273451743Y-134852836D01*
X273393074Y-134941694D01*
X273375644Y-135006743D01*
X273382024Y-135113031D01*
X273436023Y-135301798D01*
X273555070Y-135507994D01*
X273691548Y-135649142D01*
X273780406Y-135707811D01*
X273845455Y-135725241D01*
X273951743Y-135718861D01*
X274034222Y-135671242D01*
X274092891Y-135582384D01*
X274110320Y-135517335D01*
X274103941Y-135411047D01*
X274049942Y-135222280D01*
X273930894Y-135016084D01*
X273794417Y-134874936D01*
X273705558Y-134816267D01*
X273640510Y-134798837D01*
X273534222Y-134805217D01*
X295896845Y-126655050D02*
X295771181Y-126738021D01*
X295541198Y-126799644D01*
X295436881Y-126778297D01*
X295378560Y-126744626D01*
X295307914Y-126664957D01*
X295283264Y-126572965D01*
X295304611Y-126468647D01*
X295338283Y-126410326D01*
X295417951Y-126339680D01*
X295589612Y-126244384D01*
X295669281Y-126173739D01*
X295702952Y-126115417D01*
X295724299Y-126011100D01*
X295699650Y-125919107D01*
X295629004Y-125839439D01*
X295570683Y-125805767D01*
X295466365Y-125784420D01*
X295236383Y-125846043D01*
X295110718Y-125929014D01*
X294776418Y-125969291D02*
X294805255Y-126996840D01*
X294436398Y-126356192D01*
X294437283Y-127095438D01*
X293948482Y-126191135D01*
X293120545Y-126412980D02*
X293580510Y-126289733D01*
X293749754Y-126737373D01*
X293691432Y-126703701D01*
X293587115Y-126682354D01*
X293357132Y-126743978D01*
X293277464Y-126814624D01*
X293243792Y-126872945D01*
X293222445Y-126977263D01*
X293284069Y-127207245D01*
X293354715Y-127286913D01*
X293413036Y-127320585D01*
X293517354Y-127341932D01*
X293747336Y-127280308D01*
X293827004Y-127209662D01*
X293860676Y-127151341D01*
X292873403Y-127514478D02*
X292689417Y-127563777D01*
X292585100Y-127542430D01*
X292526778Y-127508758D01*
X292397811Y-127395418D01*
X292302516Y-127223757D01*
X292203918Y-126855785D01*
X292225265Y-126751468D01*
X292258937Y-126693146D01*
X292338605Y-126622500D01*
X292522591Y-126573202D01*
X292626909Y-126594549D01*
X292685230Y-126628220D01*
X292755876Y-126707889D01*
X292817500Y-126937871D01*
X292796153Y-127042189D01*
X292762481Y-127100510D01*
X292682813Y-127171156D01*
X292498827Y-127220455D01*
X292394509Y-127199108D01*
X292336188Y-127165436D01*
X292265542Y-127085768D01*
X314442620Y-121685725D02*
X314316956Y-121768696D01*
X314086973Y-121830319D01*
X313982656Y-121808972D01*
X313924335Y-121775301D01*
X313853689Y-121695632D01*
X313829039Y-121603640D01*
X313850386Y-121499322D01*
X313884058Y-121441001D01*
X313963726Y-121370355D01*
X314135387Y-121275059D01*
X314215056Y-121204414D01*
X314248727Y-121146092D01*
X314270074Y-121041775D01*
X314245425Y-120949782D01*
X314174779Y-120870114D01*
X314116458Y-120836442D01*
X314012140Y-120815095D01*
X313782158Y-120876718D01*
X313656493Y-120959689D01*
X313322193Y-120999966D02*
X313351030Y-122027515D01*
X312982173Y-121386867D01*
X312983058Y-122126113D01*
X312494257Y-121221810D01*
X311666320Y-121443655D02*
X312126285Y-121320408D01*
X312295529Y-121768048D01*
X312237207Y-121734376D01*
X312132890Y-121713029D01*
X311902907Y-121774653D01*
X311823239Y-121845299D01*
X311789567Y-121903620D01*
X311768220Y-122007938D01*
X311829844Y-122237920D01*
X311900490Y-122317588D01*
X311958811Y-122351260D01*
X312063129Y-122372607D01*
X312293111Y-122310983D01*
X312372779Y-122240337D01*
X312406451Y-122182016D01*
X311179289Y-122017845D02*
X311258957Y-121947199D01*
X311292629Y-121888878D01*
X311313976Y-121784560D01*
X311301651Y-121738564D01*
X311231005Y-121658895D01*
X311172684Y-121625224D01*
X311068366Y-121603877D01*
X310884380Y-121653175D01*
X310804712Y-121723821D01*
X310771040Y-121782143D01*
X310749693Y-121886460D01*
X310762018Y-121932457D01*
X310832664Y-122012125D01*
X310890985Y-122045797D01*
X310995303Y-122067144D01*
X311179289Y-122017845D01*
X311283606Y-122039192D01*
X311341928Y-122072864D01*
X311412573Y-122152532D01*
X311461872Y-122336518D01*
X311440525Y-122440835D01*
X311406853Y-122499157D01*
X311327185Y-122569802D01*
X311143199Y-122619101D01*
X311038882Y-122597754D01*
X310980561Y-122564083D01*
X310909915Y-122484414D01*
X310860616Y-122300428D01*
X310881963Y-122196111D01*
X310915635Y-122137790D01*
X310995303Y-122067144D01*
X188285206Y-155859935D02*
X188172538Y-155760027D01*
X188053491Y-155553830D01*
X188047111Y-155447542D01*
X188064541Y-155382493D01*
X188123210Y-155293635D01*
X188205689Y-155246016D01*
X188311977Y-155239636D01*
X188377026Y-155257066D01*
X188465884Y-155315735D01*
X188602361Y-155456883D01*
X188691220Y-155515552D01*
X188756268Y-155532981D01*
X188862557Y-155526602D01*
X188945035Y-155478983D01*
X189003704Y-155390124D01*
X189021134Y-155325075D01*
X189014754Y-155218787D01*
X188895707Y-155012591D01*
X188783039Y-154912682D01*
X188657611Y-154600198D02*
X187672538Y-154894001D01*
X188195890Y-154371901D01*
X187482062Y-154564087D01*
X188229040Y-153857890D01*
X187800469Y-153115583D02*
X188038564Y-153527976D01*
X187649980Y-153807310D01*
X187667410Y-153742262D01*
X187661030Y-153635973D01*
X187541983Y-153429777D01*
X187453124Y-153371108D01*
X187388076Y-153353678D01*
X187281787Y-153360058D01*
X187075591Y-153479105D01*
X187016922Y-153567964D01*
X186999492Y-153633013D01*
X187005872Y-153739301D01*
X187124919Y-153945497D01*
X187213778Y-154004166D01*
X187278827Y-154021596D01*
X187348088Y-152332036D02*
X187443326Y-152496993D01*
X187449705Y-152603281D01*
X187432276Y-152668330D01*
X187356177Y-152822237D01*
X187215029Y-152958715D01*
X186885115Y-153149191D01*
X186778827Y-153155571D01*
X186713778Y-153138141D01*
X186624919Y-153079472D01*
X186529681Y-152914515D01*
X186523302Y-152808226D01*
X186540731Y-152743178D01*
X186599400Y-152654319D01*
X186805597Y-152535272D01*
X186911885Y-152528892D01*
X186976934Y-152546322D01*
X187065792Y-152604991D01*
X187161030Y-152769948D01*
X187167410Y-152876236D01*
X187149980Y-152941285D01*
X187091311Y-153030143D01*
X171830723Y-165359936D02*
X171718055Y-165260028D01*
X171599008Y-165053831D01*
X171592628Y-164947543D01*
X171610058Y-164882494D01*
X171668727Y-164793636D01*
X171751206Y-164746017D01*
X171857494Y-164739637D01*
X171922543Y-164757067D01*
X172011401Y-164815736D01*
X172147878Y-164956884D01*
X172236737Y-165015553D01*
X172301785Y-165032982D01*
X172408074Y-165026603D01*
X172490552Y-164978984D01*
X172549221Y-164890125D01*
X172566651Y-164825076D01*
X172560271Y-164718788D01*
X172441224Y-164512592D01*
X172328556Y-164412683D01*
X172203128Y-164100199D02*
X171218055Y-164394002D01*
X171741407Y-163871902D01*
X171027579Y-164064088D01*
X171774557Y-163357891D01*
X171345986Y-162615584D02*
X171584081Y-163027977D01*
X171195497Y-163307311D01*
X171212927Y-163242263D01*
X171206547Y-163135974D01*
X171087500Y-162929778D01*
X170998641Y-162871109D01*
X170933593Y-162853679D01*
X170827304Y-162860059D01*
X170621108Y-162979106D01*
X170562439Y-163067965D01*
X170545009Y-163133014D01*
X170551389Y-163239302D01*
X170670436Y-163445498D01*
X170759295Y-163504167D01*
X170824344Y-163521597D01*
X170869795Y-161790798D02*
X171107890Y-162203191D01*
X170719307Y-162482525D01*
X170736737Y-162417476D01*
X170730357Y-162311188D01*
X170611309Y-162104992D01*
X170522451Y-162046323D01*
X170457402Y-162028893D01*
X170351114Y-162035273D01*
X170144917Y-162154320D01*
X170086248Y-162243179D01*
X170068819Y-162308227D01*
X170075198Y-162414516D01*
X170194246Y-162620712D01*
X170283104Y-162679381D01*
X170348153Y-162696811D01*
X173295561Y-135262358D02*
X173160874Y-135195014D01*
X172992515Y-135026656D01*
X172958844Y-134925640D01*
X172958844Y-134858297D01*
X172992515Y-134757282D01*
X173059859Y-134689938D01*
X173160874Y-134656266D01*
X173228218Y-134656266D01*
X173329233Y-134689938D01*
X173497592Y-134790953D01*
X173598607Y-134824625D01*
X173665950Y-134824625D01*
X173766966Y-134790953D01*
X173834309Y-134723610D01*
X173867981Y-134622595D01*
X173867981Y-134555251D01*
X173834309Y-134454236D01*
X173665950Y-134285877D01*
X173531263Y-134218534D01*
X173329233Y-133949160D02*
X172453767Y-134487908D01*
X172824157Y-133848144D01*
X172184393Y-134218534D01*
X172723141Y-133343068D01*
X172117050Y-132736977D02*
X172453767Y-133073694D01*
X172150722Y-133444083D01*
X172150722Y-133376740D01*
X172117050Y-133275725D01*
X171948691Y-133107366D01*
X171847676Y-133073694D01*
X171780332Y-133073694D01*
X171679317Y-133107366D01*
X171510958Y-133275725D01*
X171477287Y-133376740D01*
X171477287Y-133444083D01*
X171510958Y-133545099D01*
X171679317Y-133713457D01*
X171780332Y-133747129D01*
X171847676Y-133747129D01*
X171241584Y-132332916D02*
X170770180Y-132804320D01*
X171679317Y-132231900D02*
X171342600Y-132905335D01*
X170904867Y-132467603D01*
X159746812Y-148774312D02*
X159612125Y-148706968D01*
X159443766Y-148538610D01*
X159410095Y-148437594D01*
X159410095Y-148370251D01*
X159443766Y-148269236D01*
X159511110Y-148201892D01*
X159612125Y-148168220D01*
X159679469Y-148168220D01*
X159780484Y-148201892D01*
X159948843Y-148302907D01*
X160049858Y-148336579D01*
X160117201Y-148336579D01*
X160218217Y-148302907D01*
X160285560Y-148235564D01*
X160319232Y-148134549D01*
X160319232Y-148067205D01*
X160285560Y-147966190D01*
X160117201Y-147797831D01*
X159982514Y-147730488D01*
X159780484Y-147461114D02*
X158905018Y-147999862D01*
X159275408Y-147360098D01*
X158635644Y-147730488D01*
X159174392Y-146855022D01*
X158568301Y-146248931D02*
X158905018Y-146585648D01*
X158601973Y-146956037D01*
X158601973Y-146888694D01*
X158568301Y-146787679D01*
X158399942Y-146619320D01*
X158298927Y-146585648D01*
X158231583Y-146585648D01*
X158130568Y-146619320D01*
X157962209Y-146787679D01*
X157928538Y-146888694D01*
X157928538Y-146956037D01*
X157962209Y-147057053D01*
X158130568Y-147225411D01*
X158231583Y-147259083D01*
X158298927Y-147259083D01*
X158298927Y-145979557D02*
X157861194Y-145541824D01*
X157827522Y-146046900D01*
X157726507Y-145945885D01*
X157625492Y-145912213D01*
X157558148Y-145912213D01*
X157457133Y-145945885D01*
X157288774Y-146114244D01*
X157255103Y-146215259D01*
X157255103Y-146282602D01*
X157288774Y-146383618D01*
X157490805Y-146585648D01*
X157591820Y-146619320D01*
X157659164Y-146619320D01*
X143857712Y-135999930D02*
X143710185Y-135969741D01*
X143503988Y-135850694D01*
X143445319Y-135761835D01*
X143427889Y-135696786D01*
X143434269Y-135590498D01*
X143481888Y-135508020D01*
X143570746Y-135449351D01*
X143635795Y-135431921D01*
X143742083Y-135438301D01*
X143930850Y-135492299D01*
X144037138Y-135498679D01*
X144102187Y-135481249D01*
X144191045Y-135422580D01*
X144238665Y-135340102D01*
X144245044Y-135233813D01*
X144227614Y-135168765D01*
X144168945Y-135079906D01*
X143962749Y-134960859D01*
X143815221Y-134930669D01*
X143550356Y-134722763D02*
X142844159Y-135469741D01*
X143036345Y-134755914D01*
X142514245Y-135279265D01*
X142808048Y-134294192D01*
X142065741Y-133865621D02*
X142478134Y-134103716D01*
X142281278Y-134539918D01*
X142263848Y-134474870D01*
X142205179Y-134386011D01*
X141998983Y-134266964D01*
X141892694Y-134260584D01*
X141827646Y-134278014D01*
X141738787Y-134336683D01*
X141619740Y-134542879D01*
X141613360Y-134649167D01*
X141630790Y-134714216D01*
X141689459Y-134803075D01*
X141895655Y-134922122D01*
X142001943Y-134928502D01*
X142066992Y-134911072D01*
X141646968Y-133733813D02*
X141629538Y-133668765D01*
X141570869Y-133579906D01*
X141364673Y-133460859D01*
X141258385Y-133454479D01*
X141193336Y-133471909D01*
X141104477Y-133530578D01*
X141056858Y-133613056D01*
X141026669Y-133760584D01*
X141235826Y-134541170D01*
X140699715Y-134231646D01*
X125105775Y-127803754D02*
X124955461Y-127812776D01*
X124725479Y-127751152D01*
X124645811Y-127680507D01*
X124612139Y-127622185D01*
X124590792Y-127517868D01*
X124615441Y-127425875D01*
X124686087Y-127346207D01*
X124744408Y-127312535D01*
X124848726Y-127291188D01*
X125045036Y-127294490D01*
X125149354Y-127273143D01*
X125207675Y-127239471D01*
X125278321Y-127159803D01*
X125302971Y-127067810D01*
X125281624Y-126963493D01*
X125247952Y-126905171D01*
X125168284Y-126834525D01*
X124938301Y-126772902D01*
X124787987Y-126781924D01*
X124478337Y-126649655D02*
X123989535Y-127553957D01*
X123990420Y-126814711D01*
X123621564Y-127455359D01*
X123650400Y-126427810D01*
X122822464Y-126205965D02*
X123282428Y-126329212D01*
X123205178Y-126801501D01*
X123171506Y-126743180D01*
X123091838Y-126672534D01*
X122861855Y-126610911D01*
X122757538Y-126632258D01*
X122699217Y-126665930D01*
X122628571Y-126745598D01*
X122566947Y-126975580D01*
X122588294Y-127079898D01*
X122621966Y-127138219D01*
X122701634Y-127208865D01*
X122931616Y-127270488D01*
X123035934Y-127249141D01*
X123094255Y-127215470D01*
X121597719Y-126913072D02*
X122149677Y-127060968D01*
X121873698Y-126987020D02*
X122132517Y-126021094D01*
X122187536Y-126183733D01*
X122254879Y-126300375D01*
X122334547Y-126371021D01*
X106559999Y-122834429D02*
X106409685Y-122843451D01*
X106179703Y-122781827D01*
X106100035Y-122711182D01*
X106066363Y-122652860D01*
X106045016Y-122548543D01*
X106069665Y-122456550D01*
X106140311Y-122376882D01*
X106198632Y-122343210D01*
X106302950Y-122321863D01*
X106499260Y-122325165D01*
X106603578Y-122303818D01*
X106661899Y-122270146D01*
X106732545Y-122190478D01*
X106757195Y-122098485D01*
X106735848Y-121994168D01*
X106702176Y-121935846D01*
X106622508Y-121865200D01*
X106392525Y-121803577D01*
X106242211Y-121812599D01*
X105932561Y-121680330D02*
X105443759Y-122584632D01*
X105444644Y-121845386D01*
X105075788Y-122486034D01*
X105104624Y-121458485D01*
X104276688Y-121236640D02*
X104736652Y-121359887D01*
X104659402Y-121832176D01*
X104625730Y-121773855D01*
X104546062Y-121703209D01*
X104316079Y-121641586D01*
X104211762Y-121662933D01*
X104153441Y-121696605D01*
X104082795Y-121776273D01*
X104021171Y-122006255D01*
X104042518Y-122110573D01*
X104076190Y-122168894D01*
X104155858Y-122239540D01*
X104385840Y-122301163D01*
X104490158Y-122279816D01*
X104548479Y-122246145D01*
X103632737Y-121064094D02*
X103540744Y-121039444D01*
X103436427Y-121060792D01*
X103378105Y-121094463D01*
X103307460Y-121174131D01*
X103212164Y-121345793D01*
X103150541Y-121575775D01*
X103147238Y-121772086D01*
X103168585Y-121876403D01*
X103202257Y-121934724D01*
X103281925Y-122005370D01*
X103373918Y-122030020D01*
X103478236Y-122008673D01*
X103536557Y-121975001D01*
X103607203Y-121895333D01*
X103702498Y-121723672D01*
X103764122Y-121493689D01*
X103767424Y-121297379D01*
X103746077Y-121193061D01*
X103712405Y-121134740D01*
X103632737Y-121064094D01*
X262184540Y-118295595D02*
X262058876Y-118378566D01*
X261828893Y-118440189D01*
X261724576Y-118418842D01*
X261666255Y-118385171D01*
X261595609Y-118305502D01*
X261570959Y-118213510D01*
X261592306Y-118109192D01*
X261625978Y-118050871D01*
X261705646Y-117980225D01*
X261877307Y-117884929D01*
X261956976Y-117814284D01*
X261990647Y-117755962D01*
X262011994Y-117651645D01*
X261987345Y-117559652D01*
X261916699Y-117479984D01*
X261858378Y-117446312D01*
X261754060Y-117424965D01*
X261524078Y-117486588D01*
X261398413Y-117569559D01*
X261064113Y-117609836D02*
X261092950Y-118637385D01*
X260724093Y-117996737D01*
X260724978Y-118735983D01*
X260236177Y-117831680D01*
X259540510Y-118363176D02*
X259713056Y-119007126D01*
X259671894Y-117933581D02*
X260086747Y-118561904D01*
X259488793Y-118722125D01*
X258921209Y-118627715D02*
X259000877Y-118557069D01*
X259034549Y-118498748D01*
X259055896Y-118394430D01*
X259043571Y-118348434D01*
X258972925Y-118268765D01*
X258914604Y-118235094D01*
X258810286Y-118213747D01*
X258626300Y-118263045D01*
X258546632Y-118333691D01*
X258512960Y-118392013D01*
X258491613Y-118496330D01*
X258503938Y-118542327D01*
X258574584Y-118621995D01*
X258632905Y-118655667D01*
X258737223Y-118677014D01*
X258921209Y-118627715D01*
X259025526Y-118649062D01*
X259083848Y-118682734D01*
X259154493Y-118762402D01*
X259203792Y-118946388D01*
X259182445Y-119050705D01*
X259148773Y-119109027D01*
X259069105Y-119179672D01*
X258885119Y-119228971D01*
X258780802Y-119207624D01*
X258722481Y-119173953D01*
X258651835Y-119094284D01*
X258602536Y-118910298D01*
X258623883Y-118805981D01*
X258657555Y-118747660D01*
X258737223Y-118677014D01*
X257266978Y-99943005D02*
X257141314Y-100025976D01*
X256911331Y-100087599D01*
X256807014Y-100066252D01*
X256748693Y-100032581D01*
X256678047Y-99952912D01*
X256653397Y-99860920D01*
X256674744Y-99756602D01*
X256708416Y-99698281D01*
X256788084Y-99627635D01*
X256959745Y-99532339D01*
X257039414Y-99461694D01*
X257073085Y-99403372D01*
X257094432Y-99299055D01*
X257069783Y-99207062D01*
X256999137Y-99127394D01*
X256940816Y-99093722D01*
X256836498Y-99072375D01*
X256606516Y-99133998D01*
X256480851Y-99216969D01*
X256146551Y-99257246D02*
X256175388Y-100284795D01*
X255806531Y-99644147D01*
X255807416Y-100383393D01*
X255318615Y-99479090D01*
X254622948Y-100010586D02*
X254795494Y-100654536D01*
X254754332Y-99580991D02*
X255169185Y-100209314D01*
X254571231Y-100369535D01*
X254122707Y-99799533D02*
X253478756Y-99972079D01*
X254151543Y-100827082D01*
X252397712Y-81577473D02*
X252272048Y-81660444D01*
X252042065Y-81722067D01*
X251937748Y-81700720D01*
X251879427Y-81667049D01*
X251808781Y-81587380D01*
X251784131Y-81495388D01*
X251805478Y-81391070D01*
X251839150Y-81332749D01*
X251918818Y-81262103D01*
X252090479Y-81166807D01*
X252170148Y-81096162D01*
X252203819Y-81037840D01*
X252225166Y-80933523D01*
X252200517Y-80841530D01*
X252129871Y-80761862D01*
X252071550Y-80728190D01*
X251967232Y-80706843D01*
X251737250Y-80768466D01*
X251611585Y-80851437D01*
X251277285Y-80891714D02*
X251306122Y-81919263D01*
X250937265Y-81278615D01*
X250938150Y-82017861D01*
X250449349Y-81113558D01*
X249753682Y-81645054D02*
X249926228Y-82289004D01*
X249885066Y-81215459D02*
X250299919Y-81843782D01*
X249701965Y-82004003D01*
X248747479Y-81569573D02*
X248931465Y-81520274D01*
X249035783Y-81541621D01*
X249094104Y-81575293D01*
X249223071Y-81688633D01*
X249318367Y-81860294D01*
X249416964Y-82228266D01*
X249395617Y-82332583D01*
X249361945Y-82390905D01*
X249282277Y-82461550D01*
X249098291Y-82510849D01*
X248993974Y-82489502D01*
X248935653Y-82455831D01*
X248865007Y-82376162D01*
X248803383Y-82146180D01*
X248824730Y-82041862D01*
X248858402Y-81983541D01*
X248938070Y-81912895D01*
X249122056Y-81863596D01*
X249226374Y-81884943D01*
X249284695Y-81918615D01*
X249355341Y-81998283D01*
X247480150Y-63224882D02*
X247354486Y-63307853D01*
X247124503Y-63369476D01*
X247020186Y-63348129D01*
X246961865Y-63314458D01*
X246891219Y-63234789D01*
X246866569Y-63142797D01*
X246887916Y-63038479D01*
X246921588Y-62980158D01*
X247001256Y-62909512D01*
X247172917Y-62814216D01*
X247252586Y-62743571D01*
X247286257Y-62685249D01*
X247307604Y-62580932D01*
X247282955Y-62488939D01*
X247212309Y-62409271D01*
X247153988Y-62375599D01*
X247049670Y-62354252D01*
X246819688Y-62415875D01*
X246694023Y-62498846D01*
X246359723Y-62539123D02*
X246388560Y-63566672D01*
X246019703Y-62926024D01*
X246020588Y-63665270D01*
X245531787Y-62760967D01*
X244836120Y-63292463D02*
X245008666Y-63936413D01*
X244967504Y-62862868D02*
X245382357Y-63491191D01*
X244784403Y-63651412D01*
X243783921Y-63229307D02*
X244243886Y-63106059D01*
X244413129Y-63553699D01*
X244354808Y-63520028D01*
X244250490Y-63498681D01*
X244020508Y-63560304D01*
X243940840Y-63630950D01*
X243907168Y-63689271D01*
X243885821Y-63793589D01*
X243947445Y-64023571D01*
X244018091Y-64103240D01*
X244076412Y-64136911D01*
X244180729Y-64158258D01*
X244410712Y-64096635D01*
X244490380Y-64025989D01*
X244524052Y-63967668D01*
X279967728Y-111252997D02*
X279842064Y-111335968D01*
X279612081Y-111397591D01*
X279507764Y-111376244D01*
X279449443Y-111342573D01*
X279378797Y-111262904D01*
X279354147Y-111170912D01*
X279375494Y-111066594D01*
X279409166Y-111008273D01*
X279488834Y-110937627D01*
X279660495Y-110842331D01*
X279740164Y-110771686D01*
X279773835Y-110713364D01*
X279795182Y-110609047D01*
X279770533Y-110517054D01*
X279699887Y-110437386D01*
X279641566Y-110403714D01*
X279537248Y-110382367D01*
X279307266Y-110443990D01*
X279181601Y-110526961D01*
X278847301Y-110567238D02*
X278876138Y-111594787D01*
X278507281Y-110954139D01*
X278508166Y-111693385D01*
X278019365Y-110789082D01*
X277323698Y-111320578D02*
X277496244Y-111964528D01*
X277455082Y-110890983D02*
X277869935Y-111519306D01*
X277271981Y-111679527D01*
X276547478Y-111183473D02*
X276455485Y-111208123D01*
X276375817Y-111278769D01*
X276342145Y-111337090D01*
X276320798Y-111441407D01*
X276324100Y-111637718D01*
X276385724Y-111867700D01*
X276481019Y-112039362D01*
X276551665Y-112119030D01*
X276609986Y-112152702D01*
X276714304Y-112174049D01*
X276806297Y-112149399D01*
X276885965Y-112078753D01*
X276919637Y-112020432D01*
X276940984Y-111916114D01*
X276937681Y-111719804D01*
X276876058Y-111489821D01*
X276780762Y-111318160D01*
X276710117Y-111238492D01*
X276651795Y-111204820D01*
X276547478Y-111183473D01*
X275050166Y-92900406D02*
X274924502Y-92983377D01*
X274694519Y-93045000D01*
X274590202Y-93023653D01*
X274531881Y-92989982D01*
X274461235Y-92910313D01*
X274436585Y-92818321D01*
X274457932Y-92714003D01*
X274491604Y-92655682D01*
X274571272Y-92585036D01*
X274742933Y-92489740D01*
X274822602Y-92419095D01*
X274856273Y-92360773D01*
X274877620Y-92256456D01*
X274852971Y-92164463D01*
X274782325Y-92084795D01*
X274724004Y-92051123D01*
X274619686Y-92029776D01*
X274389704Y-92091399D01*
X274264039Y-92174370D01*
X273929739Y-92214647D02*
X273958576Y-93242196D01*
X273589719Y-92601548D01*
X273590604Y-93340794D01*
X273101803Y-92436491D01*
X272825824Y-92510440D02*
X272227870Y-92670661D01*
X272648443Y-92952360D01*
X272510453Y-92989334D01*
X272430785Y-93059980D01*
X272397113Y-93118301D01*
X272375766Y-93222619D01*
X272437390Y-93452601D01*
X272508036Y-93532269D01*
X272566357Y-93565941D01*
X272670675Y-93587288D01*
X272946654Y-93513340D01*
X273026322Y-93442694D01*
X273059994Y-93384373D01*
X272026724Y-93759834D02*
X271842738Y-93809133D01*
X271738421Y-93787786D01*
X271680099Y-93754114D01*
X271551132Y-93640774D01*
X271455837Y-93469113D01*
X271357239Y-93101141D01*
X271378586Y-92996824D01*
X271412258Y-92938502D01*
X271491926Y-92867856D01*
X271675912Y-92818558D01*
X271780230Y-92839905D01*
X271838551Y-92873576D01*
X271909197Y-92953245D01*
X271970821Y-93183227D01*
X271949474Y-93287545D01*
X271915802Y-93345866D01*
X271836134Y-93416512D01*
X271652148Y-93465811D01*
X271547830Y-93444464D01*
X271489509Y-93410792D01*
X271418863Y-93331124D01*
X270132605Y-74547815D02*
X270006941Y-74630786D01*
X269776958Y-74692409D01*
X269672641Y-74671062D01*
X269614320Y-74637391D01*
X269543674Y-74557722D01*
X269519024Y-74465730D01*
X269540371Y-74361412D01*
X269574043Y-74303091D01*
X269653711Y-74232445D01*
X269825372Y-74137149D01*
X269905041Y-74066504D01*
X269938712Y-74008182D01*
X269960059Y-73903865D01*
X269935410Y-73811872D01*
X269864764Y-73732204D01*
X269806443Y-73698532D01*
X269702125Y-73677185D01*
X269472143Y-73738808D01*
X269346478Y-73821779D01*
X269012178Y-73862056D02*
X269041015Y-74889605D01*
X268672158Y-74248957D01*
X268673043Y-74988203D01*
X268184242Y-74083900D01*
X267908263Y-74157849D02*
X267310309Y-74318070D01*
X267730882Y-74599769D01*
X267592892Y-74636743D01*
X267513224Y-74707389D01*
X267479552Y-74765710D01*
X267458205Y-74870028D01*
X267519829Y-75100010D01*
X267590475Y-75179678D01*
X267648796Y-75213350D01*
X267753114Y-75234697D01*
X268029093Y-75160749D01*
X268108761Y-75090103D01*
X268142433Y-75031782D01*
X266869274Y-74879935D02*
X266948942Y-74809289D01*
X266982614Y-74750968D01*
X267003961Y-74646650D01*
X266991636Y-74600654D01*
X266920990Y-74520985D01*
X266862669Y-74487314D01*
X266758351Y-74465967D01*
X266574365Y-74515265D01*
X266494697Y-74585911D01*
X266461025Y-74644233D01*
X266439678Y-74748550D01*
X266452003Y-74794547D01*
X266522649Y-74874215D01*
X266580970Y-74907887D01*
X266685288Y-74929234D01*
X266869274Y-74879935D01*
X266973591Y-74901282D01*
X267031913Y-74934954D01*
X267102558Y-75014622D01*
X267151857Y-75198608D01*
X267130510Y-75302925D01*
X267096838Y-75361247D01*
X267017170Y-75431892D01*
X266833184Y-75481191D01*
X266728867Y-75459844D01*
X266670546Y-75426173D01*
X266599900Y-75346504D01*
X266550601Y-75162518D01*
X266571948Y-75058201D01*
X266605620Y-74999880D01*
X266685288Y-74929234D01*
X265215043Y-56195225D02*
X265089379Y-56278196D01*
X264859396Y-56339819D01*
X264755079Y-56318472D01*
X264696758Y-56284801D01*
X264626112Y-56205132D01*
X264601462Y-56113140D01*
X264622809Y-56008822D01*
X264656481Y-55950501D01*
X264736149Y-55879855D01*
X264907810Y-55784559D01*
X264987479Y-55713914D01*
X265021150Y-55655592D01*
X265042497Y-55551275D01*
X265017848Y-55459282D01*
X264947202Y-55379614D01*
X264888881Y-55345942D01*
X264784563Y-55324595D01*
X264554581Y-55386218D01*
X264428916Y-55469189D01*
X264094616Y-55509466D02*
X264123453Y-56537015D01*
X263754596Y-55896367D01*
X263755481Y-56635613D01*
X263266680Y-55731310D01*
X262990701Y-55805259D02*
X262392747Y-55965480D01*
X262813320Y-56247179D01*
X262675330Y-56284153D01*
X262595662Y-56354799D01*
X262561990Y-56413120D01*
X262540643Y-56517438D01*
X262602267Y-56747420D01*
X262672913Y-56827088D01*
X262731234Y-56860760D01*
X262835552Y-56882107D01*
X263111531Y-56808159D01*
X263191199Y-56737513D01*
X263224871Y-56679192D01*
X262070772Y-56051753D02*
X261426821Y-56224299D01*
X262099608Y-57079302D01*
X141183248Y-112234397D02*
X141032934Y-112243419D01*
X140802952Y-112181795D01*
X140723284Y-112111150D01*
X140689612Y-112052828D01*
X140668265Y-111948511D01*
X140692914Y-111856518D01*
X140763560Y-111776850D01*
X140821881Y-111743178D01*
X140926199Y-111721831D01*
X141122509Y-111725133D01*
X141226827Y-111703786D01*
X141285148Y-111670114D01*
X141355794Y-111590446D01*
X141380444Y-111498453D01*
X141359097Y-111394136D01*
X141325425Y-111335814D01*
X141245757Y-111265168D01*
X141015774Y-111203545D01*
X140865460Y-111212567D01*
X140555810Y-111080298D02*
X140067008Y-111984600D01*
X140067893Y-111245354D01*
X139699037Y-111886002D01*
X139727873Y-110858453D01*
X139451894Y-110784505D02*
X138853940Y-110624283D01*
X139077318Y-111078528D01*
X138939328Y-111041554D01*
X138835011Y-111062901D01*
X138776690Y-111096573D01*
X138706044Y-111176241D01*
X138644420Y-111406223D01*
X138665767Y-111510541D01*
X138699439Y-111568862D01*
X138779107Y-111639508D01*
X139055086Y-111713456D01*
X139159404Y-111692109D01*
X139217725Y-111658437D01*
X138026004Y-110402438D02*
X138209990Y-110451737D01*
X138289658Y-110522383D01*
X138323330Y-110580704D01*
X138378349Y-110743343D01*
X138375046Y-110939654D01*
X138276448Y-111307625D01*
X138205802Y-111387294D01*
X138147481Y-111420965D01*
X138043164Y-111442312D01*
X137859178Y-111393014D01*
X137779510Y-111322368D01*
X137745838Y-111264047D01*
X137724491Y-111159729D01*
X137786114Y-110929747D01*
X137856760Y-110850078D01*
X137915081Y-110816407D01*
X138019399Y-110795060D01*
X138203385Y-110844358D01*
X138283053Y-110915004D01*
X138316725Y-110973325D01*
X138338072Y-111077643D01*
X146100809Y-93881807D02*
X145950495Y-93890829D01*
X145720513Y-93829205D01*
X145640845Y-93758560D01*
X145607173Y-93700238D01*
X145585826Y-93595921D01*
X145610475Y-93503928D01*
X145681121Y-93424260D01*
X145739442Y-93390588D01*
X145843760Y-93369241D01*
X146040070Y-93372543D01*
X146144388Y-93351196D01*
X146202709Y-93317524D01*
X146273355Y-93237856D01*
X146298005Y-93145863D01*
X146276658Y-93041546D01*
X146242986Y-92983224D01*
X146163318Y-92912578D01*
X145933335Y-92850955D01*
X145783021Y-92859977D01*
X145473371Y-92727708D02*
X144984569Y-93632010D01*
X144985454Y-92892764D01*
X144616598Y-93533412D01*
X144645434Y-92505863D01*
X144369455Y-92431915D02*
X143771501Y-92271693D01*
X143994879Y-92725938D01*
X143856889Y-92688964D01*
X143752572Y-92710311D01*
X143694251Y-92743983D01*
X143623605Y-92823651D01*
X143561981Y-93053633D01*
X143583328Y-93157951D01*
X143617000Y-93216272D01*
X143696668Y-93286918D01*
X143972647Y-93360866D01*
X144076965Y-93339519D01*
X144135286Y-93305847D01*
X142897568Y-92037524D02*
X143357533Y-92160771D01*
X143280282Y-92633060D01*
X143246611Y-92574739D01*
X143166942Y-92504093D01*
X142936960Y-92442470D01*
X142832642Y-92463817D01*
X142774321Y-92497488D01*
X142703675Y-92577157D01*
X142642052Y-92807139D01*
X142663399Y-92911457D01*
X142697071Y-92969778D01*
X142776739Y-93040424D01*
X143006721Y-93102047D01*
X143111039Y-93080700D01*
X143169360Y-93047028D01*
X151018371Y-75529216D02*
X150868057Y-75538238D01*
X150638075Y-75476614D01*
X150558407Y-75405969D01*
X150524735Y-75347647D01*
X150503388Y-75243330D01*
X150528037Y-75151337D01*
X150598683Y-75071669D01*
X150657004Y-75037997D01*
X150761322Y-75016650D01*
X150957632Y-75019952D01*
X151061950Y-74998605D01*
X151120271Y-74964933D01*
X151190917Y-74885265D01*
X151215567Y-74793272D01*
X151194220Y-74688955D01*
X151160548Y-74630633D01*
X151080880Y-74559987D01*
X150850897Y-74498364D01*
X150700583Y-74507386D01*
X150390933Y-74375117D02*
X149902131Y-75279419D01*
X149903016Y-74540173D01*
X149534160Y-75180821D01*
X149562996Y-74153272D01*
X149287017Y-74079324D02*
X148689063Y-73919102D01*
X148912441Y-74373347D01*
X148774451Y-74336373D01*
X148670134Y-74357720D01*
X148611813Y-74391392D01*
X148541167Y-74471060D01*
X148479543Y-74701042D01*
X148500890Y-74805360D01*
X148534562Y-74863681D01*
X148614230Y-74934327D01*
X148890209Y-75008275D01*
X148994527Y-74986928D01*
X149052848Y-74953256D01*
X147774854Y-74019233D02*
X147602308Y-74663183D01*
X148103434Y-73712884D02*
X148148546Y-74464455D01*
X147550591Y-74304234D01*
X155935933Y-57176625D02*
X155785619Y-57185647D01*
X155555637Y-57124023D01*
X155475969Y-57053378D01*
X155442297Y-56995056D01*
X155420950Y-56890739D01*
X155445599Y-56798746D01*
X155516245Y-56719078D01*
X155574566Y-56685406D01*
X155678884Y-56664059D01*
X155875194Y-56667361D01*
X155979512Y-56646014D01*
X156037833Y-56612342D01*
X156108479Y-56532674D01*
X156133129Y-56440681D01*
X156111782Y-56336364D01*
X156078110Y-56278042D01*
X155998442Y-56207396D01*
X155768459Y-56145773D01*
X155618145Y-56154795D01*
X155308495Y-56022526D02*
X154819693Y-56926828D01*
X154820578Y-56187582D01*
X154451722Y-56828230D01*
X154480558Y-55800681D01*
X154204579Y-55726733D02*
X153606625Y-55566511D01*
X153830003Y-56020756D01*
X153692013Y-55983782D01*
X153587696Y-56005129D01*
X153529375Y-56038801D01*
X153458729Y-56118469D01*
X153397105Y-56348451D01*
X153418452Y-56452769D01*
X153452124Y-56511090D01*
X153531792Y-56581736D01*
X153807771Y-56655684D01*
X153912089Y-56634337D01*
X153970410Y-56600665D01*
X153284650Y-55480238D02*
X152686696Y-55320017D01*
X152910074Y-55774262D01*
X152772084Y-55737288D01*
X152667766Y-55758635D01*
X152609445Y-55792306D01*
X152538799Y-55871975D01*
X152477176Y-56101957D01*
X152498523Y-56206275D01*
X152532195Y-56264596D01*
X152611863Y-56335242D01*
X152887842Y-56409190D01*
X152992159Y-56387843D01*
X153050480Y-56354171D01*
X297322937Y-101840412D02*
X297197273Y-101923383D01*
X296967290Y-101985006D01*
X296862973Y-101963659D01*
X296804652Y-101929988D01*
X296734006Y-101850319D01*
X296709356Y-101758327D01*
X296730703Y-101654009D01*
X296764375Y-101595688D01*
X296844043Y-101525042D01*
X297015704Y-101429746D01*
X297095373Y-101359101D01*
X297129044Y-101300779D01*
X297150391Y-101196462D01*
X297125742Y-101104469D01*
X297055096Y-101024801D01*
X296996775Y-100991129D01*
X296892457Y-100969782D01*
X296662475Y-101031405D01*
X296536810Y-101114376D01*
X296202510Y-101154653D02*
X296231347Y-102182202D01*
X295862490Y-101541554D01*
X295863375Y-102280800D01*
X295374574Y-101376497D01*
X295098595Y-101450446D02*
X294500641Y-101610667D01*
X294921214Y-101892366D01*
X294783224Y-101929340D01*
X294703556Y-101999986D01*
X294669884Y-102058307D01*
X294648537Y-102162625D01*
X294710161Y-102392607D01*
X294780807Y-102472275D01*
X294839128Y-102505947D01*
X294943446Y-102527294D01*
X295219425Y-102453346D01*
X295299093Y-102382700D01*
X295332765Y-102324379D01*
X294157319Y-101801258D02*
X294098997Y-101767586D01*
X293994680Y-101746239D01*
X293764697Y-101807862D01*
X293685029Y-101878508D01*
X293651357Y-101936830D01*
X293630010Y-102041147D01*
X293654660Y-102133140D01*
X293737630Y-102258805D01*
X294437485Y-102662866D01*
X293839531Y-102823087D01*
X292405375Y-83487821D02*
X292279711Y-83570792D01*
X292049728Y-83632415D01*
X291945411Y-83611068D01*
X291887090Y-83577397D01*
X291816444Y-83497728D01*
X291791794Y-83405736D01*
X291813141Y-83301418D01*
X291846813Y-83243097D01*
X291926481Y-83172451D01*
X292098142Y-83077155D01*
X292177811Y-83006510D01*
X292211482Y-82948188D01*
X292232829Y-82843871D01*
X292208180Y-82751878D01*
X292137534Y-82672210D01*
X292079213Y-82638538D01*
X291974895Y-82617191D01*
X291744913Y-82678814D01*
X291619248Y-82761785D01*
X291284948Y-82802062D02*
X291313785Y-83829611D01*
X290944928Y-83188963D01*
X290945813Y-83928209D01*
X290457012Y-83023906D01*
X290181033Y-83097855D02*
X289583079Y-83258076D01*
X290003652Y-83539775D01*
X289865662Y-83576749D01*
X289785994Y-83647395D01*
X289752322Y-83705716D01*
X289730975Y-83810034D01*
X289792599Y-84040016D01*
X289863245Y-84119684D01*
X289921566Y-84153356D01*
X290025884Y-84174703D01*
X290301863Y-84100755D01*
X290381531Y-84030109D01*
X290415203Y-83971788D01*
X288921969Y-84470496D02*
X289473926Y-84322600D01*
X289197947Y-84396548D02*
X288939128Y-83430622D01*
X289068095Y-83543962D01*
X289184738Y-83611306D01*
X289289055Y-83632653D01*
X287487813Y-65135231D02*
X287362149Y-65218202D01*
X287132166Y-65279825D01*
X287027849Y-65258478D01*
X286969528Y-65224807D01*
X286898882Y-65145138D01*
X286874232Y-65053146D01*
X286895579Y-64948828D01*
X286929251Y-64890507D01*
X287008919Y-64819861D01*
X287180580Y-64724565D01*
X287260249Y-64653920D01*
X287293920Y-64595598D01*
X287315267Y-64491281D01*
X287290618Y-64399288D01*
X287219972Y-64319620D01*
X287161651Y-64285948D01*
X287057333Y-64264601D01*
X286827351Y-64326224D01*
X286701686Y-64409195D01*
X286367386Y-64449472D02*
X286396223Y-65477021D01*
X286027366Y-64836373D01*
X286028251Y-65575619D01*
X285539450Y-64671316D01*
X285263471Y-64745265D02*
X284665517Y-64905486D01*
X285086090Y-65187185D01*
X284948100Y-65224159D01*
X284868432Y-65294805D01*
X284834760Y-65353126D01*
X284813413Y-65457444D01*
X284875037Y-65687426D01*
X284945683Y-65767094D01*
X285004004Y-65800766D01*
X285108322Y-65822113D01*
X285384301Y-65748165D01*
X285463969Y-65677519D01*
X285497641Y-65619198D01*
X284067563Y-65065707D02*
X283975570Y-65090357D01*
X283895902Y-65161003D01*
X283862230Y-65219324D01*
X283840883Y-65323641D01*
X283844185Y-65519952D01*
X283905809Y-65749934D01*
X284001104Y-65921596D01*
X284071750Y-66001264D01*
X284130071Y-66034936D01*
X284234389Y-66056283D01*
X284326382Y-66031633D01*
X284406050Y-65960987D01*
X284439722Y-65902666D01*
X284461069Y-65798348D01*
X284457766Y-65602038D01*
X284396143Y-65372055D01*
X284300847Y-65200394D01*
X284230202Y-65120726D01*
X284171880Y-65087054D01*
X284067563Y-65065707D01*
X282570251Y-46782640D02*
X282444587Y-46865611D01*
X282214604Y-46927234D01*
X282110287Y-46905887D01*
X282051966Y-46872216D01*
X281981320Y-46792547D01*
X281956670Y-46700555D01*
X281978017Y-46596237D01*
X282011689Y-46537916D01*
X282091357Y-46467270D01*
X282263018Y-46371974D01*
X282342687Y-46301329D01*
X282376358Y-46243007D01*
X282397705Y-46138690D01*
X282373056Y-46046697D01*
X282302410Y-45967029D01*
X282244089Y-45933357D01*
X282139771Y-45912010D01*
X281909789Y-45973633D01*
X281784124Y-46056604D01*
X281449824Y-46096881D02*
X281478661Y-47124430D01*
X281109804Y-46483782D01*
X281110689Y-47223028D01*
X280621888Y-46318725D01*
X280324562Y-46496991D02*
X280266241Y-46463320D01*
X280161923Y-46441973D01*
X279931941Y-46503596D01*
X279852272Y-46574242D01*
X279818601Y-46632563D01*
X279797254Y-46736881D01*
X279821903Y-46828874D01*
X279904874Y-46954539D01*
X280604728Y-47358600D01*
X280006774Y-47518821D01*
X279546809Y-47642068D02*
X279362823Y-47691367D01*
X279258506Y-47670020D01*
X279200184Y-47636348D01*
X279071217Y-47523008D01*
X278975922Y-47351347D01*
X278877324Y-46983375D01*
X278898671Y-46879058D01*
X278932343Y-46820736D01*
X279012011Y-46750090D01*
X279195997Y-46700792D01*
X279300315Y-46722139D01*
X279358636Y-46755810D01*
X279429282Y-46835479D01*
X279490906Y-47065461D01*
X279469559Y-47169779D01*
X279435887Y-47228100D01*
X279356219Y-47298746D01*
X279172233Y-47348045D01*
X279067915Y-47326698D01*
X279009594Y-47293026D01*
X278938948Y-47213358D01*
X123828039Y-102821813D02*
X123677725Y-102830835D01*
X123447743Y-102769211D01*
X123368075Y-102698566D01*
X123334403Y-102640244D01*
X123313056Y-102535927D01*
X123337705Y-102443934D01*
X123408351Y-102364266D01*
X123466672Y-102330594D01*
X123570990Y-102309247D01*
X123767300Y-102312549D01*
X123871618Y-102291202D01*
X123929939Y-102257530D01*
X124000585Y-102177862D01*
X124025235Y-102085869D01*
X124003888Y-101981552D01*
X123970216Y-101923230D01*
X123890548Y-101852584D01*
X123660565Y-101790961D01*
X123510251Y-101799983D01*
X123200601Y-101667714D02*
X122711799Y-102572016D01*
X122712684Y-101832770D01*
X122343828Y-102473418D01*
X122372664Y-101445869D01*
X122026039Y-101451589D02*
X121992368Y-101393268D01*
X121912700Y-101322622D01*
X121682717Y-101260998D01*
X121578400Y-101282345D01*
X121520078Y-101316017D01*
X121449432Y-101395685D01*
X121424783Y-101487678D01*
X121433805Y-101637992D01*
X121837866Y-102337846D01*
X121239912Y-102177625D01*
X120835851Y-101477771D02*
X120940169Y-101456424D01*
X120998490Y-101422752D01*
X121069136Y-101343084D01*
X121081461Y-101297087D01*
X121060114Y-101192770D01*
X121026442Y-101134449D01*
X120946774Y-101063803D01*
X120762788Y-101014504D01*
X120658470Y-101035851D01*
X120600149Y-101069523D01*
X120529503Y-101149191D01*
X120517178Y-101195187D01*
X120538525Y-101299505D01*
X120572197Y-101357826D01*
X120651865Y-101428472D01*
X120835851Y-101477771D01*
X120915519Y-101548417D01*
X120949191Y-101606738D01*
X120970538Y-101711056D01*
X120921239Y-101895041D01*
X120850593Y-101974710D01*
X120792272Y-102008381D01*
X120687955Y-102029728D01*
X120503969Y-101980430D01*
X120424301Y-101909784D01*
X120390629Y-101851463D01*
X120369282Y-101747145D01*
X120418581Y-101563159D01*
X120489227Y-101483491D01*
X120547548Y-101449819D01*
X120651865Y-101428472D01*
X128745601Y-84469222D02*
X128595287Y-84478244D01*
X128365305Y-84416620D01*
X128285637Y-84345975D01*
X128251965Y-84287653D01*
X128230618Y-84183336D01*
X128255267Y-84091343D01*
X128325913Y-84011675D01*
X128384234Y-83978003D01*
X128488552Y-83956656D01*
X128684862Y-83959958D01*
X128789180Y-83938611D01*
X128847501Y-83904939D01*
X128918147Y-83825271D01*
X128942797Y-83733278D01*
X128921450Y-83628961D01*
X128887778Y-83570639D01*
X128808110Y-83499993D01*
X128578127Y-83438370D01*
X128427813Y-83447392D01*
X128118163Y-83315123D02*
X127629361Y-84219425D01*
X127630246Y-83480179D01*
X127261390Y-84120827D01*
X127290226Y-83093278D01*
X126943601Y-83098998D02*
X126909930Y-83040677D01*
X126830262Y-82970031D01*
X126600279Y-82908407D01*
X126495962Y-82929754D01*
X126437640Y-82963426D01*
X126366994Y-83043094D01*
X126342345Y-83135087D01*
X126351367Y-83285401D01*
X126755428Y-83985255D01*
X126157474Y-83825034D01*
X126094318Y-82772835D02*
X125450367Y-82600289D01*
X125605517Y-83677137D01*
X133663163Y-66116632D02*
X133512849Y-66125654D01*
X133282867Y-66064030D01*
X133203199Y-65993385D01*
X133169527Y-65935063D01*
X133148180Y-65830746D01*
X133172829Y-65738753D01*
X133243475Y-65659085D01*
X133301796Y-65625413D01*
X133406114Y-65604066D01*
X133602424Y-65607368D01*
X133706742Y-65586021D01*
X133765063Y-65552349D01*
X133835709Y-65472681D01*
X133860359Y-65380688D01*
X133839012Y-65276371D01*
X133805340Y-65218049D01*
X133725672Y-65147403D01*
X133495689Y-65085780D01*
X133345375Y-65094802D01*
X133035725Y-64962533D02*
X132546923Y-65866835D01*
X132547808Y-65127589D01*
X132178952Y-65768237D01*
X132207788Y-64740688D01*
X131861163Y-64746408D02*
X131827492Y-64688087D01*
X131747824Y-64617441D01*
X131517841Y-64555817D01*
X131413524Y-64577164D01*
X131355202Y-64610836D01*
X131284556Y-64690504D01*
X131259907Y-64782497D01*
X131268929Y-64932811D01*
X131672990Y-65632665D01*
X131075036Y-65472444D01*
X130505919Y-64284673D02*
X130689905Y-64333972D01*
X130769573Y-64404618D01*
X130803245Y-64462939D01*
X130858264Y-64625578D01*
X130854961Y-64821889D01*
X130756363Y-65189860D01*
X130685717Y-65269529D01*
X130627396Y-65303200D01*
X130523079Y-65324547D01*
X130339093Y-65275249D01*
X130259425Y-65204603D01*
X130225753Y-65146282D01*
X130204406Y-65041964D01*
X130266029Y-64811982D01*
X130336675Y-64732313D01*
X130394996Y-64698642D01*
X130499314Y-64677295D01*
X130683300Y-64726593D01*
X130762968Y-64797239D01*
X130796640Y-64855560D01*
X130817987Y-64959878D01*
X138580725Y-47764041D02*
X138430411Y-47773063D01*
X138200429Y-47711439D01*
X138120761Y-47640794D01*
X138087089Y-47582472D01*
X138065742Y-47478155D01*
X138090391Y-47386162D01*
X138161037Y-47306494D01*
X138219358Y-47272822D01*
X138323676Y-47251475D01*
X138519986Y-47254777D01*
X138624304Y-47233430D01*
X138682625Y-47199758D01*
X138753271Y-47120090D01*
X138777921Y-47028097D01*
X138756574Y-46923780D01*
X138722902Y-46865458D01*
X138643234Y-46794812D01*
X138413251Y-46733189D01*
X138262937Y-46742211D01*
X137953287Y-46609942D02*
X137464485Y-47514244D01*
X137465370Y-46774998D01*
X137096514Y-47415646D01*
X137125350Y-46388097D01*
X136778725Y-46393817D02*
X136745054Y-46335496D01*
X136665386Y-46264850D01*
X136435403Y-46203226D01*
X136331086Y-46224573D01*
X136272764Y-46258245D01*
X136202118Y-46337913D01*
X136177469Y-46429906D01*
X136186491Y-46580220D01*
X136590552Y-47280074D01*
X135992598Y-47119853D01*
X135377484Y-45919758D02*
X135837449Y-46043005D01*
X135760198Y-46515294D01*
X135726527Y-46456973D01*
X135646858Y-46386327D01*
X135416876Y-46324704D01*
X135312558Y-46346051D01*
X135254237Y-46379722D01*
X135183591Y-46459391D01*
X135121968Y-46689373D01*
X135143315Y-46793691D01*
X135176987Y-46852012D01*
X135256655Y-46922658D01*
X135486637Y-46984281D01*
X135590955Y-46962934D01*
X135649276Y-46929262D01*
X316866095Y-101366109D02*
X316740431Y-101449080D01*
X316510448Y-101510703D01*
X316406131Y-101489356D01*
X316347810Y-101455685D01*
X316277164Y-101376016D01*
X316252514Y-101284024D01*
X316273861Y-101179706D01*
X316307533Y-101121385D01*
X316387201Y-101050739D01*
X316558862Y-100955443D01*
X316638531Y-100884798D01*
X316672202Y-100826476D01*
X316693549Y-100722159D01*
X316668900Y-100630166D01*
X316598254Y-100550498D01*
X316539933Y-100516826D01*
X316435615Y-100495479D01*
X316205633Y-100557102D01*
X316079968Y-100640073D01*
X315745668Y-100680350D02*
X315774505Y-101707899D01*
X315405648Y-101067251D01*
X315406533Y-101806497D01*
X314917732Y-100902194D01*
X314620406Y-101080460D02*
X314562085Y-101046789D01*
X314457767Y-101025442D01*
X314227785Y-101087065D01*
X314148116Y-101157711D01*
X314114445Y-101216032D01*
X314093098Y-101320350D01*
X314117747Y-101412343D01*
X314200718Y-101538008D01*
X314900572Y-101942069D01*
X314302618Y-102102290D01*
X313302135Y-101680184D02*
X313474681Y-102324135D01*
X313433520Y-101250589D02*
X313848373Y-101878912D01*
X313250419Y-102039134D01*
X311948533Y-83013518D02*
X311822869Y-83096489D01*
X311592886Y-83158112D01*
X311488569Y-83136765D01*
X311430248Y-83103094D01*
X311359602Y-83023425D01*
X311334952Y-82931433D01*
X311356299Y-82827115D01*
X311389971Y-82768794D01*
X311469639Y-82698148D01*
X311641300Y-82602852D01*
X311720969Y-82532207D01*
X311754640Y-82473885D01*
X311775987Y-82369568D01*
X311751338Y-82277575D01*
X311680692Y-82197907D01*
X311622371Y-82164235D01*
X311518053Y-82142888D01*
X311288071Y-82204511D01*
X311162406Y-82287482D01*
X310828106Y-82327759D02*
X310856943Y-83355308D01*
X310488086Y-82714660D01*
X310488971Y-83453906D01*
X310000170Y-82549603D01*
X309702844Y-82727869D02*
X309644523Y-82694198D01*
X309540205Y-82672851D01*
X309310223Y-82734474D01*
X309230554Y-82805120D01*
X309196883Y-82863441D01*
X309175536Y-82967759D01*
X309200185Y-83059752D01*
X309283156Y-83185417D01*
X309983010Y-83589478D01*
X309385056Y-83749699D01*
X308804262Y-82870046D02*
X308206307Y-83030267D01*
X308626880Y-83311966D01*
X308488891Y-83348940D01*
X308409223Y-83419586D01*
X308375551Y-83477907D01*
X308354204Y-83582225D01*
X308415828Y-83812207D01*
X308486474Y-83891876D01*
X308544795Y-83925547D01*
X308649112Y-83946894D01*
X308925091Y-83872946D01*
X309004759Y-83802300D01*
X309038431Y-83743979D01*
X307030971Y-64660928D02*
X306905307Y-64743899D01*
X306675324Y-64805522D01*
X306571007Y-64784175D01*
X306512686Y-64750504D01*
X306442040Y-64670835D01*
X306417390Y-64578843D01*
X306438737Y-64474525D01*
X306472409Y-64416204D01*
X306552077Y-64345558D01*
X306723738Y-64250262D01*
X306803407Y-64179617D01*
X306837078Y-64121295D01*
X306858425Y-64016978D01*
X306833776Y-63924985D01*
X306763130Y-63845317D01*
X306704809Y-63811645D01*
X306600491Y-63790298D01*
X306370509Y-63851921D01*
X306244844Y-63934892D01*
X305910544Y-63975169D02*
X305939381Y-65002718D01*
X305570524Y-64362070D01*
X305571409Y-65101316D01*
X305082608Y-64197013D01*
X304785282Y-64375279D02*
X304726961Y-64341608D01*
X304622643Y-64320261D01*
X304392661Y-64381884D01*
X304312992Y-64452530D01*
X304279321Y-64510851D01*
X304257974Y-64615169D01*
X304282623Y-64707162D01*
X304365594Y-64832827D01*
X305065448Y-65236888D01*
X304467494Y-65397109D01*
X303865353Y-64621774D02*
X303807031Y-64588102D01*
X303702714Y-64566755D01*
X303472731Y-64628378D01*
X303393063Y-64699024D01*
X303359391Y-64757346D01*
X303338044Y-64861663D01*
X303362694Y-64953656D01*
X303445664Y-65079321D01*
X304145519Y-65483382D01*
X303547565Y-65643603D01*
X302113409Y-46308337D02*
X301987745Y-46391308D01*
X301757762Y-46452931D01*
X301653445Y-46431584D01*
X301595124Y-46397913D01*
X301524478Y-46318244D01*
X301499828Y-46226252D01*
X301521175Y-46121934D01*
X301554847Y-46063613D01*
X301634515Y-45992967D01*
X301806176Y-45897671D01*
X301885845Y-45827026D01*
X301919516Y-45768704D01*
X301940863Y-45664387D01*
X301916214Y-45572394D01*
X301845568Y-45492726D01*
X301787247Y-45459054D01*
X301682929Y-45437707D01*
X301452947Y-45499330D01*
X301327282Y-45582301D01*
X300992982Y-45622578D02*
X301021819Y-46650127D01*
X300652962Y-46009479D01*
X300653847Y-46748725D01*
X300165046Y-45844422D01*
X299867720Y-46022688D02*
X299809399Y-45989017D01*
X299705081Y-45967670D01*
X299475099Y-46029293D01*
X299395430Y-46099939D01*
X299361759Y-46158260D01*
X299340412Y-46262578D01*
X299365061Y-46354571D01*
X299448032Y-46480236D01*
X300147886Y-46884297D01*
X299549932Y-47044518D01*
X298630003Y-47291012D02*
X299181960Y-47143116D01*
X298905981Y-47217064D02*
X298647162Y-46251138D01*
X298776129Y-46364478D01*
X298892772Y-46431822D01*
X298997089Y-46453169D01*
X104284881Y-102347510D02*
X104134567Y-102356532D01*
X103904585Y-102294908D01*
X103824917Y-102224263D01*
X103791245Y-102165941D01*
X103769898Y-102061624D01*
X103794547Y-101969631D01*
X103865193Y-101889963D01*
X103923514Y-101856291D01*
X104027832Y-101834944D01*
X104224142Y-101838246D01*
X104328460Y-101816899D01*
X104386781Y-101783227D01*
X104457427Y-101703559D01*
X104482077Y-101611566D01*
X104460730Y-101507249D01*
X104427058Y-101448927D01*
X104347390Y-101378281D01*
X104117407Y-101316658D01*
X103967093Y-101325680D01*
X103657443Y-101193411D02*
X103168641Y-102097713D01*
X103169526Y-101358467D01*
X102800670Y-101999115D01*
X102829506Y-100971566D01*
X102482881Y-100977286D02*
X102449210Y-100918965D01*
X102369542Y-100848319D01*
X102139559Y-100786695D01*
X102035242Y-100808042D01*
X101976920Y-100841714D01*
X101906274Y-100921382D01*
X101881625Y-101013375D01*
X101890647Y-101163689D01*
X102294708Y-101863543D01*
X101696754Y-101703322D01*
X101357619Y-100577175D02*
X101265626Y-100552525D01*
X101161309Y-100573873D01*
X101102987Y-100607544D01*
X101032342Y-100687212D01*
X100937046Y-100858874D01*
X100875423Y-101088856D01*
X100872120Y-101285167D01*
X100893467Y-101389484D01*
X100927139Y-101447805D01*
X101006807Y-101518451D01*
X101098800Y-101543101D01*
X101203118Y-101521754D01*
X101261439Y-101488082D01*
X101332085Y-101408414D01*
X101427380Y-101236753D01*
X101489004Y-101006770D01*
X101492306Y-100810460D01*
X101470959Y-100706142D01*
X101437287Y-100647821D01*
X101357619Y-100577175D01*
X109202443Y-83994919D02*
X109052129Y-84003941D01*
X108822147Y-83942317D01*
X108742479Y-83871672D01*
X108708807Y-83813350D01*
X108687460Y-83709033D01*
X108712109Y-83617040D01*
X108782755Y-83537372D01*
X108841076Y-83503700D01*
X108945394Y-83482353D01*
X109141704Y-83485655D01*
X109246022Y-83464308D01*
X109304343Y-83430636D01*
X109374989Y-83350968D01*
X109399639Y-83258975D01*
X109378292Y-83154658D01*
X109344620Y-83096336D01*
X109264952Y-83025690D01*
X109034969Y-82964067D01*
X108884655Y-82973089D01*
X108575005Y-82840820D02*
X108086203Y-83745122D01*
X108087088Y-83005876D01*
X107718232Y-83646524D01*
X107747068Y-82618975D01*
X106614316Y-83350731D02*
X107166274Y-83498628D01*
X106890295Y-83424679D02*
X107149114Y-82458754D01*
X107204133Y-82621392D01*
X107271476Y-82738035D01*
X107351145Y-82808681D01*
X106154352Y-83227484D02*
X105970366Y-83178185D01*
X105890698Y-83107539D01*
X105857026Y-83049218D01*
X105802007Y-82886579D01*
X105805309Y-82690269D01*
X105903907Y-82322297D01*
X105974553Y-82242629D01*
X106032874Y-82208957D01*
X106137192Y-82187610D01*
X106321178Y-82236909D01*
X106400846Y-82307555D01*
X106434518Y-82365876D01*
X106455865Y-82470193D01*
X106394241Y-82700176D01*
X106323595Y-82779844D01*
X106265274Y-82813516D01*
X106160956Y-82834863D01*
X105976971Y-82785564D01*
X105897302Y-82714918D01*
X105863631Y-82656597D01*
X105842284Y-82552279D01*
X114120005Y-65642329D02*
X113969691Y-65651351D01*
X113739709Y-65589727D01*
X113660041Y-65519082D01*
X113626369Y-65460760D01*
X113605022Y-65356443D01*
X113629671Y-65264450D01*
X113700317Y-65184782D01*
X113758638Y-65151110D01*
X113862956Y-65129763D01*
X114059266Y-65133065D01*
X114163584Y-65111718D01*
X114221905Y-65078046D01*
X114292551Y-64998378D01*
X114317201Y-64906385D01*
X114295854Y-64802068D01*
X114262182Y-64743746D01*
X114182514Y-64673100D01*
X113952531Y-64611477D01*
X113802217Y-64620499D01*
X113492567Y-64488230D02*
X113003765Y-65392532D01*
X113004650Y-64653286D01*
X112635794Y-65293934D01*
X112664630Y-64266385D01*
X111531878Y-64998141D02*
X112083836Y-65146038D01*
X111807857Y-65072089D02*
X112066676Y-64106164D01*
X112121695Y-64268802D01*
X112189038Y-64385445D01*
X112268707Y-64456091D01*
X111127817Y-64298287D02*
X111232135Y-64276940D01*
X111290456Y-64243268D01*
X111361102Y-64163600D01*
X111373427Y-64117603D01*
X111352080Y-64013286D01*
X111318408Y-63954965D01*
X111238740Y-63884319D01*
X111054754Y-63835020D01*
X110950436Y-63856367D01*
X110892115Y-63890039D01*
X110821469Y-63969707D01*
X110809144Y-64015703D01*
X110830491Y-64120021D01*
X110864163Y-64178342D01*
X110943831Y-64248988D01*
X111127817Y-64298287D01*
X111207485Y-64368933D01*
X111241157Y-64427254D01*
X111262504Y-64531572D01*
X111213205Y-64715557D01*
X111142559Y-64795226D01*
X111084238Y-64828897D01*
X110979921Y-64850244D01*
X110795935Y-64800946D01*
X110716267Y-64730300D01*
X110682595Y-64671979D01*
X110661248Y-64567661D01*
X110710547Y-64383675D01*
X110781193Y-64304007D01*
X110839514Y-64270335D01*
X110943831Y-64248988D01*
X336823364Y-102437287D02*
X336697700Y-102520258D01*
X336467717Y-102581881D01*
X336363400Y-102560534D01*
X336305079Y-102526863D01*
X336234433Y-102447194D01*
X336209783Y-102355202D01*
X336231130Y-102250884D01*
X336264802Y-102192563D01*
X336344470Y-102121917D01*
X336516131Y-102026621D01*
X336595800Y-101955976D01*
X336629471Y-101897654D01*
X336650818Y-101793337D01*
X336626169Y-101701344D01*
X336555523Y-101621676D01*
X336497202Y-101588004D01*
X336392884Y-101566657D01*
X336162902Y-101628280D01*
X336037237Y-101711251D01*
X335702937Y-101751528D02*
X335731774Y-102779077D01*
X335362917Y-102138429D01*
X335363802Y-102877675D01*
X334875001Y-101973372D01*
X334259887Y-103173468D02*
X334811844Y-103025571D01*
X334535866Y-103099520D02*
X334277047Y-102133594D01*
X334406014Y-102246934D01*
X334522656Y-102314277D01*
X334626974Y-102335624D01*
X333173131Y-102429387D02*
X333357117Y-102380088D01*
X333461435Y-102401435D01*
X333519756Y-102435107D01*
X333648723Y-102548447D01*
X333744019Y-102720108D01*
X333842616Y-103088080D01*
X333821269Y-103192397D01*
X333787597Y-103250719D01*
X333707929Y-103321364D01*
X333523943Y-103370663D01*
X333419626Y-103349316D01*
X333361305Y-103315645D01*
X333290659Y-103235976D01*
X333229035Y-103005994D01*
X333250382Y-102901676D01*
X333284054Y-102843355D01*
X333363722Y-102772709D01*
X333547708Y-102723410D01*
X333652026Y-102744757D01*
X333710347Y-102778429D01*
X333780993Y-102858097D01*
X331905802Y-84084697D02*
X331780138Y-84167668D01*
X331550155Y-84229291D01*
X331445838Y-84207944D01*
X331387517Y-84174273D01*
X331316871Y-84094604D01*
X331292221Y-84002612D01*
X331313568Y-83898294D01*
X331347240Y-83839973D01*
X331426908Y-83769327D01*
X331598569Y-83674031D01*
X331678238Y-83603386D01*
X331711909Y-83545064D01*
X331733256Y-83440747D01*
X331708607Y-83348754D01*
X331637961Y-83269086D01*
X331579640Y-83235414D01*
X331475322Y-83214067D01*
X331245340Y-83275690D01*
X331119675Y-83358661D01*
X330785375Y-83398938D02*
X330814212Y-84426487D01*
X330445355Y-83785839D01*
X330446240Y-84525085D01*
X329957439Y-83620782D01*
X329342325Y-84820878D02*
X329894282Y-84672981D01*
X329618304Y-84746930D02*
X329359485Y-83781004D01*
X329488452Y-83894344D01*
X329605094Y-83961687D01*
X329709412Y-83983034D01*
X328209573Y-84089122D02*
X328669538Y-83965874D01*
X328838781Y-84413514D01*
X328780460Y-84379843D01*
X328676142Y-84358496D01*
X328446160Y-84420119D01*
X328366492Y-84490765D01*
X328332820Y-84549086D01*
X328311473Y-84653404D01*
X328373097Y-84883386D01*
X328443743Y-84963055D01*
X328502064Y-84996726D01*
X328606381Y-85018073D01*
X328836364Y-84956450D01*
X328916032Y-84885804D01*
X328949704Y-84827483D01*
X326988240Y-65732106D02*
X326862576Y-65815077D01*
X326632593Y-65876700D01*
X326528276Y-65855353D01*
X326469955Y-65821682D01*
X326399309Y-65742013D01*
X326374659Y-65650021D01*
X326396006Y-65545703D01*
X326429678Y-65487382D01*
X326509346Y-65416736D01*
X326681007Y-65321440D01*
X326760676Y-65250795D01*
X326794347Y-65192473D01*
X326815694Y-65088156D01*
X326791045Y-64996163D01*
X326720399Y-64916495D01*
X326662078Y-64882823D01*
X326557760Y-64861476D01*
X326327778Y-64923099D01*
X326202113Y-65006070D01*
X325867813Y-65046347D02*
X325896650Y-66073896D01*
X325527793Y-65433248D01*
X325528678Y-66172494D01*
X325039877Y-65268191D01*
X324424763Y-66468287D02*
X324976720Y-66320390D01*
X324700742Y-66394339D02*
X324441923Y-65428413D01*
X324570890Y-65541753D01*
X324687532Y-65609096D01*
X324791850Y-65630443D01*
X323424280Y-66046181D02*
X323596826Y-66690132D01*
X323555665Y-65616586D02*
X323970518Y-66244909D01*
X323372564Y-66405131D01*
X322070678Y-47379515D02*
X321945014Y-47462486D01*
X321715031Y-47524109D01*
X321610714Y-47502762D01*
X321552393Y-47469091D01*
X321481747Y-47389422D01*
X321457097Y-47297430D01*
X321478444Y-47193112D01*
X321512116Y-47134791D01*
X321591784Y-47064145D01*
X321763445Y-46968849D01*
X321843114Y-46898204D01*
X321876785Y-46839882D01*
X321898132Y-46735565D01*
X321873483Y-46643572D01*
X321802837Y-46563904D01*
X321744516Y-46530232D01*
X321640198Y-46508885D01*
X321410216Y-46570508D01*
X321284551Y-46653479D01*
X320950251Y-46693756D02*
X320979088Y-47721305D01*
X320610231Y-47080657D01*
X320611116Y-47819903D01*
X320122315Y-46915600D01*
X319507201Y-48115696D02*
X320059158Y-47967799D01*
X319783180Y-48041748D02*
X319524361Y-47075822D01*
X319653328Y-47189162D01*
X319769970Y-47256505D01*
X319874288Y-47277852D01*
X318926407Y-47236043D02*
X318328452Y-47396264D01*
X318749025Y-47677963D01*
X318611036Y-47714937D01*
X318531368Y-47785583D01*
X318497696Y-47843904D01*
X318476349Y-47948222D01*
X318537973Y-48178204D01*
X318608619Y-48257873D01*
X318666940Y-48291544D01*
X318771257Y-48312891D01*
X319047236Y-48238943D01*
X319126904Y-48168297D01*
X319160576Y-48109976D01*
X84327612Y-103418688D02*
X84177298Y-103427710D01*
X83947316Y-103366086D01*
X83867648Y-103295441D01*
X83833976Y-103237119D01*
X83812629Y-103132802D01*
X83837278Y-103040809D01*
X83907924Y-102961141D01*
X83966245Y-102927469D01*
X84070563Y-102906122D01*
X84266873Y-102909424D01*
X84371191Y-102888077D01*
X84429512Y-102854405D01*
X84500158Y-102774737D01*
X84524808Y-102682744D01*
X84503461Y-102578427D01*
X84469789Y-102520105D01*
X84390121Y-102449459D01*
X84160138Y-102387836D01*
X84009824Y-102396858D01*
X83700174Y-102264589D02*
X83211372Y-103168891D01*
X83212257Y-102429645D01*
X82843401Y-103070293D01*
X82872237Y-102042744D01*
X81739485Y-102774500D02*
X82291443Y-102922397D01*
X82015464Y-102848448D02*
X82274283Y-101882523D01*
X82329302Y-102045161D01*
X82396645Y-102161804D01*
X82476314Y-102232450D01*
X81605683Y-101801969D02*
X81572011Y-101743648D01*
X81492343Y-101673002D01*
X81262361Y-101611379D01*
X81158043Y-101632726D01*
X81099722Y-101666398D01*
X81029076Y-101746066D01*
X81004427Y-101838059D01*
X81013449Y-101988373D01*
X81417510Y-102688227D01*
X80819556Y-102528006D01*
X89245174Y-85066097D02*
X89094860Y-85075119D01*
X88864878Y-85013495D01*
X88785210Y-84942850D01*
X88751538Y-84884528D01*
X88730191Y-84780211D01*
X88754840Y-84688218D01*
X88825486Y-84608550D01*
X88883807Y-84574878D01*
X88988125Y-84553531D01*
X89184435Y-84556833D01*
X89288753Y-84535486D01*
X89347074Y-84501814D01*
X89417720Y-84422146D01*
X89442370Y-84330153D01*
X89421023Y-84225836D01*
X89387351Y-84167514D01*
X89307683Y-84096868D01*
X89077700Y-84035245D01*
X88927386Y-84044267D01*
X88617736Y-83911998D02*
X88128934Y-84816300D01*
X88129819Y-84077054D01*
X87760963Y-84717702D01*
X87789799Y-83690153D01*
X86657047Y-84421909D02*
X87209005Y-84569806D01*
X86933026Y-84495857D02*
X87191845Y-83529932D01*
X87246864Y-83692570D01*
X87314207Y-83809213D01*
X87393876Y-83879859D01*
X85737118Y-84175415D02*
X86289076Y-84323311D01*
X86013097Y-84249363D02*
X86271916Y-83283437D01*
X86326935Y-83446076D01*
X86394278Y-83562718D01*
X86473946Y-83633364D01*
X94162736Y-66713507D02*
X94012422Y-66722529D01*
X93782440Y-66660905D01*
X93702772Y-66590260D01*
X93669100Y-66531938D01*
X93647753Y-66427621D01*
X93672402Y-66335628D01*
X93743048Y-66255960D01*
X93801369Y-66222288D01*
X93905687Y-66200941D01*
X94101997Y-66204243D01*
X94206315Y-66182896D01*
X94264636Y-66149224D01*
X94335282Y-66069556D01*
X94359932Y-65977563D01*
X94338585Y-65873246D01*
X94304913Y-65814924D01*
X94225245Y-65744278D01*
X93995262Y-65682655D01*
X93844948Y-65691677D01*
X93535298Y-65559408D02*
X93046496Y-66463710D01*
X93047381Y-65724464D01*
X92678525Y-66365112D01*
X92707361Y-65337563D01*
X91574609Y-66069319D02*
X92126567Y-66217216D01*
X91850588Y-66143267D02*
X92109407Y-65177342D01*
X92164426Y-65339980D01*
X92231769Y-65456623D01*
X92311438Y-65527269D01*
X91235474Y-64943172D02*
X91143481Y-64918522D01*
X91039164Y-64939870D01*
X90980842Y-64973541D01*
X90910197Y-65053209D01*
X90814901Y-65224871D01*
X90753278Y-65454853D01*
X90749975Y-65651164D01*
X90771322Y-65755481D01*
X90804994Y-65813802D01*
X90884662Y-65884448D01*
X90976655Y-65909098D01*
X91080973Y-65887751D01*
X91139294Y-65854079D01*
X91209940Y-65774411D01*
X91305235Y-65602750D01*
X91366859Y-65372767D01*
X91370161Y-65176457D01*
X91348814Y-65072139D01*
X91315142Y-65013818D01*
X91235474Y-64943172D01*
X98620334Y-48237669D02*
X98470019Y-48246691D01*
X98240037Y-48185067D01*
X98160369Y-48114421D01*
X98126697Y-48056100D01*
X98105350Y-47951783D01*
X98129999Y-47859790D01*
X98200645Y-47780121D01*
X98258967Y-47746450D01*
X98363284Y-47725103D01*
X98559595Y-47728405D01*
X98663912Y-47707058D01*
X98722234Y-47673386D01*
X98792880Y-47593718D01*
X98817529Y-47501725D01*
X98796182Y-47397407D01*
X98762510Y-47339086D01*
X98682842Y-47268440D01*
X98452860Y-47206817D01*
X98302546Y-47215839D01*
X97992895Y-47083570D02*
X97504094Y-47987872D01*
X97504978Y-47248626D01*
X97136122Y-47889274D01*
X97164959Y-46861725D01*
X96492171Y-47716728D02*
X96308185Y-47667429D01*
X96228517Y-47596783D01*
X96194845Y-47538462D01*
X96139827Y-47375823D01*
X96143129Y-47179513D01*
X96241727Y-46811541D01*
X96312373Y-46731873D01*
X96370694Y-46698201D01*
X96475012Y-46676854D01*
X96658997Y-46726153D01*
X96738666Y-46796799D01*
X96772337Y-46855120D01*
X96793684Y-46959438D01*
X96732061Y-47189420D01*
X96661415Y-47269088D01*
X96603094Y-47302760D01*
X96498776Y-47324107D01*
X96314790Y-47274808D01*
X96235122Y-47204162D01*
X96201450Y-47145841D01*
X96180103Y-47041523D01*
X355375050Y-99329875D02*
X355249385Y-99412846D01*
X355019403Y-99474470D01*
X354915085Y-99453123D01*
X354856764Y-99419451D01*
X354786118Y-99339783D01*
X354761468Y-99247790D01*
X354782816Y-99143472D01*
X354816487Y-99085151D01*
X354896156Y-99014505D01*
X355067817Y-98919210D01*
X355147485Y-98848564D01*
X355181157Y-98790243D01*
X355202504Y-98685925D01*
X355177854Y-98593932D01*
X355107208Y-98514264D01*
X355048887Y-98480592D01*
X354944569Y-98459245D01*
X354714587Y-98520869D01*
X354588922Y-98603839D01*
X354254622Y-98644116D02*
X354283459Y-99671665D01*
X353914603Y-99031017D01*
X353915487Y-99770263D01*
X353426686Y-98865961D01*
X353031647Y-99415501D02*
X353111316Y-99344855D01*
X353144987Y-99286534D01*
X353166334Y-99182216D01*
X353154010Y-99136219D01*
X353083364Y-99056551D01*
X353025043Y-99022879D01*
X352920725Y-99001532D01*
X352736739Y-99050831D01*
X352657071Y-99121477D01*
X352623399Y-99179798D01*
X352602052Y-99284116D01*
X352614377Y-99330113D01*
X352685023Y-99409781D01*
X352743344Y-99443452D01*
X352847661Y-99464800D01*
X353031647Y-99415501D01*
X353135965Y-99436848D01*
X353194286Y-99470519D01*
X353264932Y-99550188D01*
X353314231Y-99734174D01*
X353292884Y-99838491D01*
X353259212Y-99896812D01*
X353179544Y-99967458D01*
X352995558Y-100016757D01*
X352891240Y-99995410D01*
X352832919Y-99961738D01*
X352762273Y-99882070D01*
X352712974Y-99698084D01*
X352734322Y-99593767D01*
X352767993Y-99535445D01*
X352847661Y-99464800D01*
X350457488Y-80977285D02*
X350331823Y-81060256D01*
X350101841Y-81121880D01*
X349997523Y-81100533D01*
X349939202Y-81066861D01*
X349868556Y-80987193D01*
X349843906Y-80895200D01*
X349865254Y-80790882D01*
X349898925Y-80732561D01*
X349978594Y-80661915D01*
X350150255Y-80566620D01*
X350229923Y-80495974D01*
X350263595Y-80437653D01*
X350284942Y-80333335D01*
X350260292Y-80241342D01*
X350189646Y-80161674D01*
X350131325Y-80128002D01*
X350027007Y-80106655D01*
X349797025Y-80168279D01*
X349671360Y-80251249D01*
X349337060Y-80291526D02*
X349365897Y-81319075D01*
X348997041Y-80678427D01*
X348997925Y-81417673D01*
X348509124Y-80513371D01*
X348233145Y-80587319D02*
X347589195Y-80759865D01*
X348261982Y-81614868D01*
X345539926Y-62624694D02*
X345414261Y-62707665D01*
X345184279Y-62769289D01*
X345079961Y-62747942D01*
X345021640Y-62714270D01*
X344950994Y-62634602D01*
X344926344Y-62542609D01*
X344947692Y-62438291D01*
X344981363Y-62379970D01*
X345061032Y-62309324D01*
X345232693Y-62214029D01*
X345312361Y-62143383D01*
X345346033Y-62085062D01*
X345367380Y-61980744D01*
X345342730Y-61888751D01*
X345272084Y-61809083D01*
X345213763Y-61775411D01*
X345109445Y-61754064D01*
X344879463Y-61815688D01*
X344753798Y-61898658D01*
X344419498Y-61938935D02*
X344448335Y-62966484D01*
X344079479Y-62325836D01*
X344080363Y-63065082D01*
X343591562Y-62160780D01*
X342809622Y-62370300D02*
X342993608Y-62321001D01*
X343097926Y-62342348D01*
X343156247Y-62376020D01*
X343285214Y-62489360D01*
X343380509Y-62661021D01*
X343479107Y-63028993D01*
X343457760Y-63133310D01*
X343424088Y-63191631D01*
X343344420Y-63262277D01*
X343160434Y-63311576D01*
X343056116Y-63290229D01*
X342997795Y-63256557D01*
X342927149Y-63176889D01*
X342865526Y-62946907D01*
X342886873Y-62842589D01*
X342920545Y-62784268D01*
X343000213Y-62713622D01*
X343184199Y-62664323D01*
X343288516Y-62685670D01*
X343346837Y-62719342D01*
X343417483Y-62799010D01*
X340622364Y-44272103D02*
X340496699Y-44355074D01*
X340266717Y-44416698D01*
X340162399Y-44395351D01*
X340104078Y-44361679D01*
X340033432Y-44282011D01*
X340008782Y-44190018D01*
X340030130Y-44085700D01*
X340063801Y-44027379D01*
X340143470Y-43956733D01*
X340315131Y-43861438D01*
X340394799Y-43790792D01*
X340428471Y-43732471D01*
X340449818Y-43628153D01*
X340425168Y-43536160D01*
X340354522Y-43456492D01*
X340296201Y-43422820D01*
X340191883Y-43401473D01*
X339961901Y-43463097D01*
X339836236Y-43546067D01*
X339501936Y-43586344D02*
X339530773Y-44613893D01*
X339161917Y-43973245D01*
X339162801Y-44712491D01*
X338674000Y-43808189D01*
X337846064Y-44030033D02*
X338306028Y-43906786D01*
X338475272Y-44354426D01*
X338416951Y-44320755D01*
X338312633Y-44299407D01*
X338082651Y-44361031D01*
X338002983Y-44431677D01*
X337969311Y-44489998D01*
X337947964Y-44594316D01*
X338009587Y-44824298D01*
X338080233Y-44903966D01*
X338138554Y-44937638D01*
X338242872Y-44958985D01*
X338472854Y-44897362D01*
X338552523Y-44826716D01*
X338586194Y-44768394D01*
X65049183Y-100116546D02*
X64898868Y-100125568D01*
X64668886Y-100063944D01*
X64589218Y-99993298D01*
X64555546Y-99934977D01*
X64534199Y-99830660D01*
X64558848Y-99738667D01*
X64629494Y-99658998D01*
X64687816Y-99625327D01*
X64792133Y-99603980D01*
X64988444Y-99607282D01*
X65092761Y-99585935D01*
X65151083Y-99552263D01*
X65221729Y-99472595D01*
X65246378Y-99380602D01*
X65225031Y-99276284D01*
X65191359Y-99217963D01*
X65111691Y-99147317D01*
X64881709Y-99085694D01*
X64731395Y-99094716D01*
X64421744Y-98962447D02*
X63932943Y-99866749D01*
X63933827Y-99127503D01*
X63564971Y-99768151D01*
X63593808Y-98740602D01*
X62725595Y-98853057D02*
X62553049Y-99497007D01*
X63054175Y-98546709D02*
X63099286Y-99298279D01*
X62501332Y-99138058D01*
X69966745Y-81763955D02*
X69816430Y-81772977D01*
X69586448Y-81711353D01*
X69506780Y-81640707D01*
X69473108Y-81582386D01*
X69451761Y-81478069D01*
X69476410Y-81386076D01*
X69547056Y-81306407D01*
X69605378Y-81272736D01*
X69709695Y-81251389D01*
X69906006Y-81254691D01*
X70010323Y-81233344D01*
X70068645Y-81199672D01*
X70139291Y-81120004D01*
X70163940Y-81028011D01*
X70142593Y-80923693D01*
X70108921Y-80865372D01*
X70029253Y-80794726D01*
X69799271Y-80733103D01*
X69648957Y-80742125D01*
X69339306Y-80609856D02*
X68850505Y-81514158D01*
X68851389Y-80774912D01*
X68482533Y-81415560D01*
X68511370Y-80388011D01*
X68235391Y-80314062D02*
X67637437Y-80153841D01*
X67860814Y-80608086D01*
X67722825Y-80571112D01*
X67618507Y-80592459D01*
X67560186Y-80626130D01*
X67489540Y-80705799D01*
X67427916Y-80935781D01*
X67449263Y-81040099D01*
X67482935Y-81098420D01*
X67562603Y-81169066D01*
X67838582Y-81243014D01*
X67942900Y-81221667D01*
X68001221Y-81187995D01*
X74884307Y-63411364D02*
X74733992Y-63420386D01*
X74504010Y-63358762D01*
X74424342Y-63288116D01*
X74390670Y-63229795D01*
X74369323Y-63125478D01*
X74393972Y-63033485D01*
X74464618Y-62953816D01*
X74522940Y-62920145D01*
X74627257Y-62898798D01*
X74823568Y-62902100D01*
X74927885Y-62880753D01*
X74986207Y-62847081D01*
X75056853Y-62767413D01*
X75081502Y-62675420D01*
X75060155Y-62571102D01*
X75026483Y-62512781D01*
X74946815Y-62442135D01*
X74716833Y-62380512D01*
X74566519Y-62389534D01*
X74256868Y-62257265D02*
X73768067Y-63161567D01*
X73768951Y-62422321D01*
X73400095Y-63062969D01*
X73428932Y-62035420D01*
X73082307Y-62041140D02*
X73048635Y-61982818D01*
X72968967Y-61912173D01*
X72738985Y-61850549D01*
X72634667Y-61871896D01*
X72576346Y-61905568D01*
X72505700Y-61985236D01*
X72481050Y-62077229D01*
X72490073Y-62227543D01*
X72894134Y-62927397D01*
X72296180Y-62767176D01*
X79801869Y-45058774D02*
X79651554Y-45067796D01*
X79421572Y-45006172D01*
X79341904Y-44935526D01*
X79308232Y-44877205D01*
X79286885Y-44772888D01*
X79311534Y-44680895D01*
X79382180Y-44601226D01*
X79440502Y-44567555D01*
X79544819Y-44546208D01*
X79741130Y-44549510D01*
X79845447Y-44528163D01*
X79903769Y-44494491D01*
X79974415Y-44414823D01*
X79999064Y-44322830D01*
X79977717Y-44218512D01*
X79944045Y-44160191D01*
X79864377Y-44089545D01*
X79634395Y-44027922D01*
X79484081Y-44036944D01*
X79174430Y-43904675D02*
X78685629Y-44808977D01*
X78686513Y-44069731D01*
X78317657Y-44710379D01*
X78346494Y-43682830D01*
X77213742Y-44414586D02*
X77765699Y-44562482D01*
X77489720Y-44488534D02*
X77748539Y-43522608D01*
X77803558Y-43685247D01*
X77870902Y-43801890D01*
X77950570Y-43872535D01*
%LPC*%
D11*
X205138000Y-127049999D03*
X212758000Y-134669999D03*
X207678000Y-127049999D03*
X210218000Y-134669999D03*
X210218000Y-127049999D03*
X207678000Y-134669999D03*
X212758000Y-127049999D03*
D12*
X205138000Y-134669999D03*
X207750000Y-116200000D03*
D13*
X207750000Y-124000000D03*
D14*
X207750000Y-118700000D03*
X207750000Y-121500000D03*
D12*
X205250000Y-116200000D03*
D13*
X205250000Y-124000000D03*
D14*
X205250000Y-118700000D03*
X205250000Y-121500000D03*
D13*
X219370000Y-73250000D03*
X219370000Y-70710000D03*
X219370000Y-68170000D03*
X219370000Y-65630000D03*
X219370000Y-63090000D03*
X219370000Y-60550000D03*
X219370000Y-58010000D03*
X219370000Y-55470000D03*
X219370000Y-52930000D03*
X219370000Y-50390000D03*
X219370000Y-47850000D03*
X219370000Y-45310000D03*
D12*
X199050000Y-35150000D03*
D13*
X199050000Y-37690000D03*
X199050000Y-40230000D03*
X199050000Y-42770000D03*
X199050000Y-45310000D03*
X199050000Y-47850000D03*
X199050000Y-50390000D03*
X199050000Y-52930000D03*
X199050000Y-55470000D03*
X199050000Y-58010000D03*
X199050000Y-60550000D03*
X199050000Y-63090000D03*
X199050000Y-65630000D03*
X199050000Y-68170000D03*
X199050000Y-70710000D03*
X199050000Y-73250000D03*
D15*
X216870000Y-32550000D03*
X216870000Y-35090000D03*
X216870000Y-37630000D03*
X216870000Y-40170000D03*
X216870000Y-42710000D03*
X216870000Y-45250000D03*
X216870000Y-47790000D03*
X216870000Y-50330000D03*
X216870000Y-52870000D03*
X216870000Y-55410000D03*
X216870000Y-57950000D03*
X216870000Y-60490000D03*
X201630000Y-60490000D03*
X201630000Y-57950000D03*
X201630000Y-55410000D03*
X201630000Y-52870000D03*
X201630000Y-50330000D03*
X201630000Y-47790000D03*
X201630000Y-45250000D03*
X201630000Y-42710000D03*
X201630000Y-40170000D03*
X201630000Y-37630000D03*
X201630000Y-35090000D03*
X201630000Y-32550000D03*
D16*
X112087039Y-46069468D03*
D17*
X123528804Y-44787120D03*
X112903620Y-41940110D03*
D18*
X119743244Y-37664653D03*
X124029354Y-40987192D03*
D19*
X123123115Y-44678416D03*
X113309309Y-42048814D03*
D20*
X116836674Y-38852864D03*
D21*
X118216212Y-43363615D03*
D22*
X115193435Y-39924063D02*
X116836667Y-38852853D01*
D20*
X121984464Y-39114112D03*
D22*
X121795712Y-39663996D02*
X121984030Y-39113962D01*
D23*
G36*
X162653850Y-58530729D02*
G01*
X164297856Y-58971239D01*
X163857346Y-60615245D01*
X162213340Y-60174735D01*
X162653850Y-58530729D01*
G37*
D13*
X165274386Y-52038765D03*
D23*
G36*
X163494082Y-56167678D02*
G01*
X164751718Y-56504660D01*
X164311208Y-58148666D01*
X163053572Y-57811684D01*
X163494082Y-56167678D01*
G37*
G36*
X164218776Y-53463086D02*
G01*
X165476412Y-53800068D01*
X165035902Y-55444074D01*
X163778266Y-55107092D01*
X164218776Y-53463086D01*
G37*
G36*
X180437038Y-65573328D02*
G01*
X182081044Y-66013838D01*
X181640534Y-67657844D01*
X179996528Y-67217334D01*
X180437038Y-65573328D01*
G37*
D13*
X183057574Y-59081364D03*
D23*
G36*
X181277270Y-63210277D02*
G01*
X182534906Y-63547259D01*
X182094396Y-65191265D01*
X180836760Y-64854283D01*
X181277270Y-63210277D01*
G37*
G36*
X182001964Y-60505685D02*
G01*
X183259600Y-60842667D01*
X182819090Y-62486673D01*
X181561454Y-62149691D01*
X182001964Y-60505685D01*
G37*
G36*
X157736288Y-76883320D02*
G01*
X159380294Y-77323830D01*
X158939784Y-78967836D01*
X157295778Y-78527326D01*
X157736288Y-76883320D01*
G37*
D13*
X160356824Y-70391356D03*
D23*
G36*
X158576520Y-74520269D02*
G01*
X159834156Y-74857251D01*
X159393646Y-76501257D01*
X158136010Y-76164275D01*
X158576520Y-74520269D01*
G37*
G36*
X159301214Y-71815677D02*
G01*
X160558850Y-72152659D01*
X160118340Y-73796665D01*
X158860704Y-73459683D01*
X159301214Y-71815677D01*
G37*
G36*
X165710235Y-120534507D02*
G01*
X167354241Y-120975017D01*
X166913731Y-122619023D01*
X165269725Y-122178513D01*
X165710235Y-120534507D01*
G37*
D13*
X168330771Y-114042543D03*
D23*
G36*
X166550467Y-118171456D02*
G01*
X167808103Y-118508438D01*
X167367593Y-120152444D01*
X166109957Y-119815462D01*
X166550467Y-118171456D01*
G37*
G36*
X167275161Y-115466864D02*
G01*
X168532797Y-115803846D01*
X168092287Y-117447852D01*
X166834651Y-117110870D01*
X167275161Y-115466864D01*
G37*
G36*
X152844608Y-95139318D02*
G01*
X154488614Y-95579828D01*
X154048104Y-97223834D01*
X152404098Y-96783324D01*
X152844608Y-95139318D01*
G37*
D13*
X155465144Y-88647354D03*
D23*
G36*
X153684840Y-92776267D02*
G01*
X154942476Y-93113249D01*
X154501966Y-94757255D01*
X153244330Y-94420273D01*
X153684840Y-92776267D01*
G37*
G36*
X154409534Y-90071675D02*
G01*
X155667170Y-90408657D01*
X155226660Y-92052663D01*
X153969024Y-91715681D01*
X154409534Y-90071675D01*
G37*
G36*
X175519477Y-83925918D02*
G01*
X177163483Y-84366428D01*
X176722973Y-86010434D01*
X175078967Y-85569924D01*
X175519477Y-83925918D01*
G37*
D13*
X178140013Y-77433954D03*
D23*
G36*
X176359709Y-81562867D02*
G01*
X177617345Y-81899849D01*
X177176835Y-83543855D01*
X175919199Y-83206873D01*
X176359709Y-81562867D01*
G37*
G36*
X177084403Y-78858275D02*
G01*
X178342039Y-79195257D01*
X177901529Y-80839263D01*
X176643893Y-80502281D01*
X177084403Y-78858275D01*
G37*
G36*
X147901164Y-113588501D02*
G01*
X149545170Y-114029011D01*
X149104660Y-115673017D01*
X147460654Y-115232507D01*
X147901164Y-113588501D01*
G37*
D13*
X150521700Y-107096537D03*
D23*
G36*
X148741396Y-111225450D02*
G01*
X149999032Y-111562432D01*
X149558522Y-113206438D01*
X148300886Y-112869456D01*
X148741396Y-111225450D01*
G37*
G36*
X149466090Y-108520858D02*
G01*
X150723726Y-108857840D01*
X150283216Y-110501846D01*
X149025580Y-110164864D01*
X149466090Y-108520858D01*
G37*
G36*
X170627797Y-102181916D02*
G01*
X172271803Y-102622426D01*
X171831293Y-104266432D01*
X170187287Y-103825922D01*
X170627797Y-102181916D01*
G37*
D13*
X173248333Y-95689952D03*
D23*
G36*
X171468029Y-99818865D02*
G01*
X172725665Y-100155847D01*
X172285155Y-101799853D01*
X171027519Y-101462871D01*
X171468029Y-99818865D01*
G37*
G36*
X172192723Y-97114273D02*
G01*
X173450359Y-97451255D01*
X173009849Y-99095261D01*
X171752213Y-98758279D01*
X172192723Y-97114273D01*
G37*
D16*
X152015908Y-118056726D03*
D17*
X163457673Y-116774378D03*
X152832489Y-113927368D03*
D18*
X159672113Y-109651911D03*
X163958223Y-112974450D03*
D19*
X163051984Y-116665674D03*
X153238178Y-114036072D03*
D20*
X156765543Y-110840122D03*
D21*
X158145081Y-115350873D03*
D22*
X155122304Y-111911321D02*
X156765536Y-110840111D01*
D20*
X161913333Y-111101370D03*
D22*
X161724581Y-111651254D02*
X161912899Y-111101220D01*
D16*
X161851032Y-81351545D03*
D17*
X173292797Y-80069197D03*
X162667613Y-77222187D03*
D18*
X169507237Y-72946730D03*
X173793347Y-76269269D03*
D19*
X172887108Y-79960493D03*
X163073302Y-77330891D03*
D20*
X166600667Y-74134941D03*
D21*
X167980205Y-78645692D03*
D22*
X164957428Y-75206140D02*
X166600660Y-74134930D01*
D20*
X171748457Y-74396189D03*
D22*
X171559705Y-74946073D02*
X171748023Y-74396039D01*
D16*
X156933470Y-99704135D03*
D17*
X168375235Y-98421787D03*
X157750051Y-95574777D03*
D18*
X164589675Y-91299320D03*
X168875785Y-94621859D03*
D19*
X167969546Y-98313083D03*
X158155740Y-95683481D03*
D20*
X161683105Y-92487531D03*
D21*
X163062643Y-96998282D03*
D22*
X160039866Y-93558730D02*
X161683098Y-92487520D01*
D20*
X166830895Y-92748779D03*
D22*
X166642143Y-93298663D02*
X166830461Y-92748629D01*
D16*
X166768594Y-62998954D03*
D17*
X178210359Y-61716606D03*
X167585175Y-58869596D03*
D18*
X174424799Y-54594139D03*
X178710909Y-57916678D03*
D19*
X177804670Y-61607902D03*
X167990864Y-58978300D03*
D20*
X171518229Y-55782350D03*
D21*
X172897767Y-60293101D03*
D22*
X169874990Y-56853549D02*
X171518222Y-55782339D01*
D20*
X176666019Y-56043598D03*
D22*
X176477267Y-56593482D02*
X176665585Y-56043448D01*
D23*
G36*
X178322676Y-140012349D02*
G01*
X179526172Y-141215845D01*
X178322676Y-142419341D01*
X177119180Y-141215845D01*
X178322676Y-140012349D01*
G37*
D13*
X183838108Y-135700413D03*
D23*
G36*
X180231864Y-138386004D02*
G01*
X181152517Y-139306657D01*
X179949022Y-140510152D01*
X179028369Y-139589499D01*
X180231864Y-138386004D01*
G37*
G36*
X182211762Y-136406106D02*
G01*
X183132415Y-137326759D01*
X181928920Y-138530254D01*
X181008267Y-137609601D01*
X182211762Y-136406106D01*
G37*
D16*
X244535791Y-168544592D03*
D17*
X246258484Y-157160799D03*
X240758484Y-166687079D03*
D18*
X238398934Y-158973939D03*
X242717587Y-155693812D03*
D19*
X246048484Y-157524530D03*
X240968484Y-166323348D03*
D20*
X238794382Y-162089003D03*
D21*
X243508484Y-161923939D03*
D22*
X239403779Y-163953496D02*
X238794369Y-162089006D01*
D20*
X240379075Y-157184234D03*
D22*
X240861370Y-157508875D02*
X240378820Y-157184615D01*
D16*
X228081309Y-159044592D03*
D17*
X229804002Y-147660799D03*
X224304002Y-157187079D03*
D18*
X221944452Y-149473939D03*
X226263105Y-146193812D03*
D19*
X229594002Y-148024530D03*
X224514002Y-156823348D03*
D20*
X222339900Y-152589003D03*
D21*
X227054002Y-152423939D03*
D22*
X222949297Y-154453496D02*
X222339887Y-152589006D01*
D20*
X223924593Y-147684234D03*
D22*
X224406888Y-148008875D02*
X223924338Y-147684615D01*
D16*
X242432247Y-138087953D03*
D17*
X247042583Y-127537920D03*
X239264409Y-135316094D03*
D18*
X238981566Y-127255077D03*
X244002024Y-125204467D03*
D19*
X246745598Y-127834905D03*
X239561394Y-135019109D03*
D20*
X238557302Y-130366347D03*
D21*
X243153496Y-131427007D03*
D22*
X238663368Y-132325033D02*
X238557290Y-130366347D01*
D20*
X241357445Y-126038853D03*
D22*
X241739282Y-126477260D02*
X241357098Y-126039154D01*
D16*
X255867276Y-151522982D03*
D17*
X260477612Y-140972949D03*
X252699438Y-148751123D03*
D18*
X252416595Y-140690106D03*
X257437053Y-138639496D03*
D19*
X260180627Y-141269934D03*
X252996423Y-148454138D03*
D20*
X251992331Y-143801376D03*
D21*
X256588525Y-144862036D03*
D22*
X252098397Y-145760062D02*
X251992319Y-143801376D01*
D20*
X254792474Y-139473882D03*
D22*
X255174311Y-139912289D02*
X254792127Y-139474183D01*
D16*
X271078297Y-138039050D03*
D17*
X278262090Y-129041743D03*
X268735810Y-134541743D03*
D18*
X270548950Y-126682193D03*
X275929077Y-126000846D03*
D19*
X277898359Y-129251743D03*
X269099541Y-134331743D03*
D20*
X269333886Y-129577641D03*
D21*
X273498950Y-131791743D03*
D22*
X268929393Y-131497038D02*
X269333875Y-129577638D01*
D20*
X273158655Y-126122334D03*
D22*
X273414014Y-126644629D02*
X273158244Y-126122535D01*
D16*
X289267377Y-129073530D03*
D17*
X298535062Y-122242101D03*
X287909878Y-125089111D03*
D18*
X291695438Y-117966644D03*
X297068587Y-118700993D03*
D19*
X298129373Y-122350805D03*
X288315567Y-124980407D03*
D20*
X289772379Y-120448950D03*
D21*
X293222470Y-123665606D03*
D22*
X288884892Y-122198255D02*
X289772368Y-120448945D01*
D20*
X294361121Y-118101302D03*
D22*
X294472599Y-118671892D02*
X294360671Y-118101390D01*
D16*
X307813152Y-124104205D03*
D17*
X317080837Y-117272776D03*
X306455653Y-120119786D03*
D18*
X310241213Y-112997319D03*
X315614362Y-113731668D03*
D19*
X316675148Y-117381480D03*
X306861342Y-120011082D03*
D20*
X308318154Y-115479625D03*
D21*
X311768245Y-118696281D03*
D22*
X307430667Y-117228930D02*
X308318143Y-115479620D01*
D20*
X312906896Y-113131977D03*
D22*
X313018374Y-113702567D02*
X312906446Y-113132065D01*
D16*
X184233303Y-150082308D03*
D17*
X193230610Y-157266101D03*
X187730610Y-147739821D03*
D18*
X195590160Y-149552961D03*
X196271507Y-154933088D03*
D19*
X193020610Y-156902370D03*
X187940610Y-148103552D03*
D20*
X192694712Y-148337897D03*
D21*
X190480610Y-152502961D03*
D22*
X190775315Y-147933404D02*
X192694715Y-148337886D01*
D20*
X196150019Y-152162666D03*
D22*
X195627724Y-152418025D02*
X196149818Y-152162255D01*
D16*
X167778820Y-159582309D03*
D17*
X176776127Y-166766102D03*
X171276127Y-157239822D03*
D18*
X179135677Y-159052962D03*
X179817024Y-164433089D03*
D19*
X176566127Y-166402371D03*
X171486127Y-157603553D03*
D20*
X176240229Y-157837898D03*
D21*
X174026127Y-162002962D03*
D22*
X174320832Y-157433405D02*
X176240232Y-157837887D01*
D20*
X179695536Y-161662667D03*
D22*
X179173241Y-161918026D02*
X179695335Y-161662256D01*
D16*
X167886363Y-130730309D03*
D17*
X178436396Y-135340645D03*
X170658222Y-127562471D03*
D18*
X178719239Y-127279628D03*
X180769849Y-132300086D03*
D19*
X178139411Y-135043660D03*
X170955207Y-127859456D03*
D20*
X175607969Y-126855364D03*
D21*
X174547309Y-131451558D03*
D22*
X173649283Y-126961430D02*
X175607969Y-126855352D01*
D20*
X179935463Y-129655507D03*
D22*
X179497056Y-130037344D02*
X179935162Y-129655160D01*
D16*
X154337614Y-144242263D03*
D17*
X164887647Y-148852599D03*
X157109473Y-141074425D03*
D18*
X165170490Y-140791582D03*
X167221100Y-145812040D03*
D19*
X164590662Y-148555614D03*
X157406458Y-141371410D03*
D20*
X162059220Y-140367318D03*
D21*
X160998560Y-144963512D03*
D22*
X160100534Y-140473384D02*
X162059220Y-140367306D01*
D20*
X166386714Y-143167461D03*
D22*
X165948307Y-143549298D02*
X166386413Y-143167114D01*
D16*
X137459847Y-133022311D03*
D17*
X148843640Y-134745004D03*
X139317360Y-129245004D03*
D18*
X147030500Y-126885454D03*
X150310627Y-131204107D03*
D19*
X148479909Y-134535004D03*
X139681091Y-129455004D03*
D20*
X143915436Y-127280902D03*
D21*
X144080500Y-131995004D03*
D22*
X142050943Y-127890299D02*
X143915433Y-127280889D01*
D20*
X148820205Y-128865595D03*
D22*
X148495564Y-129347890D02*
X148819824Y-128865340D01*
D16*
X118155247Y-126583484D03*
D17*
X129597012Y-125301136D03*
X118971828Y-122454126D03*
D18*
X125811452Y-118178669D03*
X130097562Y-121501208D03*
D19*
X129191323Y-125192432D03*
X119377517Y-122562830D03*
D20*
X122904882Y-119366880D03*
D21*
X124284420Y-123877631D03*
D22*
X121261643Y-120438079D02*
X122904875Y-119366869D01*
D20*
X128052672Y-119628128D03*
D22*
X127863920Y-120178012D02*
X128052238Y-119627978D01*
D16*
X99609471Y-121614159D03*
D17*
X111051236Y-120331811D03*
X100426052Y-117484801D03*
D18*
X107265676Y-113209344D03*
X111551786Y-116531883D03*
D19*
X110645547Y-120223107D03*
X100831741Y-117593505D03*
D20*
X104359106Y-114397555D03*
D21*
X105738644Y-118908306D03*
D22*
X102715867Y-115468754D02*
X104359099Y-114397544D01*
D20*
X109506896Y-114658803D03*
D22*
X109318144Y-115208687D02*
X109506462Y-114658653D01*
D16*
X255555072Y-120714075D03*
D17*
X264822757Y-113882646D03*
X254197573Y-116729656D03*
D18*
X257983133Y-109607189D03*
X263356282Y-110341538D03*
D19*
X264417068Y-113991350D03*
X254603262Y-116620952D03*
D20*
X256060074Y-112089495D03*
D21*
X259510165Y-115306151D03*
D22*
X255172587Y-113838800D02*
X256060063Y-112089490D01*
D20*
X260648816Y-109741847D03*
D22*
X260760294Y-110312437D02*
X260648366Y-109741935D01*
D16*
X250637510Y-102361485D03*
D17*
X259905195Y-95530056D03*
X249280011Y-98377066D03*
D18*
X253065571Y-91254599D03*
X258438720Y-91988948D03*
D19*
X259499506Y-95638760D03*
X249685700Y-98268362D03*
D20*
X251142512Y-93736905D03*
D21*
X254592603Y-96953561D03*
D22*
X250255025Y-95486210D02*
X251142501Y-93736900D01*
D20*
X255731254Y-91389257D03*
D22*
X255842732Y-91959847D02*
X255730804Y-91389345D01*
D16*
X245768244Y-83995953D03*
D17*
X255035929Y-77164524D03*
X244410745Y-80011534D03*
D18*
X248196305Y-72889067D03*
X253569454Y-73623416D03*
D19*
X254630240Y-77273228D03*
X244816434Y-79902830D03*
D20*
X246273246Y-75371373D03*
D21*
X249723337Y-78588029D03*
D22*
X245385759Y-77120678D02*
X246273235Y-75371368D01*
D20*
X250861988Y-73023725D03*
D22*
X250973466Y-73594315D02*
X250861538Y-73023813D01*
D16*
X240850682Y-65643362D03*
D17*
X250118367Y-58811933D03*
X239493183Y-61658943D03*
D18*
X243278743Y-54536476D03*
X248651892Y-55270825D03*
D19*
X249712678Y-58920637D03*
X239898872Y-61550239D03*
D20*
X241355684Y-57018782D03*
D21*
X244805775Y-60235438D03*
D22*
X240468197Y-58768087D02*
X241355673Y-57018777D01*
D20*
X245944426Y-54671134D03*
D22*
X246055904Y-55241724D02*
X245943976Y-54671222D01*
D16*
X273338260Y-113671477D03*
D17*
X282605945Y-106840048D03*
X271980761Y-109687058D03*
D18*
X275766321Y-102564591D03*
X281139470Y-103298940D03*
D19*
X282200256Y-106948752D03*
X272386450Y-109578354D03*
D20*
X273843262Y-105046897D03*
D21*
X277293353Y-108263553D03*
D22*
X272955775Y-106796202D02*
X273843251Y-105046892D01*
D20*
X278432004Y-102699249D03*
D22*
X278543482Y-103269839D02*
X278431554Y-102699337D01*
D16*
X268420698Y-95318886D03*
D17*
X277688383Y-88487457D03*
X267063199Y-91334467D03*
D18*
X270848759Y-84212000D03*
X276221908Y-84946349D03*
D19*
X277282694Y-88596161D03*
X267468888Y-91225763D03*
D20*
X268925700Y-86694306D03*
D21*
X272375791Y-89910962D03*
D22*
X268038213Y-88443611D02*
X268925689Y-86694301D01*
D20*
X273514442Y-84346658D03*
D22*
X273625920Y-84917248D02*
X273513992Y-84346746D01*
D16*
X263503137Y-76966295D03*
D17*
X272770822Y-70134866D03*
X262145638Y-72981876D03*
D18*
X265931198Y-65859409D03*
X271304347Y-66593758D03*
D19*
X272365133Y-70243570D03*
X262551327Y-72873172D03*
D20*
X264008139Y-68341715D03*
D21*
X267458230Y-71558371D03*
D22*
X263120652Y-70091020D02*
X264008128Y-68341710D01*
D20*
X268596881Y-65994067D03*
D22*
X268708359Y-66564657D02*
X268596431Y-65994155D01*
D16*
X258585575Y-58613705D03*
D17*
X267853260Y-51782276D03*
X257228076Y-54629286D03*
D18*
X261013636Y-47506819D03*
X266386785Y-48241168D03*
D19*
X267447571Y-51890980D03*
X257633765Y-54520582D03*
D20*
X259090577Y-49989125D03*
D21*
X262540668Y-53205781D03*
D22*
X258203090Y-51738430D02*
X259090566Y-49989120D01*
D20*
X263679319Y-47641477D03*
D22*
X263790797Y-48212067D02*
X263678869Y-47641565D01*
D16*
X134232720Y-111014127D03*
D17*
X145674485Y-109731779D03*
X135049301Y-106884769D03*
D18*
X141888925Y-102609312D03*
X146175035Y-105931851D03*
D19*
X145268796Y-109623075D03*
X135454990Y-106993473D03*
D20*
X138982355Y-103797523D03*
D21*
X140361893Y-108308274D03*
D22*
X137339116Y-104868722D02*
X138982348Y-103797512D01*
D20*
X144130145Y-104058771D03*
D22*
X143941393Y-104608655D02*
X144129711Y-104058621D01*
D16*
X139150281Y-92661537D03*
D17*
X150592046Y-91379189D03*
X139966862Y-88532179D03*
D18*
X146806486Y-84256722D03*
X151092596Y-87579261D03*
D19*
X150186357Y-91270485D03*
X140372551Y-88640883D03*
D20*
X143899916Y-85444933D03*
D21*
X145279454Y-89955684D03*
D22*
X142256677Y-86516132D02*
X143899909Y-85444922D01*
D20*
X149047706Y-85706181D03*
D22*
X148858954Y-86256065D02*
X149047272Y-85706031D01*
D16*
X144067843Y-74308946D03*
D17*
X155509608Y-73026598D03*
X144884424Y-70179588D03*
D18*
X151724048Y-65904131D03*
X156010158Y-69226670D03*
D19*
X155103919Y-72917894D03*
X145290113Y-70288292D03*
D20*
X148817478Y-67092342D03*
D21*
X150197016Y-71603093D03*
D22*
X147174239Y-68163541D02*
X148817471Y-67092331D01*
D20*
X153965268Y-67353590D03*
D22*
X153776516Y-67903474D02*
X153964834Y-67353440D01*
D16*
X148985405Y-55956355D03*
D17*
X160427170Y-54674007D03*
X149801986Y-51826997D03*
D18*
X156641610Y-47551540D03*
X160927720Y-50874079D03*
D19*
X160021481Y-54565303D03*
X150207675Y-51935701D03*
D20*
X153735040Y-48739751D03*
D21*
X155114578Y-53250502D03*
D22*
X152091801Y-49810950D02*
X153735033Y-48739740D01*
D20*
X158882830Y-49000999D03*
D22*
X158694078Y-49550883D02*
X158882396Y-49000849D01*
D16*
X290693469Y-104258892D03*
D17*
X299961154Y-97427463D03*
X289335970Y-100274473D03*
D18*
X293121530Y-93152006D03*
X298494679Y-93886355D03*
D19*
X299555465Y-97536167D03*
X289741659Y-100165769D03*
D20*
X291198471Y-95634312D03*
D21*
X294648562Y-98850968D03*
D22*
X290310984Y-97383617D02*
X291198460Y-95634307D01*
D20*
X295787213Y-93286664D03*
D22*
X295898691Y-93857254D02*
X295786763Y-93286752D01*
D16*
X285775907Y-85906301D03*
D17*
X295043592Y-79074872D03*
X284418408Y-81921882D03*
D18*
X288203968Y-74799415D03*
X293577117Y-75533764D03*
D19*
X294637903Y-79183576D03*
X284824097Y-81813178D03*
D20*
X286280909Y-77281721D03*
D21*
X289731000Y-80498377D03*
D22*
X285393422Y-79031026D02*
X286280898Y-77281716D01*
D20*
X290869651Y-74934073D03*
D22*
X290981129Y-75504663D02*
X290869201Y-74934161D01*
D16*
X280858345Y-67553711D03*
D17*
X290126030Y-60722282D03*
X279500846Y-63569292D03*
D18*
X283286406Y-56446825D03*
X288659555Y-57181174D03*
D19*
X289720341Y-60830986D03*
X279906535Y-63460588D03*
D20*
X281363347Y-58929131D03*
D21*
X284813438Y-62145787D03*
D22*
X280475860Y-60678436D02*
X281363336Y-58929126D01*
D20*
X285952089Y-56581483D03*
D22*
X286063567Y-57152073D02*
X285951639Y-56581571D01*
D16*
X275940783Y-49201120D03*
D17*
X285208468Y-42369691D03*
X274583284Y-45216701D03*
D18*
X278368844Y-38094234D03*
X283741993Y-38828583D03*
D19*
X284802779Y-42478395D03*
X274988973Y-45107997D03*
D20*
X276445785Y-40576540D03*
D21*
X279895876Y-43793196D03*
D22*
X275558298Y-42325845D02*
X276445774Y-40576535D01*
D20*
X281034527Y-38228892D03*
D22*
X281146005Y-38799482D02*
X281034077Y-38228980D01*
D16*
X116877511Y-101601543D03*
D17*
X128319276Y-100319195D03*
X117694092Y-97472185D03*
D18*
X124533716Y-93196728D03*
X128819826Y-96519267D03*
D19*
X127913587Y-100210491D03*
X118099781Y-97580889D03*
D20*
X121627146Y-94384939D03*
D21*
X123006684Y-98895690D03*
D22*
X119983907Y-95456138D02*
X121627139Y-94384928D01*
D20*
X126774936Y-94646187D03*
D22*
X126586184Y-95196071D02*
X126774502Y-94646037D01*
D16*
X121795073Y-83248952D03*
D17*
X133236838Y-81966604D03*
X122611654Y-79119594D03*
D18*
X129451278Y-74844137D03*
X133737388Y-78166676D03*
D19*
X132831149Y-81857900D03*
X123017343Y-79228298D03*
D20*
X126544708Y-76032348D03*
D21*
X127924246Y-80543099D03*
D22*
X124901469Y-77103547D02*
X126544701Y-76032337D01*
D20*
X131692498Y-76293596D03*
D22*
X131503746Y-76843480D02*
X131692064Y-76293446D01*
D16*
X126712635Y-64896362D03*
D17*
X138154400Y-63614014D03*
X127529216Y-60767004D03*
D18*
X134368840Y-56491547D03*
X138654950Y-59814086D03*
D19*
X137748711Y-63505310D03*
X127934905Y-60875708D03*
D20*
X131462270Y-57679758D03*
D21*
X132841808Y-62190509D03*
D22*
X129819031Y-58750957D02*
X131462263Y-57679747D01*
D20*
X136610060Y-57941006D03*
D22*
X136421308Y-58490890D02*
X136609626Y-57940856D01*
D16*
X131630197Y-46543771D03*
D17*
X143071962Y-45261423D03*
X132446778Y-42414413D03*
D18*
X139286402Y-38138956D03*
X143572512Y-41461495D03*
D19*
X142666273Y-45152719D03*
X132852467Y-42523117D03*
D20*
X136379832Y-39327167D03*
D21*
X137759370Y-43837918D03*
D22*
X134736593Y-40398366D02*
X136379825Y-39327156D01*
D20*
X141527622Y-39588415D03*
D22*
X141338870Y-40138299D02*
X141527188Y-39588265D01*
D16*
X310236627Y-103784589D03*
D17*
X319504312Y-96953160D03*
X308879128Y-99800170D03*
D18*
X312664688Y-92677703D03*
X318037837Y-93412052D03*
D19*
X319098623Y-97061864D03*
X309284817Y-99691466D03*
D20*
X310741629Y-95160009D03*
D21*
X314191720Y-98376665D03*
D22*
X309854142Y-96909314D02*
X310741618Y-95160004D01*
D20*
X315330371Y-92812361D03*
D22*
X315441849Y-93382951D02*
X315329921Y-92812449D01*
D16*
X305319065Y-85431998D03*
D17*
X314586750Y-78600569D03*
X303961566Y-81447579D03*
D18*
X307747126Y-74325112D03*
X313120275Y-75059461D03*
D19*
X314181061Y-78709273D03*
X304367255Y-81338875D03*
D20*
X305824067Y-76807418D03*
D21*
X309274158Y-80024074D03*
D22*
X304936580Y-78556723D02*
X305824056Y-76807413D01*
D20*
X310412809Y-74459770D03*
D22*
X310524287Y-75030360D02*
X310412359Y-74459858D01*
D16*
X300401503Y-67079408D03*
D17*
X309669188Y-60247979D03*
X299044004Y-63094989D03*
D18*
X302829564Y-55972522D03*
X308202713Y-56706871D03*
D19*
X309263499Y-60356683D03*
X299449693Y-62986285D03*
D20*
X300906505Y-58454828D03*
D21*
X304356596Y-61671484D03*
D22*
X300019018Y-60204133D02*
X300906494Y-58454823D01*
D20*
X305495247Y-56107180D03*
D22*
X305606725Y-56677770D02*
X305494797Y-56107268D01*
D16*
X295483941Y-48726817D03*
D17*
X304751626Y-41895388D03*
X294126442Y-44742398D03*
D18*
X297912002Y-37619931D03*
X303285151Y-38354280D03*
D19*
X304345937Y-42004092D03*
X294532131Y-44633694D03*
D20*
X295988943Y-40102237D03*
D21*
X299439034Y-43318893D03*
D22*
X295101456Y-41851542D02*
X295988932Y-40102232D01*
D20*
X300577685Y-37754589D03*
D22*
X300689163Y-38325179D02*
X300577235Y-37754677D01*
D16*
X97334353Y-101127240D03*
D17*
X108776118Y-99844892D03*
X98150934Y-96997882D03*
D18*
X104990558Y-92722425D03*
X109276668Y-96044964D03*
D19*
X108370429Y-99736188D03*
X98556623Y-97106586D03*
D20*
X102083988Y-93910636D03*
D21*
X103463526Y-98421387D03*
D22*
X100440749Y-94981835D02*
X102083981Y-93910625D01*
D20*
X107231778Y-94171884D03*
D22*
X107043026Y-94721768D02*
X107231344Y-94171734D01*
D16*
X102251915Y-82774649D03*
D17*
X113693680Y-81492301D03*
X103068496Y-78645291D03*
D18*
X109908120Y-74369834D03*
X114194230Y-77692373D03*
D19*
X113287991Y-81383597D03*
X103474185Y-78753995D03*
D20*
X107001550Y-75558045D03*
D21*
X108381088Y-80068796D03*
D22*
X105358311Y-76629244D02*
X107001543Y-75558034D01*
D20*
X112149340Y-75819293D03*
D22*
X111960588Y-76369177D02*
X112148906Y-75819143D01*
D16*
X107169477Y-64422059D03*
D17*
X118611242Y-63139711D03*
X107986058Y-60292701D03*
D18*
X114825682Y-56017244D03*
X119111792Y-59339783D03*
D19*
X118205553Y-63031007D03*
X108391747Y-60401405D03*
D20*
X111919112Y-57205455D03*
D21*
X113298650Y-61716206D03*
D22*
X110275873Y-58276654D02*
X111919105Y-57205444D01*
D20*
X117066902Y-57466703D03*
D22*
X116878150Y-58016587D02*
X117066468Y-57466553D01*
D16*
X330193896Y-104855767D03*
D17*
X339461581Y-98024338D03*
X328836397Y-100871348D03*
D18*
X332621957Y-93748881D03*
X337995106Y-94483230D03*
D19*
X339055892Y-98133042D03*
X329242086Y-100762644D03*
D20*
X330698898Y-96231187D03*
D21*
X334148989Y-99447843D03*
D22*
X329811411Y-97980492D02*
X330698887Y-96231182D01*
D20*
X335287640Y-93883539D03*
D22*
X335399118Y-94454129D02*
X335287190Y-93883627D01*
D16*
X325276334Y-86503177D03*
D17*
X334544019Y-79671748D03*
X323918835Y-82518758D03*
D18*
X327704395Y-75396291D03*
X333077544Y-76130640D03*
D19*
X334138330Y-79780452D03*
X324324524Y-82410054D03*
D20*
X325781336Y-77878597D03*
D21*
X329231427Y-81095253D03*
D22*
X324893849Y-79627902D02*
X325781325Y-77878592D01*
D20*
X330370078Y-75530949D03*
D22*
X330481556Y-76101539D02*
X330369628Y-75531037D01*
D16*
X320358772Y-68150586D03*
D17*
X329626457Y-61319157D03*
X319001273Y-64166167D03*
D18*
X322786833Y-57043700D03*
X328159982Y-57778049D03*
D19*
X329220768Y-61427861D03*
X319406962Y-64057463D03*
D20*
X320863774Y-59526006D03*
D21*
X324313865Y-62742662D03*
D22*
X319976287Y-61275311D02*
X320863763Y-59526001D01*
D20*
X325452516Y-57178358D03*
D22*
X325563994Y-57748948D02*
X325452066Y-57178446D01*
D16*
X315441210Y-49797995D03*
D17*
X324708895Y-42966566D03*
X314083711Y-45813576D03*
D18*
X317869271Y-38691109D03*
X323242420Y-39425458D03*
D19*
X324303206Y-43075270D03*
X314489400Y-45704872D03*
D20*
X315946212Y-41173415D03*
D21*
X319396303Y-44390071D03*
D22*
X315058725Y-42922720D02*
X315946201Y-41173410D01*
D20*
X320534954Y-38825767D03*
D22*
X320646432Y-39396357D02*
X320534504Y-38825855D01*
D16*
X77377084Y-102198418D03*
D17*
X88818849Y-100916070D03*
X78193665Y-98069060D03*
D18*
X85033289Y-93793603D03*
X89319399Y-97116142D03*
D19*
X88413160Y-100807366D03*
X78599354Y-98177764D03*
D20*
X82126719Y-94981814D03*
D21*
X83506257Y-99492565D03*
D22*
X80483480Y-96053013D02*
X82126712Y-94981803D01*
D20*
X87274509Y-95243062D03*
D22*
X87085757Y-95792946D02*
X87274075Y-95242912D01*
D16*
X82294646Y-83845827D03*
D17*
X93736411Y-82563479D03*
X83111227Y-79716469D03*
D18*
X89950851Y-75441012D03*
X94236961Y-78763551D03*
D19*
X93330722Y-82454775D03*
X83516916Y-79825173D03*
D20*
X87044281Y-76629223D03*
D21*
X88423819Y-81139974D03*
D22*
X85401042Y-77700422D02*
X87044274Y-76629212D01*
D20*
X92192071Y-76890471D03*
D22*
X92003319Y-77440355D02*
X92191637Y-76890321D01*
D16*
X87212208Y-65493237D03*
D17*
X98653973Y-64210889D03*
X88028789Y-61363879D03*
D18*
X94868413Y-57088422D03*
X99154523Y-60410961D03*
D19*
X98248284Y-64102185D03*
X88434478Y-61472583D03*
D20*
X91961843Y-58276633D03*
D21*
X93341381Y-62787384D03*
D22*
X90318604Y-59347832D02*
X91961836Y-58276622D01*
D20*
X97109633Y-58537881D03*
D22*
X96920881Y-59087765D02*
X97109199Y-58537731D01*
D16*
X92129770Y-47140646D03*
D17*
X103571535Y-45858298D03*
X92946351Y-43011288D03*
D18*
X99785975Y-38735831D03*
X104072085Y-42058370D03*
D19*
X103165846Y-45749594D03*
X93352040Y-43119992D03*
D20*
X96879405Y-39924042D03*
D21*
X98258943Y-44434793D03*
D22*
X95236166Y-40995241D02*
X96879398Y-39924031D01*
D20*
X102027195Y-40185290D03*
D22*
X101838443Y-40735174D02*
X102026761Y-40185140D01*
D16*
X349205546Y-101625108D03*
D17*
X358473231Y-94793679D03*
X347848047Y-97640689D03*
D18*
X351633607Y-90518222D03*
X357006756Y-91252571D03*
D19*
X358067542Y-94902383D03*
X348253736Y-97531985D03*
D20*
X349710548Y-93000528D03*
D21*
X353160639Y-96217184D03*
D22*
X348823061Y-94749833D02*
X349710537Y-93000523D01*
D20*
X354299290Y-90652880D03*
D22*
X354410768Y-91223470D02*
X354298840Y-90652968D01*
D16*
X344287984Y-83272518D03*
D17*
X353555669Y-76441089D03*
X342930485Y-79288099D03*
D18*
X346716045Y-72165632D03*
X352089194Y-72899981D03*
D19*
X353149980Y-76549793D03*
X343336174Y-79179395D03*
D20*
X344792986Y-74647938D03*
D21*
X348243077Y-77864594D03*
D22*
X343905499Y-76397243D02*
X344792975Y-74647933D01*
D20*
X349381728Y-72300290D03*
D22*
X349493206Y-72870880D02*
X349381278Y-72300378D01*
D16*
X339370422Y-64919927D03*
D17*
X348638107Y-58088498D03*
X338012923Y-60935508D03*
D18*
X341798483Y-53813041D03*
X347171632Y-54547390D03*
D19*
X348232418Y-58197202D03*
X338418612Y-60826804D03*
D20*
X339875424Y-56295347D03*
D21*
X343325515Y-59512003D03*
D22*
X338987937Y-58044652D02*
X339875413Y-56295342D01*
D20*
X344464166Y-53947699D03*
D22*
X344575644Y-54518289D02*
X344463716Y-53947787D01*
D16*
X334452860Y-46567336D03*
D17*
X343720545Y-39735907D03*
X333095361Y-42582917D03*
D18*
X336880921Y-35460450D03*
X342254070Y-36194799D03*
D19*
X343314856Y-39844611D03*
X333501050Y-42474213D03*
D20*
X334957862Y-37942756D03*
D21*
X338407953Y-41159412D03*
D22*
X334070375Y-39692061D02*
X334957851Y-37942751D01*
D20*
X339546604Y-35595108D03*
D22*
X339658082Y-36165698D02*
X339546154Y-35595196D01*
D16*
X58558619Y-99019523D03*
D17*
X70000384Y-97737175D03*
X59375200Y-94890165D03*
D18*
X66214824Y-90614708D03*
X70500934Y-93937247D03*
D19*
X69594695Y-97628471D03*
X59780889Y-94998869D03*
D20*
X63308254Y-91802919D03*
D21*
X64687792Y-96313670D03*
D22*
X61665015Y-92874118D02*
X63308247Y-91802908D01*
D20*
X68456044Y-92064167D03*
D22*
X68267292Y-92614051D02*
X68455610Y-92064017D01*
D16*
X63476181Y-80666932D03*
D17*
X74917946Y-79384584D03*
X64292762Y-76537574D03*
D18*
X71132386Y-72262117D03*
X75418496Y-75584656D03*
D19*
X74512257Y-79275880D03*
X64698451Y-76646278D03*
D20*
X68225816Y-73450328D03*
D21*
X69605354Y-77961079D03*
D22*
X66582577Y-74521527D02*
X68225809Y-73450317D01*
D20*
X73373606Y-73711576D03*
D22*
X73184854Y-74261460D02*
X73373172Y-73711426D01*
D16*
X68393743Y-62314341D03*
D17*
X79835508Y-61031993D03*
X69210324Y-58184983D03*
D18*
X76049948Y-53909526D03*
X80336058Y-57232065D03*
D19*
X79429819Y-60923289D03*
X69616013Y-58293687D03*
D20*
X73143378Y-55097737D03*
D21*
X74522916Y-59608488D03*
D22*
X71500139Y-56168936D02*
X73143371Y-55097726D01*
D20*
X78291168Y-55358985D03*
D22*
X78102416Y-55908869D02*
X78290734Y-55358835D01*
D16*
X73311305Y-43961751D03*
D17*
X84753070Y-42679403D03*
X74127886Y-39832393D03*
D18*
X80967510Y-35556936D03*
X85253620Y-38879475D03*
D19*
X84347381Y-42570699D03*
X74533575Y-39941097D03*
D20*
X78060940Y-36745147D03*
D21*
X79440478Y-41255898D03*
D22*
X76417701Y-37816346D02*
X78060933Y-36745136D01*
D20*
X83208730Y-37006395D03*
D22*
X83019978Y-37556279D02*
X83208296Y-37006245D01*
D23*
G36*
X250423495Y-156044789D02*
G01*
X251274495Y-154570813D01*
X252748471Y-155421813D01*
X251897471Y-156895789D01*
X250423495Y-156044789D01*
G37*
D13*
X244830985Y-151833301D03*
D23*
G36*
X248358432Y-154621584D02*
G01*
X249009432Y-153494018D01*
X250483408Y-154345018D01*
X249832408Y-155472584D01*
X248358432Y-154621584D01*
G37*
G36*
X245933560Y-153221584D02*
G01*
X246584560Y-152094018D01*
X248058536Y-152945018D01*
X247407536Y-154072584D01*
X245933560Y-153221584D01*
G37*
G36*
X233969012Y-146544788D02*
G01*
X234820012Y-145070812D01*
X236293988Y-145921812D01*
X235442988Y-147395788D01*
X233969012Y-146544788D01*
G37*
D13*
X228376502Y-142333300D03*
D23*
G36*
X231903949Y-145121583D02*
G01*
X232554949Y-143994017D01*
X234028925Y-144845017D01*
X233377925Y-145972583D01*
X231903949Y-145121583D01*
G37*
G36*
X229479077Y-143721583D02*
G01*
X230130077Y-142594017D01*
X231604053Y-143445017D01*
X230953053Y-144572583D01*
X229479077Y-143721583D01*
G37*
G36*
X251213098Y-127396498D02*
G01*
X252416594Y-126193002D01*
X253620090Y-127396498D01*
X252416594Y-128599994D01*
X251213098Y-127396498D01*
G37*
D13*
X246901162Y-121881066D03*
D23*
G36*
X249586753Y-125487310D02*
G01*
X250507406Y-124566657D01*
X251710901Y-125770152D01*
X250790248Y-126690805D01*
X249586753Y-125487310D01*
G37*
G36*
X247606855Y-123507412D02*
G01*
X248527508Y-122586759D01*
X249731003Y-123790254D01*
X248810350Y-124710907D01*
X247606855Y-123507412D01*
G37*
G36*
X264930969Y-140831527D02*
G01*
X266134465Y-139628031D01*
X267337961Y-140831527D01*
X266134465Y-142035023D01*
X264930969Y-140831527D01*
G37*
D13*
X260619033Y-135316095D03*
D23*
G36*
X263304624Y-138922339D02*
G01*
X264225277Y-138001686D01*
X265428772Y-139205181D01*
X264508119Y-140125834D01*
X263304624Y-138922339D01*
G37*
G36*
X261324726Y-136942441D02*
G01*
X262245379Y-136021788D01*
X263448874Y-137225283D01*
X262528221Y-138145936D01*
X261324726Y-136942441D01*
G37*
G36*
X282600306Y-130057754D02*
G01*
X284074282Y-129206754D01*
X284925282Y-130680730D01*
X283451306Y-131531730D01*
X282600306Y-130057754D01*
G37*
D13*
X279862794Y-123614244D03*
D23*
G36*
X281523511Y-127792691D02*
G01*
X282651077Y-127141691D01*
X283502077Y-128615667D01*
X282374511Y-129266667D01*
X281523511Y-127792691D01*
G37*
G36*
X280123511Y-125367819D02*
G01*
X281251077Y-124716819D01*
X282102077Y-126190795D01*
X280974511Y-126841795D01*
X280123511Y-125367819D01*
G37*
G36*
X302462494Y-124346306D02*
G01*
X304106500Y-123905796D01*
X304547010Y-125549802D01*
X302903004Y-125990312D01*
X302462494Y-124346306D01*
G37*
D13*
X301485964Y-117413832D03*
D23*
G36*
X302008632Y-121879727D02*
G01*
X303266268Y-121542745D01*
X303706778Y-123186751D01*
X302449142Y-123523733D01*
X302008632Y-121879727D01*
G37*
G36*
X301283938Y-119175135D02*
G01*
X302541574Y-118838153D01*
X302982084Y-120482159D01*
X301724448Y-120819141D01*
X301283938Y-119175135D01*
G37*
G36*
X321008269Y-119376981D02*
G01*
X322652275Y-118936471D01*
X323092785Y-120580477D01*
X321448779Y-121020987D01*
X321008269Y-119376981D01*
G37*
D13*
X320031739Y-112444507D03*
D23*
G36*
X320554407Y-116910402D02*
G01*
X321812043Y-116573420D01*
X322252553Y-118217426D01*
X320994917Y-118554408D01*
X320554407Y-116910402D01*
G37*
G36*
X319829713Y-114205810D02*
G01*
X321087349Y-113868828D01*
X321527859Y-115512834D01*
X320270223Y-115849816D01*
X319829713Y-114205810D01*
G37*
G36*
X192214600Y-161604317D02*
G01*
X193065600Y-163078293D01*
X191591624Y-163929293D01*
X190740624Y-162455317D01*
X192214600Y-161604317D01*
G37*
D13*
X198658110Y-158866805D03*
D23*
G36*
X194479663Y-160527522D02*
G01*
X195130663Y-161655088D01*
X193656687Y-162506088D01*
X193005687Y-161378522D01*
X194479663Y-160527522D01*
G37*
G36*
X196904535Y-159127522D02*
G01*
X197555535Y-160255088D01*
X196081559Y-161106088D01*
X195430559Y-159978522D01*
X196904535Y-159127522D01*
G37*
G36*
X178283989Y-169537512D02*
G01*
X179134989Y-171011488D01*
X177661013Y-171862488D01*
X176810013Y-170388512D01*
X178283989Y-169537512D01*
G37*
D13*
X184727499Y-166800000D03*
D23*
G36*
X180549052Y-168460717D02*
G01*
X181200052Y-169588283D01*
X179726076Y-170439283D01*
X179075076Y-169311717D01*
X180549052Y-168460717D01*
G37*
G36*
X182973924Y-167060717D02*
G01*
X183624924Y-168188283D01*
X182150948Y-169039283D01*
X181499948Y-167911717D01*
X182973924Y-167060717D01*
G37*
G36*
X164746226Y-153305957D02*
G01*
X165949722Y-154509453D01*
X164746226Y-155712949D01*
X163542730Y-154509453D01*
X164746226Y-153305957D01*
G37*
D13*
X170261658Y-148994021D03*
D23*
G36*
X166655414Y-151679612D02*
G01*
X167576067Y-152600265D01*
X166372572Y-153803760D01*
X165451919Y-152883107D01*
X166655414Y-151679612D01*
G37*
G36*
X168635312Y-149699714D02*
G01*
X169555965Y-150620367D01*
X168352470Y-151823862D01*
X167431817Y-150903209D01*
X168635312Y-149699714D01*
G37*
G36*
X150532856Y-138317194D02*
G01*
X152006832Y-139168194D01*
X151155832Y-140642170D01*
X149681856Y-139791170D01*
X150532856Y-138317194D01*
G37*
D13*
X154744344Y-132724684D03*
D23*
G36*
X151956061Y-136252131D02*
G01*
X153083627Y-136903131D01*
X152232627Y-138377107D01*
X151105061Y-137726107D01*
X151956061Y-136252131D01*
G37*
G36*
X153356061Y-133827259D02*
G01*
X154483627Y-134478259D01*
X153632627Y-135952235D01*
X152505061Y-135301235D01*
X153356061Y-133827259D01*
G37*
G36*
X131908272Y-128455828D02*
G01*
X133552278Y-128896338D01*
X133111768Y-130540344D01*
X131467762Y-130099834D01*
X131908272Y-128455828D01*
G37*
D13*
X134528808Y-121963864D03*
D23*
G36*
X132748504Y-126092777D02*
G01*
X134006140Y-126429759D01*
X133565630Y-128073765D01*
X132307994Y-127736783D01*
X132748504Y-126092777D01*
G37*
G36*
X133473198Y-123388185D02*
G01*
X134730834Y-123725167D01*
X134290324Y-125369173D01*
X133032688Y-125032191D01*
X133473198Y-123388185D01*
G37*
G36*
X113607445Y-123345081D02*
G01*
X115251451Y-123785591D01*
X114810941Y-125429597D01*
X113166935Y-124989087D01*
X113607445Y-123345081D01*
G37*
D13*
X116227981Y-116853117D03*
D23*
G36*
X114447677Y-120982030D02*
G01*
X115705313Y-121319012D01*
X115264803Y-122963018D01*
X114007167Y-122626036D01*
X114447677Y-120982030D01*
G37*
G36*
X115172371Y-118277438D02*
G01*
X116430007Y-118614420D01*
X115989497Y-120258426D01*
X114731861Y-119921444D01*
X115172371Y-118277438D01*
G37*
G36*
X268750188Y-115986852D02*
G01*
X270394194Y-115546342D01*
X270834704Y-117190348D01*
X269190698Y-117630858D01*
X268750188Y-115986852D01*
G37*
D13*
X267773658Y-109054378D03*
D23*
G36*
X268296326Y-113520273D02*
G01*
X269553962Y-113183291D01*
X269994472Y-114827297D01*
X268736836Y-115164279D01*
X268296326Y-113520273D01*
G37*
G36*
X267571632Y-110815681D02*
G01*
X268829268Y-110478699D01*
X269269778Y-112122705D01*
X268012142Y-112459687D01*
X267571632Y-110815681D01*
G37*
G36*
X264331998Y-97759274D02*
G01*
X265976004Y-97318764D01*
X266416514Y-98962770D01*
X264772508Y-99403280D01*
X264331998Y-97759274D01*
G37*
D13*
X263355468Y-90826800D03*
D23*
G36*
X263878136Y-95292695D02*
G01*
X265135772Y-94955713D01*
X265576282Y-96599719D01*
X264318646Y-96936701D01*
X263878136Y-95292695D01*
G37*
G36*
X263153442Y-92588103D02*
G01*
X264411078Y-92251121D01*
X264851588Y-93895127D01*
X263593952Y-94232109D01*
X263153442Y-92588103D01*
G37*
G36*
X258915065Y-79281670D02*
G01*
X260559071Y-78841160D01*
X260999581Y-80485166D01*
X259355575Y-80925676D01*
X258915065Y-79281670D01*
G37*
D13*
X257938535Y-72349196D03*
D23*
G36*
X258461203Y-76815091D02*
G01*
X259718839Y-76478109D01*
X260159349Y-78122115D01*
X258901713Y-78459097D01*
X258461203Y-76815091D01*
G37*
G36*
X257736509Y-74110499D02*
G01*
X258994145Y-73773517D01*
X259434655Y-75417523D01*
X258177019Y-75754505D01*
X257736509Y-74110499D01*
G37*
G36*
X253997503Y-60929079D02*
G01*
X255641509Y-60488569D01*
X256082019Y-62132575D01*
X254438013Y-62573085D01*
X253997503Y-60929079D01*
G37*
D13*
X253020973Y-53996605D03*
D23*
G36*
X253543641Y-58462500D02*
G01*
X254801277Y-58125518D01*
X255241787Y-59769524D01*
X253984151Y-60106506D01*
X253543641Y-58462500D01*
G37*
G36*
X252818947Y-55757908D02*
G01*
X254076583Y-55420926D01*
X254517093Y-57064932D01*
X253259457Y-57401914D01*
X252818947Y-55757908D01*
G37*
G36*
X286533377Y-108944253D02*
G01*
X288177383Y-108503743D01*
X288617893Y-110147749D01*
X286973887Y-110588259D01*
X286533377Y-108944253D01*
G37*
D13*
X285556847Y-102011779D03*
D23*
G36*
X286079515Y-106477674D02*
G01*
X287337151Y-106140692D01*
X287777661Y-107784698D01*
X286520025Y-108121680D01*
X286079515Y-106477674D01*
G37*
G36*
X285354821Y-103773082D02*
G01*
X286612457Y-103436100D01*
X287052967Y-105080106D01*
X285795331Y-105417088D01*
X285354821Y-103773082D01*
G37*
G36*
X281356996Y-89625736D02*
G01*
X283001002Y-89185226D01*
X283441512Y-90829232D01*
X281797506Y-91269742D01*
X281356996Y-89625736D01*
G37*
D13*
X280380466Y-82693262D03*
D23*
G36*
X280903134Y-87159157D02*
G01*
X282160770Y-86822175D01*
X282601280Y-88466181D01*
X281343644Y-88803163D01*
X280903134Y-87159157D01*
G37*
G36*
X280178440Y-84454565D02*
G01*
X281436076Y-84117583D01*
X281876586Y-85761589D01*
X280618950Y-86098571D01*
X280178440Y-84454565D01*
G37*
G36*
X276698254Y-72239071D02*
G01*
X278342260Y-71798561D01*
X278782770Y-73442567D01*
X277138764Y-73883077D01*
X276698254Y-72239071D01*
G37*
D13*
X275721724Y-65306597D03*
D23*
G36*
X276244392Y-69772492D02*
G01*
X277502028Y-69435510D01*
X277942538Y-71079516D01*
X276684902Y-71416498D01*
X276244392Y-69772492D01*
G37*
G36*
X275519698Y-67067900D02*
G01*
X276777334Y-66730918D01*
X277217844Y-68374924D01*
X275960208Y-68711906D01*
X275519698Y-67067900D01*
G37*
G36*
X271780692Y-53886481D02*
G01*
X273424698Y-53445971D01*
X273865208Y-55089977D01*
X272221202Y-55530487D01*
X271780692Y-53886481D01*
G37*
D13*
X270804162Y-46954007D03*
D23*
G36*
X271326830Y-51419902D02*
G01*
X272584466Y-51082920D01*
X273024976Y-52726926D01*
X271767340Y-53063908D01*
X271326830Y-51419902D01*
G37*
G36*
X270602136Y-48715310D02*
G01*
X271859772Y-48378328D01*
X272300282Y-50022334D01*
X271042646Y-50359316D01*
X270602136Y-48715310D01*
G37*
G36*
X303888585Y-99531668D02*
G01*
X305532591Y-99091158D01*
X305973101Y-100735164D01*
X304329095Y-101175674D01*
X303888585Y-99531668D01*
G37*
D13*
X302912055Y-92599194D03*
D23*
G36*
X303434723Y-97065089D02*
G01*
X304692359Y-96728107D01*
X305132869Y-98372113D01*
X303875233Y-98709095D01*
X303434723Y-97065089D01*
G37*
G36*
X302710029Y-94360497D02*
G01*
X303967665Y-94023515D01*
X304408175Y-95667521D01*
X303150539Y-96004503D01*
X302710029Y-94360497D01*
G37*
G36*
X298971024Y-81179078D02*
G01*
X300615030Y-80738568D01*
X301055540Y-82382574D01*
X299411534Y-82823084D01*
X298971024Y-81179078D01*
G37*
D13*
X297994494Y-74246604D03*
D23*
G36*
X298517162Y-78712499D02*
G01*
X299774798Y-78375517D01*
X300215308Y-80019523D01*
X298957672Y-80356505D01*
X298517162Y-78712499D01*
G37*
G36*
X297792468Y-76007907D02*
G01*
X299050104Y-75670925D01*
X299490614Y-77314931D01*
X298232978Y-77651913D01*
X297792468Y-76007907D01*
G37*
G36*
X294053462Y-62826487D02*
G01*
X295697468Y-62385977D01*
X296137978Y-64029983D01*
X294493972Y-64470493D01*
X294053462Y-62826487D01*
G37*
D13*
X293076932Y-55894013D03*
D23*
G36*
X293599600Y-60359908D02*
G01*
X294857236Y-60022926D01*
X295297746Y-61666932D01*
X294040110Y-62003914D01*
X293599600Y-60359908D01*
G37*
G36*
X292874906Y-57655316D02*
G01*
X294132542Y-57318334D01*
X294573052Y-58962340D01*
X293315416Y-59299322D01*
X292874906Y-57655316D01*
G37*
G36*
X289135900Y-44473896D02*
G01*
X290779906Y-44033386D01*
X291220416Y-45677392D01*
X289576410Y-46117902D01*
X289135900Y-44473896D01*
G37*
D13*
X288159370Y-37541422D03*
D23*
G36*
X288682038Y-42007317D02*
G01*
X289939674Y-41670335D01*
X290380184Y-43314341D01*
X289122548Y-43651323D01*
X288682038Y-42007317D01*
G37*
G36*
X287957344Y-39302725D02*
G01*
X289214980Y-38965743D01*
X289655490Y-40609749D01*
X288397854Y-40946731D01*
X287957344Y-39302725D01*
G37*
G36*
X130545956Y-104175916D02*
G01*
X132189962Y-104616426D01*
X131749452Y-106260432D01*
X130105446Y-105819922D01*
X130545956Y-104175916D01*
G37*
D13*
X133166492Y-97683952D03*
D23*
G36*
X131386188Y-101812865D02*
G01*
X132643824Y-102149847D01*
X132203314Y-103793853D01*
X130945678Y-103456871D01*
X131386188Y-101812865D01*
G37*
G36*
X132110882Y-99108273D02*
G01*
X133368518Y-99445255D01*
X132928008Y-101089261D01*
X131670372Y-100752279D01*
X132110882Y-99108273D01*
G37*
G36*
X135489400Y-85726733D02*
G01*
X137133406Y-86167243D01*
X136692896Y-87811249D01*
X135048890Y-87370739D01*
X135489400Y-85726733D01*
G37*
D13*
X138109936Y-79234769D03*
D23*
G36*
X136329632Y-83363682D02*
G01*
X137587268Y-83700664D01*
X137146758Y-85344670D01*
X135889122Y-85007688D01*
X136329632Y-83363682D01*
G37*
G36*
X137054326Y-80659090D02*
G01*
X138311962Y-80996072D01*
X137871452Y-82640078D01*
X136613816Y-82303096D01*
X137054326Y-80659090D01*
G37*
G36*
X140381079Y-67470735D02*
G01*
X142025085Y-67911245D01*
X141584575Y-69555251D01*
X139940569Y-69114741D01*
X140381079Y-67470735D01*
G37*
D13*
X143001615Y-60978771D03*
D23*
G36*
X141221311Y-65107684D02*
G01*
X142478947Y-65444666D01*
X142038437Y-67088672D01*
X140780801Y-66751690D01*
X141221311Y-65107684D01*
G37*
G36*
X141946005Y-62403092D02*
G01*
X143203641Y-62740074D01*
X142763131Y-64384080D01*
X141505495Y-64047098D01*
X141946005Y-62403092D01*
G37*
G36*
X145298641Y-49118144D02*
G01*
X146942647Y-49558654D01*
X146502137Y-51202660D01*
X144858131Y-50762150D01*
X145298641Y-49118144D01*
G37*
D13*
X147919177Y-42626180D03*
D23*
G36*
X146138873Y-46755093D02*
G01*
X147396509Y-47092075D01*
X146955999Y-48736081D01*
X145698363Y-48399099D01*
X146138873Y-46755093D01*
G37*
G36*
X146863567Y-44050501D02*
G01*
X148121203Y-44387483D01*
X147680693Y-46031489D01*
X146423057Y-45694507D01*
X146863567Y-44050501D01*
G37*
G36*
X323431744Y-99057365D02*
G01*
X325075750Y-98616855D01*
X325516260Y-100260861D01*
X323872254Y-100701371D01*
X323431744Y-99057365D01*
G37*
D13*
X322455214Y-92124891D03*
D23*
G36*
X322977882Y-96590786D02*
G01*
X324235518Y-96253804D01*
X324676028Y-97897810D01*
X323418392Y-98234792D01*
X322977882Y-96590786D01*
G37*
G36*
X322253188Y-93886194D02*
G01*
X323510824Y-93549212D01*
X323951334Y-95193218D01*
X322693698Y-95530200D01*
X322253188Y-93886194D01*
G37*
G36*
X318514182Y-80704775D02*
G01*
X320158188Y-80264265D01*
X320598698Y-81908271D01*
X318954692Y-82348781D01*
X318514182Y-80704775D01*
G37*
D13*
X317537652Y-73772301D03*
D23*
G36*
X318060320Y-78238196D02*
G01*
X319317956Y-77901214D01*
X319758466Y-79545220D01*
X318500830Y-79882202D01*
X318060320Y-78238196D01*
G37*
G36*
X317335626Y-75533604D02*
G01*
X318593262Y-75196622D01*
X319033772Y-76840628D01*
X317776136Y-77177610D01*
X317335626Y-75533604D01*
G37*
G36*
X313596620Y-62352184D02*
G01*
X315240626Y-61911674D01*
X315681136Y-63555680D01*
X314037130Y-63996190D01*
X313596620Y-62352184D01*
G37*
D13*
X312620090Y-55419710D03*
D23*
G36*
X313142758Y-59885605D02*
G01*
X314400394Y-59548623D01*
X314840904Y-61192629D01*
X313583268Y-61529611D01*
X313142758Y-59885605D01*
G37*
G36*
X312418064Y-57181013D02*
G01*
X313675700Y-56844031D01*
X314116210Y-58488037D01*
X312858574Y-58825019D01*
X312418064Y-57181013D01*
G37*
G36*
X308485873Y-44051357D02*
G01*
X310129879Y-43610847D01*
X310570389Y-45254853D01*
X308926383Y-45695363D01*
X308485873Y-44051357D01*
G37*
D13*
X307509343Y-37118883D03*
D23*
G36*
X308032011Y-41584778D02*
G01*
X309289647Y-41247796D01*
X309730157Y-42891802D01*
X308472521Y-43228784D01*
X308032011Y-41584778D01*
G37*
G36*
X307307317Y-38880186D02*
G01*
X308564953Y-38543204D01*
X309005463Y-40187210D01*
X307747827Y-40524192D01*
X307307317Y-38880186D01*
G37*
G36*
X111002797Y-103701613D02*
G01*
X112646803Y-104142123D01*
X112206293Y-105786129D01*
X110562287Y-105345619D01*
X111002797Y-103701613D01*
G37*
D13*
X113623333Y-97209649D03*
D23*
G36*
X111843029Y-101338562D02*
G01*
X113100665Y-101675544D01*
X112660155Y-103319550D01*
X111402519Y-102982568D01*
X111843029Y-101338562D01*
G37*
G36*
X112567723Y-98633970D02*
G01*
X113825359Y-98970952D01*
X113384849Y-100614958D01*
X112127213Y-100277976D01*
X112567723Y-98633970D01*
G37*
G36*
X115920359Y-85349023D02*
G01*
X117564365Y-85789533D01*
X117123855Y-87433539D01*
X115479849Y-86993029D01*
X115920359Y-85349023D01*
G37*
D13*
X118540895Y-78857059D03*
D23*
G36*
X116760591Y-82985972D02*
G01*
X118018227Y-83322954D01*
X117577717Y-84966960D01*
X116320081Y-84629978D01*
X116760591Y-82985972D01*
G37*
G36*
X117485285Y-80281380D02*
G01*
X118742921Y-80618362D01*
X118302411Y-82262368D01*
X117044775Y-81925386D01*
X117485285Y-80281380D01*
G37*
G36*
X120863803Y-66899839D02*
G01*
X122507809Y-67340349D01*
X122067299Y-68984355D01*
X120423293Y-68543845D01*
X120863803Y-66899839D01*
G37*
D13*
X123484339Y-60407875D03*
D23*
G36*
X121704035Y-64536788D02*
G01*
X122961671Y-64873770D01*
X122521161Y-66517776D01*
X121263525Y-66180794D01*
X121704035Y-64536788D01*
G37*
G36*
X122428729Y-61832196D02*
G01*
X123686365Y-62169178D01*
X123245855Y-63813184D01*
X121988219Y-63476202D01*
X122428729Y-61832196D01*
G37*
G36*
X125755483Y-48643841D02*
G01*
X127399489Y-49084351D01*
X126958979Y-50728357D01*
X125314973Y-50287847D01*
X125755483Y-48643841D01*
G37*
D13*
X128376019Y-42151877D03*
D23*
G36*
X126595715Y-46280790D02*
G01*
X127853351Y-46617772D01*
X127412841Y-48261778D01*
X126155205Y-47924796D01*
X126595715Y-46280790D01*
G37*
G36*
X127320409Y-43576198D02*
G01*
X128578045Y-43913180D01*
X128137535Y-45557186D01*
X126879899Y-45220204D01*
X127320409Y-43576198D01*
G37*
G36*
X343389013Y-100128544D02*
G01*
X345033019Y-99688034D01*
X345473529Y-101332040D01*
X343829523Y-101772550D01*
X343389013Y-100128544D01*
G37*
D13*
X342412483Y-93196070D03*
D23*
G36*
X342935151Y-97661965D02*
G01*
X344192787Y-97324983D01*
X344633297Y-98968989D01*
X343375661Y-99305971D01*
X342935151Y-97661965D01*
G37*
G36*
X342210457Y-94957373D02*
G01*
X343468093Y-94620391D01*
X343908603Y-96264397D01*
X342650967Y-96601379D01*
X342210457Y-94957373D01*
G37*
G36*
X338471451Y-81775953D02*
G01*
X340115457Y-81335443D01*
X340555967Y-82979449D01*
X338911961Y-83419959D01*
X338471451Y-81775953D01*
G37*
D13*
X337494921Y-74843479D03*
D23*
G36*
X338017589Y-79309374D02*
G01*
X339275225Y-78972392D01*
X339715735Y-80616398D01*
X338458099Y-80953380D01*
X338017589Y-79309374D01*
G37*
G36*
X337292895Y-76604782D02*
G01*
X338550531Y-76267800D01*
X338991041Y-77911806D01*
X337733405Y-78248788D01*
X337292895Y-76604782D01*
G37*
G36*
X333605653Y-63616547D02*
G01*
X335249659Y-63176037D01*
X335690169Y-64820043D01*
X334046163Y-65260553D01*
X333605653Y-63616547D01*
G37*
D13*
X332629123Y-56684073D03*
D23*
G36*
X333151791Y-61149968D02*
G01*
X334409427Y-60812986D01*
X334849937Y-62456992D01*
X333592301Y-62793974D01*
X333151791Y-61149968D01*
G37*
G36*
X332427097Y-58445376D02*
G01*
X333684733Y-58108394D01*
X334125243Y-59752400D01*
X332867607Y-60089382D01*
X332427097Y-58445376D01*
G37*
G36*
X328636327Y-45070771D02*
G01*
X330280333Y-44630261D01*
X330720843Y-46274267D01*
X329076837Y-46714777D01*
X328636327Y-45070771D01*
G37*
D13*
X327659797Y-38138297D03*
D23*
G36*
X328182465Y-42604192D02*
G01*
X329440101Y-42267210D01*
X329880611Y-43911216D01*
X328622975Y-44248198D01*
X328182465Y-42604192D01*
G37*
G36*
X327457771Y-39899600D02*
G01*
X328715407Y-39562618D01*
X329155917Y-41206624D01*
X327898281Y-41543606D01*
X327457771Y-39899600D01*
G37*
G36*
X91045529Y-104772792D02*
G01*
X92689535Y-105213302D01*
X92249025Y-106857308D01*
X90605019Y-106416798D01*
X91045529Y-104772792D01*
G37*
D13*
X93666065Y-98280828D03*
D23*
G36*
X91885761Y-102409741D02*
G01*
X93143397Y-102746723D01*
X92702887Y-104390729D01*
X91445251Y-104053747D01*
X91885761Y-102409741D01*
G37*
G36*
X92610455Y-99705149D02*
G01*
X93868091Y-100042131D01*
X93427581Y-101686137D01*
X92169945Y-101349155D01*
X92610455Y-99705149D01*
G37*
G36*
X95963091Y-86420201D02*
G01*
X97607097Y-86860711D01*
X97166587Y-88504717D01*
X95522581Y-88064207D01*
X95963091Y-86420201D01*
G37*
D13*
X98583627Y-79928237D03*
D23*
G36*
X96803323Y-84057150D02*
G01*
X98060959Y-84394132D01*
X97620449Y-86038138D01*
X96362813Y-85701156D01*
X96803323Y-84057150D01*
G37*
G36*
X97528017Y-81352558D02*
G01*
X98785653Y-81689540D01*
X98345143Y-83333546D01*
X97087507Y-82996564D01*
X97528017Y-81352558D01*
G37*
G36*
X100880652Y-68067610D02*
G01*
X102524658Y-68508120D01*
X102084148Y-70152126D01*
X100440142Y-69711616D01*
X100880652Y-68067610D01*
G37*
D13*
X103501188Y-61575646D03*
D23*
G36*
X101720884Y-65704559D02*
G01*
X102978520Y-66041541D01*
X102538010Y-67685547D01*
X101280374Y-67348565D01*
X101720884Y-65704559D01*
G37*
G36*
X102445578Y-62999967D02*
G01*
X103703214Y-63336949D01*
X103262704Y-64980955D01*
X102005068Y-64643973D01*
X102445578Y-62999967D01*
G37*
G36*
X105824096Y-49618427D02*
G01*
X107468102Y-50058937D01*
X107027592Y-51702943D01*
X105383586Y-51262433D01*
X105824096Y-49618427D01*
G37*
D13*
X108444632Y-43126463D03*
D23*
G36*
X106664328Y-47255376D02*
G01*
X107921964Y-47592358D01*
X107481454Y-49236364D01*
X106223818Y-48899382D01*
X106664328Y-47255376D01*
G37*
G36*
X107389022Y-44550784D02*
G01*
X108646658Y-44887766D01*
X108206148Y-46531772D01*
X106948512Y-46194790D01*
X107389022Y-44550784D01*
G37*
G36*
X349584637Y-105917136D02*
G01*
X350025147Y-107561142D01*
X348381141Y-108001652D01*
X347940631Y-106357646D01*
X349584637Y-105917136D01*
G37*
D13*
X356517111Y-104940606D03*
D23*
G36*
X352051216Y-105463274D02*
G01*
X352388198Y-106720910D01*
X350744192Y-107161420D01*
X350407210Y-105903784D01*
X352051216Y-105463274D01*
G37*
G36*
X354755808Y-104738580D02*
G01*
X355092790Y-105996216D01*
X353448784Y-106436726D01*
X353111802Y-105179090D01*
X354755808Y-104738580D01*
G37*
G36*
X347950602Y-86947067D02*
G01*
X348391112Y-88591073D01*
X346747106Y-89031583D01*
X346306596Y-87387577D01*
X347950602Y-86947067D01*
G37*
D13*
X354883076Y-85970537D03*
D23*
G36*
X350417181Y-86493205D02*
G01*
X350754163Y-87750841D01*
X349110157Y-88191351D01*
X348773175Y-86933715D01*
X350417181Y-86493205D01*
G37*
G36*
X353121773Y-85768511D02*
G01*
X353458755Y-87026147D01*
X351814749Y-87466657D01*
X351477767Y-86209021D01*
X353121773Y-85768511D01*
G37*
G36*
X343084804Y-68787661D02*
G01*
X343525314Y-70431667D01*
X341881308Y-70872177D01*
X341440798Y-69228171D01*
X343084804Y-68787661D01*
G37*
D13*
X350017278Y-67811131D03*
D23*
G36*
X345551383Y-68333799D02*
G01*
X345888365Y-69591435D01*
X344244359Y-70031945D01*
X343907377Y-68774309D01*
X345551383Y-68333799D01*
G37*
G36*
X348255975Y-67609105D02*
G01*
X348592957Y-68866741D01*
X346948951Y-69307251D01*
X346611969Y-68049615D01*
X348255975Y-67609105D01*
G37*
G36*
X338115478Y-50241885D02*
G01*
X338555988Y-51885891D01*
X336911982Y-52326401D01*
X336471472Y-50682395D01*
X338115478Y-50241885D01*
G37*
D13*
X345047952Y-49265355D03*
D23*
G36*
X340582057Y-49788023D02*
G01*
X340919039Y-51045659D01*
X339275033Y-51486169D01*
X338938051Y-50228533D01*
X340582057Y-49788023D01*
G37*
G36*
X343286649Y-49063329D02*
G01*
X343623631Y-50320965D01*
X341979625Y-50761475D01*
X341642643Y-49503839D01*
X343286649Y-49063329D01*
G37*
G36*
X72227064Y-101593896D02*
G01*
X73871070Y-102034406D01*
X73430560Y-103678412D01*
X71786554Y-103237902D01*
X72227064Y-101593896D01*
G37*
D13*
X74847600Y-95101932D03*
D23*
G36*
X73067296Y-99230845D02*
G01*
X74324932Y-99567827D01*
X73884422Y-101211833D01*
X72626786Y-100874851D01*
X73067296Y-99230845D01*
G37*
G36*
X73791990Y-96526253D02*
G01*
X75049626Y-96863235D01*
X74609116Y-98507241D01*
X73351480Y-98170259D01*
X73791990Y-96526253D01*
G37*
G36*
X77170507Y-83144713D02*
G01*
X78814513Y-83585223D01*
X78374003Y-85229229D01*
X76729997Y-84788719D01*
X77170507Y-83144713D01*
G37*
D13*
X79791043Y-76652749D03*
D23*
G36*
X78010739Y-80781662D02*
G01*
X79268375Y-81118644D01*
X78827865Y-82762650D01*
X77570229Y-82425668D01*
X78010739Y-80781662D01*
G37*
G36*
X78735433Y-78077070D02*
G01*
X79993069Y-78414052D01*
X79552559Y-80058058D01*
X78294923Y-79721076D01*
X78735433Y-78077070D01*
G37*
G36*
X82088069Y-64792122D02*
G01*
X83732075Y-65232632D01*
X83291565Y-66876638D01*
X81647559Y-66436128D01*
X82088069Y-64792122D01*
G37*
D13*
X84708605Y-58300158D03*
D23*
G36*
X82928301Y-62429071D02*
G01*
X84185937Y-62766053D01*
X83745427Y-64410059D01*
X82487791Y-64073077D01*
X82928301Y-62429071D01*
G37*
G36*
X83652995Y-59724479D02*
G01*
X84910631Y-60061461D01*
X84470121Y-61705467D01*
X83212485Y-61368485D01*
X83652995Y-59724479D01*
G37*
G36*
X86979749Y-46536124D02*
G01*
X88623755Y-46976634D01*
X88183245Y-48620640D01*
X86539239Y-48180130D01*
X86979749Y-46536124D01*
G37*
D13*
X89600285Y-40044160D03*
D23*
G36*
X87819981Y-44173073D02*
G01*
X89077617Y-44510055D01*
X88637107Y-46154061D01*
X87379471Y-45817079D01*
X87819981Y-44173073D01*
G37*
G36*
X88544675Y-41468481D02*
G01*
X89802311Y-41805463D01*
X89361801Y-43449469D01*
X88104165Y-43112487D01*
X88544675Y-41468481D01*
G37*
M02*
