M48
; DRILL file {KiCad (6.0.0)} date Sat May 14 17:53:26 2022
; FORMAT={-:-/ absolute / inch / decimal}
; #@! TF.CreationDate,2022-05-14T17:53:26+09:00
; #@! TF.GenerationSoftware,Kicad,Pcbnew,(6.0.0)
; #@! TF.FileFunction,Plated,1,2,PTH
FMAT,2
INCH
; #@! TA.AperFunction,Plated,PTH,ViaDrill
T1C0.0118
; #@! TA.AperFunction,Plated,PTH,ViaDrill
T2C0.0236
; #@! TA.AperFunction,Plated,PTH,ComponentDrill
T3C0.0276
; #@! TA.AperFunction,Plated,PTH,ComponentDrill
T4C0.0299
; #@! TA.AperFunction,Plated,PTH,ComponentDrill
T5C0.0300
; #@! TA.AperFunction,Plated,PTH,ComponentDrill
T6C0.0354
; #@! TA.AperFunction,Plated,PTH,ComponentDrill
T7C0.0433
; #@! TA.AperFunction,Plated,PTH,ComponentDrill
T8C0.0472
; #@! TA.AperFunction,Plated,PTH,ComponentDrill
T9C0.0500
; #@! TA.AperFunction,Plated,PTH,ComponentDrill
T10C0.0506
; #@! TA.AperFunction,Plated,PTH,ComponentDrill
T11C0.0590
; #@! TA.AperFunction,Plated,PTH,ComponentDrill
T12C0.0591
; #@! TA.AperFunction,Plated,PTH,ComponentDrill
T13C0.0670
%
G90
G05
T1
X2.548Y-4.7622
X2.5949Y-3.3736
X2.5996Y-4.1319
X2.6028Y-2.6362
X2.6229Y-2.6106
X2.6229Y-4.1059
X2.623Y-4.8161
X2.6232Y-3.3481
X2.6311Y-5.6291
X2.6622Y-5.6031
X2.9417Y-2.6138
X2.9417Y-4.1079
X2.9418Y-4.8449
X2.9421Y-3.35
X2.9724Y-2.6051
X2.9728Y-3.3571
X2.974Y-4.0965
X2.9799Y-4.8472
X2.9811Y-5.5961
X3.0189Y-5.5945
X3.1854Y-2.2003
X3.2811Y-4.0594
X3.2906Y-4.8157
X3.3067Y-3.3449
X3.3091Y-2.5943
X3.3273Y-4.8151
X3.3305Y-2.5697
X3.3315Y-3.3193
X3.3315Y-4.0441
X3.3431Y-5.5865
X3.3709Y-5.5609
X3.6358Y-5.3326
X3.6504Y-4.0638
X3.6504Y-4.7933
X3.6507Y-3.313
X3.6512Y-2.5764
X3.6768Y-3.3386
X3.6827Y-2.5634
X3.687Y-4.063
X3.6897Y-5.5544
X3.7094Y-4.7307
X3.7193Y-5.4113
X3.7339Y-5.5567
X3.9996Y-4.7201
X4.002Y-3.7465
X4.011Y-2.298
X4.0119Y-4.5106
X4.0122Y-3.0291
X4.0386Y-5.5201
X4.039Y-4.4945
X4.0402Y-2.2551
X4.0402Y-3.0063
X4.0402Y-3.7516
X4.0795Y-5.5283
X4.1185Y-4.9522
X4.128Y-4.9263
X4.1661Y-5.3842
X4.3335Y-1.7798
X4.359Y-2.2587
X4.359Y-3.0036
X4.359Y-3.7288
X4.359Y-4.4866
X4.3846Y-1.7365
X4.3917Y-2.2622
X4.3945Y-2.9992
X4.3986Y-5.5218
X4.4161Y-3.7465
X4.4311Y-5.5457
X4.4425Y-4.4409
X4.4957Y-1.9475
X4.4957Y-2.6956
X4.4957Y-3.4436
X4.4957Y-4.1916
X4.5146Y-3.9333
X4.5157Y-1.6889
X4.5173Y-1.9235
X4.5173Y-2.6715
X4.5173Y-3.4195
X4.5173Y-4.1676
X4.522Y-1.9971
X4.522Y-2.7452
X4.522Y-3.4932
X4.522Y-4.2412
X4.5268Y-5.0138
X4.5272Y-4.9227
X4.535Y-5.2152
X4.5406Y-4.3413
X4.541Y-3.593
X4.5413Y-2.1512
X4.5418Y-2.7146
X4.5421Y-1.9666
X4.5421Y-3.4626
X4.5429Y-2.8449
X4.5437Y-4.2107
X4.5484Y-4.766
X4.5516Y-3.2717
X4.5539Y-1.7286
X4.5539Y-3.9727
X4.5551Y-5.0972
X4.5567Y-5.1912
X4.561Y-2.5248
X4.5614Y-5.2648
X4.5693Y-2.7157
X4.5696Y-1.9675
X4.5696Y-3.4636
X4.5712Y-4.2109
X4.5713Y-3.2931
X4.5803Y-2.5472
X4.5814Y-5.2343
X4.5815Y-5.4019
X4.5854Y-1.9952
X4.5854Y-2.7432
X4.5854Y-3.4912
X4.5854Y-4.2393
X4.589Y-2.6715
X4.5894Y-1.9235
X4.5894Y-3.4195
X4.5921Y-4.1676
X4.5933Y-1.768
X4.5933Y-4.0121
X4.5937Y-3.3165
X4.6016Y-2.5654
X4.6079Y-4.7869
X4.6087Y-4.8487
X4.609Y-5.2353
X4.6106Y-2.6979
X4.611Y-1.9499
X4.611Y-3.4459
X4.6138Y-4.194
X4.6248Y-5.2629
X4.6258Y-4.6818
X4.6288Y-5.1912
X4.6307Y-4.9177
X4.6307Y-5.4223
X4.6323Y-5.1004
X4.6504Y-5.2176
X4.6886Y-4.4055
X4.6894Y-4.4748
X4.7004Y-4.3409
X4.7165Y-2.8732
X4.7181Y-2.0992
X4.7185Y-3.6106
X4.7487Y-2.0919
X4.7488Y-3.5851
X4.7488Y-4.3193
X4.7496Y-2.8484
X4.7568Y-5.5077
X4.7882Y-5.4821
X4.8874Y-5.0089
X4.9713Y-4.5515
X5.0094Y-4.5589
X5.0205Y-4.8574
X5.0673Y-4.5538
X5.0677Y-3.5882
X5.0677Y-4.3193
X5.0685Y-2.8418
X5.0689Y-2.0953
X5.0945Y-2.1177
X5.0996Y-3.5898
X5.1028Y-2.8539
X5.1071Y-5.4756
X5.1335Y-5.5843
X5.1421Y-5.5126
X5.1516Y-4.3118
X5.216Y-5.3723
X5.2185Y-4.5719
X5.2359Y-4.5933
X5.263Y-1.6129
X5.3277Y-4.9011
X5.3378Y-4.8278
X5.3409Y-5.6343
X5.3658Y-4.7752
X5.3883Y-4.7594
X5.3917Y-4.3621
X5.4094Y-4.9849
X5.4177Y-4.498
X5.4232Y-3.7476
X5.4256Y-2.2457
X5.4276Y-3.022
X5.4378Y-1.4398
X5.4539Y-4.4965
X5.4548Y-5.2948
X5.4575Y-3.7543
X5.4578Y-2.2548
X5.4579Y-2.9965
X5.4594Y-5.5481
X5.4894Y-5.5413
X5.5168Y-1.7156
X5.5319Y-5.537
X5.5335Y-4.8278
X5.5484Y-1.4912
X5.5598Y-5.424
X5.5642Y-4.6846
X5.6006Y-5.3862
X5.6634Y-1.5475
X5.6839Y-1.3782
X5.7626Y-1.3704
X5.7764Y-3.7469
X5.7764Y-4.4768
X5.7768Y-3.0063
X5.7921Y-1.3951
X5.796Y-2.2395
X5.8031Y-3.7724
X5.813Y-2.9972
X5.8174Y-2.2651
X5.861Y-1.5633
X5.865Y-1.3951
X5.8739Y-4.5056
X5.8921Y-1.4148
X5.9166Y-1.2282
X5.9184Y-5.3606
X5.9484Y-5.387
X5.9634Y-1.4148
X5.9673Y-1.4963
X5.9921Y-1.4305
X6.0638Y-1.4305
X6.0657Y-1.5412
X6.0768Y-3.774
X6.0854Y-4.498
X6.0921Y-1.4511
X6.1024Y-4.7822
X6.1063Y-2.9972
X6.1276Y-4.7606
X6.138Y-2.3676
X6.1592Y-4.7979
X6.1614Y-2.3454
X6.1638Y-1.4463
X6.1645Y-1.5255
X6.165Y-3.0791
X6.1657Y-4.5768
X6.1662Y-3.8307
X6.1733Y-1.8637
X6.2138Y-1.4665
X6.2626Y-1.462
X6.2665Y-1.5098
X6.3091Y-1.6965
X6.3248Y-5.4004
X6.3517Y-5.3748
X6.365Y-1.4783
X6.4496Y-5.261
X6.485Y-3.8209
X6.485Y-4.5827
X6.4874Y-2.3307
X6.489Y-3.0595
X6.5122Y-3.8465
X6.515Y-2.3559
X6.5173Y-4.576
X6.5303Y-3.0858
X6.585Y-4.5582
X6.6126Y-4.5416
X6.615Y-3.5928
X6.6697Y-5.4217
X6.7004Y-4.3054
X6.7149Y-4.2244
X6.7179Y-2.421
X6.7354Y-4.7089
X6.7362Y-4.4672
X6.7382Y-4.7445
X6.7394Y-5.4602
X6.7395Y-4.6701
X6.7665Y-3.7465
X6.7693Y-4.7648
X6.778Y-5.5601
X6.8235Y-4.7284
X6.8346Y-5.4339
X6.839Y-4.6582
X6.8445Y-3.6144
X6.8465Y-3.0404
X6.8646Y-3.5578
X6.8878Y-5.4445
X6.8933Y-4.7382
X6.8981Y-4.7038
X6.9437Y-3.5928
X6.9441Y-3.2995
X6.9594Y-5.6209
X6.9599Y-3.3977
X6.9669Y-2.7456
X6.9874Y-4.2306
X6.9886Y-2.8471
X7.0093Y-2.9612
X7.0123Y-5.4896
X7.0251Y-5.5617
X7.0339Y-2.8469
X7.0409Y-3.8093
X7.0551Y-2.9488
X7.065Y-2.9937
X7.0657Y-4.9913
X7.0693Y-3.0224
X7.0715Y-5.5717
X7.1169Y-1.5121
X7.1392Y-1.4959
X7.1472Y-5.0606
X7.1543Y-1.7129
X7.1599Y-2.3428
X7.1628Y-3.2282
X7.1634Y-3.3278
X7.1648Y-1.6874
X7.1819Y-2.2522
X7.2091Y-4.7913
X7.2205Y-3.3278
X7.222Y-3.2286
X7.2276Y-3.1264
X7.2299Y-4.8217
X7.278Y-4.9461
X7.2886Y-3.2274
X7.2888Y-3.1166
X7.2949Y-3.3278
X7.302Y-2.7522
X7.3236Y-2.6499
X7.3453Y-2.5448
X7.3484Y-4.8787
X7.3516Y-3.2274
X7.352Y-3.3278
X7.365Y-2.4491
X7.3709Y-2.8944
X7.3728Y-4.2039
X7.3744Y-5.7
X7.3866Y-2.3507
X7.3866Y-2.7956
X7.3906Y-4.3668
X7.4035Y-5.712
X7.4083Y-2.2522
X7.4083Y-2.6932
X7.4682Y-3.3019
X7.4791Y-3.0881
X7.4809Y-3.0588
X7.4866Y-3.1228
X7.4874Y-3.3652
X7.515Y-3.3373
X7.5157Y-3.27
X7.5252Y-3.5491
X7.5731Y-3.5611
X7.5752Y-5.2882
X7.7134Y-4.1267
T2
X6.5146Y-1.8152
X6.6283Y-1.9121
X6.6469Y-2.4436
X6.6559Y-4.54
X6.6563Y-3.8786
X6.6587Y-3.2315
X7.013Y-3.7038
X7.0343Y-3.7522
X7.2547Y-2.0475
X7.4295Y-1.7571
X7.6654Y-3.5906
X7.7Y-3.7172
X7.7386Y-3.6432
X7.7787Y-3.7172
X7.8575Y-3.7172
T3
X7.4622Y-4.9926
X7.4855Y-4.8953
X7.5089Y-4.7981
X7.5594Y-5.0159
X7.5828Y-4.9187
X7.6061Y-4.8214
X7.7539Y-5.0626
X7.8006Y-4.8681
T4
X5.6138Y-1.3389
X5.6138Y-1.6514
X5.6638Y-1.2889
X5.6638Y-1.6014
X5.7138Y-1.3389
X5.7138Y-1.6514
X5.7638Y-1.2889
X5.7638Y-1.6014
X5.8138Y-1.3389
X5.8138Y-1.6514
X5.8638Y-1.2889
X5.8638Y-1.6014
X5.9138Y-1.3389
X5.9138Y-1.6514
X5.9638Y-1.2889
X5.9638Y-1.6014
X6.0138Y-1.3389
X6.0138Y-1.6514
X6.0638Y-1.2889
X6.0638Y-1.6014
X6.1138Y-1.3389
X6.1138Y-1.6514
X6.1638Y-1.2889
X6.1638Y-1.6014
X6.2138Y-1.3389
X6.2138Y-1.6514
X6.2638Y-1.2889
X6.2638Y-1.6014
X6.3138Y-1.3389
X6.3138Y-1.6514
X6.3638Y-1.2889
X6.3638Y-1.6014
X6.4138Y-1.3389
X6.4138Y-1.6514
X6.4638Y-1.2889
X6.4638Y-1.6014
X6.5138Y-1.3389
X6.5138Y-1.6514
X6.5638Y-1.2889
X6.5638Y-1.6014
X6.6138Y-1.3389
X6.6138Y-1.6514
X6.6638Y-1.2889
X6.6638Y-1.6014
X6.7138Y-1.3389
X6.7138Y-1.6514
X6.7638Y-1.2889
X6.7638Y-1.6014
X6.8138Y-1.3389
X6.8138Y-1.6514
X6.8638Y-1.2889
X6.8638Y-1.6014
X6.9138Y-1.3389
X6.9138Y-1.6514
X6.9638Y-1.2889
X6.9638Y-1.6014
T5
X2.6823Y-2.7129
X2.6823Y-3.4609
X2.6823Y-4.2089
X2.6823Y-4.957
X2.7217Y-5.705
X2.8823Y-2.7129
X2.8823Y-3.4609
X2.8823Y-4.2089
X2.8823Y-4.957
X2.9217Y-5.705
X3.0972Y-2.2192
X3.0972Y-2.4192
X3.0972Y-2.9672
X3.0972Y-3.1672
X3.0972Y-3.7152
X3.0972Y-3.9152
X3.0972Y-4.4633
X3.0972Y-4.6633
X3.1366Y-5.2113
X3.1366Y-5.4113
X3.3909Y-2.6735
X3.3909Y-3.4215
X3.3909Y-4.1696
X3.3909Y-4.9176
X3.4303Y-5.6656
X3.5909Y-2.6735
X3.5909Y-3.4215
X3.5909Y-4.1696
X3.5909Y-4.9176
X3.6303Y-5.6656
X3.8059Y-2.0806
X3.8059Y-2.2806
X3.8059Y-2.8357
X3.8059Y-3.0357
X3.8059Y-3.5767
X3.8059Y-3.7767
X3.8059Y-4.3318
X3.8059Y-4.5318
X3.8453Y-5.0728
X3.8453Y-5.2728
X3.8602Y-4.9731
X3.8606Y-4.8818
X3.8611Y-4.7936
X3.8846Y-2.0806
X3.8846Y-2.2806
X3.8846Y-2.8357
X3.8846Y-3.0357
X3.8846Y-3.5767
X3.8846Y-3.7767
X3.8846Y-4.3318
X3.8846Y-4.5318
X3.924Y-5.0735
X3.924Y-5.2735
X4.0602Y-4.9731
X4.0606Y-4.8818
X4.0611Y-4.7936
X4.0996Y-2.3585
X4.0996Y-3.1066
X4.0996Y-3.8546
X4.0996Y-4.6026
X4.139Y-5.6263
X4.211Y-4.9467
X4.2114Y-4.7585
X4.2114Y-4.8522
X4.2996Y-2.3585
X4.2996Y-3.1066
X4.2996Y-3.8546
X4.2996Y-4.6026
X4.339Y-5.6263
X4.411Y-4.9467
X4.4114Y-4.7585
X4.4114Y-4.8522
X4.7335Y-4.7408
X4.7339Y-4.8337
X4.7346Y-4.6471
X4.8083Y-2.2011
X4.8083Y-2.9491
X4.8083Y-3.6971
X4.8083Y-4.4452
X4.8476Y-5.5869
X4.9335Y-4.7408
X4.9339Y-4.8337
X4.9346Y-4.6471
X5.0083Y-2.2011
X5.0083Y-2.9491
X5.0083Y-3.6971
X5.0083Y-4.4452
X5.0476Y-5.5869
X5.0665Y-4.8377
X5.0669Y-4.6436
X5.0669Y-4.7428
X5.2232Y-1.7467
X5.2232Y-1.9467
X5.2232Y-2.4948
X5.2232Y-2.6948
X5.2232Y-3.2428
X5.2232Y-3.4428
X5.2232Y-3.9908
X5.2232Y-4.1908
X5.263Y-5.0617
X5.263Y-5.2617
X5.2634Y-5.3393
X5.2634Y-5.5393
X5.2665Y-4.8377
X5.2669Y-4.6436
X5.2669Y-4.7428
X5.3012Y-1.7475
X5.3012Y-1.9475
X5.3012Y-3.2435
X5.3012Y-3.4435
X5.3024Y-2.4932
X5.3024Y-2.6932
X5.3024Y-3.9893
X5.3024Y-4.1893
X5.5169Y-2.3585
X5.5169Y-3.1066
X5.5169Y-3.8546
X5.5169Y-4.6026
X5.6688Y-5.4834
X5.7169Y-2.3585
X5.7169Y-3.1066
X5.7169Y-3.8546
X5.7169Y-4.6026
X5.868Y-5.4659
X6.002Y-1.905
X6.002Y-2.105
X6.002Y-3.401
X6.002Y-3.601
X6.0031Y-2.6507
X6.0031Y-2.8507
X6.0031Y-4.1467
X6.0031Y-4.3467
X6.2256Y-2.4373
X6.2256Y-3.1853
X6.2256Y-3.9333
X6.2256Y-4.6814
X6.2304Y-5.1199
X6.2652Y-4.9229
X6.3929Y-5.486
X6.4256Y-2.4373
X6.4256Y-3.1853
X6.4256Y-3.9333
X6.4256Y-4.6814
X6.5899Y-5.5207
X6.9257Y-4.8137
X7.0323Y-3.1452
X7.0323Y-3.3451
X7.0323Y-3.3452
X7.0323Y-3.5451
X7.0884Y-5.6801
X7.1164Y-4.8739
X7.163Y-3.5404
X7.1654Y-3.4286
X7.2696Y-5.7646
X7.363Y-3.5404
X7.3654Y-3.4286
T7
X6.7996Y-1.9979
X6.7996Y-2.0979
X6.7996Y-2.1979
X6.7996Y-2.2979
X6.7996Y-2.3979
X6.7996Y-2.4979
X6.7996Y-2.5979
X6.7996Y-2.6979
X6.7996Y-2.7979
X6.7996Y-2.8979
X6.7996Y-2.9979
X6.7996Y-3.0979
X6.7996Y-3.1979
X6.7996Y-3.2979
X6.7996Y-3.3979
X6.7996Y-3.4979
X6.8996Y-1.8479
X6.8996Y-1.9479
X6.8996Y-2.0479
X6.8996Y-2.1479
X6.8996Y-2.2479
X6.8996Y-2.3479
X6.8996Y-2.4479
X6.8996Y-2.5479
X6.8996Y-2.6479
X6.8996Y-2.7479
X6.8996Y-2.8479
X6.8996Y-2.9479
X7.4996Y-1.8479
X7.4996Y-1.9479
X7.4996Y-2.0479
X7.4996Y-2.1479
X7.4996Y-2.2479
X7.4996Y-2.3479
X7.4996Y-2.4479
X7.4996Y-2.5479
X7.4996Y-2.6479
X7.4996Y-2.7479
X7.4996Y-2.8479
X7.4996Y-2.9479
X7.5996Y-2.3979
X7.5996Y-2.4979
X7.5996Y-2.5979
X7.5996Y-2.6979
X7.5996Y-2.7979
X7.5996Y-2.8979
X7.5996Y-2.9979
X7.5996Y-3.0979
X7.5996Y-3.1979
X7.5996Y-3.2979
X7.5996Y-3.3979
X7.5996Y-3.4979
T8
X2.5815Y-2.2444
X2.5815Y-2.9924
X2.5815Y-3.7404
X2.5815Y-4.4885
X2.6209Y-5.2365
X2.9831Y-2.2444
X2.9831Y-2.9924
X2.9831Y-3.7404
X2.9831Y-4.4885
X3.0224Y-5.2365
X3.2902Y-2.205
X3.2902Y-2.953
X3.2902Y-3.7011
X3.2902Y-4.4491
X3.3295Y-5.1971
X3.6917Y-2.205
X3.6917Y-2.953
X3.6917Y-3.7011
X3.6917Y-4.4491
X3.7311Y-5.1971
X3.9988Y-1.89
X3.9988Y-2.6381
X3.9988Y-3.3861
X3.9988Y-4.1341
X4.0382Y-5.1578
X4.4004Y-1.89
X4.4004Y-2.6381
X4.4004Y-3.3861
X4.4004Y-4.1341
X4.4398Y-5.1578
X4.7075Y-1.7326
X4.7075Y-2.4806
X4.7075Y-3.2286
X4.7075Y-3.9767
X4.7469Y-5.1184
X5.1091Y-1.7326
X5.1091Y-2.4806
X5.1091Y-3.2286
X5.1091Y-3.9767
X5.1484Y-5.1184
X5.4161Y-1.89
X5.4161Y-2.6381
X5.4161Y-3.3861
X5.4161Y-4.1341
X5.5276Y-5.0254
X5.8177Y-1.89
X5.8177Y-2.6381
X5.8177Y-3.3861
X5.8177Y-4.1341
X5.9276Y-4.9904
X6.1248Y-1.9688
X6.1248Y-2.7168
X6.1248Y-3.4648
X6.1248Y-4.2129
X6.375Y-5.0071
X6.5264Y-1.9688
X6.5264Y-2.7168
X6.5264Y-3.4648
X6.5264Y-4.2129
X6.7705Y-5.0768
X6.8947Y-4.5769
X6.9716Y-4.3328
X7.0885Y-5.4413
X7.1967Y-5.2093
X7.2776Y-4.6977
X7.3546Y-4.4536
X7.4525Y-5.611
X7.5606Y-5.379
T9
X2.7823Y-2.1656
X2.7823Y-2.9137
X2.7823Y-3.6617
X2.7823Y-4.4097
X2.8217Y-5.1578
X3.4909Y-2.1263
X3.4909Y-2.8743
X3.4909Y-3.6223
X3.4909Y-4.3704
X3.5303Y-5.1184
X4.1996Y-1.8113
X4.1996Y-2.5593
X4.1996Y-3.3074
X4.1996Y-4.0554
X4.239Y-5.079
X4.9083Y-1.6538
X4.9083Y-2.4019
X4.9083Y-3.1499
X4.9083Y-3.8979
X4.9476Y-5.0396
X5.6169Y-1.8113
X5.6169Y-2.5593
X5.6169Y-3.3074
X5.6169Y-4.0554
X5.7207Y-4.9295
X6.3256Y-1.89
X6.3256Y-2.6381
X6.3256Y-3.3861
X6.3256Y-4.1341
X6.5864Y-4.9644
X7.1868Y-4.3181
X7.4119Y-5.2228
T10
X6.7972Y-3.957
X6.7972Y-4.057
X6.8972Y-3.957
X6.8972Y-4.0571
X6.9987Y-3.957
X6.9987Y-4.0571
X7.0972Y-3.957
X7.0972Y-4.0571
X7.1972Y-3.957
X7.1972Y-4.057
X7.2972Y-3.957
X7.2972Y-4.057
T11
X2.6823Y-2.1979
X2.6823Y-2.9459
X2.6823Y-3.694
X2.6823Y-4.442
X2.7217Y-5.19
X2.8823Y-2.1979
X2.8823Y-2.9459
X2.8823Y-3.694
X2.8823Y-4.442
X2.9217Y-5.19
X3.3909Y-2.1585
X3.3909Y-2.9066
X3.3909Y-3.6546
X3.3909Y-4.4026
X3.4303Y-5.1507
X3.5909Y-2.1585
X3.5909Y-2.9066
X3.5909Y-3.6546
X3.5909Y-4.4026
X3.6303Y-5.1507
X4.0996Y-1.8436
X4.0996Y-2.5916
X4.0996Y-3.3396
X4.0996Y-4.0877
X4.139Y-5.1113
X4.2996Y-1.8436
X4.2996Y-2.5916
X4.2996Y-3.3396
X4.2996Y-4.0877
X4.339Y-5.1113
X4.8083Y-1.6861
X4.8083Y-2.4341
X4.8083Y-3.1822
X4.8083Y-3.9302
X4.8476Y-5.0719
X5.0083Y-1.6861
X5.0083Y-2.4341
X5.0083Y-3.1822
X5.0083Y-3.9302
X5.0476Y-5.0719
X5.5169Y-1.8436
X5.5169Y-2.5916
X5.5169Y-3.3396
X5.5169Y-4.0877
X5.6239Y-4.9704
X5.7169Y-1.8436
X5.7169Y-2.5916
X5.7169Y-3.3396
X5.7169Y-4.0877
X5.8232Y-4.9529
X6.2256Y-1.9223
X6.2256Y-2.6704
X6.2256Y-3.4184
X6.2256Y-4.1664
X6.4256Y-1.9223
X6.4256Y-2.6704
X6.4256Y-3.4184
X6.4256Y-4.1664
X6.4823Y-4.9789
X6.6793Y-5.0136
X7.0817Y-4.3188
X7.2724Y-4.379
X7.3077Y-5.2098
X7.4889Y-5.2943
T12
X2.6323Y-2.2979
X2.6323Y-3.0459
X2.6323Y-3.794
X2.6323Y-4.542
X2.6717Y-5.29
X2.9323Y-2.2979
X2.9323Y-3.0459
X2.9323Y-3.794
X2.9323Y-4.542
X2.9717Y-5.29
X3.3409Y-2.2585
X3.3409Y-3.0066
X3.3409Y-3.7546
X3.3409Y-4.5026
X3.3803Y-5.2507
X3.6409Y-2.2585
X3.6409Y-3.0066
X3.6409Y-3.7546
X3.6409Y-4.5026
X3.6803Y-5.2507
X4.0496Y-1.9436
X4.0496Y-2.6916
X4.0496Y-3.4396
X4.0496Y-4.1877
X4.089Y-5.2113
X4.3496Y-1.9436
X4.3496Y-2.6916
X4.3496Y-3.4396
X4.3496Y-4.1877
X4.389Y-5.2113
X4.7583Y-1.7861
X4.7583Y-2.5341
X4.7583Y-3.2822
X4.7583Y-4.0302
X4.7976Y-5.1719
X5.0583Y-1.7861
X5.0583Y-2.5341
X5.0583Y-3.2822
X5.0583Y-4.0302
X5.0976Y-5.1719
X5.4669Y-1.9436
X5.4669Y-2.6916
X5.4669Y-3.4396
X5.4669Y-4.1877
X5.5828Y-5.0743
X5.7669Y-1.9436
X5.7669Y-2.6916
X5.7669Y-3.4396
X5.7669Y-4.1877
X5.8817Y-5.0482
X6.1756Y-2.0223
X6.1756Y-2.7704
X6.1756Y-3.5184
X6.1756Y-4.2664
X6.4157Y-5.0687
X6.4756Y-2.0223
X6.4756Y-2.7704
X6.4756Y-3.5184
X6.4756Y-4.2664
X6.7111Y-5.1208
X7.0039Y-4.3992
X7.2201Y-5.2793
X7.2901Y-4.4894
X7.492Y-5.4061
T6
G00X7.4599Y-3.9294
M15
G01X7.4442Y-3.9294
M16
G05
G00X7.4442Y-4.0105
M15
G01X7.4599Y-4.0105
M16
G05
G00X7.4875Y-3.8294
M15
G01X7.5032Y-3.8294
M16
G05
G00X7.5032Y-4.1105
M15
G01X7.4875Y-4.1105
M16
G05
G00X7.645Y-3.8294
M15
G01X7.6607Y-3.8294
M16
G05
G00X7.6607Y-4.1105
M15
G01X7.645Y-4.1105
M16
G05
G00X7.7631Y-3.8294
M15
G01X7.7788Y-3.8294
M16
G05
G00X7.7788Y-4.1105
M15
G01X7.7631Y-4.1105
M16
G05
T13
G00X6.9104Y-4.4745
M15
G01X6.9262Y-4.4795
M16
G05
G00X7.1175Y-5.3418
M15
G01X7.1325Y-5.3488
M16
G05
G00X7.3077Y-4.5998
M15
G01X7.3234Y-4.6048
M16
G05
G00X7.495Y-5.5179
M15
G01X7.51Y-5.5249
M16
G05
T0
M30
