M48
; DRILL file {KiCad (6.0.0)} date Tue Feb  8 17:16:59 2022
; FORMAT={-:-/ absolute / inch / decimal}
; #@! TF.CreationDate,2022-02-08T17:16:59+09:00
; #@! TF.GenerationSoftware,Kicad,Pcbnew,(6.0.0)
; #@! TF.FileFunction,Plated,1,2,PTH
FMAT,2
INCH
; #@! TA.AperFunction,Plated,PTH,ViaDrill
T1C0.0157
; #@! TA.AperFunction,Plated,PTH,ComponentDrill
T2C0.0276
; #@! TA.AperFunction,Plated,PTH,ComponentDrill
T3C0.0299
; #@! TA.AperFunction,Plated,PTH,ComponentDrill
T4C0.0300
; #@! TA.AperFunction,Plated,PTH,ComponentDrill
T5C0.0315
; #@! TA.AperFunction,Plated,PTH,ComponentDrill
T6C0.0354
; #@! TA.AperFunction,Plated,PTH,ComponentDrill
T7C0.0433
; #@! TA.AperFunction,Plated,PTH,ComponentDrill
T8C0.0472
; #@! TA.AperFunction,Plated,PTH,ComponentDrill
T9C0.0500
; #@! TA.AperFunction,Plated,PTH,ComponentDrill
T10C0.0506
; #@! TA.AperFunction,Plated,PTH,ComponentDrill
T11C0.0590
; #@! TA.AperFunction,Plated,PTH,ComponentDrill
T12C0.0591
; #@! TA.AperFunction,Plated,PTH,ComponentDrill
T13C0.0670
%
G90
G05
T1
X1.5798Y-2.8985
X1.5798Y-3.6465
X1.5798Y-4.3945
X1.5798Y-5.1426
X1.5841Y-2.8296
X1.5841Y-3.5776
X1.5841Y-4.3257
X1.5841Y-5.0737
X1.6191Y-5.8906
X1.6234Y-5.8217
X1.9175Y-2.83
X1.9175Y-3.578
X1.9175Y-4.3261
X1.9175Y-5.0741
X1.9297Y-2.9009
X1.9297Y-3.6489
X1.9297Y-4.397
X1.9297Y-5.145
X1.9569Y-5.8221
X1.9691Y-5.893
X2.2884Y-2.8591
X2.2884Y-4.3551
X2.2884Y-5.1032
X2.2917Y-3.6195
X2.2927Y-2.7902
X2.2927Y-3.5383
X2.2927Y-4.2863
X2.2927Y-5.0343
X2.3278Y-5.8512
X2.3321Y-5.7824
X2.6262Y-2.7906
X2.6262Y-3.5387
X2.6262Y-4.2867
X2.6262Y-5.0347
X2.6384Y-2.8615
X2.6384Y-3.6096
X2.6384Y-4.3576
X2.6384Y-5.1056
X2.6656Y-5.7828
X2.6777Y-5.8537
X2.9971Y-2.5441
X2.9971Y-3.2922
X2.9971Y-4.0402
X2.9971Y-4.7882
X3.0014Y-2.4753
X3.0014Y-3.2233
X3.0014Y-3.9714
X3.0014Y-4.7194
X3.0365Y-5.8118
X3.0408Y-5.743
X3.272Y-2.2955
X3.2866Y-3.0604
X3.2913Y-3.8297
X3.3051Y-4.5967
X3.3349Y-2.4757
X3.3349Y-3.2237
X3.3349Y-3.9717
X3.3349Y-4.7198
X3.347Y-2.5466
X3.347Y-3.2946
X3.347Y-4.0426
X3.347Y-4.7907
X3.3742Y-5.7434
X3.3864Y-5.8143
X3.4196Y-2.2567
X3.4208Y-4.4927
X3.4226Y-3.0006
X3.4527Y-3.7664
X3.4583Y-3.6392
X3.4587Y-2.2061
X3.4597Y-5.5021
X3.4599Y-4.4422
X3.4614Y-2.9502
X3.4767Y-2.2413
X3.4778Y-4.4773
X3.4796Y-2.9852
X3.488Y-3.7098
X3.4906Y-2.0033
X3.4917Y-4.2045
X3.4921Y-3.7656
X3.4925Y-2.7368
X3.4961Y-3.4848
X3.4985Y-5.4518
X3.5115Y-2.2713
X3.5127Y-4.5073
X3.5145Y-3.0152
X3.5156Y-2.0413
X3.5167Y-5.4867
X3.5173Y-4.2411
X3.5187Y-2.7689
X3.5273Y-3.7122
X3.5293Y-3.5232
X3.5303Y-5.2585
X3.5337Y-2.2388
X3.5349Y-4.4748
X3.5367Y-2.9827
X3.5516Y-5.5167
X3.5555Y-5.6589
X3.5571Y-5.2935
X3.5573Y-3.7376
X3.5738Y-5.4842
X3.5754Y-2.2374
X3.5766Y-4.4734
X3.5784Y-2.9813
X3.5858Y-3.7661
X3.604Y-2.2673
X3.6051Y-4.5033
X3.6069Y-3.0112
X3.6155Y-5.4828
X3.6185Y-3.7317
X3.6363Y-4.7749
X3.6427Y-4.4844
X3.644Y-5.5127
X3.6445Y-2.2671
X3.6474Y-3.011
X3.6845Y-5.5125
X3.7058Y-2.3866
X3.7058Y-3.1347
X3.7058Y-3.8827
X3.7058Y-4.6307
X3.7101Y-2.3178
X3.7101Y-3.0658
X3.7101Y-3.8139
X3.7101Y-4.5619
X3.7451Y-5.7725
X3.7494Y-5.7036
X4.026Y-4.049
X4.0332Y-5.1687
X4.0435Y-2.3182
X4.0435Y-3.0662
X4.0435Y-3.8143
X4.0435Y-4.5623
X4.0557Y-2.3891
X4.0557Y-3.1371
X4.0557Y-3.8851
X4.0557Y-4.6332
X4.0681Y-5.0896
X4.0783Y-5.1974
X4.0807Y-5.1301
X4.0829Y-5.704
X4.089Y-2.5148
X4.095Y-5.7749
X4.102Y-3.2486
X4.1498Y-4.6565
X4.1563Y-4.8963
X4.1575Y-5.0963
X4.1854Y-4.0498
X4.1921Y-3.2455
X4.1925Y-4.773
X4.1953Y-2.5189
X4.1961Y-4.9996
X4.2031Y-4.8844
X4.2772Y-4.9206
X4.2772Y-4.9996
X4.2783Y-4.8813
X4.4144Y-2.5441
X4.4144Y-3.2922
X4.4144Y-4.0402
X4.4144Y-4.7882
X4.4187Y-2.4753
X4.4187Y-3.2233
X4.4187Y-3.9714
X4.4187Y-4.7194
X4.4965Y-5.672
X4.5008Y-5.6032
X4.5614Y-5.0947
X4.6193Y-4.9954
X4.7522Y-2.4757
X4.7522Y-3.2237
X4.7522Y-3.9717
X4.7522Y-4.7198
X4.7555Y-4.9423
X4.7643Y-2.5466
X4.7643Y-3.2946
X4.7643Y-4.0426
X4.7643Y-4.7907
X4.8343Y-5.6036
X4.8464Y-5.6744
X4.9921Y-3.0742
X4.9921Y-3.8033
X4.9921Y-4.5695
X5.0209Y-3.738
X5.072Y-5.6226
X5.0882Y-4.9969
X5.1231Y-2.6229
X5.1231Y-3.3709
X5.1231Y-4.1189
X5.1231Y-4.867
X5.1274Y-2.554
X5.1274Y-3.3021
X5.1274Y-4.0501
X5.1274Y-4.7981
X5.1764Y-5.601
X5.2458Y-5.725
X5.2678Y-5.6596
X5.3157Y-5.9551
X5.3616Y-1.7715
X5.3831Y-5.1846
X5.4039Y-2.5226
X5.4051Y-1.7283
X5.4051Y-2.4656
X5.4608Y-2.5544
X5.4608Y-3.3025
X5.4608Y-4.0505
X5.4608Y-4.7985
X5.4654Y-1.8
X5.473Y-2.6253
X5.473Y-3.3733
X5.473Y-4.1214
X5.473Y-4.8694
X5.478Y-5.0967
X5.4828Y-2.192
X5.4878Y-3.523
X5.4953Y-5.2795
X5.5579Y-2.1775
X5.5618Y-4.886
X5.563Y-3.2632
X5.5832Y-5.8179
X5.5898Y-5.7463
X5.5906Y-2.2862
X5.5945Y-4.9081
X5.5972Y-4.1785
X5.6258Y-4.677
X5.6476Y-2.3668
X5.6681Y-4.91
X5.6764Y-3.1232
X5.6957Y-2.6547
X5.6992Y-5.89
X5.711Y-2.8266
X5.7242Y-3.8839
X5.752Y-4.4276
X5.7702Y-5.1079
X5.7911Y-4.8726
X5.7945Y-2.7154
X5.8024Y-5.1364
X5.8262Y-4.2406
X5.8402Y-5.1114
X5.8587Y-5.986
X5.8656Y-3.4373
X5.8656Y-4.3543
X5.8832Y-3.9413
X5.8976Y-5.8266
X5.9226Y-4.2374
X5.9337Y-6.0165
X5.9403Y-4.1453
X5.9626Y-4.0547
X5.9748Y-4.5618
X5.9757Y-3.4205
X5.9934Y-3.5654
X5.9992Y-4.5945
X6.0111Y-3.6654
X6.052Y-5.3982
X6.0708Y-4.4578
X6.078Y-4.282
X6.0874Y-2.9378
X6.0886Y-2.8972
X6.0917Y-2.4429
X6.0921Y-2.5886
X6.1146Y-5.0809
X6.1185Y-5.3305
X6.1437Y-5.2278
X6.1441Y-2.6189
X6.1445Y-2.9378
X6.1457Y-2.8984
X6.1476Y-2.4724
X6.1482Y-2.4331
X6.2217Y-5.9872
X6.2394Y-6.1557
X6.2425Y-2.1311
X6.2531Y-3.8571
X6.2589Y-1.8793
X6.2689Y-4.4008
X6.2708Y-2.271
X6.2885Y-2.871
X6.2885Y-3.5127
X6.2988Y-4.3193
X6.3062Y-2.9825
X6.3062Y-3.8029
X6.3104Y-1.8681
X6.3118Y-6.1978
X6.3239Y-3.0716
X6.3239Y-3.8996
X6.3239Y-2.5247
X6.3335Y-5.5195
X6.3416Y-2.6267
X6.3416Y-3.1674
X6.3416Y-4.002
X6.3503Y-1.8726
X6.3593Y-4.102
X6.3593Y-2.726
X6.3594Y-5.1569
X6.363Y-1.9098
X6.3642Y-5.0949
X6.372Y-4.1969
X6.377Y-2.8199
X6.377Y-4.3529
X6.381Y-3.2646
X6.3898Y-1.9427
X6.3987Y-3.3657
X6.4Y-1.9807
X6.4164Y-3.4748
X6.4341Y-3.5944
X6.4341Y-3.8042
X6.4524Y-3.875
X6.4773Y-4.282
X6.4936Y-3.5127
X6.495Y-4.3207
X6.5011Y-5.6928
X6.5127Y-4.4288
X6.5304Y-4.4711
X6.5445Y-5.6522
X6.6033Y-3.5782
X6.6189Y-3.1965
X6.6728Y-2.476
X6.7264Y-2.8177
X6.7705Y-2.1594
X6.8394Y-2.3783
X6.8819Y-3.2547
X6.8827Y-3.1457
T2
X6.4555Y-5.3671
X6.4897Y-5.2731
X6.5239Y-5.1791
X6.5495Y-5.4013
X6.5837Y-5.3073
X6.6179Y-5.2133
X6.7374Y-5.4697
X6.8058Y-5.2817
T3
X6.5911Y-4.8971
X6.6024Y-4.7977
X6.605Y-4.949
X6.6138Y-4.6984
X6.6163Y-4.8496
X6.6251Y-4.599
X6.6277Y-4.7503
X6.6364Y-4.4997
X6.639Y-4.6509
X6.6477Y-4.4003
X6.6503Y-4.5516
X6.659Y-4.3009
X6.6616Y-4.4522
X6.6704Y-4.2016
X6.6729Y-4.3529
X6.6817Y-4.1022
X6.6843Y-4.2535
X6.693Y-4.0029
X6.6956Y-4.1541
X6.7043Y-3.9035
X6.7069Y-4.0548
X6.7156Y-3.8042
X6.7182Y-3.9554
X6.727Y-3.7048
X6.7295Y-3.8561
X6.7383Y-3.6054
X6.7409Y-3.7567
X6.7522Y-3.6574
X6.9016Y-4.9325
X6.913Y-4.8331
X6.9155Y-4.9844
X6.9243Y-4.7338
X6.9269Y-4.885
X6.9356Y-4.6344
X6.9382Y-4.7857
X6.9469Y-4.535
X6.9495Y-4.6863
X6.9582Y-4.4357
X6.9608Y-4.5869
X6.9696Y-4.3363
X6.9721Y-4.4876
X6.9809Y-4.237
X6.9835Y-4.3882
X6.9922Y-4.1376
X6.9948Y-4.2889
X7.0035Y-4.0383
X7.0061Y-4.1895
X7.0148Y-3.9389
X7.0174Y-4.0902
X7.0262Y-3.8395
X7.0287Y-3.9908
X7.0375Y-3.7402
X7.0401Y-3.8914
X7.0488Y-3.6408
X7.0514Y-3.7921
X7.0627Y-3.6927
T4
X1.6469Y-5.2581
X1.6579Y-3.0065
X1.6594Y-3.7557
X1.6594Y-4.5061
X1.6898Y-6.0041
X1.8469Y-5.2581
X1.8579Y-3.0065
X1.8594Y-3.7557
X1.8594Y-4.5061
X1.8898Y-6.0041
X2.0713Y-3.9518
X2.0713Y-4.1518
X2.0724Y-4.686
X2.0724Y-4.886
X2.0811Y-3.2285
X2.0811Y-3.4285
X2.1094Y-2.4715
X2.1094Y-2.6715
X2.1327Y-5.4415
X2.1327Y-5.6415
X2.3568Y-4.4679
X2.3642Y-2.9719
X2.3655Y-5.2128
X2.3661Y-3.7191
X2.4031Y-5.964
X2.5568Y-4.4679
X2.5642Y-2.9719
X2.5655Y-5.2128
X2.5661Y-3.7191
X2.6031Y-5.964
X2.7772Y-2.373
X2.7772Y-2.573
X2.7787Y-3.8565
X2.7787Y-4.0565
X2.7795Y-4.5648
X2.7795Y-4.7648
X2.7807Y-3.0085
X2.7807Y-3.2085
X2.8209Y-5.4124
X2.8209Y-5.6124
X2.8547Y-2.3734
X2.8547Y-2.5734
X2.8559Y-3.8573
X2.8559Y-4.0573
X2.8567Y-4.5648
X2.8567Y-4.7648
X2.8583Y-3.0081
X2.8583Y-3.2081
X2.8992Y-5.4124
X2.8992Y-5.6124
X3.0646Y-2.6553
X3.0706Y-4.1514
X3.0713Y-3.4077
X3.0736Y-4.903
X3.1091Y-5.9278
X3.2646Y-2.6553
X3.2706Y-4.1514
X3.2713Y-3.4077
X3.2736Y-4.903
X3.3091Y-5.9278
X3.372Y-5.1144
X3.372Y-5.2014
X3.5134Y-4.862
X3.5134Y-4.9486
X3.572Y-5.1144
X3.572Y-5.2014
X3.6591Y-5.2002
X3.6606Y-5.1148
X3.7134Y-4.862
X3.7134Y-4.9486
X3.7665Y-2.512
X3.7732Y-3.2541
X3.7783Y-3.9974
X3.7827Y-4.7502
X3.7917Y-4.8596
X3.7917Y-4.9451
X3.8236Y-5.8888
X3.8591Y-5.2002
X3.8606Y-5.1148
X3.9665Y-2.512
X3.9732Y-3.2541
X3.9783Y-3.9974
X3.9827Y-4.7502
X3.9917Y-4.8596
X3.9917Y-4.9451
X4.0236Y-5.8888
X4.1531Y-5.1573
X4.1531Y-5.2404
X4.1913Y-2.7809
X4.1913Y-2.9809
X4.1937Y-4.2593
X4.1937Y-4.4593
X4.1945Y-2.1285
X4.1945Y-2.3285
X4.1957Y-3.4683
X4.1957Y-3.6683
X4.2555Y-5.367
X4.2555Y-5.567
X4.2732Y-3.4707
X4.2732Y-3.6707
X4.2736Y-4.2593
X4.2736Y-4.4593
X4.274Y-2.7829
X4.274Y-2.9829
X4.2748Y-2.1285
X4.2748Y-2.3285
X4.3362Y-5.3675
X4.3362Y-5.5675
X4.3531Y-5.1573
X4.3531Y-5.2404
X4.4686Y-4.1553
X4.4803Y-2.6557
X4.4879Y-4.8959
X4.4913Y-3.4093
X4.572Y-5.786
X4.6686Y-4.1553
X4.6803Y-2.6557
X4.6879Y-4.8959
X4.6913Y-3.4093
X4.772Y-5.786
X4.9343Y-2.8561
X4.9343Y-3.0561
X4.9346Y-4.4707
X4.9346Y-4.6707
X4.939Y-3.5427
X4.939Y-3.7427
X4.9469Y-2.177
X4.9469Y-2.377
X5.0094Y-5.2982
X5.0098Y-5.2203
X5.1146Y-5.5699
X5.1664Y-5.3767
X5.1929Y-2.7427
X5.1953Y-4.9781
X5.1969Y-4.2285
X5.1996Y-3.4837
X5.2094Y-5.2982
X5.2098Y-5.2203
X5.2849Y-5.8546
X5.3929Y-2.7427
X5.3953Y-4.9781
X5.3969Y-4.2285
X5.3996Y-3.4837
X5.4781Y-5.9064
X5.6354Y-2.4849
X5.6354Y-2.6849
X5.6354Y-2.7533
X5.6354Y-2.9533
X5.6488Y-3.5285
X5.6488Y-3.7285
X5.6508Y-3.8274
X5.6508Y-4.0274
X5.8639Y-5.2266
X5.95Y-6.1026
X6.0518Y-5.295
X6.1232Y-6.2026
T5
X5.7496Y-2.1658
X5.7496Y-2.2658
X5.7496Y-2.3658
X5.7496Y-2.4658
X5.7496Y-2.5658
X5.7496Y-2.6658
X5.7496Y-2.7658
X5.7496Y-2.8658
X5.7496Y-2.9658
X5.7496Y-3.0658
X5.7496Y-3.1658
X5.7496Y-3.2658
X5.7496Y-3.3658
X5.7496Y-3.4658
X5.7496Y-3.5658
X5.7496Y-3.6658
X6.5496Y-2.5658
X6.5496Y-2.6658
X6.5496Y-2.7658
X6.5496Y-2.8658
X6.5496Y-2.9658
X6.5496Y-3.0658
X6.5496Y-3.1658
X6.5496Y-3.2658
X6.5496Y-3.3658
X6.5496Y-3.4658
X6.5496Y-3.5658
X6.5496Y-3.6658
T7
X5.8498Y-2.0268
X5.8498Y-2.1268
X5.8498Y-2.2268
X5.8498Y-2.3268
X5.8498Y-2.4268
X5.8498Y-2.5268
X5.8498Y-2.6268
X5.8498Y-2.7268
X5.8498Y-2.8268
X5.8498Y-2.9268
X5.8498Y-3.0268
X5.8498Y-3.1268
X6.4498Y-2.0268
X6.4498Y-2.1268
X6.4498Y-2.2268
X6.4498Y-2.3268
X6.4498Y-2.4268
X6.4498Y-2.5268
X6.4498Y-2.6268
X6.4498Y-2.7268
X6.4498Y-2.8268
X6.4498Y-2.9268
X6.4498Y-3.0268
X6.4498Y-3.1268
T8
X1.5524Y-2.5423
X1.5524Y-3.2904
X1.5524Y-4.0384
X1.5524Y-4.7864
X1.5917Y-5.5344
X1.9539Y-2.5423
X1.9539Y-3.2904
X1.9539Y-4.0384
X1.9539Y-4.7864
X1.9933Y-5.5344
X2.261Y-2.503
X2.261Y-3.251
X2.261Y-3.999
X2.261Y-4.747
X2.3004Y-5.4951
X2.6626Y-2.503
X2.6626Y-3.251
X2.6626Y-3.999
X2.6626Y-4.747
X2.702Y-5.4951
X2.9697Y-2.188
X2.9697Y-2.936
X2.9697Y-3.6841
X2.9697Y-4.4321
X3.0091Y-5.4557
X3.3713Y-2.188
X3.3713Y-2.936
X3.3713Y-3.6841
X3.3713Y-4.4321
X3.4106Y-5.4557
X3.6783Y-2.0305
X3.6783Y-2.7785
X3.6783Y-3.5266
X3.6783Y-4.2746
X3.7177Y-5.4163
X4.0799Y-2.0305
X4.0799Y-2.7785
X4.0799Y-3.5266
X4.0799Y-4.2746
X4.1193Y-5.4163
X4.387Y-2.188
X4.387Y-2.936
X4.387Y-3.6841
X4.387Y-4.4321
X4.4691Y-5.3159
X4.7886Y-2.188
X4.7886Y-2.936
X4.7886Y-3.6841
X4.7886Y-4.4321
X4.8707Y-5.3159
X5.0957Y-2.2667
X5.0957Y-3.0148
X5.0957Y-3.7628
X5.0957Y-4.5108
X5.3115Y-5.3739
X5.4972Y-2.2667
X5.4972Y-3.0148
X5.4972Y-3.7628
X5.4972Y-4.5108
X5.6994Y-5.4779
X5.8448Y-4.9911
X5.9323Y-4.7506
X5.981Y-5.8683
X6.109Y-5.6467
X6.2222Y-5.1284
X6.3097Y-4.888
X6.3288Y-6.0691
X6.4567Y-5.8475
T9
X1.7531Y-2.4636
X1.7531Y-3.2116
X1.7531Y-3.9596
X1.7531Y-4.7077
X1.7925Y-5.4557
X2.4618Y-2.4242
X2.4618Y-3.1722
X2.4618Y-3.9203
X2.4618Y-4.6683
X2.5012Y-5.4163
X3.1705Y-2.1093
X3.1705Y-2.8573
X3.1705Y-3.6053
X3.1705Y-4.3533
X3.2098Y-5.377
X3.8791Y-1.9518
X3.8791Y-2.6998
X3.8791Y-3.4478
X3.8791Y-4.1959
X3.9185Y-5.3376
X4.5878Y-2.1093
X4.5878Y-2.8573
X4.5878Y-3.6053
X4.5878Y-4.3533
X4.6699Y-5.2371
X5.2965Y-2.188
X5.2965Y-2.936
X5.2965Y-3.6841
X5.2965Y-4.4321
X5.5259Y-5.3498
X6.1479Y-4.7453
X6.3222Y-5.6789
T10
X4.8412Y-1.6045
X4.8671Y-1.7011
X4.9378Y-1.5786
X4.9637Y-1.6752
X5.0344Y-1.5526
X5.0603Y-1.6493
X5.1296Y-1.5271
X5.1555Y-1.6238
X5.2276Y-1.5009
X5.2535Y-1.5976
X5.3242Y-1.4751
X5.3501Y-1.5717
T11
X1.6531Y-2.4959
X1.6531Y-3.2439
X1.6531Y-3.9919
X1.6531Y-4.74
X1.6925Y-5.488
X1.8531Y-2.4959
X1.8531Y-3.2439
X1.8531Y-3.9919
X1.8531Y-4.74
X1.8925Y-5.488
X2.3618Y-2.4565
X2.3618Y-3.2045
X2.3618Y-3.9526
X2.3618Y-4.7006
X2.4012Y-5.4486
X2.5618Y-2.4565
X2.5618Y-3.2045
X2.5618Y-3.9526
X2.5618Y-4.7006
X2.6012Y-5.4486
X3.0705Y-2.1415
X3.0705Y-2.8896
X3.0705Y-3.6376
X3.0705Y-4.3856
X3.1098Y-5.4093
X3.2705Y-2.1415
X3.2705Y-2.8896
X3.2705Y-3.6376
X3.2705Y-4.3856
X3.3098Y-5.4093
X3.7791Y-1.9841
X3.7791Y-2.7321
X3.7791Y-3.4801
X3.7791Y-4.2281
X3.8185Y-5.3699
X3.9791Y-1.9841
X3.9791Y-2.7321
X3.9791Y-3.4801
X3.9791Y-4.2281
X4.0185Y-5.3699
X4.4878Y-2.1415
X4.4878Y-2.8896
X4.4878Y-3.6376
X4.4878Y-4.3856
X4.5699Y-5.2694
X4.6878Y-2.1415
X4.6878Y-2.8896
X4.6878Y-3.6376
X4.6878Y-4.3856
X4.7699Y-5.2694
X5.1965Y-2.2203
X5.1965Y-2.9683
X5.1965Y-3.7163
X5.1965Y-4.4644
X5.3965Y-2.2203
X5.3965Y-2.9683
X5.3965Y-3.7163
X5.3965Y-4.4644
X5.4209Y-5.3551
X5.6141Y-5.4069
X6.0429Y-4.7414
X6.2195Y-5.6569
X6.2309Y-4.8098
X6.3927Y-5.7569
T12
X1.6031Y-2.5959
X1.6031Y-3.3439
X1.6031Y-4.0919
X1.6031Y-4.84
X1.6425Y-5.588
X1.9031Y-2.5959
X1.9031Y-3.3439
X1.9031Y-4.0919
X1.9031Y-4.84
X1.9425Y-5.588
X2.3118Y-2.5565
X2.3118Y-3.3045
X2.3118Y-4.0526
X2.3118Y-4.8006
X2.3512Y-5.5486
X2.6118Y-2.5565
X2.6118Y-3.3045
X2.6118Y-4.0526
X2.6118Y-4.8006
X2.6512Y-5.5486
X3.0205Y-2.2415
X3.0205Y-2.9896
X3.0205Y-3.7376
X3.0205Y-4.4856
X3.0598Y-5.5093
X3.3205Y-2.2415
X3.3205Y-2.9896
X3.3205Y-3.7376
X3.3205Y-4.4856
X3.3598Y-5.5093
X3.7291Y-2.0841
X3.7291Y-2.8321
X3.7291Y-3.5801
X3.7291Y-4.3281
X3.7685Y-5.4699
X4.0291Y-2.0841
X4.0291Y-2.8321
X4.0291Y-3.5801
X4.0291Y-4.3281
X4.0685Y-5.4699
X4.4378Y-2.2415
X4.4378Y-2.9896
X4.4378Y-3.7376
X4.4378Y-4.4856
X4.5199Y-5.3694
X4.7378Y-2.2415
X4.7378Y-2.9896
X4.7378Y-3.7376
X4.7378Y-4.4856
X4.8199Y-5.3694
X5.1465Y-2.3203
X5.1465Y-3.0683
X5.1465Y-3.8163
X5.1465Y-4.5644
X5.3467Y-5.4388
X5.4465Y-2.3203
X5.4465Y-3.0683
X5.4465Y-3.8163
X5.4465Y-4.5644
X5.6365Y-5.5164
X5.9618Y-4.8183
X6.1262Y-5.7185
X6.2437Y-4.9209
X6.386Y-5.8685
T6
G00X6.6681Y-2.7588
M15
G01X6.6681Y-2.7431
M16
G05
G00X6.6681Y-2.8769
M15
G01X6.6681Y-2.8612
M16
G05
G00X6.6681Y-3.0344
M15
G01X6.6681Y-3.0187
M16
G05
G00X6.735Y-3.0617
M15
G01X6.735Y-3.0775
M16
G05
G00X6.8492Y-3.0777
M15
G01X6.8492Y-3.062
M16
G05
G00X6.9161Y-2.7428
M15
G01X6.9161Y-2.7586
M16
G05
G00X6.9161Y-2.8609
M15
G01X6.9161Y-2.8767
M16
G05
G00X6.9161Y-3.0184
M15
G01X6.9161Y-3.0342
M16
G05
T13
G00X5.865Y-4.8895
M15
G01X5.8806Y-4.8952
M16
G05
G00X6.0186Y-5.7718
M15
G01X6.0329Y-5.7801
M16
G05
G00X6.2564Y-5.032
M15
G01X6.272Y-5.0376
M16
G05
G00X6.3793Y-5.9801
M15
G01X6.3936Y-5.9883
M16
G05
T0
M30
