%TF.GenerationSoftware,KiCad,Pcbnew,(6.0.0)*%
%TF.CreationDate,2022-05-14T17:53:23+09:00*%
%TF.ProjectId,brimstone2b,6272696d-7374-46f6-9e65-32622e6b6963,rev?*%
%TF.SameCoordinates,Original*%
%TF.FileFunction,Paste,Bot*%
%TF.FilePolarity,Positive*%
%FSLAX46Y46*%
G04 Gerber Fmt 4.6, Leading zero omitted, Abs format (unit mm)*
G04 Created by KiCad (PCBNEW (6.0.0)) date 2022-05-14 17:53:23*
%MOMM*%
%LPD*%
G01*
G04 APERTURE LIST*
G04 Aperture macros list*
%AMRoundRect*
0 Rectangle with rounded corners*
0 $1 Rounding radius*
0 $2 $3 $4 $5 $6 $7 $8 $9 X,Y pos of 4 corners*
0 Add a 4 corners polygon primitive as box body*
4,1,4,$2,$3,$4,$5,$6,$7,$8,$9,$2,$3,0*
0 Add four circle primitives for the rounded corners*
1,1,$1+$1,$2,$3*
1,1,$1+$1,$4,$5*
1,1,$1+$1,$6,$7*
1,1,$1+$1,$8,$9*
0 Add four rect primitives between the rounded corners*
20,1,$1+$1,$2,$3,$4,$5,0*
20,1,$1+$1,$4,$5,$6,$7,0*
20,1,$1+$1,$6,$7,$8,$9,0*
20,1,$1+$1,$8,$9,$2,$3,0*%
%AMRotRect*
0 Rectangle, with rotation*
0 The origin of the aperture is its center*
0 $1 length*
0 $2 width*
0 $3 Rotation angle, in degrees counterclockwise*
0 Add horizontal line*
21,1,$1,$2,0,0,$3*%
%AMOutline5P*
0 Free polygon, 5 corners , with rotation*
0 The origin of the aperture is its center*
0 number of corners: always 5*
0 $1 to $10 corner X, Y*
0 $11 Rotation angle, in degrees counterclockwise*
0 create outline with 5 corners*
4,1,5,$1,$2,$3,$4,$5,$6,$7,$8,$9,$10,$1,$2,$11*%
%AMOutline6P*
0 Free polygon, 6 corners , with rotation*
0 The origin of the aperture is its center*
0 number of corners: always 6*
0 $1 to $12 corner X, Y*
0 $13 Rotation angle, in degrees counterclockwise*
0 create outline with 6 corners*
4,1,6,$1,$2,$3,$4,$5,$6,$7,$8,$9,$10,$11,$12,$1,$2,$13*%
%AMOutline7P*
0 Free polygon, 7 corners , with rotation*
0 The origin of the aperture is its center*
0 number of corners: always 7*
0 $1 to $14 corner X, Y*
0 $15 Rotation angle, in degrees counterclockwise*
0 create outline with 7 corners*
4,1,7,$1,$2,$3,$4,$5,$6,$7,$8,$9,$10,$11,$12,$13,$14,$1,$2,$15*%
%AMOutline8P*
0 Free polygon, 8 corners , with rotation*
0 The origin of the aperture is its center*
0 number of corners: always 8*
0 $1 to $16 corner X, Y*
0 $17 Rotation angle, in degrees counterclockwise*
0 create outline with 8 corners*
4,1,8,$1,$2,$3,$4,$5,$6,$7,$8,$9,$10,$11,$12,$13,$14,$15,$16,$1,$2,$17*%
G04 Aperture macros list end*
%ADD10RoundRect,0.250000X-0.337500X-0.475000X0.337500X-0.475000X0.337500X0.475000X-0.337500X0.475000X0*%
%ADD11R,1.700000X0.820000*%
%ADD12RoundRect,0.205000X0.645000X0.205000X-0.645000X0.205000X-0.645000X-0.205000X0.645000X-0.205000X0*%
%ADD13RoundRect,0.205000X-0.645000X-0.205000X0.645000X-0.205000X0.645000X0.205000X-0.645000X0.205000X0*%
%ADD14RoundRect,0.250000X0.475000X-0.337500X0.475000X0.337500X-0.475000X0.337500X-0.475000X-0.337500X0*%
%ADD15RoundRect,0.250000X0.337500X0.475000X-0.337500X0.475000X-0.337500X-0.475000X0.337500X-0.475000X0*%
%ADD16RotRect,1.700000X0.820000X5.000000*%
%ADD17RoundRect,0.205000X-0.624679X-0.260435X0.660413X-0.148004X0.624679X0.260435X-0.660413X0.148004X0*%
%ADD18RoundRect,0.250000X-0.475000X0.337500X-0.475000X-0.337500X0.475000X-0.337500X0.475000X0.337500X0*%
%ADD19RotRect,1.700000X0.820000X155.000000*%
%ADD20RoundRect,0.205000X0.671205X-0.086796X-0.497932X0.458382X-0.671205X0.086796X0.497932X-0.458382X0*%
%ADD21RoundRect,0.250000X-0.464715X-0.351527X0.179044X-0.554504X0.464715X0.351527X-0.179044X0.554504X0*%
%ADD22RoundRect,0.250000X-0.414856X-0.409177X0.249890X-0.526390X0.414856X0.409177X-0.249890X0.526390X0*%
%ADD23RotRect,1.700000X0.820000X342.500000*%
%ADD24RoundRect,0.205000X-0.676792X-0.001557X0.553503X-0.389467X0.676792X0.001557X-0.553503X0.389467X0*%
%ADD25RotRect,1.700000X0.820000X350.000000*%
%ADD26RoundRect,0.205000X-0.670799X-0.089883X0.599603X-0.313889X0.670799X0.089883X-0.599603X0.313889X0*%
%ADD27RoundRect,0.250000X0.506623X0.287863X-0.105135X0.573130X-0.506623X-0.287863X0.105135X-0.573130X0*%
%ADD28RoundRect,0.250000X-0.294817X-0.502608X0.377615X-0.443777X0.294817X0.502608X-0.377615X0.443777X0*%
%ADD29RoundRect,0.250000X0.409177X-0.414856X0.526390X0.249890X-0.409177X0.414856X-0.526390X-0.249890X0*%
%ADD30Outline5P,-0.225000X0.700000X0.225000X0.700000X0.225000X-0.610000X0.135000X-0.700000X-0.225000X-0.700000X180.000000*%
%ADD31R,0.450000X1.400000*%
G04 APERTURE END LIST*
D10*
%TO.C,D1*%
X183502500Y-87087049D03*
X185577500Y-87087049D03*
%TD*%
D11*
%TO.C,D130*%
X145320000Y-114360000D03*
X145320000Y-112860000D03*
D12*
X140020000Y-112860000D03*
D11*
X140020000Y-114360000D03*
%TD*%
%TO.C,D128*%
X86020000Y-63860000D03*
X86020000Y-65360000D03*
D13*
X91320000Y-65360000D03*
D11*
X91320000Y-63860000D03*
%TD*%
D10*
%TO.C,C6*%
X123632500Y-55907049D03*
X125707500Y-55907049D03*
%TD*%
D14*
%TO.C,D49*%
X98670000Y-75604549D03*
X98670000Y-73529549D03*
%TD*%
D15*
%TO.C,D8*%
X132277500Y-117947049D03*
X130202500Y-117947049D03*
%TD*%
D14*
%TO.C,D29*%
X134680000Y-66904549D03*
X134680000Y-64829549D03*
%TD*%
D11*
%TO.C,D105*%
X123020000Y-137860000D03*
X123020000Y-139360000D03*
D13*
X128320000Y-139360000D03*
D11*
X128320000Y-137860000D03*
%TD*%
D14*
%TO.C,D39*%
X152480000Y-70904549D03*
X152480000Y-68829549D03*
%TD*%
D11*
%TO.C,D103*%
X109320000Y-76370000D03*
X109320000Y-74870000D03*
D12*
X104020000Y-74870000D03*
D11*
X104020000Y-76370000D03*
%TD*%
%TO.C,D113*%
X158020000Y-57860000D03*
X158020000Y-59360000D03*
D13*
X163320000Y-59360000D03*
D11*
X163320000Y-57860000D03*
%TD*%
D14*
%TO.C,D63*%
X79670000Y-135944549D03*
X79670000Y-133869549D03*
%TD*%
D10*
%TO.C,D2*%
X183442500Y-89927049D03*
X185517500Y-89927049D03*
%TD*%
D14*
%TO.C,D67*%
X96670000Y-56425799D03*
X96670000Y-54350799D03*
%TD*%
D15*
%TO.C,C20*%
X107707500Y-116907049D03*
X105632500Y-116907049D03*
%TD*%
D14*
%TO.C,D31*%
X134680000Y-104904549D03*
X134680000Y-102829549D03*
%TD*%
%TO.C,D27*%
X134651250Y-47963299D03*
X134651250Y-45888299D03*
%TD*%
%TO.C,D73*%
X96670000Y-94425799D03*
X96670000Y-92350799D03*
%TD*%
%TO.C,D51*%
X98670000Y-113604549D03*
X98670000Y-111529549D03*
%TD*%
%TO.C,D21*%
X133680000Y-132144549D03*
X133680000Y-130069549D03*
%TD*%
D10*
%TO.C,C27*%
X69632500Y-106907049D03*
X71707500Y-106907049D03*
%TD*%
D16*
%TO.C,D111*%
X143524717Y-135263817D03*
X143655451Y-136758109D03*
D17*
X148935283Y-136296183D03*
D16*
X148804549Y-134801891D03*
%TD*%
D10*
%TO.C,C5*%
X124632500Y-141907049D03*
X126707500Y-141907049D03*
%TD*%
D11*
%TO.C,D121*%
X105020000Y-138860000D03*
X105020000Y-140360000D03*
D13*
X110320000Y-140360000D03*
D11*
X110320000Y-138860000D03*
%TD*%
D15*
%TO.C,D15*%
X101650000Y-121757049D03*
X99575000Y-121757049D03*
%TD*%
D10*
%TO.C,C32*%
X88632500Y-143907049D03*
X90707500Y-143907049D03*
%TD*%
D14*
%TO.C,D71*%
X96670000Y-113604549D03*
X96670000Y-111529549D03*
%TD*%
D18*
%TO.C,D33*%
X133690000Y-137119549D03*
X133690000Y-139194549D03*
%TD*%
D19*
%TO.C,D102*%
X185864752Y-144059669D03*
X186498679Y-142700208D03*
D20*
X181695248Y-140460331D03*
D19*
X181061321Y-141819792D03*
%TD*%
D21*
%TO.C,C1*%
X177344801Y-122720174D03*
X179323763Y-123344138D03*
%TD*%
D18*
%TO.C,R2*%
X178620000Y-86467049D03*
X178620000Y-88542049D03*
%TD*%
D14*
%TO.C,D19*%
X132670000Y-104944549D03*
X132670000Y-102869549D03*
%TD*%
D11*
%TO.C,D127*%
X68020000Y-102860000D03*
X68020000Y-104360000D03*
D13*
X73320000Y-104360000D03*
D11*
X73320000Y-102860000D03*
%TD*%
D15*
%TO.C,C30*%
X89707500Y-124907049D03*
X87632500Y-124907049D03*
%TD*%
D14*
%TO.C,D23*%
X132670000Y-47944549D03*
X132670000Y-45869549D03*
%TD*%
D11*
%TO.C,D116*%
X73320000Y-123350000D03*
X73320000Y-121850000D03*
D12*
X68020000Y-121850000D03*
D11*
X68020000Y-123350000D03*
%TD*%
D10*
%TO.C,C23*%
X69632500Y-68907049D03*
X71707500Y-68907049D03*
%TD*%
D11*
%TO.C,D115*%
X158020000Y-95860000D03*
X158020000Y-97360000D03*
D13*
X163320000Y-97360000D03*
D11*
X163320000Y-95860000D03*
%TD*%
%TO.C,D118*%
X104020000Y-55860000D03*
X104020000Y-57360000D03*
D13*
X109320000Y-57360000D03*
D11*
X109320000Y-55860000D03*
%TD*%
D14*
%TO.C,R1*%
X178620000Y-83464549D03*
X178620000Y-81389549D03*
%TD*%
D22*
%TO.C,C17*%
X163859076Y-139605351D03*
X165902552Y-139965671D03*
%TD*%
D23*
%TO.C,D101*%
X177058179Y-118277842D03*
X176607121Y-119708417D03*
D24*
X181661821Y-121302158D03*
D23*
X182112879Y-119871583D03*
%TD*%
D10*
%TO.C,C26*%
X70632500Y-144907049D03*
X72707500Y-144907049D03*
%TD*%
%TO.C,C22*%
X105632500Y-97907049D03*
X107707500Y-97907049D03*
%TD*%
%TO.C,C21*%
X106632500Y-142907049D03*
X108707500Y-142907049D03*
%TD*%
%TO.C,C18*%
X105632500Y-59907049D03*
X107707500Y-59907049D03*
%TD*%
D11*
%TO.C,D129*%
X145330000Y-76355000D03*
X145330000Y-74855000D03*
D12*
X140030000Y-74855000D03*
D11*
X140030000Y-76355000D03*
%TD*%
D10*
%TO.C,C7*%
X123632500Y-93907049D03*
X125707500Y-93907049D03*
%TD*%
D11*
%TO.C,D124*%
X163320000Y-78360000D03*
X163320000Y-76860000D03*
D12*
X158020000Y-76860000D03*
D11*
X158020000Y-78360000D03*
%TD*%
%TO.C,D125*%
X163320000Y-116360000D03*
X163320000Y-114860000D03*
D12*
X158020000Y-114860000D03*
D11*
X158020000Y-116360000D03*
%TD*%
D15*
%TO.C,C3*%
X125707500Y-74907049D03*
X123632500Y-74907049D03*
%TD*%
D14*
%TO.C,D59*%
X78670000Y-78944549D03*
X78670000Y-76869549D03*
%TD*%
D15*
%TO.C,C4*%
X125707500Y-112907049D03*
X123632500Y-112907049D03*
%TD*%
D11*
%TO.C,D109*%
X91320000Y-84360000D03*
X91320000Y-82860000D03*
D12*
X86020000Y-82860000D03*
D11*
X86020000Y-84360000D03*
%TD*%
%TO.C,D114*%
X73330000Y-85355000D03*
X73330000Y-83855000D03*
D12*
X68030000Y-83855000D03*
D11*
X68030000Y-85355000D03*
%TD*%
D15*
%TO.C,D12*%
X110537500Y-125647049D03*
X108462500Y-125647049D03*
%TD*%
%TO.C,D5*%
X123817500Y-122777049D03*
X121742500Y-122777049D03*
%TD*%
%TO.C,D7*%
X123837500Y-118037049D03*
X121762500Y-118037049D03*
%TD*%
D10*
%TO.C,C12*%
X141632500Y-97907049D03*
X143707500Y-97907049D03*
%TD*%
D14*
%TO.C,D17*%
X132670000Y-66944549D03*
X132670000Y-64869549D03*
%TD*%
%TO.C,D75*%
X97670000Y-132425799D03*
X97670000Y-130350799D03*
%TD*%
%TO.C,D47*%
X98670000Y-56425799D03*
X98670000Y-54350799D03*
%TD*%
D11*
%TO.C,D104*%
X109320000Y-114360000D03*
X109320000Y-112860000D03*
D12*
X104020000Y-112860000D03*
D11*
X104020000Y-114360000D03*
%TD*%
D14*
%TO.C,D69*%
X96670000Y-75604549D03*
X96670000Y-73529549D03*
%TD*%
D11*
%TO.C,D131*%
X86020000Y-101870000D03*
X86020000Y-103370000D03*
D13*
X91320000Y-103370000D03*
D11*
X91320000Y-101870000D03*
%TD*%
D15*
%TO.C,C19*%
X107707500Y-78907049D03*
X105632500Y-78907049D03*
%TD*%
D14*
%TO.C,D57*%
X78670000Y-59944549D03*
X78670000Y-57869549D03*
%TD*%
D10*
%TO.C,C28*%
X87632500Y-67907049D03*
X89707500Y-67907049D03*
%TD*%
D11*
%TO.C,D112*%
X140020000Y-93860000D03*
X140020000Y-95360000D03*
D13*
X145320000Y-95360000D03*
D11*
X145320000Y-93860000D03*
%TD*%
D15*
%TO.C,C25*%
X71707500Y-125907049D03*
X69632500Y-125907049D03*
%TD*%
D25*
%TO.C,D117*%
X162970496Y-135341227D03*
X162710023Y-136818438D03*
D26*
X167929504Y-137738773D03*
D25*
X168189977Y-136261562D03*
%TD*%
D27*
%TO.C,C2*%
X183287086Y-145786608D03*
X181406498Y-144909676D03*
%TD*%
D11*
%TO.C,D123*%
X68020000Y-64860000D03*
X68020000Y-66360000D03*
D13*
X73320000Y-66360000D03*
D11*
X73320000Y-64860000D03*
%TD*%
D15*
%TO.C,C16*%
X161707500Y-118907049D03*
X159632500Y-118907049D03*
%TD*%
D14*
%TO.C,D61*%
X78670000Y-116944549D03*
X78670000Y-114869549D03*
%TD*%
D15*
%TO.C,C14*%
X161707500Y-80907049D03*
X159632500Y-80907049D03*
%TD*%
D10*
%TO.C,C31*%
X87632500Y-105907049D03*
X89707500Y-105907049D03*
%TD*%
D11*
%TO.C,D110*%
X91320000Y-122360000D03*
X91320000Y-120860000D03*
D12*
X86020000Y-120860000D03*
D11*
X86020000Y-122360000D03*
%TD*%
D28*
%TO.C,C11*%
X145484337Y-139146186D03*
X147551441Y-138965338D03*
%TD*%
D11*
%TO.C,D126*%
X69020000Y-140860000D03*
X69020000Y-142360000D03*
D13*
X74320000Y-142360000D03*
D11*
X74320000Y-140860000D03*
%TD*%
%TO.C,D120*%
X127320000Y-110360000D03*
X127320000Y-108860000D03*
D12*
X122020000Y-108860000D03*
D11*
X122020000Y-110360000D03*
%TD*%
D14*
%TO.C,D53*%
X99670000Y-132444549D03*
X99670000Y-130369549D03*
%TD*%
D11*
%TO.C,D107*%
X122020000Y-89850000D03*
X122020000Y-91350000D03*
D13*
X127320000Y-91350000D03*
D11*
X127320000Y-89850000D03*
%TD*%
D14*
%TO.C,D43*%
X152480000Y-108904549D03*
X152480000Y-106829549D03*
%TD*%
D11*
%TO.C,D122*%
X104020000Y-93860000D03*
X104020000Y-95360000D03*
D13*
X109320000Y-95360000D03*
D11*
X109320000Y-93860000D03*
%TD*%
D14*
%TO.C,D65*%
X78670000Y-97944549D03*
X78670000Y-95869549D03*
%TD*%
D10*
%TO.C,C15*%
X159632500Y-99907049D03*
X161707500Y-99907049D03*
%TD*%
D14*
%TO.C,D25*%
X132670000Y-85944549D03*
X132670000Y-83869549D03*
%TD*%
D10*
%TO.C,C8*%
X141632500Y-59907049D03*
X143707500Y-59907049D03*
%TD*%
%TO.C,C13*%
X159632500Y-61907049D03*
X161707500Y-61907049D03*
%TD*%
D11*
%TO.C,D119*%
X127340000Y-72370000D03*
X127340000Y-70870000D03*
D12*
X122040000Y-70870000D03*
D11*
X122040000Y-72370000D03*
%TD*%
D15*
%TO.C,C9*%
X143707500Y-78907049D03*
X141632500Y-78907049D03*
%TD*%
%TO.C,C29*%
X89707500Y-86907049D03*
X87632500Y-86907049D03*
%TD*%
D29*
%TO.C,D45*%
X158513639Y-128565658D03*
X158873959Y-126522182D03*
%TD*%
D14*
%TO.C,D37*%
X152451250Y-51963299D03*
X152451250Y-49888299D03*
%TD*%
D11*
%TO.C,D106*%
X122020000Y-51860000D03*
X122020000Y-53360000D03*
D13*
X127320000Y-53360000D03*
D11*
X127320000Y-51860000D03*
%TD*%
%TO.C,D132*%
X87020000Y-139860000D03*
X87020000Y-141360000D03*
D13*
X92320000Y-141360000D03*
D11*
X92320000Y-139860000D03*
%TD*%
D15*
%TO.C,D14*%
X110547500Y-120867049D03*
X108472500Y-120867049D03*
%TD*%
D11*
%TO.C,D108*%
X140030000Y-55860000D03*
X140030000Y-57360000D03*
D13*
X145330000Y-57360000D03*
D11*
X145330000Y-55860000D03*
%TD*%
D14*
%TO.C,D55*%
X98670000Y-94425799D03*
X98670000Y-92350799D03*
%TD*%
%TO.C,D35*%
X134651250Y-85963299D03*
X134651250Y-83888299D03*
%TD*%
%TO.C,D41*%
X152451250Y-89963299D03*
X152451250Y-87888299D03*
%TD*%
D15*
%TO.C,D11*%
X101627500Y-126317049D03*
X99552500Y-126317049D03*
%TD*%
%TO.C,C24*%
X71707500Y-87907049D03*
X69632500Y-87907049D03*
%TD*%
%TO.C,D4*%
X132267500Y-122877049D03*
X130192500Y-122877049D03*
%TD*%
%TO.C,C10*%
X143707500Y-116907049D03*
X141632500Y-116907049D03*
%TD*%
%TO.C,D16*%
X101637500Y-123997049D03*
X99562500Y-123997049D03*
%TD*%
%TO.C,D9*%
X132277500Y-120467049D03*
X130202500Y-120467049D03*
%TD*%
D30*
%TO.C,IC5*%
X114695000Y-104707049D03*
D31*
X115345000Y-104707049D03*
X115995000Y-104707049D03*
X116645000Y-104707049D03*
X116645000Y-109107049D03*
X115995000Y-109107049D03*
X115345000Y-109107049D03*
X114690000Y-109107049D03*
%TD*%
D30*
%TO.C,IC7*%
X114695000Y-47707049D03*
D31*
X115345000Y-47707049D03*
X115995000Y-47707049D03*
X116645000Y-47707049D03*
X116645000Y-52107049D03*
X115995000Y-52107049D03*
X115345000Y-52107049D03*
X114690000Y-52107049D03*
%TD*%
D30*
%TO.C,IC4*%
X114695000Y-85707049D03*
D31*
X115345000Y-85707049D03*
X115995000Y-85707049D03*
X116645000Y-85707049D03*
X116645000Y-90107049D03*
X115995000Y-90107049D03*
X115345000Y-90107049D03*
X114690000Y-90107049D03*
%TD*%
D30*
%TO.C,IC3*%
X114695000Y-66707049D03*
D31*
X115345000Y-66707049D03*
X115995000Y-66707049D03*
X116645000Y-66707049D03*
X116645000Y-71107049D03*
X115995000Y-71107049D03*
X115345000Y-71107049D03*
X114690000Y-71107049D03*
%TD*%
D30*
%TO.C,IC6*%
X115695000Y-130707049D03*
D31*
X116345000Y-130707049D03*
X116995000Y-130707049D03*
X117645000Y-130707049D03*
X117645000Y-135107049D03*
X116995000Y-135107049D03*
X116345000Y-135107049D03*
X115690000Y-135107049D03*
%TD*%
M02*
