M48
; DRILL file {KiCad (6.0.0)} date Sat May 14 17:53:26 2022
; FORMAT={-:-/ absolute / inch / decimal}
; #@! TF.CreationDate,2022-05-14T17:53:26+09:00
; #@! TF.GenerationSoftware,Kicad,Pcbnew,(6.0.0)
; #@! TF.FileFunction,NonPlated,1,2,NPTH
FMAT,2
INCH
; #@! TA.AperFunction,NonPlated,NPTH,ComponentDrill
T1C0.0315
; #@! TA.AperFunction,NonPlated,NPTH,ComponentDrill
T2C0.0390
; #@! TA.AperFunction,NonPlated,NPTH,ComponentDrill
T3C0.0670
; #@! TA.AperFunction,NonPlated,NPTH,ComponentDrill
T4C0.1570
%
G90
G05
T1
X7.5584Y-3.92
X7.5584Y-4.02
X7.834Y-3.92
X7.834Y-4.02
T2
X2.5768Y-2.5633
X2.5768Y-3.3113
X2.5768Y-4.0593
X2.5768Y-4.8074
X2.6161Y-5.5554
X2.9878Y-2.5633
X2.9878Y-3.3113
X2.9878Y-4.0593
X2.9878Y-4.8074
X3.0272Y-5.5554
X3.2854Y-2.5239
X3.2854Y-3.2719
X3.2854Y-4.02
X3.2854Y-4.768
X3.3248Y-5.516
X3.6965Y-2.5239
X3.6965Y-3.2719
X3.6965Y-4.02
X3.6965Y-4.768
X3.7358Y-5.516
X3.9941Y-2.2089
X3.9941Y-2.957
X3.9941Y-3.705
X3.9941Y-4.453
X4.0335Y-5.4767
X4.4051Y-2.2089
X4.4051Y-2.957
X4.4051Y-3.705
X4.4051Y-4.453
X4.4445Y-5.4767
X4.7028Y-2.0515
X4.7028Y-2.7995
X4.7028Y-3.5475
X4.7028Y-4.2956
X4.7421Y-5.4373
X5.1138Y-2.0515
X5.1138Y-2.7995
X5.1138Y-3.5475
X5.1138Y-4.2956
X5.1531Y-5.4373
X5.4114Y-2.2089
X5.4114Y-2.957
X5.4114Y-3.705
X5.4114Y-4.453
X5.5507Y-5.3435
X5.8224Y-2.2089
X5.8224Y-2.957
X5.8224Y-3.705
X5.8224Y-4.453
X5.9601Y-5.3077
X6.1201Y-2.2877
X6.1201Y-3.0357
X6.1201Y-3.7837
X6.1201Y-4.5318
X6.315Y-5.3203
X6.5311Y-2.2877
X6.5311Y-3.0357
X6.5311Y-3.7837
X6.5311Y-4.5318
X6.7197Y-5.3917
X6.8712Y-4.6356
X7.0576Y-5.4964
X7.2632Y-4.7591
X7.4302Y-5.6701
T4
X2.7823Y-2.3979
X2.7823Y-3.1459
X2.7823Y-3.894
X2.7823Y-4.642
X2.8217Y-5.39
X3.4909Y-2.3585
X3.4909Y-3.1066
X3.4909Y-3.8546
X3.4909Y-4.6026
X3.5303Y-5.3507
X4.1996Y-2.0436
X4.1996Y-2.7916
X4.1996Y-3.5396
X4.1996Y-4.2877
X4.239Y-5.3113
X4.9083Y-1.8861
X4.9083Y-2.6341
X4.9083Y-3.3822
X4.9083Y-4.1302
X4.9476Y-5.2719
X5.6169Y-2.0436
X5.6169Y-2.7916
X5.6169Y-3.5396
X5.6169Y-4.2877
X5.741Y-5.1609
X6.3256Y-2.1223
X6.3256Y-2.8704
X6.3256Y-3.6184
X6.3256Y-4.3664
X6.5461Y-5.1932
X7.1169Y-4.5396
X7.3138Y-5.4333
T3
G00X2.5823Y-2.3979
M15
G01X2.5657Y-2.3979
M16
G05
G00X2.5823Y-3.1459
M15
G01X2.5657Y-3.1459
M16
G05
G00X2.5823Y-3.894
M15
G01X2.5657Y-3.894
M16
G05
G00X2.5823Y-4.642
M15
G01X2.5657Y-4.642
M16
G05
G00X2.6217Y-5.39
M15
G01X2.6051Y-5.39
M16
G05
G00X2.9823Y-2.3979
M15
G01X2.9988Y-2.3979
M16
G05
G00X2.9823Y-3.1459
M15
G01X2.9988Y-3.1459
M16
G05
G00X2.9823Y-3.894
M15
G01X2.9988Y-3.894
M16
G05
G00X2.9823Y-4.642
M15
G01X2.9988Y-4.642
M16
G05
G00X3.0217Y-5.39
M15
G01X3.0382Y-5.39
M16
G05
G00X3.2909Y-2.3585
M15
G01X3.2744Y-2.3585
M16
G05
G00X3.2909Y-3.1066
M15
G01X3.2744Y-3.1066
M16
G05
G00X3.2909Y-3.8546
M15
G01X3.2744Y-3.8546
M16
G05
G00X3.2909Y-4.6026
M15
G01X3.2744Y-4.6026
M16
G05
G00X3.3303Y-5.3507
M15
G01X3.3138Y-5.3507
M16
G05
G00X3.6909Y-2.3585
M15
G01X3.7075Y-2.3585
M16
G05
G00X3.6909Y-3.1066
M15
G01X3.7075Y-3.1066
M16
G05
G00X3.6909Y-3.8546
M15
G01X3.7075Y-3.8546
M16
G05
G00X3.6909Y-4.6026
M15
G01X3.7075Y-4.6026
M16
G05
G00X3.7303Y-5.3507
M15
G01X3.7469Y-5.3507
M16
G05
G00X3.9996Y-2.0436
M15
G01X3.9831Y-2.0436
M16
G05
G00X3.9996Y-2.7916
M15
G01X3.9831Y-2.7916
M16
G05
G00X3.9996Y-3.5396
M15
G01X3.9831Y-3.5396
M16
G05
G00X3.9996Y-4.2877
M15
G01X3.9831Y-4.2877
M16
G05
G00X4.039Y-5.3113
M15
G01X4.0224Y-5.3113
M16
G05
G00X4.3996Y-2.0436
M15
G01X4.4161Y-2.0436
M16
G05
G00X4.3996Y-2.7916
M15
G01X4.4161Y-2.7916
M16
G05
G00X4.3996Y-3.5396
M15
G01X4.4161Y-3.5396
M16
G05
G00X4.3996Y-4.2877
M15
G01X4.4161Y-4.2877
M16
G05
G00X4.439Y-5.3113
M15
G01X4.4555Y-5.3113
M16
G05
G00X4.7083Y-1.8861
M15
G01X4.6917Y-1.8861
M16
G05
G00X4.7083Y-2.6341
M15
G01X4.6917Y-2.6341
M16
G05
G00X4.7083Y-3.3822
M15
G01X4.6917Y-3.3822
M16
G05
G00X4.7083Y-4.1302
M15
G01X4.6917Y-4.1302
M16
G05
G00X4.7476Y-5.2719
M15
G01X4.7311Y-5.2719
M16
G05
G00X5.1083Y-1.8861
M15
G01X5.1248Y-1.8861
M16
G05
G00X5.1083Y-2.6341
M15
G01X5.1248Y-2.6341
M16
G05
G00X5.1083Y-3.3822
M15
G01X5.1248Y-3.3822
M16
G05
G00X5.1083Y-4.1302
M15
G01X5.1248Y-4.1302
M16
G05
G00X5.1476Y-5.2719
M15
G01X5.1642Y-5.2719
M16
G05
G00X5.4169Y-2.0436
M15
G01X5.4004Y-2.0436
M16
G05
G00X5.4169Y-2.7916
M15
G01X5.4004Y-2.7916
M16
G05
G00X5.4169Y-3.5396
M15
G01X5.4004Y-3.5396
M16
G05
G00X5.4169Y-4.2877
M15
G01X5.4004Y-4.2877
M16
G05
G00X5.5417Y-5.1783
M15
G01X5.5253Y-5.1797
M16
G05
G00X5.8169Y-2.0436
M15
G01X5.8335Y-2.0436
M16
G05
G00X5.8169Y-2.7916
M15
G01X5.8335Y-2.7916
M16
G05
G00X5.8169Y-3.5396
M15
G01X5.8335Y-3.5396
M16
G05
G00X5.8169Y-4.2877
M15
G01X5.8335Y-4.2877
M16
G05
G00X5.9402Y-5.1434
M15
G01X5.9567Y-5.142
M16
G05
G00X6.1256Y-2.1223
M15
G01X6.1091Y-2.1223
M16
G05
G00X6.1256Y-2.8704
M15
G01X6.1091Y-2.8704
M16
G05
G00X6.1256Y-3.6184
M15
G01X6.1091Y-3.6184
M16
G05
G00X6.1256Y-4.3664
M15
G01X6.1091Y-4.3664
M16
G05
G00X6.3491Y-5.1585
M15
G01X6.3328Y-5.1556
M16
G05
G00X6.5256Y-2.1223
M15
G01X6.5421Y-2.1223
M16
G05
G00X6.5256Y-2.8704
M15
G01X6.5421Y-2.8704
M16
G05
G00X6.5256Y-3.6184
M15
G01X6.5421Y-3.6184
M16
G05
G00X6.5256Y-4.3664
M15
G01X6.5421Y-4.3664
M16
G05
G00X6.743Y-5.2279
M15
G01X6.7593Y-5.2308
M16
G05
T0
M30
