%TF.GenerationSoftware,KiCad,Pcbnew,(6.0.0)*%
%TF.CreationDate,2022-02-08T17:16:42+09:00*%
%TF.ProjectId,brimstone2,6272696d-7374-46f6-9e65-322e6b696361,rev?*%
%TF.SameCoordinates,Original*%
%TF.FileFunction,Paste,Top*%
%TF.FilePolarity,Positive*%
%FSLAX46Y46*%
G04 Gerber Fmt 4.6, Leading zero omitted, Abs format (unit mm)*
G04 Created by KiCad (PCBNEW (6.0.0)) date 2022-02-08 17:16:42*
%MOMM*%
%LPD*%
G01*
G04 APERTURE LIST*
G04 Aperture macros list*
%AMRoundRect*
0 Rectangle with rounded corners*
0 $1 Rounding radius*
0 $2 $3 $4 $5 $6 $7 $8 $9 X,Y pos of 4 corners*
0 Add a 4 corners polygon primitive as box body*
4,1,4,$2,$3,$4,$5,$6,$7,$8,$9,$2,$3,0*
0 Add four circle primitives for the rounded corners*
1,1,$1+$1,$2,$3*
1,1,$1+$1,$4,$5*
1,1,$1+$1,$6,$7*
1,1,$1+$1,$8,$9*
0 Add four rect primitives between the rounded corners*
20,1,$1+$1,$2,$3,$4,$5,0*
20,1,$1+$1,$4,$5,$6,$7,0*
20,1,$1+$1,$6,$7,$8,$9,0*
20,1,$1+$1,$8,$9,$2,$3,0*%
%AMRotRect*
0 Rectangle, with rotation*
0 The origin of the aperture is its center*
0 $1 length*
0 $2 width*
0 $3 Rotation angle, in degrees counterclockwise*
0 Add horizontal line*
21,1,$1,$2,0,0,$3*%
%AMOutline5P*
0 Free polygon, 5 corners , with rotation*
0 The origin of the aperture is its center*
0 number of corners: always 5*
0 $1 to $10 corner X, Y*
0 $11 Rotation angle, in degrees counterclockwise*
0 create outline with 5 corners*
4,1,5,$1,$2,$3,$4,$5,$6,$7,$8,$9,$10,$1,$2,$11*%
%AMOutline6P*
0 Free polygon, 6 corners , with rotation*
0 The origin of the aperture is its center*
0 number of corners: always 6*
0 $1 to $12 corner X, Y*
0 $13 Rotation angle, in degrees counterclockwise*
0 create outline with 6 corners*
4,1,6,$1,$2,$3,$4,$5,$6,$7,$8,$9,$10,$11,$12,$1,$2,$13*%
%AMOutline7P*
0 Free polygon, 7 corners , with rotation*
0 The origin of the aperture is its center*
0 number of corners: always 7*
0 $1 to $14 corner X, Y*
0 $15 Rotation angle, in degrees counterclockwise*
0 create outline with 7 corners*
4,1,7,$1,$2,$3,$4,$5,$6,$7,$8,$9,$10,$11,$12,$13,$14,$1,$2,$15*%
%AMOutline8P*
0 Free polygon, 8 corners , with rotation*
0 The origin of the aperture is its center*
0 number of corners: always 8*
0 $1 to $16 corner X, Y*
0 $17 Rotation angle, in degrees counterclockwise*
0 create outline with 8 corners*
4,1,8,$1,$2,$3,$4,$5,$6,$7,$8,$9,$10,$11,$12,$13,$14,$15,$16,$1,$2,$17*%
G04 Aperture macros list end*
%ADD10RoundRect,0.250000X0.475000X-0.337500X0.475000X0.337500X-0.475000X0.337500X-0.475000X-0.337500X0*%
%ADD11RoundRect,0.250000X0.337500X0.475000X-0.337500X0.475000X-0.337500X-0.475000X0.337500X-0.475000X0*%
%ADD12RoundRect,0.250000X-0.479606X-0.330922X0.154687X-0.561786X0.479606X0.330922X-0.154687X0.561786X0*%
%ADD13R,1.700000X0.820000*%
%ADD14RoundRect,0.205000X-0.645000X-0.205000X0.645000X-0.205000X0.645000X0.205000X-0.645000X0.205000X0*%
%ADD15RoundRect,0.250000X-0.337500X-0.475000X0.337500X-0.475000X0.337500X0.475000X-0.337500X0.475000X0*%
%ADD16RoundRect,0.205000X0.645000X0.205000X-0.645000X0.205000X-0.645000X-0.205000X0.645000X-0.205000X0*%
%ADD17RotRect,1.700000X0.820000X340.000000*%
%ADD18RoundRect,0.205000X-0.676216X0.027966X0.535988X-0.413240X0.676216X-0.027966X-0.535988X0.413240X0*%
%ADD19Outline5P,-0.225000X0.700000X0.135000X0.700000X0.225000X0.610000X0.225000X-0.700000X-0.225000X-0.700000X180.000000*%
%ADD20R,0.450000X1.400000*%
%ADD21RoundRect,0.250000X0.371463X-0.448939X0.546166X0.203061X-0.371463X0.448939X-0.546166X-0.203061X0*%
%ADD22RoundRect,0.250000X-0.448939X-0.371463X0.203061X-0.546166X0.448939X0.371463X-0.203061X0.546166X0*%
%ADD23RoundRect,0.250000X-0.529784X-0.242612X0.054784X-0.580112X0.529784X0.242612X-0.054784X0.580112X0*%
%ADD24RotRect,1.700000X0.820000X345.000000*%
%ADD25RoundRect,0.205000X-0.676080X-0.031077X0.569964X-0.364953X0.676080X0.031077X-0.569964X0.364953X0*%
%ADD26RoundRect,0.250000X-0.475000X0.337500X-0.475000X-0.337500X0.475000X-0.337500X0.475000X0.337500X0*%
%ADD27RotRect,1.700000X0.820000X330.000000*%
%ADD28RoundRect,0.205000X-0.661086X0.144965X0.456086X-0.500035X0.661086X-0.144965X-0.456086X0.500035X0*%
G04 APERTURE END LIST*
D10*
%TO.C,D12*%
X72600000Y-79982500D03*
X72600000Y-77907500D03*
%TD*%
D11*
%TO.C,C114*%
X81647500Y-124535000D03*
X79572500Y-124535000D03*
%TD*%
%TO.C,C127*%
X135647500Y-88485000D03*
X133572500Y-88485000D03*
%TD*%
D12*
%TO.C,C132*%
X150355069Y-133270154D03*
X152304931Y-133979846D03*
%TD*%
D10*
%TO.C,D23*%
X108540000Y-91732500D03*
X108540000Y-89657500D03*
%TD*%
D11*
%TO.C,D36*%
X96557500Y-129915000D03*
X94482500Y-129915000D03*
%TD*%
D13*
%TO.C,D123*%
X113905600Y-102935600D03*
X113905600Y-101435600D03*
D14*
X119205600Y-101435600D03*
D13*
X119205600Y-102935600D03*
%TD*%
D15*
%TO.C,C121*%
X115302500Y-67455000D03*
X117377500Y-67455000D03*
%TD*%
D11*
%TO.C,C107*%
X63677500Y-94465000D03*
X61602500Y-94465000D03*
%TD*%
D13*
%TO.C,D109*%
X65205600Y-128435600D03*
X65205600Y-129935600D03*
D16*
X59905600Y-129935600D03*
D13*
X59905600Y-128435600D03*
%TD*%
%TO.C,D108*%
X59905600Y-110935600D03*
X59905600Y-109435600D03*
D14*
X65205600Y-109435600D03*
D13*
X65205600Y-110935600D03*
%TD*%
D10*
%TO.C,D29*%
X125340000Y-117132500D03*
X125340000Y-115057500D03*
%TD*%
D11*
%TO.C,D33*%
X89227500Y-132115000D03*
X87152500Y-132115000D03*
%TD*%
D17*
%TO.C,D44*%
X149761017Y-130328837D03*
X150274048Y-128919298D03*
D18*
X155254419Y-130732005D03*
D17*
X154741388Y-132141544D03*
%TD*%
D10*
%TO.C,D10*%
X71650000Y-141052500D03*
X71650000Y-138977500D03*
%TD*%
%TO.C,D1*%
X53580000Y-66352500D03*
X53580000Y-64277500D03*
%TD*%
D19*
%TO.C,IC2*%
X88715000Y-78415000D03*
D20*
X89365000Y-78415000D03*
X90015000Y-78415000D03*
X90665000Y-78415000D03*
X90665000Y-74015000D03*
X90015000Y-74015000D03*
X89365000Y-74015000D03*
X88710000Y-74015000D03*
%TD*%
D13*
%TO.C,D112*%
X83205600Y-82435600D03*
X83205600Y-83935600D03*
D16*
X77905600Y-83935600D03*
D13*
X77905600Y-82435600D03*
%TD*%
%TO.C,D117*%
X101205600Y-78435600D03*
X101205600Y-79935600D03*
D16*
X95905600Y-79935600D03*
D13*
X95905600Y-78435600D03*
%TD*%
%TO.C,D116*%
X95905600Y-60935600D03*
X95905600Y-59435600D03*
D14*
X101205600Y-59435600D03*
D13*
X101205600Y-60935600D03*
%TD*%
%TO.C,D125*%
X115990684Y-144383625D03*
X115990684Y-142883625D03*
D14*
X121290684Y-142883625D03*
D13*
X121290684Y-144383625D03*
%TD*%
D10*
%TO.C,D18*%
X106570000Y-91672500D03*
X106570000Y-89597500D03*
%TD*%
%TO.C,D11*%
X72510000Y-63862500D03*
X72510000Y-61787500D03*
%TD*%
D11*
%TO.C,D35*%
X89227500Y-129905000D03*
X87152500Y-129905000D03*
%TD*%
D15*
%TO.C,C113*%
X79495000Y-105445000D03*
X81570000Y-105445000D03*
%TD*%
%TO.C,C106*%
X61552500Y-75485000D03*
X63627500Y-75485000D03*
%TD*%
D10*
%TO.C,D16*%
X106540000Y-57642500D03*
X106540000Y-55567500D03*
%TD*%
D15*
%TO.C,C123*%
X115005000Y-105545000D03*
X117080000Y-105545000D03*
%TD*%
D10*
%TO.C,D14*%
X72560000Y-119522500D03*
X72560000Y-117447500D03*
%TD*%
D13*
%TO.C,D102*%
X47205600Y-91435600D03*
X47205600Y-92935600D03*
D16*
X41905600Y-92935600D03*
D13*
X41905600Y-91435600D03*
%TD*%
D10*
%TO.C,D3*%
X52610000Y-103952500D03*
X52610000Y-101877500D03*
%TD*%
D13*
%TO.C,D126*%
X131905600Y-66935600D03*
X131905600Y-65435600D03*
D14*
X137205600Y-65435600D03*
D13*
X137205600Y-66935600D03*
%TD*%
D11*
%TO.C,D40*%
X130827500Y-132595000D03*
X128752500Y-132595000D03*
%TD*%
D10*
%TO.C,D24*%
X108550000Y-111762500D03*
X108550000Y-109687500D03*
%TD*%
D13*
%TO.C,D118*%
X95905600Y-98935600D03*
X95905600Y-97435600D03*
D14*
X101205600Y-97435600D03*
D13*
X101205600Y-98935600D03*
%TD*%
D10*
%TO.C,R1*%
X143140000Y-66695000D03*
X143140000Y-64620000D03*
%TD*%
D15*
%TO.C,C108*%
X61365000Y-113485000D03*
X63440000Y-113485000D03*
%TD*%
D21*
%TO.C,D30*%
X130300000Y-140025000D03*
X130837050Y-138020704D03*
%TD*%
D13*
%TO.C,D129*%
X137205600Y-122435600D03*
X137205600Y-123935600D03*
D16*
X131905600Y-123935600D03*
D13*
X131905600Y-122435600D03*
%TD*%
D10*
%TO.C,D2*%
X52860000Y-85582500D03*
X52860000Y-83507500D03*
%TD*%
%TO.C,D15*%
X73640000Y-141052500D03*
X73640000Y-138977500D03*
%TD*%
%TO.C,D17*%
X106460000Y-74212500D03*
X106460000Y-72137500D03*
%TD*%
D11*
%TO.C,C119*%
X99657500Y-120655000D03*
X97582500Y-120655000D03*
%TD*%
D10*
%TO.C,D7*%
X70630000Y-79992500D03*
X70630000Y-77917500D03*
%TD*%
D11*
%TO.C,C104*%
X45407500Y-133555000D03*
X43332500Y-133555000D03*
%TD*%
%TO.C,D32*%
X109067500Y-133105000D03*
X106992500Y-133105000D03*
%TD*%
D13*
%TO.C,D110*%
X60905600Y-148935600D03*
X60905600Y-147435600D03*
D14*
X66205600Y-147435600D03*
D13*
X66205600Y-148935600D03*
%TD*%
D10*
%TO.C,D13*%
X72540000Y-101552500D03*
X72540000Y-99477500D03*
%TD*%
D13*
%TO.C,D114*%
X83205600Y-120435600D03*
X83205600Y-121935600D03*
D16*
X77905600Y-121935600D03*
D13*
X77905600Y-120435600D03*
%TD*%
D15*
%TO.C,C125*%
X117632500Y-146965000D03*
X119707500Y-146965000D03*
%TD*%
D13*
%TO.C,D113*%
X77905600Y-102935600D03*
X77905600Y-101435600D03*
D14*
X83205600Y-101435600D03*
D13*
X83205600Y-102935600D03*
%TD*%
%TO.C,D119*%
X101205600Y-116435600D03*
X101205600Y-117935600D03*
D16*
X95905600Y-117935600D03*
D13*
X95905600Y-116435600D03*
%TD*%
%TO.C,D128*%
X131905600Y-104935600D03*
X131905600Y-103435600D03*
D14*
X137205600Y-103435600D03*
D13*
X137205600Y-104935600D03*
%TD*%
D22*
%TO.C,C130*%
X135687852Y-149096475D03*
X137692148Y-149633525D03*
%TD*%
D13*
%TO.C,D115*%
X78905600Y-147935600D03*
X78905600Y-146435600D03*
D14*
X84205600Y-146435600D03*
D13*
X84205600Y-147935600D03*
%TD*%
D15*
%TO.C,C120*%
X98622500Y-149575000D03*
X100697500Y-149575000D03*
%TD*%
D10*
%TO.C,D6*%
X70540000Y-63852500D03*
X70540000Y-61777500D03*
%TD*%
D13*
%TO.C,D104*%
X47205600Y-129435600D03*
X47205600Y-130935600D03*
D16*
X41905600Y-130935600D03*
D13*
X41905600Y-129435600D03*
%TD*%
D19*
%TO.C,IC5*%
X89657391Y-141953820D03*
D20*
X90307391Y-141953820D03*
X90957391Y-141953820D03*
X91607391Y-141953820D03*
X91607391Y-137553820D03*
X90957391Y-137553820D03*
X90307391Y-137553820D03*
X89652391Y-137553820D03*
%TD*%
D15*
%TO.C,C111*%
X79342500Y-67445000D03*
X81417500Y-67445000D03*
%TD*%
D10*
%TO.C,D26*%
X125650000Y-58872500D03*
X125650000Y-56797500D03*
%TD*%
D13*
%TO.C,D120*%
X96905600Y-146935600D03*
X96905600Y-145435600D03*
D14*
X102205600Y-145435600D03*
D13*
X102205600Y-146935600D03*
%TD*%
D11*
%TO.C,C109*%
X63660000Y-132405000D03*
X61585000Y-132405000D03*
%TD*%
%TO.C,C122*%
X117657500Y-86595000D03*
X115582500Y-86595000D03*
%TD*%
D15*
%TO.C,C115*%
X80472500Y-150565000D03*
X82547500Y-150565000D03*
%TD*%
D11*
%TO.C,D38*%
X109067500Y-130995000D03*
X106992500Y-130995000D03*
%TD*%
D10*
%TO.C,D27*%
X125330000Y-76122500D03*
X125330000Y-74047500D03*
%TD*%
D11*
%TO.C,C129*%
X135537500Y-126445000D03*
X133462500Y-126445000D03*
%TD*%
D10*
%TO.C,D4*%
X52640000Y-122602500D03*
X52640000Y-120527500D03*
%TD*%
D23*
%TO.C,C131*%
X152431499Y-155756250D03*
X154228501Y-156793750D03*
%TD*%
D15*
%TO.C,C101*%
X43612500Y-76365000D03*
X45687500Y-76365000D03*
%TD*%
D13*
%TO.C,D105*%
X42905600Y-149935600D03*
X42905600Y-148435600D03*
D14*
X48205600Y-148435600D03*
D13*
X48205600Y-149935600D03*
%TD*%
D10*
%TO.C,D5*%
X54170000Y-141792500D03*
X54170000Y-139717500D03*
%TD*%
D15*
%TO.C,C116*%
X97172500Y-63805000D03*
X99247500Y-63805000D03*
%TD*%
D13*
%TO.C,D121*%
X113905600Y-64935600D03*
X113905600Y-63435600D03*
D14*
X119205600Y-63435600D03*
D13*
X119205600Y-64935600D03*
%TD*%
D10*
%TO.C,D45*%
X143480000Y-93202500D03*
X143480000Y-91127500D03*
%TD*%
%TO.C,D22*%
X108560000Y-74262500D03*
X108560000Y-72187500D03*
%TD*%
D19*
%TO.C,IC3*%
X88775000Y-96945000D03*
D20*
X89425000Y-96945000D03*
X90075000Y-96945000D03*
X90725000Y-96945000D03*
X90725000Y-92545000D03*
X90075000Y-92545000D03*
X89425000Y-92545000D03*
X88770000Y-92545000D03*
%TD*%
D11*
%TO.C,C112*%
X81587500Y-86555000D03*
X79512500Y-86555000D03*
%TD*%
%TO.C,C124*%
X117570000Y-124355000D03*
X115495000Y-124355000D03*
%TD*%
D24*
%TO.C,D130*%
X134881717Y-146180291D03*
X135269946Y-144731402D03*
D25*
X140389353Y-146103143D03*
D24*
X140001124Y-147552032D03*
%TD*%
D15*
%TO.C,C118*%
X97472500Y-101535000D03*
X99547500Y-101535000D03*
%TD*%
D13*
%TO.C,D124*%
X119205600Y-120435600D03*
X119205600Y-121935600D03*
D16*
X113905600Y-121935600D03*
D13*
X113905600Y-120435600D03*
%TD*%
D15*
%TO.C,C103*%
X43652500Y-114455000D03*
X45727500Y-114455000D03*
%TD*%
D10*
%TO.C,D9*%
X70600000Y-119522500D03*
X70600000Y-117447500D03*
%TD*%
D15*
%TO.C,C105*%
X44422500Y-152505000D03*
X46497500Y-152505000D03*
%TD*%
D26*
%TO.C,R2*%
X143140000Y-71437500D03*
X143140000Y-73512500D03*
%TD*%
D13*
%TO.C,D127*%
X137205600Y-84435600D03*
X137205600Y-85935600D03*
D16*
X131905600Y-85935600D03*
D13*
X131905600Y-84435600D03*
%TD*%
D10*
%TO.C,D21*%
X108580000Y-57642500D03*
X108580000Y-55567500D03*
%TD*%
D11*
%TO.C,D39*%
X92817500Y-123495000D03*
X90742500Y-123495000D03*
%TD*%
D15*
%TO.C,C110*%
X62542500Y-151485000D03*
X64617500Y-151485000D03*
%TD*%
D10*
%TO.C,D25*%
X110140000Y-139912500D03*
X110140000Y-137837500D03*
%TD*%
D13*
%TO.C,D122*%
X119205600Y-82435600D03*
X119205600Y-83935600D03*
D16*
X113905600Y-83935600D03*
D13*
X113905600Y-82435600D03*
%TD*%
D11*
%TO.C,D42*%
X99887500Y-123435000D03*
X97812500Y-123435000D03*
%TD*%
D10*
%TO.C,D20*%
X108090000Y-139900000D03*
X108090000Y-137825000D03*
%TD*%
D19*
%TO.C,IC1*%
X88640000Y-59519632D03*
D20*
X89290000Y-59519632D03*
X89940000Y-59519632D03*
X90590000Y-59519632D03*
X90590000Y-55119632D03*
X89940000Y-55119632D03*
X89290000Y-55119632D03*
X88635000Y-55119632D03*
%TD*%
D13*
%TO.C,D107*%
X65205600Y-90435600D03*
X65205600Y-91935600D03*
D16*
X59905600Y-91935600D03*
D13*
X59905600Y-90435600D03*
%TD*%
D11*
%TO.C,C102*%
X45727500Y-95395000D03*
X43652500Y-95395000D03*
%TD*%
D13*
%TO.C,D103*%
X41905600Y-111935600D03*
X41905600Y-110435600D03*
D14*
X47205600Y-110435600D03*
D13*
X47205600Y-111935600D03*
%TD*%
D10*
%TO.C,D19*%
X106520000Y-111762500D03*
X106520000Y-109687500D03*
%TD*%
%TO.C,D46*%
X143530000Y-100792500D03*
X143530000Y-98717500D03*
%TD*%
D13*
%TO.C,D111*%
X77905600Y-64935600D03*
X77905600Y-63435600D03*
D14*
X83205600Y-63435600D03*
D13*
X83205600Y-64935600D03*
%TD*%
D10*
%TO.C,D28*%
X125450000Y-93562500D03*
X125450000Y-91487500D03*
%TD*%
D13*
%TO.C,D101*%
X41905600Y-73935600D03*
X41905600Y-72435600D03*
D14*
X47205600Y-72435600D03*
D13*
X47205600Y-73935600D03*
%TD*%
D10*
%TO.C,D8*%
X70580000Y-101532500D03*
X70580000Y-99457500D03*
%TD*%
D11*
%TO.C,D41*%
X92817500Y-125695000D03*
X90742500Y-125695000D03*
%TD*%
D13*
%TO.C,D106*%
X59905600Y-72935600D03*
X59905600Y-71435600D03*
D14*
X65205600Y-71435600D03*
D13*
X65205600Y-72935600D03*
%TD*%
D19*
%TO.C,IC4*%
X88670000Y-116315402D03*
D20*
X89320000Y-116315402D03*
X89970000Y-116315402D03*
X90620000Y-116315402D03*
X90620000Y-111915402D03*
X89970000Y-111915402D03*
X89320000Y-111915402D03*
X88665000Y-111915402D03*
%TD*%
D27*
%TO.C,D43*%
X152516222Y-152818583D03*
X153266222Y-151519545D03*
D28*
X157856156Y-154169545D03*
D27*
X157106156Y-155468583D03*
%TD*%
D15*
%TO.C,C128*%
X133502500Y-107405000D03*
X135577500Y-107405000D03*
%TD*%
D11*
%TO.C,C117*%
X99417500Y-82655000D03*
X97342500Y-82655000D03*
%TD*%
D15*
%TO.C,C126*%
X133402500Y-69665000D03*
X135477500Y-69665000D03*
%TD*%
D11*
%TO.C,D34*%
X130817500Y-134575000D03*
X128742500Y-134575000D03*
%TD*%
M02*
