%TF.GenerationSoftware,KiCad,Pcbnew,(6.0.0)*%
%TF.CreationDate,2022-05-14T17:53:23+09:00*%
%TF.ProjectId,brimstone2b,6272696d-7374-46f6-9e65-32622e6b6963,rev?*%
%TF.SameCoordinates,Original*%
%TF.FileFunction,Legend,Top*%
%TF.FilePolarity,Positive*%
%FSLAX46Y46*%
G04 Gerber Fmt 4.6, Leading zero omitted, Abs format (unit mm)*
G04 Created by KiCad (PCBNEW (6.0.0)) date 2022-05-14 17:53:23*
%MOMM*%
%LPD*%
G01*
G04 APERTURE LIST*
%ADD10C,0.150000*%
%ADD11C,0.200000*%
%ADD12C,0.120000*%
%ADD13C,0.100000*%
G04 APERTURE END LIST*
D10*
X189065000Y-83127049D02*
X189065000Y-88527049D01*
X181220000Y-76837049D02*
X181220000Y-75977049D01*
X184390000Y-76827049D02*
X184390000Y-75967049D01*
X181240000Y-75977049D02*
X184420000Y-75977049D01*
X189035000Y-83137049D02*
X188375000Y-83137049D01*
X184410000Y-75967049D02*
X187590000Y-75967049D01*
X188445000Y-77737049D02*
X189035000Y-77737049D01*
X188475000Y-83127049D02*
X189065000Y-83127049D01*
X189035000Y-77737049D02*
X189035000Y-83137049D01*
X188465000Y-88537049D02*
X189055000Y-88537049D01*
X187590000Y-75967049D02*
X187590000Y-76767049D01*
X184420000Y-75977049D02*
X184420000Y-76777049D01*
X113244285Y-122807619D02*
X113291904Y-122760000D01*
X113387142Y-122712380D01*
X113625238Y-122712380D01*
X113720476Y-122760000D01*
X113768095Y-122807619D01*
X113815714Y-122902857D01*
X113815714Y-122998095D01*
X113768095Y-123140952D01*
X113196666Y-123712380D01*
X113815714Y-123712380D01*
X184209047Y-75679429D02*
X184209047Y-74679429D01*
X184447142Y-74679429D01*
X184590000Y-74727049D01*
X184685238Y-74822287D01*
X184732857Y-74917525D01*
X184780476Y-75108001D01*
X184780476Y-75250858D01*
X184732857Y-75441334D01*
X184685238Y-75536572D01*
X184590000Y-75631810D01*
X184447142Y-75679429D01*
X184209047Y-75679429D01*
X185399523Y-74679429D02*
X185590000Y-74679429D01*
X185685238Y-74727049D01*
X185780476Y-74822287D01*
X185828095Y-75012763D01*
X185828095Y-75346096D01*
X185780476Y-75536572D01*
X185685238Y-75631810D01*
X185590000Y-75679429D01*
X185399523Y-75679429D01*
X185304285Y-75631810D01*
X185209047Y-75536572D01*
X185161428Y-75346096D01*
X185161428Y-75012763D01*
X185209047Y-74822287D01*
X185304285Y-74727049D01*
X185399523Y-74679429D01*
X186161428Y-74679429D02*
X186399523Y-75679429D01*
X186590000Y-74965144D01*
X186780476Y-75679429D01*
X187018571Y-74679429D01*
X187399523Y-75679429D02*
X187399523Y-74679429D01*
X187970952Y-75679429D01*
X187970952Y-74679429D01*
X104790476Y-121605714D02*
X104790476Y-122272380D01*
X104552380Y-121224761D02*
X104314285Y-121939047D01*
X104933333Y-121939047D01*
X181814285Y-74679429D02*
X181814285Y-75488953D01*
X181861904Y-75584191D01*
X181909523Y-75631810D01*
X182004761Y-75679429D01*
X182195238Y-75679429D01*
X182290476Y-75631810D01*
X182338095Y-75584191D01*
X182385714Y-75488953D01*
X182385714Y-74679429D01*
X182861904Y-75679429D02*
X182861904Y-74679429D01*
X183242857Y-74679429D01*
X183338095Y-74727049D01*
X183385714Y-74774668D01*
X183433333Y-74869906D01*
X183433333Y-75012763D01*
X183385714Y-75108001D01*
X183338095Y-75155620D01*
X183242857Y-75203239D01*
X182861904Y-75203239D01*
X181322857Y-48549429D02*
X181322857Y-47549429D01*
X181656190Y-48263715D01*
X181989523Y-47549429D01*
X181989523Y-48549429D01*
X183037142Y-48454191D02*
X182989523Y-48501810D01*
X182846666Y-48549429D01*
X182751428Y-48549429D01*
X182608571Y-48501810D01*
X182513333Y-48406572D01*
X182465714Y-48311334D01*
X182418095Y-48120858D01*
X182418095Y-47978001D01*
X182465714Y-47787525D01*
X182513333Y-47692287D01*
X182608571Y-47597049D01*
X182751428Y-47549429D01*
X182846666Y-47549429D01*
X182989523Y-47597049D01*
X183037142Y-47644668D01*
X183465714Y-47549429D02*
X183465714Y-48358953D01*
X183513333Y-48454191D01*
X183560952Y-48501810D01*
X183656190Y-48549429D01*
X183846666Y-48549429D01*
X183941904Y-48501810D01*
X183989523Y-48454191D01*
X184037142Y-48358953D01*
X184037142Y-47549429D01*
X181441904Y-49635620D02*
X181108571Y-49635620D01*
X181108571Y-50159429D02*
X181108571Y-49159429D01*
X181584761Y-49159429D01*
X181918095Y-49873715D02*
X182394285Y-49873715D01*
X181822857Y-50159429D02*
X182156190Y-49159429D01*
X182489523Y-50159429D01*
X183394285Y-50064191D02*
X183346666Y-50111810D01*
X183203809Y-50159429D01*
X183108571Y-50159429D01*
X182965714Y-50111810D01*
X182870476Y-50016572D01*
X182822857Y-49921334D01*
X182775238Y-49730858D01*
X182775238Y-49588001D01*
X182822857Y-49397525D01*
X182870476Y-49302287D01*
X182965714Y-49207049D01*
X183108571Y-49159429D01*
X183203809Y-49159429D01*
X183346666Y-49207049D01*
X183394285Y-49254668D01*
X183822857Y-49635620D02*
X184156190Y-49635620D01*
X184299047Y-50159429D02*
X183822857Y-50159429D01*
X183822857Y-49159429D01*
X184299047Y-49159429D01*
X181894285Y-50769429D02*
X181894285Y-51578953D01*
X181941904Y-51674191D01*
X181989523Y-51721810D01*
X182084761Y-51769429D01*
X182275238Y-51769429D01*
X182370476Y-51721810D01*
X182418095Y-51674191D01*
X182465714Y-51578953D01*
X182465714Y-50769429D01*
X182941904Y-51769429D02*
X182941904Y-50769429D01*
X183322857Y-50769429D01*
X183418095Y-50817049D01*
X183465714Y-50864668D01*
X183513333Y-50959906D01*
X183513333Y-51102763D01*
X183465714Y-51198001D01*
X183418095Y-51245620D01*
X183322857Y-51293239D01*
X182941904Y-51293239D01*
X113720476Y-120322380D02*
X113530000Y-120322380D01*
X113434761Y-120370000D01*
X113387142Y-120417619D01*
X113291904Y-120560476D01*
X113244285Y-120750952D01*
X113244285Y-121131904D01*
X113291904Y-121227142D01*
X113339523Y-121274761D01*
X113434761Y-121322380D01*
X113625238Y-121322380D01*
X113720476Y-121274761D01*
X113768095Y-121227142D01*
X113815714Y-121131904D01*
X113815714Y-120893809D01*
X113768095Y-120798571D01*
X113720476Y-120750952D01*
X113625238Y-120703333D01*
X113434761Y-120703333D01*
X113339523Y-120750952D01*
X113291904Y-120798571D01*
X113244285Y-120893809D01*
X189733571Y-87160382D02*
X189781190Y-87017525D01*
X189828809Y-86969906D01*
X189924047Y-86922287D01*
X190066904Y-86922287D01*
X190162142Y-86969906D01*
X190209761Y-87017525D01*
X190257380Y-87112763D01*
X190257380Y-87493715D01*
X189257380Y-87493715D01*
X189257380Y-87160382D01*
X189305000Y-87065144D01*
X189352619Y-87017525D01*
X189447857Y-86969906D01*
X189543095Y-86969906D01*
X189638333Y-87017525D01*
X189685952Y-87065144D01*
X189733571Y-87160382D01*
X189733571Y-87493715D01*
X189257380Y-86636572D02*
X189257380Y-86065144D01*
X190257380Y-86350858D02*
X189257380Y-86350858D01*
X190257380Y-85731810D02*
X189257380Y-85731810D01*
X190257380Y-85160382D01*
X189257380Y-85160382D01*
X113256666Y-125132380D02*
X113875714Y-125132380D01*
X113542380Y-125513333D01*
X113685238Y-125513333D01*
X113780476Y-125560952D01*
X113828095Y-125608571D01*
X113875714Y-125703809D01*
X113875714Y-125941904D01*
X113828095Y-126037142D01*
X113780476Y-126084761D01*
X113685238Y-126132380D01*
X113399523Y-126132380D01*
X113304285Y-126084761D01*
X113256666Y-126037142D01*
X69595504Y-50337675D02*
X69523137Y-50451269D01*
X69264809Y-50606090D01*
X69078847Y-50647316D01*
X68779292Y-50616176D01*
X68552105Y-50471441D01*
X68417897Y-50306093D01*
X68242464Y-49954784D01*
X68180624Y-49675843D01*
X68191151Y-49283307D01*
X68242905Y-49076733D01*
X68387640Y-48849545D01*
X68645968Y-48694724D01*
X68831929Y-48653498D01*
X69131484Y-48684638D01*
X69245078Y-48757006D01*
X70473556Y-50338117D02*
X70040677Y-48385525D01*
X71310381Y-50152597D02*
X71083635Y-49129811D01*
X70949428Y-48964463D01*
X70742853Y-48912709D01*
X70463912Y-48974549D01*
X70298564Y-49108756D01*
X70226196Y-49222350D01*
X72519129Y-49884624D02*
X72312554Y-49832870D01*
X72198960Y-49760503D01*
X72064753Y-49595155D01*
X71941073Y-49037272D01*
X71992827Y-48830697D01*
X72065195Y-48717104D01*
X72230542Y-48582896D01*
X72509484Y-48521056D01*
X72716059Y-48572810D01*
X72829652Y-48645178D01*
X72963860Y-48810526D01*
X73087539Y-49368409D01*
X73035785Y-49574983D01*
X72963418Y-49688577D01*
X72798070Y-49822784D01*
X72519129Y-49884624D01*
X73718232Y-48253084D02*
X74151111Y-50205676D01*
X73738845Y-48346064D02*
X73904193Y-48211857D01*
X74276115Y-48129404D01*
X74482689Y-48181158D01*
X74596283Y-48253525D01*
X74730490Y-48418873D01*
X74854170Y-48976756D01*
X74802416Y-49183331D01*
X74730049Y-49296925D01*
X74564701Y-49431132D01*
X74192779Y-49513585D01*
X73986204Y-49461831D01*
X76847989Y-48729838D02*
X76775622Y-48843432D01*
X76517293Y-48998253D01*
X76331332Y-49039479D01*
X76031777Y-49008339D01*
X75804589Y-48863604D01*
X75670382Y-48698256D01*
X75494948Y-48346947D01*
X75433108Y-48068005D01*
X75443636Y-47675470D01*
X75495390Y-47468895D01*
X75640124Y-47241708D01*
X75898453Y-47086887D01*
X76084414Y-47045661D01*
X76383969Y-47076801D01*
X76497563Y-47149169D01*
X77726041Y-48730280D02*
X77293161Y-46777688D01*
X78562866Y-48544760D02*
X78336119Y-47521974D01*
X78201912Y-47356626D01*
X77995338Y-47304872D01*
X77716396Y-47366712D01*
X77551048Y-47500919D01*
X77478681Y-47614513D01*
X79771613Y-48276787D02*
X79565039Y-48225033D01*
X79451445Y-48152666D01*
X79317238Y-47987318D01*
X79193558Y-47429435D01*
X79245312Y-47222860D01*
X79317679Y-47109266D01*
X79483027Y-46975059D01*
X79761969Y-46913219D01*
X79968543Y-46964973D01*
X80082137Y-47037341D01*
X80216344Y-47202688D01*
X80340024Y-47760572D01*
X80288270Y-47967146D01*
X80215903Y-48080740D01*
X80050555Y-48214947D01*
X79771613Y-48276787D01*
X80970716Y-46645246D02*
X81403595Y-48597838D01*
X80991329Y-46738227D02*
X81156677Y-46604020D01*
X81528600Y-46521567D01*
X81735174Y-46573321D01*
X81848768Y-46645688D01*
X81982975Y-46811036D01*
X82106655Y-47368919D01*
X82054901Y-47575494D01*
X81982534Y-47689088D01*
X81817186Y-47823295D01*
X81445263Y-47905748D01*
X81238689Y-47853994D01*
X84039075Y-45965008D02*
X84792564Y-47163669D01*
X84968881Y-45758875D01*
X87024098Y-46668950D02*
X85908331Y-46916310D01*
X86466214Y-46792630D02*
X86033335Y-44840038D01*
X85909214Y-45160206D01*
X85764479Y-45387394D01*
X85599131Y-45521601D01*
X89235018Y-46081250D02*
X89534573Y-46112391D01*
X89999476Y-46009325D01*
X90164824Y-45875117D01*
X90237191Y-45761524D01*
X90288945Y-45554949D01*
X90247719Y-45368988D01*
X90113511Y-45203640D01*
X89999918Y-45131273D01*
X89793343Y-45079519D01*
X89400808Y-45068991D01*
X89194233Y-45017238D01*
X89080639Y-44944870D01*
X88946432Y-44779522D01*
X88905205Y-44593561D01*
X88956959Y-44386987D01*
X89029327Y-44273393D01*
X89194675Y-44139186D01*
X89659577Y-44036119D01*
X89959132Y-44067260D01*
X90640696Y-44501464D02*
X91384540Y-44336557D01*
X90775344Y-43788760D02*
X91146384Y-45462410D01*
X91280591Y-45627758D01*
X91487165Y-45679512D01*
X91673126Y-45638285D01*
X93047222Y-45236105D02*
X92881874Y-45370312D01*
X92509952Y-45452766D01*
X92303377Y-45401012D01*
X92169170Y-45235664D01*
X92004264Y-44491819D01*
X92056018Y-44285245D01*
X92221365Y-44151038D01*
X92593288Y-44068584D01*
X92799862Y-44120338D01*
X92934069Y-44285686D01*
X92975296Y-44471647D01*
X92086717Y-44863741D01*
X93430113Y-43883065D02*
X94173957Y-43718158D01*
X93997641Y-45122953D02*
X93626601Y-43449303D01*
X93678355Y-43242728D01*
X93843703Y-43108521D01*
X94029664Y-43067294D01*
X95950233Y-44690074D02*
X95723486Y-43667287D01*
X95589279Y-43501939D01*
X95382705Y-43450185D01*
X95010783Y-43532639D01*
X94845435Y-43666846D01*
X95929619Y-44597093D02*
X95764272Y-44731300D01*
X95299369Y-44834367D01*
X95092794Y-44782613D01*
X94958587Y-44617265D01*
X94917361Y-44431304D01*
X94969115Y-44224729D01*
X95134462Y-44090522D01*
X95599365Y-43987456D01*
X95764713Y-43853248D01*
X96591452Y-43182213D02*
X96880038Y-44483941D01*
X96632679Y-43368174D02*
X96705046Y-43254580D01*
X96870394Y-43120373D01*
X97149336Y-43058533D01*
X97355910Y-43110287D01*
X97490117Y-43275635D01*
X97716864Y-44298421D01*
X100558476Y-42595396D02*
X100858031Y-42626537D01*
X100971625Y-42698904D01*
X101105832Y-42864252D01*
X101167672Y-43143193D01*
X101115918Y-43349768D01*
X101043551Y-43463362D01*
X100878203Y-43597569D01*
X100134358Y-43762475D01*
X99701479Y-41809883D01*
X100352343Y-41665590D01*
X100558918Y-41717344D01*
X100672512Y-41789711D01*
X100806719Y-41955059D01*
X100847945Y-42141020D01*
X100796191Y-42347595D01*
X100723824Y-42461189D01*
X100558476Y-42595396D01*
X99907612Y-42739689D01*
X102365892Y-43267756D02*
X102159318Y-43216002D01*
X102045724Y-43143635D01*
X101911517Y-42978287D01*
X101787837Y-42420404D01*
X101839591Y-42213829D01*
X101911958Y-42100235D01*
X102077306Y-41966028D01*
X102356248Y-41904188D01*
X102562822Y-41955942D01*
X102676416Y-42028310D01*
X102810623Y-42193657D01*
X102934303Y-42751541D01*
X102882549Y-42958115D01*
X102810182Y-43071709D01*
X102644834Y-43205916D01*
X102365892Y-43267756D01*
X103853581Y-42937943D02*
X103420702Y-40985351D01*
X104690407Y-42752424D02*
X104463660Y-41729637D01*
X104329453Y-41564290D01*
X104122879Y-41512536D01*
X103843937Y-41574376D01*
X103678589Y-41708583D01*
X103606222Y-41822177D01*
X105331626Y-41244563D02*
X105620212Y-42546291D01*
X105372853Y-41430524D02*
X105445220Y-41316930D01*
X105610568Y-41182723D01*
X105889510Y-41120883D01*
X106096084Y-41172637D01*
X106230291Y-41337985D01*
X106457037Y-42360771D01*
X108110074Y-41896751D02*
X107944727Y-42030958D01*
X107572804Y-42113412D01*
X107366230Y-42061658D01*
X107232023Y-41896310D01*
X107067116Y-41152465D01*
X107118870Y-40945891D01*
X107284218Y-40811684D01*
X107656140Y-40729230D01*
X107862715Y-40780984D01*
X107996922Y-40946332D01*
X108038149Y-41132293D01*
X107149569Y-41524387D01*
X104925714Y-126902380D02*
X104354285Y-126902380D01*
X104640000Y-126902380D02*
X104640000Y-125902380D01*
X104544761Y-126045238D01*
X104449523Y-126140476D01*
X104354285Y-126188095D01*
X104848095Y-123492380D02*
X104371904Y-123492380D01*
X104324285Y-123968571D01*
X104371904Y-123920952D01*
X104467142Y-123873333D01*
X104705238Y-123873333D01*
X104800476Y-123920952D01*
X104848095Y-123968571D01*
X104895714Y-124063809D01*
X104895714Y-124301904D01*
X104848095Y-124397142D01*
X104800476Y-124444761D01*
X104705238Y-124492380D01*
X104467142Y-124492380D01*
X104371904Y-124444761D01*
X104324285Y-124397142D01*
X189713571Y-81115144D02*
X189713571Y-80781810D01*
X190237380Y-80638953D02*
X190237380Y-81115144D01*
X189237380Y-81115144D01*
X189237380Y-80638953D01*
X190237380Y-80210382D02*
X189237380Y-80210382D01*
X190237380Y-79638953D01*
X189237380Y-79638953D01*
%TO.C,SW8*%
X141306666Y-68291810D02*
X141449523Y-68339429D01*
X141687619Y-68339429D01*
X141782857Y-68291810D01*
X141830476Y-68244191D01*
X141878095Y-68148953D01*
X141878095Y-68053715D01*
X141830476Y-67958477D01*
X141782857Y-67910858D01*
X141687619Y-67863239D01*
X141497142Y-67815620D01*
X141401904Y-67768001D01*
X141354285Y-67720382D01*
X141306666Y-67625144D01*
X141306666Y-67529906D01*
X141354285Y-67434668D01*
X141401904Y-67387049D01*
X141497142Y-67339429D01*
X141735238Y-67339429D01*
X141878095Y-67387049D01*
X142211428Y-67339429D02*
X142449523Y-68339429D01*
X142640000Y-67625144D01*
X142830476Y-68339429D01*
X143068571Y-67339429D01*
X143592380Y-67768001D02*
X143497142Y-67720382D01*
X143449523Y-67672763D01*
X143401904Y-67577525D01*
X143401904Y-67529906D01*
X143449523Y-67434668D01*
X143497142Y-67387049D01*
X143592380Y-67339429D01*
X143782857Y-67339429D01*
X143878095Y-67387049D01*
X143925714Y-67434668D01*
X143973333Y-67529906D01*
X143973333Y-67577525D01*
X143925714Y-67672763D01*
X143878095Y-67720382D01*
X143782857Y-67768001D01*
X143592380Y-67768001D01*
X143497142Y-67815620D01*
X143449523Y-67863239D01*
X143401904Y-67958477D01*
X143401904Y-68148953D01*
X143449523Y-68244191D01*
X143497142Y-68291810D01*
X143592380Y-68339429D01*
X143782857Y-68339429D01*
X143878095Y-68291810D01*
X143925714Y-68244191D01*
X143973333Y-68148953D01*
X143973333Y-67958477D01*
X143925714Y-67863239D01*
X143878095Y-67815620D01*
X143782857Y-67768001D01*
%TO.C,SW31*%
X87830476Y-133291810D02*
X87973333Y-133339429D01*
X88211428Y-133339429D01*
X88306666Y-133291810D01*
X88354285Y-133244191D01*
X88401904Y-133148953D01*
X88401904Y-133053715D01*
X88354285Y-132958477D01*
X88306666Y-132910858D01*
X88211428Y-132863239D01*
X88020952Y-132815620D01*
X87925714Y-132768001D01*
X87878095Y-132720382D01*
X87830476Y-132625144D01*
X87830476Y-132529906D01*
X87878095Y-132434668D01*
X87925714Y-132387049D01*
X88020952Y-132339429D01*
X88259047Y-132339429D01*
X88401904Y-132387049D01*
X88735238Y-132339429D02*
X88973333Y-133339429D01*
X89163809Y-132625144D01*
X89354285Y-133339429D01*
X89592380Y-132339429D01*
X89878095Y-132339429D02*
X90497142Y-132339429D01*
X90163809Y-132720382D01*
X90306666Y-132720382D01*
X90401904Y-132768001D01*
X90449523Y-132815620D01*
X90497142Y-132910858D01*
X90497142Y-133148953D01*
X90449523Y-133244191D01*
X90401904Y-133291810D01*
X90306666Y-133339429D01*
X90020952Y-133339429D01*
X89925714Y-133291810D01*
X89878095Y-133244191D01*
X91449523Y-133339429D02*
X90878095Y-133339429D01*
X91163809Y-133339429D02*
X91163809Y-132339429D01*
X91068571Y-132482287D01*
X90973333Y-132577525D01*
X90878095Y-132625144D01*
%TO.C,SW17*%
X104830476Y-49291810D02*
X104973333Y-49339429D01*
X105211428Y-49339429D01*
X105306666Y-49291810D01*
X105354285Y-49244191D01*
X105401904Y-49148953D01*
X105401904Y-49053715D01*
X105354285Y-48958477D01*
X105306666Y-48910858D01*
X105211428Y-48863239D01*
X105020952Y-48815620D01*
X104925714Y-48768001D01*
X104878095Y-48720382D01*
X104830476Y-48625144D01*
X104830476Y-48529906D01*
X104878095Y-48434668D01*
X104925714Y-48387049D01*
X105020952Y-48339429D01*
X105259047Y-48339429D01*
X105401904Y-48387049D01*
X105735238Y-48339429D02*
X105973333Y-49339429D01*
X106163809Y-48625144D01*
X106354285Y-49339429D01*
X106592380Y-48339429D01*
X107497142Y-49339429D02*
X106925714Y-49339429D01*
X107211428Y-49339429D02*
X107211428Y-48339429D01*
X107116190Y-48482287D01*
X107020952Y-48577525D01*
X106925714Y-48625144D01*
X107830476Y-48339429D02*
X108497142Y-48339429D01*
X108068571Y-49339429D01*
%TO.C,JP9*%
X187802380Y-85710382D02*
X188516666Y-85710382D01*
X188659523Y-85758001D01*
X188754761Y-85853239D01*
X188802380Y-85996096D01*
X188802380Y-86091334D01*
X188802380Y-85234191D02*
X187802380Y-85234191D01*
X187802380Y-84853239D01*
X187850000Y-84758001D01*
X187897619Y-84710382D01*
X187992857Y-84662763D01*
X188135714Y-84662763D01*
X188230952Y-84710382D01*
X188278571Y-84758001D01*
X188326190Y-84853239D01*
X188326190Y-85234191D01*
X188802380Y-84186572D02*
X188802380Y-83996096D01*
X188754761Y-83900858D01*
X188707142Y-83853239D01*
X188564285Y-83758001D01*
X188373809Y-83710382D01*
X187992857Y-83710382D01*
X187897619Y-83758001D01*
X187850000Y-83805620D01*
X187802380Y-83900858D01*
X187802380Y-84091334D01*
X187850000Y-84186572D01*
X187897619Y-84234191D01*
X187992857Y-84281810D01*
X188230952Y-84281810D01*
X188326190Y-84234191D01*
X188373809Y-84186572D01*
X188421428Y-84091334D01*
X188421428Y-83900858D01*
X188373809Y-83805620D01*
X188326190Y-83758001D01*
X188230952Y-83710382D01*
%TO.C,SW9*%
X141306666Y-106291810D02*
X141449523Y-106339429D01*
X141687619Y-106339429D01*
X141782857Y-106291810D01*
X141830476Y-106244191D01*
X141878095Y-106148953D01*
X141878095Y-106053715D01*
X141830476Y-105958477D01*
X141782857Y-105910858D01*
X141687619Y-105863239D01*
X141497142Y-105815620D01*
X141401904Y-105768001D01*
X141354285Y-105720382D01*
X141306666Y-105625144D01*
X141306666Y-105529906D01*
X141354285Y-105434668D01*
X141401904Y-105387049D01*
X141497142Y-105339429D01*
X141735238Y-105339429D01*
X141878095Y-105387049D01*
X142211428Y-105339429D02*
X142449523Y-106339429D01*
X142640000Y-105625144D01*
X142830476Y-106339429D01*
X143068571Y-105339429D01*
X143497142Y-106339429D02*
X143687619Y-106339429D01*
X143782857Y-106291810D01*
X143830476Y-106244191D01*
X143925714Y-106101334D01*
X143973333Y-105910858D01*
X143973333Y-105529906D01*
X143925714Y-105434668D01*
X143878095Y-105387049D01*
X143782857Y-105339429D01*
X143592380Y-105339429D01*
X143497142Y-105387049D01*
X143449523Y-105434668D01*
X143401904Y-105529906D01*
X143401904Y-105768001D01*
X143449523Y-105863239D01*
X143497142Y-105910858D01*
X143592380Y-105958477D01*
X143782857Y-105958477D01*
X143878095Y-105910858D01*
X143925714Y-105863239D01*
X143973333Y-105768001D01*
%TO.C,SW18*%
X104830476Y-68291810D02*
X104973333Y-68339429D01*
X105211428Y-68339429D01*
X105306666Y-68291810D01*
X105354285Y-68244191D01*
X105401904Y-68148953D01*
X105401904Y-68053715D01*
X105354285Y-67958477D01*
X105306666Y-67910858D01*
X105211428Y-67863239D01*
X105020952Y-67815620D01*
X104925714Y-67768001D01*
X104878095Y-67720382D01*
X104830476Y-67625144D01*
X104830476Y-67529906D01*
X104878095Y-67434668D01*
X104925714Y-67387049D01*
X105020952Y-67339429D01*
X105259047Y-67339429D01*
X105401904Y-67387049D01*
X105735238Y-67339429D02*
X105973333Y-68339429D01*
X106163809Y-67625144D01*
X106354285Y-68339429D01*
X106592380Y-67339429D01*
X107497142Y-68339429D02*
X106925714Y-68339429D01*
X107211428Y-68339429D02*
X107211428Y-67339429D01*
X107116190Y-67482287D01*
X107020952Y-67577525D01*
X106925714Y-67625144D01*
X108068571Y-67768001D02*
X107973333Y-67720382D01*
X107925714Y-67672763D01*
X107878095Y-67577525D01*
X107878095Y-67529906D01*
X107925714Y-67434668D01*
X107973333Y-67387049D01*
X108068571Y-67339429D01*
X108259047Y-67339429D01*
X108354285Y-67387049D01*
X108401904Y-67434668D01*
X108449523Y-67529906D01*
X108449523Y-67577525D01*
X108401904Y-67672763D01*
X108354285Y-67720382D01*
X108259047Y-67768001D01*
X108068571Y-67768001D01*
X107973333Y-67815620D01*
X107925714Y-67863239D01*
X107878095Y-67958477D01*
X107878095Y-68148953D01*
X107925714Y-68244191D01*
X107973333Y-68291810D01*
X108068571Y-68339429D01*
X108259047Y-68339429D01*
X108354285Y-68291810D01*
X108401904Y-68244191D01*
X108449523Y-68148953D01*
X108449523Y-67958477D01*
X108401904Y-67863239D01*
X108354285Y-67815620D01*
X108259047Y-67768001D01*
%TO.C,JP5*%
X187812380Y-82480382D02*
X188526666Y-82480382D01*
X188669523Y-82528001D01*
X188764761Y-82623239D01*
X188812380Y-82766096D01*
X188812380Y-82861334D01*
X188812380Y-82004191D02*
X187812380Y-82004191D01*
X187812380Y-81623239D01*
X187860000Y-81528001D01*
X187907619Y-81480382D01*
X188002857Y-81432763D01*
X188145714Y-81432763D01*
X188240952Y-81480382D01*
X188288571Y-81528001D01*
X188336190Y-81623239D01*
X188336190Y-82004191D01*
X187812380Y-80528001D02*
X187812380Y-81004191D01*
X188288571Y-81051810D01*
X188240952Y-81004191D01*
X188193333Y-80908953D01*
X188193333Y-80670858D01*
X188240952Y-80575620D01*
X188288571Y-80528001D01*
X188383809Y-80480382D01*
X188621904Y-80480382D01*
X188717142Y-80528001D01*
X188764761Y-80575620D01*
X188812380Y-80670858D01*
X188812380Y-80908953D01*
X188764761Y-81004191D01*
X188717142Y-81051810D01*
%TO.C,JP14*%
X137690476Y-120149429D02*
X137690476Y-120863715D01*
X137642857Y-121006572D01*
X137547619Y-121101810D01*
X137404761Y-121149429D01*
X137309523Y-121149429D01*
X138166666Y-121149429D02*
X138166666Y-120149429D01*
X138547619Y-120149429D01*
X138642857Y-120197049D01*
X138690476Y-120244668D01*
X138738095Y-120339906D01*
X138738095Y-120482763D01*
X138690476Y-120578001D01*
X138642857Y-120625620D01*
X138547619Y-120673239D01*
X138166666Y-120673239D01*
X139690476Y-121149429D02*
X139119047Y-121149429D01*
X139404761Y-121149429D02*
X139404761Y-120149429D01*
X139309523Y-120292287D01*
X139214285Y-120387525D01*
X139119047Y-120435144D01*
X140547619Y-120482763D02*
X140547619Y-121149429D01*
X140309523Y-120101810D02*
X140071428Y-120816096D01*
X140690476Y-120816096D01*
%TO.C,SW23*%
X68830476Y-77291810D02*
X68973333Y-77339429D01*
X69211428Y-77339429D01*
X69306666Y-77291810D01*
X69354285Y-77244191D01*
X69401904Y-77148953D01*
X69401904Y-77053715D01*
X69354285Y-76958477D01*
X69306666Y-76910858D01*
X69211428Y-76863239D01*
X69020952Y-76815620D01*
X68925714Y-76768001D01*
X68878095Y-76720382D01*
X68830476Y-76625144D01*
X68830476Y-76529906D01*
X68878095Y-76434668D01*
X68925714Y-76387049D01*
X69020952Y-76339429D01*
X69259047Y-76339429D01*
X69401904Y-76387049D01*
X69735238Y-76339429D02*
X69973333Y-77339429D01*
X70163809Y-76625144D01*
X70354285Y-77339429D01*
X70592380Y-76339429D01*
X70925714Y-76434668D02*
X70973333Y-76387049D01*
X71068571Y-76339429D01*
X71306666Y-76339429D01*
X71401904Y-76387049D01*
X71449523Y-76434668D01*
X71497142Y-76529906D01*
X71497142Y-76625144D01*
X71449523Y-76768001D01*
X70878095Y-77339429D01*
X71497142Y-77339429D01*
X71830476Y-76339429D02*
X72449523Y-76339429D01*
X72116190Y-76720382D01*
X72259047Y-76720382D01*
X72354285Y-76768001D01*
X72401904Y-76815620D01*
X72449523Y-76910858D01*
X72449523Y-77148953D01*
X72401904Y-77244191D01*
X72354285Y-77291810D01*
X72259047Y-77339429D01*
X71973333Y-77339429D01*
X71878095Y-77291810D01*
X71830476Y-77244191D01*
%TO.C,SW15*%
X158830476Y-108291810D02*
X158973333Y-108339429D01*
X159211428Y-108339429D01*
X159306666Y-108291810D01*
X159354285Y-108244191D01*
X159401904Y-108148953D01*
X159401904Y-108053715D01*
X159354285Y-107958477D01*
X159306666Y-107910858D01*
X159211428Y-107863239D01*
X159020952Y-107815620D01*
X158925714Y-107768001D01*
X158878095Y-107720382D01*
X158830476Y-107625144D01*
X158830476Y-107529906D01*
X158878095Y-107434668D01*
X158925714Y-107387049D01*
X159020952Y-107339429D01*
X159259047Y-107339429D01*
X159401904Y-107387049D01*
X159735238Y-107339429D02*
X159973333Y-108339429D01*
X160163809Y-107625144D01*
X160354285Y-108339429D01*
X160592380Y-107339429D01*
X161497142Y-108339429D02*
X160925714Y-108339429D01*
X161211428Y-108339429D02*
X161211428Y-107339429D01*
X161116190Y-107482287D01*
X161020952Y-107577525D01*
X160925714Y-107625144D01*
X162401904Y-107339429D02*
X161925714Y-107339429D01*
X161878095Y-107815620D01*
X161925714Y-107768001D01*
X162020952Y-107720382D01*
X162259047Y-107720382D01*
X162354285Y-107768001D01*
X162401904Y-107815620D01*
X162449523Y-107910858D01*
X162449523Y-108148953D01*
X162401904Y-108244191D01*
X162354285Y-108291810D01*
X162259047Y-108339429D01*
X162020952Y-108339429D01*
X161925714Y-108291810D01*
X161878095Y-108244191D01*
%TO.C,SW16*%
X164912553Y-129012112D02*
X165044971Y-129083814D01*
X165279449Y-129125159D01*
X165381509Y-129094801D01*
X165436674Y-129056175D01*
X165500107Y-128970652D01*
X165516645Y-128876861D01*
X165486288Y-128774801D01*
X165447661Y-128719636D01*
X165362139Y-128656203D01*
X165182825Y-128576231D01*
X165097303Y-128512798D01*
X165058676Y-128457633D01*
X165028319Y-128355573D01*
X165044857Y-128261782D01*
X165108290Y-128176260D01*
X165163455Y-128137633D01*
X165265515Y-128107275D01*
X165499993Y-128148620D01*
X165632411Y-128220323D01*
X165968949Y-128231310D02*
X166029779Y-129257462D01*
X166341396Y-128587104D01*
X166404944Y-129323614D01*
X166813070Y-128380151D01*
X167530438Y-129522069D02*
X166967691Y-129422842D01*
X167249065Y-129472455D02*
X167422713Y-128487648D01*
X167304115Y-128611796D01*
X167193786Y-128689050D01*
X167091725Y-128719407D01*
X168548207Y-128686103D02*
X168360625Y-128653027D01*
X168258565Y-128683384D01*
X168203400Y-128722011D01*
X168084802Y-128846160D01*
X168004831Y-129025473D01*
X167938679Y-129400638D01*
X167969037Y-129502698D01*
X168007663Y-129557863D01*
X168093186Y-129621297D01*
X168280768Y-129654372D01*
X168382828Y-129624015D01*
X168437993Y-129585388D01*
X168501426Y-129499866D01*
X168542771Y-129265388D01*
X168512413Y-129163328D01*
X168473787Y-129108163D01*
X168388265Y-129044730D01*
X168200682Y-129011654D01*
X168098622Y-129042011D01*
X168043457Y-129080638D01*
X167980024Y-129166160D01*
%TO.C,SW7*%
X141306666Y-49291810D02*
X141449523Y-49339429D01*
X141687619Y-49339429D01*
X141782857Y-49291810D01*
X141830476Y-49244191D01*
X141878095Y-49148953D01*
X141878095Y-49053715D01*
X141830476Y-48958477D01*
X141782857Y-48910858D01*
X141687619Y-48863239D01*
X141497142Y-48815620D01*
X141401904Y-48768001D01*
X141354285Y-48720382D01*
X141306666Y-48625144D01*
X141306666Y-48529906D01*
X141354285Y-48434668D01*
X141401904Y-48387049D01*
X141497142Y-48339429D01*
X141735238Y-48339429D01*
X141878095Y-48387049D01*
X142211428Y-48339429D02*
X142449523Y-49339429D01*
X142640000Y-48625144D01*
X142830476Y-49339429D01*
X143068571Y-48339429D01*
X143354285Y-48339429D02*
X144020952Y-48339429D01*
X143592380Y-49339429D01*
%TO.C,JP3*%
X179892380Y-82580382D02*
X180606666Y-82580382D01*
X180749523Y-82628001D01*
X180844761Y-82723239D01*
X180892380Y-82866096D01*
X180892380Y-82961334D01*
X180892380Y-82104191D02*
X179892380Y-82104191D01*
X179892380Y-81723239D01*
X179940000Y-81628001D01*
X179987619Y-81580382D01*
X180082857Y-81532763D01*
X180225714Y-81532763D01*
X180320952Y-81580382D01*
X180368571Y-81628001D01*
X180416190Y-81723239D01*
X180416190Y-82104191D01*
X179892380Y-81199429D02*
X179892380Y-80580382D01*
X180273333Y-80913715D01*
X180273333Y-80770858D01*
X180320952Y-80675620D01*
X180368571Y-80628001D01*
X180463809Y-80580382D01*
X180701904Y-80580382D01*
X180797142Y-80628001D01*
X180844761Y-80675620D01*
X180892380Y-80770858D01*
X180892380Y-81056572D01*
X180844761Y-81151810D01*
X180797142Y-81199429D01*
%TO.C,JP11*%
X196190476Y-92109429D02*
X196190476Y-92823715D01*
X196142857Y-92966572D01*
X196047619Y-93061810D01*
X195904761Y-93109429D01*
X195809523Y-93109429D01*
X196666666Y-93109429D02*
X196666666Y-92109429D01*
X197047619Y-92109429D01*
X197142857Y-92157049D01*
X197190476Y-92204668D01*
X197238095Y-92299906D01*
X197238095Y-92442763D01*
X197190476Y-92538001D01*
X197142857Y-92585620D01*
X197047619Y-92633239D01*
X196666666Y-92633239D01*
X198190476Y-93109429D02*
X197619047Y-93109429D01*
X197904761Y-93109429D02*
X197904761Y-92109429D01*
X197809523Y-92252287D01*
X197714285Y-92347525D01*
X197619047Y-92395144D01*
X199142857Y-93109429D02*
X198571428Y-93109429D01*
X198857142Y-93109429D02*
X198857142Y-92109429D01*
X198761904Y-92252287D01*
X198666666Y-92347525D01*
X198571428Y-92395144D01*
%TO.C,SW2*%
X123306666Y-64291810D02*
X123449523Y-64339429D01*
X123687619Y-64339429D01*
X123782857Y-64291810D01*
X123830476Y-64244191D01*
X123878095Y-64148953D01*
X123878095Y-64053715D01*
X123830476Y-63958477D01*
X123782857Y-63910858D01*
X123687619Y-63863239D01*
X123497142Y-63815620D01*
X123401904Y-63768001D01*
X123354285Y-63720382D01*
X123306666Y-63625144D01*
X123306666Y-63529906D01*
X123354285Y-63434668D01*
X123401904Y-63387049D01*
X123497142Y-63339429D01*
X123735238Y-63339429D01*
X123878095Y-63387049D01*
X124211428Y-63339429D02*
X124449523Y-64339429D01*
X124640000Y-63625144D01*
X124830476Y-64339429D01*
X125068571Y-63339429D01*
X125401904Y-63434668D02*
X125449523Y-63387049D01*
X125544761Y-63339429D01*
X125782857Y-63339429D01*
X125878095Y-63387049D01*
X125925714Y-63434668D01*
X125973333Y-63529906D01*
X125973333Y-63625144D01*
X125925714Y-63768001D01*
X125354285Y-64339429D01*
X125973333Y-64339429D01*
%TO.C,SW27*%
X86830476Y-57291810D02*
X86973333Y-57339429D01*
X87211428Y-57339429D01*
X87306666Y-57291810D01*
X87354285Y-57244191D01*
X87401904Y-57148953D01*
X87401904Y-57053715D01*
X87354285Y-56958477D01*
X87306666Y-56910858D01*
X87211428Y-56863239D01*
X87020952Y-56815620D01*
X86925714Y-56768001D01*
X86878095Y-56720382D01*
X86830476Y-56625144D01*
X86830476Y-56529906D01*
X86878095Y-56434668D01*
X86925714Y-56387049D01*
X87020952Y-56339429D01*
X87259047Y-56339429D01*
X87401904Y-56387049D01*
X87735238Y-56339429D02*
X87973333Y-57339429D01*
X88163809Y-56625144D01*
X88354285Y-57339429D01*
X88592380Y-56339429D01*
X88925714Y-56434668D02*
X88973333Y-56387049D01*
X89068571Y-56339429D01*
X89306666Y-56339429D01*
X89401904Y-56387049D01*
X89449523Y-56434668D01*
X89497142Y-56529906D01*
X89497142Y-56625144D01*
X89449523Y-56768001D01*
X88878095Y-57339429D01*
X89497142Y-57339429D01*
X89830476Y-56339429D02*
X90497142Y-56339429D01*
X90068571Y-57339429D01*
%TO.C,SW30*%
X86830476Y-95291810D02*
X86973333Y-95339429D01*
X87211428Y-95339429D01*
X87306666Y-95291810D01*
X87354285Y-95244191D01*
X87401904Y-95148953D01*
X87401904Y-95053715D01*
X87354285Y-94958477D01*
X87306666Y-94910858D01*
X87211428Y-94863239D01*
X87020952Y-94815620D01*
X86925714Y-94768001D01*
X86878095Y-94720382D01*
X86830476Y-94625144D01*
X86830476Y-94529906D01*
X86878095Y-94434668D01*
X86925714Y-94387049D01*
X87020952Y-94339429D01*
X87259047Y-94339429D01*
X87401904Y-94387049D01*
X87735238Y-94339429D02*
X87973333Y-95339429D01*
X88163809Y-94625144D01*
X88354285Y-95339429D01*
X88592380Y-94339429D01*
X88878095Y-94339429D02*
X89497142Y-94339429D01*
X89163809Y-94720382D01*
X89306666Y-94720382D01*
X89401904Y-94768001D01*
X89449523Y-94815620D01*
X89497142Y-94910858D01*
X89497142Y-95148953D01*
X89449523Y-95244191D01*
X89401904Y-95291810D01*
X89306666Y-95339429D01*
X89020952Y-95339429D01*
X88925714Y-95291810D01*
X88878095Y-95244191D01*
X90116190Y-94339429D02*
X90211428Y-94339429D01*
X90306666Y-94387049D01*
X90354285Y-94434668D01*
X90401904Y-94529906D01*
X90449523Y-94720382D01*
X90449523Y-94958477D01*
X90401904Y-95148953D01*
X90354285Y-95244191D01*
X90306666Y-95291810D01*
X90211428Y-95339429D01*
X90116190Y-95339429D01*
X90020952Y-95291810D01*
X89973333Y-95244191D01*
X89925714Y-95148953D01*
X89878095Y-94958477D01*
X89878095Y-94720382D01*
X89925714Y-94529906D01*
X89973333Y-94434668D01*
X90020952Y-94387049D01*
X90116190Y-94339429D01*
%TO.C,SW11*%
X140830476Y-87291810D02*
X140973333Y-87339429D01*
X141211428Y-87339429D01*
X141306666Y-87291810D01*
X141354285Y-87244191D01*
X141401904Y-87148953D01*
X141401904Y-87053715D01*
X141354285Y-86958477D01*
X141306666Y-86910858D01*
X141211428Y-86863239D01*
X141020952Y-86815620D01*
X140925714Y-86768001D01*
X140878095Y-86720382D01*
X140830476Y-86625144D01*
X140830476Y-86529906D01*
X140878095Y-86434668D01*
X140925714Y-86387049D01*
X141020952Y-86339429D01*
X141259047Y-86339429D01*
X141401904Y-86387049D01*
X141735238Y-86339429D02*
X141973333Y-87339429D01*
X142163809Y-86625144D01*
X142354285Y-87339429D01*
X142592380Y-86339429D01*
X143497142Y-87339429D02*
X142925714Y-87339429D01*
X143211428Y-87339429D02*
X143211428Y-86339429D01*
X143116190Y-86482287D01*
X143020952Y-86577525D01*
X142925714Y-86625144D01*
X144449523Y-87339429D02*
X143878095Y-87339429D01*
X144163809Y-87339429D02*
X144163809Y-86339429D01*
X144068571Y-86482287D01*
X143973333Y-86577525D01*
X143878095Y-86625144D01*
%TO.C,SW12*%
X158830476Y-51291810D02*
X158973333Y-51339429D01*
X159211428Y-51339429D01*
X159306666Y-51291810D01*
X159354285Y-51244191D01*
X159401904Y-51148953D01*
X159401904Y-51053715D01*
X159354285Y-50958477D01*
X159306666Y-50910858D01*
X159211428Y-50863239D01*
X159020952Y-50815620D01*
X158925714Y-50768001D01*
X158878095Y-50720382D01*
X158830476Y-50625144D01*
X158830476Y-50529906D01*
X158878095Y-50434668D01*
X158925714Y-50387049D01*
X159020952Y-50339429D01*
X159259047Y-50339429D01*
X159401904Y-50387049D01*
X159735238Y-50339429D02*
X159973333Y-51339429D01*
X160163809Y-50625144D01*
X160354285Y-51339429D01*
X160592380Y-50339429D01*
X161497142Y-51339429D02*
X160925714Y-51339429D01*
X161211428Y-51339429D02*
X161211428Y-50339429D01*
X161116190Y-50482287D01*
X161020952Y-50577525D01*
X160925714Y-50625144D01*
X161878095Y-50434668D02*
X161925714Y-50387049D01*
X162020952Y-50339429D01*
X162259047Y-50339429D01*
X162354285Y-50387049D01*
X162401904Y-50434668D01*
X162449523Y-50529906D01*
X162449523Y-50625144D01*
X162401904Y-50768001D01*
X161830476Y-51339429D01*
X162449523Y-51339429D01*
%TO.C,SW24*%
X68830476Y-115291810D02*
X68973333Y-115339429D01*
X69211428Y-115339429D01*
X69306666Y-115291810D01*
X69354285Y-115244191D01*
X69401904Y-115148953D01*
X69401904Y-115053715D01*
X69354285Y-114958477D01*
X69306666Y-114910858D01*
X69211428Y-114863239D01*
X69020952Y-114815620D01*
X68925714Y-114768001D01*
X68878095Y-114720382D01*
X68830476Y-114625144D01*
X68830476Y-114529906D01*
X68878095Y-114434668D01*
X68925714Y-114387049D01*
X69020952Y-114339429D01*
X69259047Y-114339429D01*
X69401904Y-114387049D01*
X69735238Y-114339429D02*
X69973333Y-115339429D01*
X70163809Y-114625144D01*
X70354285Y-115339429D01*
X70592380Y-114339429D01*
X70925714Y-114434668D02*
X70973333Y-114387049D01*
X71068571Y-114339429D01*
X71306666Y-114339429D01*
X71401904Y-114387049D01*
X71449523Y-114434668D01*
X71497142Y-114529906D01*
X71497142Y-114625144D01*
X71449523Y-114768001D01*
X70878095Y-115339429D01*
X71497142Y-115339429D01*
X72354285Y-114672763D02*
X72354285Y-115339429D01*
X72116190Y-114291810D02*
X71878095Y-115006096D01*
X72497142Y-115006096D01*
%TO.C,SW6*%
X123306666Y-83291810D02*
X123449523Y-83339429D01*
X123687619Y-83339429D01*
X123782857Y-83291810D01*
X123830476Y-83244191D01*
X123878095Y-83148953D01*
X123878095Y-83053715D01*
X123830476Y-82958477D01*
X123782857Y-82910858D01*
X123687619Y-82863239D01*
X123497142Y-82815620D01*
X123401904Y-82768001D01*
X123354285Y-82720382D01*
X123306666Y-82625144D01*
X123306666Y-82529906D01*
X123354285Y-82434668D01*
X123401904Y-82387049D01*
X123497142Y-82339429D01*
X123735238Y-82339429D01*
X123878095Y-82387049D01*
X124211428Y-82339429D02*
X124449523Y-83339429D01*
X124640000Y-82625144D01*
X124830476Y-83339429D01*
X125068571Y-82339429D01*
X125878095Y-82339429D02*
X125687619Y-82339429D01*
X125592380Y-82387049D01*
X125544761Y-82434668D01*
X125449523Y-82577525D01*
X125401904Y-82768001D01*
X125401904Y-83148953D01*
X125449523Y-83244191D01*
X125497142Y-83291810D01*
X125592380Y-83339429D01*
X125782857Y-83339429D01*
X125878095Y-83291810D01*
X125925714Y-83244191D01*
X125973333Y-83148953D01*
X125973333Y-82910858D01*
X125925714Y-82815620D01*
X125878095Y-82768001D01*
X125782857Y-82720382D01*
X125592380Y-82720382D01*
X125497142Y-82768001D01*
X125449523Y-82815620D01*
X125401904Y-82910858D01*
%TO.C,SW26*%
X68830476Y-96291810D02*
X68973333Y-96339429D01*
X69211428Y-96339429D01*
X69306666Y-96291810D01*
X69354285Y-96244191D01*
X69401904Y-96148953D01*
X69401904Y-96053715D01*
X69354285Y-95958477D01*
X69306666Y-95910858D01*
X69211428Y-95863239D01*
X69020952Y-95815620D01*
X68925714Y-95768001D01*
X68878095Y-95720382D01*
X68830476Y-95625144D01*
X68830476Y-95529906D01*
X68878095Y-95434668D01*
X68925714Y-95387049D01*
X69020952Y-95339429D01*
X69259047Y-95339429D01*
X69401904Y-95387049D01*
X69735238Y-95339429D02*
X69973333Y-96339429D01*
X70163809Y-95625144D01*
X70354285Y-96339429D01*
X70592380Y-95339429D01*
X70925714Y-95434668D02*
X70973333Y-95387049D01*
X71068571Y-95339429D01*
X71306666Y-95339429D01*
X71401904Y-95387049D01*
X71449523Y-95434668D01*
X71497142Y-95529906D01*
X71497142Y-95625144D01*
X71449523Y-95768001D01*
X70878095Y-96339429D01*
X71497142Y-96339429D01*
X72354285Y-95339429D02*
X72163809Y-95339429D01*
X72068571Y-95387049D01*
X72020952Y-95434668D01*
X71925714Y-95577525D01*
X71878095Y-95768001D01*
X71878095Y-96148953D01*
X71925714Y-96244191D01*
X71973333Y-96291810D01*
X72068571Y-96339429D01*
X72259047Y-96339429D01*
X72354285Y-96291810D01*
X72401904Y-96244191D01*
X72449523Y-96148953D01*
X72449523Y-95910858D01*
X72401904Y-95815620D01*
X72354285Y-95768001D01*
X72259047Y-95720382D01*
X72068571Y-95720382D01*
X71973333Y-95768001D01*
X71925714Y-95815620D01*
X71878095Y-95910858D01*
%TO.C,SW5*%
X123306666Y-45291810D02*
X123449523Y-45339429D01*
X123687619Y-45339429D01*
X123782857Y-45291810D01*
X123830476Y-45244191D01*
X123878095Y-45148953D01*
X123878095Y-45053715D01*
X123830476Y-44958477D01*
X123782857Y-44910858D01*
X123687619Y-44863239D01*
X123497142Y-44815620D01*
X123401904Y-44768001D01*
X123354285Y-44720382D01*
X123306666Y-44625144D01*
X123306666Y-44529906D01*
X123354285Y-44434668D01*
X123401904Y-44387049D01*
X123497142Y-44339429D01*
X123735238Y-44339429D01*
X123878095Y-44387049D01*
X124211428Y-44339429D02*
X124449523Y-45339429D01*
X124640000Y-44625144D01*
X124830476Y-45339429D01*
X125068571Y-44339429D01*
X125925714Y-44339429D02*
X125449523Y-44339429D01*
X125401904Y-44815620D01*
X125449523Y-44768001D01*
X125544761Y-44720382D01*
X125782857Y-44720382D01*
X125878095Y-44768001D01*
X125925714Y-44815620D01*
X125973333Y-44910858D01*
X125973333Y-45148953D01*
X125925714Y-45244191D01*
X125878095Y-45291810D01*
X125782857Y-45339429D01*
X125544761Y-45339429D01*
X125449523Y-45291810D01*
X125401904Y-45244191D01*
%TO.C,S2*%
X186176275Y-135332970D02*
X186285622Y-135436501D01*
X186501410Y-135537124D01*
X186607850Y-135534216D01*
X186671132Y-135511183D01*
X186754539Y-135444993D01*
X186794788Y-135358678D01*
X186791880Y-135252238D01*
X186768847Y-135188956D01*
X186702657Y-135105549D01*
X186550151Y-134981893D01*
X186483961Y-134898486D01*
X186460928Y-134835204D01*
X186458020Y-134728764D01*
X186498269Y-134642449D01*
X186581676Y-134576259D01*
X186644958Y-134553226D01*
X186751398Y-134550318D01*
X186967186Y-134650941D01*
X187076534Y-134754473D01*
X187401669Y-134958628D02*
X187464951Y-134935595D01*
X187571391Y-134932687D01*
X187787178Y-135033310D01*
X187853369Y-135116717D01*
X187876402Y-135179999D01*
X187879310Y-135286439D01*
X187839060Y-135372754D01*
X187735529Y-135482102D01*
X186976143Y-135758496D01*
X187537190Y-136020117D01*
%TO.C,SW29*%
X86830476Y-114291810D02*
X86973333Y-114339429D01*
X87211428Y-114339429D01*
X87306666Y-114291810D01*
X87354285Y-114244191D01*
X87401904Y-114148953D01*
X87401904Y-114053715D01*
X87354285Y-113958477D01*
X87306666Y-113910858D01*
X87211428Y-113863239D01*
X87020952Y-113815620D01*
X86925714Y-113768001D01*
X86878095Y-113720382D01*
X86830476Y-113625144D01*
X86830476Y-113529906D01*
X86878095Y-113434668D01*
X86925714Y-113387049D01*
X87020952Y-113339429D01*
X87259047Y-113339429D01*
X87401904Y-113387049D01*
X87735238Y-113339429D02*
X87973333Y-114339429D01*
X88163809Y-113625144D01*
X88354285Y-114339429D01*
X88592380Y-113339429D01*
X88925714Y-113434668D02*
X88973333Y-113387049D01*
X89068571Y-113339429D01*
X89306666Y-113339429D01*
X89401904Y-113387049D01*
X89449523Y-113434668D01*
X89497142Y-113529906D01*
X89497142Y-113625144D01*
X89449523Y-113768001D01*
X88878095Y-114339429D01*
X89497142Y-114339429D01*
X89973333Y-114339429D02*
X90163809Y-114339429D01*
X90259047Y-114291810D01*
X90306666Y-114244191D01*
X90401904Y-114101334D01*
X90449523Y-113910858D01*
X90449523Y-113529906D01*
X90401904Y-113434668D01*
X90354285Y-113387049D01*
X90259047Y-113339429D01*
X90068571Y-113339429D01*
X89973333Y-113387049D01*
X89925714Y-113434668D01*
X89878095Y-113529906D01*
X89878095Y-113768001D01*
X89925714Y-113863239D01*
X89973333Y-113910858D01*
X90068571Y-113958477D01*
X90259047Y-113958477D01*
X90354285Y-113910858D01*
X90401904Y-113863239D01*
X90449523Y-113768001D01*
%TO.C,SW19*%
X104830476Y-106291810D02*
X104973333Y-106339429D01*
X105211428Y-106339429D01*
X105306666Y-106291810D01*
X105354285Y-106244191D01*
X105401904Y-106148953D01*
X105401904Y-106053715D01*
X105354285Y-105958477D01*
X105306666Y-105910858D01*
X105211428Y-105863239D01*
X105020952Y-105815620D01*
X104925714Y-105768001D01*
X104878095Y-105720382D01*
X104830476Y-105625144D01*
X104830476Y-105529906D01*
X104878095Y-105434668D01*
X104925714Y-105387049D01*
X105020952Y-105339429D01*
X105259047Y-105339429D01*
X105401904Y-105387049D01*
X105735238Y-105339429D02*
X105973333Y-106339429D01*
X106163809Y-105625144D01*
X106354285Y-106339429D01*
X106592380Y-105339429D01*
X107497142Y-106339429D02*
X106925714Y-106339429D01*
X107211428Y-106339429D02*
X107211428Y-105339429D01*
X107116190Y-105482287D01*
X107020952Y-105577525D01*
X106925714Y-105625144D01*
X107973333Y-106339429D02*
X108163809Y-106339429D01*
X108259047Y-106291810D01*
X108306666Y-106244191D01*
X108401904Y-106101334D01*
X108449523Y-105910858D01*
X108449523Y-105529906D01*
X108401904Y-105434668D01*
X108354285Y-105387049D01*
X108259047Y-105339429D01*
X108068571Y-105339429D01*
X107973333Y-105387049D01*
X107925714Y-105434668D01*
X107878095Y-105529906D01*
X107878095Y-105768001D01*
X107925714Y-105863239D01*
X107973333Y-105910858D01*
X108068571Y-105958477D01*
X108259047Y-105958477D01*
X108354285Y-105910858D01*
X108401904Y-105863239D01*
X108449523Y-105768001D01*
%TO.C,SW21*%
X104830476Y-87291810D02*
X104973333Y-87339429D01*
X105211428Y-87339429D01*
X105306666Y-87291810D01*
X105354285Y-87244191D01*
X105401904Y-87148953D01*
X105401904Y-87053715D01*
X105354285Y-86958477D01*
X105306666Y-86910858D01*
X105211428Y-86863239D01*
X105020952Y-86815620D01*
X104925714Y-86768001D01*
X104878095Y-86720382D01*
X104830476Y-86625144D01*
X104830476Y-86529906D01*
X104878095Y-86434668D01*
X104925714Y-86387049D01*
X105020952Y-86339429D01*
X105259047Y-86339429D01*
X105401904Y-86387049D01*
X105735238Y-86339429D02*
X105973333Y-87339429D01*
X106163809Y-86625144D01*
X106354285Y-87339429D01*
X106592380Y-86339429D01*
X106925714Y-86434668D02*
X106973333Y-86387049D01*
X107068571Y-86339429D01*
X107306666Y-86339429D01*
X107401904Y-86387049D01*
X107449523Y-86434668D01*
X107497142Y-86529906D01*
X107497142Y-86625144D01*
X107449523Y-86768001D01*
X106878095Y-87339429D01*
X107497142Y-87339429D01*
X108449523Y-87339429D02*
X107878095Y-87339429D01*
X108163809Y-87339429D02*
X108163809Y-86339429D01*
X108068571Y-86482287D01*
X107973333Y-86577525D01*
X107878095Y-86625144D01*
%TO.C,SW28*%
X86830476Y-76291810D02*
X86973333Y-76339429D01*
X87211428Y-76339429D01*
X87306666Y-76291810D01*
X87354285Y-76244191D01*
X87401904Y-76148953D01*
X87401904Y-76053715D01*
X87354285Y-75958477D01*
X87306666Y-75910858D01*
X87211428Y-75863239D01*
X87020952Y-75815620D01*
X86925714Y-75768001D01*
X86878095Y-75720382D01*
X86830476Y-75625144D01*
X86830476Y-75529906D01*
X86878095Y-75434668D01*
X86925714Y-75387049D01*
X87020952Y-75339429D01*
X87259047Y-75339429D01*
X87401904Y-75387049D01*
X87735238Y-75339429D02*
X87973333Y-76339429D01*
X88163809Y-75625144D01*
X88354285Y-76339429D01*
X88592380Y-75339429D01*
X88925714Y-75434668D02*
X88973333Y-75387049D01*
X89068571Y-75339429D01*
X89306666Y-75339429D01*
X89401904Y-75387049D01*
X89449523Y-75434668D01*
X89497142Y-75529906D01*
X89497142Y-75625144D01*
X89449523Y-75768001D01*
X88878095Y-76339429D01*
X89497142Y-76339429D01*
X90068571Y-75768001D02*
X89973333Y-75720382D01*
X89925714Y-75672763D01*
X89878095Y-75577525D01*
X89878095Y-75529906D01*
X89925714Y-75434668D01*
X89973333Y-75387049D01*
X90068571Y-75339429D01*
X90259047Y-75339429D01*
X90354285Y-75387049D01*
X90401904Y-75434668D01*
X90449523Y-75529906D01*
X90449523Y-75577525D01*
X90401904Y-75672763D01*
X90354285Y-75720382D01*
X90259047Y-75768001D01*
X90068571Y-75768001D01*
X89973333Y-75815620D01*
X89925714Y-75863239D01*
X89878095Y-75958477D01*
X89878095Y-76148953D01*
X89925714Y-76244191D01*
X89973333Y-76291810D01*
X90068571Y-76339429D01*
X90259047Y-76339429D01*
X90354285Y-76291810D01*
X90401904Y-76244191D01*
X90449523Y-76148953D01*
X90449523Y-75958477D01*
X90401904Y-75863239D01*
X90354285Y-75815620D01*
X90259047Y-75768001D01*
%TO.C,SW25*%
X69830476Y-134291810D02*
X69973333Y-134339429D01*
X70211428Y-134339429D01*
X70306666Y-134291810D01*
X70354285Y-134244191D01*
X70401904Y-134148953D01*
X70401904Y-134053715D01*
X70354285Y-133958477D01*
X70306666Y-133910858D01*
X70211428Y-133863239D01*
X70020952Y-133815620D01*
X69925714Y-133768001D01*
X69878095Y-133720382D01*
X69830476Y-133625144D01*
X69830476Y-133529906D01*
X69878095Y-133434668D01*
X69925714Y-133387049D01*
X70020952Y-133339429D01*
X70259047Y-133339429D01*
X70401904Y-133387049D01*
X70735238Y-133339429D02*
X70973333Y-134339429D01*
X71163809Y-133625144D01*
X71354285Y-134339429D01*
X71592380Y-133339429D01*
X71925714Y-133434668D02*
X71973333Y-133387049D01*
X72068571Y-133339429D01*
X72306666Y-133339429D01*
X72401904Y-133387049D01*
X72449523Y-133434668D01*
X72497142Y-133529906D01*
X72497142Y-133625144D01*
X72449523Y-133768001D01*
X71878095Y-134339429D01*
X72497142Y-134339429D01*
X73401904Y-133339429D02*
X72925714Y-133339429D01*
X72878095Y-133815620D01*
X72925714Y-133768001D01*
X73020952Y-133720382D01*
X73259047Y-133720382D01*
X73354285Y-133768001D01*
X73401904Y-133815620D01*
X73449523Y-133910858D01*
X73449523Y-134148953D01*
X73401904Y-134244191D01*
X73354285Y-134291810D01*
X73259047Y-134339429D01*
X73020952Y-134339429D01*
X72925714Y-134291810D01*
X72878095Y-134244191D01*
%TO.C,U1*%
X173177619Y-95473715D02*
X172177619Y-95807049D01*
X173177619Y-96140382D01*
X173177619Y-96473715D02*
X172368095Y-96473715D01*
X172272857Y-96521334D01*
X172225238Y-96568953D01*
X172177619Y-96664191D01*
X172177619Y-96854668D01*
X172225238Y-96949906D01*
X172272857Y-96997525D01*
X172368095Y-97045144D01*
X173177619Y-97045144D01*
X172225238Y-97473715D02*
X172177619Y-97616572D01*
X172177619Y-97854668D01*
X172225238Y-97949906D01*
X172272857Y-97997525D01*
X172368095Y-98045144D01*
X172463333Y-98045144D01*
X172558571Y-97997525D01*
X172606190Y-97949906D01*
X172653809Y-97854668D01*
X172701428Y-97664191D01*
X172749047Y-97568953D01*
X172796666Y-97521334D01*
X172891904Y-97473715D01*
X172987142Y-97473715D01*
X173082380Y-97521334D01*
X173130000Y-97568953D01*
X173177619Y-97664191D01*
X173177619Y-97902287D01*
X173130000Y-98045144D01*
X172701428Y-98807049D02*
X172653809Y-98949906D01*
X172606190Y-98997525D01*
X172510952Y-99045144D01*
X172368095Y-99045144D01*
X172272857Y-98997525D01*
X172225238Y-98949906D01*
X172177619Y-98854668D01*
X172177619Y-98473715D01*
X173177619Y-98473715D01*
X173177619Y-98807049D01*
X173130000Y-98902287D01*
X173082380Y-98949906D01*
X172987142Y-98997525D01*
X172891904Y-98997525D01*
X172796666Y-98949906D01*
X172749047Y-98902287D01*
X172701428Y-98807049D01*
X172701428Y-98473715D01*
X178317619Y-96053239D02*
X177317619Y-96386572D01*
X178317619Y-96719906D01*
X178317619Y-96958001D02*
X178317619Y-97577049D01*
X177936666Y-97243715D01*
X177936666Y-97386572D01*
X177889047Y-97481810D01*
X177841428Y-97529429D01*
X177746190Y-97577049D01*
X177508095Y-97577049D01*
X177412857Y-97529429D01*
X177365238Y-97481810D01*
X177317619Y-97386572D01*
X177317619Y-97100858D01*
X177365238Y-97005620D01*
X177412857Y-96958001D01*
X177412857Y-98005620D02*
X177365238Y-98053239D01*
X177317619Y-98005620D01*
X177365238Y-97958001D01*
X177412857Y-98005620D01*
X177317619Y-98005620D01*
X178317619Y-98386572D02*
X178317619Y-99005620D01*
X177936666Y-98672287D01*
X177936666Y-98815144D01*
X177889047Y-98910382D01*
X177841428Y-98958001D01*
X177746190Y-99005620D01*
X177508095Y-99005620D01*
X177412857Y-98958001D01*
X177365238Y-98910382D01*
X177317619Y-98815144D01*
X177317619Y-98529429D01*
X177365238Y-98434191D01*
X177412857Y-98386572D01*
X175737619Y-95423715D02*
X174737619Y-95757049D01*
X175737619Y-96090382D01*
X174737619Y-96995144D02*
X175213809Y-96661810D01*
X174737619Y-96423715D02*
X175737619Y-96423715D01*
X175737619Y-96804668D01*
X175690000Y-96899906D01*
X175642380Y-96947525D01*
X175547142Y-96995144D01*
X175404285Y-96995144D01*
X175309047Y-96947525D01*
X175261428Y-96899906D01*
X175213809Y-96804668D01*
X175213809Y-96423715D01*
X175690000Y-97947525D02*
X175737619Y-97852287D01*
X175737619Y-97709429D01*
X175690000Y-97566572D01*
X175594761Y-97471334D01*
X175499523Y-97423715D01*
X175309047Y-97376096D01*
X175166190Y-97376096D01*
X174975714Y-97423715D01*
X174880476Y-97471334D01*
X174785238Y-97566572D01*
X174737619Y-97709429D01*
X174737619Y-97804668D01*
X174785238Y-97947525D01*
X174832857Y-97995144D01*
X175166190Y-97995144D01*
X175166190Y-97804668D01*
X175261428Y-98757049D02*
X175213809Y-98899906D01*
X175166190Y-98947525D01*
X175070952Y-98995144D01*
X174928095Y-98995144D01*
X174832857Y-98947525D01*
X174785238Y-98899906D01*
X174737619Y-98804668D01*
X174737619Y-98423715D01*
X175737619Y-98423715D01*
X175737619Y-98757049D01*
X175690000Y-98852287D01*
X175642380Y-98899906D01*
X175547142Y-98947525D01*
X175451904Y-98947525D01*
X175356666Y-98899906D01*
X175309047Y-98852287D01*
X175261428Y-98757049D01*
X175261428Y-98423715D01*
X182387619Y-95365144D02*
X183387619Y-95365144D01*
X183387619Y-95603239D01*
X183340000Y-95746096D01*
X183244761Y-95841334D01*
X183149523Y-95888953D01*
X182959047Y-95936572D01*
X182816190Y-95936572D01*
X182625714Y-95888953D01*
X182530476Y-95841334D01*
X182435238Y-95746096D01*
X182387619Y-95603239D01*
X182387619Y-95365144D01*
X182387619Y-96936572D02*
X182863809Y-96603239D01*
X182387619Y-96365144D02*
X183387619Y-96365144D01*
X183387619Y-96746096D01*
X183340000Y-96841334D01*
X183292380Y-96888953D01*
X183197142Y-96936572D01*
X183054285Y-96936572D01*
X182959047Y-96888953D01*
X182911428Y-96841334D01*
X182863809Y-96746096D01*
X182863809Y-96365144D01*
X183340000Y-97888953D02*
X183387619Y-97793715D01*
X183387619Y-97650858D01*
X183340000Y-97508001D01*
X183244761Y-97412763D01*
X183149523Y-97365144D01*
X182959047Y-97317525D01*
X182816190Y-97317525D01*
X182625714Y-97365144D01*
X182530476Y-97412763D01*
X182435238Y-97508001D01*
X182387619Y-97650858D01*
X182387619Y-97746096D01*
X182435238Y-97888953D01*
X182482857Y-97936572D01*
X182816190Y-97936572D01*
X182816190Y-97746096D01*
X182911428Y-98698477D02*
X182863809Y-98841334D01*
X182816190Y-98888953D01*
X182720952Y-98936572D01*
X182578095Y-98936572D01*
X182482857Y-98888953D01*
X182435238Y-98841334D01*
X182387619Y-98746096D01*
X182387619Y-98365144D01*
X183387619Y-98365144D01*
X183387619Y-98698477D01*
X183340000Y-98793715D01*
X183292380Y-98841334D01*
X183197142Y-98888953D01*
X183101904Y-98888953D01*
X183006666Y-98841334D01*
X182959047Y-98793715D01*
X182911428Y-98698477D01*
X182911428Y-98365144D01*
X185820000Y-96955144D02*
X185867619Y-96859906D01*
X185867619Y-96717049D01*
X185820000Y-96574191D01*
X185724761Y-96478953D01*
X185629523Y-96431334D01*
X185439047Y-96383715D01*
X185296190Y-96383715D01*
X185105714Y-96431334D01*
X185010476Y-96478953D01*
X184915238Y-96574191D01*
X184867619Y-96717049D01*
X184867619Y-96812287D01*
X184915238Y-96955144D01*
X184962857Y-97002763D01*
X185296190Y-97002763D01*
X185296190Y-96812287D01*
X184867619Y-97431334D02*
X185867619Y-97431334D01*
X184867619Y-98002763D01*
X185867619Y-98002763D01*
X184867619Y-98478953D02*
X185867619Y-98478953D01*
X185867619Y-98717049D01*
X185820000Y-98859906D01*
X185724761Y-98955144D01*
X185629523Y-99002763D01*
X185439047Y-99050382D01*
X185296190Y-99050382D01*
X185105714Y-99002763D01*
X185010476Y-98955144D01*
X184915238Y-98859906D01*
X184867619Y-98717049D01*
X184867619Y-98478953D01*
X180173333Y-95566572D02*
X180173333Y-96042763D01*
X179887619Y-95471334D02*
X180887619Y-95804668D01*
X179887619Y-96138001D01*
X179887619Y-96995144D02*
X179887619Y-96423715D01*
X179887619Y-96709429D02*
X180887619Y-96709429D01*
X180744761Y-96614191D01*
X180649523Y-96518953D01*
X180601904Y-96423715D01*
X179887619Y-97423715D02*
X180887619Y-97423715D01*
X180887619Y-97661810D01*
X180840000Y-97804668D01*
X180744761Y-97899906D01*
X180649523Y-97947525D01*
X180459047Y-97995144D01*
X180316190Y-97995144D01*
X180125714Y-97947525D01*
X180030476Y-97899906D01*
X179935238Y-97804668D01*
X179887619Y-97661810D01*
X179887619Y-97423715D01*
X180554285Y-98852287D02*
X179887619Y-98852287D01*
X180935238Y-98614191D02*
X180220952Y-98376096D01*
X180220952Y-98995144D01*
%TO.C,SW10*%
X143760186Y-128641243D02*
X143906650Y-128676230D01*
X144143839Y-128655478D01*
X144234564Y-128599740D01*
X144277852Y-128548152D01*
X144316989Y-128449126D01*
X144308689Y-128354250D01*
X144252950Y-128263525D01*
X144201362Y-128220237D01*
X144102336Y-128181100D01*
X143908434Y-128150263D01*
X143809408Y-128111126D01*
X143757820Y-128067838D01*
X143702082Y-127977113D01*
X143693781Y-127882237D01*
X143732919Y-127783211D01*
X143776206Y-127731623D01*
X143866932Y-127675885D01*
X144104121Y-127655133D01*
X144250585Y-127690120D01*
X144578499Y-127613631D02*
X144902844Y-128589074D01*
X145030342Y-127860905D01*
X145282347Y-128555872D01*
X145432381Y-127538926D01*
X146420855Y-128456265D02*
X145851601Y-128506068D01*
X146136228Y-128481167D02*
X146049072Y-127484972D01*
X145966648Y-127635586D01*
X145880072Y-127738762D01*
X145789347Y-127794501D01*
X146950391Y-127406117D02*
X147045267Y-127397816D01*
X147144293Y-127436954D01*
X147195881Y-127480241D01*
X147251620Y-127570967D01*
X147315659Y-127756568D01*
X147336410Y-127993757D01*
X147305573Y-128187659D01*
X147266436Y-128286684D01*
X147223148Y-128338273D01*
X147132423Y-128394011D01*
X147037547Y-128402312D01*
X146938521Y-128363174D01*
X146886933Y-128319887D01*
X146831195Y-128229161D01*
X146767156Y-128043560D01*
X146746404Y-127806371D01*
X146777241Y-127612469D01*
X146816378Y-127513443D01*
X146859666Y-127461855D01*
X146950391Y-127406117D01*
D11*
%TO.C,SW1*%
X195746946Y-124215349D02*
X195667293Y-124343143D01*
X195611711Y-124574660D01*
X195635781Y-124678383D01*
X195670968Y-124735803D01*
X195752458Y-124804339D01*
X195845065Y-124826572D01*
X195948788Y-124802501D01*
X196006208Y-124767314D01*
X196074744Y-124685824D01*
X196165513Y-124511727D01*
X196234049Y-124430237D01*
X196291469Y-124395050D01*
X196395192Y-124370980D01*
X196487799Y-124393213D01*
X196569289Y-124461749D01*
X196604476Y-124519169D01*
X196628546Y-124622892D01*
X196572964Y-124854408D01*
X196493312Y-124982202D01*
X196461800Y-125317442D02*
X195433848Y-125315513D01*
X196083932Y-125667473D01*
X195344916Y-125685940D01*
X196261704Y-126150902D01*
X195078121Y-126797219D02*
X195211519Y-126241580D01*
X195144820Y-126519400D02*
X196117190Y-126752845D01*
X196000513Y-126626889D01*
X195930139Y-126512049D01*
X195906069Y-126408326D01*
D10*
%TO.C,JP1*%
X183576666Y-77029429D02*
X183576666Y-77743715D01*
X183529047Y-77886572D01*
X183433809Y-77981810D01*
X183290952Y-78029429D01*
X183195714Y-78029429D01*
X184052857Y-78029429D02*
X184052857Y-77029429D01*
X184433809Y-77029429D01*
X184529047Y-77077049D01*
X184576666Y-77124668D01*
X184624285Y-77219906D01*
X184624285Y-77362763D01*
X184576666Y-77458001D01*
X184529047Y-77505620D01*
X184433809Y-77553239D01*
X184052857Y-77553239D01*
X185576666Y-78029429D02*
X185005238Y-78029429D01*
X185290952Y-78029429D02*
X185290952Y-77029429D01*
X185195714Y-77172287D01*
X185100476Y-77267525D01*
X185005238Y-77315144D01*
%TO.C,JP7*%
X179892380Y-85470382D02*
X180606666Y-85470382D01*
X180749523Y-85518001D01*
X180844761Y-85613239D01*
X180892380Y-85756096D01*
X180892380Y-85851334D01*
X180892380Y-84994191D02*
X179892380Y-84994191D01*
X179892380Y-84613239D01*
X179940000Y-84518001D01*
X179987619Y-84470382D01*
X180082857Y-84422763D01*
X180225714Y-84422763D01*
X180320952Y-84470382D01*
X180368571Y-84518001D01*
X180416190Y-84613239D01*
X180416190Y-84994191D01*
X179892380Y-84089429D02*
X179892380Y-83422763D01*
X180892380Y-83851334D01*
%TO.C,SW3*%
X123306666Y-102291810D02*
X123449523Y-102339429D01*
X123687619Y-102339429D01*
X123782857Y-102291810D01*
X123830476Y-102244191D01*
X123878095Y-102148953D01*
X123878095Y-102053715D01*
X123830476Y-101958477D01*
X123782857Y-101910858D01*
X123687619Y-101863239D01*
X123497142Y-101815620D01*
X123401904Y-101768001D01*
X123354285Y-101720382D01*
X123306666Y-101625144D01*
X123306666Y-101529906D01*
X123354285Y-101434668D01*
X123401904Y-101387049D01*
X123497142Y-101339429D01*
X123735238Y-101339429D01*
X123878095Y-101387049D01*
X124211428Y-101339429D02*
X124449523Y-102339429D01*
X124640000Y-101625144D01*
X124830476Y-102339429D01*
X125068571Y-101339429D01*
X125354285Y-101339429D02*
X125973333Y-101339429D01*
X125640000Y-101720382D01*
X125782857Y-101720382D01*
X125878095Y-101768001D01*
X125925714Y-101815620D01*
X125973333Y-101910858D01*
X125973333Y-102148953D01*
X125925714Y-102244191D01*
X125878095Y-102291810D01*
X125782857Y-102339429D01*
X125497142Y-102339429D01*
X125401904Y-102291810D01*
X125354285Y-102244191D01*
%TO.C,SW20*%
X105830476Y-132291810D02*
X105973333Y-132339429D01*
X106211428Y-132339429D01*
X106306666Y-132291810D01*
X106354285Y-132244191D01*
X106401904Y-132148953D01*
X106401904Y-132053715D01*
X106354285Y-131958477D01*
X106306666Y-131910858D01*
X106211428Y-131863239D01*
X106020952Y-131815620D01*
X105925714Y-131768001D01*
X105878095Y-131720382D01*
X105830476Y-131625144D01*
X105830476Y-131529906D01*
X105878095Y-131434668D01*
X105925714Y-131387049D01*
X106020952Y-131339429D01*
X106259047Y-131339429D01*
X106401904Y-131387049D01*
X106735238Y-131339429D02*
X106973333Y-132339429D01*
X107163809Y-131625144D01*
X107354285Y-132339429D01*
X107592380Y-131339429D01*
X107925714Y-131434668D02*
X107973333Y-131387049D01*
X108068571Y-131339429D01*
X108306666Y-131339429D01*
X108401904Y-131387049D01*
X108449523Y-131434668D01*
X108497142Y-131529906D01*
X108497142Y-131625144D01*
X108449523Y-131768001D01*
X107878095Y-132339429D01*
X108497142Y-132339429D01*
X109116190Y-131339429D02*
X109211428Y-131339429D01*
X109306666Y-131387049D01*
X109354285Y-131434668D01*
X109401904Y-131529906D01*
X109449523Y-131720382D01*
X109449523Y-131958477D01*
X109401904Y-132148953D01*
X109354285Y-132244191D01*
X109306666Y-132291810D01*
X109211428Y-132339429D01*
X109116190Y-132339429D01*
X109020952Y-132291810D01*
X108973333Y-132244191D01*
X108925714Y-132148953D01*
X108878095Y-131958477D01*
X108878095Y-131720382D01*
X108925714Y-131529906D01*
X108973333Y-131434668D01*
X109020952Y-131387049D01*
X109116190Y-131339429D01*
%TO.C,SW13*%
X158830476Y-70291810D02*
X158973333Y-70339429D01*
X159211428Y-70339429D01*
X159306666Y-70291810D01*
X159354285Y-70244191D01*
X159401904Y-70148953D01*
X159401904Y-70053715D01*
X159354285Y-69958477D01*
X159306666Y-69910858D01*
X159211428Y-69863239D01*
X159020952Y-69815620D01*
X158925714Y-69768001D01*
X158878095Y-69720382D01*
X158830476Y-69625144D01*
X158830476Y-69529906D01*
X158878095Y-69434668D01*
X158925714Y-69387049D01*
X159020952Y-69339429D01*
X159259047Y-69339429D01*
X159401904Y-69387049D01*
X159735238Y-69339429D02*
X159973333Y-70339429D01*
X160163809Y-69625144D01*
X160354285Y-70339429D01*
X160592380Y-69339429D01*
X161497142Y-70339429D02*
X160925714Y-70339429D01*
X161211428Y-70339429D02*
X161211428Y-69339429D01*
X161116190Y-69482287D01*
X161020952Y-69577525D01*
X160925714Y-69625144D01*
X161830476Y-69339429D02*
X162449523Y-69339429D01*
X162116190Y-69720382D01*
X162259047Y-69720382D01*
X162354285Y-69768001D01*
X162401904Y-69815620D01*
X162449523Y-69910858D01*
X162449523Y-70148953D01*
X162401904Y-70244191D01*
X162354285Y-70291810D01*
X162259047Y-70339429D01*
X161973333Y-70339429D01*
X161878095Y-70291810D01*
X161830476Y-70244191D01*
%TO.C,JP16*%
X115543403Y-122453031D02*
X115543403Y-123167317D01*
X115495784Y-123310174D01*
X115400546Y-123405412D01*
X115257688Y-123453031D01*
X115162450Y-123453031D01*
X116019593Y-123453031D02*
X116019593Y-122453031D01*
X116400546Y-122453031D01*
X116495784Y-122500651D01*
X116543403Y-122548270D01*
X116591022Y-122643508D01*
X116591022Y-122786365D01*
X116543403Y-122881603D01*
X116495784Y-122929222D01*
X116400546Y-122976841D01*
X116019593Y-122976841D01*
X117543403Y-123453031D02*
X116971974Y-123453031D01*
X117257688Y-123453031D02*
X117257688Y-122453031D01*
X117162450Y-122595889D01*
X117067212Y-122691127D01*
X116971974Y-122738746D01*
X118400546Y-122453031D02*
X118210069Y-122453031D01*
X118114831Y-122500651D01*
X118067212Y-122548270D01*
X117971974Y-122691127D01*
X117924355Y-122881603D01*
X117924355Y-123262555D01*
X117971974Y-123357793D01*
X118019593Y-123405412D01*
X118114831Y-123453031D01*
X118305307Y-123453031D01*
X118400546Y-123405412D01*
X118448165Y-123357793D01*
X118495784Y-123262555D01*
X118495784Y-123024460D01*
X118448165Y-122929222D01*
X118400546Y-122881603D01*
X118305307Y-122833984D01*
X118114831Y-122833984D01*
X118019593Y-122881603D01*
X117971974Y-122929222D01*
X117924355Y-123024460D01*
%TO.C,S1*%
X180823761Y-112602817D02*
X180945687Y-112691190D01*
X181172762Y-112762786D01*
X181277912Y-112746010D01*
X181337646Y-112714914D01*
X181411700Y-112638403D01*
X181440338Y-112547573D01*
X181423562Y-112442424D01*
X181392466Y-112382689D01*
X181315955Y-112308635D01*
X181148614Y-112205943D01*
X181072104Y-112131889D01*
X181041008Y-112072155D01*
X181024231Y-111967005D01*
X181052870Y-111876175D01*
X181126924Y-111799664D01*
X181186658Y-111768568D01*
X181291808Y-111751792D01*
X181518883Y-111823389D01*
X181640809Y-111911762D01*
X182262724Y-113106450D02*
X181717743Y-112934618D01*
X181990234Y-113020534D02*
X182290940Y-112066817D01*
X182157151Y-112174424D01*
X182037683Y-112236615D01*
X181932533Y-112253392D01*
%TO.C,SW4*%
X124306666Y-131291810D02*
X124449523Y-131339429D01*
X124687619Y-131339429D01*
X124782857Y-131291810D01*
X124830476Y-131244191D01*
X124878095Y-131148953D01*
X124878095Y-131053715D01*
X124830476Y-130958477D01*
X124782857Y-130910858D01*
X124687619Y-130863239D01*
X124497142Y-130815620D01*
X124401904Y-130768001D01*
X124354285Y-130720382D01*
X124306666Y-130625144D01*
X124306666Y-130529906D01*
X124354285Y-130434668D01*
X124401904Y-130387049D01*
X124497142Y-130339429D01*
X124735238Y-130339429D01*
X124878095Y-130387049D01*
X125211428Y-130339429D02*
X125449523Y-131339429D01*
X125640000Y-130625144D01*
X125830476Y-131339429D01*
X126068571Y-130339429D01*
X126878095Y-130672763D02*
X126878095Y-131339429D01*
X126640000Y-130291810D02*
X126401904Y-131006096D01*
X127020952Y-131006096D01*
%TO.C,SW14*%
X158830476Y-89291810D02*
X158973333Y-89339429D01*
X159211428Y-89339429D01*
X159306666Y-89291810D01*
X159354285Y-89244191D01*
X159401904Y-89148953D01*
X159401904Y-89053715D01*
X159354285Y-88958477D01*
X159306666Y-88910858D01*
X159211428Y-88863239D01*
X159020952Y-88815620D01*
X158925714Y-88768001D01*
X158878095Y-88720382D01*
X158830476Y-88625144D01*
X158830476Y-88529906D01*
X158878095Y-88434668D01*
X158925714Y-88387049D01*
X159020952Y-88339429D01*
X159259047Y-88339429D01*
X159401904Y-88387049D01*
X159735238Y-88339429D02*
X159973333Y-89339429D01*
X160163809Y-88625144D01*
X160354285Y-89339429D01*
X160592380Y-88339429D01*
X161497142Y-89339429D02*
X160925714Y-89339429D01*
X161211428Y-89339429D02*
X161211428Y-88339429D01*
X161116190Y-88482287D01*
X161020952Y-88577525D01*
X160925714Y-88625144D01*
X162354285Y-88672763D02*
X162354285Y-89339429D01*
X162116190Y-88291810D02*
X161878095Y-89006096D01*
X162497142Y-89006096D01*
%TO.C,SW22*%
X68830476Y-58291810D02*
X68973333Y-58339429D01*
X69211428Y-58339429D01*
X69306666Y-58291810D01*
X69354285Y-58244191D01*
X69401904Y-58148953D01*
X69401904Y-58053715D01*
X69354285Y-57958477D01*
X69306666Y-57910858D01*
X69211428Y-57863239D01*
X69020952Y-57815620D01*
X68925714Y-57768001D01*
X68878095Y-57720382D01*
X68830476Y-57625144D01*
X68830476Y-57529906D01*
X68878095Y-57434668D01*
X68925714Y-57387049D01*
X69020952Y-57339429D01*
X69259047Y-57339429D01*
X69401904Y-57387049D01*
X69735238Y-57339429D02*
X69973333Y-58339429D01*
X70163809Y-57625144D01*
X70354285Y-58339429D01*
X70592380Y-57339429D01*
X70925714Y-57434668D02*
X70973333Y-57387049D01*
X71068571Y-57339429D01*
X71306666Y-57339429D01*
X71401904Y-57387049D01*
X71449523Y-57434668D01*
X71497142Y-57529906D01*
X71497142Y-57625144D01*
X71449523Y-57768001D01*
X70878095Y-58339429D01*
X71497142Y-58339429D01*
X71878095Y-57434668D02*
X71925714Y-57387049D01*
X72020952Y-57339429D01*
X72259047Y-57339429D01*
X72354285Y-57387049D01*
X72401904Y-57434668D01*
X72449523Y-57529906D01*
X72449523Y-57625144D01*
X72401904Y-57768001D01*
X71830476Y-58339429D01*
X72449523Y-58339429D01*
D12*
%TO.C,D1*%
X184220000Y-86347049D02*
X184220000Y-87817049D01*
D13*
%TO.C,D130*%
X139870000Y-115010000D02*
X140470000Y-115010000D01*
X140470000Y-115010000D02*
X140470000Y-115610000D01*
X140470000Y-115610000D02*
X139870000Y-115010000D01*
G36*
X140470000Y-115610000D02*
G01*
X139870000Y-115010000D01*
X140470000Y-115010000D01*
X140470000Y-115610000D01*
G37*
X140470000Y-115610000D02*
X139870000Y-115010000D01*
X140470000Y-115010000D01*
X140470000Y-115610000D01*
D12*
%TO.C,IC1*%
X141740000Y-41077049D02*
X141740000Y-40147049D01*
X141720000Y-40147049D02*
X142640000Y-41067049D01*
X142610000Y-41077049D02*
X141740000Y-41077049D01*
D13*
%TO.C,D128*%
X91470000Y-63210000D02*
X90870000Y-63210000D01*
X90870000Y-63210000D02*
X90870000Y-62610000D01*
X90870000Y-62610000D02*
X91470000Y-63210000D01*
G36*
X91470000Y-63210000D02*
G01*
X90870000Y-63210000D01*
X90870000Y-62610000D01*
X91470000Y-63210000D01*
G37*
X91470000Y-63210000D02*
X90870000Y-63210000D01*
X90870000Y-62610000D01*
X91470000Y-63210000D01*
D10*
%TO.C,SW8*%
X149670000Y-76907049D02*
X149670000Y-77907049D01*
X148670000Y-63907049D02*
X149670000Y-63907049D01*
X136670000Y-77907049D02*
X135670000Y-77907049D01*
X135670000Y-77907049D02*
X135670000Y-76907049D01*
X135670000Y-63907049D02*
X136670000Y-63907049D01*
X135670000Y-64907049D02*
X135670000Y-63907049D01*
X149670000Y-63907049D02*
X149670000Y-64907049D01*
X149670000Y-77907049D02*
X148670000Y-77907049D01*
%TO.C,SW31*%
X82670000Y-128907049D02*
X83670000Y-128907049D01*
X96670000Y-142907049D02*
X95670000Y-142907049D01*
X82670000Y-129907049D02*
X82670000Y-128907049D01*
X83670000Y-142907049D02*
X82670000Y-142907049D01*
X82670000Y-142907049D02*
X82670000Y-141907049D01*
X96670000Y-141907049D02*
X96670000Y-142907049D01*
X96670000Y-128907049D02*
X96670000Y-129907049D01*
X95670000Y-128907049D02*
X96670000Y-128907049D01*
D12*
%TO.C,C6*%
X124408748Y-56642049D02*
X124931252Y-56642049D01*
X124408748Y-55172049D02*
X124931252Y-55172049D01*
D10*
%TO.C,SW17*%
X112670000Y-44907049D02*
X113670000Y-44907049D01*
X99670000Y-58907049D02*
X99670000Y-57907049D01*
X99670000Y-44907049D02*
X100670000Y-44907049D01*
X99670000Y-45907049D02*
X99670000Y-44907049D01*
X113670000Y-58907049D02*
X112670000Y-58907049D01*
X113670000Y-57907049D02*
X113670000Y-58907049D01*
X100670000Y-58907049D02*
X99670000Y-58907049D01*
X113670000Y-44907049D02*
X113670000Y-45907049D01*
D12*
%TO.C,JP9*%
X184615000Y-83527049D02*
X187415000Y-83527049D01*
X187415000Y-85527049D02*
X184615000Y-85527049D01*
X184615000Y-85527049D02*
X184615000Y-83527049D01*
X187415000Y-83527049D02*
X187415000Y-85527049D01*
%TO.C,D49*%
X97930000Y-74887049D02*
X99400000Y-74887049D01*
%TO.C,D8*%
X131560000Y-118687049D02*
X131560000Y-117217049D01*
%TO.C,D29*%
X133940000Y-66187049D02*
X135410000Y-66187049D01*
D13*
%TO.C,D105*%
X128470000Y-137210000D02*
X127870000Y-137210000D01*
X127870000Y-137210000D02*
X127870000Y-136610000D01*
X127870000Y-136610000D02*
X128470000Y-137210000D01*
G36*
X128470000Y-137210000D02*
G01*
X127870000Y-137210000D01*
X127870000Y-136610000D01*
X128470000Y-137210000D01*
G37*
X128470000Y-137210000D02*
X127870000Y-137210000D01*
X127870000Y-136610000D01*
X128470000Y-137210000D01*
D12*
%TO.C,D39*%
X151740000Y-70187049D02*
X153210000Y-70187049D01*
D13*
%TO.C,D103*%
X103870000Y-77020000D02*
X104470000Y-77020000D01*
X104470000Y-77020000D02*
X104470000Y-77620000D01*
X104470000Y-77620000D02*
X103870000Y-77020000D01*
G36*
X104470000Y-77620000D02*
G01*
X103870000Y-77020000D01*
X104470000Y-77020000D01*
X104470000Y-77620000D01*
G37*
X104470000Y-77620000D02*
X103870000Y-77020000D01*
X104470000Y-77020000D01*
X104470000Y-77620000D01*
%TO.C,D113*%
X163470000Y-57210000D02*
X162870000Y-57210000D01*
X162870000Y-57210000D02*
X162870000Y-56610000D01*
X162870000Y-56610000D02*
X163470000Y-57210000D01*
G36*
X163470000Y-57210000D02*
G01*
X162870000Y-57210000D01*
X162870000Y-56610000D01*
X163470000Y-57210000D01*
G37*
X163470000Y-57210000D02*
X162870000Y-57210000D01*
X162870000Y-56610000D01*
X163470000Y-57210000D01*
D12*
%TO.C,D63*%
X78930000Y-135227049D02*
X80400000Y-135227049D01*
%TO.C,D2*%
X184160000Y-89187049D02*
X184160000Y-90657049D01*
%TO.C,D67*%
X95930000Y-55708299D02*
X97400000Y-55708299D01*
%TO.C,C20*%
X106931252Y-116172049D02*
X106408748Y-116172049D01*
X106931252Y-117642049D02*
X106408748Y-117642049D01*
D10*
%TO.C,SW9*%
X136670000Y-115907049D02*
X135670000Y-115907049D01*
X148670000Y-101907049D02*
X149670000Y-101907049D01*
X135670000Y-115907049D02*
X135670000Y-114907049D01*
X149670000Y-115907049D02*
X148670000Y-115907049D01*
X149670000Y-101907049D02*
X149670000Y-102907049D01*
X135670000Y-101907049D02*
X136670000Y-101907049D01*
X135670000Y-102907049D02*
X135670000Y-101907049D01*
X149670000Y-114907049D02*
X149670000Y-115907049D01*
%TO.C,SW18*%
X113670000Y-63907049D02*
X113670000Y-64907049D01*
X100670000Y-77907049D02*
X99670000Y-77907049D01*
X99670000Y-77907049D02*
X99670000Y-76907049D01*
X99670000Y-63907049D02*
X100670000Y-63907049D01*
X112670000Y-63907049D02*
X113670000Y-63907049D01*
X113670000Y-76907049D02*
X113670000Y-77907049D01*
X113670000Y-77907049D02*
X112670000Y-77907049D01*
X99670000Y-64907049D02*
X99670000Y-63907049D01*
D12*
%TO.C,JP5*%
X187405000Y-82977049D02*
X184605000Y-82977049D01*
X187405000Y-80977049D02*
X187405000Y-82977049D01*
X184605000Y-82977049D02*
X184605000Y-80977049D01*
X184605000Y-80977049D02*
X187405000Y-80977049D01*
%TO.C,D31*%
X133940000Y-104187049D02*
X135410000Y-104187049D01*
%TO.C,JP14*%
X137525000Y-123617049D02*
X137525000Y-121617049D01*
X140325000Y-121617049D02*
X140325000Y-123617049D01*
X137525000Y-121617049D02*
X140325000Y-121617049D01*
X140325000Y-123617049D02*
X137525000Y-123617049D01*
%TO.C,D27*%
X133911250Y-47245799D02*
X135381250Y-47245799D01*
%TO.C,D73*%
X95930000Y-93708299D02*
X97400000Y-93708299D01*
%TO.C,D51*%
X97930000Y-112887049D02*
X99400000Y-112887049D01*
%TO.C,D21*%
X132940000Y-131427049D02*
X134410000Y-131427049D01*
%TO.C,C27*%
X70408748Y-106172049D02*
X70931252Y-106172049D01*
X70408748Y-107642049D02*
X70931252Y-107642049D01*
D13*
%TO.C,D111*%
X148897327Y-134141291D02*
X148299610Y-134193585D01*
X148299610Y-134193585D02*
X148247317Y-133595868D01*
X148247317Y-133595868D02*
X148897327Y-134141291D01*
G36*
X148897327Y-134141291D02*
G01*
X148299610Y-134193585D01*
X148247317Y-133595868D01*
X148897327Y-134141291D01*
G37*
X148897327Y-134141291D02*
X148299610Y-134193585D01*
X148247317Y-133595868D01*
X148897327Y-134141291D01*
D12*
%TO.C,C5*%
X125408748Y-142642049D02*
X125931252Y-142642049D01*
X125408748Y-141172049D02*
X125931252Y-141172049D01*
D13*
%TO.C,D121*%
X110470000Y-138210000D02*
X109870000Y-138210000D01*
X109870000Y-138210000D02*
X109870000Y-137610000D01*
X109870000Y-137610000D02*
X110470000Y-138210000D01*
G36*
X110470000Y-138210000D02*
G01*
X109870000Y-138210000D01*
X109870000Y-137610000D01*
X110470000Y-138210000D01*
G37*
X110470000Y-138210000D02*
X109870000Y-138210000D01*
X109870000Y-137610000D01*
X110470000Y-138210000D01*
D12*
%TO.C,D15*%
X100932500Y-122497049D02*
X100932500Y-121027049D01*
D10*
%TO.C,SW23*%
X76670000Y-72907049D02*
X77670000Y-72907049D01*
X63670000Y-72907049D02*
X64670000Y-72907049D01*
X77670000Y-86907049D02*
X76670000Y-86907049D01*
X77670000Y-85907049D02*
X77670000Y-86907049D01*
X63670000Y-73907049D02*
X63670000Y-72907049D01*
X64670000Y-86907049D02*
X63670000Y-86907049D01*
X77670000Y-72907049D02*
X77670000Y-73907049D01*
X63670000Y-86907049D02*
X63670000Y-85907049D01*
%TO.C,SW15*%
X166670000Y-103907049D02*
X167670000Y-103907049D01*
X153670000Y-103907049D02*
X154670000Y-103907049D01*
X167670000Y-116907049D02*
X167670000Y-117907049D01*
X154670000Y-117907049D02*
X153670000Y-117907049D01*
X153670000Y-117907049D02*
X153670000Y-116907049D01*
X153670000Y-104907049D02*
X153670000Y-103907049D01*
X167670000Y-103907049D02*
X167670000Y-104907049D01*
X167670000Y-117907049D02*
X166670000Y-117907049D01*
D12*
%TO.C,C32*%
X89408748Y-144642049D02*
X89931252Y-144642049D01*
X89408748Y-143172049D02*
X89931252Y-143172049D01*
%TO.C,D71*%
X95930000Y-112887049D02*
X97400000Y-112887049D01*
%TO.C,D33*%
X134430000Y-137837049D02*
X132960000Y-137837049D01*
D13*
%TO.C,D102*%
X180650673Y-142345500D02*
X181194457Y-142599071D01*
X181194457Y-142599071D02*
X180940886Y-143142855D01*
X180940886Y-143142855D02*
X180650673Y-142345500D01*
G36*
X181194457Y-142599071D02*
G01*
X180940886Y-143142855D01*
X180650673Y-142345500D01*
X181194457Y-142599071D01*
G37*
X181194457Y-142599071D02*
X180940886Y-143142855D01*
X180650673Y-142345500D01*
X181194457Y-142599071D01*
D10*
%TO.C,SW16*%
X173394384Y-126055284D02*
X174379192Y-126228932D01*
X174379192Y-126228932D02*
X174205543Y-127213740D01*
X172121765Y-139031433D02*
X171948117Y-140016241D01*
X160418235Y-124782665D02*
X160591883Y-123797857D01*
X160591883Y-123797857D02*
X161576691Y-123971506D01*
X158160808Y-137585166D02*
X158334457Y-136600358D01*
X171948117Y-140016241D02*
X170963309Y-139842592D01*
X159145616Y-137758814D02*
X158160808Y-137585166D01*
D12*
%TO.C,C1*%
X178306140Y-122252614D02*
X178804461Y-122409734D01*
X177864103Y-123654578D02*
X178362424Y-123811698D01*
D10*
%TO.C,SW7*%
X135670000Y-58907049D02*
X135670000Y-57907049D01*
X149670000Y-44907049D02*
X149670000Y-45907049D01*
X149670000Y-57907049D02*
X149670000Y-58907049D01*
X148670000Y-44907049D02*
X149670000Y-44907049D01*
X149670000Y-58907049D02*
X148670000Y-58907049D01*
X136670000Y-58907049D02*
X135670000Y-58907049D01*
X135670000Y-44907049D02*
X136670000Y-44907049D01*
X135670000Y-45907049D02*
X135670000Y-44907049D01*
D12*
%TO.C,R2*%
X179370000Y-87154549D02*
X177860000Y-87154549D01*
X177860000Y-87154549D02*
X177860000Y-87834549D01*
X177860000Y-87834549D02*
X179370000Y-87834549D01*
X179370000Y-87834549D02*
X179370000Y-87154549D01*
%TO.C,D19*%
X131930000Y-104227049D02*
X133400000Y-104227049D01*
D13*
%TO.C,D127*%
X73470000Y-102210000D02*
X72870000Y-102210000D01*
X72870000Y-102210000D02*
X72870000Y-101610000D01*
X72870000Y-101610000D02*
X73470000Y-102210000D01*
G36*
X73470000Y-102210000D02*
G01*
X72870000Y-102210000D01*
X72870000Y-101610000D01*
X73470000Y-102210000D01*
G37*
X73470000Y-102210000D02*
X72870000Y-102210000D01*
X72870000Y-101610000D01*
X73470000Y-102210000D01*
D12*
%TO.C,C30*%
X88931252Y-124172049D02*
X88408748Y-124172049D01*
X88931252Y-125642049D02*
X88408748Y-125642049D01*
%TO.C,JP3*%
X184060000Y-82997049D02*
X181260000Y-82997049D01*
X181260000Y-82997049D02*
X181260000Y-80997049D01*
X181260000Y-80997049D02*
X184060000Y-80997049D01*
X184060000Y-80997049D02*
X184060000Y-82997049D01*
%TO.C,D23*%
X131930000Y-47227049D02*
X133400000Y-47227049D01*
%TO.C,JP11*%
X196480000Y-95917049D02*
X196180000Y-95617049D01*
X195880000Y-95917049D02*
X196480000Y-95917049D01*
X196180000Y-95617049D02*
X195880000Y-95917049D01*
X200330000Y-93417049D02*
X200330000Y-95367049D01*
X194830000Y-95367049D02*
X194830000Y-93417049D01*
X200330000Y-95367049D02*
X194830000Y-95367049D01*
X194830000Y-93417049D02*
X200330000Y-93417049D01*
D13*
%TO.C,D116*%
X67870000Y-124000000D02*
X68470000Y-124000000D01*
X68470000Y-124000000D02*
X68470000Y-124600000D01*
X68470000Y-124600000D02*
X67870000Y-124000000D01*
G36*
X68470000Y-124600000D02*
G01*
X67870000Y-124000000D01*
X68470000Y-124000000D01*
X68470000Y-124600000D01*
G37*
X68470000Y-124600000D02*
X67870000Y-124000000D01*
X68470000Y-124000000D01*
X68470000Y-124600000D01*
D12*
%TO.C,C23*%
X70408748Y-68172049D02*
X70931252Y-68172049D01*
X70408748Y-69642049D02*
X70931252Y-69642049D01*
D13*
%TO.C,D115*%
X163470000Y-95210000D02*
X162870000Y-95210000D01*
X162870000Y-95210000D02*
X162870000Y-94610000D01*
X162870000Y-94610000D02*
X163470000Y-95210000D01*
G36*
X163470000Y-95210000D02*
G01*
X162870000Y-95210000D01*
X162870000Y-94610000D01*
X163470000Y-95210000D01*
G37*
X163470000Y-95210000D02*
X162870000Y-95210000D01*
X162870000Y-94610000D01*
X163470000Y-95210000D01*
D10*
%TO.C,SW2*%
X131670000Y-73907049D02*
X130670000Y-73907049D01*
X131670000Y-59907049D02*
X131670000Y-60907049D01*
X131670000Y-72907049D02*
X131670000Y-73907049D01*
X117670000Y-73907049D02*
X117670000Y-72907049D01*
X117670000Y-60907049D02*
X117670000Y-59907049D01*
X118670000Y-73907049D02*
X117670000Y-73907049D01*
X117670000Y-59907049D02*
X118670000Y-59907049D01*
X130670000Y-59907049D02*
X131670000Y-59907049D01*
D13*
%TO.C,D118*%
X109470000Y-55210000D02*
X108870000Y-55210000D01*
X108870000Y-55210000D02*
X108870000Y-54610000D01*
X108870000Y-54610000D02*
X109470000Y-55210000D01*
G36*
X109470000Y-55210000D02*
G01*
X108870000Y-55210000D01*
X108870000Y-54610000D01*
X109470000Y-55210000D01*
G37*
X109470000Y-55210000D02*
X108870000Y-55210000D01*
X108870000Y-54610000D01*
X109470000Y-55210000D01*
D10*
%TO.C,SW27*%
X81670000Y-53907049D02*
X81670000Y-52907049D01*
X95670000Y-52907049D02*
X95670000Y-53907049D01*
X81670000Y-52907049D02*
X82670000Y-52907049D01*
X94670000Y-52907049D02*
X95670000Y-52907049D01*
X81670000Y-66907049D02*
X81670000Y-65907049D01*
X95670000Y-66907049D02*
X94670000Y-66907049D01*
X82670000Y-66907049D02*
X81670000Y-66907049D01*
X95670000Y-65907049D02*
X95670000Y-66907049D01*
D12*
%TO.C,R1*%
X177870000Y-82777049D02*
X179380000Y-82777049D01*
X179380000Y-82777049D02*
X179380000Y-82097049D01*
X179380000Y-82097049D02*
X177870000Y-82097049D01*
X177870000Y-82097049D02*
X177870000Y-82777049D01*
D10*
%TO.C,SW30*%
X95670000Y-104907049D02*
X94670000Y-104907049D01*
X81670000Y-104907049D02*
X81670000Y-103907049D01*
X81670000Y-90907049D02*
X82670000Y-90907049D01*
X95670000Y-90907049D02*
X95670000Y-91907049D01*
X94670000Y-90907049D02*
X95670000Y-90907049D01*
X82670000Y-104907049D02*
X81670000Y-104907049D01*
X95670000Y-103907049D02*
X95670000Y-104907049D01*
X81670000Y-91907049D02*
X81670000Y-90907049D01*
D12*
%TO.C,D3*%
X123090000Y-121157049D02*
X123090000Y-119687049D01*
%TO.C,C17*%
X164495900Y-140463979D02*
X165010466Y-140554711D01*
X164751162Y-139016311D02*
X165265728Y-139107043D01*
D13*
%TO.C,D101*%
X182451396Y-119296773D02*
X181879165Y-119116349D01*
X181879165Y-119116349D02*
X182059589Y-118544119D01*
X182059589Y-118544119D02*
X182451396Y-119296773D01*
G36*
X182451396Y-119296773D02*
G01*
X181879165Y-119116349D01*
X182059589Y-118544119D01*
X182451396Y-119296773D01*
G37*
X182451396Y-119296773D02*
X181879165Y-119116349D01*
X182059589Y-118544119D01*
X182451396Y-119296773D01*
D12*
%TO.C,C26*%
X71408748Y-145642049D02*
X71931252Y-145642049D01*
X71408748Y-144172049D02*
X71931252Y-144172049D01*
%TO.C,C22*%
X106408748Y-97172049D02*
X106931252Y-97172049D01*
X106408748Y-98642049D02*
X106931252Y-98642049D01*
%TO.C,C21*%
X107408748Y-143642049D02*
X107931252Y-143642049D01*
X107408748Y-142172049D02*
X107931252Y-142172049D01*
%TO.C,C18*%
X106408748Y-60642049D02*
X106931252Y-60642049D01*
X106408748Y-59172049D02*
X106931252Y-59172049D01*
D13*
%TO.C,D129*%
X139880000Y-77005000D02*
X140480000Y-77005000D01*
X140480000Y-77005000D02*
X140480000Y-77605000D01*
X140480000Y-77605000D02*
X139880000Y-77005000D01*
G36*
X140480000Y-77605000D02*
G01*
X139880000Y-77005000D01*
X140480000Y-77005000D01*
X140480000Y-77605000D01*
G37*
X140480000Y-77605000D02*
X139880000Y-77005000D01*
X140480000Y-77005000D01*
X140480000Y-77605000D01*
D10*
%TO.C,SW11*%
X135670000Y-96907049D02*
X135670000Y-95907049D01*
X149670000Y-82907049D02*
X149670000Y-83907049D01*
X135670000Y-82907049D02*
X136670000Y-82907049D01*
X149670000Y-95907049D02*
X149670000Y-96907049D01*
X149670000Y-96907049D02*
X148670000Y-96907049D01*
X135670000Y-83907049D02*
X135670000Y-82907049D01*
X148670000Y-82907049D02*
X149670000Y-82907049D01*
X136670000Y-96907049D02*
X135670000Y-96907049D01*
D12*
%TO.C,C7*%
X124408748Y-94642049D02*
X124931252Y-94642049D01*
X124408748Y-93172049D02*
X124931252Y-93172049D01*
D10*
%TO.C,SW12*%
X166670000Y-46907049D02*
X167670000Y-46907049D01*
X153670000Y-46907049D02*
X154670000Y-46907049D01*
X167670000Y-59907049D02*
X167670000Y-60907049D01*
X167670000Y-46907049D02*
X167670000Y-47907049D01*
X167670000Y-60907049D02*
X166670000Y-60907049D01*
X153670000Y-60907049D02*
X153670000Y-59907049D01*
X153670000Y-47907049D02*
X153670000Y-46907049D01*
X154670000Y-60907049D02*
X153670000Y-60907049D01*
D13*
%TO.C,D124*%
X157870000Y-79010000D02*
X158470000Y-79010000D01*
X158470000Y-79010000D02*
X158470000Y-79610000D01*
X158470000Y-79610000D02*
X157870000Y-79010000D01*
G36*
X158470000Y-79610000D02*
G01*
X157870000Y-79010000D01*
X158470000Y-79010000D01*
X158470000Y-79610000D01*
G37*
X158470000Y-79610000D02*
X157870000Y-79010000D01*
X158470000Y-79010000D01*
X158470000Y-79610000D01*
D10*
%TO.C,SW24*%
X64670000Y-124907049D02*
X63670000Y-124907049D01*
X63670000Y-124907049D02*
X63670000Y-123907049D01*
X63670000Y-111907049D02*
X63670000Y-110907049D01*
X77670000Y-110907049D02*
X77670000Y-111907049D01*
X77670000Y-123907049D02*
X77670000Y-124907049D01*
X76670000Y-110907049D02*
X77670000Y-110907049D01*
X77670000Y-124907049D02*
X76670000Y-124907049D01*
X63670000Y-110907049D02*
X64670000Y-110907049D01*
D13*
%TO.C,D125*%
X157870000Y-117010000D02*
X158470000Y-117010000D01*
X158470000Y-117010000D02*
X158470000Y-117610000D01*
X158470000Y-117610000D02*
X157870000Y-117010000D01*
G36*
X158470000Y-117610000D02*
G01*
X157870000Y-117010000D01*
X158470000Y-117010000D01*
X158470000Y-117610000D01*
G37*
X158470000Y-117610000D02*
X157870000Y-117010000D01*
X158470000Y-117010000D01*
X158470000Y-117610000D01*
D12*
%TO.C,C3*%
X124931252Y-75642049D02*
X124408748Y-75642049D01*
X124931252Y-74172049D02*
X124408748Y-74172049D01*
%TO.C,D59*%
X77930000Y-78227049D02*
X79400000Y-78227049D01*
%TO.C,C4*%
X124931252Y-113642049D02*
X124408748Y-113642049D01*
X124931252Y-112172049D02*
X124408748Y-112172049D01*
D13*
%TO.C,D109*%
X85870000Y-85010000D02*
X86470000Y-85010000D01*
X86470000Y-85010000D02*
X86470000Y-85610000D01*
X86470000Y-85610000D02*
X85870000Y-85010000D01*
G36*
X86470000Y-85610000D02*
G01*
X85870000Y-85010000D01*
X86470000Y-85010000D01*
X86470000Y-85610000D01*
G37*
X86470000Y-85610000D02*
X85870000Y-85010000D01*
X86470000Y-85010000D01*
X86470000Y-85610000D01*
D10*
%TO.C,SW6*%
X130670000Y-78907049D02*
X131670000Y-78907049D01*
X131670000Y-78907049D02*
X131670000Y-79907049D01*
X118670000Y-92907049D02*
X117670000Y-92907049D01*
X117670000Y-92907049D02*
X117670000Y-91907049D01*
X131670000Y-91907049D02*
X131670000Y-92907049D01*
X117670000Y-79907049D02*
X117670000Y-78907049D01*
X131670000Y-92907049D02*
X130670000Y-92907049D01*
X117670000Y-78907049D02*
X118670000Y-78907049D01*
D13*
%TO.C,D114*%
X67880000Y-86005000D02*
X68480000Y-86005000D01*
X68480000Y-86005000D02*
X68480000Y-86605000D01*
X68480000Y-86605000D02*
X67880000Y-86005000D01*
G36*
X68480000Y-86605000D02*
G01*
X67880000Y-86005000D01*
X68480000Y-86005000D01*
X68480000Y-86605000D01*
G37*
X68480000Y-86605000D02*
X67880000Y-86005000D01*
X68480000Y-86005000D01*
X68480000Y-86605000D01*
D12*
%TO.C,D12*%
X109820000Y-126387049D02*
X109820000Y-124917049D01*
%TO.C,D5*%
X123100000Y-123517049D02*
X123100000Y-122047049D01*
D10*
%TO.C,SW26*%
X63670000Y-92907049D02*
X63670000Y-91907049D01*
X63670000Y-91907049D02*
X64670000Y-91907049D01*
X64670000Y-105907049D02*
X63670000Y-105907049D01*
X77670000Y-91907049D02*
X77670000Y-92907049D01*
X76670000Y-91907049D02*
X77670000Y-91907049D01*
X77670000Y-105907049D02*
X76670000Y-105907049D01*
X63670000Y-105907049D02*
X63670000Y-104907049D01*
X77670000Y-104907049D02*
X77670000Y-105907049D01*
%TO.C,SW5*%
X131670000Y-53907049D02*
X131670000Y-54907049D01*
X117670000Y-41907049D02*
X117670000Y-40907049D01*
X131670000Y-54907049D02*
X130670000Y-54907049D01*
X117670000Y-54907049D02*
X117670000Y-53907049D01*
X118670000Y-54907049D02*
X117670000Y-54907049D01*
X117670000Y-40907049D02*
X118670000Y-40907049D01*
X131670000Y-40907049D02*
X131670000Y-41907049D01*
X130670000Y-40907049D02*
X131670000Y-40907049D01*
D12*
%TO.C,D7*%
X123120000Y-118777049D02*
X123120000Y-117307049D01*
%TO.C,C12*%
X142408748Y-97172049D02*
X142931252Y-97172049D01*
X142408748Y-98642049D02*
X142931252Y-98642049D01*
D10*
%TO.C,S2*%
X194166175Y-134198604D02*
X195072482Y-134621222D01*
X195072482Y-134621222D02*
X194649864Y-135527530D01*
X177373825Y-141815494D02*
X176467518Y-141392876D01*
X189578445Y-146403224D02*
X189155827Y-147309531D01*
X181961555Y-129610874D02*
X182384173Y-128704567D01*
X176467518Y-141392876D02*
X176890136Y-140486568D01*
X189155827Y-147309531D02*
X188249519Y-146886913D01*
X182384173Y-128704567D02*
X183290481Y-129127185D01*
D12*
%TO.C,D17*%
X131930000Y-66227049D02*
X133400000Y-66227049D01*
%TO.C,D75*%
X96930000Y-131708299D02*
X98400000Y-131708299D01*
%TO.C,D47*%
X97930000Y-55708299D02*
X99400000Y-55708299D01*
D13*
%TO.C,D104*%
X103870000Y-115010000D02*
X104470000Y-115010000D01*
X104470000Y-115010000D02*
X104470000Y-115610000D01*
X104470000Y-115610000D02*
X103870000Y-115010000D01*
G36*
X104470000Y-115610000D02*
G01*
X103870000Y-115010000D01*
X104470000Y-115010000D01*
X104470000Y-115610000D01*
G37*
X104470000Y-115610000D02*
X103870000Y-115010000D01*
X104470000Y-115010000D01*
X104470000Y-115610000D01*
D12*
%TO.C,D69*%
X95930000Y-74887049D02*
X97400000Y-74887049D01*
D13*
%TO.C,D131*%
X91470000Y-101220000D02*
X90870000Y-101220000D01*
X90870000Y-101220000D02*
X90870000Y-100620000D01*
X90870000Y-100620000D02*
X91470000Y-101220000D01*
G36*
X91470000Y-101220000D02*
G01*
X90870000Y-101220000D01*
X90870000Y-100620000D01*
X91470000Y-101220000D01*
G37*
X91470000Y-101220000D02*
X90870000Y-101220000D01*
X90870000Y-100620000D01*
X91470000Y-101220000D01*
D10*
%TO.C,SW29*%
X95670000Y-109907049D02*
X95670000Y-110907049D01*
X95670000Y-122907049D02*
X95670000Y-123907049D01*
X82670000Y-123907049D02*
X81670000Y-123907049D01*
X81670000Y-123907049D02*
X81670000Y-122907049D01*
X81670000Y-109907049D02*
X82670000Y-109907049D01*
X81670000Y-110907049D02*
X81670000Y-109907049D01*
X95670000Y-123907049D02*
X94670000Y-123907049D01*
X94670000Y-109907049D02*
X95670000Y-109907049D01*
%TO.C,SW19*%
X112670000Y-101907049D02*
X113670000Y-101907049D01*
X100670000Y-115907049D02*
X99670000Y-115907049D01*
X99670000Y-115907049D02*
X99670000Y-114907049D01*
X113670000Y-114907049D02*
X113670000Y-115907049D01*
X113670000Y-115907049D02*
X112670000Y-115907049D01*
X99670000Y-101907049D02*
X100670000Y-101907049D01*
X113670000Y-101907049D02*
X113670000Y-102907049D01*
X99670000Y-102907049D02*
X99670000Y-101907049D01*
%TO.C,SW21*%
X113670000Y-95907049D02*
X113670000Y-96907049D01*
X113670000Y-96907049D02*
X112670000Y-96907049D01*
X99670000Y-82907049D02*
X100670000Y-82907049D01*
X112670000Y-82907049D02*
X113670000Y-82907049D01*
X99670000Y-96907049D02*
X99670000Y-95907049D01*
X100670000Y-96907049D02*
X99670000Y-96907049D01*
X99670000Y-83907049D02*
X99670000Y-82907049D01*
X113670000Y-82907049D02*
X113670000Y-83907049D01*
D12*
%TO.C,C19*%
X106931252Y-79642049D02*
X106408748Y-79642049D01*
X106931252Y-78172049D02*
X106408748Y-78172049D01*
D10*
%TO.C,SW28*%
X95670000Y-71907049D02*
X95670000Y-72907049D01*
X81670000Y-71907049D02*
X82670000Y-71907049D01*
X82670000Y-85907049D02*
X81670000Y-85907049D01*
X81670000Y-85907049D02*
X81670000Y-84907049D01*
X94670000Y-71907049D02*
X95670000Y-71907049D01*
X95670000Y-85907049D02*
X94670000Y-85907049D01*
X95670000Y-84907049D02*
X95670000Y-85907049D01*
X81670000Y-72907049D02*
X81670000Y-71907049D01*
D12*
%TO.C,D57*%
X77930000Y-59227049D02*
X79400000Y-59227049D01*
%TO.C,C28*%
X88408748Y-67172049D02*
X88931252Y-67172049D01*
X88408748Y-68642049D02*
X88931252Y-68642049D01*
D13*
%TO.C,D112*%
X145470000Y-93210000D02*
X144870000Y-93210000D01*
X144870000Y-93210000D02*
X144870000Y-92610000D01*
X144870000Y-92610000D02*
X145470000Y-93210000D01*
G36*
X145470000Y-93210000D02*
G01*
X144870000Y-93210000D01*
X144870000Y-92610000D01*
X145470000Y-93210000D01*
G37*
X145470000Y-93210000D02*
X144870000Y-93210000D01*
X144870000Y-92610000D01*
X145470000Y-93210000D01*
D12*
%TO.C,C25*%
X70931252Y-126642049D02*
X70408748Y-126642049D01*
X70931252Y-125172049D02*
X70408748Y-125172049D01*
D10*
%TO.C,SW25*%
X65670000Y-143907049D02*
X64670000Y-143907049D01*
X64670000Y-143907049D02*
X64670000Y-142907049D01*
X77670000Y-129907049D02*
X78670000Y-129907049D01*
X78670000Y-129907049D02*
X78670000Y-130907049D01*
X78670000Y-142907049D02*
X78670000Y-143907049D01*
X64670000Y-130907049D02*
X64670000Y-129907049D01*
X64670000Y-129907049D02*
X65670000Y-129907049D01*
X78670000Y-143907049D02*
X77670000Y-143907049D01*
D13*
%TO.C,D117*%
X168450569Y-135647484D02*
X167859685Y-135543295D01*
X167859685Y-135543295D02*
X167963873Y-134952410D01*
X167963873Y-134952410D02*
X168450569Y-135647484D01*
G36*
X168450569Y-135647484D02*
G01*
X167859685Y-135543295D01*
X167963873Y-134952410D01*
X168450569Y-135647484D01*
G37*
X168450569Y-135647484D02*
X167859685Y-135543295D01*
X167963873Y-134952410D01*
X168450569Y-135647484D01*
D12*
%TO.C,C2*%
X182894191Y-144792416D02*
X182420642Y-144571596D01*
X182272942Y-146124688D02*
X181799393Y-145903868D01*
D10*
%TO.C,SW10*%
X139457370Y-138669657D02*
X139370215Y-137673462D01*
X138237190Y-124722931D02*
X139233385Y-124635776D01*
X138324346Y-125719126D02*
X138237190Y-124722931D01*
X152183916Y-123502751D02*
X152271071Y-124498946D01*
X153316940Y-136453282D02*
X153404096Y-137449477D01*
X140453565Y-138582501D02*
X139457370Y-138669657D01*
X153404096Y-137449477D02*
X152407901Y-137536632D01*
X151187721Y-123589907D02*
X152183916Y-123502751D01*
D13*
%TO.C,D123*%
X73470000Y-64210000D02*
X72870000Y-64210000D01*
X72870000Y-64210000D02*
X72870000Y-63610000D01*
X72870000Y-63610000D02*
X73470000Y-64210000D01*
G36*
X73470000Y-64210000D02*
G01*
X72870000Y-64210000D01*
X72870000Y-63610000D01*
X73470000Y-64210000D01*
G37*
X73470000Y-64210000D02*
X72870000Y-64210000D01*
X72870000Y-63610000D01*
X73470000Y-64210000D01*
D12*
%TO.C,C16*%
X160931252Y-119642049D02*
X160408748Y-119642049D01*
X160931252Y-118172049D02*
X160408748Y-118172049D01*
%TO.C,D61*%
X77930000Y-116227049D02*
X79400000Y-116227049D01*
%TO.C,JP1*%
X183005000Y-80397049D02*
X183005000Y-78397049D01*
X185805000Y-80397049D02*
X183005000Y-80397049D01*
X183005000Y-78397049D02*
X185805000Y-78397049D01*
X185805000Y-78397049D02*
X185805000Y-80397049D01*
%TO.C,C14*%
X160931252Y-81642049D02*
X160408748Y-81642049D01*
X160931252Y-80172049D02*
X160408748Y-80172049D01*
%TO.C,C31*%
X88408748Y-105172049D02*
X88931252Y-105172049D01*
X88408748Y-106642049D02*
X88931252Y-106642049D01*
%TO.C,JP7*%
X184075000Y-85527049D02*
X181275000Y-85527049D01*
X181275000Y-85527049D02*
X181275000Y-83527049D01*
X181275000Y-83527049D02*
X184075000Y-83527049D01*
X184075000Y-83527049D02*
X184075000Y-85527049D01*
D13*
%TO.C,D110*%
X85870000Y-123010000D02*
X86470000Y-123010000D01*
X86470000Y-123010000D02*
X86470000Y-123610000D01*
X86470000Y-123610000D02*
X85870000Y-123010000D01*
G36*
X86470000Y-123610000D02*
G01*
X85870000Y-123010000D01*
X86470000Y-123010000D01*
X86470000Y-123610000D01*
G37*
X86470000Y-123610000D02*
X85870000Y-123010000D01*
X86470000Y-123010000D01*
X86470000Y-123610000D01*
D12*
%TO.C,D10*%
X109830000Y-123987049D02*
X109830000Y-122517049D01*
%TO.C,C11*%
X146193572Y-138346329D02*
X146714087Y-138300789D01*
X146321691Y-139810735D02*
X146842206Y-139765195D01*
D13*
%TO.C,D126*%
X74470000Y-140210000D02*
X73870000Y-140210000D01*
X73870000Y-140210000D02*
X73870000Y-139610000D01*
X73870000Y-139610000D02*
X74470000Y-140210000D01*
G36*
X74470000Y-140210000D02*
G01*
X73870000Y-140210000D01*
X73870000Y-139610000D01*
X74470000Y-140210000D01*
G37*
X74470000Y-140210000D02*
X73870000Y-140210000D01*
X73870000Y-139610000D01*
X74470000Y-140210000D01*
%TO.C,D120*%
X121870000Y-111010000D02*
X122470000Y-111010000D01*
X122470000Y-111010000D02*
X122470000Y-111610000D01*
X122470000Y-111610000D02*
X121870000Y-111010000D01*
G36*
X122470000Y-111610000D02*
G01*
X121870000Y-111010000D01*
X122470000Y-111010000D01*
X122470000Y-111610000D01*
G37*
X122470000Y-111610000D02*
X121870000Y-111010000D01*
X122470000Y-111010000D01*
X122470000Y-111610000D01*
D12*
%TO.C,D53*%
X98930000Y-131727049D02*
X100400000Y-131727049D01*
D13*
%TO.C,D107*%
X127470000Y-89200000D02*
X126870000Y-89200000D01*
X126870000Y-89200000D02*
X126870000Y-88600000D01*
X126870000Y-88600000D02*
X127470000Y-89200000D01*
G36*
X127470000Y-89200000D02*
G01*
X126870000Y-89200000D01*
X126870000Y-88600000D01*
X127470000Y-89200000D01*
G37*
X127470000Y-89200000D02*
X126870000Y-89200000D01*
X126870000Y-88600000D01*
X127470000Y-89200000D01*
D12*
%TO.C,D43*%
X151740000Y-108187049D02*
X153210000Y-108187049D01*
D13*
%TO.C,D122*%
X109470000Y-93210000D02*
X108870000Y-93210000D01*
X108870000Y-93210000D02*
X108870000Y-92610000D01*
X108870000Y-92610000D02*
X109470000Y-93210000D01*
G36*
X109470000Y-93210000D02*
G01*
X108870000Y-93210000D01*
X108870000Y-92610000D01*
X109470000Y-93210000D01*
G37*
X109470000Y-93210000D02*
X108870000Y-93210000D01*
X108870000Y-92610000D01*
X109470000Y-93210000D01*
D12*
%TO.C,D65*%
X77930000Y-97227049D02*
X79400000Y-97227049D01*
%TO.C,C15*%
X160408748Y-99172049D02*
X160931252Y-99172049D01*
X160408748Y-100642049D02*
X160931252Y-100642049D01*
%TO.C,D25*%
X131930000Y-85227049D02*
X133400000Y-85227049D01*
%TO.C,C8*%
X142408748Y-60642049D02*
X142931252Y-60642049D01*
X142408748Y-59172049D02*
X142931252Y-59172049D01*
%TO.C,C13*%
X160408748Y-62642049D02*
X160931252Y-62642049D01*
X160408748Y-61172049D02*
X160931252Y-61172049D01*
D13*
%TO.C,D119*%
X121890000Y-73020000D02*
X122490000Y-73020000D01*
X122490000Y-73020000D02*
X122490000Y-73620000D01*
X122490000Y-73620000D02*
X121890000Y-73020000D01*
G36*
X122490000Y-73620000D02*
G01*
X121890000Y-73020000D01*
X122490000Y-73020000D01*
X122490000Y-73620000D01*
G37*
X122490000Y-73620000D02*
X121890000Y-73020000D01*
X122490000Y-73020000D01*
X122490000Y-73620000D01*
D12*
%TO.C,C9*%
X142931252Y-78172049D02*
X142408748Y-78172049D01*
X142931252Y-79642049D02*
X142408748Y-79642049D01*
%TO.C,C29*%
X88931252Y-86172049D02*
X88408748Y-86172049D01*
X88931252Y-87642049D02*
X88408748Y-87642049D01*
D10*
%TO.C,SW3*%
X130670000Y-97907049D02*
X131670000Y-97907049D01*
X117670000Y-98907049D02*
X117670000Y-97907049D01*
X131670000Y-110907049D02*
X131670000Y-111907049D01*
X131670000Y-97907049D02*
X131670000Y-98907049D01*
X118670000Y-111907049D02*
X117670000Y-111907049D01*
X117670000Y-97907049D02*
X118670000Y-97907049D01*
X117670000Y-111907049D02*
X117670000Y-110907049D01*
X131670000Y-111907049D02*
X130670000Y-111907049D01*
D12*
%TO.C,D45*%
X157909474Y-127730559D02*
X159357141Y-127985822D01*
%TO.C,D37*%
X151711250Y-51245799D02*
X153181250Y-51245799D01*
D10*
%TO.C,SW20*%
X114670000Y-127907049D02*
X114670000Y-128907049D01*
X100670000Y-141907049D02*
X100670000Y-140907049D01*
X113670000Y-127907049D02*
X114670000Y-127907049D01*
X114670000Y-141907049D02*
X113670000Y-141907049D01*
X101670000Y-141907049D02*
X100670000Y-141907049D01*
X100670000Y-128907049D02*
X100670000Y-127907049D01*
X100670000Y-127907049D02*
X101670000Y-127907049D01*
X114670000Y-140907049D02*
X114670000Y-141907049D01*
%TO.C,U4*%
X202582500Y-104907049D02*
X202582500Y-99307049D01*
X200582500Y-99057049D02*
X188482500Y-99057049D01*
X200582500Y-105157049D02*
X188482500Y-105157049D01*
X188482500Y-105157049D02*
X188482500Y-99057049D01*
X200582500Y-104907049D02*
X202582500Y-104907049D01*
X200582500Y-105157049D02*
X200582500Y-99057049D01*
X200582500Y-99307049D02*
X202582500Y-99307049D01*
%TO.C,SW13*%
X153670000Y-66907049D02*
X153670000Y-65907049D01*
X153670000Y-79907049D02*
X153670000Y-78907049D01*
X154670000Y-79907049D02*
X153670000Y-79907049D01*
X167670000Y-78907049D02*
X167670000Y-79907049D01*
X167670000Y-79907049D02*
X166670000Y-79907049D01*
X167670000Y-65907049D02*
X167670000Y-66907049D01*
X153670000Y-65907049D02*
X154670000Y-65907049D01*
X166670000Y-65907049D02*
X167670000Y-65907049D01*
D13*
%TO.C,D106*%
X127470000Y-51210000D02*
X126870000Y-51210000D01*
X126870000Y-51210000D02*
X126870000Y-50610000D01*
X126870000Y-50610000D02*
X127470000Y-51210000D01*
G36*
X127470000Y-51210000D02*
G01*
X126870000Y-51210000D01*
X126870000Y-50610000D01*
X127470000Y-51210000D01*
G37*
X127470000Y-51210000D02*
X126870000Y-51210000D01*
X126870000Y-50610000D01*
X127470000Y-51210000D01*
%TO.C,D132*%
X92470000Y-139210000D02*
X91870000Y-139210000D01*
X91870000Y-139210000D02*
X91870000Y-138610000D01*
X91870000Y-138610000D02*
X92470000Y-139210000D01*
G36*
X92470000Y-139210000D02*
G01*
X91870000Y-139210000D01*
X91870000Y-138610000D01*
X92470000Y-139210000D01*
G37*
X92470000Y-139210000D02*
X91870000Y-139210000D01*
X91870000Y-138610000D01*
X92470000Y-139210000D01*
D12*
%TO.C,JP16*%
X115342927Y-125910651D02*
X115342927Y-123910651D01*
X118142927Y-125910651D02*
X115342927Y-125910651D01*
X118142927Y-123910651D02*
X118142927Y-125910651D01*
X115342927Y-123910651D02*
X118142927Y-123910651D01*
D10*
%TO.C,S1*%
X176198922Y-106526090D02*
X177152639Y-106826796D01*
X171989041Y-119878127D02*
X172289747Y-118924410D01*
X172942758Y-120178833D02*
X171989041Y-119878127D01*
X185641784Y-123134291D02*
X185341078Y-124088008D01*
X188597242Y-110435265D02*
X189550959Y-110735971D01*
X185341078Y-124088008D02*
X184387361Y-123787302D01*
X189550959Y-110735971D02*
X189250253Y-111689688D01*
X175898216Y-107479807D02*
X176198922Y-106526090D01*
D12*
%TO.C,D14*%
X109830000Y-121607049D02*
X109830000Y-120137049D01*
D10*
%TO.C,SW4*%
X132670000Y-139907049D02*
X132670000Y-140907049D01*
X118670000Y-140907049D02*
X118670000Y-139907049D01*
X132670000Y-140907049D02*
X131670000Y-140907049D01*
X118670000Y-127907049D02*
X118670000Y-126907049D01*
X132670000Y-126907049D02*
X132670000Y-127907049D01*
X119670000Y-140907049D02*
X118670000Y-140907049D01*
X131670000Y-126907049D02*
X132670000Y-126907049D01*
X118670000Y-126907049D02*
X119670000Y-126907049D01*
D13*
%TO.C,D108*%
X145480000Y-55210000D02*
X144880000Y-55210000D01*
X144880000Y-55210000D02*
X144880000Y-54610000D01*
X144880000Y-54610000D02*
X145480000Y-55210000D01*
G36*
X145480000Y-55210000D02*
G01*
X144880000Y-55210000D01*
X144880000Y-54610000D01*
X145480000Y-55210000D01*
G37*
X145480000Y-55210000D02*
X144880000Y-55210000D01*
X144880000Y-54610000D01*
X145480000Y-55210000D01*
D12*
%TO.C,D55*%
X97930000Y-93708299D02*
X99400000Y-93708299D01*
%TO.C,D35*%
X133911250Y-85245799D02*
X135381250Y-85245799D01*
%TO.C,D41*%
X151711250Y-89245799D02*
X153181250Y-89245799D01*
%TO.C,D11*%
X100910000Y-127057049D02*
X100910000Y-125587049D01*
D10*
%TO.C,SW14*%
X167670000Y-98907049D02*
X166670000Y-98907049D01*
X166670000Y-84907049D02*
X167670000Y-84907049D01*
X167670000Y-97907049D02*
X167670000Y-98907049D01*
X153670000Y-98907049D02*
X153670000Y-97907049D01*
X153670000Y-84907049D02*
X154670000Y-84907049D01*
X167670000Y-84907049D02*
X167670000Y-85907049D01*
X153670000Y-85907049D02*
X153670000Y-84907049D01*
X154670000Y-98907049D02*
X153670000Y-98907049D01*
%TO.C,SW22*%
X63670000Y-54907049D02*
X63670000Y-53907049D01*
X77670000Y-66907049D02*
X77670000Y-67907049D01*
X63670000Y-67907049D02*
X63670000Y-66907049D01*
X63670000Y-53907049D02*
X64670000Y-53907049D01*
X77670000Y-67907049D02*
X76670000Y-67907049D01*
X64670000Y-67907049D02*
X63670000Y-67907049D01*
X76670000Y-53907049D02*
X77670000Y-53907049D01*
X77670000Y-53907049D02*
X77670000Y-54907049D01*
D12*
%TO.C,C24*%
X70931252Y-88642049D02*
X70408748Y-88642049D01*
X70931252Y-87172049D02*
X70408748Y-87172049D01*
%TO.C,D4*%
X131550000Y-123617049D02*
X131550000Y-122147049D01*
%TO.C,C10*%
X142931252Y-116172049D02*
X142408748Y-116172049D01*
X142931252Y-117642049D02*
X142408748Y-117642049D01*
D11*
%TO.C,IC5*%
X114170000Y-105757049D02*
X117170000Y-105757049D01*
X117170000Y-108057049D02*
X114170000Y-108057049D01*
X114170000Y-108057049D02*
X114170000Y-105757049D01*
X117170000Y-105757049D02*
X117170000Y-108057049D01*
X114120000Y-109807049D02*
X114120000Y-108407049D01*
%TO.C,IC7*%
X114170000Y-51057049D02*
X114170000Y-48757049D01*
X117170000Y-48757049D02*
X117170000Y-51057049D01*
X117170000Y-51057049D02*
X114170000Y-51057049D01*
X114170000Y-48757049D02*
X117170000Y-48757049D01*
X114120000Y-52807049D02*
X114120000Y-51407049D01*
%TO.C,IC4*%
X117170000Y-86757049D02*
X117170000Y-89057049D01*
X114170000Y-89057049D02*
X114170000Y-86757049D01*
X114120000Y-90807049D02*
X114120000Y-89407049D01*
X117170000Y-89057049D02*
X114170000Y-89057049D01*
X114170000Y-86757049D02*
X117170000Y-86757049D01*
%TO.C,IC3*%
X114170000Y-70057049D02*
X114170000Y-67757049D01*
X117170000Y-67757049D02*
X117170000Y-70057049D01*
X114120000Y-71807049D02*
X114120000Y-70407049D01*
X114170000Y-67757049D02*
X117170000Y-67757049D01*
X117170000Y-70057049D02*
X114170000Y-70057049D01*
%TO.C,IC6*%
X118170000Y-131757049D02*
X118170000Y-134057049D01*
X118170000Y-134057049D02*
X115170000Y-134057049D01*
X115170000Y-131757049D02*
X118170000Y-131757049D01*
X115170000Y-134057049D02*
X115170000Y-131757049D01*
X115120000Y-135807049D02*
X115120000Y-134407049D01*
%TD*%
M02*
