%TF.GenerationSoftware,KiCad,Pcbnew,(6.0.0)*%
%TF.CreationDate,2022-05-14T17:53:23+09:00*%
%TF.ProjectId,brimstone2b,6272696d-7374-46f6-9e65-32622e6b6963,rev?*%
%TF.SameCoordinates,Original*%
%TF.FileFunction,Legend,Bot*%
%TF.FilePolarity,Positive*%
%FSLAX46Y46*%
G04 Gerber Fmt 4.6, Leading zero omitted, Abs format (unit mm)*
G04 Created by KiCad (PCBNEW (6.0.0)) date 2022-05-14 17:53:23*
%MOMM*%
%LPD*%
G01*
G04 APERTURE LIST*
%ADD10C,0.150000*%
%ADD11C,0.120000*%
%ADD12C,0.100000*%
%ADD13C,0.200000*%
G04 APERTURE END LIST*
D10*
X189050000Y-77747049D02*
X189050000Y-83147049D01*
X189060000Y-88557049D02*
X188470000Y-88557049D01*
X187590000Y-75967049D02*
X187590000Y-76827049D01*
X189060000Y-83157049D02*
X189060000Y-88557049D01*
X181200000Y-76757049D02*
X181200000Y-75957049D01*
X184390000Y-76767049D02*
X184390000Y-75967049D01*
X184400000Y-75957049D02*
X184400000Y-76817049D01*
X184390000Y-75967049D02*
X187570000Y-75967049D01*
X188400000Y-83157049D02*
X189060000Y-83157049D01*
X181200000Y-75957049D02*
X184380000Y-75957049D01*
X189050000Y-83147049D02*
X188460000Y-83147049D01*
X188390000Y-77747049D02*
X189050000Y-77747049D01*
X183165714Y-74659429D02*
X183165714Y-75468953D01*
X183118095Y-75564191D01*
X183070476Y-75611810D01*
X182975238Y-75659429D01*
X182784761Y-75659429D01*
X182689523Y-75611810D01*
X182641904Y-75564191D01*
X182594285Y-75468953D01*
X182594285Y-74659429D01*
X182118095Y-75659429D02*
X182118095Y-74659429D01*
X181737142Y-74659429D01*
X181641904Y-74707049D01*
X181594285Y-74754668D01*
X181546666Y-74849906D01*
X181546666Y-74992763D01*
X181594285Y-75088001D01*
X181641904Y-75135620D01*
X181737142Y-75183239D01*
X182118095Y-75183239D01*
X189728571Y-84523715D02*
X189776190Y-84666572D01*
X189823809Y-84714191D01*
X189919047Y-84761810D01*
X190061904Y-84761810D01*
X190157142Y-84714191D01*
X190204761Y-84666572D01*
X190252380Y-84571334D01*
X190252380Y-84190382D01*
X189252380Y-84190382D01*
X189252380Y-84523715D01*
X189300000Y-84618953D01*
X189347619Y-84666572D01*
X189442857Y-84714191D01*
X189538095Y-84714191D01*
X189633333Y-84666572D01*
X189680952Y-84618953D01*
X189728571Y-84523715D01*
X189728571Y-84190382D01*
X189252380Y-85047525D02*
X189252380Y-85618953D01*
X190252380Y-85333239D02*
X189252380Y-85333239D01*
X190252380Y-85952287D02*
X189252380Y-85952287D01*
X190252380Y-86523715D01*
X189252380Y-86523715D01*
X189728571Y-79768953D02*
X189728571Y-80102287D01*
X190252380Y-80245144D02*
X190252380Y-79768953D01*
X189252380Y-79768953D01*
X189252380Y-80245144D01*
X190252380Y-80673715D02*
X189252380Y-80673715D01*
X190252380Y-81245144D01*
X189252380Y-81245144D01*
X187770952Y-75679429D02*
X187770952Y-74679429D01*
X187532857Y-74679429D01*
X187390000Y-74727049D01*
X187294761Y-74822287D01*
X187247142Y-74917525D01*
X187199523Y-75108001D01*
X187199523Y-75250858D01*
X187247142Y-75441334D01*
X187294761Y-75536572D01*
X187390000Y-75631810D01*
X187532857Y-75679429D01*
X187770952Y-75679429D01*
X186580476Y-74679429D02*
X186390000Y-74679429D01*
X186294761Y-74727049D01*
X186199523Y-74822287D01*
X186151904Y-75012763D01*
X186151904Y-75346096D01*
X186199523Y-75536572D01*
X186294761Y-75631810D01*
X186390000Y-75679429D01*
X186580476Y-75679429D01*
X186675714Y-75631810D01*
X186770952Y-75536572D01*
X186818571Y-75346096D01*
X186818571Y-75012763D01*
X186770952Y-74822287D01*
X186675714Y-74727049D01*
X186580476Y-74679429D01*
X185818571Y-74679429D02*
X185580476Y-75679429D01*
X185390000Y-74965144D01*
X185199523Y-75679429D01*
X184961428Y-74679429D01*
X184580476Y-75679429D02*
X184580476Y-74679429D01*
X184009047Y-75679429D01*
X184009047Y-74679429D01*
X107063694Y-42071130D02*
X107177288Y-42143497D01*
X107476843Y-42174638D01*
X107662804Y-42133412D01*
X107921133Y-41978591D01*
X108065867Y-41751403D01*
X108117621Y-41544829D01*
X108128149Y-41152293D01*
X108066309Y-40873352D01*
X107890875Y-40522043D01*
X107756668Y-40356695D01*
X107529480Y-40211960D01*
X107229925Y-40180820D01*
X107043964Y-40222046D01*
X106785635Y-40376867D01*
X106713268Y-40490460D01*
X106268096Y-42442611D02*
X105835216Y-40490019D01*
X105431271Y-42628131D02*
X105204524Y-41605344D01*
X105256278Y-41398770D01*
X105421626Y-41264563D01*
X105700568Y-41202723D01*
X105907142Y-41254477D01*
X106020736Y-41326844D01*
X104222523Y-42896104D02*
X104387871Y-42761896D01*
X104460238Y-42648302D01*
X104511992Y-42441728D01*
X104388312Y-41883845D01*
X104254105Y-41718497D01*
X104140511Y-41646129D01*
X103933937Y-41594376D01*
X103654995Y-41656215D01*
X103489647Y-41790423D01*
X103417280Y-41904016D01*
X103365526Y-42110591D01*
X103489206Y-42668474D01*
X103623413Y-42833822D01*
X103737007Y-42906189D01*
X103943581Y-42957943D01*
X104222523Y-42896104D01*
X102446248Y-41924188D02*
X102879127Y-43876780D01*
X102466861Y-42017169D02*
X102260287Y-41965415D01*
X101888364Y-42047868D01*
X101723016Y-42182075D01*
X101650649Y-42295669D01*
X101598895Y-42502244D01*
X101722575Y-43060127D01*
X101856782Y-43225475D01*
X101970376Y-43297842D01*
X102176950Y-43349596D01*
X102548873Y-43267143D01*
X102714221Y-43132936D01*
X99811210Y-43678967D02*
X99924803Y-43751335D01*
X100224358Y-43782475D01*
X100410320Y-43741249D01*
X100668648Y-43586428D01*
X100813383Y-43359240D01*
X100865137Y-43152666D01*
X100875664Y-42760130D01*
X100813824Y-42481189D01*
X100638390Y-42129880D01*
X100504183Y-41964532D01*
X100276995Y-41819797D01*
X99977440Y-41788657D01*
X99791479Y-41829883D01*
X99533151Y-41984704D01*
X99460784Y-42098298D01*
X99015611Y-44050448D02*
X98582732Y-42097856D01*
X98178786Y-44235968D02*
X97952040Y-43213182D01*
X98003794Y-43006607D01*
X98169141Y-42872400D01*
X98448083Y-42810560D01*
X98654658Y-42862314D01*
X98768251Y-42934681D01*
X96970038Y-44503941D02*
X97135386Y-44369733D01*
X97207754Y-44256140D01*
X97259508Y-44049565D01*
X97135828Y-43491682D01*
X97001621Y-43326334D01*
X96888027Y-43253967D01*
X96681452Y-43202213D01*
X96402511Y-43264053D01*
X96237163Y-43398260D01*
X96164795Y-43511854D01*
X96113041Y-43718428D01*
X96236721Y-44276311D01*
X96370928Y-44441659D01*
X96484522Y-44514027D01*
X96691097Y-44565781D01*
X96970038Y-44503941D01*
X95193763Y-43532025D02*
X95626642Y-45484617D01*
X95214376Y-43625006D02*
X95007802Y-43573252D01*
X94635880Y-43655705D01*
X94470532Y-43789912D01*
X94398165Y-43903506D01*
X94346411Y-44110081D01*
X94470090Y-44667964D01*
X94604298Y-44833312D01*
X94717891Y-44905679D01*
X94924466Y-44957433D01*
X95296388Y-44874980D01*
X95461736Y-44740773D01*
X92125404Y-44212264D02*
X91949088Y-45617059D01*
X91195599Y-44418397D01*
X89717554Y-46111778D02*
X90833321Y-45864418D01*
X90275437Y-45988098D02*
X89842558Y-44035506D01*
X90090359Y-44273221D01*
X90317547Y-44417956D01*
X90524121Y-44469710D01*
X87465407Y-46513516D02*
X87207078Y-46668337D01*
X86742176Y-46771403D01*
X86535601Y-46719649D01*
X86422007Y-46647282D01*
X86287800Y-46481934D01*
X86246573Y-46295973D01*
X86298327Y-46089399D01*
X86370695Y-45975805D01*
X86536043Y-45841598D01*
X86887352Y-45666164D01*
X87052699Y-45531957D01*
X87125067Y-45418363D01*
X87176821Y-45211788D01*
X87135594Y-45025827D01*
X87001387Y-44860479D01*
X86887793Y-44788112D01*
X86681219Y-44736358D01*
X86216316Y-44839425D01*
X85957987Y-44994245D01*
X85523784Y-45675808D02*
X84779939Y-45840715D01*
X85100549Y-45086784D02*
X85471588Y-46760434D01*
X85419834Y-46967009D01*
X85254486Y-47101216D01*
X85068525Y-47142443D01*
X83653203Y-47358661D02*
X83859778Y-47410415D01*
X84231700Y-47327962D01*
X84397048Y-47193755D01*
X84448802Y-46987181D01*
X84283896Y-46243336D01*
X84149688Y-46077988D01*
X83943114Y-46026234D01*
X83571192Y-46108687D01*
X83405844Y-46242895D01*
X83354090Y-46449469D01*
X83395316Y-46635430D01*
X84366349Y-46615258D01*
X82734366Y-46294207D02*
X81990522Y-46459113D01*
X82744011Y-47657775D02*
X82372972Y-45984125D01*
X82238764Y-45818777D01*
X82032190Y-45767023D01*
X81846229Y-45808249D01*
X80791419Y-48090654D02*
X80564673Y-47067868D01*
X80616427Y-46861294D01*
X80781774Y-46727086D01*
X81153697Y-46644633D01*
X81360271Y-46696387D01*
X80770806Y-47997674D02*
X80977380Y-48049428D01*
X81442283Y-47946361D01*
X81607631Y-47812154D01*
X81659385Y-47605580D01*
X81618158Y-47419618D01*
X81483951Y-47254271D01*
X81277377Y-47202517D01*
X80812474Y-47305583D01*
X80605899Y-47253829D01*
X79573027Y-46995059D02*
X79861613Y-48296787D01*
X79614254Y-47181020D02*
X79500660Y-47108653D01*
X79294085Y-47056899D01*
X79015144Y-47118739D01*
X78849796Y-47252946D01*
X78798042Y-47459521D01*
X79024788Y-48482307D01*
X75729683Y-48139759D02*
X75471354Y-48294580D01*
X75398987Y-48408174D01*
X75347233Y-48614748D01*
X75409073Y-48893690D01*
X75543280Y-49059038D01*
X75656874Y-49131405D01*
X75863449Y-49183159D01*
X76607293Y-49018253D01*
X76174414Y-47065661D01*
X75523550Y-47209954D01*
X75358202Y-47344161D01*
X75285835Y-47457755D01*
X75234081Y-47664329D01*
X75275307Y-47850290D01*
X75409515Y-48015638D01*
X75523108Y-48088005D01*
X75729683Y-48139759D01*
X76380547Y-47995466D01*
X74375759Y-49512972D02*
X74541107Y-49378765D01*
X74613475Y-49265171D01*
X74665229Y-49058596D01*
X74541549Y-48500713D01*
X74407342Y-48335365D01*
X74293748Y-48262998D01*
X74087173Y-48211244D01*
X73808232Y-48273084D01*
X73642884Y-48407291D01*
X73570516Y-48520885D01*
X73518762Y-48727459D01*
X73642442Y-49285343D01*
X73776649Y-49450690D01*
X73890243Y-49523058D01*
X74096818Y-49574812D01*
X74375759Y-49512972D01*
X72888070Y-49842784D02*
X72455191Y-47890192D01*
X72051245Y-50028304D02*
X71824499Y-49005518D01*
X71876253Y-48798943D01*
X72041601Y-48664736D01*
X72320542Y-48602896D01*
X72527117Y-48654650D01*
X72640711Y-48727018D01*
X70832853Y-48932709D02*
X71121439Y-50234437D01*
X70874080Y-49118670D02*
X70760486Y-49046303D01*
X70553912Y-48994549D01*
X70274970Y-49056389D01*
X70109622Y-49190596D01*
X70057868Y-49397170D01*
X70284614Y-50419957D01*
X68590351Y-50698016D02*
X68796925Y-50749770D01*
X69168847Y-50667316D01*
X69334195Y-50533109D01*
X69385949Y-50326535D01*
X69221043Y-49582690D01*
X69086836Y-49417342D01*
X68880261Y-49365588D01*
X68508339Y-49448042D01*
X68342991Y-49582249D01*
X68291237Y-49788823D01*
X68332464Y-49974784D01*
X69303496Y-49954612D01*
X184037142Y-48549429D02*
X184037142Y-47549429D01*
X183703809Y-48263715D01*
X183370476Y-47549429D01*
X183370476Y-48549429D01*
X182322857Y-48454191D02*
X182370476Y-48501810D01*
X182513333Y-48549429D01*
X182608571Y-48549429D01*
X182751428Y-48501810D01*
X182846666Y-48406572D01*
X182894285Y-48311334D01*
X182941904Y-48120858D01*
X182941904Y-47978001D01*
X182894285Y-47787525D01*
X182846666Y-47692287D01*
X182751428Y-47597049D01*
X182608571Y-47549429D01*
X182513333Y-47549429D01*
X182370476Y-47597049D01*
X182322857Y-47644668D01*
X181894285Y-47549429D02*
X181894285Y-48358953D01*
X181846666Y-48454191D01*
X181799047Y-48501810D01*
X181703809Y-48549429D01*
X181513333Y-48549429D01*
X181418095Y-48501810D01*
X181370476Y-48454191D01*
X181322857Y-48358953D01*
X181322857Y-47549429D01*
X183918095Y-49635620D02*
X184251428Y-49635620D01*
X184251428Y-50159429D02*
X184251428Y-49159429D01*
X183775238Y-49159429D01*
X183441904Y-49873715D02*
X182965714Y-49873715D01*
X183537142Y-50159429D02*
X183203809Y-49159429D01*
X182870476Y-50159429D01*
X181965714Y-50064191D02*
X182013333Y-50111810D01*
X182156190Y-50159429D01*
X182251428Y-50159429D01*
X182394285Y-50111810D01*
X182489523Y-50016572D01*
X182537142Y-49921334D01*
X182584761Y-49730858D01*
X182584761Y-49588001D01*
X182537142Y-49397525D01*
X182489523Y-49302287D01*
X182394285Y-49207049D01*
X182251428Y-49159429D01*
X182156190Y-49159429D01*
X182013333Y-49207049D01*
X181965714Y-49254668D01*
X181537142Y-49635620D02*
X181203809Y-49635620D01*
X181060952Y-50159429D02*
X181537142Y-50159429D01*
X181537142Y-49159429D01*
X181060952Y-49159429D01*
X184560952Y-51769429D02*
X184560952Y-50769429D01*
X184322857Y-50769429D01*
X184180000Y-50817049D01*
X184084761Y-50912287D01*
X184037142Y-51007525D01*
X183989523Y-51198001D01*
X183989523Y-51340858D01*
X184037142Y-51531334D01*
X184084761Y-51626572D01*
X184180000Y-51721810D01*
X184322857Y-51769429D01*
X184560952Y-51769429D01*
X183370476Y-50769429D02*
X183180000Y-50769429D01*
X183084761Y-50817049D01*
X182989523Y-50912287D01*
X182941904Y-51102763D01*
X182941904Y-51436096D01*
X182989523Y-51626572D01*
X183084761Y-51721810D01*
X183180000Y-51769429D01*
X183370476Y-51769429D01*
X183465714Y-51721810D01*
X183560952Y-51626572D01*
X183608571Y-51436096D01*
X183608571Y-51102763D01*
X183560952Y-50912287D01*
X183465714Y-50817049D01*
X183370476Y-50769429D01*
X182608571Y-50769429D02*
X182370476Y-51769429D01*
X182180000Y-51055144D01*
X181989523Y-51769429D01*
X181751428Y-50769429D01*
X181370476Y-51769429D02*
X181370476Y-50769429D01*
X180799047Y-51769429D01*
X180799047Y-50769429D01*
%TO.C,SW8*%
X143973333Y-68291810D02*
X143830476Y-68339429D01*
X143592380Y-68339429D01*
X143497142Y-68291810D01*
X143449523Y-68244191D01*
X143401904Y-68148953D01*
X143401904Y-68053715D01*
X143449523Y-67958477D01*
X143497142Y-67910858D01*
X143592380Y-67863239D01*
X143782857Y-67815620D01*
X143878095Y-67768001D01*
X143925714Y-67720382D01*
X143973333Y-67625144D01*
X143973333Y-67529906D01*
X143925714Y-67434668D01*
X143878095Y-67387049D01*
X143782857Y-67339429D01*
X143544761Y-67339429D01*
X143401904Y-67387049D01*
X143068571Y-67339429D02*
X142830476Y-68339429D01*
X142640000Y-67625144D01*
X142449523Y-68339429D01*
X142211428Y-67339429D01*
X141687619Y-67768001D02*
X141782857Y-67720382D01*
X141830476Y-67672763D01*
X141878095Y-67577525D01*
X141878095Y-67529906D01*
X141830476Y-67434668D01*
X141782857Y-67387049D01*
X141687619Y-67339429D01*
X141497142Y-67339429D01*
X141401904Y-67387049D01*
X141354285Y-67434668D01*
X141306666Y-67529906D01*
X141306666Y-67577525D01*
X141354285Y-67672763D01*
X141401904Y-67720382D01*
X141497142Y-67768001D01*
X141687619Y-67768001D01*
X141782857Y-67815620D01*
X141830476Y-67863239D01*
X141878095Y-67958477D01*
X141878095Y-68148953D01*
X141830476Y-68244191D01*
X141782857Y-68291810D01*
X141687619Y-68339429D01*
X141497142Y-68339429D01*
X141401904Y-68291810D01*
X141354285Y-68244191D01*
X141306666Y-68148953D01*
X141306666Y-67958477D01*
X141354285Y-67863239D01*
X141401904Y-67815620D01*
X141497142Y-67768001D01*
%TO.C,SW31*%
X91449523Y-133291810D02*
X91306666Y-133339429D01*
X91068571Y-133339429D01*
X90973333Y-133291810D01*
X90925714Y-133244191D01*
X90878095Y-133148953D01*
X90878095Y-133053715D01*
X90925714Y-132958477D01*
X90973333Y-132910858D01*
X91068571Y-132863239D01*
X91259047Y-132815620D01*
X91354285Y-132768001D01*
X91401904Y-132720382D01*
X91449523Y-132625144D01*
X91449523Y-132529906D01*
X91401904Y-132434668D01*
X91354285Y-132387049D01*
X91259047Y-132339429D01*
X91020952Y-132339429D01*
X90878095Y-132387049D01*
X90544761Y-132339429D02*
X90306666Y-133339429D01*
X90116190Y-132625144D01*
X89925714Y-133339429D01*
X89687619Y-132339429D01*
X89401904Y-132339429D02*
X88782857Y-132339429D01*
X89116190Y-132720382D01*
X88973333Y-132720382D01*
X88878095Y-132768001D01*
X88830476Y-132815620D01*
X88782857Y-132910858D01*
X88782857Y-133148953D01*
X88830476Y-133244191D01*
X88878095Y-133291810D01*
X88973333Y-133339429D01*
X89259047Y-133339429D01*
X89354285Y-133291810D01*
X89401904Y-133244191D01*
X87830476Y-133339429D02*
X88401904Y-133339429D01*
X88116190Y-133339429D02*
X88116190Y-132339429D01*
X88211428Y-132482287D01*
X88306666Y-132577525D01*
X88401904Y-132625144D01*
%TO.C,SW17*%
X108449523Y-49291810D02*
X108306666Y-49339429D01*
X108068571Y-49339429D01*
X107973333Y-49291810D01*
X107925714Y-49244191D01*
X107878095Y-49148953D01*
X107878095Y-49053715D01*
X107925714Y-48958477D01*
X107973333Y-48910858D01*
X108068571Y-48863239D01*
X108259047Y-48815620D01*
X108354285Y-48768001D01*
X108401904Y-48720382D01*
X108449523Y-48625144D01*
X108449523Y-48529906D01*
X108401904Y-48434668D01*
X108354285Y-48387049D01*
X108259047Y-48339429D01*
X108020952Y-48339429D01*
X107878095Y-48387049D01*
X107544761Y-48339429D02*
X107306666Y-49339429D01*
X107116190Y-48625144D01*
X106925714Y-49339429D01*
X106687619Y-48339429D01*
X105782857Y-49339429D02*
X106354285Y-49339429D01*
X106068571Y-49339429D02*
X106068571Y-48339429D01*
X106163809Y-48482287D01*
X106259047Y-48577525D01*
X106354285Y-48625144D01*
X105449523Y-48339429D02*
X104782857Y-48339429D01*
X105211428Y-49339429D01*
%TO.C,SW9*%
X143973333Y-106291810D02*
X143830476Y-106339429D01*
X143592380Y-106339429D01*
X143497142Y-106291810D01*
X143449523Y-106244191D01*
X143401904Y-106148953D01*
X143401904Y-106053715D01*
X143449523Y-105958477D01*
X143497142Y-105910858D01*
X143592380Y-105863239D01*
X143782857Y-105815620D01*
X143878095Y-105768001D01*
X143925714Y-105720382D01*
X143973333Y-105625144D01*
X143973333Y-105529906D01*
X143925714Y-105434668D01*
X143878095Y-105387049D01*
X143782857Y-105339429D01*
X143544761Y-105339429D01*
X143401904Y-105387049D01*
X143068571Y-105339429D02*
X142830476Y-106339429D01*
X142640000Y-105625144D01*
X142449523Y-106339429D01*
X142211428Y-105339429D01*
X141782857Y-106339429D02*
X141592380Y-106339429D01*
X141497142Y-106291810D01*
X141449523Y-106244191D01*
X141354285Y-106101334D01*
X141306666Y-105910858D01*
X141306666Y-105529906D01*
X141354285Y-105434668D01*
X141401904Y-105387049D01*
X141497142Y-105339429D01*
X141687619Y-105339429D01*
X141782857Y-105387049D01*
X141830476Y-105434668D01*
X141878095Y-105529906D01*
X141878095Y-105768001D01*
X141830476Y-105863239D01*
X141782857Y-105910858D01*
X141687619Y-105958477D01*
X141497142Y-105958477D01*
X141401904Y-105910858D01*
X141354285Y-105863239D01*
X141306666Y-105768001D01*
%TO.C,SW18*%
X108449523Y-68291810D02*
X108306666Y-68339429D01*
X108068571Y-68339429D01*
X107973333Y-68291810D01*
X107925714Y-68244191D01*
X107878095Y-68148953D01*
X107878095Y-68053715D01*
X107925714Y-67958477D01*
X107973333Y-67910858D01*
X108068571Y-67863239D01*
X108259047Y-67815620D01*
X108354285Y-67768001D01*
X108401904Y-67720382D01*
X108449523Y-67625144D01*
X108449523Y-67529906D01*
X108401904Y-67434668D01*
X108354285Y-67387049D01*
X108259047Y-67339429D01*
X108020952Y-67339429D01*
X107878095Y-67387049D01*
X107544761Y-67339429D02*
X107306666Y-68339429D01*
X107116190Y-67625144D01*
X106925714Y-68339429D01*
X106687619Y-67339429D01*
X105782857Y-68339429D02*
X106354285Y-68339429D01*
X106068571Y-68339429D02*
X106068571Y-67339429D01*
X106163809Y-67482287D01*
X106259047Y-67577525D01*
X106354285Y-67625144D01*
X105211428Y-67768001D02*
X105306666Y-67720382D01*
X105354285Y-67672763D01*
X105401904Y-67577525D01*
X105401904Y-67529906D01*
X105354285Y-67434668D01*
X105306666Y-67387049D01*
X105211428Y-67339429D01*
X105020952Y-67339429D01*
X104925714Y-67387049D01*
X104878095Y-67434668D01*
X104830476Y-67529906D01*
X104830476Y-67577525D01*
X104878095Y-67672763D01*
X104925714Y-67720382D01*
X105020952Y-67768001D01*
X105211428Y-67768001D01*
X105306666Y-67815620D01*
X105354285Y-67863239D01*
X105401904Y-67958477D01*
X105401904Y-68148953D01*
X105354285Y-68244191D01*
X105306666Y-68291810D01*
X105211428Y-68339429D01*
X105020952Y-68339429D01*
X104925714Y-68291810D01*
X104878095Y-68244191D01*
X104830476Y-68148953D01*
X104830476Y-67958477D01*
X104878095Y-67863239D01*
X104925714Y-67815620D01*
X105020952Y-67768001D01*
%TO.C,SW23*%
X72449523Y-77291810D02*
X72306666Y-77339429D01*
X72068571Y-77339429D01*
X71973333Y-77291810D01*
X71925714Y-77244191D01*
X71878095Y-77148953D01*
X71878095Y-77053715D01*
X71925714Y-76958477D01*
X71973333Y-76910858D01*
X72068571Y-76863239D01*
X72259047Y-76815620D01*
X72354285Y-76768001D01*
X72401904Y-76720382D01*
X72449523Y-76625144D01*
X72449523Y-76529906D01*
X72401904Y-76434668D01*
X72354285Y-76387049D01*
X72259047Y-76339429D01*
X72020952Y-76339429D01*
X71878095Y-76387049D01*
X71544761Y-76339429D02*
X71306666Y-77339429D01*
X71116190Y-76625144D01*
X70925714Y-77339429D01*
X70687619Y-76339429D01*
X70354285Y-76434668D02*
X70306666Y-76387049D01*
X70211428Y-76339429D01*
X69973333Y-76339429D01*
X69878095Y-76387049D01*
X69830476Y-76434668D01*
X69782857Y-76529906D01*
X69782857Y-76625144D01*
X69830476Y-76768001D01*
X70401904Y-77339429D01*
X69782857Y-77339429D01*
X69449523Y-76339429D02*
X68830476Y-76339429D01*
X69163809Y-76720382D01*
X69020952Y-76720382D01*
X68925714Y-76768001D01*
X68878095Y-76815620D01*
X68830476Y-76910858D01*
X68830476Y-77148953D01*
X68878095Y-77244191D01*
X68925714Y-77291810D01*
X69020952Y-77339429D01*
X69306666Y-77339429D01*
X69401904Y-77291810D01*
X69449523Y-77244191D01*
%TO.C,SW15*%
X162449523Y-108291810D02*
X162306666Y-108339429D01*
X162068571Y-108339429D01*
X161973333Y-108291810D01*
X161925714Y-108244191D01*
X161878095Y-108148953D01*
X161878095Y-108053715D01*
X161925714Y-107958477D01*
X161973333Y-107910858D01*
X162068571Y-107863239D01*
X162259047Y-107815620D01*
X162354285Y-107768001D01*
X162401904Y-107720382D01*
X162449523Y-107625144D01*
X162449523Y-107529906D01*
X162401904Y-107434668D01*
X162354285Y-107387049D01*
X162259047Y-107339429D01*
X162020952Y-107339429D01*
X161878095Y-107387049D01*
X161544761Y-107339429D02*
X161306666Y-108339429D01*
X161116190Y-107625144D01*
X160925714Y-108339429D01*
X160687619Y-107339429D01*
X159782857Y-108339429D02*
X160354285Y-108339429D01*
X160068571Y-108339429D02*
X160068571Y-107339429D01*
X160163809Y-107482287D01*
X160259047Y-107577525D01*
X160354285Y-107625144D01*
X158878095Y-107339429D02*
X159354285Y-107339429D01*
X159401904Y-107815620D01*
X159354285Y-107768001D01*
X159259047Y-107720382D01*
X159020952Y-107720382D01*
X158925714Y-107768001D01*
X158878095Y-107815620D01*
X158830476Y-107910858D01*
X158830476Y-108148953D01*
X158878095Y-108244191D01*
X158925714Y-108291810D01*
X159020952Y-108339429D01*
X159259047Y-108339429D01*
X159354285Y-108291810D01*
X159401904Y-108244191D01*
%TO.C,SW16*%
X168476619Y-129640553D02*
X168327664Y-129662641D01*
X168093186Y-129621297D01*
X168007663Y-129557863D01*
X167969037Y-129502698D01*
X167938679Y-129400638D01*
X167955217Y-129306847D01*
X168018650Y-129221325D01*
X168073815Y-129182698D01*
X168175875Y-129152341D01*
X168371727Y-129138521D01*
X168473787Y-129108163D01*
X168528951Y-129069536D01*
X168592385Y-128984014D01*
X168608923Y-128890223D01*
X168578565Y-128788163D01*
X168539938Y-128732998D01*
X168454416Y-128669565D01*
X168219938Y-128628220D01*
X168070982Y-128650309D01*
X167750982Y-128545530D02*
X167342856Y-129488993D01*
X167279308Y-128752483D01*
X166967691Y-129422842D01*
X166906861Y-128396689D01*
X165842196Y-129224386D02*
X166404944Y-129323614D01*
X166123570Y-129274000D02*
X166297218Y-128289192D01*
X166366203Y-128446417D01*
X166443456Y-128556746D01*
X166528978Y-128620180D01*
X165171724Y-128090737D02*
X165359306Y-128123813D01*
X165444828Y-128187247D01*
X165483455Y-128242411D01*
X165552439Y-128399636D01*
X165566259Y-128595487D01*
X165500107Y-128970652D01*
X165436674Y-129056175D01*
X165381509Y-129094801D01*
X165279449Y-129125159D01*
X165091867Y-129092083D01*
X165006344Y-129028650D01*
X164967718Y-128973485D01*
X164937360Y-128871425D01*
X164978705Y-128636947D01*
X165042138Y-128551425D01*
X165097303Y-128512798D01*
X165199363Y-128482440D01*
X165386946Y-128515516D01*
X165472468Y-128578950D01*
X165511095Y-128634114D01*
X165541452Y-128736174D01*
%TO.C,SW7*%
X143973333Y-49291810D02*
X143830476Y-49339429D01*
X143592380Y-49339429D01*
X143497142Y-49291810D01*
X143449523Y-49244191D01*
X143401904Y-49148953D01*
X143401904Y-49053715D01*
X143449523Y-48958477D01*
X143497142Y-48910858D01*
X143592380Y-48863239D01*
X143782857Y-48815620D01*
X143878095Y-48768001D01*
X143925714Y-48720382D01*
X143973333Y-48625144D01*
X143973333Y-48529906D01*
X143925714Y-48434668D01*
X143878095Y-48387049D01*
X143782857Y-48339429D01*
X143544761Y-48339429D01*
X143401904Y-48387049D01*
X143068571Y-48339429D02*
X142830476Y-49339429D01*
X142640000Y-48625144D01*
X142449523Y-49339429D01*
X142211428Y-48339429D01*
X141925714Y-48339429D02*
X141259047Y-48339429D01*
X141687619Y-49339429D01*
%TO.C,SW2*%
X125973333Y-64291810D02*
X125830476Y-64339429D01*
X125592380Y-64339429D01*
X125497142Y-64291810D01*
X125449523Y-64244191D01*
X125401904Y-64148953D01*
X125401904Y-64053715D01*
X125449523Y-63958477D01*
X125497142Y-63910858D01*
X125592380Y-63863239D01*
X125782857Y-63815620D01*
X125878095Y-63768001D01*
X125925714Y-63720382D01*
X125973333Y-63625144D01*
X125973333Y-63529906D01*
X125925714Y-63434668D01*
X125878095Y-63387049D01*
X125782857Y-63339429D01*
X125544761Y-63339429D01*
X125401904Y-63387049D01*
X125068571Y-63339429D02*
X124830476Y-64339429D01*
X124640000Y-63625144D01*
X124449523Y-64339429D01*
X124211428Y-63339429D01*
X123878095Y-63434668D02*
X123830476Y-63387049D01*
X123735238Y-63339429D01*
X123497142Y-63339429D01*
X123401904Y-63387049D01*
X123354285Y-63434668D01*
X123306666Y-63529906D01*
X123306666Y-63625144D01*
X123354285Y-63768001D01*
X123925714Y-64339429D01*
X123306666Y-64339429D01*
%TO.C,SW27*%
X90449523Y-57291810D02*
X90306666Y-57339429D01*
X90068571Y-57339429D01*
X89973333Y-57291810D01*
X89925714Y-57244191D01*
X89878095Y-57148953D01*
X89878095Y-57053715D01*
X89925714Y-56958477D01*
X89973333Y-56910858D01*
X90068571Y-56863239D01*
X90259047Y-56815620D01*
X90354285Y-56768001D01*
X90401904Y-56720382D01*
X90449523Y-56625144D01*
X90449523Y-56529906D01*
X90401904Y-56434668D01*
X90354285Y-56387049D01*
X90259047Y-56339429D01*
X90020952Y-56339429D01*
X89878095Y-56387049D01*
X89544761Y-56339429D02*
X89306666Y-57339429D01*
X89116190Y-56625144D01*
X88925714Y-57339429D01*
X88687619Y-56339429D01*
X88354285Y-56434668D02*
X88306666Y-56387049D01*
X88211428Y-56339429D01*
X87973333Y-56339429D01*
X87878095Y-56387049D01*
X87830476Y-56434668D01*
X87782857Y-56529906D01*
X87782857Y-56625144D01*
X87830476Y-56768001D01*
X88401904Y-57339429D01*
X87782857Y-57339429D01*
X87449523Y-56339429D02*
X86782857Y-56339429D01*
X87211428Y-57339429D01*
%TO.C,SW30*%
X90449523Y-95291810D02*
X90306666Y-95339429D01*
X90068571Y-95339429D01*
X89973333Y-95291810D01*
X89925714Y-95244191D01*
X89878095Y-95148953D01*
X89878095Y-95053715D01*
X89925714Y-94958477D01*
X89973333Y-94910858D01*
X90068571Y-94863239D01*
X90259047Y-94815620D01*
X90354285Y-94768001D01*
X90401904Y-94720382D01*
X90449523Y-94625144D01*
X90449523Y-94529906D01*
X90401904Y-94434668D01*
X90354285Y-94387049D01*
X90259047Y-94339429D01*
X90020952Y-94339429D01*
X89878095Y-94387049D01*
X89544761Y-94339429D02*
X89306666Y-95339429D01*
X89116190Y-94625144D01*
X88925714Y-95339429D01*
X88687619Y-94339429D01*
X88401904Y-94339429D02*
X87782857Y-94339429D01*
X88116190Y-94720382D01*
X87973333Y-94720382D01*
X87878095Y-94768001D01*
X87830476Y-94815620D01*
X87782857Y-94910858D01*
X87782857Y-95148953D01*
X87830476Y-95244191D01*
X87878095Y-95291810D01*
X87973333Y-95339429D01*
X88259047Y-95339429D01*
X88354285Y-95291810D01*
X88401904Y-95244191D01*
X87163809Y-94339429D02*
X87068571Y-94339429D01*
X86973333Y-94387049D01*
X86925714Y-94434668D01*
X86878095Y-94529906D01*
X86830476Y-94720382D01*
X86830476Y-94958477D01*
X86878095Y-95148953D01*
X86925714Y-95244191D01*
X86973333Y-95291810D01*
X87068571Y-95339429D01*
X87163809Y-95339429D01*
X87259047Y-95291810D01*
X87306666Y-95244191D01*
X87354285Y-95148953D01*
X87401904Y-94958477D01*
X87401904Y-94720382D01*
X87354285Y-94529906D01*
X87306666Y-94434668D01*
X87259047Y-94387049D01*
X87163809Y-94339429D01*
%TO.C,SW11*%
X144449523Y-87291810D02*
X144306666Y-87339429D01*
X144068571Y-87339429D01*
X143973333Y-87291810D01*
X143925714Y-87244191D01*
X143878095Y-87148953D01*
X143878095Y-87053715D01*
X143925714Y-86958477D01*
X143973333Y-86910858D01*
X144068571Y-86863239D01*
X144259047Y-86815620D01*
X144354285Y-86768001D01*
X144401904Y-86720382D01*
X144449523Y-86625144D01*
X144449523Y-86529906D01*
X144401904Y-86434668D01*
X144354285Y-86387049D01*
X144259047Y-86339429D01*
X144020952Y-86339429D01*
X143878095Y-86387049D01*
X143544761Y-86339429D02*
X143306666Y-87339429D01*
X143116190Y-86625144D01*
X142925714Y-87339429D01*
X142687619Y-86339429D01*
X141782857Y-87339429D02*
X142354285Y-87339429D01*
X142068571Y-87339429D02*
X142068571Y-86339429D01*
X142163809Y-86482287D01*
X142259047Y-86577525D01*
X142354285Y-86625144D01*
X140830476Y-87339429D02*
X141401904Y-87339429D01*
X141116190Y-87339429D02*
X141116190Y-86339429D01*
X141211428Y-86482287D01*
X141306666Y-86577525D01*
X141401904Y-86625144D01*
%TO.C,SW12*%
X162449523Y-51291810D02*
X162306666Y-51339429D01*
X162068571Y-51339429D01*
X161973333Y-51291810D01*
X161925714Y-51244191D01*
X161878095Y-51148953D01*
X161878095Y-51053715D01*
X161925714Y-50958477D01*
X161973333Y-50910858D01*
X162068571Y-50863239D01*
X162259047Y-50815620D01*
X162354285Y-50768001D01*
X162401904Y-50720382D01*
X162449523Y-50625144D01*
X162449523Y-50529906D01*
X162401904Y-50434668D01*
X162354285Y-50387049D01*
X162259047Y-50339429D01*
X162020952Y-50339429D01*
X161878095Y-50387049D01*
X161544761Y-50339429D02*
X161306666Y-51339429D01*
X161116190Y-50625144D01*
X160925714Y-51339429D01*
X160687619Y-50339429D01*
X159782857Y-51339429D02*
X160354285Y-51339429D01*
X160068571Y-51339429D02*
X160068571Y-50339429D01*
X160163809Y-50482287D01*
X160259047Y-50577525D01*
X160354285Y-50625144D01*
X159401904Y-50434668D02*
X159354285Y-50387049D01*
X159259047Y-50339429D01*
X159020952Y-50339429D01*
X158925714Y-50387049D01*
X158878095Y-50434668D01*
X158830476Y-50529906D01*
X158830476Y-50625144D01*
X158878095Y-50768001D01*
X159449523Y-51339429D01*
X158830476Y-51339429D01*
%TO.C,SW24*%
X72449523Y-115291810D02*
X72306666Y-115339429D01*
X72068571Y-115339429D01*
X71973333Y-115291810D01*
X71925714Y-115244191D01*
X71878095Y-115148953D01*
X71878095Y-115053715D01*
X71925714Y-114958477D01*
X71973333Y-114910858D01*
X72068571Y-114863239D01*
X72259047Y-114815620D01*
X72354285Y-114768001D01*
X72401904Y-114720382D01*
X72449523Y-114625144D01*
X72449523Y-114529906D01*
X72401904Y-114434668D01*
X72354285Y-114387049D01*
X72259047Y-114339429D01*
X72020952Y-114339429D01*
X71878095Y-114387049D01*
X71544761Y-114339429D02*
X71306666Y-115339429D01*
X71116190Y-114625144D01*
X70925714Y-115339429D01*
X70687619Y-114339429D01*
X70354285Y-114434668D02*
X70306666Y-114387049D01*
X70211428Y-114339429D01*
X69973333Y-114339429D01*
X69878095Y-114387049D01*
X69830476Y-114434668D01*
X69782857Y-114529906D01*
X69782857Y-114625144D01*
X69830476Y-114768001D01*
X70401904Y-115339429D01*
X69782857Y-115339429D01*
X68925714Y-114672763D02*
X68925714Y-115339429D01*
X69163809Y-114291810D02*
X69401904Y-115006096D01*
X68782857Y-115006096D01*
%TO.C,SW6*%
X125973333Y-83291810D02*
X125830476Y-83339429D01*
X125592380Y-83339429D01*
X125497142Y-83291810D01*
X125449523Y-83244191D01*
X125401904Y-83148953D01*
X125401904Y-83053715D01*
X125449523Y-82958477D01*
X125497142Y-82910858D01*
X125592380Y-82863239D01*
X125782857Y-82815620D01*
X125878095Y-82768001D01*
X125925714Y-82720382D01*
X125973333Y-82625144D01*
X125973333Y-82529906D01*
X125925714Y-82434668D01*
X125878095Y-82387049D01*
X125782857Y-82339429D01*
X125544761Y-82339429D01*
X125401904Y-82387049D01*
X125068571Y-82339429D02*
X124830476Y-83339429D01*
X124640000Y-82625144D01*
X124449523Y-83339429D01*
X124211428Y-82339429D01*
X123401904Y-82339429D02*
X123592380Y-82339429D01*
X123687619Y-82387049D01*
X123735238Y-82434668D01*
X123830476Y-82577525D01*
X123878095Y-82768001D01*
X123878095Y-83148953D01*
X123830476Y-83244191D01*
X123782857Y-83291810D01*
X123687619Y-83339429D01*
X123497142Y-83339429D01*
X123401904Y-83291810D01*
X123354285Y-83244191D01*
X123306666Y-83148953D01*
X123306666Y-82910858D01*
X123354285Y-82815620D01*
X123401904Y-82768001D01*
X123497142Y-82720382D01*
X123687619Y-82720382D01*
X123782857Y-82768001D01*
X123830476Y-82815620D01*
X123878095Y-82910858D01*
%TO.C,SW26*%
X72449523Y-96291810D02*
X72306666Y-96339429D01*
X72068571Y-96339429D01*
X71973333Y-96291810D01*
X71925714Y-96244191D01*
X71878095Y-96148953D01*
X71878095Y-96053715D01*
X71925714Y-95958477D01*
X71973333Y-95910858D01*
X72068571Y-95863239D01*
X72259047Y-95815620D01*
X72354285Y-95768001D01*
X72401904Y-95720382D01*
X72449523Y-95625144D01*
X72449523Y-95529906D01*
X72401904Y-95434668D01*
X72354285Y-95387049D01*
X72259047Y-95339429D01*
X72020952Y-95339429D01*
X71878095Y-95387049D01*
X71544761Y-95339429D02*
X71306666Y-96339429D01*
X71116190Y-95625144D01*
X70925714Y-96339429D01*
X70687619Y-95339429D01*
X70354285Y-95434668D02*
X70306666Y-95387049D01*
X70211428Y-95339429D01*
X69973333Y-95339429D01*
X69878095Y-95387049D01*
X69830476Y-95434668D01*
X69782857Y-95529906D01*
X69782857Y-95625144D01*
X69830476Y-95768001D01*
X70401904Y-96339429D01*
X69782857Y-96339429D01*
X68925714Y-95339429D02*
X69116190Y-95339429D01*
X69211428Y-95387049D01*
X69259047Y-95434668D01*
X69354285Y-95577525D01*
X69401904Y-95768001D01*
X69401904Y-96148953D01*
X69354285Y-96244191D01*
X69306666Y-96291810D01*
X69211428Y-96339429D01*
X69020952Y-96339429D01*
X68925714Y-96291810D01*
X68878095Y-96244191D01*
X68830476Y-96148953D01*
X68830476Y-95910858D01*
X68878095Y-95815620D01*
X68925714Y-95768001D01*
X69020952Y-95720382D01*
X69211428Y-95720382D01*
X69306666Y-95768001D01*
X69354285Y-95815620D01*
X69401904Y-95910858D01*
%TO.C,SW5*%
X125973333Y-45291810D02*
X125830476Y-45339429D01*
X125592380Y-45339429D01*
X125497142Y-45291810D01*
X125449523Y-45244191D01*
X125401904Y-45148953D01*
X125401904Y-45053715D01*
X125449523Y-44958477D01*
X125497142Y-44910858D01*
X125592380Y-44863239D01*
X125782857Y-44815620D01*
X125878095Y-44768001D01*
X125925714Y-44720382D01*
X125973333Y-44625144D01*
X125973333Y-44529906D01*
X125925714Y-44434668D01*
X125878095Y-44387049D01*
X125782857Y-44339429D01*
X125544761Y-44339429D01*
X125401904Y-44387049D01*
X125068571Y-44339429D02*
X124830476Y-45339429D01*
X124640000Y-44625144D01*
X124449523Y-45339429D01*
X124211428Y-44339429D01*
X123354285Y-44339429D02*
X123830476Y-44339429D01*
X123878095Y-44815620D01*
X123830476Y-44768001D01*
X123735238Y-44720382D01*
X123497142Y-44720382D01*
X123401904Y-44768001D01*
X123354285Y-44815620D01*
X123306666Y-44910858D01*
X123306666Y-45148953D01*
X123354285Y-45244191D01*
X123401904Y-45291810D01*
X123497142Y-45339429D01*
X123735238Y-45339429D01*
X123830476Y-45291810D01*
X123878095Y-45244191D01*
%TO.C,S2*%
X187557315Y-135976959D02*
X187407718Y-135959743D01*
X187191930Y-135859119D01*
X187125740Y-135775712D01*
X187102707Y-135712430D01*
X187099799Y-135605991D01*
X187140048Y-135519676D01*
X187223455Y-135453485D01*
X187286737Y-135430452D01*
X187393177Y-135427544D01*
X187585932Y-135464885D01*
X187692371Y-135461977D01*
X187755654Y-135438944D01*
X187839060Y-135372754D01*
X187879310Y-135286439D01*
X187876402Y-135179999D01*
X187853369Y-135116717D01*
X187787178Y-135033310D01*
X187571391Y-134932687D01*
X187421794Y-134915470D01*
X187056409Y-134797630D02*
X187033376Y-134734348D01*
X186967186Y-134650941D01*
X186751398Y-134550318D01*
X186644958Y-134553226D01*
X186581676Y-134576259D01*
X186498269Y-134642449D01*
X186458020Y-134728764D01*
X186440803Y-134878362D01*
X186717198Y-135637748D01*
X186156150Y-135376127D01*
%TO.C,SW29*%
X90449523Y-114291810D02*
X90306666Y-114339429D01*
X90068571Y-114339429D01*
X89973333Y-114291810D01*
X89925714Y-114244191D01*
X89878095Y-114148953D01*
X89878095Y-114053715D01*
X89925714Y-113958477D01*
X89973333Y-113910858D01*
X90068571Y-113863239D01*
X90259047Y-113815620D01*
X90354285Y-113768001D01*
X90401904Y-113720382D01*
X90449523Y-113625144D01*
X90449523Y-113529906D01*
X90401904Y-113434668D01*
X90354285Y-113387049D01*
X90259047Y-113339429D01*
X90020952Y-113339429D01*
X89878095Y-113387049D01*
X89544761Y-113339429D02*
X89306666Y-114339429D01*
X89116190Y-113625144D01*
X88925714Y-114339429D01*
X88687619Y-113339429D01*
X88354285Y-113434668D02*
X88306666Y-113387049D01*
X88211428Y-113339429D01*
X87973333Y-113339429D01*
X87878095Y-113387049D01*
X87830476Y-113434668D01*
X87782857Y-113529906D01*
X87782857Y-113625144D01*
X87830476Y-113768001D01*
X88401904Y-114339429D01*
X87782857Y-114339429D01*
X87306666Y-114339429D02*
X87116190Y-114339429D01*
X87020952Y-114291810D01*
X86973333Y-114244191D01*
X86878095Y-114101334D01*
X86830476Y-113910858D01*
X86830476Y-113529906D01*
X86878095Y-113434668D01*
X86925714Y-113387049D01*
X87020952Y-113339429D01*
X87211428Y-113339429D01*
X87306666Y-113387049D01*
X87354285Y-113434668D01*
X87401904Y-113529906D01*
X87401904Y-113768001D01*
X87354285Y-113863239D01*
X87306666Y-113910858D01*
X87211428Y-113958477D01*
X87020952Y-113958477D01*
X86925714Y-113910858D01*
X86878095Y-113863239D01*
X86830476Y-113768001D01*
%TO.C,SW19*%
X108449523Y-106291810D02*
X108306666Y-106339429D01*
X108068571Y-106339429D01*
X107973333Y-106291810D01*
X107925714Y-106244191D01*
X107878095Y-106148953D01*
X107878095Y-106053715D01*
X107925714Y-105958477D01*
X107973333Y-105910858D01*
X108068571Y-105863239D01*
X108259047Y-105815620D01*
X108354285Y-105768001D01*
X108401904Y-105720382D01*
X108449523Y-105625144D01*
X108449523Y-105529906D01*
X108401904Y-105434668D01*
X108354285Y-105387049D01*
X108259047Y-105339429D01*
X108020952Y-105339429D01*
X107878095Y-105387049D01*
X107544761Y-105339429D02*
X107306666Y-106339429D01*
X107116190Y-105625144D01*
X106925714Y-106339429D01*
X106687619Y-105339429D01*
X105782857Y-106339429D02*
X106354285Y-106339429D01*
X106068571Y-106339429D02*
X106068571Y-105339429D01*
X106163809Y-105482287D01*
X106259047Y-105577525D01*
X106354285Y-105625144D01*
X105306666Y-106339429D02*
X105116190Y-106339429D01*
X105020952Y-106291810D01*
X104973333Y-106244191D01*
X104878095Y-106101334D01*
X104830476Y-105910858D01*
X104830476Y-105529906D01*
X104878095Y-105434668D01*
X104925714Y-105387049D01*
X105020952Y-105339429D01*
X105211428Y-105339429D01*
X105306666Y-105387049D01*
X105354285Y-105434668D01*
X105401904Y-105529906D01*
X105401904Y-105768001D01*
X105354285Y-105863239D01*
X105306666Y-105910858D01*
X105211428Y-105958477D01*
X105020952Y-105958477D01*
X104925714Y-105910858D01*
X104878095Y-105863239D01*
X104830476Y-105768001D01*
%TO.C,SW21*%
X108449523Y-87291810D02*
X108306666Y-87339429D01*
X108068571Y-87339429D01*
X107973333Y-87291810D01*
X107925714Y-87244191D01*
X107878095Y-87148953D01*
X107878095Y-87053715D01*
X107925714Y-86958477D01*
X107973333Y-86910858D01*
X108068571Y-86863239D01*
X108259047Y-86815620D01*
X108354285Y-86768001D01*
X108401904Y-86720382D01*
X108449523Y-86625144D01*
X108449523Y-86529906D01*
X108401904Y-86434668D01*
X108354285Y-86387049D01*
X108259047Y-86339429D01*
X108020952Y-86339429D01*
X107878095Y-86387049D01*
X107544761Y-86339429D02*
X107306666Y-87339429D01*
X107116190Y-86625144D01*
X106925714Y-87339429D01*
X106687619Y-86339429D01*
X106354285Y-86434668D02*
X106306666Y-86387049D01*
X106211428Y-86339429D01*
X105973333Y-86339429D01*
X105878095Y-86387049D01*
X105830476Y-86434668D01*
X105782857Y-86529906D01*
X105782857Y-86625144D01*
X105830476Y-86768001D01*
X106401904Y-87339429D01*
X105782857Y-87339429D01*
X104830476Y-87339429D02*
X105401904Y-87339429D01*
X105116190Y-87339429D02*
X105116190Y-86339429D01*
X105211428Y-86482287D01*
X105306666Y-86577525D01*
X105401904Y-86625144D01*
%TO.C,SW28*%
X90449523Y-76291810D02*
X90306666Y-76339429D01*
X90068571Y-76339429D01*
X89973333Y-76291810D01*
X89925714Y-76244191D01*
X89878095Y-76148953D01*
X89878095Y-76053715D01*
X89925714Y-75958477D01*
X89973333Y-75910858D01*
X90068571Y-75863239D01*
X90259047Y-75815620D01*
X90354285Y-75768001D01*
X90401904Y-75720382D01*
X90449523Y-75625144D01*
X90449523Y-75529906D01*
X90401904Y-75434668D01*
X90354285Y-75387049D01*
X90259047Y-75339429D01*
X90020952Y-75339429D01*
X89878095Y-75387049D01*
X89544761Y-75339429D02*
X89306666Y-76339429D01*
X89116190Y-75625144D01*
X88925714Y-76339429D01*
X88687619Y-75339429D01*
X88354285Y-75434668D02*
X88306666Y-75387049D01*
X88211428Y-75339429D01*
X87973333Y-75339429D01*
X87878095Y-75387049D01*
X87830476Y-75434668D01*
X87782857Y-75529906D01*
X87782857Y-75625144D01*
X87830476Y-75768001D01*
X88401904Y-76339429D01*
X87782857Y-76339429D01*
X87211428Y-75768001D02*
X87306666Y-75720382D01*
X87354285Y-75672763D01*
X87401904Y-75577525D01*
X87401904Y-75529906D01*
X87354285Y-75434668D01*
X87306666Y-75387049D01*
X87211428Y-75339429D01*
X87020952Y-75339429D01*
X86925714Y-75387049D01*
X86878095Y-75434668D01*
X86830476Y-75529906D01*
X86830476Y-75577525D01*
X86878095Y-75672763D01*
X86925714Y-75720382D01*
X87020952Y-75768001D01*
X87211428Y-75768001D01*
X87306666Y-75815620D01*
X87354285Y-75863239D01*
X87401904Y-75958477D01*
X87401904Y-76148953D01*
X87354285Y-76244191D01*
X87306666Y-76291810D01*
X87211428Y-76339429D01*
X87020952Y-76339429D01*
X86925714Y-76291810D01*
X86878095Y-76244191D01*
X86830476Y-76148953D01*
X86830476Y-75958477D01*
X86878095Y-75863239D01*
X86925714Y-75815620D01*
X87020952Y-75768001D01*
%TO.C,SW25*%
X73449523Y-134291810D02*
X73306666Y-134339429D01*
X73068571Y-134339429D01*
X72973333Y-134291810D01*
X72925714Y-134244191D01*
X72878095Y-134148953D01*
X72878095Y-134053715D01*
X72925714Y-133958477D01*
X72973333Y-133910858D01*
X73068571Y-133863239D01*
X73259047Y-133815620D01*
X73354285Y-133768001D01*
X73401904Y-133720382D01*
X73449523Y-133625144D01*
X73449523Y-133529906D01*
X73401904Y-133434668D01*
X73354285Y-133387049D01*
X73259047Y-133339429D01*
X73020952Y-133339429D01*
X72878095Y-133387049D01*
X72544761Y-133339429D02*
X72306666Y-134339429D01*
X72116190Y-133625144D01*
X71925714Y-134339429D01*
X71687619Y-133339429D01*
X71354285Y-133434668D02*
X71306666Y-133387049D01*
X71211428Y-133339429D01*
X70973333Y-133339429D01*
X70878095Y-133387049D01*
X70830476Y-133434668D01*
X70782857Y-133529906D01*
X70782857Y-133625144D01*
X70830476Y-133768001D01*
X71401904Y-134339429D01*
X70782857Y-134339429D01*
X69878095Y-133339429D02*
X70354285Y-133339429D01*
X70401904Y-133815620D01*
X70354285Y-133768001D01*
X70259047Y-133720382D01*
X70020952Y-133720382D01*
X69925714Y-133768001D01*
X69878095Y-133815620D01*
X69830476Y-133910858D01*
X69830476Y-134148953D01*
X69878095Y-134244191D01*
X69925714Y-134291810D01*
X70020952Y-134339429D01*
X70259047Y-134339429D01*
X70354285Y-134291810D01*
X70401904Y-134244191D01*
%TO.C,U1*%
X174732380Y-95423715D02*
X175732380Y-95757049D01*
X174732380Y-96090382D01*
X175732380Y-96995144D02*
X175256190Y-96661810D01*
X175732380Y-96423715D02*
X174732380Y-96423715D01*
X174732380Y-96804668D01*
X174780000Y-96899906D01*
X174827619Y-96947525D01*
X174922857Y-96995144D01*
X175065714Y-96995144D01*
X175160952Y-96947525D01*
X175208571Y-96899906D01*
X175256190Y-96804668D01*
X175256190Y-96423715D01*
X174780000Y-97947525D02*
X174732380Y-97852287D01*
X174732380Y-97709429D01*
X174780000Y-97566572D01*
X174875238Y-97471334D01*
X174970476Y-97423715D01*
X175160952Y-97376096D01*
X175303809Y-97376096D01*
X175494285Y-97423715D01*
X175589523Y-97471334D01*
X175684761Y-97566572D01*
X175732380Y-97709429D01*
X175732380Y-97804668D01*
X175684761Y-97947525D01*
X175637142Y-97995144D01*
X175303809Y-97995144D01*
X175303809Y-97804668D01*
X175208571Y-98757049D02*
X175256190Y-98899906D01*
X175303809Y-98947525D01*
X175399047Y-98995144D01*
X175541904Y-98995144D01*
X175637142Y-98947525D01*
X175684761Y-98899906D01*
X175732380Y-98804668D01*
X175732380Y-98423715D01*
X174732380Y-98423715D01*
X174732380Y-98757049D01*
X174780000Y-98852287D01*
X174827619Y-98899906D01*
X174922857Y-98947525D01*
X175018095Y-98947525D01*
X175113333Y-98899906D01*
X175160952Y-98852287D01*
X175208571Y-98757049D01*
X175208571Y-98423715D01*
X183352380Y-95385144D02*
X182352380Y-95385144D01*
X182352380Y-95623239D01*
X182400000Y-95766096D01*
X182495238Y-95861334D01*
X182590476Y-95908953D01*
X182780952Y-95956572D01*
X182923809Y-95956572D01*
X183114285Y-95908953D01*
X183209523Y-95861334D01*
X183304761Y-95766096D01*
X183352380Y-95623239D01*
X183352380Y-95385144D01*
X183352380Y-96956572D02*
X182876190Y-96623239D01*
X183352380Y-96385144D02*
X182352380Y-96385144D01*
X182352380Y-96766096D01*
X182400000Y-96861334D01*
X182447619Y-96908953D01*
X182542857Y-96956572D01*
X182685714Y-96956572D01*
X182780952Y-96908953D01*
X182828571Y-96861334D01*
X182876190Y-96766096D01*
X182876190Y-96385144D01*
X182400000Y-97908953D02*
X182352380Y-97813715D01*
X182352380Y-97670858D01*
X182400000Y-97528001D01*
X182495238Y-97432763D01*
X182590476Y-97385144D01*
X182780952Y-97337525D01*
X182923809Y-97337525D01*
X183114285Y-97385144D01*
X183209523Y-97432763D01*
X183304761Y-97528001D01*
X183352380Y-97670858D01*
X183352380Y-97766096D01*
X183304761Y-97908953D01*
X183257142Y-97956572D01*
X182923809Y-97956572D01*
X182923809Y-97766096D01*
X182828571Y-98718477D02*
X182876190Y-98861334D01*
X182923809Y-98908953D01*
X183019047Y-98956572D01*
X183161904Y-98956572D01*
X183257142Y-98908953D01*
X183304761Y-98861334D01*
X183352380Y-98766096D01*
X183352380Y-98385144D01*
X182352380Y-98385144D01*
X182352380Y-98718477D01*
X182400000Y-98813715D01*
X182447619Y-98861334D01*
X182542857Y-98908953D01*
X182638095Y-98908953D01*
X182733333Y-98861334D01*
X182780952Y-98813715D01*
X182828571Y-98718477D01*
X182828571Y-98385144D01*
X184930000Y-96955144D02*
X184882380Y-96859906D01*
X184882380Y-96717049D01*
X184930000Y-96574191D01*
X185025238Y-96478953D01*
X185120476Y-96431334D01*
X185310952Y-96383715D01*
X185453809Y-96383715D01*
X185644285Y-96431334D01*
X185739523Y-96478953D01*
X185834761Y-96574191D01*
X185882380Y-96717049D01*
X185882380Y-96812287D01*
X185834761Y-96955144D01*
X185787142Y-97002763D01*
X185453809Y-97002763D01*
X185453809Y-96812287D01*
X185882380Y-97431334D02*
X184882380Y-97431334D01*
X185882380Y-98002763D01*
X184882380Y-98002763D01*
X185882380Y-98478953D02*
X184882380Y-98478953D01*
X184882380Y-98717049D01*
X184930000Y-98859906D01*
X185025238Y-98955144D01*
X185120476Y-99002763D01*
X185310952Y-99050382D01*
X185453809Y-99050382D01*
X185644285Y-99002763D01*
X185739523Y-98955144D01*
X185834761Y-98859906D01*
X185882380Y-98717049D01*
X185882380Y-98478953D01*
X177342380Y-95973239D02*
X178342380Y-96306572D01*
X177342380Y-96639906D01*
X177342380Y-96878001D02*
X177342380Y-97497049D01*
X177723333Y-97163715D01*
X177723333Y-97306572D01*
X177770952Y-97401810D01*
X177818571Y-97449429D01*
X177913809Y-97497049D01*
X178151904Y-97497049D01*
X178247142Y-97449429D01*
X178294761Y-97401810D01*
X178342380Y-97306572D01*
X178342380Y-97020858D01*
X178294761Y-96925620D01*
X178247142Y-96878001D01*
X178247142Y-97925620D02*
X178294761Y-97973239D01*
X178342380Y-97925620D01*
X178294761Y-97878001D01*
X178247142Y-97925620D01*
X178342380Y-97925620D01*
X177342380Y-98306572D02*
X177342380Y-98925620D01*
X177723333Y-98592287D01*
X177723333Y-98735144D01*
X177770952Y-98830382D01*
X177818571Y-98878001D01*
X177913809Y-98925620D01*
X178151904Y-98925620D01*
X178247142Y-98878001D01*
X178294761Y-98830382D01*
X178342380Y-98735144D01*
X178342380Y-98449429D01*
X178294761Y-98354191D01*
X178247142Y-98306572D01*
X172172380Y-95473715D02*
X173172380Y-95807049D01*
X172172380Y-96140382D01*
X172172380Y-96473715D02*
X172981904Y-96473715D01*
X173077142Y-96521334D01*
X173124761Y-96568953D01*
X173172380Y-96664191D01*
X173172380Y-96854668D01*
X173124761Y-96949906D01*
X173077142Y-96997525D01*
X172981904Y-97045144D01*
X172172380Y-97045144D01*
X173124761Y-97473715D02*
X173172380Y-97616572D01*
X173172380Y-97854668D01*
X173124761Y-97949906D01*
X173077142Y-97997525D01*
X172981904Y-98045144D01*
X172886666Y-98045144D01*
X172791428Y-97997525D01*
X172743809Y-97949906D01*
X172696190Y-97854668D01*
X172648571Y-97664191D01*
X172600952Y-97568953D01*
X172553333Y-97521334D01*
X172458095Y-97473715D01*
X172362857Y-97473715D01*
X172267619Y-97521334D01*
X172220000Y-97568953D01*
X172172380Y-97664191D01*
X172172380Y-97902287D01*
X172220000Y-98045144D01*
X172648571Y-98807049D02*
X172696190Y-98949906D01*
X172743809Y-98997525D01*
X172839047Y-99045144D01*
X172981904Y-99045144D01*
X173077142Y-98997525D01*
X173124761Y-98949906D01*
X173172380Y-98854668D01*
X173172380Y-98473715D01*
X172172380Y-98473715D01*
X172172380Y-98807049D01*
X172220000Y-98902287D01*
X172267619Y-98949906D01*
X172362857Y-98997525D01*
X172458095Y-98997525D01*
X172553333Y-98949906D01*
X172600952Y-98902287D01*
X172648571Y-98807049D01*
X172648571Y-98473715D01*
X180556666Y-95566572D02*
X180556666Y-96042763D01*
X180842380Y-95471334D02*
X179842380Y-95804668D01*
X180842380Y-96138001D01*
X180842380Y-96995144D02*
X180842380Y-96423715D01*
X180842380Y-96709429D02*
X179842380Y-96709429D01*
X179985238Y-96614191D01*
X180080476Y-96518953D01*
X180128095Y-96423715D01*
X180842380Y-97423715D02*
X179842380Y-97423715D01*
X179842380Y-97661810D01*
X179890000Y-97804668D01*
X179985238Y-97899906D01*
X180080476Y-97947525D01*
X180270952Y-97995144D01*
X180413809Y-97995144D01*
X180604285Y-97947525D01*
X180699523Y-97899906D01*
X180794761Y-97804668D01*
X180842380Y-97661810D01*
X180842380Y-97423715D01*
X180175714Y-98852287D02*
X180842380Y-98852287D01*
X179794761Y-98614191D02*
X180509047Y-98376096D01*
X180509047Y-98995144D01*
%TO.C,SW10*%
X147365462Y-128325822D02*
X147227299Y-128385710D01*
X146990109Y-128406462D01*
X146891083Y-128367325D01*
X146839495Y-128324037D01*
X146783757Y-128233312D01*
X146775456Y-128138436D01*
X146814594Y-128039410D01*
X146857881Y-127987822D01*
X146948607Y-127932083D01*
X147134208Y-127868044D01*
X147224933Y-127812306D01*
X147268221Y-127760718D01*
X147307358Y-127661692D01*
X147299057Y-127566816D01*
X147243319Y-127476091D01*
X147191731Y-127432803D01*
X147092705Y-127393666D01*
X146855516Y-127414417D01*
X146717353Y-127474306D01*
X146381137Y-127455920D02*
X146231104Y-128472866D01*
X145979098Y-127777900D01*
X145851601Y-128506068D01*
X145527256Y-127530625D01*
X144713093Y-128605675D02*
X145282347Y-128555872D01*
X144997720Y-128580773D02*
X144910564Y-127584579D01*
X145017891Y-127718592D01*
X145121067Y-127805167D01*
X145220093Y-127844304D01*
X144009245Y-127663434D02*
X143914370Y-127671734D01*
X143823644Y-127727473D01*
X143780357Y-127779061D01*
X143741219Y-127878087D01*
X143710383Y-128071988D01*
X143731134Y-128309178D01*
X143795173Y-128494779D01*
X143850911Y-128585504D01*
X143902499Y-128628792D01*
X144001525Y-128667929D01*
X144096401Y-128659628D01*
X144187126Y-128603890D01*
X144230414Y-128552302D01*
X144269551Y-128453276D01*
X144300388Y-128259374D01*
X144279637Y-128022185D01*
X144215598Y-127836584D01*
X144159859Y-127745859D01*
X144108271Y-127702571D01*
X144009245Y-127663434D01*
%TO.C,SW1*%
X194824727Y-126921500D02*
X194811773Y-126771474D01*
X194867355Y-126539957D01*
X194935891Y-126458467D01*
X194993311Y-126423280D01*
X195097034Y-126399209D01*
X195189641Y-126421442D01*
X195271131Y-126489978D01*
X195306318Y-126547398D01*
X195330388Y-126651121D01*
X195332226Y-126847451D01*
X195356296Y-126951174D01*
X195391483Y-127008594D01*
X195472973Y-127077130D01*
X195565580Y-127099363D01*
X195669303Y-127075293D01*
X195726723Y-127040106D01*
X195795259Y-126958616D01*
X195850841Y-126727099D01*
X195837887Y-126577072D01*
X195962006Y-126264066D02*
X195045218Y-125799104D01*
X195784234Y-125780637D01*
X195134150Y-125428677D01*
X196162102Y-125430606D01*
X195400944Y-124317397D02*
X195267547Y-124873037D01*
X195334246Y-124595217D02*
X196306616Y-124828662D01*
X196145473Y-124887920D01*
X196030633Y-124958293D01*
X195962097Y-125039784D01*
%TO.C,SW3*%
X125973333Y-102291810D02*
X125830476Y-102339429D01*
X125592380Y-102339429D01*
X125497142Y-102291810D01*
X125449523Y-102244191D01*
X125401904Y-102148953D01*
X125401904Y-102053715D01*
X125449523Y-101958477D01*
X125497142Y-101910858D01*
X125592380Y-101863239D01*
X125782857Y-101815620D01*
X125878095Y-101768001D01*
X125925714Y-101720382D01*
X125973333Y-101625144D01*
X125973333Y-101529906D01*
X125925714Y-101434668D01*
X125878095Y-101387049D01*
X125782857Y-101339429D01*
X125544761Y-101339429D01*
X125401904Y-101387049D01*
X125068571Y-101339429D02*
X124830476Y-102339429D01*
X124640000Y-101625144D01*
X124449523Y-102339429D01*
X124211428Y-101339429D01*
X123925714Y-101339429D02*
X123306666Y-101339429D01*
X123640000Y-101720382D01*
X123497142Y-101720382D01*
X123401904Y-101768001D01*
X123354285Y-101815620D01*
X123306666Y-101910858D01*
X123306666Y-102148953D01*
X123354285Y-102244191D01*
X123401904Y-102291810D01*
X123497142Y-102339429D01*
X123782857Y-102339429D01*
X123878095Y-102291810D01*
X123925714Y-102244191D01*
%TO.C,SW20*%
X109449523Y-132291810D02*
X109306666Y-132339429D01*
X109068571Y-132339429D01*
X108973333Y-132291810D01*
X108925714Y-132244191D01*
X108878095Y-132148953D01*
X108878095Y-132053715D01*
X108925714Y-131958477D01*
X108973333Y-131910858D01*
X109068571Y-131863239D01*
X109259047Y-131815620D01*
X109354285Y-131768001D01*
X109401904Y-131720382D01*
X109449523Y-131625144D01*
X109449523Y-131529906D01*
X109401904Y-131434668D01*
X109354285Y-131387049D01*
X109259047Y-131339429D01*
X109020952Y-131339429D01*
X108878095Y-131387049D01*
X108544761Y-131339429D02*
X108306666Y-132339429D01*
X108116190Y-131625144D01*
X107925714Y-132339429D01*
X107687619Y-131339429D01*
X107354285Y-131434668D02*
X107306666Y-131387049D01*
X107211428Y-131339429D01*
X106973333Y-131339429D01*
X106878095Y-131387049D01*
X106830476Y-131434668D01*
X106782857Y-131529906D01*
X106782857Y-131625144D01*
X106830476Y-131768001D01*
X107401904Y-132339429D01*
X106782857Y-132339429D01*
X106163809Y-131339429D02*
X106068571Y-131339429D01*
X105973333Y-131387049D01*
X105925714Y-131434668D01*
X105878095Y-131529906D01*
X105830476Y-131720382D01*
X105830476Y-131958477D01*
X105878095Y-132148953D01*
X105925714Y-132244191D01*
X105973333Y-132291810D01*
X106068571Y-132339429D01*
X106163809Y-132339429D01*
X106259047Y-132291810D01*
X106306666Y-132244191D01*
X106354285Y-132148953D01*
X106401904Y-131958477D01*
X106401904Y-131720382D01*
X106354285Y-131529906D01*
X106306666Y-131434668D01*
X106259047Y-131387049D01*
X106163809Y-131339429D01*
%TO.C,SW13*%
X162449523Y-70291810D02*
X162306666Y-70339429D01*
X162068571Y-70339429D01*
X161973333Y-70291810D01*
X161925714Y-70244191D01*
X161878095Y-70148953D01*
X161878095Y-70053715D01*
X161925714Y-69958477D01*
X161973333Y-69910858D01*
X162068571Y-69863239D01*
X162259047Y-69815620D01*
X162354285Y-69768001D01*
X162401904Y-69720382D01*
X162449523Y-69625144D01*
X162449523Y-69529906D01*
X162401904Y-69434668D01*
X162354285Y-69387049D01*
X162259047Y-69339429D01*
X162020952Y-69339429D01*
X161878095Y-69387049D01*
X161544761Y-69339429D02*
X161306666Y-70339429D01*
X161116190Y-69625144D01*
X160925714Y-70339429D01*
X160687619Y-69339429D01*
X159782857Y-70339429D02*
X160354285Y-70339429D01*
X160068571Y-70339429D02*
X160068571Y-69339429D01*
X160163809Y-69482287D01*
X160259047Y-69577525D01*
X160354285Y-69625144D01*
X159449523Y-69339429D02*
X158830476Y-69339429D01*
X159163809Y-69720382D01*
X159020952Y-69720382D01*
X158925714Y-69768001D01*
X158878095Y-69815620D01*
X158830476Y-69910858D01*
X158830476Y-70148953D01*
X158878095Y-70244191D01*
X158925714Y-70291810D01*
X159020952Y-70339429D01*
X159306666Y-70339429D01*
X159401904Y-70291810D01*
X159449523Y-70244191D01*
%TO.C,S1*%
X182277044Y-113061035D02*
X182126479Y-113063492D01*
X181899404Y-112991895D01*
X181822893Y-112917842D01*
X181791797Y-112858107D01*
X181775021Y-112752958D01*
X181803659Y-112662128D01*
X181877713Y-112585617D01*
X181937447Y-112554521D01*
X182042597Y-112537745D01*
X182238577Y-112549607D01*
X182343726Y-112532830D01*
X182403461Y-112501735D01*
X182477514Y-112425224D01*
X182506153Y-112334393D01*
X182489376Y-112229244D01*
X182458281Y-112169510D01*
X182381770Y-112095456D01*
X182154694Y-112023859D01*
X182004130Y-112026316D01*
X180809441Y-112648232D02*
X181354423Y-112820064D01*
X181081932Y-112734148D02*
X181382638Y-111780431D01*
X181430510Y-111945315D01*
X181492702Y-112064783D01*
X181569212Y-112138837D01*
%TO.C,SW4*%
X126973333Y-131291810D02*
X126830476Y-131339429D01*
X126592380Y-131339429D01*
X126497142Y-131291810D01*
X126449523Y-131244191D01*
X126401904Y-131148953D01*
X126401904Y-131053715D01*
X126449523Y-130958477D01*
X126497142Y-130910858D01*
X126592380Y-130863239D01*
X126782857Y-130815620D01*
X126878095Y-130768001D01*
X126925714Y-130720382D01*
X126973333Y-130625144D01*
X126973333Y-130529906D01*
X126925714Y-130434668D01*
X126878095Y-130387049D01*
X126782857Y-130339429D01*
X126544761Y-130339429D01*
X126401904Y-130387049D01*
X126068571Y-130339429D02*
X125830476Y-131339429D01*
X125640000Y-130625144D01*
X125449523Y-131339429D01*
X125211428Y-130339429D01*
X124401904Y-130672763D02*
X124401904Y-131339429D01*
X124640000Y-130291810D02*
X124878095Y-131006096D01*
X124259047Y-131006096D01*
%TO.C,SW14*%
X162449523Y-89291810D02*
X162306666Y-89339429D01*
X162068571Y-89339429D01*
X161973333Y-89291810D01*
X161925714Y-89244191D01*
X161878095Y-89148953D01*
X161878095Y-89053715D01*
X161925714Y-88958477D01*
X161973333Y-88910858D01*
X162068571Y-88863239D01*
X162259047Y-88815620D01*
X162354285Y-88768001D01*
X162401904Y-88720382D01*
X162449523Y-88625144D01*
X162449523Y-88529906D01*
X162401904Y-88434668D01*
X162354285Y-88387049D01*
X162259047Y-88339429D01*
X162020952Y-88339429D01*
X161878095Y-88387049D01*
X161544761Y-88339429D02*
X161306666Y-89339429D01*
X161116190Y-88625144D01*
X160925714Y-89339429D01*
X160687619Y-88339429D01*
X159782857Y-89339429D02*
X160354285Y-89339429D01*
X160068571Y-89339429D02*
X160068571Y-88339429D01*
X160163809Y-88482287D01*
X160259047Y-88577525D01*
X160354285Y-88625144D01*
X158925714Y-88672763D02*
X158925714Y-89339429D01*
X159163809Y-88291810D02*
X159401904Y-89006096D01*
X158782857Y-89006096D01*
%TO.C,SW22*%
X72449523Y-58291810D02*
X72306666Y-58339429D01*
X72068571Y-58339429D01*
X71973333Y-58291810D01*
X71925714Y-58244191D01*
X71878095Y-58148953D01*
X71878095Y-58053715D01*
X71925714Y-57958477D01*
X71973333Y-57910858D01*
X72068571Y-57863239D01*
X72259047Y-57815620D01*
X72354285Y-57768001D01*
X72401904Y-57720382D01*
X72449523Y-57625144D01*
X72449523Y-57529906D01*
X72401904Y-57434668D01*
X72354285Y-57387049D01*
X72259047Y-57339429D01*
X72020952Y-57339429D01*
X71878095Y-57387049D01*
X71544761Y-57339429D02*
X71306666Y-58339429D01*
X71116190Y-57625144D01*
X70925714Y-58339429D01*
X70687619Y-57339429D01*
X70354285Y-57434668D02*
X70306666Y-57387049D01*
X70211428Y-57339429D01*
X69973333Y-57339429D01*
X69878095Y-57387049D01*
X69830476Y-57434668D01*
X69782857Y-57529906D01*
X69782857Y-57625144D01*
X69830476Y-57768001D01*
X70401904Y-58339429D01*
X69782857Y-58339429D01*
X69401904Y-57434668D02*
X69354285Y-57387049D01*
X69259047Y-57339429D01*
X69020952Y-57339429D01*
X68925714Y-57387049D01*
X68878095Y-57434668D01*
X68830476Y-57529906D01*
X68830476Y-57625144D01*
X68878095Y-57768001D01*
X69449523Y-58339429D01*
X68830476Y-58339429D01*
%TO.C,JP10*%
X187892380Y-83777525D02*
X188606666Y-83777525D01*
X188749523Y-83729906D01*
X188844761Y-83634668D01*
X188892380Y-83491810D01*
X188892380Y-83396572D01*
X188892380Y-84253715D02*
X187892380Y-84253715D01*
X187892380Y-84634668D01*
X187940000Y-84729906D01*
X187987619Y-84777525D01*
X188082857Y-84825144D01*
X188225714Y-84825144D01*
X188320952Y-84777525D01*
X188368571Y-84729906D01*
X188416190Y-84634668D01*
X188416190Y-84253715D01*
X188892380Y-85777525D02*
X188892380Y-85206096D01*
X188892380Y-85491810D02*
X187892380Y-85491810D01*
X188035238Y-85396572D01*
X188130476Y-85301334D01*
X188178095Y-85206096D01*
X187892380Y-86396572D02*
X187892380Y-86491810D01*
X187940000Y-86587049D01*
X187987619Y-86634668D01*
X188082857Y-86682287D01*
X188273333Y-86729906D01*
X188511428Y-86729906D01*
X188701904Y-86682287D01*
X188797142Y-86634668D01*
X188844761Y-86587049D01*
X188892380Y-86491810D01*
X188892380Y-86396572D01*
X188844761Y-86301334D01*
X188797142Y-86253715D01*
X188701904Y-86206096D01*
X188511428Y-86158477D01*
X188273333Y-86158477D01*
X188082857Y-86206096D01*
X187987619Y-86253715D01*
X187940000Y-86301334D01*
X187892380Y-86396572D01*
%TO.C,JP12*%
X198789523Y-92039429D02*
X198789523Y-92753715D01*
X198837142Y-92896572D01*
X198932380Y-92991810D01*
X199075238Y-93039429D01*
X199170476Y-93039429D01*
X198313333Y-93039429D02*
X198313333Y-92039429D01*
X197932380Y-92039429D01*
X197837142Y-92087049D01*
X197789523Y-92134668D01*
X197741904Y-92229906D01*
X197741904Y-92372763D01*
X197789523Y-92468001D01*
X197837142Y-92515620D01*
X197932380Y-92563239D01*
X198313333Y-92563239D01*
X196789523Y-93039429D02*
X197360952Y-93039429D01*
X197075238Y-93039429D02*
X197075238Y-92039429D01*
X197170476Y-92182287D01*
X197265714Y-92277525D01*
X197360952Y-92325144D01*
X196408571Y-92134668D02*
X196360952Y-92087049D01*
X196265714Y-92039429D01*
X196027619Y-92039429D01*
X195932380Y-92087049D01*
X195884761Y-92134668D01*
X195837142Y-92229906D01*
X195837142Y-92325144D01*
X195884761Y-92468001D01*
X196456190Y-93039429D01*
X195837142Y-93039429D01*
%TO.C,JP6*%
X187812380Y-80663715D02*
X188526666Y-80663715D01*
X188669523Y-80616096D01*
X188764761Y-80520858D01*
X188812380Y-80378001D01*
X188812380Y-80282763D01*
X188812380Y-81139906D02*
X187812380Y-81139906D01*
X187812380Y-81520858D01*
X187860000Y-81616096D01*
X187907619Y-81663715D01*
X188002857Y-81711334D01*
X188145714Y-81711334D01*
X188240952Y-81663715D01*
X188288571Y-81616096D01*
X188336190Y-81520858D01*
X188336190Y-81139906D01*
X187812380Y-82568477D02*
X187812380Y-82378001D01*
X187860000Y-82282763D01*
X187907619Y-82235144D01*
X188050476Y-82139906D01*
X188240952Y-82092287D01*
X188621904Y-82092287D01*
X188717142Y-82139906D01*
X188764761Y-82187525D01*
X188812380Y-82282763D01*
X188812380Y-82473239D01*
X188764761Y-82568477D01*
X188717142Y-82616096D01*
X188621904Y-82663715D01*
X188383809Y-82663715D01*
X188288571Y-82616096D01*
X188240952Y-82568477D01*
X188193333Y-82473239D01*
X188193333Y-82282763D01*
X188240952Y-82187525D01*
X188288571Y-82139906D01*
X188383809Y-82092287D01*
%TO.C,JP13*%
X140309523Y-120149429D02*
X140309523Y-120863715D01*
X140357142Y-121006572D01*
X140452380Y-121101810D01*
X140595238Y-121149429D01*
X140690476Y-121149429D01*
X139833333Y-121149429D02*
X139833333Y-120149429D01*
X139452380Y-120149429D01*
X139357142Y-120197049D01*
X139309523Y-120244668D01*
X139261904Y-120339906D01*
X139261904Y-120482763D01*
X139309523Y-120578001D01*
X139357142Y-120625620D01*
X139452380Y-120673239D01*
X139833333Y-120673239D01*
X138309523Y-121149429D02*
X138880952Y-121149429D01*
X138595238Y-121149429D02*
X138595238Y-120149429D01*
X138690476Y-120292287D01*
X138785714Y-120387525D01*
X138880952Y-120435144D01*
X137976190Y-120149429D02*
X137357142Y-120149429D01*
X137690476Y-120530382D01*
X137547619Y-120530382D01*
X137452380Y-120578001D01*
X137404761Y-120625620D01*
X137357142Y-120720858D01*
X137357142Y-120958953D01*
X137404761Y-121054191D01*
X137452380Y-121101810D01*
X137547619Y-121149429D01*
X137833333Y-121149429D01*
X137928571Y-121101810D01*
X137976190Y-121054191D01*
%TO.C,JP2*%
X185243333Y-77059429D02*
X185243333Y-77773715D01*
X185290952Y-77916572D01*
X185386190Y-78011810D01*
X185529047Y-78059429D01*
X185624285Y-78059429D01*
X184767142Y-78059429D02*
X184767142Y-77059429D01*
X184386190Y-77059429D01*
X184290952Y-77107049D01*
X184243333Y-77154668D01*
X184195714Y-77249906D01*
X184195714Y-77392763D01*
X184243333Y-77488001D01*
X184290952Y-77535620D01*
X184386190Y-77583239D01*
X184767142Y-77583239D01*
X183814761Y-77154668D02*
X183767142Y-77107049D01*
X183671904Y-77059429D01*
X183433809Y-77059429D01*
X183338571Y-77107049D01*
X183290952Y-77154668D01*
X183243333Y-77249906D01*
X183243333Y-77345144D01*
X183290952Y-77488001D01*
X183862380Y-78059429D01*
X183243333Y-78059429D01*
%TO.C,JP8*%
X179842380Y-83953715D02*
X180556666Y-83953715D01*
X180699523Y-83906096D01*
X180794761Y-83810858D01*
X180842380Y-83668001D01*
X180842380Y-83572763D01*
X180842380Y-84429906D02*
X179842380Y-84429906D01*
X179842380Y-84810858D01*
X179890000Y-84906096D01*
X179937619Y-84953715D01*
X180032857Y-85001334D01*
X180175714Y-85001334D01*
X180270952Y-84953715D01*
X180318571Y-84906096D01*
X180366190Y-84810858D01*
X180366190Y-84429906D01*
X180270952Y-85572763D02*
X180223333Y-85477525D01*
X180175714Y-85429906D01*
X180080476Y-85382287D01*
X180032857Y-85382287D01*
X179937619Y-85429906D01*
X179890000Y-85477525D01*
X179842380Y-85572763D01*
X179842380Y-85763239D01*
X179890000Y-85858477D01*
X179937619Y-85906096D01*
X180032857Y-85953715D01*
X180080476Y-85953715D01*
X180175714Y-85906096D01*
X180223333Y-85858477D01*
X180270952Y-85763239D01*
X180270952Y-85572763D01*
X180318571Y-85477525D01*
X180366190Y-85429906D01*
X180461428Y-85382287D01*
X180651904Y-85382287D01*
X180747142Y-85429906D01*
X180794761Y-85477525D01*
X180842380Y-85572763D01*
X180842380Y-85763239D01*
X180794761Y-85858477D01*
X180747142Y-85906096D01*
X180651904Y-85953715D01*
X180461428Y-85953715D01*
X180366190Y-85906096D01*
X180318571Y-85858477D01*
X180270952Y-85763239D01*
%TO.C,JP15*%
X118119523Y-122459429D02*
X118119523Y-123173715D01*
X118167142Y-123316572D01*
X118262380Y-123411810D01*
X118405238Y-123459429D01*
X118500476Y-123459429D01*
X117643333Y-123459429D02*
X117643333Y-122459429D01*
X117262380Y-122459429D01*
X117167142Y-122507049D01*
X117119523Y-122554668D01*
X117071904Y-122649906D01*
X117071904Y-122792763D01*
X117119523Y-122888001D01*
X117167142Y-122935620D01*
X117262380Y-122983239D01*
X117643333Y-122983239D01*
X116119523Y-123459429D02*
X116690952Y-123459429D01*
X116405238Y-123459429D02*
X116405238Y-122459429D01*
X116500476Y-122602287D01*
X116595714Y-122697525D01*
X116690952Y-122745144D01*
X115214761Y-122459429D02*
X115690952Y-122459429D01*
X115738571Y-122935620D01*
X115690952Y-122888001D01*
X115595714Y-122840382D01*
X115357619Y-122840382D01*
X115262380Y-122888001D01*
X115214761Y-122935620D01*
X115167142Y-123030858D01*
X115167142Y-123268953D01*
X115214761Y-123364191D01*
X115262380Y-123411810D01*
X115357619Y-123459429D01*
X115595714Y-123459429D01*
X115690952Y-123411810D01*
X115738571Y-123364191D01*
%TO.C,JP4*%
X179842380Y-80853715D02*
X180556666Y-80853715D01*
X180699523Y-80806096D01*
X180794761Y-80710858D01*
X180842380Y-80568001D01*
X180842380Y-80472763D01*
X180842380Y-81329906D02*
X179842380Y-81329906D01*
X179842380Y-81710858D01*
X179890000Y-81806096D01*
X179937619Y-81853715D01*
X180032857Y-81901334D01*
X180175714Y-81901334D01*
X180270952Y-81853715D01*
X180318571Y-81806096D01*
X180366190Y-81710858D01*
X180366190Y-81329906D01*
X180175714Y-82758477D02*
X180842380Y-82758477D01*
X179794761Y-82520382D02*
X180509047Y-82282287D01*
X180509047Y-82901334D01*
D11*
%TO.C,D1*%
X184220000Y-86342049D02*
X184220000Y-87812049D01*
D12*
%TO.C,D130*%
X139870000Y-112340000D02*
X140470000Y-112340000D01*
X140470000Y-112340000D02*
X140470000Y-111740000D01*
X140470000Y-111740000D02*
X139870000Y-112340000D01*
G36*
X140470000Y-112340000D02*
G01*
X139870000Y-112340000D01*
X140470000Y-111740000D01*
X140470000Y-112340000D01*
G37*
X140470000Y-112340000D02*
X139870000Y-112340000D01*
X140470000Y-111740000D01*
X140470000Y-112340000D01*
%TO.C,D128*%
X91470000Y-65880000D02*
X90870000Y-65880000D01*
X90870000Y-65880000D02*
X90870000Y-66480000D01*
X90870000Y-66480000D02*
X91470000Y-65880000D01*
G36*
X90870000Y-66480000D02*
G01*
X90870000Y-65880000D01*
X91470000Y-65880000D01*
X90870000Y-66480000D01*
G37*
X90870000Y-66480000D02*
X90870000Y-65880000D01*
X91470000Y-65880000D01*
X90870000Y-66480000D01*
D10*
%TO.C,SW8*%
X136670000Y-77907049D02*
X135670000Y-77907049D01*
X149670000Y-77907049D02*
X148670000Y-77907049D01*
X135670000Y-64907049D02*
X135670000Y-63907049D01*
X148670000Y-63907049D02*
X149670000Y-63907049D01*
X149670000Y-76907049D02*
X149670000Y-77907049D01*
X135670000Y-77907049D02*
X135670000Y-76907049D01*
X135670000Y-63907049D02*
X136670000Y-63907049D01*
X149670000Y-63907049D02*
X149670000Y-64907049D01*
%TO.C,SW31*%
X83670000Y-142907049D02*
X82670000Y-142907049D01*
X95670000Y-128907049D02*
X96670000Y-128907049D01*
X82670000Y-129907049D02*
X82670000Y-128907049D01*
X82670000Y-142907049D02*
X82670000Y-141907049D01*
X82670000Y-128907049D02*
X83670000Y-128907049D01*
X96670000Y-141907049D02*
X96670000Y-142907049D01*
X96670000Y-142907049D02*
X95670000Y-142907049D01*
X96670000Y-128907049D02*
X96670000Y-129907049D01*
D11*
%TO.C,C6*%
X124408748Y-56642049D02*
X124931252Y-56642049D01*
X124408748Y-55172049D02*
X124931252Y-55172049D01*
D10*
%TO.C,SW17*%
X112670000Y-44907049D02*
X113670000Y-44907049D01*
X99670000Y-58907049D02*
X99670000Y-57907049D01*
X113670000Y-57907049D02*
X113670000Y-58907049D01*
X99670000Y-45907049D02*
X99670000Y-44907049D01*
X99670000Y-44907049D02*
X100670000Y-44907049D01*
X113670000Y-44907049D02*
X113670000Y-45907049D01*
X113670000Y-58907049D02*
X112670000Y-58907049D01*
X100670000Y-58907049D02*
X99670000Y-58907049D01*
D11*
%TO.C,D49*%
X97925000Y-74887049D02*
X99395000Y-74887049D01*
%TO.C,D8*%
X131560000Y-118692049D02*
X131560000Y-117222049D01*
%TO.C,D29*%
X133935000Y-66187049D02*
X135405000Y-66187049D01*
D12*
%TO.C,D105*%
X128470000Y-139880000D02*
X127870000Y-139880000D01*
X127870000Y-139880000D02*
X127870000Y-140480000D01*
X127870000Y-140480000D02*
X128470000Y-139880000D01*
G36*
X127870000Y-140480000D02*
G01*
X127870000Y-139880000D01*
X128470000Y-139880000D01*
X127870000Y-140480000D01*
G37*
X127870000Y-140480000D02*
X127870000Y-139880000D01*
X128470000Y-139880000D01*
X127870000Y-140480000D01*
D11*
%TO.C,D39*%
X151735000Y-70187049D02*
X153205000Y-70187049D01*
D12*
%TO.C,D103*%
X103870000Y-74350000D02*
X104470000Y-74350000D01*
X104470000Y-74350000D02*
X104470000Y-73750000D01*
X104470000Y-73750000D02*
X103870000Y-74350000D01*
G36*
X104470000Y-74350000D02*
G01*
X103870000Y-74350000D01*
X104470000Y-73750000D01*
X104470000Y-74350000D01*
G37*
X104470000Y-74350000D02*
X103870000Y-74350000D01*
X104470000Y-73750000D01*
X104470000Y-74350000D01*
%TO.C,D113*%
X163470000Y-59880000D02*
X162870000Y-59880000D01*
X162870000Y-59880000D02*
X162870000Y-60480000D01*
X162870000Y-60480000D02*
X163470000Y-59880000D01*
G36*
X162870000Y-60480000D02*
G01*
X162870000Y-59880000D01*
X163470000Y-59880000D01*
X162870000Y-60480000D01*
G37*
X162870000Y-60480000D02*
X162870000Y-59880000D01*
X163470000Y-59880000D01*
X162870000Y-60480000D01*
D11*
%TO.C,D63*%
X78925000Y-135227049D02*
X80395000Y-135227049D01*
%TO.C,D2*%
X184160000Y-89182049D02*
X184160000Y-90652049D01*
%TO.C,D67*%
X95925000Y-55708299D02*
X97395000Y-55708299D01*
%TO.C,C20*%
X106931252Y-117642049D02*
X106408748Y-117642049D01*
X106931252Y-116172049D02*
X106408748Y-116172049D01*
D10*
%TO.C,SW9*%
X135670000Y-101907049D02*
X136670000Y-101907049D01*
X148670000Y-101907049D02*
X149670000Y-101907049D01*
X135670000Y-115907049D02*
X135670000Y-114907049D01*
X149670000Y-115907049D02*
X148670000Y-115907049D01*
X149670000Y-101907049D02*
X149670000Y-102907049D01*
X149670000Y-114907049D02*
X149670000Y-115907049D01*
X135670000Y-102907049D02*
X135670000Y-101907049D01*
X136670000Y-115907049D02*
X135670000Y-115907049D01*
%TO.C,SW18*%
X99670000Y-63907049D02*
X100670000Y-63907049D01*
X99670000Y-77907049D02*
X99670000Y-76907049D01*
X113670000Y-76907049D02*
X113670000Y-77907049D01*
X113670000Y-77907049D02*
X112670000Y-77907049D01*
X113670000Y-63907049D02*
X113670000Y-64907049D01*
X99670000Y-64907049D02*
X99670000Y-63907049D01*
X100670000Y-77907049D02*
X99670000Y-77907049D01*
X112670000Y-63907049D02*
X113670000Y-63907049D01*
D11*
%TO.C,D31*%
X133935000Y-104187049D02*
X135405000Y-104187049D01*
%TO.C,D27*%
X133906250Y-47245799D02*
X135376250Y-47245799D01*
%TO.C,D73*%
X95925000Y-93708299D02*
X97395000Y-93708299D01*
%TO.C,D51*%
X97925000Y-112887049D02*
X99395000Y-112887049D01*
%TO.C,D21*%
X132935000Y-131427049D02*
X134405000Y-131427049D01*
%TO.C,C27*%
X70408748Y-107642049D02*
X70931252Y-107642049D01*
X70408748Y-106172049D02*
X70931252Y-106172049D01*
D12*
%TO.C,D111*%
X149130033Y-136801131D02*
X148532316Y-136853425D01*
X148532316Y-136853425D02*
X148584610Y-137451141D01*
X148584610Y-137451141D02*
X149130033Y-136801131D01*
G36*
X148584610Y-137451141D02*
G01*
X148532316Y-136853425D01*
X149130033Y-136801131D01*
X148584610Y-137451141D01*
G37*
X148584610Y-137451141D02*
X148532316Y-136853425D01*
X149130033Y-136801131D01*
X148584610Y-137451141D01*
D11*
%TO.C,C5*%
X125408748Y-141172049D02*
X125931252Y-141172049D01*
X125408748Y-142642049D02*
X125931252Y-142642049D01*
D12*
%TO.C,D121*%
X110470000Y-140880000D02*
X109870000Y-140880000D01*
X109870000Y-140880000D02*
X109870000Y-141480000D01*
X109870000Y-141480000D02*
X110470000Y-140880000D01*
G36*
X109870000Y-141480000D02*
G01*
X109870000Y-140880000D01*
X110470000Y-140880000D01*
X109870000Y-141480000D01*
G37*
X109870000Y-141480000D02*
X109870000Y-140880000D01*
X110470000Y-140880000D01*
X109870000Y-141480000D01*
D11*
%TO.C,D15*%
X100932500Y-122502049D02*
X100932500Y-121032049D01*
D10*
%TO.C,SW23*%
X77670000Y-86907049D02*
X76670000Y-86907049D01*
X76670000Y-72907049D02*
X77670000Y-72907049D01*
X77670000Y-72907049D02*
X77670000Y-73907049D01*
X77670000Y-85907049D02*
X77670000Y-86907049D01*
X63670000Y-73907049D02*
X63670000Y-72907049D01*
X63670000Y-86907049D02*
X63670000Y-85907049D01*
X64670000Y-86907049D02*
X63670000Y-86907049D01*
X63670000Y-72907049D02*
X64670000Y-72907049D01*
%TO.C,SW15*%
X167670000Y-117907049D02*
X166670000Y-117907049D01*
X153670000Y-103907049D02*
X154670000Y-103907049D01*
X167670000Y-103907049D02*
X167670000Y-104907049D01*
X166670000Y-103907049D02*
X167670000Y-103907049D01*
X167670000Y-116907049D02*
X167670000Y-117907049D01*
X153670000Y-117907049D02*
X153670000Y-116907049D01*
X154670000Y-117907049D02*
X153670000Y-117907049D01*
X153670000Y-104907049D02*
X153670000Y-103907049D01*
D11*
%TO.C,C32*%
X89408748Y-144642049D02*
X89931252Y-144642049D01*
X89408748Y-143172049D02*
X89931252Y-143172049D01*
%TO.C,D71*%
X95925000Y-112887049D02*
X97395000Y-112887049D01*
%TO.C,D33*%
X134435000Y-137837049D02*
X132965000Y-137837049D01*
D12*
%TO.C,D102*%
X181779063Y-139925658D02*
X182322848Y-140179229D01*
X182322848Y-140179229D02*
X182576419Y-139635444D01*
X182576419Y-139635444D02*
X181779063Y-139925658D01*
G36*
X182322848Y-140179229D02*
G01*
X181779063Y-139925658D01*
X182576419Y-139635444D01*
X182322848Y-140179229D01*
G37*
X182322848Y-140179229D02*
X181779063Y-139925658D01*
X182576419Y-139635444D01*
X182322848Y-140179229D01*
D10*
%TO.C,SW16*%
X171948117Y-140016241D02*
X170963309Y-139842592D01*
X174379192Y-126228932D02*
X174205543Y-127213740D01*
X173394384Y-126055284D02*
X174379192Y-126228932D01*
X159145616Y-137758814D02*
X158160808Y-137585166D01*
X160418235Y-124782665D02*
X160591883Y-123797857D01*
X158160808Y-137585166D02*
X158334457Y-136600358D01*
X172121765Y-139031433D02*
X171948117Y-140016241D01*
X160591883Y-123797857D02*
X161576691Y-123971506D01*
D11*
%TO.C,C1*%
X178306140Y-122252614D02*
X178804461Y-122409734D01*
X177864103Y-123654578D02*
X178362424Y-123811698D01*
D10*
%TO.C,SW7*%
X149670000Y-44907049D02*
X149670000Y-45907049D01*
X149670000Y-57907049D02*
X149670000Y-58907049D01*
X135670000Y-45907049D02*
X135670000Y-44907049D01*
X136670000Y-58907049D02*
X135670000Y-58907049D01*
X135670000Y-58907049D02*
X135670000Y-57907049D01*
X148670000Y-44907049D02*
X149670000Y-44907049D01*
X135670000Y-44907049D02*
X136670000Y-44907049D01*
X149670000Y-58907049D02*
X148670000Y-58907049D01*
D11*
%TO.C,R2*%
X179370000Y-87154549D02*
X177860000Y-87154549D01*
X177860000Y-87154549D02*
X177860000Y-87834549D01*
X177860000Y-87834549D02*
X179370000Y-87834549D01*
X179370000Y-87834549D02*
X179370000Y-87154549D01*
%TO.C,D19*%
X131925000Y-104227049D02*
X133395000Y-104227049D01*
D12*
%TO.C,D127*%
X73470000Y-104880000D02*
X72870000Y-104880000D01*
X72870000Y-104880000D02*
X72870000Y-105480000D01*
X72870000Y-105480000D02*
X73470000Y-104880000D01*
G36*
X72870000Y-105480000D02*
G01*
X72870000Y-104880000D01*
X73470000Y-104880000D01*
X72870000Y-105480000D01*
G37*
X72870000Y-105480000D02*
X72870000Y-104880000D01*
X73470000Y-104880000D01*
X72870000Y-105480000D01*
D11*
%TO.C,C30*%
X88931252Y-124172049D02*
X88408748Y-124172049D01*
X88931252Y-125642049D02*
X88408748Y-125642049D01*
%TO.C,D23*%
X131925000Y-47227049D02*
X133395000Y-47227049D01*
D12*
%TO.C,D116*%
X67870000Y-121330000D02*
X68470000Y-121330000D01*
X68470000Y-121330000D02*
X68470000Y-120730000D01*
X68470000Y-120730000D02*
X67870000Y-121330000D01*
G36*
X68470000Y-121330000D02*
G01*
X67870000Y-121330000D01*
X68470000Y-120730000D01*
X68470000Y-121330000D01*
G37*
X68470000Y-121330000D02*
X67870000Y-121330000D01*
X68470000Y-120730000D01*
X68470000Y-121330000D01*
D11*
%TO.C,C23*%
X70408748Y-68172049D02*
X70931252Y-68172049D01*
X70408748Y-69642049D02*
X70931252Y-69642049D01*
D12*
%TO.C,D115*%
X163470000Y-97880000D02*
X162870000Y-97880000D01*
X162870000Y-97880000D02*
X162870000Y-98480000D01*
X162870000Y-98480000D02*
X163470000Y-97880000D01*
G36*
X162870000Y-98480000D02*
G01*
X162870000Y-97880000D01*
X163470000Y-97880000D01*
X162870000Y-98480000D01*
G37*
X162870000Y-98480000D02*
X162870000Y-97880000D01*
X163470000Y-97880000D01*
X162870000Y-98480000D01*
D10*
%TO.C,SW2*%
X118670000Y-73907049D02*
X117670000Y-73907049D01*
X131670000Y-72907049D02*
X131670000Y-73907049D01*
X117670000Y-59907049D02*
X118670000Y-59907049D01*
X131670000Y-73907049D02*
X130670000Y-73907049D01*
X117670000Y-60907049D02*
X117670000Y-59907049D01*
X117670000Y-73907049D02*
X117670000Y-72907049D01*
X130670000Y-59907049D02*
X131670000Y-59907049D01*
X131670000Y-59907049D02*
X131670000Y-60907049D01*
D12*
%TO.C,D118*%
X109470000Y-57880000D02*
X108870000Y-57880000D01*
X108870000Y-57880000D02*
X108870000Y-58480000D01*
X108870000Y-58480000D02*
X109470000Y-57880000D01*
G36*
X108870000Y-58480000D02*
G01*
X108870000Y-57880000D01*
X109470000Y-57880000D01*
X108870000Y-58480000D01*
G37*
X108870000Y-58480000D02*
X108870000Y-57880000D01*
X109470000Y-57880000D01*
X108870000Y-58480000D01*
D10*
%TO.C,SW27*%
X81670000Y-66907049D02*
X81670000Y-65907049D01*
X81670000Y-53907049D02*
X81670000Y-52907049D01*
X95670000Y-52907049D02*
X95670000Y-53907049D01*
X95670000Y-65907049D02*
X95670000Y-66907049D01*
X82670000Y-66907049D02*
X81670000Y-66907049D01*
X95670000Y-66907049D02*
X94670000Y-66907049D01*
X94670000Y-52907049D02*
X95670000Y-52907049D01*
X81670000Y-52907049D02*
X82670000Y-52907049D01*
D11*
%TO.C,R1*%
X177870000Y-82777049D02*
X179380000Y-82777049D01*
X179380000Y-82777049D02*
X179380000Y-82097049D01*
X179380000Y-82097049D02*
X177870000Y-82097049D01*
X177870000Y-82097049D02*
X177870000Y-82777049D01*
D10*
%TO.C,SW30*%
X94670000Y-90907049D02*
X95670000Y-90907049D01*
X81670000Y-90907049D02*
X82670000Y-90907049D01*
X82670000Y-104907049D02*
X81670000Y-104907049D01*
X81670000Y-91907049D02*
X81670000Y-90907049D01*
X95670000Y-103907049D02*
X95670000Y-104907049D01*
X95670000Y-90907049D02*
X95670000Y-91907049D01*
X81670000Y-104907049D02*
X81670000Y-103907049D01*
X95670000Y-104907049D02*
X94670000Y-104907049D01*
D11*
%TO.C,C17*%
X164495900Y-140463979D02*
X165010466Y-140554711D01*
X164751162Y-139016311D02*
X165265728Y-139107043D01*
D12*
%TO.C,D101*%
X181648511Y-121843197D02*
X181076281Y-121662773D01*
X181076281Y-121662773D02*
X180895857Y-122235003D01*
X180895857Y-122235003D02*
X181648511Y-121843197D01*
G36*
X181648511Y-121843197D02*
G01*
X180895857Y-122235003D01*
X181076281Y-121662773D01*
X181648511Y-121843197D01*
G37*
X181648511Y-121843197D02*
X180895857Y-122235003D01*
X181076281Y-121662773D01*
X181648511Y-121843197D01*
D11*
%TO.C,C26*%
X71408748Y-144172049D02*
X71931252Y-144172049D01*
X71408748Y-145642049D02*
X71931252Y-145642049D01*
%TO.C,C22*%
X106408748Y-98642049D02*
X106931252Y-98642049D01*
X106408748Y-97172049D02*
X106931252Y-97172049D01*
%TO.C,C21*%
X107408748Y-143642049D02*
X107931252Y-143642049D01*
X107408748Y-142172049D02*
X107931252Y-142172049D01*
%TO.C,C18*%
X106408748Y-59172049D02*
X106931252Y-59172049D01*
X106408748Y-60642049D02*
X106931252Y-60642049D01*
D12*
%TO.C,D129*%
X139880000Y-74335000D02*
X140480000Y-74335000D01*
X140480000Y-74335000D02*
X140480000Y-73735000D01*
X140480000Y-73735000D02*
X139880000Y-74335000D01*
G36*
X140480000Y-74335000D02*
G01*
X139880000Y-74335000D01*
X140480000Y-73735000D01*
X140480000Y-74335000D01*
G37*
X140480000Y-74335000D02*
X139880000Y-74335000D01*
X140480000Y-73735000D01*
X140480000Y-74335000D01*
D10*
%TO.C,SW11*%
X135670000Y-82907049D02*
X136670000Y-82907049D01*
X148670000Y-82907049D02*
X149670000Y-82907049D01*
X135670000Y-83907049D02*
X135670000Y-82907049D01*
X149670000Y-96907049D02*
X148670000Y-96907049D01*
X136670000Y-96907049D02*
X135670000Y-96907049D01*
X149670000Y-95907049D02*
X149670000Y-96907049D01*
X135670000Y-96907049D02*
X135670000Y-95907049D01*
X149670000Y-82907049D02*
X149670000Y-83907049D01*
D11*
%TO.C,C7*%
X124408748Y-93172049D02*
X124931252Y-93172049D01*
X124408748Y-94642049D02*
X124931252Y-94642049D01*
D10*
%TO.C,SW12*%
X167670000Y-46907049D02*
X167670000Y-47907049D01*
X153670000Y-60907049D02*
X153670000Y-59907049D01*
X167670000Y-59907049D02*
X167670000Y-60907049D01*
X153670000Y-47907049D02*
X153670000Y-46907049D01*
X154670000Y-60907049D02*
X153670000Y-60907049D01*
X167670000Y-60907049D02*
X166670000Y-60907049D01*
X153670000Y-46907049D02*
X154670000Y-46907049D01*
X166670000Y-46907049D02*
X167670000Y-46907049D01*
D12*
%TO.C,D124*%
X157870000Y-76340000D02*
X158470000Y-76340000D01*
X158470000Y-76340000D02*
X158470000Y-75740000D01*
X158470000Y-75740000D02*
X157870000Y-76340000D01*
G36*
X158470000Y-76340000D02*
G01*
X157870000Y-76340000D01*
X158470000Y-75740000D01*
X158470000Y-76340000D01*
G37*
X158470000Y-76340000D02*
X157870000Y-76340000D01*
X158470000Y-75740000D01*
X158470000Y-76340000D01*
D10*
%TO.C,SW24*%
X77670000Y-123907049D02*
X77670000Y-124907049D01*
X63670000Y-124907049D02*
X63670000Y-123907049D01*
X77670000Y-124907049D02*
X76670000Y-124907049D01*
X77670000Y-110907049D02*
X77670000Y-111907049D01*
X63670000Y-110907049D02*
X64670000Y-110907049D01*
X64670000Y-124907049D02*
X63670000Y-124907049D01*
X76670000Y-110907049D02*
X77670000Y-110907049D01*
X63670000Y-111907049D02*
X63670000Y-110907049D01*
D12*
%TO.C,D125*%
X157870000Y-114340000D02*
X158470000Y-114340000D01*
X158470000Y-114340000D02*
X158470000Y-113740000D01*
X158470000Y-113740000D02*
X157870000Y-114340000D01*
G36*
X158470000Y-114340000D02*
G01*
X157870000Y-114340000D01*
X158470000Y-113740000D01*
X158470000Y-114340000D01*
G37*
X158470000Y-114340000D02*
X157870000Y-114340000D01*
X158470000Y-113740000D01*
X158470000Y-114340000D01*
D11*
%TO.C,C3*%
X124931252Y-75642049D02*
X124408748Y-75642049D01*
X124931252Y-74172049D02*
X124408748Y-74172049D01*
%TO.C,D59*%
X77925000Y-78227049D02*
X79395000Y-78227049D01*
%TO.C,C4*%
X124931252Y-113642049D02*
X124408748Y-113642049D01*
X124931252Y-112172049D02*
X124408748Y-112172049D01*
D12*
%TO.C,D109*%
X85870000Y-82340000D02*
X86470000Y-82340000D01*
X86470000Y-82340000D02*
X86470000Y-81740000D01*
X86470000Y-81740000D02*
X85870000Y-82340000D01*
G36*
X86470000Y-82340000D02*
G01*
X85870000Y-82340000D01*
X86470000Y-81740000D01*
X86470000Y-82340000D01*
G37*
X86470000Y-82340000D02*
X85870000Y-82340000D01*
X86470000Y-81740000D01*
X86470000Y-82340000D01*
D10*
%TO.C,SW6*%
X118670000Y-92907049D02*
X117670000Y-92907049D01*
X117670000Y-78907049D02*
X118670000Y-78907049D01*
X131670000Y-91907049D02*
X131670000Y-92907049D01*
X130670000Y-78907049D02*
X131670000Y-78907049D01*
X131670000Y-92907049D02*
X130670000Y-92907049D01*
X117670000Y-79907049D02*
X117670000Y-78907049D01*
X117670000Y-92907049D02*
X117670000Y-91907049D01*
X131670000Y-78907049D02*
X131670000Y-79907049D01*
D12*
%TO.C,D114*%
X67880000Y-83335000D02*
X68480000Y-83335000D01*
X68480000Y-83335000D02*
X68480000Y-82735000D01*
X68480000Y-82735000D02*
X67880000Y-83335000D01*
G36*
X68480000Y-83335000D02*
G01*
X67880000Y-83335000D01*
X68480000Y-82735000D01*
X68480000Y-83335000D01*
G37*
X68480000Y-83335000D02*
X67880000Y-83335000D01*
X68480000Y-82735000D01*
X68480000Y-83335000D01*
D11*
%TO.C,D12*%
X109820000Y-126392049D02*
X109820000Y-124922049D01*
%TO.C,D5*%
X123100000Y-123522049D02*
X123100000Y-122052049D01*
D10*
%TO.C,SW26*%
X77670000Y-104907049D02*
X77670000Y-105907049D01*
X64670000Y-105907049D02*
X63670000Y-105907049D01*
X63670000Y-92907049D02*
X63670000Y-91907049D01*
X77670000Y-105907049D02*
X76670000Y-105907049D01*
X63670000Y-91907049D02*
X64670000Y-91907049D01*
X76670000Y-91907049D02*
X77670000Y-91907049D01*
X77670000Y-91907049D02*
X77670000Y-92907049D01*
X63670000Y-105907049D02*
X63670000Y-104907049D01*
%TO.C,SW5*%
X118670000Y-54907049D02*
X117670000Y-54907049D01*
X130670000Y-40907049D02*
X131670000Y-40907049D01*
X117670000Y-40907049D02*
X118670000Y-40907049D01*
X131670000Y-53907049D02*
X131670000Y-54907049D01*
X131670000Y-40907049D02*
X131670000Y-41907049D01*
X117670000Y-41907049D02*
X117670000Y-40907049D01*
X117670000Y-54907049D02*
X117670000Y-53907049D01*
X131670000Y-54907049D02*
X130670000Y-54907049D01*
D11*
%TO.C,D7*%
X123120000Y-118782049D02*
X123120000Y-117312049D01*
%TO.C,C12*%
X142408748Y-98642049D02*
X142931252Y-98642049D01*
X142408748Y-97172049D02*
X142931252Y-97172049D01*
D10*
%TO.C,S2*%
X189578445Y-146403224D02*
X189155827Y-147309531D01*
X195072482Y-134621222D02*
X194649864Y-135527530D01*
X177373825Y-141815494D02*
X176467518Y-141392876D01*
X176467518Y-141392876D02*
X176890136Y-140486568D01*
X181961555Y-129610874D02*
X182384173Y-128704567D01*
X189155827Y-147309531D02*
X188249519Y-146886913D01*
X194166175Y-134198604D02*
X195072482Y-134621222D01*
X182384173Y-128704567D02*
X183290481Y-129127185D01*
D11*
%TO.C,D17*%
X131925000Y-66227049D02*
X133395000Y-66227049D01*
%TO.C,D75*%
X96925000Y-131708299D02*
X98395000Y-131708299D01*
%TO.C,D47*%
X97925000Y-55708299D02*
X99395000Y-55708299D01*
D12*
%TO.C,D104*%
X103870000Y-112340000D02*
X104470000Y-112340000D01*
X104470000Y-112340000D02*
X104470000Y-111740000D01*
X104470000Y-111740000D02*
X103870000Y-112340000D01*
G36*
X104470000Y-112340000D02*
G01*
X103870000Y-112340000D01*
X104470000Y-111740000D01*
X104470000Y-112340000D01*
G37*
X104470000Y-112340000D02*
X103870000Y-112340000D01*
X104470000Y-111740000D01*
X104470000Y-112340000D01*
D11*
%TO.C,D69*%
X95925000Y-74887049D02*
X97395000Y-74887049D01*
D12*
%TO.C,D131*%
X91470000Y-103890000D02*
X90870000Y-103890000D01*
X90870000Y-103890000D02*
X90870000Y-104490000D01*
X90870000Y-104490000D02*
X91470000Y-103890000D01*
G36*
X90870000Y-104490000D02*
G01*
X90870000Y-103890000D01*
X91470000Y-103890000D01*
X90870000Y-104490000D01*
G37*
X90870000Y-104490000D02*
X90870000Y-103890000D01*
X91470000Y-103890000D01*
X90870000Y-104490000D01*
D10*
%TO.C,SW29*%
X94670000Y-109907049D02*
X95670000Y-109907049D01*
X81670000Y-109907049D02*
X82670000Y-109907049D01*
X95670000Y-122907049D02*
X95670000Y-123907049D01*
X81670000Y-110907049D02*
X81670000Y-109907049D01*
X95670000Y-109907049D02*
X95670000Y-110907049D01*
X81670000Y-123907049D02*
X81670000Y-122907049D01*
X82670000Y-123907049D02*
X81670000Y-123907049D01*
X95670000Y-123907049D02*
X94670000Y-123907049D01*
%TO.C,SW19*%
X113670000Y-101907049D02*
X113670000Y-102907049D01*
X99670000Y-115907049D02*
X99670000Y-114907049D01*
X113670000Y-114907049D02*
X113670000Y-115907049D01*
X99670000Y-102907049D02*
X99670000Y-101907049D01*
X113670000Y-115907049D02*
X112670000Y-115907049D01*
X100670000Y-115907049D02*
X99670000Y-115907049D01*
X99670000Y-101907049D02*
X100670000Y-101907049D01*
X112670000Y-101907049D02*
X113670000Y-101907049D01*
%TO.C,SW21*%
X99670000Y-96907049D02*
X99670000Y-95907049D01*
X112670000Y-82907049D02*
X113670000Y-82907049D01*
X100670000Y-96907049D02*
X99670000Y-96907049D01*
X99670000Y-83907049D02*
X99670000Y-82907049D01*
X113670000Y-82907049D02*
X113670000Y-83907049D01*
X113670000Y-95907049D02*
X113670000Y-96907049D01*
X113670000Y-96907049D02*
X112670000Y-96907049D01*
X99670000Y-82907049D02*
X100670000Y-82907049D01*
D11*
%TO.C,C19*%
X106931252Y-78172049D02*
X106408748Y-78172049D01*
X106931252Y-79642049D02*
X106408748Y-79642049D01*
D10*
%TO.C,SW28*%
X95670000Y-71907049D02*
X95670000Y-72907049D01*
X94670000Y-71907049D02*
X95670000Y-71907049D01*
X95670000Y-84907049D02*
X95670000Y-85907049D01*
X81670000Y-71907049D02*
X82670000Y-71907049D01*
X82670000Y-85907049D02*
X81670000Y-85907049D01*
X81670000Y-85907049D02*
X81670000Y-84907049D01*
X81670000Y-72907049D02*
X81670000Y-71907049D01*
X95670000Y-85907049D02*
X94670000Y-85907049D01*
D11*
%TO.C,D57*%
X77925000Y-59227049D02*
X79395000Y-59227049D01*
%TO.C,C28*%
X88408748Y-68642049D02*
X88931252Y-68642049D01*
X88408748Y-67172049D02*
X88931252Y-67172049D01*
D12*
%TO.C,D112*%
X145470000Y-95880000D02*
X144870000Y-95880000D01*
X144870000Y-95880000D02*
X144870000Y-96480000D01*
X144870000Y-96480000D02*
X145470000Y-95880000D01*
G36*
X144870000Y-96480000D02*
G01*
X144870000Y-95880000D01*
X145470000Y-95880000D01*
X144870000Y-96480000D01*
G37*
X144870000Y-96480000D02*
X144870000Y-95880000D01*
X145470000Y-95880000D01*
X144870000Y-96480000D01*
D11*
%TO.C,C25*%
X70931252Y-125172049D02*
X70408748Y-125172049D01*
X70931252Y-126642049D02*
X70408748Y-126642049D01*
D10*
%TO.C,SW25*%
X64670000Y-129907049D02*
X65670000Y-129907049D01*
X65670000Y-143907049D02*
X64670000Y-143907049D01*
X64670000Y-130907049D02*
X64670000Y-129907049D01*
X77670000Y-129907049D02*
X78670000Y-129907049D01*
X78670000Y-143907049D02*
X77670000Y-143907049D01*
X64670000Y-143907049D02*
X64670000Y-142907049D01*
X78670000Y-129907049D02*
X78670000Y-130907049D01*
X78670000Y-142907049D02*
X78670000Y-143907049D01*
D12*
%TO.C,D117*%
X167986929Y-138276921D02*
X167396044Y-138172732D01*
X167396044Y-138172732D02*
X167291855Y-138763616D01*
X167291855Y-138763616D02*
X167986929Y-138276921D01*
G36*
X167986929Y-138276921D02*
G01*
X167291855Y-138763616D01*
X167396044Y-138172732D01*
X167986929Y-138276921D01*
G37*
X167986929Y-138276921D02*
X167291855Y-138763616D01*
X167396044Y-138172732D01*
X167986929Y-138276921D01*
D11*
%TO.C,C2*%
X182272942Y-146124688D02*
X181799393Y-145903868D01*
X182894191Y-144792416D02*
X182420642Y-144571596D01*
D10*
%TO.C,SW10*%
X153404096Y-137449477D02*
X152407901Y-137536632D01*
X138324346Y-125719126D02*
X138237190Y-124722931D01*
X152183916Y-123502751D02*
X152271071Y-124498946D01*
X153316940Y-136453282D02*
X153404096Y-137449477D01*
X151187721Y-123589907D02*
X152183916Y-123502751D01*
X138237190Y-124722931D02*
X139233385Y-124635776D01*
X140453565Y-138582501D02*
X139457370Y-138669657D01*
X139457370Y-138669657D02*
X139370215Y-137673462D01*
D12*
%TO.C,D123*%
X73470000Y-66880000D02*
X72870000Y-66880000D01*
X72870000Y-66880000D02*
X72870000Y-67480000D01*
X72870000Y-67480000D02*
X73470000Y-66880000D01*
G36*
X72870000Y-67480000D02*
G01*
X72870000Y-66880000D01*
X73470000Y-66880000D01*
X72870000Y-67480000D01*
G37*
X72870000Y-67480000D02*
X72870000Y-66880000D01*
X73470000Y-66880000D01*
X72870000Y-67480000D01*
D11*
%TO.C,C16*%
X160931252Y-118172049D02*
X160408748Y-118172049D01*
X160931252Y-119642049D02*
X160408748Y-119642049D01*
%TO.C,D61*%
X77925000Y-116227049D02*
X79395000Y-116227049D01*
%TO.C,C14*%
X160931252Y-81642049D02*
X160408748Y-81642049D01*
X160931252Y-80172049D02*
X160408748Y-80172049D01*
%TO.C,C31*%
X88408748Y-105172049D02*
X88931252Y-105172049D01*
X88408748Y-106642049D02*
X88931252Y-106642049D01*
D12*
%TO.C,D110*%
X85870000Y-120340000D02*
X86470000Y-120340000D01*
X86470000Y-120340000D02*
X86470000Y-119740000D01*
X86470000Y-119740000D02*
X85870000Y-120340000D01*
G36*
X86470000Y-120340000D02*
G01*
X85870000Y-120340000D01*
X86470000Y-119740000D01*
X86470000Y-120340000D01*
G37*
X86470000Y-120340000D02*
X85870000Y-120340000D01*
X86470000Y-119740000D01*
X86470000Y-120340000D01*
D11*
%TO.C,C11*%
X146321691Y-139810735D02*
X146842206Y-139765195D01*
X146193572Y-138346329D02*
X146714087Y-138300789D01*
D12*
%TO.C,D126*%
X74470000Y-142880000D02*
X73870000Y-142880000D01*
X73870000Y-142880000D02*
X73870000Y-143480000D01*
X73870000Y-143480000D02*
X74470000Y-142880000D01*
G36*
X73870000Y-143480000D02*
G01*
X73870000Y-142880000D01*
X74470000Y-142880000D01*
X73870000Y-143480000D01*
G37*
X73870000Y-143480000D02*
X73870000Y-142880000D01*
X74470000Y-142880000D01*
X73870000Y-143480000D01*
%TO.C,D120*%
X121870000Y-108340000D02*
X122470000Y-108340000D01*
X122470000Y-108340000D02*
X122470000Y-107740000D01*
X122470000Y-107740000D02*
X121870000Y-108340000D01*
G36*
X122470000Y-108340000D02*
G01*
X121870000Y-108340000D01*
X122470000Y-107740000D01*
X122470000Y-108340000D01*
G37*
X122470000Y-108340000D02*
X121870000Y-108340000D01*
X122470000Y-107740000D01*
X122470000Y-108340000D01*
D11*
%TO.C,D53*%
X98925000Y-131727049D02*
X100395000Y-131727049D01*
D12*
%TO.C,D107*%
X127470000Y-91870000D02*
X126870000Y-91870000D01*
X126870000Y-91870000D02*
X126870000Y-92470000D01*
X126870000Y-92470000D02*
X127470000Y-91870000D01*
G36*
X126870000Y-92470000D02*
G01*
X126870000Y-91870000D01*
X127470000Y-91870000D01*
X126870000Y-92470000D01*
G37*
X126870000Y-92470000D02*
X126870000Y-91870000D01*
X127470000Y-91870000D01*
X126870000Y-92470000D01*
D11*
%TO.C,D43*%
X151735000Y-108187049D02*
X153205000Y-108187049D01*
D12*
%TO.C,D122*%
X109470000Y-95880000D02*
X108870000Y-95880000D01*
X108870000Y-95880000D02*
X108870000Y-96480000D01*
X108870000Y-96480000D02*
X109470000Y-95880000D01*
G36*
X108870000Y-96480000D02*
G01*
X108870000Y-95880000D01*
X109470000Y-95880000D01*
X108870000Y-96480000D01*
G37*
X108870000Y-96480000D02*
X108870000Y-95880000D01*
X109470000Y-95880000D01*
X108870000Y-96480000D01*
D11*
%TO.C,D65*%
X77925000Y-97227049D02*
X79395000Y-97227049D01*
%TO.C,C15*%
X160408748Y-100642049D02*
X160931252Y-100642049D01*
X160408748Y-99172049D02*
X160931252Y-99172049D01*
%TO.C,D25*%
X131925000Y-85227049D02*
X133395000Y-85227049D01*
%TO.C,C8*%
X142408748Y-59172049D02*
X142931252Y-59172049D01*
X142408748Y-60642049D02*
X142931252Y-60642049D01*
%TO.C,C13*%
X160408748Y-62642049D02*
X160931252Y-62642049D01*
X160408748Y-61172049D02*
X160931252Y-61172049D01*
D12*
%TO.C,D119*%
X121890000Y-70350000D02*
X122490000Y-70350000D01*
X122490000Y-70350000D02*
X122490000Y-69750000D01*
X122490000Y-69750000D02*
X121890000Y-70350000D01*
G36*
X122490000Y-70350000D02*
G01*
X121890000Y-70350000D01*
X122490000Y-69750000D01*
X122490000Y-70350000D01*
G37*
X122490000Y-70350000D02*
X121890000Y-70350000D01*
X122490000Y-69750000D01*
X122490000Y-70350000D01*
D11*
%TO.C,C9*%
X142931252Y-79642049D02*
X142408748Y-79642049D01*
X142931252Y-78172049D02*
X142408748Y-78172049D01*
%TO.C,C29*%
X88931252Y-87642049D02*
X88408748Y-87642049D01*
X88931252Y-86172049D02*
X88408748Y-86172049D01*
D10*
%TO.C,SW3*%
X117670000Y-111907049D02*
X117670000Y-110907049D01*
X117670000Y-98907049D02*
X117670000Y-97907049D01*
X117670000Y-97907049D02*
X118670000Y-97907049D01*
X118670000Y-111907049D02*
X117670000Y-111907049D01*
X131670000Y-110907049D02*
X131670000Y-111907049D01*
X131670000Y-111907049D02*
X130670000Y-111907049D01*
X130670000Y-97907049D02*
X131670000Y-97907049D01*
X131670000Y-97907049D02*
X131670000Y-98907049D01*
D11*
%TO.C,D45*%
X157904550Y-127729691D02*
X159352217Y-127984953D01*
%TO.C,D37*%
X151706250Y-51245799D02*
X153176250Y-51245799D01*
D10*
%TO.C,SW20*%
X114670000Y-127907049D02*
X114670000Y-128907049D01*
X114670000Y-141907049D02*
X113670000Y-141907049D01*
X101670000Y-141907049D02*
X100670000Y-141907049D01*
X100670000Y-141907049D02*
X100670000Y-140907049D01*
X114670000Y-140907049D02*
X114670000Y-141907049D01*
X113670000Y-127907049D02*
X114670000Y-127907049D01*
X100670000Y-127907049D02*
X101670000Y-127907049D01*
X100670000Y-128907049D02*
X100670000Y-127907049D01*
%TO.C,SW13*%
X167670000Y-78907049D02*
X167670000Y-79907049D01*
X153670000Y-65907049D02*
X154670000Y-65907049D01*
X167670000Y-79907049D02*
X166670000Y-79907049D01*
X154670000Y-79907049D02*
X153670000Y-79907049D01*
X167670000Y-65907049D02*
X167670000Y-66907049D01*
X153670000Y-79907049D02*
X153670000Y-78907049D01*
X153670000Y-66907049D02*
X153670000Y-65907049D01*
X166670000Y-65907049D02*
X167670000Y-65907049D01*
D12*
%TO.C,D106*%
X127470000Y-53880000D02*
X126870000Y-53880000D01*
X126870000Y-53880000D02*
X126870000Y-54480000D01*
X126870000Y-54480000D02*
X127470000Y-53880000D01*
G36*
X126870000Y-54480000D02*
G01*
X126870000Y-53880000D01*
X127470000Y-53880000D01*
X126870000Y-54480000D01*
G37*
X126870000Y-54480000D02*
X126870000Y-53880000D01*
X127470000Y-53880000D01*
X126870000Y-54480000D01*
%TO.C,D132*%
X92470000Y-141880000D02*
X91870000Y-141880000D01*
X91870000Y-141880000D02*
X91870000Y-142480000D01*
X91870000Y-142480000D02*
X92470000Y-141880000D01*
G36*
X91870000Y-142480000D02*
G01*
X91870000Y-141880000D01*
X92470000Y-141880000D01*
X91870000Y-142480000D01*
G37*
X91870000Y-142480000D02*
X91870000Y-141880000D01*
X92470000Y-141880000D01*
X91870000Y-142480000D01*
D10*
%TO.C,S1*%
X172942758Y-120178833D02*
X171989041Y-119878127D01*
X176198922Y-106526090D02*
X177152639Y-106826796D01*
X189550959Y-110735971D02*
X189250253Y-111689688D01*
X185341078Y-124088008D02*
X184387361Y-123787302D01*
X185641784Y-123134291D02*
X185341078Y-124088008D01*
X171989041Y-119878127D02*
X172289747Y-118924410D01*
X188597242Y-110435265D02*
X189550959Y-110735971D01*
X175898216Y-107479807D02*
X176198922Y-106526090D01*
D11*
%TO.C,D14*%
X109830000Y-121612049D02*
X109830000Y-120142049D01*
D10*
%TO.C,SW4*%
X118670000Y-126907049D02*
X119670000Y-126907049D01*
X118670000Y-127907049D02*
X118670000Y-126907049D01*
X132670000Y-139907049D02*
X132670000Y-140907049D01*
X132670000Y-126907049D02*
X132670000Y-127907049D01*
X118670000Y-140907049D02*
X118670000Y-139907049D01*
X131670000Y-126907049D02*
X132670000Y-126907049D01*
X119670000Y-140907049D02*
X118670000Y-140907049D01*
X132670000Y-140907049D02*
X131670000Y-140907049D01*
D12*
%TO.C,D108*%
X145480000Y-57880000D02*
X144880000Y-57880000D01*
X144880000Y-57880000D02*
X144880000Y-58480000D01*
X144880000Y-58480000D02*
X145480000Y-57880000D01*
G36*
X144880000Y-58480000D02*
G01*
X144880000Y-57880000D01*
X145480000Y-57880000D01*
X144880000Y-58480000D01*
G37*
X144880000Y-58480000D02*
X144880000Y-57880000D01*
X145480000Y-57880000D01*
X144880000Y-58480000D01*
D11*
%TO.C,D55*%
X97925000Y-93708299D02*
X99395000Y-93708299D01*
%TO.C,D35*%
X133906250Y-85245799D02*
X135376250Y-85245799D01*
%TO.C,D41*%
X151706250Y-89245799D02*
X153176250Y-89245799D01*
%TO.C,D11*%
X100910000Y-127062049D02*
X100910000Y-125592049D01*
D10*
%TO.C,SW14*%
X153670000Y-85907049D02*
X153670000Y-84907049D01*
X154670000Y-98907049D02*
X153670000Y-98907049D01*
X166670000Y-84907049D02*
X167670000Y-84907049D01*
X153670000Y-84907049D02*
X154670000Y-84907049D01*
X167670000Y-98907049D02*
X166670000Y-98907049D01*
X167670000Y-97907049D02*
X167670000Y-98907049D01*
X153670000Y-98907049D02*
X153670000Y-97907049D01*
X167670000Y-84907049D02*
X167670000Y-85907049D01*
%TO.C,SW22*%
X77670000Y-67907049D02*
X76670000Y-67907049D01*
X64670000Y-67907049D02*
X63670000Y-67907049D01*
X63670000Y-54907049D02*
X63670000Y-53907049D01*
X76670000Y-53907049D02*
X77670000Y-53907049D01*
X63670000Y-67907049D02*
X63670000Y-66907049D01*
X77670000Y-53907049D02*
X77670000Y-54907049D01*
X77670000Y-66907049D02*
X77670000Y-67907049D01*
X63670000Y-53907049D02*
X64670000Y-53907049D01*
D11*
%TO.C,C24*%
X70931252Y-88642049D02*
X70408748Y-88642049D01*
X70931252Y-87172049D02*
X70408748Y-87172049D01*
%TO.C,D4*%
X131550000Y-123622049D02*
X131550000Y-122152049D01*
%TO.C,C10*%
X142931252Y-116172049D02*
X142408748Y-116172049D01*
X142931252Y-117642049D02*
X142408748Y-117642049D01*
%TO.C,JP10*%
X187415000Y-83527049D02*
X184615000Y-83527049D01*
X184615000Y-83527049D02*
X184615000Y-85527049D01*
X184615000Y-85527049D02*
X187415000Y-85527049D01*
X187415000Y-85527049D02*
X187415000Y-83527049D01*
%TO.C,D16*%
X100920000Y-123257049D02*
X100920000Y-124727049D01*
%TO.C,D9*%
X131560000Y-119727049D02*
X131560000Y-121197049D01*
%TO.C,JP12*%
X200330000Y-93467049D02*
X194830000Y-93467049D01*
X195880000Y-92917049D02*
X196480000Y-92917049D01*
X194830000Y-93467049D02*
X194830000Y-95417049D01*
X200330000Y-95417049D02*
X200330000Y-93467049D01*
X196180000Y-93217049D02*
X195880000Y-92917049D01*
X196480000Y-92917049D02*
X196180000Y-93217049D01*
X194830000Y-95417049D02*
X200330000Y-95417049D01*
%TO.C,JP6*%
X184600000Y-82977049D02*
X187400000Y-82977049D01*
X187400000Y-82977049D02*
X187400000Y-80977049D01*
X184600000Y-80977049D02*
X184600000Y-82977049D01*
X187400000Y-80977049D02*
X184600000Y-80977049D01*
%TO.C,IC2*%
X143010000Y-33607049D02*
X143010000Y-34537049D01*
X142990000Y-34537049D02*
X143910000Y-33617049D01*
X143880000Y-33607049D02*
X143010000Y-33607049D01*
%TO.C,JP13*%
X140325000Y-123617049D02*
X140325000Y-121617049D01*
X137525000Y-123617049D02*
X140325000Y-123617049D01*
X140325000Y-121617049D02*
X137525000Y-121617049D01*
X137525000Y-121617049D02*
X137525000Y-123617049D01*
%TO.C,JP2*%
X185810000Y-78407049D02*
X183010000Y-78407049D01*
X183010000Y-80407049D02*
X185810000Y-80407049D01*
X185810000Y-80407049D02*
X185810000Y-78407049D01*
X183010000Y-78407049D02*
X183010000Y-80407049D01*
%TO.C,JP8*%
X184075000Y-83527049D02*
X181275000Y-83527049D01*
X181275000Y-85527049D02*
X184075000Y-85527049D01*
X184075000Y-85527049D02*
X184075000Y-83527049D01*
X181275000Y-83527049D02*
X181275000Y-85527049D01*
%TO.C,JP15*%
X115300000Y-123917049D02*
X115300000Y-125917049D01*
X118100000Y-123917049D02*
X115300000Y-123917049D01*
X118100000Y-125917049D02*
X118100000Y-123917049D01*
X115300000Y-125917049D02*
X118100000Y-125917049D01*
D13*
%TO.C,IC5*%
X117170000Y-108057049D02*
X117170000Y-105757049D01*
X114170000Y-105757049D02*
X114170000Y-108057049D01*
X114170000Y-108057049D02*
X117170000Y-108057049D01*
X117170000Y-105757049D02*
X114170000Y-105757049D01*
X114120000Y-104007049D02*
X114120000Y-105407049D01*
D10*
%TO.C,U5*%
X200582500Y-96767049D02*
X202582500Y-96767049D01*
X200582500Y-96517049D02*
X188482500Y-96517049D01*
X200582500Y-102367049D02*
X202582500Y-102367049D01*
X200582500Y-96517049D02*
X200582500Y-102617049D01*
X188482500Y-96517049D02*
X188482500Y-102617049D01*
X200582500Y-102617049D02*
X188482500Y-102617049D01*
X202582500Y-96767049D02*
X202582500Y-102367049D01*
D13*
%TO.C,IC7*%
X117170000Y-48757049D02*
X114170000Y-48757049D01*
X117170000Y-51057049D02*
X117170000Y-48757049D01*
X114120000Y-47007049D02*
X114120000Y-48407049D01*
X114170000Y-51057049D02*
X117170000Y-51057049D01*
X114170000Y-48757049D02*
X114170000Y-51057049D01*
%TO.C,IC4*%
X114120000Y-85007049D02*
X114120000Y-86407049D01*
X117170000Y-89057049D02*
X117170000Y-86757049D01*
X114170000Y-89057049D02*
X117170000Y-89057049D01*
X117170000Y-86757049D02*
X114170000Y-86757049D01*
X114170000Y-86757049D02*
X114170000Y-89057049D01*
%TO.C,IC3*%
X114170000Y-67757049D02*
X114170000Y-70057049D01*
X117170000Y-67757049D02*
X114170000Y-67757049D01*
X114120000Y-66007049D02*
X114120000Y-67407049D01*
X117170000Y-70057049D02*
X117170000Y-67757049D01*
X114170000Y-70057049D02*
X117170000Y-70057049D01*
%TO.C,IC6*%
X115120000Y-130007049D02*
X115120000Y-131407049D01*
X115170000Y-131757049D02*
X115170000Y-134057049D01*
X115170000Y-134057049D02*
X118170000Y-134057049D01*
X118170000Y-131757049D02*
X115170000Y-131757049D01*
X118170000Y-134057049D02*
X118170000Y-131757049D01*
D11*
%TO.C,JP4*%
X184055000Y-82987049D02*
X184055000Y-80987049D01*
X181255000Y-82987049D02*
X184055000Y-82987049D01*
X181255000Y-80987049D02*
X181255000Y-82987049D01*
X184055000Y-80987049D02*
X181255000Y-80987049D01*
%TD*%
M02*
