%TF.GenerationSoftware,KiCad,Pcbnew,(6.0.0)*%
%TF.CreationDate,2022-02-08T17:16:42+09:00*%
%TF.ProjectId,brimstone2,6272696d-7374-46f6-9e65-322e6b696361,rev?*%
%TF.SameCoordinates,Original*%
%TF.FileFunction,Legend,Top*%
%TF.FilePolarity,Positive*%
%FSLAX46Y46*%
G04 Gerber Fmt 4.6, Leading zero omitted, Abs format (unit mm)*
G04 Created by KiCad (PCBNEW (6.0.0)) date 2022-02-08 17:16:42*
%MOMM*%
%LPD*%
G01*
G04 APERTURE LIST*
%ADD10C,0.150000*%
%ADD11C,0.200000*%
%ADD12C,0.300000*%
%ADD13C,0.120000*%
%ADD14C,0.100000*%
G04 APERTURE END LIST*
D10*
X84500000Y-128685000D02*
X102670000Y-128685000D01*
X102670000Y-128685000D02*
X102670000Y-133505000D01*
X102670000Y-133505000D02*
X84500000Y-133505000D01*
X84500000Y-133505000D02*
X84500000Y-128685000D01*
X153514998Y-65670002D02*
X157584998Y-65670002D01*
X157584998Y-65670002D02*
X157584998Y-59050002D01*
X157584998Y-59050002D02*
X153514998Y-59050002D01*
X153514998Y-59050002D02*
X153514998Y-65670002D01*
X153294998Y-62710002D02*
X157324998Y-62710002D01*
X157324998Y-62710002D02*
X157324998Y-69290002D01*
X157324998Y-69290002D02*
X153294998Y-69290002D01*
X153294998Y-69290002D02*
X153294998Y-62710002D01*
X87880000Y-122105000D02*
X105970000Y-122105000D01*
X105970000Y-122105000D02*
X105970000Y-126785000D01*
X105970000Y-126785000D02*
X87880000Y-126785000D01*
X87880000Y-126785000D02*
X87880000Y-122105000D01*
X123087142Y-131087380D02*
X122515714Y-131087380D01*
X122801428Y-131087380D02*
X122801428Y-130087380D01*
X122706190Y-130230238D01*
X122610952Y-130325476D01*
X122515714Y-130373095D01*
X124230000Y-130039761D02*
X123372857Y-131325476D01*
X125039523Y-130087380D02*
X124563333Y-130087380D01*
X124515714Y-130563571D01*
X124563333Y-130515952D01*
X124658571Y-130468333D01*
X124896666Y-130468333D01*
X124991904Y-130515952D01*
X125039523Y-130563571D01*
X125087142Y-130658809D01*
X125087142Y-130896904D01*
X125039523Y-130992142D01*
X124991904Y-131039761D01*
X124896666Y-131087380D01*
X124658571Y-131087380D01*
X124563333Y-131039761D01*
X124515714Y-130992142D01*
X125420476Y-130087380D02*
X125658571Y-131087380D01*
X125849047Y-130373095D01*
X126039523Y-131087380D01*
X126277619Y-130087380D01*
X126610952Y-130801666D02*
X127087142Y-130801666D01*
X126515714Y-131087380D02*
X126849047Y-130087380D01*
X127182380Y-131087380D01*
X127706190Y-130611190D02*
X127706190Y-131087380D01*
X127372857Y-130087380D02*
X127706190Y-130611190D01*
X128039523Y-130087380D01*
X124468095Y-132649761D02*
X124610952Y-132697380D01*
X124849047Y-132697380D01*
X124944285Y-132649761D01*
X124991904Y-132602142D01*
X125039523Y-132506904D01*
X125039523Y-132411666D01*
X124991904Y-132316428D01*
X124944285Y-132268809D01*
X124849047Y-132221190D01*
X124658571Y-132173571D01*
X124563333Y-132125952D01*
X124515714Y-132078333D01*
X124468095Y-131983095D01*
X124468095Y-131887857D01*
X124515714Y-131792619D01*
X124563333Y-131745000D01*
X124658571Y-131697380D01*
X124896666Y-131697380D01*
X125039523Y-131745000D01*
X125420476Y-131792619D02*
X125468095Y-131745000D01*
X125563333Y-131697380D01*
X125801428Y-131697380D01*
X125896666Y-131745000D01*
X125944285Y-131792619D01*
X125991904Y-131887857D01*
X125991904Y-131983095D01*
X125944285Y-132125952D01*
X125372857Y-132697380D01*
X125991904Y-132697380D01*
X124468095Y-134259761D02*
X124610952Y-134307380D01*
X124849047Y-134307380D01*
X124944285Y-134259761D01*
X124991904Y-134212142D01*
X125039523Y-134116904D01*
X125039523Y-134021666D01*
X124991904Y-133926428D01*
X124944285Y-133878809D01*
X124849047Y-133831190D01*
X124658571Y-133783571D01*
X124563333Y-133735952D01*
X124515714Y-133688333D01*
X124468095Y-133593095D01*
X124468095Y-133497857D01*
X124515714Y-133402619D01*
X124563333Y-133355000D01*
X124658571Y-133307380D01*
X124896666Y-133307380D01*
X125039523Y-133355000D01*
X125991904Y-134307380D02*
X125420476Y-134307380D01*
X125706190Y-134307380D02*
X125706190Y-133307380D01*
X125610952Y-133450238D01*
X125515714Y-133545476D01*
X125420476Y-133593095D01*
D11*
X142434761Y-95769761D02*
X142482380Y-95626904D01*
X142482380Y-95388809D01*
X142434761Y-95293571D01*
X142387142Y-95245952D01*
X142291904Y-95198333D01*
X142196666Y-95198333D01*
X142101428Y-95245952D01*
X142053809Y-95293571D01*
X142006190Y-95388809D01*
X141958571Y-95579285D01*
X141910952Y-95674523D01*
X141863333Y-95722142D01*
X141768095Y-95769761D01*
X141672857Y-95769761D01*
X141577619Y-95722142D01*
X141530000Y-95674523D01*
X141482380Y-95579285D01*
X141482380Y-95341190D01*
X141530000Y-95198333D01*
X141482380Y-94865000D02*
X142482380Y-94626904D01*
X141768095Y-94436428D01*
X142482380Y-94245952D01*
X141482380Y-94007857D01*
X141482380Y-93722142D02*
X141482380Y-93103095D01*
X141863333Y-93436428D01*
X141863333Y-93293571D01*
X141910952Y-93198333D01*
X141958571Y-93150714D01*
X142053809Y-93103095D01*
X142291904Y-93103095D01*
X142387142Y-93150714D01*
X142434761Y-93198333D01*
X142482380Y-93293571D01*
X142482380Y-93579285D01*
X142434761Y-93674523D01*
X142387142Y-93722142D01*
X142482380Y-92150714D02*
X142482380Y-92722142D01*
X142482380Y-92436428D02*
X141482380Y-92436428D01*
X141625238Y-92531666D01*
X141720476Y-92626904D01*
X141768095Y-92722142D01*
X142101428Y-91722142D02*
X142101428Y-90960238D01*
X142434761Y-90531666D02*
X142482380Y-90388809D01*
X142482380Y-90150714D01*
X142434761Y-90055476D01*
X142387142Y-90007857D01*
X142291904Y-89960238D01*
X142196666Y-89960238D01*
X142101428Y-90007857D01*
X142053809Y-90055476D01*
X142006190Y-90150714D01*
X141958571Y-90341190D01*
X141910952Y-90436428D01*
X141863333Y-90484047D01*
X141768095Y-90531666D01*
X141672857Y-90531666D01*
X141577619Y-90484047D01*
X141530000Y-90436428D01*
X141482380Y-90341190D01*
X141482380Y-90103095D01*
X141530000Y-89960238D01*
X142482380Y-89531666D02*
X141482380Y-89531666D01*
X141482380Y-89150714D01*
X141530000Y-89055476D01*
X141577619Y-89007857D01*
X141672857Y-88960238D01*
X141815714Y-88960238D01*
X141910952Y-89007857D01*
X141958571Y-89055476D01*
X142006190Y-89150714D01*
X142006190Y-89531666D01*
D10*
X85829761Y-125336904D02*
X85877380Y-125194047D01*
X85877380Y-124955952D01*
X85829761Y-124860714D01*
X85782142Y-124813095D01*
X85686904Y-124765476D01*
X85591666Y-124765476D01*
X85496428Y-124813095D01*
X85448809Y-124860714D01*
X85401190Y-124955952D01*
X85353571Y-125146428D01*
X85305952Y-125241666D01*
X85258333Y-125289285D01*
X85163095Y-125336904D01*
X85067857Y-125336904D01*
X84972619Y-125289285D01*
X84925000Y-125241666D01*
X84877380Y-125146428D01*
X84877380Y-124908333D01*
X84925000Y-124765476D01*
X84972619Y-124384523D02*
X84925000Y-124336904D01*
X84877380Y-124241666D01*
X84877380Y-124003571D01*
X84925000Y-123908333D01*
X84972619Y-123860714D01*
X85067857Y-123813095D01*
X85163095Y-123813095D01*
X85305952Y-123860714D01*
X85877380Y-124432142D01*
X85877380Y-123813095D01*
X86487380Y-125765476D02*
X86487380Y-126241666D01*
X86963571Y-126289285D01*
X86915952Y-126241666D01*
X86868333Y-126146428D01*
X86868333Y-125908333D01*
X86915952Y-125813095D01*
X86963571Y-125765476D01*
X87058809Y-125717857D01*
X87296904Y-125717857D01*
X87392142Y-125765476D01*
X87439761Y-125813095D01*
X87487380Y-125908333D01*
X87487380Y-126146428D01*
X87439761Y-126241666D01*
X87392142Y-126289285D01*
X86487380Y-125384523D02*
X87487380Y-125146428D01*
X86773095Y-124955952D01*
X87487380Y-124765476D01*
X86487380Y-124527380D01*
X87201666Y-124194047D02*
X87201666Y-123717857D01*
X87487380Y-124289285D02*
X86487380Y-123955952D01*
X87487380Y-123622619D01*
X87011190Y-123098809D02*
X87487380Y-123098809D01*
X86487380Y-123432142D02*
X87011190Y-123098809D01*
X86487380Y-122765476D01*
D11*
X142534761Y-103323571D02*
X142582380Y-103180714D01*
X142582380Y-102942619D01*
X142534761Y-102847380D01*
X142487142Y-102799761D01*
X142391904Y-102752142D01*
X142296666Y-102752142D01*
X142201428Y-102799761D01*
X142153809Y-102847380D01*
X142106190Y-102942619D01*
X142058571Y-103133095D01*
X142010952Y-103228333D01*
X141963333Y-103275952D01*
X141868095Y-103323571D01*
X141772857Y-103323571D01*
X141677619Y-103275952D01*
X141630000Y-103228333D01*
X141582380Y-103133095D01*
X141582380Y-102895000D01*
X141630000Y-102752142D01*
X141582380Y-102418809D02*
X142582380Y-102180714D01*
X141868095Y-101990238D01*
X142582380Y-101799761D01*
X141582380Y-101561666D01*
X141582380Y-101275952D02*
X141582380Y-100656904D01*
X141963333Y-100990238D01*
X141963333Y-100847380D01*
X142010952Y-100752142D01*
X142058571Y-100704523D01*
X142153809Y-100656904D01*
X142391904Y-100656904D01*
X142487142Y-100704523D01*
X142534761Y-100752142D01*
X142582380Y-100847380D01*
X142582380Y-101133095D01*
X142534761Y-101228333D01*
X142487142Y-101275952D01*
X142582380Y-99704523D02*
X142582380Y-100275952D01*
X142582380Y-99990238D02*
X141582380Y-99990238D01*
X141725238Y-100085476D01*
X141820476Y-100180714D01*
X141868095Y-100275952D01*
X142201428Y-99275952D02*
X142201428Y-98514047D01*
X142582380Y-98037857D02*
X141582380Y-98037857D01*
X141582380Y-97799761D01*
X141630000Y-97656904D01*
X141725238Y-97561666D01*
X141820476Y-97514047D01*
X142010952Y-97466428D01*
X142153809Y-97466428D01*
X142344285Y-97514047D01*
X142439523Y-97561666D01*
X142534761Y-97656904D01*
X142582380Y-97799761D01*
X142582380Y-98037857D01*
X142582380Y-97037857D02*
X141582380Y-97037857D01*
X141582380Y-96656904D01*
X141630000Y-96561666D01*
X141677619Y-96514047D01*
X141772857Y-96466428D01*
X141915714Y-96466428D01*
X142010952Y-96514047D01*
X142058571Y-96561666D01*
X142106190Y-96656904D01*
X142106190Y-97037857D01*
D10*
X111519523Y-128707380D02*
X111043333Y-128707380D01*
X110995714Y-129183571D01*
X111043333Y-129135952D01*
X111138571Y-129088333D01*
X111376666Y-129088333D01*
X111471904Y-129135952D01*
X111519523Y-129183571D01*
X111567142Y-129278809D01*
X111567142Y-129516904D01*
X111519523Y-129612142D01*
X111471904Y-129659761D01*
X111376666Y-129707380D01*
X111138571Y-129707380D01*
X111043333Y-129659761D01*
X110995714Y-129612142D01*
X111900476Y-128707380D02*
X112138571Y-129707380D01*
X112329047Y-128993095D01*
X112519523Y-129707380D01*
X112757619Y-128707380D01*
X113090952Y-129421666D02*
X113567142Y-129421666D01*
X112995714Y-129707380D02*
X113329047Y-128707380D01*
X113662380Y-129707380D01*
X114186190Y-129231190D02*
X114186190Y-129707380D01*
X113852857Y-128707380D02*
X114186190Y-129231190D01*
X114519523Y-128707380D01*
X111948095Y-131269761D02*
X112090952Y-131317380D01*
X112329047Y-131317380D01*
X112424285Y-131269761D01*
X112471904Y-131222142D01*
X112519523Y-131126904D01*
X112519523Y-131031666D01*
X112471904Y-130936428D01*
X112424285Y-130888809D01*
X112329047Y-130841190D01*
X112138571Y-130793571D01*
X112043333Y-130745952D01*
X111995714Y-130698333D01*
X111948095Y-130603095D01*
X111948095Y-130507857D01*
X111995714Y-130412619D01*
X112043333Y-130365000D01*
X112138571Y-130317380D01*
X112376666Y-130317380D01*
X112519523Y-130365000D01*
X112900476Y-130412619D02*
X112948095Y-130365000D01*
X113043333Y-130317380D01*
X113281428Y-130317380D01*
X113376666Y-130365000D01*
X113424285Y-130412619D01*
X113471904Y-130507857D01*
X113471904Y-130603095D01*
X113424285Y-130745952D01*
X112852857Y-131317380D01*
X113471904Y-131317380D01*
X111948095Y-132879761D02*
X112090952Y-132927380D01*
X112329047Y-132927380D01*
X112424285Y-132879761D01*
X112471904Y-132832142D01*
X112519523Y-132736904D01*
X112519523Y-132641666D01*
X112471904Y-132546428D01*
X112424285Y-132498809D01*
X112329047Y-132451190D01*
X112138571Y-132403571D01*
X112043333Y-132355952D01*
X111995714Y-132308333D01*
X111948095Y-132213095D01*
X111948095Y-132117857D01*
X111995714Y-132022619D01*
X112043333Y-131975000D01*
X112138571Y-131927380D01*
X112376666Y-131927380D01*
X112519523Y-131975000D01*
X113471904Y-132927380D02*
X112900476Y-132927380D01*
X113186190Y-132927380D02*
X113186190Y-131927380D01*
X113090952Y-132070238D01*
X112995714Y-132165476D01*
X112900476Y-132213095D01*
D11*
X125092380Y-109609047D02*
X125806666Y-109609047D01*
X125949523Y-109656666D01*
X126044761Y-109751904D01*
X126092380Y-109894761D01*
X126092380Y-109990000D01*
X126092380Y-108656666D02*
X126092380Y-109132857D01*
X125092380Y-109132857D01*
X125997142Y-107751904D02*
X126044761Y-107799523D01*
X126092380Y-107942380D01*
X126092380Y-108037619D01*
X126044761Y-108180476D01*
X125949523Y-108275714D01*
X125854285Y-108323333D01*
X125663809Y-108370952D01*
X125520952Y-108370952D01*
X125330476Y-108323333D01*
X125235238Y-108275714D01*
X125140000Y-108180476D01*
X125092380Y-108037619D01*
X125092380Y-107942380D01*
X125140000Y-107799523D01*
X125187619Y-107751904D01*
X125092380Y-107037619D02*
X125806666Y-107037619D01*
X125949523Y-107085238D01*
X126044761Y-107180476D01*
X126092380Y-107323333D01*
X126092380Y-107418571D01*
X126092380Y-106085238D02*
X126092380Y-106561428D01*
X125092380Y-106561428D01*
X125997142Y-105180476D02*
X126044761Y-105228095D01*
X126092380Y-105370952D01*
X126092380Y-105466190D01*
X126044761Y-105609047D01*
X125949523Y-105704285D01*
X125854285Y-105751904D01*
X125663809Y-105799523D01*
X125520952Y-105799523D01*
X125330476Y-105751904D01*
X125235238Y-105704285D01*
X125140000Y-105609047D01*
X125092380Y-105466190D01*
X125092380Y-105370952D01*
X125140000Y-105228095D01*
X125187619Y-105180476D01*
X125092380Y-104466190D02*
X125806666Y-104466190D01*
X125949523Y-104513809D01*
X126044761Y-104609047D01*
X126092380Y-104751904D01*
X126092380Y-104847142D01*
X126092380Y-103513809D02*
X126092380Y-103990000D01*
X125092380Y-103990000D01*
X125997142Y-102609047D02*
X126044761Y-102656666D01*
X126092380Y-102799523D01*
X126092380Y-102894761D01*
X126044761Y-103037619D01*
X125949523Y-103132857D01*
X125854285Y-103180476D01*
X125663809Y-103228095D01*
X125520952Y-103228095D01*
X125330476Y-103180476D01*
X125235238Y-103132857D01*
X125140000Y-103037619D01*
X125092380Y-102894761D01*
X125092380Y-102799523D01*
X125140000Y-102656666D01*
X125187619Y-102609047D01*
X125092380Y-101894761D02*
X125806666Y-101894761D01*
X125949523Y-101942380D01*
X126044761Y-102037619D01*
X126092380Y-102180476D01*
X126092380Y-102275714D01*
X126092380Y-100942380D02*
X126092380Y-101418571D01*
X125092380Y-101418571D01*
X125997142Y-100037619D02*
X126044761Y-100085238D01*
X126092380Y-100228095D01*
X126092380Y-100323333D01*
X126044761Y-100466190D01*
X125949523Y-100561428D01*
X125854285Y-100609047D01*
X125663809Y-100656666D01*
X125520952Y-100656666D01*
X125330476Y-100609047D01*
X125235238Y-100561428D01*
X125140000Y-100466190D01*
X125092380Y-100323333D01*
X125092380Y-100228095D01*
X125140000Y-100085238D01*
X125187619Y-100037619D01*
D10*
X157570474Y-71879763D02*
X157713331Y-71927382D01*
X157951426Y-71927382D01*
X158046664Y-71879763D01*
X158094283Y-71832144D01*
X158141902Y-71736906D01*
X158141902Y-71641668D01*
X158094283Y-71546430D01*
X158046664Y-71498811D01*
X157951426Y-71451192D01*
X157760950Y-71403573D01*
X157665712Y-71355954D01*
X157618093Y-71308335D01*
X157570474Y-71213097D01*
X157570474Y-71117859D01*
X157618093Y-71022621D01*
X157665712Y-70975002D01*
X157760950Y-70927382D01*
X157999045Y-70927382D01*
X158141902Y-70975002D01*
X158475236Y-70927382D02*
X158713331Y-71927382D01*
X158903807Y-71213097D01*
X159094283Y-71927382D01*
X159332378Y-70927382D01*
X159618093Y-70927382D02*
X160237140Y-70927382D01*
X159903807Y-71308335D01*
X160046664Y-71308335D01*
X160141902Y-71355954D01*
X160189521Y-71403573D01*
X160237140Y-71498811D01*
X160237140Y-71736906D01*
X160189521Y-71832144D01*
X160141902Y-71879763D01*
X160046664Y-71927382D01*
X159760950Y-71927382D01*
X159665712Y-71879763D01*
X159618093Y-71832144D01*
X161189521Y-71927382D02*
X160618093Y-71927382D01*
X160903807Y-71927382D02*
X160903807Y-70927382D01*
X160808569Y-71070240D01*
X160713331Y-71165478D01*
X160618093Y-71213097D01*
X158570474Y-73537382D02*
X157999045Y-73537382D01*
X158284759Y-73537382D02*
X158284759Y-72537382D01*
X158189521Y-72680240D01*
X158094283Y-72775478D01*
X157999045Y-72823097D01*
X158999045Y-73156430D02*
X159760950Y-73156430D01*
X160760950Y-73537382D02*
X160189521Y-73537382D01*
X160475236Y-73537382D02*
X160475236Y-72537382D01*
X160379998Y-72680240D01*
X160284759Y-72775478D01*
X160189521Y-72823097D01*
X157940474Y-66059763D02*
X158083331Y-66107382D01*
X158321426Y-66107382D01*
X158416664Y-66059763D01*
X158464283Y-66012144D01*
X158511902Y-65916906D01*
X158511902Y-65821668D01*
X158464283Y-65726430D01*
X158416664Y-65678811D01*
X158321426Y-65631192D01*
X158130950Y-65583573D01*
X158035712Y-65535954D01*
X157988093Y-65488335D01*
X157940474Y-65393097D01*
X157940474Y-65297859D01*
X157988093Y-65202621D01*
X158035712Y-65155002D01*
X158130950Y-65107382D01*
X158369045Y-65107382D01*
X158511902Y-65155002D01*
X158845236Y-65107382D02*
X159083331Y-66107382D01*
X159273807Y-65393097D01*
X159464283Y-66107382D01*
X159702378Y-65107382D01*
X159988093Y-65107382D02*
X160607140Y-65107382D01*
X160273807Y-65488335D01*
X160416664Y-65488335D01*
X160511902Y-65535954D01*
X160559521Y-65583573D01*
X160607140Y-65678811D01*
X160607140Y-65916906D01*
X160559521Y-66012144D01*
X160511902Y-66059763D01*
X160416664Y-66107382D01*
X160130950Y-66107382D01*
X160035712Y-66059763D01*
X159988093Y-66012144D01*
X161559521Y-66107382D02*
X160988093Y-66107382D01*
X161273807Y-66107382D02*
X161273807Y-65107382D01*
X161178569Y-65250240D01*
X161083331Y-65345478D01*
X160988093Y-65393097D01*
X158440474Y-67717382D02*
X157869045Y-67717382D01*
X158154759Y-67717382D02*
X158154759Y-66717382D01*
X158059521Y-66860240D01*
X157964283Y-66955478D01*
X157869045Y-67003097D01*
X158869045Y-67336430D02*
X159630950Y-67336430D01*
X160107140Y-67193573D02*
X160440474Y-67193573D01*
X160583331Y-67717382D02*
X160107140Y-67717382D01*
X160107140Y-66717382D01*
X160583331Y-66717382D01*
X161011902Y-67717382D02*
X161011902Y-66717382D01*
X161583331Y-67717382D01*
X161583331Y-66717382D01*
X157860474Y-61379763D02*
X158003331Y-61427382D01*
X158241426Y-61427382D01*
X158336664Y-61379763D01*
X158384283Y-61332144D01*
X158431902Y-61236906D01*
X158431902Y-61141668D01*
X158384283Y-61046430D01*
X158336664Y-60998811D01*
X158241426Y-60951192D01*
X158050950Y-60903573D01*
X157955712Y-60855954D01*
X157908093Y-60808335D01*
X157860474Y-60713097D01*
X157860474Y-60617859D01*
X157908093Y-60522621D01*
X157955712Y-60475002D01*
X158050950Y-60427382D01*
X158289045Y-60427382D01*
X158431902Y-60475002D01*
X158765236Y-60427382D02*
X159003331Y-61427382D01*
X159193807Y-60713097D01*
X159384283Y-61427382D01*
X159622378Y-60427382D01*
X159908093Y-60427382D02*
X160527140Y-60427382D01*
X160193807Y-60808335D01*
X160336664Y-60808335D01*
X160431902Y-60855954D01*
X160479521Y-60903573D01*
X160527140Y-60998811D01*
X160527140Y-61236906D01*
X160479521Y-61332144D01*
X160431902Y-61379763D01*
X160336664Y-61427382D01*
X160050950Y-61427382D01*
X159955712Y-61379763D01*
X159908093Y-61332144D01*
X161479521Y-61427382D02*
X160908093Y-61427382D01*
X161193807Y-61427382D02*
X161193807Y-60427382D01*
X161098569Y-60570240D01*
X161003331Y-60665478D01*
X160908093Y-60713097D01*
X157789045Y-62132621D02*
X157836664Y-62085002D01*
X157931902Y-62037382D01*
X158169998Y-62037382D01*
X158265236Y-62085002D01*
X158312855Y-62132621D01*
X158360474Y-62227859D01*
X158360474Y-62323097D01*
X158312855Y-62465954D01*
X157741426Y-63037382D01*
X158360474Y-63037382D01*
X158789045Y-62656430D02*
X159550950Y-62656430D01*
X160027140Y-62513573D02*
X160360474Y-62513573D01*
X160503331Y-63037382D02*
X160027140Y-63037382D01*
X160027140Y-62037382D01*
X160503331Y-62037382D01*
X160931902Y-63037382D02*
X160931902Y-62037382D01*
X161503331Y-63037382D01*
X161503331Y-62037382D01*
D12*
X153884285Y-54671071D02*
X153884285Y-53171071D01*
X154384285Y-54242500D01*
X154884285Y-53171071D01*
X154884285Y-54671071D01*
X156455714Y-54528214D02*
X156384285Y-54599642D01*
X156170000Y-54671071D01*
X156027142Y-54671071D01*
X155812857Y-54599642D01*
X155670000Y-54456785D01*
X155598571Y-54313928D01*
X155527142Y-54028214D01*
X155527142Y-53813928D01*
X155598571Y-53528214D01*
X155670000Y-53385357D01*
X155812857Y-53242500D01*
X156027142Y-53171071D01*
X156170000Y-53171071D01*
X156384285Y-53242500D01*
X156455714Y-53313928D01*
X157098571Y-53171071D02*
X157098571Y-54385357D01*
X157170000Y-54528214D01*
X157241428Y-54599642D01*
X157384285Y-54671071D01*
X157670000Y-54671071D01*
X157812857Y-54599642D01*
X157884285Y-54528214D01*
X157955714Y-54385357D01*
X157955714Y-53171071D01*
X152955714Y-56086071D02*
X152955714Y-57086071D01*
X152312857Y-56086071D02*
X152312857Y-56871785D01*
X152384285Y-57014642D01*
X152527142Y-57086071D01*
X152741428Y-57086071D01*
X152884285Y-57014642D01*
X152955714Y-56943214D01*
X153670000Y-56086071D02*
X153670000Y-57586071D01*
X153670000Y-56157500D02*
X153812857Y-56086071D01*
X154098571Y-56086071D01*
X154241428Y-56157500D01*
X154312857Y-56228928D01*
X154384285Y-56371785D01*
X154384285Y-56800357D01*
X154312857Y-56943214D01*
X154241428Y-57014642D01*
X154098571Y-57086071D01*
X153812857Y-57086071D01*
X153670000Y-57014642D01*
X155027142Y-57086071D02*
X155027142Y-56086071D01*
X155027142Y-56371785D02*
X155098571Y-56228928D01*
X155170000Y-56157500D01*
X155312857Y-56086071D01*
X155455714Y-56086071D01*
X155955714Y-57086071D02*
X155955714Y-56086071D01*
X155955714Y-55586071D02*
X155884285Y-55657500D01*
X155955714Y-55728928D01*
X156027142Y-55657500D01*
X155955714Y-55586071D01*
X155955714Y-55728928D01*
X157312857Y-56086071D02*
X157312857Y-57300357D01*
X157241428Y-57443214D01*
X157170000Y-57514642D01*
X157027142Y-57586071D01*
X156812857Y-57586071D01*
X156670000Y-57514642D01*
X157312857Y-57014642D02*
X157170000Y-57086071D01*
X156884285Y-57086071D01*
X156741428Y-57014642D01*
X156670000Y-56943214D01*
X156598571Y-56800357D01*
X156598571Y-56371785D01*
X156670000Y-56228928D01*
X156741428Y-56157500D01*
X156884285Y-56086071D01*
X157170000Y-56086071D01*
X157312857Y-56157500D01*
X158027142Y-57086071D02*
X158027142Y-55586071D01*
X158670000Y-57086071D02*
X158670000Y-56300357D01*
X158598571Y-56157500D01*
X158455714Y-56086071D01*
X158241428Y-56086071D01*
X158098571Y-56157500D01*
X158027142Y-56228928D01*
X159170000Y-56086071D02*
X159741428Y-56086071D01*
X159384285Y-55586071D02*
X159384285Y-56871785D01*
X159455714Y-57014642D01*
X159598571Y-57086071D01*
X159741428Y-57086071D01*
D10*
X82539761Y-131786904D02*
X82587380Y-131644047D01*
X82587380Y-131405952D01*
X82539761Y-131310714D01*
X82492142Y-131263095D01*
X82396904Y-131215476D01*
X82301666Y-131215476D01*
X82206428Y-131263095D01*
X82158809Y-131310714D01*
X82111190Y-131405952D01*
X82063571Y-131596428D01*
X82015952Y-131691666D01*
X81968333Y-131739285D01*
X81873095Y-131786904D01*
X81777857Y-131786904D01*
X81682619Y-131739285D01*
X81635000Y-131691666D01*
X81587380Y-131596428D01*
X81587380Y-131358333D01*
X81635000Y-131215476D01*
X82587380Y-130263095D02*
X82587380Y-130834523D01*
X82587380Y-130548809D02*
X81587380Y-130548809D01*
X81730238Y-130644047D01*
X81825476Y-130739285D01*
X81873095Y-130834523D01*
X83197380Y-132215476D02*
X83197380Y-132691666D01*
X83673571Y-132739285D01*
X83625952Y-132691666D01*
X83578333Y-132596428D01*
X83578333Y-132358333D01*
X83625952Y-132263095D01*
X83673571Y-132215476D01*
X83768809Y-132167857D01*
X84006904Y-132167857D01*
X84102142Y-132215476D01*
X84149761Y-132263095D01*
X84197380Y-132358333D01*
X84197380Y-132596428D01*
X84149761Y-132691666D01*
X84102142Y-132739285D01*
X83197380Y-131834523D02*
X84197380Y-131596428D01*
X83483095Y-131405952D01*
X84197380Y-131215476D01*
X83197380Y-130977380D01*
X83911666Y-130644047D02*
X83911666Y-130167857D01*
X84197380Y-130739285D02*
X83197380Y-130405952D01*
X84197380Y-130072619D01*
X83721190Y-129548809D02*
X84197380Y-129548809D01*
X83197380Y-129882142D02*
X83721190Y-129548809D01*
X83197380Y-129215476D01*
D12*
X143270730Y-35540888D02*
X143219461Y-35627926D01*
X143029885Y-35750732D01*
X142891578Y-35786501D01*
X142666233Y-35771000D01*
X142492158Y-35668462D01*
X142387236Y-35548040D01*
X142246545Y-35289310D01*
X142192893Y-35081850D01*
X142190509Y-34787352D01*
X142223894Y-34631161D01*
X142326432Y-34457086D01*
X142516008Y-34334280D01*
X142654315Y-34298511D01*
X142879659Y-34314012D01*
X142966697Y-34365281D01*
X143928879Y-35518237D02*
X143553309Y-34066015D01*
X144551260Y-35357278D02*
X144354532Y-34596591D01*
X144249610Y-34476168D01*
X144093419Y-34442783D01*
X143885959Y-34496436D01*
X143765537Y-34601358D01*
X143714267Y-34688396D01*
X145450254Y-35124782D02*
X145294063Y-35091398D01*
X145207025Y-35040128D01*
X145102103Y-34919706D01*
X144994797Y-34504786D01*
X145028182Y-34348594D01*
X145079451Y-34261557D01*
X145199874Y-34156635D01*
X145407334Y-34102982D01*
X145563525Y-34136367D01*
X145650563Y-34187636D01*
X145755485Y-34308058D01*
X145862790Y-34722979D01*
X145829406Y-34879170D01*
X145778136Y-34966208D01*
X145657714Y-35071130D01*
X145450254Y-35124782D01*
X146306328Y-33870486D02*
X146681898Y-35322708D01*
X146324212Y-33939640D02*
X146444635Y-33834718D01*
X146721249Y-33763180D01*
X146877440Y-33796565D01*
X146964477Y-33847834D01*
X147069399Y-33968257D01*
X147176705Y-34383177D01*
X147143320Y-34539368D01*
X147092051Y-34626406D01*
X146971629Y-34731328D01*
X146695015Y-34802865D01*
X146538824Y-34769480D01*
X148475119Y-34268720D02*
X148354697Y-34373642D01*
X148078083Y-34445180D01*
X147921892Y-34411795D01*
X147834854Y-34360526D01*
X147729932Y-34240103D01*
X147622627Y-33825183D01*
X147656011Y-33668992D01*
X147707281Y-33581954D01*
X147827703Y-33477032D01*
X148104317Y-33405495D01*
X148260508Y-33438880D01*
X149115384Y-34176915D02*
X148739814Y-32724694D01*
X149737765Y-34015957D02*
X149541038Y-33255269D01*
X149436116Y-33134847D01*
X149279925Y-33101462D01*
X149072464Y-33155115D01*
X148952042Y-33260037D01*
X148900773Y-33347074D01*
X150636759Y-33783461D02*
X150480568Y-33750076D01*
X150393530Y-33698807D01*
X150288608Y-33578384D01*
X150181303Y-33163464D01*
X150214687Y-33007273D01*
X150265956Y-32920235D01*
X150386379Y-32815313D01*
X150593839Y-32761660D01*
X150750030Y-32795045D01*
X150837068Y-32846314D01*
X150941990Y-32966737D01*
X151049296Y-33381657D01*
X151015911Y-33537848D01*
X150964642Y-33624886D01*
X150844219Y-33729808D01*
X150636759Y-33783461D01*
X151492833Y-32529165D02*
X151868403Y-33981386D01*
X151510718Y-32598318D02*
X151631140Y-32493396D01*
X151907754Y-32421859D01*
X152063945Y-32455244D01*
X152150983Y-32506513D01*
X152255905Y-32626935D01*
X152363210Y-33041856D01*
X152329825Y-33198047D01*
X152278556Y-33285085D01*
X152158134Y-33390007D01*
X151881520Y-33461544D01*
X151725329Y-33428159D01*
X153774896Y-31938983D02*
X154371043Y-32817710D01*
X154466430Y-31760140D01*
X156030724Y-32388487D02*
X155200884Y-32603098D01*
X155615804Y-32495792D02*
X155240234Y-31043571D01*
X155155580Y-31286800D01*
X155053042Y-31460875D01*
X154932619Y-31565797D01*
X142752251Y-38243210D02*
X142977595Y-38258710D01*
X143323362Y-38169289D01*
X143443785Y-38064367D01*
X143495054Y-37977329D01*
X143528439Y-37821138D01*
X143492670Y-37682831D01*
X143387748Y-37562409D01*
X143300711Y-37511140D01*
X143144519Y-37477755D01*
X142850022Y-37480138D01*
X142693830Y-37446754D01*
X142606793Y-37395484D01*
X142501871Y-37275062D01*
X142466102Y-37136755D01*
X142499487Y-36980564D01*
X142550756Y-36893526D01*
X142671179Y-36788604D01*
X143016946Y-36699183D01*
X143242290Y-36714684D01*
X143764516Y-37022298D02*
X144317744Y-36879224D01*
X143846787Y-36484572D02*
X144168704Y-37729333D01*
X144273626Y-37849755D01*
X144429817Y-37883140D01*
X144568124Y-37847372D01*
X145587540Y-37509954D02*
X145467118Y-37614876D01*
X145190504Y-37686413D01*
X145034313Y-37653028D01*
X144929391Y-37532606D01*
X144786317Y-36979378D01*
X144819702Y-36823187D01*
X144940124Y-36718265D01*
X145216738Y-36646728D01*
X145372929Y-36680113D01*
X145477851Y-36800536D01*
X145513619Y-36938842D01*
X144857854Y-37255992D01*
X145839118Y-36485770D02*
X146392346Y-36342695D01*
X146296959Y-37400264D02*
X145975042Y-36155503D01*
X146008426Y-35999312D01*
X146128849Y-35894390D01*
X146267156Y-35858622D01*
X147749180Y-37024694D02*
X147552453Y-36264007D01*
X147447531Y-36143584D01*
X147291340Y-36110200D01*
X147014726Y-36181737D01*
X146894304Y-36286659D01*
X147731296Y-36955541D02*
X147610873Y-37060463D01*
X147265106Y-37149884D01*
X147108915Y-37116500D01*
X147003993Y-36996077D01*
X146968225Y-36857770D01*
X147001610Y-36701579D01*
X147122032Y-36596657D01*
X147467799Y-36507236D01*
X147588222Y-36402314D01*
X148190334Y-35877704D02*
X148440714Y-36845852D01*
X148226103Y-36016011D02*
X148277372Y-35928973D01*
X148397794Y-35824051D01*
X148605255Y-35770398D01*
X148761446Y-35803783D01*
X148866368Y-35924206D01*
X149063095Y-36684893D01*
X151148430Y-35334024D02*
X151373774Y-35349525D01*
X151460812Y-35400794D01*
X151565734Y-35521216D01*
X151619387Y-35728676D01*
X151586002Y-35884868D01*
X151534733Y-35971905D01*
X151414310Y-36076827D01*
X150861083Y-36219902D01*
X150485513Y-34767680D01*
X150969587Y-34642490D01*
X151125778Y-34675875D01*
X151212816Y-34727144D01*
X151317738Y-34847567D01*
X151353506Y-34985873D01*
X151320122Y-35142064D01*
X151268852Y-35229102D01*
X151148430Y-35334024D01*
X150664356Y-35459214D01*
X152520765Y-35790679D02*
X152364574Y-35757294D01*
X152277536Y-35706025D01*
X152172614Y-35585602D01*
X152065308Y-35170682D01*
X152098693Y-35014491D01*
X152149962Y-34927453D01*
X152270385Y-34822531D01*
X152477845Y-34768878D01*
X152634036Y-34802263D01*
X152721074Y-34853532D01*
X152825996Y-34973955D01*
X152933302Y-35388875D01*
X152899917Y-35545066D01*
X152848648Y-35632104D01*
X152728225Y-35737026D01*
X152520765Y-35790679D01*
X153627219Y-35504530D02*
X153251649Y-34052309D01*
X154249600Y-35343572D02*
X154052873Y-34582884D01*
X153947951Y-34462462D01*
X153791760Y-34429077D01*
X153584300Y-34482730D01*
X153463877Y-34587652D01*
X153412608Y-34674689D01*
X154690754Y-34196581D02*
X154941134Y-35164729D01*
X154726523Y-34334888D02*
X154777792Y-34247850D01*
X154898214Y-34142928D01*
X155105674Y-34089275D01*
X155261866Y-34122660D01*
X155366788Y-34243083D01*
X155563515Y-35003770D01*
X156790392Y-34612700D02*
X156669969Y-34717622D01*
X156393355Y-34789159D01*
X156237164Y-34755774D01*
X156132242Y-34635351D01*
X155989168Y-34082124D01*
X156022553Y-33925933D01*
X156142975Y-33821011D01*
X156419589Y-33749474D01*
X156575780Y-33782859D01*
X156680702Y-33903281D01*
X156716471Y-34041588D01*
X156060705Y-34358738D01*
D10*
X157450474Y-75739763D02*
X157593331Y-75787382D01*
X157831426Y-75787382D01*
X157926664Y-75739763D01*
X157974283Y-75692144D01*
X158021902Y-75596906D01*
X158021902Y-75501668D01*
X157974283Y-75406430D01*
X157926664Y-75358811D01*
X157831426Y-75311192D01*
X157640950Y-75263573D01*
X157545712Y-75215954D01*
X157498093Y-75168335D01*
X157450474Y-75073097D01*
X157450474Y-74977859D01*
X157498093Y-74882621D01*
X157545712Y-74835002D01*
X157640950Y-74787382D01*
X157879045Y-74787382D01*
X158021902Y-74835002D01*
X158355236Y-74787382D02*
X158593331Y-75787382D01*
X158783807Y-75073097D01*
X158974283Y-75787382D01*
X159212378Y-74787382D01*
X159498093Y-74787382D02*
X160117140Y-74787382D01*
X159783807Y-75168335D01*
X159926664Y-75168335D01*
X160021902Y-75215954D01*
X160069521Y-75263573D01*
X160117140Y-75358811D01*
X160117140Y-75596906D01*
X160069521Y-75692144D01*
X160021902Y-75739763D01*
X159926664Y-75787382D01*
X159640950Y-75787382D01*
X159545712Y-75739763D01*
X159498093Y-75692144D01*
X161069521Y-75787382D02*
X160498093Y-75787382D01*
X160783807Y-75787382D02*
X160783807Y-74787382D01*
X160688569Y-74930240D01*
X160593331Y-75025478D01*
X160498093Y-75073097D01*
X157879045Y-76492621D02*
X157926664Y-76445002D01*
X158021902Y-76397382D01*
X158259998Y-76397382D01*
X158355236Y-76445002D01*
X158402855Y-76492621D01*
X158450474Y-76587859D01*
X158450474Y-76683097D01*
X158402855Y-76825954D01*
X157831426Y-77397382D01*
X158450474Y-77397382D01*
X158879045Y-77016430D02*
X159640950Y-77016430D01*
X160069521Y-76492621D02*
X160117140Y-76445002D01*
X160212378Y-76397382D01*
X160450474Y-76397382D01*
X160545712Y-76445002D01*
X160593331Y-76492621D01*
X160640950Y-76587859D01*
X160640950Y-76683097D01*
X160593331Y-76825954D01*
X160021902Y-77397382D01*
X160640950Y-77397382D01*
%TO.C,SW7*%
X61166666Y-83859761D02*
X61309523Y-83907380D01*
X61547619Y-83907380D01*
X61642857Y-83859761D01*
X61690476Y-83812142D01*
X61738095Y-83716904D01*
X61738095Y-83621666D01*
X61690476Y-83526428D01*
X61642857Y-83478809D01*
X61547619Y-83431190D01*
X61357142Y-83383571D01*
X61261904Y-83335952D01*
X61214285Y-83288333D01*
X61166666Y-83193095D01*
X61166666Y-83097857D01*
X61214285Y-83002619D01*
X61261904Y-82955000D01*
X61357142Y-82907380D01*
X61595238Y-82907380D01*
X61738095Y-82955000D01*
X62071428Y-82907380D02*
X62309523Y-83907380D01*
X62500000Y-83193095D01*
X62690476Y-83907380D01*
X62928571Y-82907380D01*
X63214285Y-82907380D02*
X63880952Y-82907380D01*
X63452380Y-83907380D01*
%TO.C,SW8*%
X61166666Y-102859761D02*
X61309523Y-102907380D01*
X61547619Y-102907380D01*
X61642857Y-102859761D01*
X61690476Y-102812142D01*
X61738095Y-102716904D01*
X61738095Y-102621666D01*
X61690476Y-102526428D01*
X61642857Y-102478809D01*
X61547619Y-102431190D01*
X61357142Y-102383571D01*
X61261904Y-102335952D01*
X61214285Y-102288333D01*
X61166666Y-102193095D01*
X61166666Y-102097857D01*
X61214285Y-102002619D01*
X61261904Y-101955000D01*
X61357142Y-101907380D01*
X61595238Y-101907380D01*
X61738095Y-101955000D01*
X62071428Y-101907380D02*
X62309523Y-102907380D01*
X62500000Y-102193095D01*
X62690476Y-102907380D01*
X62928571Y-101907380D01*
X63452380Y-102335952D02*
X63357142Y-102288333D01*
X63309523Y-102240714D01*
X63261904Y-102145476D01*
X63261904Y-102097857D01*
X63309523Y-102002619D01*
X63357142Y-101955000D01*
X63452380Y-101907380D01*
X63642857Y-101907380D01*
X63738095Y-101955000D01*
X63785714Y-102002619D01*
X63833333Y-102097857D01*
X63833333Y-102145476D01*
X63785714Y-102240714D01*
X63738095Y-102288333D01*
X63642857Y-102335952D01*
X63452380Y-102335952D01*
X63357142Y-102383571D01*
X63309523Y-102431190D01*
X63261904Y-102526428D01*
X63261904Y-102716904D01*
X63309523Y-102812142D01*
X63357142Y-102859761D01*
X63452380Y-102907380D01*
X63642857Y-102907380D01*
X63738095Y-102859761D01*
X63785714Y-102812142D01*
X63833333Y-102716904D01*
X63833333Y-102526428D01*
X63785714Y-102431190D01*
X63738095Y-102383571D01*
X63642857Y-102335952D01*
%TO.C,SW14*%
X78690476Y-113859761D02*
X78833333Y-113907380D01*
X79071428Y-113907380D01*
X79166666Y-113859761D01*
X79214285Y-113812142D01*
X79261904Y-113716904D01*
X79261904Y-113621666D01*
X79214285Y-113526428D01*
X79166666Y-113478809D01*
X79071428Y-113431190D01*
X78880952Y-113383571D01*
X78785714Y-113335952D01*
X78738095Y-113288333D01*
X78690476Y-113193095D01*
X78690476Y-113097857D01*
X78738095Y-113002619D01*
X78785714Y-112955000D01*
X78880952Y-112907380D01*
X79119047Y-112907380D01*
X79261904Y-112955000D01*
X79595238Y-112907380D02*
X79833333Y-113907380D01*
X80023809Y-113193095D01*
X80214285Y-113907380D01*
X80452380Y-112907380D01*
X81357142Y-113907380D02*
X80785714Y-113907380D01*
X81071428Y-113907380D02*
X81071428Y-112907380D01*
X80976190Y-113050238D01*
X80880952Y-113145476D01*
X80785714Y-113193095D01*
X82214285Y-113240714D02*
X82214285Y-113907380D01*
X81976190Y-112859761D02*
X81738095Y-113574047D01*
X82357142Y-113574047D01*
%TO.C,SW5*%
X44166666Y-141859761D02*
X44309523Y-141907380D01*
X44547619Y-141907380D01*
X44642857Y-141859761D01*
X44690476Y-141812142D01*
X44738095Y-141716904D01*
X44738095Y-141621666D01*
X44690476Y-141526428D01*
X44642857Y-141478809D01*
X44547619Y-141431190D01*
X44357142Y-141383571D01*
X44261904Y-141335952D01*
X44214285Y-141288333D01*
X44166666Y-141193095D01*
X44166666Y-141097857D01*
X44214285Y-141002619D01*
X44261904Y-140955000D01*
X44357142Y-140907380D01*
X44595238Y-140907380D01*
X44738095Y-140955000D01*
X45071428Y-140907380D02*
X45309523Y-141907380D01*
X45500000Y-141193095D01*
X45690476Y-141907380D01*
X45928571Y-140907380D01*
X46785714Y-140907380D02*
X46309523Y-140907380D01*
X46261904Y-141383571D01*
X46309523Y-141335952D01*
X46404761Y-141288333D01*
X46642857Y-141288333D01*
X46738095Y-141335952D01*
X46785714Y-141383571D01*
X46833333Y-141478809D01*
X46833333Y-141716904D01*
X46785714Y-141812142D01*
X46738095Y-141859761D01*
X46642857Y-141907380D01*
X46404761Y-141907380D01*
X46309523Y-141859761D01*
X46261904Y-141812142D01*
%TO.C,JP9*%
X154506666Y-73682380D02*
X154506666Y-74396666D01*
X154459047Y-74539523D01*
X154363809Y-74634761D01*
X154220952Y-74682380D01*
X154125714Y-74682380D01*
X154982857Y-74682380D02*
X154982857Y-73682380D01*
X155363809Y-73682380D01*
X155459047Y-73730000D01*
X155506666Y-73777619D01*
X155554285Y-73872857D01*
X155554285Y-74015714D01*
X155506666Y-74110952D01*
X155459047Y-74158571D01*
X155363809Y-74206190D01*
X154982857Y-74206190D01*
X156030476Y-74682380D02*
X156220952Y-74682380D01*
X156316190Y-74634761D01*
X156363809Y-74587142D01*
X156459047Y-74444285D01*
X156506666Y-74253809D01*
X156506666Y-73872857D01*
X156459047Y-73777619D01*
X156411428Y-73730000D01*
X156316190Y-73682380D01*
X156125714Y-73682380D01*
X156030476Y-73730000D01*
X155982857Y-73777619D01*
X155935238Y-73872857D01*
X155935238Y-74110952D01*
X155982857Y-74206190D01*
X156030476Y-74253809D01*
X156125714Y-74301428D01*
X156316190Y-74301428D01*
X156411428Y-74253809D01*
X156459047Y-74206190D01*
X156506666Y-74110952D01*
%TO.C,SW30*%
X137730030Y-138582769D02*
X137855694Y-138665740D01*
X138085677Y-138727363D01*
X138189994Y-138706016D01*
X138248315Y-138672345D01*
X138318961Y-138592676D01*
X138343611Y-138500684D01*
X138322264Y-138396366D01*
X138288592Y-138338045D01*
X138208924Y-138267399D01*
X138037263Y-138172103D01*
X137957594Y-138101458D01*
X137923923Y-138043136D01*
X137902576Y-137938819D01*
X137927225Y-137846826D01*
X137997871Y-137767158D01*
X138056192Y-137733486D01*
X138160510Y-137712139D01*
X138390492Y-137773762D01*
X138516157Y-137856733D01*
X138850457Y-137897010D02*
X138821620Y-138924559D01*
X139190477Y-138283911D01*
X139189592Y-139023157D01*
X139678393Y-138118854D01*
X139954372Y-138192803D02*
X140552326Y-138353024D01*
X140131753Y-138634723D01*
X140269743Y-138671697D01*
X140349411Y-138742343D01*
X140383083Y-138800664D01*
X140404430Y-138904982D01*
X140342806Y-139134964D01*
X140272160Y-139214632D01*
X140213839Y-139248304D01*
X140109521Y-139269651D01*
X139833542Y-139195703D01*
X139753874Y-139125057D01*
X139720202Y-139066736D01*
X141150280Y-138513245D02*
X141242273Y-138537895D01*
X141321941Y-138608541D01*
X141355613Y-138666862D01*
X141376960Y-138771179D01*
X141373658Y-138967490D01*
X141312034Y-139197472D01*
X141216739Y-139369134D01*
X141146093Y-139448802D01*
X141087772Y-139482474D01*
X140983454Y-139503821D01*
X140891461Y-139479171D01*
X140811793Y-139408525D01*
X140778121Y-139350204D01*
X140756774Y-139245886D01*
X140760077Y-139049576D01*
X140821700Y-138819593D01*
X140916996Y-138647932D01*
X140987641Y-138568264D01*
X141045963Y-138534592D01*
X141150280Y-138513245D01*
%TO.C,SW20*%
X97690476Y-138859761D02*
X97833333Y-138907380D01*
X98071428Y-138907380D01*
X98166666Y-138859761D01*
X98214285Y-138812142D01*
X98261904Y-138716904D01*
X98261904Y-138621666D01*
X98214285Y-138526428D01*
X98166666Y-138478809D01*
X98071428Y-138431190D01*
X97880952Y-138383571D01*
X97785714Y-138335952D01*
X97738095Y-138288333D01*
X97690476Y-138193095D01*
X97690476Y-138097857D01*
X97738095Y-138002619D01*
X97785714Y-137955000D01*
X97880952Y-137907380D01*
X98119047Y-137907380D01*
X98261904Y-137955000D01*
X98595238Y-137907380D02*
X98833333Y-138907380D01*
X99023809Y-138193095D01*
X99214285Y-138907380D01*
X99452380Y-137907380D01*
X99785714Y-138002619D02*
X99833333Y-137955000D01*
X99928571Y-137907380D01*
X100166666Y-137907380D01*
X100261904Y-137955000D01*
X100309523Y-138002619D01*
X100357142Y-138097857D01*
X100357142Y-138193095D01*
X100309523Y-138335952D01*
X99738095Y-138907380D01*
X100357142Y-138907380D01*
X100976190Y-137907380D02*
X101071428Y-137907380D01*
X101166666Y-137955000D01*
X101214285Y-138002619D01*
X101261904Y-138097857D01*
X101309523Y-138288333D01*
X101309523Y-138526428D01*
X101261904Y-138716904D01*
X101214285Y-138812142D01*
X101166666Y-138859761D01*
X101071428Y-138907380D01*
X100976190Y-138907380D01*
X100880952Y-138859761D01*
X100833333Y-138812142D01*
X100785714Y-138716904D01*
X100738095Y-138526428D01*
X100738095Y-138288333D01*
X100785714Y-138097857D01*
X100833333Y-138002619D01*
X100880952Y-137955000D01*
X100976190Y-137907380D01*
%TO.C,SW21*%
X114690476Y-56859761D02*
X114833333Y-56907380D01*
X115071428Y-56907380D01*
X115166666Y-56859761D01*
X115214285Y-56812142D01*
X115261904Y-56716904D01*
X115261904Y-56621666D01*
X115214285Y-56526428D01*
X115166666Y-56478809D01*
X115071428Y-56431190D01*
X114880952Y-56383571D01*
X114785714Y-56335952D01*
X114738095Y-56288333D01*
X114690476Y-56193095D01*
X114690476Y-56097857D01*
X114738095Y-56002619D01*
X114785714Y-55955000D01*
X114880952Y-55907380D01*
X115119047Y-55907380D01*
X115261904Y-55955000D01*
X115595238Y-55907380D02*
X115833333Y-56907380D01*
X116023809Y-56193095D01*
X116214285Y-56907380D01*
X116452380Y-55907380D01*
X116785714Y-56002619D02*
X116833333Y-55955000D01*
X116928571Y-55907380D01*
X117166666Y-55907380D01*
X117261904Y-55955000D01*
X117309523Y-56002619D01*
X117357142Y-56097857D01*
X117357142Y-56193095D01*
X117309523Y-56335952D01*
X116738095Y-56907380D01*
X117357142Y-56907380D01*
X118309523Y-56907380D02*
X117738095Y-56907380D01*
X118023809Y-56907380D02*
X118023809Y-55907380D01*
X117928571Y-56050238D01*
X117833333Y-56145476D01*
X117738095Y-56193095D01*
%TO.C,S2*%
X154311666Y-123375686D02*
X154429622Y-123469294D01*
X154653358Y-123550727D01*
X154759139Y-123538553D01*
X154820173Y-123510093D01*
X154897494Y-123436885D01*
X154930067Y-123347390D01*
X154917893Y-123241609D01*
X154889433Y-123180575D01*
X154816225Y-123103254D01*
X154653522Y-122993361D01*
X154580314Y-122916040D01*
X154551854Y-122855006D01*
X154539680Y-122749225D01*
X154572253Y-122659730D01*
X154649574Y-122586522D01*
X154710608Y-122558062D01*
X154816389Y-122545888D01*
X155040125Y-122627321D01*
X155158081Y-122720928D01*
X155499772Y-122895969D02*
X155560806Y-122867509D01*
X155666587Y-122855335D01*
X155890323Y-122936768D01*
X155963531Y-123014089D01*
X155991992Y-123075123D01*
X156004166Y-123180904D01*
X155971592Y-123270398D01*
X155877985Y-123388353D01*
X155145578Y-123729881D01*
X155727292Y-123941607D01*
%TO.C,SW10*%
X61690476Y-140859761D02*
X61833333Y-140907380D01*
X62071428Y-140907380D01*
X62166666Y-140859761D01*
X62214285Y-140812142D01*
X62261904Y-140716904D01*
X62261904Y-140621666D01*
X62214285Y-140526428D01*
X62166666Y-140478809D01*
X62071428Y-140431190D01*
X61880952Y-140383571D01*
X61785714Y-140335952D01*
X61738095Y-140288333D01*
X61690476Y-140193095D01*
X61690476Y-140097857D01*
X61738095Y-140002619D01*
X61785714Y-139955000D01*
X61880952Y-139907380D01*
X62119047Y-139907380D01*
X62261904Y-139955000D01*
X62595238Y-139907380D02*
X62833333Y-140907380D01*
X63023809Y-140193095D01*
X63214285Y-140907380D01*
X63452380Y-139907380D01*
X64357142Y-140907380D02*
X63785714Y-140907380D01*
X64071428Y-140907380D02*
X64071428Y-139907380D01*
X63976190Y-140050238D01*
X63880952Y-140145476D01*
X63785714Y-140193095D01*
X64976190Y-139907380D02*
X65071428Y-139907380D01*
X65166666Y-139955000D01*
X65214285Y-140002619D01*
X65261904Y-140097857D01*
X65309523Y-140288333D01*
X65309523Y-140526428D01*
X65261904Y-140716904D01*
X65214285Y-140812142D01*
X65166666Y-140859761D01*
X65071428Y-140907380D01*
X64976190Y-140907380D01*
X64880952Y-140859761D01*
X64833333Y-140812142D01*
X64785714Y-140716904D01*
X64738095Y-140526428D01*
X64738095Y-140288333D01*
X64785714Y-140097857D01*
X64833333Y-140002619D01*
X64880952Y-139955000D01*
X64976190Y-139907380D01*
%TO.C,SW24*%
X114690476Y-113859761D02*
X114833333Y-113907380D01*
X115071428Y-113907380D01*
X115166666Y-113859761D01*
X115214285Y-113812142D01*
X115261904Y-113716904D01*
X115261904Y-113621666D01*
X115214285Y-113526428D01*
X115166666Y-113478809D01*
X115071428Y-113431190D01*
X114880952Y-113383571D01*
X114785714Y-113335952D01*
X114738095Y-113288333D01*
X114690476Y-113193095D01*
X114690476Y-113097857D01*
X114738095Y-113002619D01*
X114785714Y-112955000D01*
X114880952Y-112907380D01*
X115119047Y-112907380D01*
X115261904Y-112955000D01*
X115595238Y-112907380D02*
X115833333Y-113907380D01*
X116023809Y-113193095D01*
X116214285Y-113907380D01*
X116452380Y-112907380D01*
X116785714Y-113002619D02*
X116833333Y-112955000D01*
X116928571Y-112907380D01*
X117166666Y-112907380D01*
X117261904Y-112955000D01*
X117309523Y-113002619D01*
X117357142Y-113097857D01*
X117357142Y-113193095D01*
X117309523Y-113335952D01*
X116738095Y-113907380D01*
X117357142Y-113907380D01*
X118214285Y-113240714D02*
X118214285Y-113907380D01*
X117976190Y-112859761D02*
X117738095Y-113574047D01*
X118357142Y-113574047D01*
%TO.C,JP1*%
X154616666Y-65552380D02*
X154616666Y-66266666D01*
X154569047Y-66409523D01*
X154473809Y-66504761D01*
X154330952Y-66552380D01*
X154235714Y-66552380D01*
X155092857Y-66552380D02*
X155092857Y-65552380D01*
X155473809Y-65552380D01*
X155569047Y-65600000D01*
X155616666Y-65647619D01*
X155664285Y-65742857D01*
X155664285Y-65885714D01*
X155616666Y-65980952D01*
X155569047Y-66028571D01*
X155473809Y-66076190D01*
X155092857Y-66076190D01*
X156616666Y-66552380D02*
X156045238Y-66552380D01*
X156330952Y-66552380D02*
X156330952Y-65552380D01*
X156235714Y-65695238D01*
X156140476Y-65790476D01*
X156045238Y-65838095D01*
%TO.C,SW3*%
X43166666Y-103859761D02*
X43309523Y-103907380D01*
X43547619Y-103907380D01*
X43642857Y-103859761D01*
X43690476Y-103812142D01*
X43738095Y-103716904D01*
X43738095Y-103621666D01*
X43690476Y-103526428D01*
X43642857Y-103478809D01*
X43547619Y-103431190D01*
X43357142Y-103383571D01*
X43261904Y-103335952D01*
X43214285Y-103288333D01*
X43166666Y-103193095D01*
X43166666Y-103097857D01*
X43214285Y-103002619D01*
X43261904Y-102955000D01*
X43357142Y-102907380D01*
X43595238Y-102907380D01*
X43738095Y-102955000D01*
X44071428Y-102907380D02*
X44309523Y-103907380D01*
X44500000Y-103193095D01*
X44690476Y-103907380D01*
X44928571Y-102907380D01*
X45214285Y-102907380D02*
X45833333Y-102907380D01*
X45500000Y-103288333D01*
X45642857Y-103288333D01*
X45738095Y-103335952D01*
X45785714Y-103383571D01*
X45833333Y-103478809D01*
X45833333Y-103716904D01*
X45785714Y-103812142D01*
X45738095Y-103859761D01*
X45642857Y-103907380D01*
X45357142Y-103907380D01*
X45261904Y-103859761D01*
X45214285Y-103812142D01*
%TO.C,SW16*%
X96690476Y-52859761D02*
X96833333Y-52907380D01*
X97071428Y-52907380D01*
X97166666Y-52859761D01*
X97214285Y-52812142D01*
X97261904Y-52716904D01*
X97261904Y-52621666D01*
X97214285Y-52526428D01*
X97166666Y-52478809D01*
X97071428Y-52431190D01*
X96880952Y-52383571D01*
X96785714Y-52335952D01*
X96738095Y-52288333D01*
X96690476Y-52193095D01*
X96690476Y-52097857D01*
X96738095Y-52002619D01*
X96785714Y-51955000D01*
X96880952Y-51907380D01*
X97119047Y-51907380D01*
X97261904Y-51955000D01*
X97595238Y-51907380D02*
X97833333Y-52907380D01*
X98023809Y-52193095D01*
X98214285Y-52907380D01*
X98452380Y-51907380D01*
X99357142Y-52907380D02*
X98785714Y-52907380D01*
X99071428Y-52907380D02*
X99071428Y-51907380D01*
X98976190Y-52050238D01*
X98880952Y-52145476D01*
X98785714Y-52193095D01*
X100214285Y-51907380D02*
X100023809Y-51907380D01*
X99928571Y-51955000D01*
X99880952Y-52002619D01*
X99785714Y-52145476D01*
X99738095Y-52335952D01*
X99738095Y-52716904D01*
X99785714Y-52812142D01*
X99833333Y-52859761D01*
X99928571Y-52907380D01*
X100119047Y-52907380D01*
X100214285Y-52859761D01*
X100261904Y-52812142D01*
X100309523Y-52716904D01*
X100309523Y-52478809D01*
X100261904Y-52383571D01*
X100214285Y-52335952D01*
X100119047Y-52288333D01*
X99928571Y-52288333D01*
X99833333Y-52335952D01*
X99785714Y-52383571D01*
X99738095Y-52478809D01*
%TO.C,SW11*%
X78690476Y-56859761D02*
X78833333Y-56907380D01*
X79071428Y-56907380D01*
X79166666Y-56859761D01*
X79214285Y-56812142D01*
X79261904Y-56716904D01*
X79261904Y-56621666D01*
X79214285Y-56526428D01*
X79166666Y-56478809D01*
X79071428Y-56431190D01*
X78880952Y-56383571D01*
X78785714Y-56335952D01*
X78738095Y-56288333D01*
X78690476Y-56193095D01*
X78690476Y-56097857D01*
X78738095Y-56002619D01*
X78785714Y-55955000D01*
X78880952Y-55907380D01*
X79119047Y-55907380D01*
X79261904Y-55955000D01*
X79595238Y-55907380D02*
X79833333Y-56907380D01*
X80023809Y-56193095D01*
X80214285Y-56907380D01*
X80452380Y-55907380D01*
X81357142Y-56907380D02*
X80785714Y-56907380D01*
X81071428Y-56907380D02*
X81071428Y-55907380D01*
X80976190Y-56050238D01*
X80880952Y-56145476D01*
X80785714Y-56193095D01*
X82309523Y-56907380D02*
X81738095Y-56907380D01*
X82023809Y-56907380D02*
X82023809Y-55907380D01*
X81928571Y-56050238D01*
X81833333Y-56145476D01*
X81738095Y-56193095D01*
D11*
%TO.C,SW31*%
X170338951Y-133928093D02*
X170245344Y-134046048D01*
X170163911Y-134269784D01*
X170176085Y-134375565D01*
X170204545Y-134436599D01*
X170277753Y-134513920D01*
X170367248Y-134546493D01*
X170473029Y-134534319D01*
X170534063Y-134505859D01*
X170611383Y-134432651D01*
X170721277Y-134269948D01*
X170798598Y-134196741D01*
X170859632Y-134168280D01*
X170965413Y-134156106D01*
X171054908Y-134188679D01*
X171128115Y-134266000D01*
X171156576Y-134327034D01*
X171168750Y-134432815D01*
X171087317Y-134656551D01*
X170993709Y-134774507D01*
X170924450Y-135104024D02*
X169903324Y-134985740D01*
X170509386Y-135409030D01*
X169773030Y-135343718D01*
X170631290Y-135909475D01*
X170533570Y-136177959D02*
X170321843Y-136759673D01*
X170077872Y-136316149D01*
X170029012Y-136450391D01*
X169951691Y-136523598D01*
X169890657Y-136552059D01*
X169784876Y-136564233D01*
X169561139Y-136482800D01*
X169487932Y-136405479D01*
X169459471Y-136344445D01*
X169447297Y-136238664D01*
X169545017Y-135970180D01*
X169622338Y-135896972D01*
X169683372Y-135868512D01*
X169056417Y-137312598D02*
X169251857Y-136775631D01*
X169154137Y-137044115D02*
X170093830Y-137386135D01*
X169992161Y-137247780D01*
X169935240Y-137125712D01*
X169923066Y-137019931D01*
D10*
%TO.C,SW1*%
X43166666Y-65859761D02*
X43309523Y-65907380D01*
X43547619Y-65907380D01*
X43642857Y-65859761D01*
X43690476Y-65812142D01*
X43738095Y-65716904D01*
X43738095Y-65621666D01*
X43690476Y-65526428D01*
X43642857Y-65478809D01*
X43547619Y-65431190D01*
X43357142Y-65383571D01*
X43261904Y-65335952D01*
X43214285Y-65288333D01*
X43166666Y-65193095D01*
X43166666Y-65097857D01*
X43214285Y-65002619D01*
X43261904Y-64955000D01*
X43357142Y-64907380D01*
X43595238Y-64907380D01*
X43738095Y-64955000D01*
X44071428Y-64907380D02*
X44309523Y-65907380D01*
X44500000Y-65193095D01*
X44690476Y-65907380D01*
X44928571Y-64907380D01*
X45833333Y-65907380D02*
X45261904Y-65907380D01*
X45547619Y-65907380D02*
X45547619Y-64907380D01*
X45452380Y-65050238D01*
X45357142Y-65145476D01*
X45261904Y-65193095D01*
%TO.C,SW4*%
X43166666Y-122859761D02*
X43309523Y-122907380D01*
X43547619Y-122907380D01*
X43642857Y-122859761D01*
X43690476Y-122812142D01*
X43738095Y-122716904D01*
X43738095Y-122621666D01*
X43690476Y-122526428D01*
X43642857Y-122478809D01*
X43547619Y-122431190D01*
X43357142Y-122383571D01*
X43261904Y-122335952D01*
X43214285Y-122288333D01*
X43166666Y-122193095D01*
X43166666Y-122097857D01*
X43214285Y-122002619D01*
X43261904Y-121955000D01*
X43357142Y-121907380D01*
X43595238Y-121907380D01*
X43738095Y-121955000D01*
X44071428Y-121907380D02*
X44309523Y-122907380D01*
X44500000Y-122193095D01*
X44690476Y-122907380D01*
X44928571Y-121907380D01*
X45738095Y-122240714D02*
X45738095Y-122907380D01*
X45500000Y-121859761D02*
X45261904Y-122574047D01*
X45880952Y-122574047D01*
%TO.C,SW13*%
X78690476Y-94859761D02*
X78833333Y-94907380D01*
X79071428Y-94907380D01*
X79166666Y-94859761D01*
X79214285Y-94812142D01*
X79261904Y-94716904D01*
X79261904Y-94621666D01*
X79214285Y-94526428D01*
X79166666Y-94478809D01*
X79071428Y-94431190D01*
X78880952Y-94383571D01*
X78785714Y-94335952D01*
X78738095Y-94288333D01*
X78690476Y-94193095D01*
X78690476Y-94097857D01*
X78738095Y-94002619D01*
X78785714Y-93955000D01*
X78880952Y-93907380D01*
X79119047Y-93907380D01*
X79261904Y-93955000D01*
X79595238Y-93907380D02*
X79833333Y-94907380D01*
X80023809Y-94193095D01*
X80214285Y-94907380D01*
X80452380Y-93907380D01*
X81357142Y-94907380D02*
X80785714Y-94907380D01*
X81071428Y-94907380D02*
X81071428Y-93907380D01*
X80976190Y-94050238D01*
X80880952Y-94145476D01*
X80785714Y-94193095D01*
X81690476Y-93907380D02*
X82309523Y-93907380D01*
X81976190Y-94288333D01*
X82119047Y-94288333D01*
X82214285Y-94335952D01*
X82261904Y-94383571D01*
X82309523Y-94478809D01*
X82309523Y-94716904D01*
X82261904Y-94812142D01*
X82214285Y-94859761D01*
X82119047Y-94907380D01*
X81833333Y-94907380D01*
X81738095Y-94859761D01*
X81690476Y-94812142D01*
%TO.C,SW15*%
X79690476Y-139859761D02*
X79833333Y-139907380D01*
X80071428Y-139907380D01*
X80166666Y-139859761D01*
X80214285Y-139812142D01*
X80261904Y-139716904D01*
X80261904Y-139621666D01*
X80214285Y-139526428D01*
X80166666Y-139478809D01*
X80071428Y-139431190D01*
X79880952Y-139383571D01*
X79785714Y-139335952D01*
X79738095Y-139288333D01*
X79690476Y-139193095D01*
X79690476Y-139097857D01*
X79738095Y-139002619D01*
X79785714Y-138955000D01*
X79880952Y-138907380D01*
X80119047Y-138907380D01*
X80261904Y-138955000D01*
X80595238Y-138907380D02*
X80833333Y-139907380D01*
X81023809Y-139193095D01*
X81214285Y-139907380D01*
X81452380Y-138907380D01*
X82357142Y-139907380D02*
X81785714Y-139907380D01*
X82071428Y-139907380D02*
X82071428Y-138907380D01*
X81976190Y-139050238D01*
X81880952Y-139145476D01*
X81785714Y-139193095D01*
X83261904Y-138907380D02*
X82785714Y-138907380D01*
X82738095Y-139383571D01*
X82785714Y-139335952D01*
X82880952Y-139288333D01*
X83119047Y-139288333D01*
X83214285Y-139335952D01*
X83261904Y-139383571D01*
X83309523Y-139478809D01*
X83309523Y-139716904D01*
X83261904Y-139812142D01*
X83214285Y-139859761D01*
X83119047Y-139907380D01*
X82880952Y-139907380D01*
X82785714Y-139859761D01*
X82738095Y-139812142D01*
%TO.C,SW18*%
X96690476Y-90859761D02*
X96833333Y-90907380D01*
X97071428Y-90907380D01*
X97166666Y-90859761D01*
X97214285Y-90812142D01*
X97261904Y-90716904D01*
X97261904Y-90621666D01*
X97214285Y-90526428D01*
X97166666Y-90478809D01*
X97071428Y-90431190D01*
X96880952Y-90383571D01*
X96785714Y-90335952D01*
X96738095Y-90288333D01*
X96690476Y-90193095D01*
X96690476Y-90097857D01*
X96738095Y-90002619D01*
X96785714Y-89955000D01*
X96880952Y-89907380D01*
X97119047Y-89907380D01*
X97261904Y-89955000D01*
X97595238Y-89907380D02*
X97833333Y-90907380D01*
X98023809Y-90193095D01*
X98214285Y-90907380D01*
X98452380Y-89907380D01*
X99357142Y-90907380D02*
X98785714Y-90907380D01*
X99071428Y-90907380D02*
X99071428Y-89907380D01*
X98976190Y-90050238D01*
X98880952Y-90145476D01*
X98785714Y-90193095D01*
X99928571Y-90335952D02*
X99833333Y-90288333D01*
X99785714Y-90240714D01*
X99738095Y-90145476D01*
X99738095Y-90097857D01*
X99785714Y-90002619D01*
X99833333Y-89955000D01*
X99928571Y-89907380D01*
X100119047Y-89907380D01*
X100214285Y-89955000D01*
X100261904Y-90002619D01*
X100309523Y-90097857D01*
X100309523Y-90145476D01*
X100261904Y-90240714D01*
X100214285Y-90288333D01*
X100119047Y-90335952D01*
X99928571Y-90335952D01*
X99833333Y-90383571D01*
X99785714Y-90431190D01*
X99738095Y-90526428D01*
X99738095Y-90716904D01*
X99785714Y-90812142D01*
X99833333Y-90859761D01*
X99928571Y-90907380D01*
X100119047Y-90907380D01*
X100214285Y-90859761D01*
X100261904Y-90812142D01*
X100309523Y-90716904D01*
X100309523Y-90526428D01*
X100261904Y-90431190D01*
X100214285Y-90383571D01*
X100119047Y-90335952D01*
%TO.C,JP7*%
X154546664Y-69742382D02*
X154546664Y-70456668D01*
X154499045Y-70599525D01*
X154403807Y-70694763D01*
X154260950Y-70742382D01*
X154165712Y-70742382D01*
X155022855Y-70742382D02*
X155022855Y-69742382D01*
X155403807Y-69742382D01*
X155499045Y-69790002D01*
X155546664Y-69837621D01*
X155594283Y-69932859D01*
X155594283Y-70075716D01*
X155546664Y-70170954D01*
X155499045Y-70218573D01*
X155403807Y-70266192D01*
X155022855Y-70266192D01*
X155927617Y-69742382D02*
X156594283Y-69742382D01*
X156165712Y-70742382D01*
%TO.C,U1*%
X155439093Y-46844382D02*
X155439093Y-47653906D01*
X155486712Y-47749144D01*
X155534331Y-47796763D01*
X155629569Y-47844382D01*
X155820045Y-47844382D01*
X155915283Y-47796763D01*
X155962902Y-47749144D01*
X156010521Y-47653906D01*
X156010521Y-46844382D01*
X157010521Y-47844382D02*
X156439093Y-47844382D01*
X156724807Y-47844382D02*
X156724807Y-46844382D01*
X156629569Y-46987240D01*
X156534331Y-47082478D01*
X156439093Y-47130097D01*
%TO.C,SW22*%
X114690476Y-75859761D02*
X114833333Y-75907380D01*
X115071428Y-75907380D01*
X115166666Y-75859761D01*
X115214285Y-75812142D01*
X115261904Y-75716904D01*
X115261904Y-75621666D01*
X115214285Y-75526428D01*
X115166666Y-75478809D01*
X115071428Y-75431190D01*
X114880952Y-75383571D01*
X114785714Y-75335952D01*
X114738095Y-75288333D01*
X114690476Y-75193095D01*
X114690476Y-75097857D01*
X114738095Y-75002619D01*
X114785714Y-74955000D01*
X114880952Y-74907380D01*
X115119047Y-74907380D01*
X115261904Y-74955000D01*
X115595238Y-74907380D02*
X115833333Y-75907380D01*
X116023809Y-75193095D01*
X116214285Y-75907380D01*
X116452380Y-74907380D01*
X116785714Y-75002619D02*
X116833333Y-74955000D01*
X116928571Y-74907380D01*
X117166666Y-74907380D01*
X117261904Y-74955000D01*
X117309523Y-75002619D01*
X117357142Y-75097857D01*
X117357142Y-75193095D01*
X117309523Y-75335952D01*
X116738095Y-75907380D01*
X117357142Y-75907380D01*
X117738095Y-75002619D02*
X117785714Y-74955000D01*
X117880952Y-74907380D01*
X118119047Y-74907380D01*
X118214285Y-74955000D01*
X118261904Y-75002619D01*
X118309523Y-75097857D01*
X118309523Y-75193095D01*
X118261904Y-75335952D01*
X117690476Y-75907380D01*
X118309523Y-75907380D01*
%TO.C,SW2*%
X43166666Y-84859761D02*
X43309523Y-84907380D01*
X43547619Y-84907380D01*
X43642857Y-84859761D01*
X43690476Y-84812142D01*
X43738095Y-84716904D01*
X43738095Y-84621666D01*
X43690476Y-84526428D01*
X43642857Y-84478809D01*
X43547619Y-84431190D01*
X43357142Y-84383571D01*
X43261904Y-84335952D01*
X43214285Y-84288333D01*
X43166666Y-84193095D01*
X43166666Y-84097857D01*
X43214285Y-84002619D01*
X43261904Y-83955000D01*
X43357142Y-83907380D01*
X43595238Y-83907380D01*
X43738095Y-83955000D01*
X44071428Y-83907380D02*
X44309523Y-84907380D01*
X44500000Y-84193095D01*
X44690476Y-84907380D01*
X44928571Y-83907380D01*
X45261904Y-84002619D02*
X45309523Y-83955000D01*
X45404761Y-83907380D01*
X45642857Y-83907380D01*
X45738095Y-83955000D01*
X45785714Y-84002619D01*
X45833333Y-84097857D01*
X45833333Y-84193095D01*
X45785714Y-84335952D01*
X45214285Y-84907380D01*
X45833333Y-84907380D01*
%TO.C,SW17*%
X96690476Y-71859761D02*
X96833333Y-71907380D01*
X97071428Y-71907380D01*
X97166666Y-71859761D01*
X97214285Y-71812142D01*
X97261904Y-71716904D01*
X97261904Y-71621666D01*
X97214285Y-71526428D01*
X97166666Y-71478809D01*
X97071428Y-71431190D01*
X96880952Y-71383571D01*
X96785714Y-71335952D01*
X96738095Y-71288333D01*
X96690476Y-71193095D01*
X96690476Y-71097857D01*
X96738095Y-71002619D01*
X96785714Y-70955000D01*
X96880952Y-70907380D01*
X97119047Y-70907380D01*
X97261904Y-70955000D01*
X97595238Y-70907380D02*
X97833333Y-71907380D01*
X98023809Y-71193095D01*
X98214285Y-71907380D01*
X98452380Y-70907380D01*
X99357142Y-71907380D02*
X98785714Y-71907380D01*
X99071428Y-71907380D02*
X99071428Y-70907380D01*
X98976190Y-71050238D01*
X98880952Y-71145476D01*
X98785714Y-71193095D01*
X99690476Y-70907380D02*
X100357142Y-70907380D01*
X99928571Y-71907380D01*
%TO.C,SW27*%
X132690476Y-77859761D02*
X132833333Y-77907380D01*
X133071428Y-77907380D01*
X133166666Y-77859761D01*
X133214285Y-77812142D01*
X133261904Y-77716904D01*
X133261904Y-77621666D01*
X133214285Y-77526428D01*
X133166666Y-77478809D01*
X133071428Y-77431190D01*
X132880952Y-77383571D01*
X132785714Y-77335952D01*
X132738095Y-77288333D01*
X132690476Y-77193095D01*
X132690476Y-77097857D01*
X132738095Y-77002619D01*
X132785714Y-76955000D01*
X132880952Y-76907380D01*
X133119047Y-76907380D01*
X133261904Y-76955000D01*
X133595238Y-76907380D02*
X133833333Y-77907380D01*
X134023809Y-77193095D01*
X134214285Y-77907380D01*
X134452380Y-76907380D01*
X134785714Y-77002619D02*
X134833333Y-76955000D01*
X134928571Y-76907380D01*
X135166666Y-76907380D01*
X135261904Y-76955000D01*
X135309523Y-77002619D01*
X135357142Y-77097857D01*
X135357142Y-77193095D01*
X135309523Y-77335952D01*
X134738095Y-77907380D01*
X135357142Y-77907380D01*
X135690476Y-76907380D02*
X136357142Y-76907380D01*
X135928571Y-77907380D01*
%TO.C,SW23*%
X114690476Y-94859761D02*
X114833333Y-94907380D01*
X115071428Y-94907380D01*
X115166666Y-94859761D01*
X115214285Y-94812142D01*
X115261904Y-94716904D01*
X115261904Y-94621666D01*
X115214285Y-94526428D01*
X115166666Y-94478809D01*
X115071428Y-94431190D01*
X114880952Y-94383571D01*
X114785714Y-94335952D01*
X114738095Y-94288333D01*
X114690476Y-94193095D01*
X114690476Y-94097857D01*
X114738095Y-94002619D01*
X114785714Y-93955000D01*
X114880952Y-93907380D01*
X115119047Y-93907380D01*
X115261904Y-93955000D01*
X115595238Y-93907380D02*
X115833333Y-94907380D01*
X116023809Y-94193095D01*
X116214285Y-94907380D01*
X116452380Y-93907380D01*
X116785714Y-94002619D02*
X116833333Y-93955000D01*
X116928571Y-93907380D01*
X117166666Y-93907380D01*
X117261904Y-93955000D01*
X117309523Y-94002619D01*
X117357142Y-94097857D01*
X117357142Y-94193095D01*
X117309523Y-94335952D01*
X116738095Y-94907380D01*
X117357142Y-94907380D01*
X117690476Y-93907380D02*
X118309523Y-93907380D01*
X117976190Y-94288333D01*
X118119047Y-94288333D01*
X118214285Y-94335952D01*
X118261904Y-94383571D01*
X118309523Y-94478809D01*
X118309523Y-94716904D01*
X118261904Y-94812142D01*
X118214285Y-94859761D01*
X118119047Y-94907380D01*
X117833333Y-94907380D01*
X117738095Y-94859761D01*
X117690476Y-94812142D01*
%TO.C,SW25*%
X116775559Y-136307786D02*
X116918416Y-136355405D01*
X117156511Y-136355405D01*
X117251749Y-136307786D01*
X117299368Y-136260167D01*
X117346987Y-136164929D01*
X117346987Y-136069691D01*
X117299368Y-135974453D01*
X117251749Y-135926834D01*
X117156511Y-135879215D01*
X116966035Y-135831596D01*
X116870797Y-135783977D01*
X116823178Y-135736358D01*
X116775559Y-135641120D01*
X116775559Y-135545882D01*
X116823178Y-135450644D01*
X116870797Y-135403025D01*
X116966035Y-135355405D01*
X117204130Y-135355405D01*
X117346987Y-135403025D01*
X117680321Y-135355405D02*
X117918416Y-136355405D01*
X118108892Y-135641120D01*
X118299368Y-136355405D01*
X118537463Y-135355405D01*
X118870797Y-135450644D02*
X118918416Y-135403025D01*
X119013654Y-135355405D01*
X119251749Y-135355405D01*
X119346987Y-135403025D01*
X119394606Y-135450644D01*
X119442225Y-135545882D01*
X119442225Y-135641120D01*
X119394606Y-135783977D01*
X118823178Y-136355405D01*
X119442225Y-136355405D01*
X120346987Y-135355405D02*
X119870797Y-135355405D01*
X119823178Y-135831596D01*
X119870797Y-135783977D01*
X119966035Y-135736358D01*
X120204130Y-135736358D01*
X120299368Y-135783977D01*
X120346987Y-135831596D01*
X120394606Y-135926834D01*
X120394606Y-136164929D01*
X120346987Y-136260167D01*
X120299368Y-136307786D01*
X120204130Y-136355405D01*
X119966035Y-136355405D01*
X119870797Y-136307786D01*
X119823178Y-136260167D01*
%TO.C,SW26*%
X132690476Y-58859761D02*
X132833333Y-58907380D01*
X133071428Y-58907380D01*
X133166666Y-58859761D01*
X133214285Y-58812142D01*
X133261904Y-58716904D01*
X133261904Y-58621666D01*
X133214285Y-58526428D01*
X133166666Y-58478809D01*
X133071428Y-58431190D01*
X132880952Y-58383571D01*
X132785714Y-58335952D01*
X132738095Y-58288333D01*
X132690476Y-58193095D01*
X132690476Y-58097857D01*
X132738095Y-58002619D01*
X132785714Y-57955000D01*
X132880952Y-57907380D01*
X133119047Y-57907380D01*
X133261904Y-57955000D01*
X133595238Y-57907380D02*
X133833333Y-58907380D01*
X134023809Y-58193095D01*
X134214285Y-58907380D01*
X134452380Y-57907380D01*
X134785714Y-58002619D02*
X134833333Y-57955000D01*
X134928571Y-57907380D01*
X135166666Y-57907380D01*
X135261904Y-57955000D01*
X135309523Y-58002619D01*
X135357142Y-58097857D01*
X135357142Y-58193095D01*
X135309523Y-58335952D01*
X134738095Y-58907380D01*
X135357142Y-58907380D01*
X136214285Y-57907380D02*
X136023809Y-57907380D01*
X135928571Y-57955000D01*
X135880952Y-58002619D01*
X135785714Y-58145476D01*
X135738095Y-58335952D01*
X135738095Y-58716904D01*
X135785714Y-58812142D01*
X135833333Y-58859761D01*
X135928571Y-58907380D01*
X136119047Y-58907380D01*
X136214285Y-58859761D01*
X136261904Y-58812142D01*
X136309523Y-58716904D01*
X136309523Y-58478809D01*
X136261904Y-58383571D01*
X136214285Y-58335952D01*
X136119047Y-58288333D01*
X135928571Y-58288333D01*
X135833333Y-58335952D01*
X135785714Y-58383571D01*
X135738095Y-58478809D01*
%TO.C,S1*%
X158272280Y-146724987D02*
X158372188Y-146837655D01*
X158578385Y-146956703D01*
X158684673Y-146963082D01*
X158749722Y-146945653D01*
X158838580Y-146886984D01*
X158886199Y-146804505D01*
X158892579Y-146698217D01*
X158875149Y-146633168D01*
X158816480Y-146544310D01*
X158675332Y-146407832D01*
X158616663Y-146318974D01*
X158599233Y-146253925D01*
X158605613Y-146147637D01*
X158653232Y-146065158D01*
X158742090Y-146006489D01*
X158807139Y-145989059D01*
X158913427Y-145995439D01*
X159119624Y-146114487D01*
X159219532Y-146227155D01*
X159568128Y-147528131D02*
X159073256Y-147242417D01*
X159320692Y-147385274D02*
X159820692Y-146519249D01*
X159666785Y-146595348D01*
X159536687Y-146630207D01*
X159430399Y-146623827D01*
%TO.C,SW19*%
X96690476Y-109859761D02*
X96833333Y-109907380D01*
X97071428Y-109907380D01*
X97166666Y-109859761D01*
X97214285Y-109812142D01*
X97261904Y-109716904D01*
X97261904Y-109621666D01*
X97214285Y-109526428D01*
X97166666Y-109478809D01*
X97071428Y-109431190D01*
X96880952Y-109383571D01*
X96785714Y-109335952D01*
X96738095Y-109288333D01*
X96690476Y-109193095D01*
X96690476Y-109097857D01*
X96738095Y-109002619D01*
X96785714Y-108955000D01*
X96880952Y-108907380D01*
X97119047Y-108907380D01*
X97261904Y-108955000D01*
X97595238Y-108907380D02*
X97833333Y-109907380D01*
X98023809Y-109193095D01*
X98214285Y-109907380D01*
X98452380Y-108907380D01*
X99357142Y-109907380D02*
X98785714Y-109907380D01*
X99071428Y-109907380D02*
X99071428Y-108907380D01*
X98976190Y-109050238D01*
X98880952Y-109145476D01*
X98785714Y-109193095D01*
X99833333Y-109907380D02*
X100023809Y-109907380D01*
X100119047Y-109859761D01*
X100166666Y-109812142D01*
X100261904Y-109669285D01*
X100309523Y-109478809D01*
X100309523Y-109097857D01*
X100261904Y-109002619D01*
X100214285Y-108955000D01*
X100119047Y-108907380D01*
X99928571Y-108907380D01*
X99833333Y-108955000D01*
X99785714Y-109002619D01*
X99738095Y-109097857D01*
X99738095Y-109335952D01*
X99785714Y-109431190D01*
X99833333Y-109478809D01*
X99928571Y-109526428D01*
X100119047Y-109526428D01*
X100214285Y-109478809D01*
X100261904Y-109431190D01*
X100309523Y-109335952D01*
%TO.C,SW6*%
X61166666Y-64859761D02*
X61309523Y-64907380D01*
X61547619Y-64907380D01*
X61642857Y-64859761D01*
X61690476Y-64812142D01*
X61738095Y-64716904D01*
X61738095Y-64621666D01*
X61690476Y-64526428D01*
X61642857Y-64478809D01*
X61547619Y-64431190D01*
X61357142Y-64383571D01*
X61261904Y-64335952D01*
X61214285Y-64288333D01*
X61166666Y-64193095D01*
X61166666Y-64097857D01*
X61214285Y-64002619D01*
X61261904Y-63955000D01*
X61357142Y-63907380D01*
X61595238Y-63907380D01*
X61738095Y-63955000D01*
X62071428Y-63907380D02*
X62309523Y-64907380D01*
X62500000Y-64193095D01*
X62690476Y-64907380D01*
X62928571Y-63907380D01*
X63738095Y-63907380D02*
X63547619Y-63907380D01*
X63452380Y-63955000D01*
X63404761Y-64002619D01*
X63309523Y-64145476D01*
X63261904Y-64335952D01*
X63261904Y-64716904D01*
X63309523Y-64812142D01*
X63357142Y-64859761D01*
X63452380Y-64907380D01*
X63642857Y-64907380D01*
X63738095Y-64859761D01*
X63785714Y-64812142D01*
X63833333Y-64716904D01*
X63833333Y-64478809D01*
X63785714Y-64383571D01*
X63738095Y-64335952D01*
X63642857Y-64288333D01*
X63452380Y-64288333D01*
X63357142Y-64335952D01*
X63309523Y-64383571D01*
X63261904Y-64478809D01*
%TO.C,JP11*%
X99383768Y-131134250D02*
X99383768Y-131848536D01*
X99336149Y-131991393D01*
X99240911Y-132086631D01*
X99098053Y-132134250D01*
X99002815Y-132134250D01*
X99859958Y-132134250D02*
X99859958Y-131134250D01*
X100240911Y-131134250D01*
X100336149Y-131181870D01*
X100383768Y-131229489D01*
X100431387Y-131324727D01*
X100431387Y-131467584D01*
X100383768Y-131562822D01*
X100336149Y-131610441D01*
X100240911Y-131658060D01*
X99859958Y-131658060D01*
X101383768Y-132134250D02*
X100812339Y-132134250D01*
X101098053Y-132134250D02*
X101098053Y-131134250D01*
X101002815Y-131277108D01*
X100907577Y-131372346D01*
X100812339Y-131419965D01*
X102336149Y-132134250D02*
X101764720Y-132134250D01*
X102050434Y-132134250D02*
X102050434Y-131134250D01*
X101955196Y-131277108D01*
X101859958Y-131372346D01*
X101764720Y-131419965D01*
%TO.C,JP13*%
X102665476Y-124437380D02*
X102665476Y-125151666D01*
X102617857Y-125294523D01*
X102522619Y-125389761D01*
X102379761Y-125437380D01*
X102284523Y-125437380D01*
X103141666Y-125437380D02*
X103141666Y-124437380D01*
X103522619Y-124437380D01*
X103617857Y-124485000D01*
X103665476Y-124532619D01*
X103713095Y-124627857D01*
X103713095Y-124770714D01*
X103665476Y-124865952D01*
X103617857Y-124913571D01*
X103522619Y-124961190D01*
X103141666Y-124961190D01*
X104665476Y-125437380D02*
X104094047Y-125437380D01*
X104379761Y-125437380D02*
X104379761Y-124437380D01*
X104284523Y-124580238D01*
X104189285Y-124675476D01*
X104094047Y-124723095D01*
X104998809Y-124437380D02*
X105617857Y-124437380D01*
X105284523Y-124818333D01*
X105427380Y-124818333D01*
X105522619Y-124865952D01*
X105570238Y-124913571D01*
X105617857Y-125008809D01*
X105617857Y-125246904D01*
X105570238Y-125342142D01*
X105522619Y-125389761D01*
X105427380Y-125437380D01*
X105141666Y-125437380D01*
X105046428Y-125389761D01*
X104998809Y-125342142D01*
%TO.C,SW29*%
X132690476Y-115859761D02*
X132833333Y-115907380D01*
X133071428Y-115907380D01*
X133166666Y-115859761D01*
X133214285Y-115812142D01*
X133261904Y-115716904D01*
X133261904Y-115621666D01*
X133214285Y-115526428D01*
X133166666Y-115478809D01*
X133071428Y-115431190D01*
X132880952Y-115383571D01*
X132785714Y-115335952D01*
X132738095Y-115288333D01*
X132690476Y-115193095D01*
X132690476Y-115097857D01*
X132738095Y-115002619D01*
X132785714Y-114955000D01*
X132880952Y-114907380D01*
X133119047Y-114907380D01*
X133261904Y-114955000D01*
X133595238Y-114907380D02*
X133833333Y-115907380D01*
X134023809Y-115193095D01*
X134214285Y-115907380D01*
X134452380Y-114907380D01*
X134785714Y-115002619D02*
X134833333Y-114955000D01*
X134928571Y-114907380D01*
X135166666Y-114907380D01*
X135261904Y-114955000D01*
X135309523Y-115002619D01*
X135357142Y-115097857D01*
X135357142Y-115193095D01*
X135309523Y-115335952D01*
X134738095Y-115907380D01*
X135357142Y-115907380D01*
X135833333Y-115907380D02*
X136023809Y-115907380D01*
X136119047Y-115859761D01*
X136166666Y-115812142D01*
X136261904Y-115669285D01*
X136309523Y-115478809D01*
X136309523Y-115097857D01*
X136261904Y-115002619D01*
X136214285Y-114955000D01*
X136119047Y-114907380D01*
X135928571Y-114907380D01*
X135833333Y-114955000D01*
X135785714Y-115002619D01*
X135738095Y-115097857D01*
X135738095Y-115335952D01*
X135785714Y-115431190D01*
X135833333Y-115478809D01*
X135928571Y-115526428D01*
X136119047Y-115526428D01*
X136214285Y-115478809D01*
X136261904Y-115431190D01*
X136309523Y-115335952D01*
%TO.C,JP3*%
X154526664Y-65622382D02*
X154526664Y-66336668D01*
X154479045Y-66479525D01*
X154383807Y-66574763D01*
X154240950Y-66622382D01*
X154145712Y-66622382D01*
X155002855Y-66622382D02*
X155002855Y-65622382D01*
X155383807Y-65622382D01*
X155479045Y-65670002D01*
X155526664Y-65717621D01*
X155574283Y-65812859D01*
X155574283Y-65955716D01*
X155526664Y-66050954D01*
X155479045Y-66098573D01*
X155383807Y-66146192D01*
X155002855Y-66146192D01*
X155907617Y-65622382D02*
X156526664Y-65622382D01*
X156193331Y-66003335D01*
X156336188Y-66003335D01*
X156431426Y-66050954D01*
X156479045Y-66098573D01*
X156526664Y-66193811D01*
X156526664Y-66431906D01*
X156479045Y-66527144D01*
X156431426Y-66574763D01*
X156336188Y-66622382D01*
X156050474Y-66622382D01*
X155955236Y-66574763D01*
X155907617Y-66527144D01*
%TO.C,JP5*%
X154651664Y-58282382D02*
X154651664Y-58996668D01*
X154604045Y-59139525D01*
X154508807Y-59234763D01*
X154365950Y-59282382D01*
X154270712Y-59282382D01*
X155127855Y-59282382D02*
X155127855Y-58282382D01*
X155508807Y-58282382D01*
X155604045Y-58330002D01*
X155651664Y-58377621D01*
X155699283Y-58472859D01*
X155699283Y-58615716D01*
X155651664Y-58710954D01*
X155604045Y-58758573D01*
X155508807Y-58806192D01*
X155127855Y-58806192D01*
X156604045Y-58282382D02*
X156127855Y-58282382D01*
X156080236Y-58758573D01*
X156127855Y-58710954D01*
X156223093Y-58663335D01*
X156461188Y-58663335D01*
X156556426Y-58710954D01*
X156604045Y-58758573D01*
X156651664Y-58853811D01*
X156651664Y-59091906D01*
X156604045Y-59187144D01*
X156556426Y-59234763D01*
X156461188Y-59282382D01*
X156223093Y-59282382D01*
X156127855Y-59234763D01*
X156080236Y-59187144D01*
%TO.C,SW12*%
X78690476Y-75859761D02*
X78833333Y-75907380D01*
X79071428Y-75907380D01*
X79166666Y-75859761D01*
X79214285Y-75812142D01*
X79261904Y-75716904D01*
X79261904Y-75621666D01*
X79214285Y-75526428D01*
X79166666Y-75478809D01*
X79071428Y-75431190D01*
X78880952Y-75383571D01*
X78785714Y-75335952D01*
X78738095Y-75288333D01*
X78690476Y-75193095D01*
X78690476Y-75097857D01*
X78738095Y-75002619D01*
X78785714Y-74955000D01*
X78880952Y-74907380D01*
X79119047Y-74907380D01*
X79261904Y-74955000D01*
X79595238Y-74907380D02*
X79833333Y-75907380D01*
X80023809Y-75193095D01*
X80214285Y-75907380D01*
X80452380Y-74907380D01*
X81357142Y-75907380D02*
X80785714Y-75907380D01*
X81071428Y-75907380D02*
X81071428Y-74907380D01*
X80976190Y-75050238D01*
X80880952Y-75145476D01*
X80785714Y-75193095D01*
X81738095Y-75002619D02*
X81785714Y-74955000D01*
X81880952Y-74907380D01*
X82119047Y-74907380D01*
X82214285Y-74955000D01*
X82261904Y-75002619D01*
X82309523Y-75097857D01*
X82309523Y-75193095D01*
X82261904Y-75335952D01*
X81690476Y-75907380D01*
X82309523Y-75907380D01*
%TO.C,SW9*%
X61166666Y-121859761D02*
X61309523Y-121907380D01*
X61547619Y-121907380D01*
X61642857Y-121859761D01*
X61690476Y-121812142D01*
X61738095Y-121716904D01*
X61738095Y-121621666D01*
X61690476Y-121526428D01*
X61642857Y-121478809D01*
X61547619Y-121431190D01*
X61357142Y-121383571D01*
X61261904Y-121335952D01*
X61214285Y-121288333D01*
X61166666Y-121193095D01*
X61166666Y-121097857D01*
X61214285Y-121002619D01*
X61261904Y-120955000D01*
X61357142Y-120907380D01*
X61595238Y-120907380D01*
X61738095Y-120955000D01*
X62071428Y-120907380D02*
X62309523Y-121907380D01*
X62500000Y-121193095D01*
X62690476Y-121907380D01*
X62928571Y-120907380D01*
X63357142Y-121907380D02*
X63547619Y-121907380D01*
X63642857Y-121859761D01*
X63690476Y-121812142D01*
X63785714Y-121669285D01*
X63833333Y-121478809D01*
X63833333Y-121097857D01*
X63785714Y-121002619D01*
X63738095Y-120955000D01*
X63642857Y-120907380D01*
X63452380Y-120907380D01*
X63357142Y-120955000D01*
X63309523Y-121002619D01*
X63261904Y-121097857D01*
X63261904Y-121335952D01*
X63309523Y-121431190D01*
X63357142Y-121478809D01*
X63452380Y-121526428D01*
X63642857Y-121526428D01*
X63738095Y-121478809D01*
X63785714Y-121431190D01*
X63833333Y-121335952D01*
%TO.C,JP15*%
X172235476Y-78997380D02*
X172235476Y-79711666D01*
X172187857Y-79854523D01*
X172092619Y-79949761D01*
X171949761Y-79997380D01*
X171854523Y-79997380D01*
X172711666Y-79997380D02*
X172711666Y-78997380D01*
X173092619Y-78997380D01*
X173187857Y-79045000D01*
X173235476Y-79092619D01*
X173283095Y-79187857D01*
X173283095Y-79330714D01*
X173235476Y-79425952D01*
X173187857Y-79473571D01*
X173092619Y-79521190D01*
X172711666Y-79521190D01*
X174235476Y-79997380D02*
X173664047Y-79997380D01*
X173949761Y-79997380D02*
X173949761Y-78997380D01*
X173854523Y-79140238D01*
X173759285Y-79235476D01*
X173664047Y-79283095D01*
X175140238Y-78997380D02*
X174664047Y-78997380D01*
X174616428Y-79473571D01*
X174664047Y-79425952D01*
X174759285Y-79378333D01*
X174997380Y-79378333D01*
X175092619Y-79425952D01*
X175140238Y-79473571D01*
X175187857Y-79568809D01*
X175187857Y-79806904D01*
X175140238Y-79902142D01*
X175092619Y-79949761D01*
X174997380Y-79997380D01*
X174759285Y-79997380D01*
X174664047Y-79949761D01*
X174616428Y-79902142D01*
%TO.C,U3*%
X136685411Y-44919237D02*
X137565064Y-44338442D01*
X136512865Y-44275286D01*
X136426592Y-43953311D02*
X137208532Y-43743791D01*
X137288200Y-43673145D01*
X137321872Y-43614824D01*
X137343219Y-43510506D01*
X137293920Y-43326520D01*
X137223274Y-43246852D01*
X137164953Y-43213180D01*
X137060635Y-43191833D01*
X136278695Y-43401353D01*
X137087702Y-42740891D02*
X137096724Y-42590577D01*
X137035101Y-42360594D01*
X136964455Y-42280926D01*
X136906134Y-42247254D01*
X136801816Y-42225907D01*
X136709823Y-42250557D01*
X136630155Y-42321203D01*
X136596483Y-42379524D01*
X136575136Y-42483841D01*
X136578438Y-42680152D01*
X136557091Y-42784470D01*
X136523420Y-42842791D01*
X136443751Y-42913437D01*
X136351758Y-42938086D01*
X136247441Y-42916739D01*
X136189120Y-42883067D01*
X136118474Y-42803399D01*
X136056850Y-42573417D01*
X136065872Y-42423103D01*
X136282645Y-41576237D02*
X136291668Y-41425923D01*
X136325339Y-41367602D01*
X136405008Y-41296956D01*
X136542997Y-41259981D01*
X136647315Y-41281329D01*
X136705636Y-41315000D01*
X136776282Y-41394668D01*
X136874879Y-41762640D01*
X135908954Y-42021459D01*
X135822681Y-41699484D01*
X135844028Y-41595166D01*
X135877699Y-41536845D01*
X135957368Y-41466199D01*
X136049360Y-41441550D01*
X136153678Y-41462897D01*
X136211999Y-41496569D01*
X136282645Y-41576237D01*
X136368918Y-41898212D01*
X124090387Y-46760376D02*
X124069040Y-46864693D01*
X124106014Y-47002683D01*
X124188985Y-47128347D01*
X124305627Y-47195691D01*
X124409945Y-47217038D01*
X124606255Y-47213735D01*
X124744245Y-47176761D01*
X124915906Y-47081466D01*
X124995574Y-47010820D01*
X125062918Y-46894178D01*
X125071940Y-46743864D01*
X125047291Y-46651871D01*
X124964320Y-46526206D01*
X124905999Y-46492534D01*
X124584023Y-46578807D01*
X124633322Y-46762793D01*
X124887069Y-46053917D02*
X123921143Y-46312736D01*
X124739173Y-45501959D01*
X123773247Y-45760778D01*
X124615925Y-45041994D02*
X123650000Y-45300813D01*
X123588376Y-45070831D01*
X123597398Y-44920517D01*
X123664742Y-44803874D01*
X123744410Y-44733229D01*
X123916071Y-44637933D01*
X124054061Y-44600959D01*
X124250371Y-44597657D01*
X124354689Y-44619004D01*
X124471331Y-44686347D01*
X124554302Y-44812012D01*
X124615925Y-45041994D01*
X129904037Y-46640168D02*
X129780789Y-46180203D01*
X130204665Y-46658212D02*
X129152466Y-46595056D01*
X130032119Y-46014262D01*
X129810274Y-45186325D02*
X129958170Y-45738283D01*
X129884222Y-45462304D02*
X128918296Y-45721123D01*
X129080935Y-45776142D01*
X129197578Y-45843485D01*
X129268223Y-45923154D01*
X129699351Y-44772357D02*
X128733426Y-45031176D01*
X128671802Y-44801194D01*
X128680824Y-44650880D01*
X128748168Y-44534237D01*
X128827836Y-44463591D01*
X128999497Y-44368296D01*
X129137487Y-44331322D01*
X129333797Y-44328019D01*
X129438115Y-44349367D01*
X129554757Y-44416710D01*
X129637728Y-44542375D01*
X129699351Y-44772357D01*
X128685659Y-43565009D02*
X129329610Y-43392463D01*
X128379311Y-43893589D02*
X129130882Y-43938701D01*
X128970661Y-43340747D01*
X127817334Y-47407832D02*
X126851409Y-47666651D01*
X126789785Y-47436669D01*
X126798807Y-47286355D01*
X126866151Y-47169712D01*
X126945819Y-47099066D01*
X127117480Y-47003771D01*
X127255470Y-46966797D01*
X127451780Y-46963494D01*
X127556098Y-46984841D01*
X127672740Y-47052185D01*
X127755711Y-47177850D01*
X127817334Y-47407832D01*
X127410619Y-45889949D02*
X127036927Y-46335171D01*
X127558515Y-46441906D02*
X126592590Y-46700725D01*
X126493992Y-46332753D01*
X126515339Y-46228436D01*
X126549011Y-46170115D01*
X126628679Y-46099469D01*
X126766668Y-46062495D01*
X126870986Y-46083842D01*
X126929307Y-46117513D01*
X126999953Y-46197182D01*
X127098551Y-46565153D01*
X126244195Y-45216514D02*
X126222848Y-45320831D01*
X126259822Y-45458821D01*
X126342793Y-45584485D01*
X126459435Y-45651829D01*
X126563753Y-45673176D01*
X126760063Y-45669873D01*
X126898053Y-45632899D01*
X127069714Y-45537604D01*
X127149382Y-45466958D01*
X127216726Y-45350316D01*
X127225748Y-45200002D01*
X127201099Y-45108009D01*
X127118128Y-44982344D01*
X127059807Y-44948672D01*
X126737832Y-45034945D01*
X126787130Y-45218931D01*
X126448643Y-44323651D02*
X126457665Y-44173337D01*
X126491337Y-44115016D01*
X126571005Y-44044370D01*
X126708995Y-44007396D01*
X126813313Y-44028743D01*
X126871634Y-44062415D01*
X126942280Y-44142083D01*
X127040877Y-44510055D01*
X126074951Y-44768874D01*
X125988678Y-44446898D01*
X126010026Y-44342581D01*
X126043697Y-44284259D01*
X126123365Y-44213614D01*
X126215358Y-44188964D01*
X126319676Y-44210311D01*
X126377997Y-44243983D01*
X126448643Y-44323651D01*
X126534916Y-44645626D01*
X131570560Y-45689790D02*
X132450213Y-45108995D01*
X131398014Y-45045839D01*
X131336390Y-44815857D02*
X131176169Y-44217903D01*
X131630414Y-44441280D01*
X131593440Y-44303291D01*
X131614787Y-44198973D01*
X131648459Y-44140652D01*
X131728127Y-44070006D01*
X131958109Y-44008383D01*
X132062427Y-44029730D01*
X132120748Y-44063401D01*
X132191394Y-44143070D01*
X132265342Y-44419048D01*
X132243995Y-44523366D01*
X132210323Y-44581687D01*
X131939180Y-43569765D02*
X131972851Y-43511444D01*
X132031172Y-43545115D01*
X131997501Y-43603437D01*
X131939180Y-43569765D01*
X132031172Y-43545115D01*
X130966649Y-43435963D02*
X130806428Y-42838009D01*
X131260672Y-43061386D01*
X131223698Y-42923397D01*
X131245045Y-42819079D01*
X131278717Y-42760758D01*
X131358385Y-42690112D01*
X131588368Y-42628489D01*
X131692685Y-42649836D01*
X131751006Y-42683507D01*
X131821652Y-42763176D01*
X131895601Y-43039154D01*
X131874254Y-43143472D01*
X131840582Y-43201793D01*
X134225582Y-45630110D02*
X135105235Y-45049315D01*
X134053036Y-44986159D01*
X134784792Y-43853407D02*
X134411100Y-44298630D01*
X134932688Y-44405365D02*
X133966763Y-44664184D01*
X133868165Y-44296212D01*
X133889512Y-44191895D01*
X133923184Y-44133573D01*
X134002852Y-44062927D01*
X134140841Y-44025953D01*
X134245159Y-44047300D01*
X134303480Y-44080972D01*
X134374126Y-44160640D01*
X134472724Y-44528612D01*
X133618368Y-43179972D02*
X133597021Y-43284290D01*
X133633995Y-43422279D01*
X133716966Y-43547944D01*
X133833608Y-43615287D01*
X133937926Y-43636635D01*
X134134237Y-43633332D01*
X134272226Y-43596358D01*
X134443887Y-43501063D01*
X134523555Y-43430417D01*
X134590899Y-43313774D01*
X134599921Y-43163460D01*
X134575272Y-43071467D01*
X134492301Y-42945803D01*
X134433980Y-42912131D01*
X134112005Y-42998404D01*
X134161303Y-43182390D01*
X133822816Y-42287110D02*
X133831839Y-42136796D01*
X133865510Y-42078475D01*
X133945179Y-42007829D01*
X134083168Y-41970854D01*
X134187486Y-41992202D01*
X134245807Y-42025873D01*
X134316453Y-42105541D01*
X134415050Y-42473513D01*
X133449125Y-42732332D01*
X133362852Y-42410357D01*
X133384199Y-42306039D01*
X133417870Y-42247718D01*
X133497539Y-42177072D01*
X133589531Y-42152423D01*
X133693849Y-42173770D01*
X133752170Y-42207442D01*
X133822816Y-42287110D01*
X133909089Y-42609085D01*
%TO.C,SW28*%
X132690476Y-96859761D02*
X132833333Y-96907380D01*
X133071428Y-96907380D01*
X133166666Y-96859761D01*
X133214285Y-96812142D01*
X133261904Y-96716904D01*
X133261904Y-96621666D01*
X133214285Y-96526428D01*
X133166666Y-96478809D01*
X133071428Y-96431190D01*
X132880952Y-96383571D01*
X132785714Y-96335952D01*
X132738095Y-96288333D01*
X132690476Y-96193095D01*
X132690476Y-96097857D01*
X132738095Y-96002619D01*
X132785714Y-95955000D01*
X132880952Y-95907380D01*
X133119047Y-95907380D01*
X133261904Y-95955000D01*
X133595238Y-95907380D02*
X133833333Y-96907380D01*
X134023809Y-96193095D01*
X134214285Y-96907380D01*
X134452380Y-95907380D01*
X134785714Y-96002619D02*
X134833333Y-95955000D01*
X134928571Y-95907380D01*
X135166666Y-95907380D01*
X135261904Y-95955000D01*
X135309523Y-96002619D01*
X135357142Y-96097857D01*
X135357142Y-96193095D01*
X135309523Y-96335952D01*
X134738095Y-96907380D01*
X135357142Y-96907380D01*
X135928571Y-96335952D02*
X135833333Y-96288333D01*
X135785714Y-96240714D01*
X135738095Y-96145476D01*
X135738095Y-96097857D01*
X135785714Y-96002619D01*
X135833333Y-95955000D01*
X135928571Y-95907380D01*
X136119047Y-95907380D01*
X136214285Y-95955000D01*
X136261904Y-96002619D01*
X136309523Y-96097857D01*
X136309523Y-96145476D01*
X136261904Y-96240714D01*
X136214285Y-96288333D01*
X136119047Y-96335952D01*
X135928571Y-96335952D01*
X135833333Y-96383571D01*
X135785714Y-96431190D01*
X135738095Y-96526428D01*
X135738095Y-96716904D01*
X135785714Y-96812142D01*
X135833333Y-96859761D01*
X135928571Y-96907380D01*
X136119047Y-96907380D01*
X136214285Y-96859761D01*
X136261904Y-96812142D01*
X136309523Y-96716904D01*
X136309523Y-96526428D01*
X136261904Y-96431190D01*
X136214285Y-96383571D01*
X136119047Y-96335952D01*
D13*
%TO.C,D12*%
X71860000Y-79265000D02*
X73330000Y-79265000D01*
D10*
%TO.C,SW7*%
X55530000Y-93475000D02*
X55530000Y-92475000D01*
X69530000Y-93475000D02*
X68530000Y-93475000D01*
X56530000Y-93475000D02*
X55530000Y-93475000D01*
X55530000Y-79475000D02*
X56530000Y-79475000D01*
X55530000Y-80475000D02*
X55530000Y-79475000D01*
X68530000Y-79475000D02*
X69530000Y-79475000D01*
X69530000Y-92475000D02*
X69530000Y-93475000D01*
X69530000Y-79475000D02*
X69530000Y-80475000D01*
D13*
%TO.C,C114*%
X80871252Y-123800000D02*
X80348748Y-123800000D01*
X80871252Y-125270000D02*
X80348748Y-125270000D01*
%TO.C,C127*%
X134871252Y-89220000D02*
X134348748Y-89220000D01*
X134871252Y-87750000D02*
X134348748Y-87750000D01*
%TO.C,C132*%
X150833119Y-134226321D02*
X151324112Y-134405028D01*
X151335888Y-132844972D02*
X151826881Y-133023679D01*
D10*
%TO.C,SW8*%
X56530000Y-112475000D02*
X55530000Y-112475000D01*
X69530000Y-112475000D02*
X68530000Y-112475000D01*
X55530000Y-99475000D02*
X55530000Y-98475000D01*
X55530000Y-98475000D02*
X56530000Y-98475000D01*
X68530000Y-98475000D02*
X69530000Y-98475000D01*
X69530000Y-111475000D02*
X69530000Y-112475000D01*
X69530000Y-98475000D02*
X69530000Y-99475000D01*
X55530000Y-112475000D02*
X55530000Y-111475000D01*
%TO.C,SW14*%
X73530000Y-123475000D02*
X73530000Y-122475000D01*
X73530000Y-109475000D02*
X74530000Y-109475000D01*
X74530000Y-123475000D02*
X73530000Y-123475000D01*
X87530000Y-109475000D02*
X87530000Y-110475000D01*
X87530000Y-123475000D02*
X86530000Y-123475000D01*
X86530000Y-109475000D02*
X87530000Y-109475000D01*
X87530000Y-122475000D02*
X87530000Y-123475000D01*
X73530000Y-110475000D02*
X73530000Y-109475000D01*
D13*
%TO.C,D23*%
X107800000Y-91015000D02*
X109270000Y-91015000D01*
%TO.C,D36*%
X95840000Y-130655000D02*
X95840000Y-129185000D01*
D10*
%TO.C,SW5*%
X51530000Y-137475000D02*
X52530000Y-137475000D01*
X38530000Y-138475000D02*
X38530000Y-137475000D01*
X52530000Y-150475000D02*
X52530000Y-151475000D01*
X52530000Y-137475000D02*
X52530000Y-138475000D01*
X52530000Y-151475000D02*
X51530000Y-151475000D01*
X38530000Y-137475000D02*
X39530000Y-137475000D01*
X38530000Y-151475000D02*
X38530000Y-150475000D01*
X39530000Y-151475000D02*
X38530000Y-151475000D01*
D14*
%TO.C,D123*%
X119355600Y-100785600D02*
X118755600Y-100785600D01*
X118755600Y-100785600D02*
X118755600Y-100185600D01*
X118755600Y-100185600D02*
X119355600Y-100785600D01*
G36*
X119355600Y-100785600D02*
G01*
X118755600Y-100785600D01*
X118755600Y-100185600D01*
X119355600Y-100785600D01*
G37*
X119355600Y-100785600D02*
X118755600Y-100785600D01*
X118755600Y-100185600D01*
X119355600Y-100785600D01*
D13*
%TO.C,JP9*%
X153940000Y-75030000D02*
X156740000Y-75030000D01*
X153940000Y-77030000D02*
X153940000Y-75030000D01*
X156740000Y-75030000D02*
X156740000Y-77030000D01*
X156740000Y-77030000D02*
X153940000Y-77030000D01*
D10*
%TO.C,SW30*%
X144038567Y-149192288D02*
X143779747Y-150158214D01*
X146437288Y-136376433D02*
X147403214Y-136635253D01*
X143779747Y-150158214D02*
X142813822Y-149899395D01*
X147403214Y-136635253D02*
X147144395Y-137601178D01*
X133880253Y-133011786D02*
X134846178Y-133270605D01*
X131222712Y-146793567D02*
X130256786Y-146534747D01*
X130256786Y-146534747D02*
X130515605Y-145568822D01*
X133621433Y-133977712D02*
X133880253Y-133011786D01*
D13*
%TO.C,C121*%
X116078748Y-68190000D02*
X116601252Y-68190000D01*
X116078748Y-66720000D02*
X116601252Y-66720000D01*
%TO.C,C107*%
X62901252Y-93730000D02*
X62378748Y-93730000D01*
X62901252Y-95200000D02*
X62378748Y-95200000D01*
D14*
%TO.C,D109*%
X59755600Y-130585600D02*
X60355600Y-130585600D01*
X60355600Y-130585600D02*
X60355600Y-131185600D01*
X60355600Y-131185600D02*
X59755600Y-130585600D01*
G36*
X60355600Y-131185600D02*
G01*
X59755600Y-130585600D01*
X60355600Y-130585600D01*
X60355600Y-131185600D01*
G37*
X60355600Y-131185600D02*
X59755600Y-130585600D01*
X60355600Y-130585600D01*
X60355600Y-131185600D01*
%TO.C,D108*%
X65355600Y-108785600D02*
X64755600Y-108785600D01*
X64755600Y-108785600D02*
X64755600Y-108185600D01*
X64755600Y-108185600D02*
X65355600Y-108785600D01*
G36*
X65355600Y-108785600D02*
G01*
X64755600Y-108785600D01*
X64755600Y-108185600D01*
X65355600Y-108785600D01*
G37*
X65355600Y-108785600D02*
X64755600Y-108785600D01*
X64755600Y-108185600D01*
X65355600Y-108785600D01*
D13*
%TO.C,D29*%
X124600000Y-116415000D02*
X126070000Y-116415000D01*
%TO.C,D33*%
X88510000Y-132855000D02*
X88510000Y-131385000D01*
D14*
%TO.C,D44*%
X155617686Y-130172508D02*
X155053870Y-129967296D01*
X155053870Y-129967296D02*
X155259082Y-129403480D01*
X155259082Y-129403480D02*
X155617686Y-130172508D01*
G36*
X155617686Y-130172508D02*
G01*
X155053870Y-129967296D01*
X155259082Y-129403480D01*
X155617686Y-130172508D01*
G37*
X155617686Y-130172508D02*
X155053870Y-129967296D01*
X155259082Y-129403480D01*
X155617686Y-130172508D01*
D13*
%TO.C,D10*%
X70910000Y-140335000D02*
X72380000Y-140335000D01*
%TO.C,D1*%
X52840000Y-65635000D02*
X54310000Y-65635000D01*
D11*
%TO.C,IC2*%
X88190000Y-77365000D02*
X88190000Y-75065000D01*
X91190000Y-75065000D02*
X91190000Y-77365000D01*
X91190000Y-77365000D02*
X88190000Y-77365000D01*
X88190000Y-75065000D02*
X91190000Y-75065000D01*
X88140000Y-79115000D02*
X88140000Y-77715000D01*
D14*
%TO.C,D112*%
X77755600Y-84585600D02*
X78355600Y-84585600D01*
X78355600Y-84585600D02*
X78355600Y-85185600D01*
X78355600Y-85185600D02*
X77755600Y-84585600D01*
G36*
X78355600Y-85185600D02*
G01*
X77755600Y-84585600D01*
X78355600Y-84585600D01*
X78355600Y-85185600D01*
G37*
X78355600Y-85185600D02*
X77755600Y-84585600D01*
X78355600Y-84585600D01*
X78355600Y-85185600D01*
D10*
%TO.C,SW20*%
X106530000Y-134475000D02*
X106530000Y-135475000D01*
X93530000Y-148475000D02*
X92530000Y-148475000D01*
X92530000Y-134475000D02*
X93530000Y-134475000D01*
X105530000Y-134475000D02*
X106530000Y-134475000D01*
X106530000Y-147475000D02*
X106530000Y-148475000D01*
X92530000Y-135475000D02*
X92530000Y-134475000D01*
X106530000Y-148475000D02*
X105530000Y-148475000D01*
X92530000Y-148475000D02*
X92530000Y-147475000D01*
D14*
%TO.C,D117*%
X95755600Y-80585600D02*
X96355600Y-80585600D01*
X96355600Y-80585600D02*
X96355600Y-81185600D01*
X96355600Y-81185600D02*
X95755600Y-80585600D01*
G36*
X96355600Y-81185600D02*
G01*
X95755600Y-80585600D01*
X96355600Y-80585600D01*
X96355600Y-81185600D01*
G37*
X96355600Y-81185600D02*
X95755600Y-80585600D01*
X96355600Y-80585600D01*
X96355600Y-81185600D01*
D10*
%TO.C,SW21*%
X123530000Y-66475000D02*
X122530000Y-66475000D01*
X123530000Y-52475000D02*
X123530000Y-53475000D01*
X109530000Y-52475000D02*
X110530000Y-52475000D01*
X122530000Y-52475000D02*
X123530000Y-52475000D01*
X110530000Y-66475000D02*
X109530000Y-66475000D01*
X109530000Y-66475000D02*
X109530000Y-65475000D01*
X109530000Y-53475000D02*
X109530000Y-52475000D01*
X123530000Y-65475000D02*
X123530000Y-66475000D01*
D14*
%TO.C,D116*%
X101355600Y-58785600D02*
X100755600Y-58785600D01*
X100755600Y-58785600D02*
X100755600Y-58185600D01*
X100755600Y-58185600D02*
X101355600Y-58785600D01*
G36*
X101355600Y-58785600D02*
G01*
X100755600Y-58785600D01*
X100755600Y-58185600D01*
X101355600Y-58785600D01*
G37*
X101355600Y-58785600D02*
X100755600Y-58785600D01*
X100755600Y-58185600D01*
X101355600Y-58785600D01*
%TO.C,D125*%
X121440684Y-142233625D02*
X120840684Y-142233625D01*
X120840684Y-142233625D02*
X120840684Y-141633625D01*
X120840684Y-141633625D02*
X121440684Y-142233625D01*
G36*
X121440684Y-142233625D02*
G01*
X120840684Y-142233625D01*
X120840684Y-141633625D01*
X121440684Y-142233625D01*
G37*
X121440684Y-142233625D02*
X120840684Y-142233625D01*
X120840684Y-141633625D01*
X121440684Y-142233625D01*
D10*
%TO.C,S2*%
X162172297Y-121549273D02*
X163111989Y-121891293D01*
X145168011Y-130258707D02*
X145510031Y-129319015D01*
X163111989Y-121891293D02*
X162769969Y-122830985D01*
X149956293Y-117103011D02*
X150895985Y-117445031D01*
X158323707Y-135046989D02*
X157384015Y-134704969D01*
X158665727Y-134107297D02*
X158323707Y-135046989D01*
X149614273Y-118042703D02*
X149956293Y-117103011D01*
X146107703Y-130600727D02*
X145168011Y-130258707D01*
D13*
%TO.C,D18*%
X105830000Y-90955000D02*
X107300000Y-90955000D01*
%TO.C,D11*%
X71770000Y-63145000D02*
X73240000Y-63145000D01*
%TO.C,D35*%
X88510000Y-130645000D02*
X88510000Y-129175000D01*
%TO.C,C113*%
X80271248Y-106180000D02*
X80793752Y-106180000D01*
X80271248Y-104710000D02*
X80793752Y-104710000D01*
%TO.C,C106*%
X62328748Y-74750000D02*
X62851252Y-74750000D01*
X62328748Y-76220000D02*
X62851252Y-76220000D01*
%TO.C,D16*%
X105800000Y-56925000D02*
X107270000Y-56925000D01*
%TO.C,C123*%
X115781248Y-106280000D02*
X116303752Y-106280000D01*
X115781248Y-104810000D02*
X116303752Y-104810000D01*
%TO.C,D14*%
X71820000Y-118805000D02*
X73290000Y-118805000D01*
D10*
%TO.C,SW10*%
X56530000Y-137475000D02*
X56530000Y-136475000D01*
X70530000Y-150475000D02*
X69530000Y-150475000D01*
X69530000Y-136475000D02*
X70530000Y-136475000D01*
X70530000Y-149475000D02*
X70530000Y-150475000D01*
X57530000Y-150475000D02*
X56530000Y-150475000D01*
X56530000Y-136475000D02*
X57530000Y-136475000D01*
X70530000Y-136475000D02*
X70530000Y-137475000D01*
X56530000Y-150475000D02*
X56530000Y-149475000D01*
D14*
%TO.C,D102*%
X41755600Y-93585600D02*
X42355600Y-93585600D01*
X42355600Y-93585600D02*
X42355600Y-94185600D01*
X42355600Y-94185600D02*
X41755600Y-93585600D01*
G36*
X42355600Y-94185600D02*
G01*
X41755600Y-93585600D01*
X42355600Y-93585600D01*
X42355600Y-94185600D01*
G37*
X42355600Y-94185600D02*
X41755600Y-93585600D01*
X42355600Y-93585600D01*
X42355600Y-94185600D01*
D10*
%TO.C,SW24*%
X123530000Y-109475000D02*
X123530000Y-110475000D01*
X123530000Y-122475000D02*
X123530000Y-123475000D01*
X123530000Y-123475000D02*
X122530000Y-123475000D01*
X122530000Y-109475000D02*
X123530000Y-109475000D01*
X109530000Y-123475000D02*
X109530000Y-122475000D01*
X110530000Y-123475000D02*
X109530000Y-123475000D01*
X109530000Y-110475000D02*
X109530000Y-109475000D01*
X109530000Y-109475000D02*
X110530000Y-109475000D01*
D13*
%TO.C,JP1*%
X154050000Y-65300000D02*
X154050000Y-63300000D01*
X156850000Y-65300000D02*
X154050000Y-65300000D01*
X154050000Y-63300000D02*
X156850000Y-63300000D01*
X156850000Y-63300000D02*
X156850000Y-65300000D01*
D10*
%TO.C,SW3*%
X38530000Y-113475000D02*
X37530000Y-113475000D01*
X51530000Y-112475000D02*
X51530000Y-113475000D01*
X37530000Y-99475000D02*
X38530000Y-99475000D01*
X50530000Y-99475000D02*
X51530000Y-99475000D01*
X37530000Y-100475000D02*
X37530000Y-99475000D01*
X51530000Y-113475000D02*
X50530000Y-113475000D01*
X51530000Y-99475000D02*
X51530000Y-100475000D01*
X37530000Y-113475000D02*
X37530000Y-112475000D01*
%TO.C,SW16*%
X91530000Y-49475000D02*
X91530000Y-48475000D01*
X91530000Y-48475000D02*
X92530000Y-48475000D01*
X104530000Y-48475000D02*
X105530000Y-48475000D01*
X91530000Y-62475000D02*
X91530000Y-61475000D01*
X92530000Y-62475000D02*
X91530000Y-62475000D01*
X105530000Y-61475000D02*
X105530000Y-62475000D01*
X105530000Y-62475000D02*
X104530000Y-62475000D01*
X105530000Y-48475000D02*
X105530000Y-49475000D01*
D13*
%TO.C,D3*%
X51870000Y-103235000D02*
X53340000Y-103235000D01*
D14*
%TO.C,D126*%
X137355600Y-64785600D02*
X136755600Y-64785600D01*
X136755600Y-64785600D02*
X136755600Y-64185600D01*
X136755600Y-64185600D02*
X137355600Y-64785600D01*
G36*
X137355600Y-64785600D02*
G01*
X136755600Y-64785600D01*
X136755600Y-64185600D01*
X137355600Y-64785600D01*
G37*
X137355600Y-64785600D02*
X136755600Y-64785600D01*
X136755600Y-64185600D01*
X137355600Y-64785600D01*
D10*
%TO.C,SW11*%
X73530000Y-52475000D02*
X74530000Y-52475000D01*
X73530000Y-53475000D02*
X73530000Y-52475000D01*
X87530000Y-52475000D02*
X87530000Y-53475000D01*
X87530000Y-65475000D02*
X87530000Y-66475000D01*
X86530000Y-52475000D02*
X87530000Y-52475000D01*
X73530000Y-66475000D02*
X73530000Y-65475000D01*
X87530000Y-66475000D02*
X86530000Y-66475000D01*
X74530000Y-66475000D02*
X73530000Y-66475000D01*
D13*
%TO.C,D40*%
X130110000Y-133335000D02*
X130110000Y-131865000D01*
%TO.C,D24*%
X107810000Y-111045000D02*
X109280000Y-111045000D01*
D14*
%TO.C,D118*%
X101355600Y-96785600D02*
X100755600Y-96785600D01*
X100755600Y-96785600D02*
X100755600Y-96185600D01*
X100755600Y-96185600D02*
X101355600Y-96785600D01*
G36*
X101355600Y-96785600D02*
G01*
X100755600Y-96785600D01*
X100755600Y-96185600D01*
X101355600Y-96785600D01*
G37*
X101355600Y-96785600D02*
X100755600Y-96785600D01*
X100755600Y-96185600D01*
X101355600Y-96785600D01*
D13*
%TO.C,IC6*%
X172013630Y-91696630D02*
X172112117Y-90832223D01*
X173038403Y-90917630D02*
X172020170Y-91727569D01*
X172112117Y-90832223D02*
X173036139Y-90937502D01*
%TO.C,R1*%
X142390000Y-66007500D02*
X143900000Y-66007500D01*
X143900000Y-66007500D02*
X143900000Y-65327500D01*
X143900000Y-65327500D02*
X142390000Y-65327500D01*
X142390000Y-65327500D02*
X142390000Y-66007500D01*
%TO.C,C108*%
X62141248Y-112750000D02*
X62663752Y-112750000D01*
X62141248Y-114220000D02*
X62663752Y-114220000D01*
%TO.C,D30*%
X129770918Y-139140422D02*
X131190829Y-139520886D01*
D14*
%TO.C,D129*%
X131755600Y-124585600D02*
X132355600Y-124585600D01*
X132355600Y-124585600D02*
X132355600Y-125185600D01*
X132355600Y-125185600D02*
X131755600Y-124585600D01*
G36*
X132355600Y-125185600D02*
G01*
X131755600Y-124585600D01*
X132355600Y-124585600D01*
X132355600Y-125185600D01*
G37*
X132355600Y-125185600D02*
X131755600Y-124585600D01*
X132355600Y-124585600D01*
X132355600Y-125185600D01*
D10*
%TO.C,SW1*%
X37530000Y-75475000D02*
X37530000Y-74475000D01*
X51530000Y-74475000D02*
X51530000Y-75475000D01*
X37530000Y-61475000D02*
X38530000Y-61475000D01*
X38530000Y-75475000D02*
X37530000Y-75475000D01*
X51530000Y-75475000D02*
X50530000Y-75475000D01*
X50530000Y-61475000D02*
X51530000Y-61475000D01*
X37530000Y-62475000D02*
X37530000Y-61475000D01*
X51530000Y-61475000D02*
X51530000Y-62475000D01*
D13*
%TO.C,D2*%
X52120000Y-84865000D02*
X53590000Y-84865000D01*
%TO.C,D15*%
X72900000Y-140335000D02*
X74370000Y-140335000D01*
D10*
%TO.C,SW4*%
X51530000Y-118475000D02*
X51530000Y-119475000D01*
X37530000Y-119475000D02*
X37530000Y-118475000D01*
X50530000Y-118475000D02*
X51530000Y-118475000D01*
X37530000Y-132475000D02*
X37530000Y-131475000D01*
X51530000Y-131475000D02*
X51530000Y-132475000D01*
X37530000Y-118475000D02*
X38530000Y-118475000D01*
X38530000Y-132475000D02*
X37530000Y-132475000D01*
X51530000Y-132475000D02*
X50530000Y-132475000D01*
D13*
%TO.C,D17*%
X105720000Y-73495000D02*
X107190000Y-73495000D01*
%TO.C,C119*%
X98881252Y-119920000D02*
X98358748Y-119920000D01*
X98881252Y-121390000D02*
X98358748Y-121390000D01*
%TO.C,D7*%
X69890000Y-79275000D02*
X71360000Y-79275000D01*
%TO.C,C104*%
X44631252Y-132820000D02*
X44108748Y-132820000D01*
X44631252Y-134290000D02*
X44108748Y-134290000D01*
D10*
%TO.C,SW13*%
X87530000Y-103475000D02*
X87530000Y-104475000D01*
X73530000Y-90475000D02*
X74530000Y-90475000D01*
X86530000Y-90475000D02*
X87530000Y-90475000D01*
X73530000Y-104475000D02*
X73530000Y-103475000D01*
X87530000Y-104475000D02*
X86530000Y-104475000D01*
X87530000Y-90475000D02*
X87530000Y-91475000D01*
X73530000Y-91475000D02*
X73530000Y-90475000D01*
X74530000Y-104475000D02*
X73530000Y-104475000D01*
D13*
%TO.C,D32*%
X108350000Y-133845000D02*
X108350000Y-132375000D01*
D14*
%TO.C,D110*%
X66355600Y-146785600D02*
X65755600Y-146785600D01*
X65755600Y-146785600D02*
X65755600Y-146185600D01*
X65755600Y-146185600D02*
X66355600Y-146785600D01*
G36*
X66355600Y-146785600D02*
G01*
X65755600Y-146785600D01*
X65755600Y-146185600D01*
X66355600Y-146785600D01*
G37*
X66355600Y-146785600D02*
X65755600Y-146785600D01*
X65755600Y-146185600D01*
X66355600Y-146785600D01*
D13*
%TO.C,D13*%
X71800000Y-100835000D02*
X73270000Y-100835000D01*
D10*
%TO.C,SW15*%
X88530000Y-149475000D02*
X87530000Y-149475000D01*
X74530000Y-149475000D02*
X74530000Y-148475000D01*
X74530000Y-135475000D02*
X75530000Y-135475000D01*
X87530000Y-135475000D02*
X88530000Y-135475000D01*
X88530000Y-135475000D02*
X88530000Y-136475000D01*
X88530000Y-148475000D02*
X88530000Y-149475000D01*
X74530000Y-136475000D02*
X74530000Y-135475000D01*
X75530000Y-149475000D02*
X74530000Y-149475000D01*
D14*
%TO.C,D114*%
X77755600Y-122585600D02*
X78355600Y-122585600D01*
X78355600Y-122585600D02*
X78355600Y-123185600D01*
X78355600Y-123185600D02*
X77755600Y-122585600D01*
G36*
X78355600Y-123185600D02*
G01*
X77755600Y-122585600D01*
X78355600Y-122585600D01*
X78355600Y-123185600D01*
G37*
X78355600Y-123185600D02*
X77755600Y-122585600D01*
X78355600Y-122585600D01*
X78355600Y-123185600D01*
D13*
%TO.C,C125*%
X118408748Y-146230000D02*
X118931252Y-146230000D01*
X118408748Y-147700000D02*
X118931252Y-147700000D01*
D14*
%TO.C,D113*%
X83355600Y-100785600D02*
X82755600Y-100785600D01*
X82755600Y-100785600D02*
X82755600Y-100185600D01*
X82755600Y-100185600D02*
X83355600Y-100785600D01*
G36*
X83355600Y-100785600D02*
G01*
X82755600Y-100785600D01*
X82755600Y-100185600D01*
X83355600Y-100785600D01*
G37*
X83355600Y-100785600D02*
X82755600Y-100785600D01*
X82755600Y-100185600D01*
X83355600Y-100785600D01*
%TO.C,D119*%
X95755600Y-118585600D02*
X96355600Y-118585600D01*
X96355600Y-118585600D02*
X96355600Y-119185600D01*
X96355600Y-119185600D02*
X95755600Y-118585600D01*
G36*
X96355600Y-119185600D02*
G01*
X95755600Y-118585600D01*
X96355600Y-118585600D01*
X96355600Y-119185600D01*
G37*
X96355600Y-119185600D02*
X95755600Y-118585600D01*
X96355600Y-118585600D01*
X96355600Y-119185600D01*
D10*
%TO.C,SW18*%
X91530000Y-86475000D02*
X92530000Y-86475000D01*
X92530000Y-100475000D02*
X91530000Y-100475000D01*
X91530000Y-100475000D02*
X91530000Y-99475000D01*
X104530000Y-86475000D02*
X105530000Y-86475000D01*
X105530000Y-86475000D02*
X105530000Y-87475000D01*
X105530000Y-99475000D02*
X105530000Y-100475000D01*
X91530000Y-87475000D02*
X91530000Y-86475000D01*
X105530000Y-100475000D02*
X104530000Y-100475000D01*
D14*
%TO.C,D128*%
X137355600Y-102785600D02*
X136755600Y-102785600D01*
X136755600Y-102785600D02*
X136755600Y-102185600D01*
X136755600Y-102185600D02*
X137355600Y-102785600D01*
G36*
X137355600Y-102785600D02*
G01*
X136755600Y-102785600D01*
X136755600Y-102185600D01*
X137355600Y-102785600D01*
G37*
X137355600Y-102785600D02*
X136755600Y-102785600D01*
X136755600Y-102185600D01*
X137355600Y-102785600D01*
D13*
%TO.C,C130*%
X136247418Y-150007338D02*
X136752118Y-150142572D01*
X136627882Y-148587428D02*
X137132582Y-148722662D01*
%TO.C,JP7*%
X156779998Y-73090002D02*
X153979998Y-73090002D01*
X156779998Y-71090002D02*
X156779998Y-73090002D01*
X153979998Y-71090002D02*
X156779998Y-71090002D01*
X153979998Y-73090002D02*
X153979998Y-71090002D01*
D14*
%TO.C,D115*%
X84355600Y-145785600D02*
X83755600Y-145785600D01*
X83755600Y-145785600D02*
X83755600Y-145185600D01*
X83755600Y-145185600D02*
X84355600Y-145785600D01*
G36*
X84355600Y-145785600D02*
G01*
X83755600Y-145785600D01*
X83755600Y-145185600D01*
X84355600Y-145785600D01*
G37*
X84355600Y-145785600D02*
X83755600Y-145785600D01*
X83755600Y-145185600D01*
X84355600Y-145785600D01*
D13*
%TO.C,C120*%
X99398748Y-150310000D02*
X99921252Y-150310000D01*
X99398748Y-148840000D02*
X99921252Y-148840000D01*
%TO.C,D6*%
X69800000Y-63135000D02*
X71270000Y-63135000D01*
D10*
%TO.C,SW22*%
X123530000Y-85475000D02*
X122530000Y-85475000D01*
X109530000Y-85475000D02*
X109530000Y-84475000D01*
X109530000Y-71475000D02*
X110530000Y-71475000D01*
X109530000Y-72475000D02*
X109530000Y-71475000D01*
X123530000Y-84475000D02*
X123530000Y-85475000D01*
X122530000Y-71475000D02*
X123530000Y-71475000D01*
X123530000Y-71475000D02*
X123530000Y-72475000D01*
X110530000Y-85475000D02*
X109530000Y-85475000D01*
D14*
%TO.C,D104*%
X41755600Y-131585600D02*
X42355600Y-131585600D01*
X42355600Y-131585600D02*
X42355600Y-132185600D01*
X42355600Y-132185600D02*
X41755600Y-131585600D01*
G36*
X42355600Y-132185600D02*
G01*
X41755600Y-131585600D01*
X42355600Y-131585600D01*
X42355600Y-132185600D01*
G37*
X42355600Y-132185600D02*
X41755600Y-131585600D01*
X42355600Y-131585600D01*
X42355600Y-132185600D01*
D11*
%TO.C,IC5*%
X92132391Y-138603820D02*
X92132391Y-140903820D01*
X89132391Y-138603820D02*
X92132391Y-138603820D01*
X89132391Y-140903820D02*
X89132391Y-138603820D01*
X89082391Y-142653820D02*
X89082391Y-141253820D01*
X92132391Y-140903820D02*
X89132391Y-140903820D01*
D13*
%TO.C,C111*%
X80118748Y-68180000D02*
X80641252Y-68180000D01*
X80118748Y-66710000D02*
X80641252Y-66710000D01*
%TO.C,D26*%
X124910000Y-58155000D02*
X126380000Y-58155000D01*
D10*
%TO.C,SW2*%
X37530000Y-80475000D02*
X38530000Y-80475000D01*
X51530000Y-94475000D02*
X50530000Y-94475000D01*
X50530000Y-80475000D02*
X51530000Y-80475000D01*
X37530000Y-94475000D02*
X37530000Y-93475000D01*
X51530000Y-80475000D02*
X51530000Y-81475000D01*
X51530000Y-93475000D02*
X51530000Y-94475000D01*
X38530000Y-94475000D02*
X37530000Y-94475000D01*
X37530000Y-81475000D02*
X37530000Y-80475000D01*
%TO.C,SW17*%
X105530000Y-81475000D02*
X104530000Y-81475000D01*
X92530000Y-81475000D02*
X91530000Y-81475000D01*
X104530000Y-67475000D02*
X105530000Y-67475000D01*
X91530000Y-67475000D02*
X92530000Y-67475000D01*
X105530000Y-80475000D02*
X105530000Y-81475000D01*
X91530000Y-81475000D02*
X91530000Y-80475000D01*
X105530000Y-67475000D02*
X105530000Y-68475000D01*
X91530000Y-68475000D02*
X91530000Y-67475000D01*
D14*
%TO.C,D120*%
X102355600Y-144785600D02*
X101755600Y-144785600D01*
X101755600Y-144785600D02*
X101755600Y-144185600D01*
X101755600Y-144185600D02*
X102355600Y-144785600D01*
G36*
X102355600Y-144785600D02*
G01*
X101755600Y-144785600D01*
X101755600Y-144185600D01*
X102355600Y-144785600D01*
G37*
X102355600Y-144785600D02*
X101755600Y-144785600D01*
X101755600Y-144185600D01*
X102355600Y-144785600D01*
D13*
%TO.C,C109*%
X62883752Y-131670000D02*
X62361248Y-131670000D01*
X62883752Y-133140000D02*
X62361248Y-133140000D01*
D10*
%TO.C,SW27*%
X127530000Y-87475000D02*
X127530000Y-86475000D01*
X141530000Y-86475000D02*
X141530000Y-87475000D01*
X128530000Y-87475000D02*
X127530000Y-87475000D01*
X140530000Y-73475000D02*
X141530000Y-73475000D01*
X141530000Y-73475000D02*
X141530000Y-74475000D01*
X127530000Y-73475000D02*
X128530000Y-73475000D01*
X141530000Y-87475000D02*
X140530000Y-87475000D01*
X127530000Y-74475000D02*
X127530000Y-73475000D01*
D13*
%TO.C,C122*%
X116881252Y-85860000D02*
X116358748Y-85860000D01*
X116881252Y-87330000D02*
X116358748Y-87330000D01*
%TO.C,C115*%
X81248748Y-151300000D02*
X81771252Y-151300000D01*
X81248748Y-149830000D02*
X81771252Y-149830000D01*
D10*
%TO.C,SW23*%
X123530000Y-104475000D02*
X122530000Y-104475000D01*
X109530000Y-91475000D02*
X109530000Y-90475000D01*
X109530000Y-104475000D02*
X109530000Y-103475000D01*
X110530000Y-104475000D02*
X109530000Y-104475000D01*
X123530000Y-103475000D02*
X123530000Y-104475000D01*
X123530000Y-90475000D02*
X123530000Y-91475000D01*
X122530000Y-90475000D02*
X123530000Y-90475000D01*
X109530000Y-90475000D02*
X110530000Y-90475000D01*
D13*
%TO.C,D38*%
X108350000Y-131735000D02*
X108350000Y-130265000D01*
%TO.C,D27*%
X124590000Y-75405000D02*
X126060000Y-75405000D01*
%TO.C,C129*%
X134761252Y-125710000D02*
X134238748Y-125710000D01*
X134761252Y-127180000D02*
X134238748Y-127180000D01*
D10*
%TO.C,SW25*%
X112615083Y-145923025D02*
X111615083Y-145923025D01*
X125615083Y-131923025D02*
X125615083Y-132923025D01*
X125615083Y-145923025D02*
X124615083Y-145923025D01*
X124615083Y-131923025D02*
X125615083Y-131923025D01*
X125615083Y-144923025D02*
X125615083Y-145923025D01*
X111615083Y-132923025D02*
X111615083Y-131923025D01*
X111615083Y-131923025D02*
X112615083Y-131923025D01*
X111615083Y-145923025D02*
X111615083Y-144923025D01*
%TO.C,SW26*%
X141530000Y-68475000D02*
X140530000Y-68475000D01*
X140530000Y-54475000D02*
X141530000Y-54475000D01*
X127530000Y-54475000D02*
X128530000Y-54475000D01*
X127530000Y-68475000D02*
X127530000Y-67475000D01*
X141530000Y-54475000D02*
X141530000Y-55475000D01*
X127530000Y-55475000D02*
X127530000Y-54475000D01*
X128530000Y-68475000D02*
X127530000Y-68475000D01*
X141530000Y-67475000D02*
X141530000Y-68475000D01*
D13*
%TO.C,D4*%
X51900000Y-121885000D02*
X53370000Y-121885000D01*
%TO.C,C131*%
X152736249Y-156780903D02*
X153188751Y-157042155D01*
X153471249Y-155507845D02*
X153923751Y-155769097D01*
%TO.C,C101*%
X44388748Y-77100000D02*
X44911252Y-77100000D01*
X44388748Y-75630000D02*
X44911252Y-75630000D01*
D10*
%TO.C,U4*%
X176420000Y-78767500D02*
X170320000Y-78767500D01*
X176420000Y-66667500D02*
X176420000Y-78767500D01*
X176170000Y-64667500D02*
X170570000Y-64667500D01*
X170320000Y-66667500D02*
X170320000Y-78767500D01*
X170570000Y-66667500D02*
X170570000Y-64667500D01*
X176170000Y-66667500D02*
X176170000Y-64667500D01*
X176420000Y-66667500D02*
X170320000Y-66667500D01*
D14*
%TO.C,D105*%
X48355600Y-147785600D02*
X47755600Y-147785600D01*
X47755600Y-147785600D02*
X47755600Y-147185600D01*
X47755600Y-147185600D02*
X48355600Y-147785600D01*
G36*
X48355600Y-147785600D02*
G01*
X47755600Y-147785600D01*
X47755600Y-147185600D01*
X48355600Y-147785600D01*
G37*
X48355600Y-147785600D02*
X47755600Y-147785600D01*
X47755600Y-147185600D01*
X48355600Y-147785600D01*
D13*
%TO.C,D5*%
X53430000Y-141075000D02*
X54900000Y-141075000D01*
%TO.C,C116*%
X97948748Y-63070000D02*
X98471252Y-63070000D01*
X97948748Y-64540000D02*
X98471252Y-64540000D01*
D14*
%TO.C,D121*%
X119355600Y-62785600D02*
X118755600Y-62785600D01*
X118755600Y-62785600D02*
X118755600Y-62185600D01*
X118755600Y-62185600D02*
X119355600Y-62785600D01*
G36*
X119355600Y-62785600D02*
G01*
X118755600Y-62785600D01*
X118755600Y-62185600D01*
X119355600Y-62785600D01*
G37*
X119355600Y-62785600D02*
X118755600Y-62785600D01*
X118755600Y-62185600D01*
X119355600Y-62785600D01*
D13*
%TO.C,D45*%
X142740000Y-92485000D02*
X144210000Y-92485000D01*
%TO.C,D22*%
X107820000Y-73545000D02*
X109290000Y-73545000D01*
D11*
%TO.C,IC3*%
X88250000Y-95895000D02*
X88250000Y-93595000D01*
X88200000Y-97645000D02*
X88200000Y-96245000D01*
X91250000Y-93595000D02*
X91250000Y-95895000D01*
X88250000Y-93595000D02*
X91250000Y-93595000D01*
X91250000Y-95895000D02*
X88250000Y-95895000D01*
D10*
%TO.C,S1*%
X148938338Y-152415660D02*
X148072312Y-151915660D01*
X154572312Y-140657330D02*
X155072312Y-139791304D01*
X148072312Y-151915660D02*
X148572312Y-151049634D01*
X167196668Y-146791304D02*
X166696668Y-147657330D01*
X155072312Y-139791304D02*
X155938338Y-140291304D01*
X160196668Y-158915660D02*
X159330642Y-158415660D01*
X166330642Y-146291304D02*
X167196668Y-146791304D01*
X160696668Y-158049634D02*
X160196668Y-158915660D01*
D13*
%TO.C,C112*%
X80811252Y-85820000D02*
X80288748Y-85820000D01*
X80811252Y-87290000D02*
X80288748Y-87290000D01*
%TO.C,C124*%
X116793752Y-123620000D02*
X116271248Y-123620000D01*
X116793752Y-125090000D02*
X116271248Y-125090000D01*
D14*
%TO.C,D130*%
X140702474Y-145514114D02*
X140122918Y-145358823D01*
X140122918Y-145358823D02*
X140278210Y-144779267D01*
X140278210Y-144779267D02*
X140702474Y-145514114D01*
G36*
X140702474Y-145514114D02*
G01*
X140122918Y-145358823D01*
X140278210Y-144779267D01*
X140702474Y-145514114D01*
G37*
X140702474Y-145514114D02*
X140122918Y-145358823D01*
X140278210Y-144779267D01*
X140702474Y-145514114D01*
D13*
%TO.C,C118*%
X98248748Y-102270000D02*
X98771252Y-102270000D01*
X98248748Y-100800000D02*
X98771252Y-100800000D01*
D14*
%TO.C,D124*%
X113755600Y-122585600D02*
X114355600Y-122585600D01*
X114355600Y-122585600D02*
X114355600Y-123185600D01*
X114355600Y-123185600D02*
X113755600Y-122585600D01*
G36*
X114355600Y-123185600D02*
G01*
X113755600Y-122585600D01*
X114355600Y-122585600D01*
X114355600Y-123185600D01*
G37*
X114355600Y-123185600D02*
X113755600Y-122585600D01*
X114355600Y-122585600D01*
X114355600Y-123185600D01*
D13*
%TO.C,C103*%
X44428748Y-113720000D02*
X44951252Y-113720000D01*
X44428748Y-115190000D02*
X44951252Y-115190000D01*
D10*
%TO.C,SW19*%
X105530000Y-118475000D02*
X105530000Y-119475000D01*
X105530000Y-105475000D02*
X105530000Y-106475000D01*
X92530000Y-119475000D02*
X91530000Y-119475000D01*
X105530000Y-119475000D02*
X104530000Y-119475000D01*
X91530000Y-119475000D02*
X91530000Y-118475000D01*
X104530000Y-105475000D02*
X105530000Y-105475000D01*
X91530000Y-106475000D02*
X91530000Y-105475000D01*
X91530000Y-105475000D02*
X92530000Y-105475000D01*
D13*
%TO.C,D9*%
X69860000Y-118805000D02*
X71330000Y-118805000D01*
%TO.C,C105*%
X45198748Y-153240000D02*
X45721252Y-153240000D01*
X45198748Y-151770000D02*
X45721252Y-151770000D01*
D10*
%TO.C,SW6*%
X69530000Y-73475000D02*
X69530000Y-74475000D01*
X55530000Y-74475000D02*
X55530000Y-73475000D01*
X69530000Y-74475000D02*
X68530000Y-74475000D01*
X68530000Y-60475000D02*
X69530000Y-60475000D01*
X55530000Y-60475000D02*
X56530000Y-60475000D01*
X56530000Y-74475000D02*
X55530000Y-74475000D01*
X69530000Y-60475000D02*
X69530000Y-61475000D01*
X55530000Y-61475000D02*
X55530000Y-60475000D01*
D13*
%TO.C,R2*%
X143890000Y-72125000D02*
X142380000Y-72125000D01*
X142380000Y-72125000D02*
X142380000Y-72805000D01*
X142380000Y-72805000D02*
X143890000Y-72805000D01*
X143890000Y-72805000D02*
X143890000Y-72125000D01*
D14*
%TO.C,D127*%
X131755600Y-86585600D02*
X132355600Y-86585600D01*
X132355600Y-86585600D02*
X132355600Y-87185600D01*
X132355600Y-87185600D02*
X131755600Y-86585600D01*
G36*
X132355600Y-87185600D02*
G01*
X131755600Y-86585600D01*
X132355600Y-86585600D01*
X132355600Y-87185600D01*
G37*
X132355600Y-87185600D02*
X131755600Y-86585600D01*
X132355600Y-86585600D01*
X132355600Y-87185600D01*
D13*
%TO.C,D21*%
X107840000Y-56925000D02*
X109310000Y-56925000D01*
%TO.C,JP11*%
X102093292Y-128881870D02*
X102093292Y-130881870D01*
X99293292Y-128881870D02*
X102093292Y-128881870D01*
X102093292Y-130881870D02*
X99293292Y-130881870D01*
X99293292Y-130881870D02*
X99293292Y-128881870D01*
%TO.C,JP13*%
X102575000Y-124185000D02*
X102575000Y-122185000D01*
X105375000Y-124185000D02*
X102575000Y-124185000D01*
X102575000Y-122185000D02*
X105375000Y-122185000D01*
X105375000Y-122185000D02*
X105375000Y-124185000D01*
D10*
%TO.C,SW29*%
X141530000Y-125475000D02*
X140530000Y-125475000D01*
X141530000Y-124475000D02*
X141530000Y-125475000D01*
X128530000Y-125475000D02*
X127530000Y-125475000D01*
X127530000Y-111475000D02*
X128530000Y-111475000D01*
X127530000Y-112475000D02*
X127530000Y-111475000D01*
X127530000Y-125475000D02*
X127530000Y-124475000D01*
X141530000Y-111475000D02*
X141530000Y-112475000D01*
X140530000Y-111475000D02*
X141530000Y-111475000D01*
D13*
%TO.C,D39*%
X92100000Y-124235000D02*
X92100000Y-122765000D01*
%TO.C,JP3*%
X153959998Y-68970002D02*
X153959998Y-66970002D01*
X156759998Y-68970002D02*
X153959998Y-68970002D01*
X153959998Y-66970002D02*
X156759998Y-66970002D01*
X156759998Y-66970002D02*
X156759998Y-68970002D01*
%TO.C,C110*%
X63318748Y-152220000D02*
X63841252Y-152220000D01*
X63318748Y-150750000D02*
X63841252Y-150750000D01*
%TO.C,D25*%
X109400000Y-139195000D02*
X110870000Y-139195000D01*
D14*
%TO.C,D122*%
X113755600Y-84585600D02*
X114355600Y-84585600D01*
X114355600Y-84585600D02*
X114355600Y-85185600D01*
X114355600Y-85185600D02*
X113755600Y-84585600D01*
G36*
X114355600Y-85185600D02*
G01*
X113755600Y-84585600D01*
X114355600Y-84585600D01*
X114355600Y-85185600D01*
G37*
X114355600Y-85185600D02*
X113755600Y-84585600D01*
X114355600Y-84585600D01*
X114355600Y-85185600D01*
D13*
%TO.C,JP5*%
X154084998Y-59630002D02*
X156884998Y-59630002D01*
X154084998Y-61630002D02*
X154084998Y-59630002D01*
X156884998Y-61630002D02*
X154084998Y-61630002D01*
X156884998Y-59630002D02*
X156884998Y-61630002D01*
%TO.C,D42*%
X99170000Y-124175000D02*
X99170000Y-122705000D01*
D10*
%TO.C,SW12*%
X73530000Y-72475000D02*
X73530000Y-71475000D01*
X73530000Y-71475000D02*
X74530000Y-71475000D01*
X86530000Y-71475000D02*
X87530000Y-71475000D01*
X87530000Y-84475000D02*
X87530000Y-85475000D01*
X74530000Y-85475000D02*
X73530000Y-85475000D01*
X73530000Y-85475000D02*
X73530000Y-84475000D01*
X87530000Y-71475000D02*
X87530000Y-72475000D01*
X87530000Y-85475000D02*
X86530000Y-85475000D01*
D13*
%TO.C,D20*%
X107350000Y-139182500D02*
X108820000Y-139182500D01*
D11*
%TO.C,IC1*%
X91115000Y-56169632D02*
X91115000Y-58469632D01*
X88115000Y-56169632D02*
X91115000Y-56169632D01*
X91115000Y-58469632D02*
X88115000Y-58469632D01*
X88065000Y-60219632D02*
X88065000Y-58819632D01*
X88115000Y-58469632D02*
X88115000Y-56169632D01*
D14*
%TO.C,D107*%
X59755600Y-92585600D02*
X60355600Y-92585600D01*
X60355600Y-92585600D02*
X60355600Y-93185600D01*
X60355600Y-93185600D02*
X59755600Y-92585600D01*
G36*
X60355600Y-93185600D02*
G01*
X59755600Y-92585600D01*
X60355600Y-92585600D01*
X60355600Y-93185600D01*
G37*
X60355600Y-93185600D02*
X59755600Y-92585600D01*
X60355600Y-92585600D01*
X60355600Y-93185600D01*
D10*
%TO.C,SW9*%
X68530000Y-117475000D02*
X69530000Y-117475000D01*
X69530000Y-130475000D02*
X69530000Y-131475000D01*
X69530000Y-117475000D02*
X69530000Y-118475000D01*
X56530000Y-131475000D02*
X55530000Y-131475000D01*
X55530000Y-131475000D02*
X55530000Y-130475000D01*
X55530000Y-117475000D02*
X56530000Y-117475000D01*
X69530000Y-131475000D02*
X68530000Y-131475000D01*
X55530000Y-118475000D02*
X55530000Y-117475000D01*
D13*
%TO.C,C102*%
X44951252Y-96130000D02*
X44428748Y-96130000D01*
X44951252Y-94660000D02*
X44428748Y-94660000D01*
D14*
%TO.C,D103*%
X47355600Y-109785600D02*
X46755600Y-109785600D01*
X46755600Y-109785600D02*
X46755600Y-109185600D01*
X46755600Y-109185600D02*
X47355600Y-109785600D01*
G36*
X47355600Y-109785600D02*
G01*
X46755600Y-109785600D01*
X46755600Y-109185600D01*
X47355600Y-109785600D01*
G37*
X47355600Y-109785600D02*
X46755600Y-109785600D01*
X46755600Y-109185600D01*
X47355600Y-109785600D01*
D13*
%TO.C,D19*%
X105780000Y-111045000D02*
X107250000Y-111045000D01*
%TO.C,D46*%
X142790000Y-100075000D02*
X144260000Y-100075000D01*
D14*
%TO.C,D111*%
X83355600Y-62785600D02*
X82755600Y-62785600D01*
X82755600Y-62785600D02*
X82755600Y-62185600D01*
X82755600Y-62185600D02*
X83355600Y-62785600D01*
G36*
X83355600Y-62785600D02*
G01*
X82755600Y-62785600D01*
X82755600Y-62185600D01*
X83355600Y-62785600D01*
G37*
X83355600Y-62785600D02*
X82755600Y-62785600D01*
X82755600Y-62185600D01*
X83355600Y-62785600D01*
D13*
%TO.C,D28*%
X124710000Y-92845000D02*
X126180000Y-92845000D01*
D14*
%TO.C,D101*%
X47355600Y-71785600D02*
X46755600Y-71785600D01*
X46755600Y-71785600D02*
X46755600Y-71185600D01*
X46755600Y-71185600D02*
X47355600Y-71785600D01*
G36*
X47355600Y-71785600D02*
G01*
X46755600Y-71785600D01*
X46755600Y-71185600D01*
X47355600Y-71785600D01*
G37*
X47355600Y-71785600D02*
X46755600Y-71785600D01*
X46755600Y-71185600D01*
X47355600Y-71785600D01*
D13*
%TO.C,JP15*%
X171420000Y-82520000D02*
X171120000Y-82820000D01*
X175570000Y-82270000D02*
X170070000Y-82270000D01*
X171120000Y-82820000D02*
X171720000Y-82820000D01*
X170070000Y-82270000D02*
X170070000Y-80320000D01*
X175570000Y-80320000D02*
X175570000Y-82270000D01*
X171720000Y-82820000D02*
X171420000Y-82520000D01*
X170070000Y-80320000D02*
X175570000Y-80320000D01*
%TO.C,D8*%
X69840000Y-100815000D02*
X71310000Y-100815000D01*
%TO.C,D41*%
X92100000Y-126435000D02*
X92100000Y-124965000D01*
D14*
%TO.C,D106*%
X65355600Y-70785600D02*
X64755600Y-70785600D01*
X64755600Y-70785600D02*
X64755600Y-70185600D01*
X64755600Y-70185600D02*
X65355600Y-70785600D01*
G36*
X65355600Y-70785600D02*
G01*
X64755600Y-70785600D01*
X64755600Y-70185600D01*
X65355600Y-70785600D01*
G37*
X65355600Y-70785600D02*
X64755600Y-70785600D01*
X64755600Y-70185600D01*
X65355600Y-70785600D01*
D10*
%TO.C,SW28*%
X140530000Y-92475000D02*
X141530000Y-92475000D01*
X141530000Y-105475000D02*
X141530000Y-106475000D01*
X127530000Y-93475000D02*
X127530000Y-92475000D01*
X127530000Y-106475000D02*
X127530000Y-105475000D01*
X141530000Y-106475000D02*
X140530000Y-106475000D01*
X128530000Y-106475000D02*
X127530000Y-106475000D01*
X141530000Y-92475000D02*
X141530000Y-93475000D01*
X127530000Y-92475000D02*
X128530000Y-92475000D01*
D11*
%TO.C,IC4*%
X88145000Y-115265402D02*
X88145000Y-112965402D01*
X91145000Y-112965402D02*
X91145000Y-115265402D01*
X91145000Y-115265402D02*
X88145000Y-115265402D01*
X88145000Y-112965402D02*
X91145000Y-112965402D01*
X88095000Y-117015402D02*
X88095000Y-115615402D01*
D14*
%TO.C,D43*%
X158311060Y-153681628D02*
X157791445Y-153381628D01*
X157791445Y-153381628D02*
X158091445Y-152862013D01*
X158091445Y-152862013D02*
X158311060Y-153681628D01*
G36*
X158311060Y-153681628D02*
G01*
X157791445Y-153381628D01*
X158091445Y-152862013D01*
X158311060Y-153681628D01*
G37*
X158311060Y-153681628D02*
X157791445Y-153381628D01*
X158091445Y-152862013D01*
X158311060Y-153681628D01*
D13*
%TO.C,C128*%
X134278748Y-108140000D02*
X134801252Y-108140000D01*
X134278748Y-106670000D02*
X134801252Y-106670000D01*
%TO.C,C117*%
X98641252Y-83390000D02*
X98118748Y-83390000D01*
X98641252Y-81920000D02*
X98118748Y-81920000D01*
%TO.C,C126*%
X134178748Y-68930000D02*
X134701252Y-68930000D01*
X134178748Y-70400000D02*
X134701252Y-70400000D01*
%TO.C,D34*%
X130100000Y-135315000D02*
X130100000Y-133845000D01*
%TD*%
M02*
