%TF.GenerationSoftware,KiCad,Pcbnew,(6.0.0)*%
%TF.CreationDate,2022-02-08T17:16:42+09:00*%
%TF.ProjectId,brimstone2,6272696d-7374-46f6-9e65-322e6b696361,rev?*%
%TF.SameCoordinates,Original*%
%TF.FileFunction,Copper,L2,Bot*%
%TF.FilePolarity,Positive*%
%FSLAX46Y46*%
G04 Gerber Fmt 4.6, Leading zero omitted, Abs format (unit mm)*
G04 Created by KiCad (PCBNEW (6.0.0)) date 2022-02-08 17:16:42*
%MOMM*%
%LPD*%
G01*
G04 APERTURE LIST*
G04 Aperture macros list*
%AMRoundRect*
0 Rectangle with rounded corners*
0 $1 Rounding radius*
0 $2 $3 $4 $5 $6 $7 $8 $9 X,Y pos of 4 corners*
0 Add a 4 corners polygon primitive as box body*
4,1,4,$2,$3,$4,$5,$6,$7,$8,$9,$2,$3,0*
0 Add four circle primitives for the rounded corners*
1,1,$1+$1,$2,$3*
1,1,$1+$1,$4,$5*
1,1,$1+$1,$6,$7*
1,1,$1+$1,$8,$9*
0 Add four rect primitives between the rounded corners*
20,1,$1+$1,$2,$3,$4,$5,0*
20,1,$1+$1,$4,$5,$6,$7,0*
20,1,$1+$1,$6,$7,$8,$9,0*
20,1,$1+$1,$8,$9,$2,$3,0*%
%AMHorizOval*
0 Thick line with rounded ends*
0 $1 width*
0 $2 $3 position (X,Y) of the first rounded end (center of the circle)*
0 $4 $5 position (X,Y) of the second rounded end (center of the circle)*
0 Add line between two ends*
20,1,$1,$2,$3,$4,$5,0*
0 Add two circle primitives to create the rounded ends*
1,1,$1,$2,$3*
1,1,$1,$4,$5*%
%AMRotRect*
0 Rectangle, with rotation*
0 The origin of the aperture is its center*
0 $1 length*
0 $2 width*
0 $3 Rotation angle, in degrees counterclockwise*
0 Add horizontal line*
21,1,$1,$2,0,0,$3*%
%AMOutline5P*
0 Free polygon, 5 corners , with rotation*
0 The origin of the aperture is its center*
0 number of corners: always 5*
0 $1 to $10 corner X, Y*
0 $11 Rotation angle, in degrees counterclockwise*
0 create outline with 5 corners*
4,1,5,$1,$2,$3,$4,$5,$6,$7,$8,$9,$10,$1,$2,$11*%
%AMOutline6P*
0 Free polygon, 6 corners , with rotation*
0 The origin of the aperture is its center*
0 number of corners: always 6*
0 $1 to $12 corner X, Y*
0 $13 Rotation angle, in degrees counterclockwise*
0 create outline with 6 corners*
4,1,6,$1,$2,$3,$4,$5,$6,$7,$8,$9,$10,$11,$12,$1,$2,$13*%
%AMOutline7P*
0 Free polygon, 7 corners , with rotation*
0 The origin of the aperture is its center*
0 number of corners: always 7*
0 $1 to $14 corner X, Y*
0 $15 Rotation angle, in degrees counterclockwise*
0 create outline with 7 corners*
4,1,7,$1,$2,$3,$4,$5,$6,$7,$8,$9,$10,$11,$12,$13,$14,$1,$2,$15*%
%AMOutline8P*
0 Free polygon, 8 corners , with rotation*
0 The origin of the aperture is its center*
0 number of corners: always 8*
0 $1 to $16 corner X, Y*
0 $17 Rotation angle, in degrees counterclockwise*
0 create outline with 8 corners*
4,1,8,$1,$2,$3,$4,$5,$6,$7,$8,$9,$10,$11,$12,$13,$14,$15,$16,$1,$2,$17*%
%AMFreePoly0*
4,1,21,-0.579500,0.579500,0.000000,0.579500,0.149986,0.559754,0.289750,0.501862,0.409768,0.409768,0.501862,0.289750,0.559754,0.149986,0.579500,0.000000,0.559754,-0.149986,0.501862,-0.289750,0.409768,-0.409768,0.289750,-0.501862,0.149986,-0.559754,0.000000,-0.579500,-0.149986,-0.559754,-0.289750,-0.501862,-0.409768,-0.409768,-0.501862,-0.289750,-0.559754,-0.149986,-0.579500,0.000000,
-0.579500,0.579500,-0.579500,0.579500,$1*%
%AMFreePoly1*
4,1,6,1.000000,0.000000,0.500000,-0.750000,-0.500000,-0.750000,-0.500000,0.750000,0.500000,0.750000,1.000000,0.000000,1.000000,0.000000,$1*%
%AMFreePoly2*
4,1,6,0.500000,-0.750000,-0.650000,-0.750000,-0.150000,0.000000,-0.650000,0.750000,0.500000,0.750000,0.500000,-0.750000,0.500000,-0.750000,$1*%
%AMFreePoly3*
4,1,7,0.700000,0.000000,1.200000,-0.750000,-1.200000,-0.750000,-0.700000,0.000000,-1.200000,0.750000,1.200000,0.750000,0.700000,0.000000,0.700000,0.000000,$1*%
%AMFreePoly4*
4,1,21,-0.579500,0.000000,-0.559754,0.149986,-0.501862,0.289750,-0.409768,0.409768,-0.289750,0.501862,-0.149986,0.559754,0.000000,0.579500,0.149986,0.559754,0.289750,0.501862,0.409768,0.409768,0.501862,0.289750,0.559754,0.149986,0.579500,0.000000,0.559754,-0.149986,0.501862,-0.289750,0.409768,-0.409768,0.289750,-0.501862,0.149986,-0.559754,0.000000,-0.579500,-0.579500,-0.579500,
-0.579500,0.000000,-0.579500,0.000000,$1*%
G04 Aperture macros list end*
%TA.AperFunction,SMDPad,CuDef*%
%ADD10R,0.500000X1.600000*%
%TD*%
%TA.AperFunction,ComponentPad*%
%ADD11R,1.524000X1.524000*%
%TD*%
%TA.AperFunction,SMDPad,CuDef*%
%ADD12RoundRect,0.250000X0.475000X-0.337500X0.475000X0.337500X-0.475000X0.337500X-0.475000X-0.337500X0*%
%TD*%
%TA.AperFunction,ComponentPad*%
%ADD13C,1.524000*%
%TD*%
%TA.AperFunction,ComponentPad*%
%ADD14C,2.032000*%
%TD*%
%TA.AperFunction,ComponentPad*%
%ADD15C,2.286000*%
%TD*%
%TA.AperFunction,ComponentPad*%
%ADD16HorizOval,1.550000X0.350018X0.350018X-0.350018X-0.350018X0*%
%TD*%
%TA.AperFunction,ComponentPad*%
%ADD17HorizOval,1.250000X0.335876X0.335876X-0.335876X-0.335876X0*%
%TD*%
%TA.AperFunction,ComponentPad*%
%ADD18HorizOval,1.550000X-0.350018X0.350018X0.350018X-0.350018X0*%
%TD*%
%TA.AperFunction,ComponentPad*%
%ADD19HorizOval,1.250000X-0.335876X0.335876X0.335876X-0.335876X0*%
%TD*%
%TA.AperFunction,ComponentPad*%
%ADD20RoundRect,0.381000X0.381000X0.381000X-0.381000X0.381000X-0.381000X-0.381000X0.381000X-0.381000X0*%
%TD*%
%TA.AperFunction,SMDPad,CuDef*%
%ADD21RoundRect,0.250000X0.337500X0.475000X-0.337500X0.475000X-0.337500X-0.475000X0.337500X-0.475000X0*%
%TD*%
%TA.AperFunction,SMDPad,CuDef*%
%ADD22R,1.600000X0.500000*%
%TD*%
%TA.AperFunction,SMDPad,CuDef*%
%ADD23RoundRect,0.250000X-0.479606X-0.330922X0.154687X-0.561786X0.479606X0.330922X-0.154687X0.561786X0*%
%TD*%
%TA.AperFunction,ComponentPad*%
%ADD24RoundRect,0.381000X-0.488333X-0.227713X0.227713X-0.488333X0.488333X0.227713X-0.227713X0.488333X0*%
%TD*%
%TA.AperFunction,SMDPad,CuDef*%
%ADD25RotRect,1.600000X0.500000X160.000000*%
%TD*%
%TA.AperFunction,SMDPad,CuDef*%
%ADD26R,1.700000X0.820000*%
%TD*%
%TA.AperFunction,SMDPad,CuDef*%
%ADD27RoundRect,0.205000X-0.645000X-0.205000X0.645000X-0.205000X0.645000X0.205000X-0.645000X0.205000X0*%
%TD*%
%TA.AperFunction,ComponentPad*%
%ADD28HorizOval,1.550000X0.428683X0.247500X-0.428683X-0.247500X0*%
%TD*%
%TA.AperFunction,ComponentPad*%
%ADD29HorizOval,1.550000X-0.247500X0.428683X0.247500X-0.428683X0*%
%TD*%
%TA.AperFunction,ComponentPad*%
%ADD30HorizOval,1.250000X-0.237500X0.411362X0.237500X-0.411362X0*%
%TD*%
%TA.AperFunction,ComponentPad*%
%ADD31HorizOval,1.250000X0.411362X0.237500X-0.411362X-0.237500X0*%
%TD*%
%TA.AperFunction,ComponentPad*%
%ADD32RoundRect,0.381000X-0.381000X-0.381000X0.381000X-0.381000X0.381000X0.381000X-0.381000X0.381000X0*%
%TD*%
%TA.AperFunction,SMDPad,CuDef*%
%ADD33RoundRect,0.250000X-0.337500X-0.475000X0.337500X-0.475000X0.337500X0.475000X-0.337500X0.475000X0*%
%TD*%
%TA.AperFunction,SMDPad,CuDef*%
%ADD34RoundRect,0.205000X0.645000X0.205000X-0.645000X0.205000X-0.645000X-0.205000X0.645000X-0.205000X0*%
%TD*%
%TA.AperFunction,SMDPad,CuDef*%
%ADD35RotRect,1.700000X0.820000X340.000000*%
%TD*%
%TA.AperFunction,SMDPad,CuDef*%
%ADD36RoundRect,0.205000X-0.676216X0.027966X0.535988X-0.413240X0.676216X-0.027966X-0.535988X0.413240X0*%
%TD*%
%TA.AperFunction,SMDPad,CuDef*%
%ADD37Outline5P,-0.225000X0.610000X-0.135000X0.700000X0.225000X0.700000X0.225000X-0.700000X-0.225000X-0.700000X0.000000*%
%TD*%
%TA.AperFunction,SMDPad,CuDef*%
%ADD38R,0.450000X1.400000*%
%TD*%
%TA.AperFunction,ComponentPad*%
%ADD39HorizOval,1.550000X-0.209196X0.448622X0.209196X-0.448622X0*%
%TD*%
%TA.AperFunction,ComponentPad*%
%ADD40HorizOval,1.250000X0.430496X0.200744X-0.430496X-0.200744X0*%
%TD*%
%TA.AperFunction,ComponentPad*%
%ADD41HorizOval,2.489200X0.197335X-0.071824X-0.197335X0.071824X0*%
%TD*%
%TA.AperFunction,ComponentPad*%
%ADD42HorizOval,1.250000X0.446354X-0.162460X-0.446354X0.162460X0*%
%TD*%
%TA.AperFunction,ComponentPad*%
%ADD43HorizOval,1.550000X0.448622X0.209196X-0.448622X-0.209196X0*%
%TD*%
%TA.AperFunction,ComponentPad*%
%ADD44HorizOval,1.250000X-0.200744X0.430496X0.200744X-0.430496X0*%
%TD*%
%TA.AperFunction,ComponentPad*%
%ADD45FreePoly0,353.500000*%
%TD*%
%TA.AperFunction,ComponentPad*%
%ADD46C,1.159000*%
%TD*%
%TA.AperFunction,ComponentPad*%
%ADD47C,1.200000*%
%TD*%
%TA.AperFunction,SMDPad,CuDef*%
%ADD48RotRect,1.600000X0.500000X255.000000*%
%TD*%
%TA.AperFunction,ComponentPad*%
%ADD49RotRect,1.524000X1.524000X75.000000*%
%TD*%
%TA.AperFunction,SMDPad,CuDef*%
%ADD50RoundRect,0.250000X0.371463X-0.448939X0.546166X0.203061X-0.371463X0.448939X-0.546166X-0.203061X0*%
%TD*%
%TA.AperFunction,SMDPad,CuDef*%
%ADD51RoundRect,0.250000X-0.448939X-0.371463X0.203061X-0.546166X0.448939X0.371463X-0.203061X0.546166X0*%
%TD*%
%TA.AperFunction,ComponentPad*%
%ADD52RoundRect,0.381000X-0.466628X-0.269408X0.269408X-0.466628X0.466628X0.269408X-0.269408X0.466628X0*%
%TD*%
%TA.AperFunction,SMDPad,CuDef*%
%ADD53RotRect,1.600000X0.500000X165.000000*%
%TD*%
%TA.AperFunction,ComponentPad*%
%ADD54R,1.600000X1.600000*%
%TD*%
%TA.AperFunction,ComponentPad*%
%ADD55C,1.600000*%
%TD*%
%TA.AperFunction,SMDPad,CuDef*%
%ADD56RotRect,1.600000X0.500000X150.000000*%
%TD*%
%TA.AperFunction,SMDPad,CuDef*%
%ADD57RoundRect,0.250000X-0.529784X-0.242612X0.054784X-0.580112X0.529784X0.242612X-0.054784X0.580112X0*%
%TD*%
%TA.AperFunction,ComponentPad*%
%ADD58RoundRect,0.381000X-0.520456X-0.139456X0.139456X-0.520456X0.520456X0.139456X-0.139456X0.520456X0*%
%TD*%
%TA.AperFunction,ComponentPad*%
%ADD59O,1.600000X2.000000*%
%TD*%
%TA.AperFunction,ComponentPad*%
%ADD60HorizOval,1.250000X0.458815X0.122939X-0.458815X-0.122939X0*%
%TD*%
%TA.AperFunction,ComponentPad*%
%ADD61HorizOval,1.550000X-0.128115X0.478133X0.128115X-0.478133X0*%
%TD*%
%TA.AperFunction,ComponentPad*%
%ADD62HorizOval,2.489200X0.181865X-0.105000X-0.181865X0.105000X0*%
%TD*%
%TA.AperFunction,ComponentPad*%
%ADD63HorizOval,1.250000X0.411362X-0.237500X-0.411362X0.237500X0*%
%TD*%
%TA.AperFunction,ComponentPad*%
%ADD64HorizOval,1.550000X0.478133X0.128115X-0.478133X-0.128115X0*%
%TD*%
%TA.AperFunction,ComponentPad*%
%ADD65HorizOval,1.250000X-0.122939X0.458815X0.122939X-0.458815X0*%
%TD*%
%TA.AperFunction,SMDPad,CuDef*%
%ADD66RotRect,1.700000X0.820000X345.000000*%
%TD*%
%TA.AperFunction,SMDPad,CuDef*%
%ADD67RoundRect,0.205000X-0.676080X-0.031077X0.569964X-0.364953X0.676080X0.031077X-0.569964X0.364953X0*%
%TD*%
%TA.AperFunction,SMDPad,CuDef*%
%ADD68RoundRect,0.250000X-0.475000X0.337500X-0.475000X-0.337500X0.475000X-0.337500X0.475000X0.337500X0*%
%TD*%
%TA.AperFunction,ComponentPad*%
%ADD69RotRect,2.286000X2.286000X15.000000*%
%TD*%
%TA.AperFunction,SMDPad,CuDef*%
%ADD70RotRect,1.700000X0.820000X330.000000*%
%TD*%
%TA.AperFunction,SMDPad,CuDef*%
%ADD71RoundRect,0.205000X-0.661086X0.144965X0.456086X-0.500035X0.661086X-0.144965X-0.456086X0.500035X0*%
%TD*%
%TA.AperFunction,SMDPad,CuDef*%
%ADD72FreePoly1,0.000000*%
%TD*%
%TA.AperFunction,SMDPad,CuDef*%
%ADD73FreePoly2,0.000000*%
%TD*%
%TA.AperFunction,SMDPad,CuDef*%
%ADD74FreePoly1,180.000000*%
%TD*%
%TA.AperFunction,SMDPad,CuDef*%
%ADD75FreePoly2,180.000000*%
%TD*%
%TA.AperFunction,SMDPad,CuDef*%
%ADD76FreePoly3,180.000000*%
%TD*%
%TA.AperFunction,ComponentPad*%
%ADD77FreePoly4,173.500000*%
%TD*%
%TA.AperFunction,ViaPad*%
%ADD78C,0.800000*%
%TD*%
%TA.AperFunction,Conductor*%
%ADD79C,0.250000*%
%TD*%
G04 APERTURE END LIST*
D10*
%TO.P,D12,1,K*%
%TO.N,ROW2*%
X72600000Y-80745000D03*
D11*
X72600000Y-81485000D03*
D12*
X72600000Y-79982500D03*
%TO.P,D12,2,A*%
%TO.N,SW12*%
X72600000Y-77907500D03*
D13*
X72600000Y-76405000D03*
D10*
X72600000Y-77145000D03*
%TD*%
D14*
%TO.P,SW7,1,A*%
%TO.N,COL2*%
X62530000Y-80575000D03*
D15*
X59990000Y-81395000D03*
D16*
X58720000Y-83935000D03*
D15*
%TO.P,SW7,2,B*%
%TO.N,SW7*%
X65070000Y-81395000D03*
D17*
X57430000Y-82575000D03*
D18*
X66340000Y-83935000D03*
D19*
X67630000Y-82575000D03*
%TD*%
D20*
%TO.P,C114,1*%
%TO.N,VRGB*%
X83150000Y-124535000D03*
D21*
X81647500Y-124535000D03*
D22*
X82410000Y-124535000D03*
D20*
%TO.P,C114,2*%
%TO.N,GND*%
X78070000Y-124535000D03*
D22*
X78810000Y-124535000D03*
D21*
X79572500Y-124535000D03*
%TD*%
%TO.P,C127,1*%
%TO.N,VRGB*%
X135647500Y-88485000D03*
D20*
X137150000Y-88485000D03*
D22*
X136410000Y-88485000D03*
D21*
%TO.P,C127,2*%
%TO.N,GND*%
X133572500Y-88485000D03*
D22*
X132810000Y-88485000D03*
D20*
X132070000Y-88485000D03*
%TD*%
D23*
%TO.P,C132,1*%
%TO.N,VRGB*%
X150355069Y-133270154D03*
D24*
X148943181Y-132756269D03*
D25*
X149638553Y-133009364D03*
%TO.P,C132,2*%
%TO.N,GND*%
X153021447Y-134240636D03*
D24*
X153716819Y-134493731D03*
D23*
X152304931Y-133979846D03*
%TD*%
D15*
%TO.P,SW8,1,A*%
%TO.N,COL2*%
X59990000Y-100395000D03*
D16*
X58720000Y-102935000D03*
D14*
X62530000Y-99575000D03*
D19*
%TO.P,SW8,2,B*%
%TO.N,SW8*%
X67630000Y-101575000D03*
D15*
X65070000Y-100395000D03*
D17*
X57430000Y-101575000D03*
D18*
X66340000Y-102935000D03*
%TD*%
D15*
%TO.P,SW14,1,A*%
%TO.N,COL3*%
X77990000Y-111395000D03*
D14*
X80530000Y-110575000D03*
D16*
X76720000Y-113935000D03*
D19*
%TO.P,SW14,2,B*%
%TO.N,SW14*%
X85630000Y-112575000D03*
D18*
X84340000Y-113935000D03*
D17*
X75430000Y-112575000D03*
D15*
X83070000Y-111395000D03*
%TD*%
D11*
%TO.P,D23,1,K*%
%TO.N,ROW3*%
X108540000Y-93235000D03*
D12*
X108540000Y-91732500D03*
D10*
X108540000Y-92495000D03*
D13*
%TO.P,D23,2,A*%
%TO.N,SW23*%
X108540000Y-88155000D03*
D10*
X108540000Y-88895000D03*
D12*
X108540000Y-89657500D03*
%TD*%
D11*
%TO.P,D36,1,K*%
%TO.N,Net-(D36-Pad1)*%
X98060000Y-129915000D03*
D13*
%TO.P,D36,2,A*%
%TO.N,COL4*%
X92980000Y-129915000D03*
%TD*%
D16*
%TO.P,SW5,1,A*%
%TO.N,COL1*%
X41720000Y-141935000D03*
D14*
X45530000Y-138575000D03*
D15*
X42990000Y-139395000D03*
D18*
%TO.P,SW5,2,B*%
%TO.N,SW5*%
X49340000Y-141935000D03*
D15*
X48070000Y-139395000D03*
D19*
X50630000Y-140575000D03*
D17*
X40430000Y-140575000D03*
%TD*%
D26*
%TO.P,D123,1,VDD*%
%TO.N,VRGB*%
X113905600Y-101435600D03*
%TO.P,D123,2,DOUT*%
%TO.N,Net-(D118-Pad4)*%
X113905600Y-102935600D03*
D27*
%TO.P,D123,3,VSS*%
%TO.N,GND*%
X119205600Y-102935600D03*
D26*
%TO.P,D123,4,DIN*%
%TO.N,Net-(D123-Pad4)*%
X119205600Y-101435600D03*
%TD*%
D15*
%TO.P,SW30,1,A*%
%TO.N,COL6*%
X137691349Y-136020696D03*
D28*
X135807223Y-138145448D03*
D14*
X140357032Y-135886038D03*
D29*
%TO.P,SW30,2,B*%
%TO.N,SW30*%
X143167578Y-140117649D03*
D30*
X144765616Y-139137866D03*
D31*
X134913173Y-136497912D03*
D15*
X142598252Y-137335497D03*
%TD*%
D22*
%TO.P,C121,1*%
%TO.N,VRGB*%
X114540000Y-67455000D03*
D32*
X113800000Y-67455000D03*
D33*
X115302500Y-67455000D03*
%TO.P,C121,2*%
%TO.N,GND*%
X117377500Y-67455000D03*
D22*
X118140000Y-67455000D03*
D32*
X118880000Y-67455000D03*
%TD*%
D20*
%TO.P,C107,1*%
%TO.N,VRGB*%
X65180000Y-94465000D03*
D22*
X64440000Y-94465000D03*
D21*
X63677500Y-94465000D03*
D20*
%TO.P,C107,2*%
%TO.N,GND*%
X60100000Y-94465000D03*
D21*
X61602500Y-94465000D03*
D22*
X60840000Y-94465000D03*
%TD*%
D26*
%TO.P,D109,1,VDD*%
%TO.N,VRGB*%
X65205600Y-129935600D03*
%TO.P,D109,2,DOUT*%
%TO.N,Net-(D109-Pad2)*%
X65205600Y-128435600D03*
D34*
%TO.P,D109,3,VSS*%
%TO.N,GND*%
X59905600Y-128435600D03*
D26*
%TO.P,D109,4,DIN*%
%TO.N,Net-(D104-Pad2)*%
X59905600Y-129935600D03*
%TD*%
%TO.P,D108,1,VDD*%
%TO.N,VRGB*%
X59905600Y-109435600D03*
%TO.P,D108,2,DOUT*%
%TO.N,Net-(D103-Pad4)*%
X59905600Y-110935600D03*
D27*
%TO.P,D108,3,VSS*%
%TO.N,GND*%
X65205600Y-110935600D03*
D26*
%TO.P,D108,4,DIN*%
%TO.N,Net-(D108-Pad4)*%
X65205600Y-109435600D03*
%TD*%
D10*
%TO.P,D29,1,K*%
%TO.N,ROW4*%
X125340000Y-117895000D03*
D12*
X125340000Y-117132500D03*
D11*
X125340000Y-118635000D03*
D10*
%TO.P,D29,2,A*%
%TO.N,SW29*%
X125340000Y-114295000D03*
D13*
X125340000Y-113555000D03*
D12*
X125340000Y-115057500D03*
%TD*%
D21*
%TO.P,D33,1,K*%
%TO.N,Net-(D33-Pad1)*%
X89227500Y-132115000D03*
D22*
X89990000Y-132115000D03*
D11*
X90730000Y-132115000D03*
D21*
%TO.P,D33,2,A*%
%TO.N,COL3*%
X87152500Y-132115000D03*
D13*
X85650000Y-132115000D03*
D22*
X86390000Y-132115000D03*
%TD*%
D35*
%TO.P,D44,1,VDD*%
%TO.N,VRGB*%
X150274048Y-128919298D03*
%TO.P,D44,2,DOUT*%
%TO.N,Net-(D43-Pad4)*%
X149761017Y-130328837D03*
D36*
%TO.P,D44,3,VSS*%
%TO.N,GND*%
X154741388Y-132141544D03*
D35*
%TO.P,D44,4,DIN*%
%TO.N,unconnected-(D44-Pad4)*%
X155254419Y-130732005D03*
%TD*%
D12*
%TO.P,D10,1,K*%
%TO.N,ROW5*%
X71650000Y-141052500D03*
D11*
X71650000Y-142555000D03*
D10*
X71650000Y-141815000D03*
D12*
%TO.P,D10,2,A*%
%TO.N,SW10*%
X71650000Y-138977500D03*
D13*
X71650000Y-137475000D03*
D10*
X71650000Y-138215000D03*
%TD*%
%TO.P,D1,1,K*%
%TO.N,ROW1*%
X53580000Y-67115000D03*
D12*
X53580000Y-66352500D03*
D11*
X53580000Y-67855000D03*
D13*
%TO.P,D1,2,A*%
%TO.N,SW1*%
X53580000Y-62775000D03*
D10*
X53580000Y-63515000D03*
D12*
X53580000Y-64277500D03*
%TD*%
D37*
%TO.P,IC2,1,CH1*%
%TO.N,SW27*%
X88715000Y-74015000D03*
D38*
%TO.P,IC2,2,CH2*%
%TO.N,SW22*%
X89365000Y-74015000D03*
%TO.P,IC2,3,VN*%
%TO.N,unconnected-(IC2-Pad3)*%
X90015000Y-74015000D03*
%TO.P,IC2,4,CH3*%
%TO.N,SW17*%
X90665000Y-74015000D03*
%TO.P,IC2,5,CH4*%
%TO.N,SW2*%
X90665000Y-78415000D03*
%TO.P,IC2,6,CH5*%
%TO.N,SW7*%
X90015000Y-78415000D03*
%TO.P,IC2,7,VP*%
%TO.N,ROW2*%
X89365000Y-78415000D03*
%TO.P,IC2,8,CH6*%
%TO.N,SW12*%
X88715000Y-78415000D03*
%TD*%
D26*
%TO.P,D112,1,VDD*%
%TO.N,VRGB*%
X83205600Y-83935600D03*
%TO.P,D112,2,DOUT*%
%TO.N,Net-(D112-Pad2)*%
X83205600Y-82435600D03*
D34*
%TO.P,D112,3,VSS*%
%TO.N,GND*%
X77905600Y-82435600D03*
D26*
%TO.P,D112,4,DIN*%
%TO.N,Net-(D107-Pad2)*%
X77905600Y-83935600D03*
%TD*%
D15*
%TO.P,SW20,1,A*%
%TO.N,COL4*%
X96990000Y-136395000D03*
D16*
X95720000Y-138935000D03*
D14*
X99530000Y-135575000D03*
D19*
%TO.P,SW20,2,B*%
%TO.N,SW20*%
X104630000Y-137575000D03*
D17*
X94430000Y-137575000D03*
D15*
X102070000Y-136395000D03*
D18*
X103340000Y-138935000D03*
%TD*%
D26*
%TO.P,D117,1,VDD*%
%TO.N,VRGB*%
X101205600Y-79935600D03*
%TO.P,D117,2,DOUT*%
%TO.N,Net-(D117-Pad2)*%
X101205600Y-78435600D03*
D34*
%TO.P,D117,3,VSS*%
%TO.N,GND*%
X95905600Y-78435600D03*
D26*
%TO.P,D117,4,DIN*%
%TO.N,Net-(D112-Pad2)*%
X95905600Y-79935600D03*
%TD*%
D14*
%TO.P,SW21,1,A*%
%TO.N,COL5*%
X116530000Y-53575000D03*
D16*
X112720000Y-56935000D03*
D15*
X113990000Y-54395000D03*
D18*
%TO.P,SW21,2,B*%
%TO.N,SW21*%
X120340000Y-56935000D03*
D17*
X111430000Y-55575000D03*
D19*
X121630000Y-55575000D03*
D15*
X119070000Y-54395000D03*
%TD*%
D26*
%TO.P,D116,1,VDD*%
%TO.N,VRGB*%
X95905600Y-59435600D03*
%TO.P,D116,2,DOUT*%
%TO.N,Net-(D111-Pad4)*%
X95905600Y-60935600D03*
D27*
%TO.P,D116,3,VSS*%
%TO.N,GND*%
X101205600Y-60935600D03*
D26*
%TO.P,D116,4,DIN*%
%TO.N,Net-(D116-Pad4)*%
X101205600Y-59435600D03*
%TD*%
%TO.P,D125,1,VDD*%
%TO.N,VRGB*%
X115990684Y-142883625D03*
%TO.P,D125,2,DOUT*%
%TO.N,Net-(D120-Pad4)*%
X115990684Y-144383625D03*
D27*
%TO.P,D125,3,VSS*%
%TO.N,GND*%
X121290684Y-144383625D03*
D26*
%TO.P,D125,4,DIN*%
%TO.N,Net-(D125-Pad4)*%
X121290684Y-142883625D03*
%TD*%
D39*
%TO.P,S2,1,1*%
%TO.N,Net-(D38-Pad1)*%
X158588960Y-124991277D03*
D40*
X150681446Y-120665896D03*
D41*
%TO.P,S2,2,2*%
%TO.N,Net-(D37-Pad1)*%
X149169026Y-124265713D03*
D42*
%TO.P,S2,3,3*%
%TO.N,Net-(D39-Pad1)*%
X148458315Y-126773898D03*
%TO.P,S2,4,4*%
%TO.N,Net-(D41-Pad1)*%
X158043180Y-130262504D03*
D41*
%TO.P,S2,5,5*%
%TO.N,Net-(D42-Pad1)*%
X159110974Y-127884287D03*
D43*
%TO.P,S2,6,6*%
%TO.N,Net-(D40-Pad1)*%
X151428502Y-122385084D03*
D44*
X160266311Y-124154502D03*
D14*
%TO.P,S2,7,7*%
%TO.N,ROW8*%
X156157919Y-120530814D03*
D15*
X153490643Y-120432630D03*
X158264282Y-122170093D03*
%TD*%
D12*
%TO.P,D18,1,K*%
%TO.N,ROW3*%
X106570000Y-91672500D03*
D11*
X106570000Y-93175000D03*
D10*
X106570000Y-92435000D03*
D12*
%TO.P,D18,2,A*%
%TO.N,SW18*%
X106570000Y-89597500D03*
D10*
X106570000Y-88835000D03*
D13*
X106570000Y-88095000D03*
%TD*%
D12*
%TO.P,D11,1,K*%
%TO.N,ROW1*%
X72510000Y-63862500D03*
D10*
X72510000Y-64625000D03*
D11*
X72510000Y-65365000D03*
D12*
%TO.P,D11,2,A*%
%TO.N,SW11*%
X72510000Y-61787500D03*
D10*
X72510000Y-61025000D03*
D13*
X72510000Y-60285000D03*
%TD*%
D22*
%TO.P,D35,1,K*%
%TO.N,Net-(D35-Pad1)*%
X89990000Y-129905000D03*
D11*
X90730000Y-129905000D03*
D21*
X89227500Y-129905000D03*
D13*
%TO.P,D35,2,A*%
%TO.N,COL2*%
X85650000Y-129905000D03*
D22*
X86390000Y-129905000D03*
D21*
X87152500Y-129905000D03*
%TD*%
D22*
%TO.P,C113,1*%
%TO.N,VRGB*%
X78732500Y-105445000D03*
D32*
X77992500Y-105445000D03*
D33*
X79495000Y-105445000D03*
%TO.P,C113,2*%
%TO.N,GND*%
X81570000Y-105445000D03*
D32*
X83072500Y-105445000D03*
D22*
X82332500Y-105445000D03*
%TD*%
D33*
%TO.P,C106,1*%
%TO.N,VRGB*%
X61552500Y-75485000D03*
D32*
X60050000Y-75485000D03*
D22*
X60790000Y-75485000D03*
D33*
%TO.P,C106,2*%
%TO.N,GND*%
X63627500Y-75485000D03*
D22*
X64390000Y-75485000D03*
D32*
X65130000Y-75485000D03*
%TD*%
D10*
%TO.P,D16,1,K*%
%TO.N,ROW1*%
X106540000Y-58405000D03*
D12*
X106540000Y-57642500D03*
D11*
X106540000Y-59145000D03*
D10*
%TO.P,D16,2,A*%
%TO.N,SW16*%
X106540000Y-54805000D03*
D13*
X106540000Y-54065000D03*
D12*
X106540000Y-55567500D03*
%TD*%
D33*
%TO.P,C123,1*%
%TO.N,VRGB*%
X115005000Y-105545000D03*
D32*
X113502500Y-105545000D03*
D22*
X114242500Y-105545000D03*
%TO.P,C123,2*%
%TO.N,GND*%
X117842500Y-105545000D03*
D32*
X118582500Y-105545000D03*
D33*
X117080000Y-105545000D03*
%TD*%
D11*
%TO.P,D14,1,K*%
%TO.N,ROW4*%
X72560000Y-121025000D03*
D12*
X72560000Y-119522500D03*
D10*
X72560000Y-120285000D03*
%TO.P,D14,2,A*%
%TO.N,SW14*%
X72560000Y-116685000D03*
D12*
X72560000Y-117447500D03*
D13*
X72560000Y-115945000D03*
%TD*%
D15*
%TO.P,SW10,1,A*%
%TO.N,COL2*%
X60990000Y-138395000D03*
D14*
X63530000Y-137575000D03*
D16*
X59720000Y-140935000D03*
D17*
%TO.P,SW10,2,B*%
%TO.N,SW10*%
X58430000Y-139575000D03*
D18*
X67340000Y-140935000D03*
D19*
X68630000Y-139575000D03*
D15*
X66070000Y-138395000D03*
%TD*%
D26*
%TO.P,D102,1,VDD*%
%TO.N,VRGB*%
X47205600Y-92935600D03*
%TO.P,D102,2,DOUT*%
%TO.N,Net-(D102-Pad2)*%
X47205600Y-91435600D03*
D34*
%TO.P,D102,3,VSS*%
%TO.N,GND*%
X41905600Y-91435600D03*
D26*
%TO.P,D102,4,DIN*%
%TO.N,Net-(D101-Pad2)*%
X41905600Y-92935600D03*
%TD*%
D14*
%TO.P,SW24,1,A*%
%TO.N,COL5*%
X116530000Y-110575000D03*
D16*
X112720000Y-113935000D03*
D15*
X113990000Y-111395000D03*
D17*
%TO.P,SW24,2,B*%
%TO.N,SW24*%
X111430000Y-112575000D03*
D18*
X120340000Y-113935000D03*
D15*
X119070000Y-111395000D03*
D19*
X121630000Y-112575000D03*
%TD*%
D15*
%TO.P,SW3,1,A*%
%TO.N,COL1*%
X41990000Y-101395000D03*
D16*
X40720000Y-103935000D03*
D14*
X44530000Y-100575000D03*
D18*
%TO.P,SW3,2,B*%
%TO.N,SW3*%
X48340000Y-103935000D03*
D19*
X49630000Y-102575000D03*
D17*
X39430000Y-102575000D03*
D15*
X47070000Y-101395000D03*
%TD*%
%TO.P,SW16,1,A*%
%TO.N,COL4*%
X95990000Y-50395000D03*
D16*
X94720000Y-52935000D03*
D14*
X98530000Y-49575000D03*
D15*
%TO.P,SW16,2,B*%
%TO.N,SW16*%
X101070000Y-50395000D03*
D19*
X103630000Y-51575000D03*
D17*
X93430000Y-51575000D03*
D18*
X102340000Y-52935000D03*
%TD*%
D12*
%TO.P,D3,1,K*%
%TO.N,ROW3*%
X52610000Y-103952500D03*
D10*
X52610000Y-104715000D03*
D11*
X52610000Y-105455000D03*
D10*
%TO.P,D3,2,A*%
%TO.N,SW3*%
X52610000Y-101115000D03*
D12*
X52610000Y-101877500D03*
D13*
X52610000Y-100375000D03*
%TD*%
D26*
%TO.P,D126,1,VDD*%
%TO.N,VRGB*%
X131905600Y-65435600D03*
%TO.P,D126,2,DOUT*%
%TO.N,Net-(D121-Pad4)*%
X131905600Y-66935600D03*
D27*
%TO.P,D126,3,VSS*%
%TO.N,GND*%
X137205600Y-66935600D03*
D26*
%TO.P,D126,4,DIN*%
%TO.N,DRGB*%
X137205600Y-65435600D03*
%TD*%
D14*
%TO.P,SW11,1,A*%
%TO.N,COL3*%
X80530000Y-53575000D03*
D15*
X77990000Y-54395000D03*
D16*
X76720000Y-56935000D03*
D19*
%TO.P,SW11,2,B*%
%TO.N,SW11*%
X85630000Y-55575000D03*
D17*
X75430000Y-55575000D03*
D18*
X84340000Y-56935000D03*
D15*
X83070000Y-54395000D03*
%TD*%
D22*
%TO.P,D40,1,K*%
%TO.N,Net-(D40-Pad1)*%
X131590000Y-132595000D03*
D11*
X132330000Y-132595000D03*
D21*
X130827500Y-132595000D03*
D13*
%TO.P,D40,2,A*%
%TO.N,COL6*%
X127250000Y-132595000D03*
D22*
X127990000Y-132595000D03*
D21*
X128752500Y-132595000D03*
%TD*%
D11*
%TO.P,D24,1,K*%
%TO.N,ROW4*%
X108550000Y-113265000D03*
D12*
X108550000Y-111762500D03*
D10*
X108550000Y-112525000D03*
D13*
%TO.P,D24,2,A*%
%TO.N,SW24*%
X108550000Y-108185000D03*
D10*
X108550000Y-108925000D03*
D12*
X108550000Y-109687500D03*
%TD*%
D26*
%TO.P,D118,1,VDD*%
%TO.N,VRGB*%
X95905600Y-97435600D03*
%TO.P,D118,2,DOUT*%
%TO.N,Net-(D113-Pad4)*%
X95905600Y-98935600D03*
D27*
%TO.P,D118,3,VSS*%
%TO.N,GND*%
X101205600Y-98935600D03*
D26*
%TO.P,D118,4,DIN*%
%TO.N,Net-(D118-Pad4)*%
X101205600Y-97435600D03*
%TD*%
D45*
%TO.P,IC6,1,GPB0*%
%TO.N,LED_DIN*%
X171152480Y-91578385D03*
D46*
%TO.P,IC6,2,GPB1*%
%TO.N,COL1*%
X170864944Y-94102058D03*
%TO.P,IC6,3,GPB2*%
%TO.N,COL2*%
X170577408Y-96625730D03*
%TO.P,IC6,4,GPB3*%
%TO.N,COL3*%
X170289872Y-99149403D03*
%TO.P,IC6,5,GPB4*%
%TO.N,COL4*%
X170002336Y-101673075D03*
%TO.P,IC6,6,GPB5*%
%TO.N,COL5*%
X169714800Y-104196748D03*
%TO.P,IC6,7,GPB6*%
%TO.N,COL6*%
X169427263Y-106720420D03*
%TO.P,IC6,8,GPB7*%
%TO.N,unconnected-(IC6-Pad8)*%
X169139727Y-109244093D03*
%TO.P,IC6,9,VDD*%
%TO.N,+3V3*%
X168852191Y-111767765D03*
%TO.P,IC6,10,VSS*%
%TO.N,GND*%
X168564655Y-114291438D03*
%TO.P,IC6,11,NC_1*%
%TO.N,unconnected-(IC6-Pad11)*%
X168277119Y-116815110D03*
%TO.P,IC6,12,SCL*%
%TO.N,SCL*%
X167989583Y-119338783D03*
%TO.P,IC6,13,SDA*%
%TO.N,SDA*%
X167702046Y-121862455D03*
%TO.P,IC6,14,NC_2*%
%TO.N,unconnected-(IC6-Pad14)*%
X167414510Y-124386128D03*
%TO.P,IC6,15,A0*%
%TO.N,GND*%
X175301484Y-125284735D03*
%TO.P,IC6,16,A1*%
X175589020Y-122761062D03*
%TO.P,IC6,17,A2*%
X175876556Y-120237390D03*
%TO.P,IC6,18,~{RESET}*%
%TO.N,unconnected-(IC6-Pad18)*%
X176164092Y-117713717D03*
%TO.P,IC6,19,INTB*%
%TO.N,unconnected-(IC6-Pad19)*%
X176451628Y-115190045D03*
%TO.P,IC6,20,INTA*%
%TO.N,unconnected-(IC6-Pad20)*%
X176739164Y-112666372D03*
%TO.P,IC6,21,GPA0*%
%TO.N,ROW7*%
X177026701Y-110142700D03*
%TO.P,IC6,22,GPA1*%
%TO.N,ROW4*%
X177314237Y-107619027D03*
%TO.P,IC6,23,GPA2*%
%TO.N,ROW3*%
X177601773Y-105095355D03*
%TO.P,IC6,24,GPA3*%
%TO.N,ROW2*%
X177889309Y-102571682D03*
%TO.P,IC6,25,GPA4*%
%TO.N,ROW8*%
X178176845Y-100048010D03*
%TO.P,IC6,26,GPA5*%
%TO.N,ROW1*%
X178464381Y-97524337D03*
%TO.P,IC6,27,GPA6*%
%TO.N,ROW6*%
X178751918Y-95000665D03*
%TO.P,IC6,28,GPA7*%
%TO.N,ROW5*%
X179039454Y-92476992D03*
%TD*%
D13*
%TO.P,R1,1*%
%TO.N,+3V3*%
X143140000Y-68197500D03*
D12*
X143140000Y-66695000D03*
D10*
X143140000Y-67457500D03*
D13*
%TO.P,R1,2*%
%TO.N,SDA*%
X143140000Y-63117500D03*
D12*
X143140000Y-64620000D03*
D10*
X143140000Y-63857500D03*
%TD*%
D33*
%TO.P,C108,1*%
%TO.N,VRGB*%
X61365000Y-113485000D03*
D22*
X60602500Y-113485000D03*
D32*
X59862500Y-113485000D03*
D22*
%TO.P,C108,2*%
%TO.N,GND*%
X64202500Y-113485000D03*
D33*
X63440000Y-113485000D03*
D32*
X64942500Y-113485000D03*
%TD*%
D47*
%TO.P,SW31,1,A*%
%TO.N,Net-(JP3-Pad1)*%
X168094511Y-132418961D03*
%TO.P,SW31,2,B*%
%TO.N,Net-(D45-Pad2)*%
X167225780Y-134805780D03*
%TO.P,SW31,3,C*%
%TO.N,Net-(JP10-Pad1)*%
X166357049Y-137192600D03*
%TO.P,SW31,4,A*%
%TO.N,COL1*%
X165707692Y-131550230D03*
%TO.P,SW31,5,B*%
%TO.N,Net-(D46-Pad2)*%
X164838961Y-133937049D03*
%TO.P,SW31,6,C*%
%TO.N,COL2*%
X163970229Y-136323868D03*
%TO.P,SW31,7*%
%TO.N,N/C*%
X172868150Y-134156423D03*
%TO.P,SW31,8*%
X171130687Y-138930062D03*
%TD*%
D48*
%TO.P,D30,1,K*%
%TO.N,ROW5*%
X130102651Y-140761518D03*
D49*
X129911125Y-141476304D03*
D50*
X130300000Y-140025000D03*
D13*
%TO.P,D30,2,A*%
%TO.N,SW30*%
X131225925Y-136569400D03*
D50*
X130837050Y-138020704D03*
D48*
X131034399Y-137284186D03*
%TD*%
D26*
%TO.P,D129,1,VDD*%
%TO.N,VRGB*%
X137205600Y-123935600D03*
%TO.P,D129,2,DOUT*%
%TO.N,Net-(D129-Pad2)*%
X137205600Y-122435600D03*
D34*
%TO.P,D129,3,VSS*%
%TO.N,GND*%
X131905600Y-122435600D03*
D26*
%TO.P,D129,4,DIN*%
%TO.N,Net-(D124-Pad2)*%
X131905600Y-123935600D03*
%TD*%
D16*
%TO.P,SW1,1,A*%
%TO.N,COL1*%
X40720000Y-65935000D03*
D15*
X41990000Y-63395000D03*
D14*
X44530000Y-62575000D03*
D19*
%TO.P,SW1,2,B*%
%TO.N,SW1*%
X49630000Y-64575000D03*
D17*
X39430000Y-64575000D03*
D18*
X48340000Y-65935000D03*
D15*
X47070000Y-63395000D03*
%TD*%
D12*
%TO.P,D2,1,K*%
%TO.N,ROW2*%
X52860000Y-85582500D03*
D11*
X52860000Y-87085000D03*
D10*
X52860000Y-86345000D03*
%TO.P,D2,2,A*%
%TO.N,SW2*%
X52860000Y-82745000D03*
D13*
X52860000Y-82005000D03*
D12*
X52860000Y-83507500D03*
%TD*%
D10*
%TO.P,D15,1,K*%
%TO.N,ROW5*%
X73640000Y-141815000D03*
D12*
X73640000Y-141052500D03*
D11*
X73640000Y-142555000D03*
D13*
%TO.P,D15,2,A*%
%TO.N,SW15*%
X73640000Y-137475000D03*
D10*
X73640000Y-138215000D03*
D12*
X73640000Y-138977500D03*
%TD*%
D15*
%TO.P,SW4,1,A*%
%TO.N,COL1*%
X41990000Y-120395000D03*
D14*
X44530000Y-119575000D03*
D16*
X40720000Y-122935000D03*
D15*
%TO.P,SW4,2,B*%
%TO.N,SW4*%
X47070000Y-120395000D03*
D19*
X49630000Y-121575000D03*
D18*
X48340000Y-122935000D03*
D17*
X39430000Y-121575000D03*
%TD*%
D10*
%TO.P,D17,1,K*%
%TO.N,ROW2*%
X106460000Y-74975000D03*
D11*
X106460000Y-75715000D03*
D12*
X106460000Y-74212500D03*
D10*
%TO.P,D17,2,A*%
%TO.N,SW17*%
X106460000Y-71375000D03*
D12*
X106460000Y-72137500D03*
D13*
X106460000Y-70635000D03*
%TD*%
D21*
%TO.P,C119,1*%
%TO.N,VRGB*%
X99657500Y-120655000D03*
D22*
X100420000Y-120655000D03*
D20*
X101160000Y-120655000D03*
D22*
%TO.P,C119,2*%
%TO.N,GND*%
X96820000Y-120655000D03*
D20*
X96080000Y-120655000D03*
D21*
X97582500Y-120655000D03*
%TD*%
D10*
%TO.P,D7,1,K*%
%TO.N,ROW2*%
X70630000Y-80755000D03*
D12*
X70630000Y-79992500D03*
D11*
X70630000Y-81495000D03*
D12*
%TO.P,D7,2,A*%
%TO.N,SW7*%
X70630000Y-77917500D03*
D13*
X70630000Y-76415000D03*
D10*
X70630000Y-77155000D03*
%TD*%
D21*
%TO.P,C104,1*%
%TO.N,VRGB*%
X45407500Y-133555000D03*
D20*
X46910000Y-133555000D03*
D22*
X46170000Y-133555000D03*
D20*
%TO.P,C104,2*%
%TO.N,GND*%
X41830000Y-133555000D03*
D21*
X43332500Y-133555000D03*
D22*
X42570000Y-133555000D03*
%TD*%
D15*
%TO.P,SW13,1,A*%
%TO.N,COL3*%
X77990000Y-92395000D03*
D14*
X80530000Y-91575000D03*
D16*
X76720000Y-94935000D03*
D18*
%TO.P,SW13,2,B*%
%TO.N,SW13*%
X84340000Y-94935000D03*
D17*
X75430000Y-93575000D03*
D15*
X83070000Y-92395000D03*
D19*
X85630000Y-93575000D03*
%TD*%
D22*
%TO.P,D32,1,K*%
%TO.N,Net-(D32-Pad1)*%
X109830000Y-133105000D03*
D11*
X110570000Y-133105000D03*
D21*
X109067500Y-133105000D03*
%TO.P,D32,2,A*%
%TO.N,COL5*%
X106992500Y-133105000D03*
D13*
X105490000Y-133105000D03*
D22*
X106230000Y-133105000D03*
%TD*%
D26*
%TO.P,D110,1,VDD*%
%TO.N,VRGB*%
X60905600Y-147435600D03*
%TO.P,D110,2,DOUT*%
%TO.N,Net-(D105-Pad4)*%
X60905600Y-148935600D03*
D27*
%TO.P,D110,3,VSS*%
%TO.N,GND*%
X66205600Y-148935600D03*
D26*
%TO.P,D110,4,DIN*%
%TO.N,Net-(D110-Pad4)*%
X66205600Y-147435600D03*
%TD*%
D11*
%TO.P,D13,1,K*%
%TO.N,ROW3*%
X72540000Y-103055000D03*
D12*
X72540000Y-101552500D03*
D10*
X72540000Y-102315000D03*
D12*
%TO.P,D13,2,A*%
%TO.N,SW13*%
X72540000Y-99477500D03*
D10*
X72540000Y-98715000D03*
D13*
X72540000Y-97975000D03*
%TD*%
D15*
%TO.P,SW15,1,A*%
%TO.N,COL3*%
X78990000Y-137395000D03*
D14*
X81530000Y-136575000D03*
D16*
X77720000Y-139935000D03*
D15*
%TO.P,SW15,2,B*%
%TO.N,SW15*%
X84070000Y-137395000D03*
D18*
X85340000Y-139935000D03*
D19*
X86630000Y-138575000D03*
D17*
X76430000Y-138575000D03*
%TD*%
D26*
%TO.P,D114,1,VDD*%
%TO.N,VRGB*%
X83205600Y-121935600D03*
%TO.P,D114,2,DOUT*%
%TO.N,Net-(D114-Pad2)*%
X83205600Y-120435600D03*
D34*
%TO.P,D114,3,VSS*%
%TO.N,GND*%
X77905600Y-120435600D03*
D26*
%TO.P,D114,4,DIN*%
%TO.N,Net-(D109-Pad2)*%
X77905600Y-121935600D03*
%TD*%
D33*
%TO.P,C125,1*%
%TO.N,VRGB*%
X117632500Y-146965000D03*
D32*
X116130000Y-146965000D03*
D22*
X116870000Y-146965000D03*
D32*
%TO.P,C125,2*%
%TO.N,GND*%
X121210000Y-146965000D03*
D22*
X120470000Y-146965000D03*
D33*
X119707500Y-146965000D03*
%TD*%
D26*
%TO.P,D113,1,VDD*%
%TO.N,VRGB*%
X77905600Y-101435600D03*
%TO.P,D113,2,DOUT*%
%TO.N,Net-(D108-Pad4)*%
X77905600Y-102935600D03*
D27*
%TO.P,D113,3,VSS*%
%TO.N,GND*%
X83205600Y-102935600D03*
D26*
%TO.P,D113,4,DIN*%
%TO.N,Net-(D113-Pad4)*%
X83205600Y-101435600D03*
%TD*%
%TO.P,D119,1,VDD*%
%TO.N,VRGB*%
X101205600Y-117935600D03*
%TO.P,D119,2,DOUT*%
%TO.N,Net-(D119-Pad2)*%
X101205600Y-116435600D03*
D34*
%TO.P,D119,3,VSS*%
%TO.N,GND*%
X95905600Y-116435600D03*
D26*
%TO.P,D119,4,DIN*%
%TO.N,Net-(D114-Pad2)*%
X95905600Y-117935600D03*
%TD*%
D14*
%TO.P,SW18,1,A*%
%TO.N,COL4*%
X98530000Y-87575000D03*
D15*
X95990000Y-88395000D03*
D16*
X94720000Y-90935000D03*
D18*
%TO.P,SW18,2,B*%
%TO.N,SW18*%
X102340000Y-90935000D03*
D17*
X93430000Y-89575000D03*
D19*
X103630000Y-89575000D03*
D15*
X101070000Y-88395000D03*
%TD*%
D26*
%TO.P,D128,1,VDD*%
%TO.N,VRGB*%
X131905600Y-103435600D03*
%TO.P,D128,2,DOUT*%
%TO.N,Net-(D123-Pad4)*%
X131905600Y-104935600D03*
D27*
%TO.P,D128,3,VSS*%
%TO.N,GND*%
X137205600Y-104935600D03*
D26*
%TO.P,D128,4,DIN*%
%TO.N,Net-(D127-Pad2)*%
X137205600Y-103435600D03*
%TD*%
D51*
%TO.P,C130,1*%
%TO.N,VRGB*%
X135687852Y-149096475D03*
D52*
X134236548Y-148707600D03*
D53*
X134951334Y-148899126D03*
%TO.P,C130,2*%
%TO.N,GND*%
X138428666Y-149830874D03*
D51*
X137692148Y-149633525D03*
D52*
X139143452Y-150022400D03*
%TD*%
D26*
%TO.P,D115,1,VDD*%
%TO.N,VRGB*%
X78905600Y-146435600D03*
%TO.P,D115,2,DOUT*%
%TO.N,Net-(D110-Pad4)*%
X78905600Y-147935600D03*
D27*
%TO.P,D115,3,VSS*%
%TO.N,GND*%
X84205600Y-147935600D03*
D26*
%TO.P,D115,4,DIN*%
%TO.N,Net-(D115-Pad4)*%
X84205600Y-146435600D03*
%TD*%
D54*
%TO.P,U1,1,~{RESET}*%
%TO.N,unconnected-(U1-Pad1)*%
X146040998Y-55012002D03*
D55*
%TO.P,U1,2,3V3*%
%TO.N,+3V3*%
X146040998Y-57552002D03*
%TO.P,U1,3,AREF*%
%TO.N,unconnected-(U1-Pad3)*%
X146040998Y-60092002D03*
%TO.P,U1,4,GND*%
%TO.N,GND*%
X146040998Y-62632002D03*
%TO.P,U1,5,A0*%
%TO.N,ROW1*%
X146040998Y-65172002D03*
%TO.P,U1,6,A1*%
%TO.N,LED_DIN*%
X146040998Y-67712002D03*
%TO.P,U1,7,A2*%
%TO.N,ROW2*%
X146040998Y-70252002D03*
%TO.P,U1,8,A3*%
%TO.N,ROW3*%
X146040998Y-72792002D03*
%TO.P,U1,9,A4*%
%TO.N,ROW4*%
X146040998Y-75332002D03*
%TO.P,U1,10,A5*%
%TO.N,ROW8*%
X146040998Y-77872002D03*
%TO.P,U1,11,SCK/D15*%
%TO.N,unconnected-(U1-Pad11)*%
X146040998Y-80412002D03*
%TO.P,U1,12,MOSI/D16*%
%TO.N,unconnected-(U1-Pad12)*%
X146040998Y-82952002D03*
%TO.P,U1,13,MISO/D14*%
%TO.N,unconnected-(U1-Pad13)*%
X146040998Y-85492002D03*
%TO.P,U1,14,RX/D0*%
%TO.N,ROW5*%
X146040998Y-88032002D03*
%TO.P,U1,15,TX/D1*%
%TO.N,ROW6*%
X146040998Y-90572002D03*
%TO.P,U1,16,~{DFU}*%
%TO.N,unconnected-(U1-Pad16)*%
X146040998Y-93112002D03*
%TO.P,U1,17,SDA/D2*%
%TO.N,SDA*%
X166360998Y-93112002D03*
%TO.P,U1,18,SCL/D3*%
%TO.N,SCL*%
X166360998Y-90572002D03*
%TO.P,U1,19,D5*%
%TO.N,ROW7*%
X166360998Y-88032002D03*
%TO.P,U1,20,D6*%
%TO.N,COL6*%
X166360998Y-85492002D03*
%TO.P,U1,21,D9*%
%TO.N,COL5*%
X166360998Y-82952002D03*
%TO.P,U1,22,D10*%
%TO.N,COL4*%
X166360998Y-80412002D03*
%TO.P,U1,23,D11*%
%TO.N,COL3*%
X166360998Y-77872002D03*
%TO.P,U1,24,D12*%
%TO.N,COL2*%
X166360998Y-75332002D03*
%TO.P,U1,25,D13*%
%TO.N,COL1*%
X166360998Y-72792002D03*
%TO.P,U1,26,USB*%
%TO.N,+5V*%
X166360998Y-70252002D03*
%TO.P,U1,27,EN*%
%TO.N,EN*%
X166360998Y-67712002D03*
%TO.P,U1,28,VBAT*%
%TO.N,unconnected-(U1-Pad28)*%
X166360998Y-65172002D03*
%TD*%
D32*
%TO.P,C120,1*%
%TO.N,VRGB*%
X97120000Y-149575000D03*
D22*
X97860000Y-149575000D03*
D33*
X98622500Y-149575000D03*
D32*
%TO.P,C120,2*%
%TO.N,GND*%
X102200000Y-149575000D03*
D33*
X100697500Y-149575000D03*
D22*
X101460000Y-149575000D03*
%TD*%
D10*
%TO.P,D6,1,K*%
%TO.N,ROW1*%
X70540000Y-64615000D03*
D11*
X70540000Y-65355000D03*
D12*
X70540000Y-63852500D03*
D13*
%TO.P,D6,2,A*%
%TO.N,SW6*%
X70540000Y-60275000D03*
D12*
X70540000Y-61777500D03*
D10*
X70540000Y-61015000D03*
%TD*%
D16*
%TO.P,SW22,1,A*%
%TO.N,COL5*%
X112720000Y-75935000D03*
D15*
X113990000Y-73395000D03*
D14*
X116530000Y-72575000D03*
D18*
%TO.P,SW22,2,B*%
%TO.N,SW22*%
X120340000Y-75935000D03*
D17*
X111430000Y-74575000D03*
D19*
X121630000Y-74575000D03*
D15*
X119070000Y-73395000D03*
%TD*%
D26*
%TO.P,D104,1,VDD*%
%TO.N,VRGB*%
X47205600Y-130935600D03*
%TO.P,D104,2,DOUT*%
%TO.N,Net-(D104-Pad2)*%
X47205600Y-129435600D03*
D34*
%TO.P,D104,3,VSS*%
%TO.N,GND*%
X41905600Y-129435600D03*
D26*
%TO.P,D104,4,DIN*%
%TO.N,Net-(D103-Pad2)*%
X41905600Y-130935600D03*
%TD*%
D37*
%TO.P,IC5,1,CH1*%
%TO.N,SW30*%
X89657391Y-137553820D03*
D38*
%TO.P,IC5,2,CH2*%
%TO.N,SW25*%
X90307391Y-137553820D03*
%TO.P,IC5,3,VN*%
%TO.N,unconnected-(IC5-Pad3)*%
X90957391Y-137553820D03*
%TO.P,IC5,4,CH3*%
%TO.N,SW20*%
X91607391Y-137553820D03*
%TO.P,IC5,5,CH4*%
%TO.N,SW5*%
X91607391Y-141953820D03*
%TO.P,IC5,6,CH5*%
%TO.N,SW10*%
X90957391Y-141953820D03*
%TO.P,IC5,7,VP*%
%TO.N,ROW5*%
X90307391Y-141953820D03*
%TO.P,IC5,8,CH6*%
%TO.N,SW15*%
X89657391Y-141953820D03*
%TD*%
D33*
%TO.P,C111,1*%
%TO.N,VRGB*%
X79342500Y-67445000D03*
D22*
X78580000Y-67445000D03*
D32*
X77840000Y-67445000D03*
D33*
%TO.P,C111,2*%
%TO.N,GND*%
X81417500Y-67445000D03*
D32*
X82920000Y-67445000D03*
D22*
X82180000Y-67445000D03*
%TD*%
D12*
%TO.P,D26,1,K*%
%TO.N,ROW1*%
X125650000Y-58872500D03*
D11*
X125650000Y-60375000D03*
D10*
X125650000Y-59635000D03*
D13*
%TO.P,D26,2,A*%
%TO.N,SW26*%
X125650000Y-55295000D03*
D12*
X125650000Y-56797500D03*
D10*
X125650000Y-56035000D03*
%TD*%
D15*
%TO.P,SW2,1,A*%
%TO.N,COL1*%
X41990000Y-82395000D03*
D14*
X44530000Y-81575000D03*
D16*
X40720000Y-84935000D03*
D15*
%TO.P,SW2,2,B*%
%TO.N,SW2*%
X47070000Y-82395000D03*
D17*
X39430000Y-83575000D03*
D18*
X48340000Y-84935000D03*
D19*
X49630000Y-83575000D03*
%TD*%
D16*
%TO.P,SW17,1,A*%
%TO.N,COL4*%
X94720000Y-71935000D03*
D15*
X95990000Y-69395000D03*
D14*
X98530000Y-68575000D03*
D18*
%TO.P,SW17,2,B*%
%TO.N,SW17*%
X102340000Y-71935000D03*
D15*
X101070000Y-69395000D03*
D19*
X103630000Y-70575000D03*
D17*
X93430000Y-70575000D03*
%TD*%
D26*
%TO.P,D120,1,VDD*%
%TO.N,VRGB*%
X96905600Y-145435600D03*
%TO.P,D120,2,DOUT*%
%TO.N,Net-(D115-Pad4)*%
X96905600Y-146935600D03*
D27*
%TO.P,D120,3,VSS*%
%TO.N,GND*%
X102205600Y-146935600D03*
D26*
%TO.P,D120,4,DIN*%
%TO.N,Net-(D120-Pad4)*%
X102205600Y-145435600D03*
%TD*%
D21*
%TO.P,C109,1*%
%TO.N,VRGB*%
X63660000Y-132405000D03*
D22*
X64422500Y-132405000D03*
D20*
X65162500Y-132405000D03*
D22*
%TO.P,C109,2*%
%TO.N,GND*%
X60822500Y-132405000D03*
D21*
X61585000Y-132405000D03*
D20*
X60082500Y-132405000D03*
%TD*%
D14*
%TO.P,SW27,1,A*%
%TO.N,COL6*%
X134530000Y-74575000D03*
D16*
X130720000Y-77935000D03*
D15*
X131990000Y-75395000D03*
D18*
%TO.P,SW27,2,B*%
%TO.N,SW27*%
X138340000Y-77935000D03*
D15*
X137070000Y-75395000D03*
D19*
X139630000Y-76575000D03*
D17*
X129430000Y-76575000D03*
%TD*%
D22*
%TO.P,C122,1*%
%TO.N,VRGB*%
X118420000Y-86595000D03*
D20*
X119160000Y-86595000D03*
D21*
X117657500Y-86595000D03*
%TO.P,C122,2*%
%TO.N,GND*%
X115582500Y-86595000D03*
D20*
X114080000Y-86595000D03*
D22*
X114820000Y-86595000D03*
%TD*%
%TO.P,C115,1*%
%TO.N,VRGB*%
X79710000Y-150565000D03*
D33*
X80472500Y-150565000D03*
D32*
X78970000Y-150565000D03*
%TO.P,C115,2*%
%TO.N,GND*%
X84050000Y-150565000D03*
D33*
X82547500Y-150565000D03*
D22*
X83310000Y-150565000D03*
%TD*%
D14*
%TO.P,SW23,1,A*%
%TO.N,COL5*%
X116530000Y-91575000D03*
D16*
X112720000Y-94935000D03*
D15*
X113990000Y-92395000D03*
D19*
%TO.P,SW23,2,B*%
%TO.N,SW23*%
X121630000Y-93575000D03*
D17*
X111430000Y-93575000D03*
D15*
X119070000Y-92395000D03*
D18*
X120340000Y-94935000D03*
%TD*%
D22*
%TO.P,D38,1,K*%
%TO.N,Net-(D38-Pad1)*%
X109830000Y-130995000D03*
D21*
X109067500Y-130995000D03*
D11*
X110570000Y-130995000D03*
D21*
%TO.P,D38,2,A*%
%TO.N,COL5*%
X106992500Y-130995000D03*
D13*
X105490000Y-130995000D03*
D22*
X106230000Y-130995000D03*
%TD*%
D12*
%TO.P,D27,1,K*%
%TO.N,ROW2*%
X125330000Y-76122500D03*
D10*
X125330000Y-76885000D03*
D11*
X125330000Y-77625000D03*
D12*
%TO.P,D27,2,A*%
%TO.N,SW27*%
X125330000Y-74047500D03*
D10*
X125330000Y-73285000D03*
D13*
X125330000Y-72545000D03*
%TD*%
D21*
%TO.P,C129,1*%
%TO.N,VRGB*%
X135537500Y-126445000D03*
D20*
X137040000Y-126445000D03*
D22*
X136300000Y-126445000D03*
D21*
%TO.P,C129,2*%
%TO.N,GND*%
X133462500Y-126445000D03*
D22*
X132700000Y-126445000D03*
D20*
X131960000Y-126445000D03*
%TD*%
D14*
%TO.P,SW25,1,A*%
%TO.N,COL5*%
X118615083Y-133023025D03*
D15*
X116075083Y-133843025D03*
D16*
X114805083Y-136383025D03*
D19*
%TO.P,SW25,2,B*%
%TO.N,SW25*%
X123715083Y-135023025D03*
D18*
X122425083Y-136383025D03*
D17*
X113515083Y-135023025D03*
D15*
X121155083Y-133843025D03*
%TD*%
%TO.P,SW26,1,A*%
%TO.N,COL6*%
X131990000Y-56395000D03*
D14*
X134530000Y-55575000D03*
D16*
X130720000Y-58935000D03*
D15*
%TO.P,SW26,2,B*%
%TO.N,SW26*%
X137070000Y-56395000D03*
D19*
X139630000Y-57575000D03*
D18*
X138340000Y-58935000D03*
D17*
X129430000Y-57575000D03*
%TD*%
D12*
%TO.P,D4,1,K*%
%TO.N,ROW4*%
X52640000Y-122602500D03*
D11*
X52640000Y-124105000D03*
D10*
X52640000Y-123365000D03*
%TO.P,D4,2,A*%
%TO.N,SW4*%
X52640000Y-119765000D03*
D12*
X52640000Y-120527500D03*
D13*
X52640000Y-119025000D03*
%TD*%
D56*
%TO.P,C131,1*%
%TO.N,VRGB*%
X151771154Y-155375000D03*
D57*
X152431499Y-155756250D03*
D58*
X151130295Y-155005000D03*
%TO.P,C131,2*%
%TO.N,GND*%
X155529705Y-157545000D03*
D56*
X154888846Y-157175000D03*
D57*
X154228501Y-156793750D03*
%TD*%
D33*
%TO.P,C101,1*%
%TO.N,VRGB*%
X43612500Y-76365000D03*
D22*
X42850000Y-76365000D03*
D32*
X42110000Y-76365000D03*
%TO.P,C101,2*%
%TO.N,GND*%
X47190000Y-76365000D03*
D22*
X46450000Y-76365000D03*
D33*
X45687500Y-76365000D03*
%TD*%
D59*
%TO.P,U4,1,SLEEVE*%
%TO.N,GND*%
X171070000Y-77967500D03*
%TO.P,U4,2,TIP*%
%TO.N,Net-(U4-Pad2)*%
X175670000Y-76867500D03*
%TO.P,U4,3,RING1*%
%TO.N,SDA*%
X175670000Y-72867500D03*
%TO.P,U4,4,RING2*%
%TO.N,SCL*%
X175670000Y-69867500D03*
%TD*%
D26*
%TO.P,D105,1,VDD*%
%TO.N,VRGB*%
X42905600Y-148435600D03*
%TO.P,D105,2,DOUT*%
%TO.N,unconnected-(D105-Pad2)*%
X42905600Y-149935600D03*
D27*
%TO.P,D105,3,VSS*%
%TO.N,GND*%
X48205600Y-149935600D03*
D26*
%TO.P,D105,4,DIN*%
%TO.N,Net-(D105-Pad4)*%
X48205600Y-148435600D03*
%TD*%
D10*
%TO.P,D5,1,K*%
%TO.N,ROW5*%
X54170000Y-142555000D03*
D11*
X54170000Y-143295000D03*
D12*
X54170000Y-141792500D03*
D13*
%TO.P,D5,2,A*%
%TO.N,SW5*%
X54170000Y-138215000D03*
D10*
X54170000Y-138955000D03*
D12*
X54170000Y-139717500D03*
%TD*%
D33*
%TO.P,C116,1*%
%TO.N,VRGB*%
X97172500Y-63805000D03*
D22*
X96410000Y-63805000D03*
D32*
X95670000Y-63805000D03*
D33*
%TO.P,C116,2*%
%TO.N,GND*%
X99247500Y-63805000D03*
D22*
X100010000Y-63805000D03*
D32*
X100750000Y-63805000D03*
%TD*%
D26*
%TO.P,D121,1,VDD*%
%TO.N,VRGB*%
X113905600Y-63435600D03*
%TO.P,D121,2,DOUT*%
%TO.N,Net-(D116-Pad4)*%
X113905600Y-64935600D03*
D27*
%TO.P,D121,3,VSS*%
%TO.N,GND*%
X119205600Y-64935600D03*
D26*
%TO.P,D121,4,DIN*%
%TO.N,Net-(D121-Pad4)*%
X119205600Y-63435600D03*
%TD*%
D11*
%TO.P,D45,1,K*%
%TO.N,ROW6*%
X143480000Y-94705000D03*
D10*
X143480000Y-93965000D03*
D12*
X143480000Y-93202500D03*
D10*
%TO.P,D45,2,A*%
%TO.N,Net-(D45-Pad2)*%
X143480000Y-90365000D03*
D12*
X143480000Y-91127500D03*
D13*
X143480000Y-89625000D03*
%TD*%
D11*
%TO.P,D22,1,K*%
%TO.N,ROW2*%
X108560000Y-75765000D03*
D12*
X108560000Y-74262500D03*
D10*
X108560000Y-75025000D03*
D13*
%TO.P,D22,2,A*%
%TO.N,SW22*%
X108560000Y-70685000D03*
D12*
X108560000Y-72187500D03*
D10*
X108560000Y-71425000D03*
%TD*%
D37*
%TO.P,IC3,1,CH1*%
%TO.N,SW28*%
X88775000Y-92545000D03*
D38*
%TO.P,IC3,2,CH2*%
%TO.N,SW23*%
X89425000Y-92545000D03*
%TO.P,IC3,3,VN*%
%TO.N,unconnected-(IC3-Pad3)*%
X90075000Y-92545000D03*
%TO.P,IC3,4,CH3*%
%TO.N,SW18*%
X90725000Y-92545000D03*
%TO.P,IC3,5,CH4*%
%TO.N,SW3*%
X90725000Y-96945000D03*
%TO.P,IC3,6,CH5*%
%TO.N,SW8*%
X90075000Y-96945000D03*
%TO.P,IC3,7,VP*%
%TO.N,ROW3*%
X89425000Y-96945000D03*
%TO.P,IC3,8,CH6*%
%TO.N,SW13*%
X88775000Y-96945000D03*
%TD*%
D60*
%TO.P,S1,1,1*%
%TO.N,Net-(D32-Pad1)*%
X155167760Y-143425983D03*
D61*
X162204047Y-149058777D03*
D62*
%TO.P,S1,2,2*%
%TO.N,Net-(D31-Pad1)*%
X153053216Y-146708482D03*
D63*
%TO.P,S1,3,3*%
%TO.N,Net-(D33-Pad1)*%
X151917760Y-149055148D03*
%TO.P,S1,4,4*%
%TO.N,Net-(D35-Pad1)*%
X160751220Y-154155148D03*
D62*
%TO.P,S1,5,5*%
%TO.N,Net-(D36-Pad1)*%
X162215764Y-151998482D03*
D64*
%TO.P,S1,6,6*%
%TO.N,Net-(D34-Pad1)*%
X155604933Y-145248777D03*
D65*
X164001220Y-148525983D03*
D15*
%TO.P,S1,7,7*%
%TO.N,ROW7*%
X162374195Y-146224073D03*
D14*
X160584490Y-144243932D03*
D15*
X157974785Y-143684073D03*
%TD*%
D22*
%TO.P,C112,1*%
%TO.N,VRGB*%
X82350000Y-86555000D03*
D21*
X81587500Y-86555000D03*
D20*
X83090000Y-86555000D03*
D21*
%TO.P,C112,2*%
%TO.N,GND*%
X79512500Y-86555000D03*
D20*
X78010000Y-86555000D03*
D22*
X78750000Y-86555000D03*
%TD*%
D20*
%TO.P,C124,1*%
%TO.N,VRGB*%
X119072500Y-124355000D03*
D22*
X118332500Y-124355000D03*
D21*
X117570000Y-124355000D03*
D22*
%TO.P,C124,2*%
%TO.N,GND*%
X114732500Y-124355000D03*
D21*
X115495000Y-124355000D03*
D20*
X113992500Y-124355000D03*
%TD*%
D66*
%TO.P,D130,1,VDD*%
%TO.N,VRGB*%
X135269946Y-144731402D03*
%TO.P,D130,2,DOUT*%
%TO.N,Net-(D125-Pad4)*%
X134881717Y-146180291D03*
D67*
%TO.P,D130,3,VSS*%
%TO.N,GND*%
X140001124Y-147552032D03*
D66*
%TO.P,D130,4,DIN*%
%TO.N,Net-(D129-Pad2)*%
X140389353Y-146103143D03*
%TD*%
D22*
%TO.P,C118,1*%
%TO.N,VRGB*%
X96710000Y-101535000D03*
D32*
X95970000Y-101535000D03*
D33*
X97472500Y-101535000D03*
D32*
%TO.P,C118,2*%
%TO.N,GND*%
X101050000Y-101535000D03*
D33*
X99547500Y-101535000D03*
D22*
X100310000Y-101535000D03*
%TD*%
D26*
%TO.P,D124,1,VDD*%
%TO.N,VRGB*%
X119205600Y-121935600D03*
%TO.P,D124,2,DOUT*%
%TO.N,Net-(D124-Pad2)*%
X119205600Y-120435600D03*
D34*
%TO.P,D124,3,VSS*%
%TO.N,GND*%
X113905600Y-120435600D03*
D26*
%TO.P,D124,4,DIN*%
%TO.N,Net-(D119-Pad2)*%
X113905600Y-121935600D03*
%TD*%
D33*
%TO.P,C103,1*%
%TO.N,VRGB*%
X43652500Y-114455000D03*
D22*
X42890000Y-114455000D03*
D32*
X42150000Y-114455000D03*
D22*
%TO.P,C103,2*%
%TO.N,GND*%
X46490000Y-114455000D03*
D33*
X45727500Y-114455000D03*
D32*
X47230000Y-114455000D03*
%TD*%
D15*
%TO.P,SW19,1,A*%
%TO.N,COL4*%
X95990000Y-107395000D03*
D14*
X98530000Y-106575000D03*
D16*
X94720000Y-109935000D03*
D19*
%TO.P,SW19,2,B*%
%TO.N,SW19*%
X103630000Y-108575000D03*
D15*
X101070000Y-107395000D03*
D17*
X93430000Y-108575000D03*
D18*
X102340000Y-109935000D03*
%TD*%
D10*
%TO.P,D9,1,K*%
%TO.N,ROW4*%
X70600000Y-120285000D03*
D11*
X70600000Y-121025000D03*
D12*
X70600000Y-119522500D03*
D10*
%TO.P,D9,2,A*%
%TO.N,SW9*%
X70600000Y-116685000D03*
D13*
X70600000Y-115945000D03*
D12*
X70600000Y-117447500D03*
%TD*%
D32*
%TO.P,C105,1*%
%TO.N,VRGB*%
X42920000Y-152505000D03*
D33*
X44422500Y-152505000D03*
D22*
X43660000Y-152505000D03*
%TO.P,C105,2*%
%TO.N,GND*%
X47260000Y-152505000D03*
D33*
X46497500Y-152505000D03*
D32*
X48000000Y-152505000D03*
%TD*%
D14*
%TO.P,SW6,1,A*%
%TO.N,COL2*%
X62530000Y-61575000D03*
D16*
X58720000Y-64935000D03*
D15*
X59990000Y-62395000D03*
D19*
%TO.P,SW6,2,B*%
%TO.N,SW6*%
X67630000Y-63575000D03*
D17*
X57430000Y-63575000D03*
D18*
X66340000Y-64935000D03*
D15*
X65070000Y-62395000D03*
%TD*%
D10*
%TO.P,R2,1*%
%TO.N,+3V3*%
X143140000Y-70675000D03*
D68*
X143140000Y-71437500D03*
D13*
X143140000Y-69935000D03*
D10*
%TO.P,R2,2*%
%TO.N,SCL*%
X143140000Y-74275000D03*
D13*
X143140000Y-75015000D03*
D68*
X143140000Y-73512500D03*
%TD*%
D26*
%TO.P,D127,1,VDD*%
%TO.N,VRGB*%
X137205600Y-85935600D03*
%TO.P,D127,2,DOUT*%
%TO.N,Net-(D127-Pad2)*%
X137205600Y-84435600D03*
D34*
%TO.P,D127,3,VSS*%
%TO.N,GND*%
X131905600Y-84435600D03*
D26*
%TO.P,D127,4,DIN*%
%TO.N,Net-(D122-Pad2)*%
X131905600Y-85935600D03*
%TD*%
D10*
%TO.P,D21,1,K*%
%TO.N,ROW1*%
X108580000Y-58405000D03*
D11*
X108580000Y-59145000D03*
D12*
X108580000Y-57642500D03*
%TO.P,D21,2,A*%
%TO.N,SW21*%
X108580000Y-55567500D03*
D13*
X108580000Y-54065000D03*
D10*
X108580000Y-54805000D03*
%TD*%
D15*
%TO.P,SW29,1,A*%
%TO.N,COL6*%
X131990000Y-113395000D03*
D14*
X134530000Y-112575000D03*
D16*
X130720000Y-115935000D03*
D15*
%TO.P,SW29,2,B*%
%TO.N,SW29*%
X137070000Y-113395000D03*
D19*
X139630000Y-114575000D03*
D18*
X138340000Y-115935000D03*
D17*
X129430000Y-114575000D03*
%TD*%
D22*
%TO.P,D39,1,K*%
%TO.N,Net-(D39-Pad1)*%
X93580000Y-123495000D03*
D21*
X92817500Y-123495000D03*
D11*
X94320000Y-123495000D03*
D13*
%TO.P,D39,2,A*%
%TO.N,COL3*%
X89240000Y-123495000D03*
D21*
X90742500Y-123495000D03*
D22*
X89980000Y-123495000D03*
%TD*%
%TO.P,C110,1*%
%TO.N,VRGB*%
X61780000Y-151485000D03*
D32*
X61040000Y-151485000D03*
D33*
X62542500Y-151485000D03*
D32*
%TO.P,C110,2*%
%TO.N,GND*%
X66120000Y-151485000D03*
D22*
X65380000Y-151485000D03*
D33*
X64617500Y-151485000D03*
%TD*%
D10*
%TO.P,D25,1,K*%
%TO.N,ROW5*%
X110140000Y-140675000D03*
D12*
X110140000Y-139912500D03*
D11*
X110140000Y-141415000D03*
D12*
%TO.P,D25,2,A*%
%TO.N,SW25*%
X110140000Y-137837500D03*
D10*
X110140000Y-137075000D03*
D13*
X110140000Y-136335000D03*
%TD*%
D26*
%TO.P,D122,1,VDD*%
%TO.N,VRGB*%
X119205600Y-83935600D03*
%TO.P,D122,2,DOUT*%
%TO.N,Net-(D122-Pad2)*%
X119205600Y-82435600D03*
D34*
%TO.P,D122,3,VSS*%
%TO.N,GND*%
X113905600Y-82435600D03*
D26*
%TO.P,D122,4,DIN*%
%TO.N,Net-(D117-Pad2)*%
X113905600Y-83935600D03*
%TD*%
D11*
%TO.P,D42,1,K*%
%TO.N,Net-(D42-Pad1)*%
X101390000Y-123435000D03*
D13*
%TO.P,D42,2,A*%
%TO.N,COL4*%
X96310000Y-123435000D03*
%TD*%
D16*
%TO.P,SW12,1,A*%
%TO.N,COL3*%
X76720000Y-75935000D03*
D15*
X77990000Y-73395000D03*
D14*
X80530000Y-72575000D03*
D18*
%TO.P,SW12,2,B*%
%TO.N,SW12*%
X84340000Y-75935000D03*
D15*
X83070000Y-73395000D03*
D17*
X75430000Y-74575000D03*
D19*
X85630000Y-74575000D03*
%TD*%
D10*
%TO.P,D20,1,K*%
%TO.N,ROW5*%
X108090000Y-140662500D03*
D11*
X108090000Y-141402500D03*
D12*
X108090000Y-139900000D03*
D13*
%TO.P,D20,2,A*%
%TO.N,SW20*%
X108090000Y-136322500D03*
D12*
X108090000Y-137825000D03*
D10*
X108090000Y-137062500D03*
%TD*%
D37*
%TO.P,IC1,1,CH1*%
%TO.N,SW26*%
X88640000Y-55119632D03*
D38*
%TO.P,IC1,2,CH2*%
%TO.N,SW21*%
X89290000Y-55119632D03*
%TO.P,IC1,3,VN*%
%TO.N,unconnected-(IC1-Pad3)*%
X89940000Y-55119632D03*
%TO.P,IC1,4,CH3*%
%TO.N,SW16*%
X90590000Y-55119632D03*
%TO.P,IC1,5,CH4*%
%TO.N,SW1*%
X90590000Y-59519632D03*
%TO.P,IC1,6,CH5*%
%TO.N,SW6*%
X89940000Y-59519632D03*
%TO.P,IC1,7,VP*%
%TO.N,ROW1*%
X89290000Y-59519632D03*
%TO.P,IC1,8,CH6*%
%TO.N,SW11*%
X88640000Y-59519632D03*
%TD*%
D26*
%TO.P,D107,1,VDD*%
%TO.N,VRGB*%
X65205600Y-91935600D03*
%TO.P,D107,2,DOUT*%
%TO.N,Net-(D107-Pad2)*%
X65205600Y-90435600D03*
D34*
%TO.P,D107,3,VSS*%
%TO.N,GND*%
X59905600Y-90435600D03*
D26*
%TO.P,D107,4,DIN*%
%TO.N,Net-(D102-Pad2)*%
X59905600Y-91935600D03*
%TD*%
D16*
%TO.P,SW9,1,A*%
%TO.N,COL2*%
X58720000Y-121935000D03*
D15*
X59990000Y-119395000D03*
D14*
X62530000Y-118575000D03*
D19*
%TO.P,SW9,2,B*%
%TO.N,SW9*%
X67630000Y-120575000D03*
D17*
X57430000Y-120575000D03*
D15*
X65070000Y-119395000D03*
D18*
X66340000Y-121935000D03*
%TD*%
D21*
%TO.P,C102,1*%
%TO.N,VRGB*%
X45727500Y-95395000D03*
D22*
X46490000Y-95395000D03*
D20*
X47230000Y-95395000D03*
D22*
%TO.P,C102,2*%
%TO.N,GND*%
X42890000Y-95395000D03*
D21*
X43652500Y-95395000D03*
D20*
X42150000Y-95395000D03*
%TD*%
D26*
%TO.P,D103,1,VDD*%
%TO.N,VRGB*%
X41905600Y-110435600D03*
%TO.P,D103,2,DOUT*%
%TO.N,Net-(D103-Pad2)*%
X41905600Y-111935600D03*
D27*
%TO.P,D103,3,VSS*%
%TO.N,GND*%
X47205600Y-111935600D03*
D26*
%TO.P,D103,4,DIN*%
%TO.N,Net-(D103-Pad4)*%
X47205600Y-110435600D03*
%TD*%
D10*
%TO.P,D19,1,K*%
%TO.N,ROW4*%
X106520000Y-112525000D03*
D12*
X106520000Y-111762500D03*
D11*
X106520000Y-113265000D03*
D13*
%TO.P,D19,2,A*%
%TO.N,SW19*%
X106520000Y-108185000D03*
D12*
X106520000Y-109687500D03*
D10*
X106520000Y-108925000D03*
%TD*%
%TO.P,D46,1,K*%
%TO.N,ROW6*%
X143530000Y-101555000D03*
D11*
X143530000Y-102295000D03*
D12*
X143530000Y-100792500D03*
D10*
%TO.P,D46,2,A*%
%TO.N,Net-(D46-Pad2)*%
X143530000Y-97955000D03*
D13*
X143530000Y-97215000D03*
D12*
X143530000Y-98717500D03*
%TD*%
D26*
%TO.P,D111,1,VDD*%
%TO.N,VRGB*%
X77905600Y-63435600D03*
%TO.P,D111,2,DOUT*%
%TO.N,Net-(D106-Pad4)*%
X77905600Y-64935600D03*
D27*
%TO.P,D111,3,VSS*%
%TO.N,GND*%
X83205600Y-64935600D03*
D26*
%TO.P,D111,4,DIN*%
%TO.N,Net-(D111-Pad4)*%
X83205600Y-63435600D03*
%TD*%
D12*
%TO.P,D28,1,K*%
%TO.N,ROW3*%
X125450000Y-93562500D03*
D11*
X125450000Y-95065000D03*
D10*
X125450000Y-94325000D03*
%TO.P,D28,2,A*%
%TO.N,SW28*%
X125450000Y-90725000D03*
D13*
X125450000Y-89985000D03*
D12*
X125450000Y-91487500D03*
%TD*%
D26*
%TO.P,D101,1,VDD*%
%TO.N,VRGB*%
X41905600Y-72435600D03*
%TO.P,D101,2,DOUT*%
%TO.N,Net-(D101-Pad2)*%
X41905600Y-73935600D03*
D27*
%TO.P,D101,3,VSS*%
%TO.N,GND*%
X47205600Y-73935600D03*
D26*
%TO.P,D101,4,DIN*%
%TO.N,Net-(D101-Pad4)*%
X47205600Y-72435600D03*
%TD*%
D12*
%TO.P,D8,1,K*%
%TO.N,ROW3*%
X70580000Y-101532500D03*
D10*
X70580000Y-102295000D03*
D11*
X70580000Y-103035000D03*
D10*
%TO.P,D8,2,A*%
%TO.N,SW8*%
X70580000Y-98695000D03*
D13*
X70580000Y-97955000D03*
D12*
X70580000Y-99457500D03*
%TD*%
D11*
%TO.P,D41,1,K*%
%TO.N,Net-(D41-Pad1)*%
X94320000Y-125695000D03*
D21*
X92817500Y-125695000D03*
D22*
X93580000Y-125695000D03*
D21*
%TO.P,D41,2,A*%
%TO.N,COL2*%
X90742500Y-125695000D03*
D13*
X89240000Y-125695000D03*
D22*
X89980000Y-125695000D03*
%TD*%
D26*
%TO.P,D106,1,VDD*%
%TO.N,VRGB*%
X59905600Y-71435600D03*
%TO.P,D106,2,DOUT*%
%TO.N,Net-(D101-Pad4)*%
X59905600Y-72935600D03*
D27*
%TO.P,D106,3,VSS*%
%TO.N,GND*%
X65205600Y-72935600D03*
D26*
%TO.P,D106,4,DIN*%
%TO.N,Net-(D106-Pad4)*%
X65205600Y-71435600D03*
%TD*%
D69*
%TO.P,U3,1,GND*%
%TO.N,GND*%
X123625072Y-43207855D03*
D15*
%TO.P,U3,2,DRGB*%
%TO.N,DRGB*%
X126078523Y-42550454D03*
%TO.P,U3,3,A1D4*%
%TO.N,LED_DIN*%
X128531975Y-41893054D03*
%TO.P,U3,4,V33*%
%TO.N,+3V3*%
X130949248Y-41245348D03*
%TO.P,U3,5,VRGB*%
%TO.N,VRGB*%
X133438878Y-40578253D03*
%TO.P,U3,6,VUSB*%
%TO.N,+5V*%
X135892330Y-39920853D03*
%TO.P,U3,7*%
%TO.N,N/C*%
X122967671Y-40754403D03*
%TO.P,U3,8*%
X125421123Y-40097003D03*
%TO.P,U3,9*%
X127873822Y-39436793D03*
%TO.P,U3,10*%
X130291095Y-38789086D03*
%TO.P,U3,11*%
X132780725Y-38121992D03*
%TO.P,U3,12*%
X135234929Y-37467401D03*
%TD*%
D54*
%TO.P,U2,1,TX*%
%TO.N,unconnected-(U2-Pad1)*%
X148584998Y-51480002D03*
D55*
%TO.P,U2,2,RX*%
%TO.N,ROW1*%
X148584998Y-54020002D03*
%TO.P,U2,3,GND*%
%TO.N,GND*%
X148584998Y-56560002D03*
%TO.P,U2,4,GND*%
X148584998Y-59100002D03*
%TO.P,U2,5,SDA*%
%TO.N,SDA*%
X148584998Y-61640002D03*
%TO.P,U2,6,SCL*%
%TO.N,SCL*%
X148584998Y-64180002D03*
%TO.P,U2,7,D4*%
%TO.N,LED_DIN*%
X148584998Y-66720002D03*
%TO.P,U2,8,C6*%
%TO.N,ROW2*%
X148584998Y-69260002D03*
%TO.P,U2,9,D7*%
%TO.N,ROW3*%
X148584998Y-71800002D03*
%TO.P,U2,10,E6*%
%TO.N,ROW4*%
X148584998Y-74340002D03*
%TO.P,U2,11,B4*%
%TO.N,ROW8*%
X148584998Y-76880002D03*
%TO.P,U2,12,B5*%
%TO.N,ROW7*%
X148584998Y-79420002D03*
%TO.P,U2,13,B6*%
%TO.N,ROW6*%
X163824998Y-79420002D03*
%TO.P,U2,14,B2*%
%TO.N,ROW5*%
X163824998Y-76880002D03*
%TO.P,U2,15,B3*%
%TO.N,COL6*%
X163824998Y-74340002D03*
%TO.P,U2,16,B1*%
%TO.N,COL5*%
X163824998Y-71800002D03*
%TO.P,U2,17,F7*%
%TO.N,COL4*%
X163824998Y-69260002D03*
%TO.P,U2,18,F6*%
%TO.N,COL3*%
X163824998Y-66720002D03*
%TO.P,U2,19,F5*%
%TO.N,COL2*%
X163824998Y-64180002D03*
%TO.P,U2,20,F4*%
%TO.N,COL1*%
X163824998Y-61640002D03*
%TO.P,U2,21,VCC*%
%TO.N,+3V3*%
X163824998Y-59100002D03*
%TO.P,U2,22,RST*%
%TO.N,unconnected-(U2-Pad22)*%
X163824998Y-56560002D03*
%TO.P,U2,23,GND*%
%TO.N,GND*%
X163824998Y-54020002D03*
%TO.P,U2,24,RAW*%
%TO.N,+5V*%
X163824998Y-51480002D03*
%TD*%
D16*
%TO.P,SW28,1,A*%
%TO.N,COL6*%
X130720000Y-96935000D03*
D15*
X131990000Y-94395000D03*
D14*
X134530000Y-93575000D03*
D19*
%TO.P,SW28,2,B*%
%TO.N,SW28*%
X139630000Y-95575000D03*
D18*
X138340000Y-96935000D03*
D17*
X129430000Y-95575000D03*
D15*
X137070000Y-94395000D03*
%TD*%
D37*
%TO.P,IC4,1,CH1*%
%TO.N,SW29*%
X88670000Y-111915402D03*
D38*
%TO.P,IC4,2,CH2*%
%TO.N,SW24*%
X89320000Y-111915402D03*
%TO.P,IC4,3,VN*%
%TO.N,unconnected-(IC4-Pad3)*%
X89970000Y-111915402D03*
%TO.P,IC4,4,CH3*%
%TO.N,SW19*%
X90620000Y-111915402D03*
%TO.P,IC4,5,CH4*%
%TO.N,SW4*%
X90620000Y-116315402D03*
%TO.P,IC4,6,CH5*%
%TO.N,SW9*%
X89970000Y-116315402D03*
%TO.P,IC4,7,VP*%
%TO.N,ROW4*%
X89320000Y-116315402D03*
%TO.P,IC4,8,CH6*%
%TO.N,SW14*%
X88670000Y-116315402D03*
%TD*%
D70*
%TO.P,D43,1,VDD*%
%TO.N,VRGB*%
X153266222Y-151519545D03*
%TO.P,D43,2,DOUT*%
%TO.N,Net-(D129-Pad2)*%
X152516222Y-152818583D03*
D71*
%TO.P,D43,3,VSS*%
%TO.N,GND*%
X157106156Y-155468583D03*
D70*
%TO.P,D43,4,DIN*%
%TO.N,Net-(D43-Pad4)*%
X157856156Y-154169545D03*
%TD*%
D22*
%TO.P,C128,1*%
%TO.N,VRGB*%
X132740000Y-107405000D03*
D33*
X133502500Y-107405000D03*
D32*
X132000000Y-107405000D03*
D33*
%TO.P,C128,2*%
%TO.N,GND*%
X135577500Y-107405000D03*
D22*
X136340000Y-107405000D03*
D32*
X137080000Y-107405000D03*
%TD*%
D22*
%TO.P,C117,1*%
%TO.N,VRGB*%
X100180000Y-82655000D03*
D21*
X99417500Y-82655000D03*
D20*
X100920000Y-82655000D03*
D21*
%TO.P,C117,2*%
%TO.N,GND*%
X97342500Y-82655000D03*
D20*
X95840000Y-82655000D03*
D22*
X96580000Y-82655000D03*
%TD*%
%TO.P,C126,1*%
%TO.N,VRGB*%
X132640000Y-69665000D03*
D32*
X131900000Y-69665000D03*
D33*
X133402500Y-69665000D03*
%TO.P,C126,2*%
%TO.N,GND*%
X135477500Y-69665000D03*
D32*
X136980000Y-69665000D03*
D22*
X136240000Y-69665000D03*
%TD*%
%TO.P,D34,1,K*%
%TO.N,Net-(D34-Pad1)*%
X131580000Y-134575000D03*
D11*
X132320000Y-134575000D03*
D21*
X130817500Y-134575000D03*
D13*
%TO.P,D34,2,A*%
%TO.N,COL6*%
X127240000Y-134575000D03*
D21*
X128742500Y-134575000D03*
D22*
X127980000Y-134575000D03*
%TD*%
D72*
%TO.P,JP6,1,A*%
%TO.N,Net-(JP10-Pad1)*%
X154759998Y-60630002D03*
D73*
%TO.P,JP6,2,B*%
%TO.N,EN*%
X156209998Y-60630002D03*
%TD*%
D59*
%TO.P,U5,1,SLEEVE*%
%TO.N,GND*%
X173969999Y-77974000D03*
%TO.P,U5,2,TIP*%
%TO.N,Net-(U5-Pad2)*%
X169369999Y-76874000D03*
%TO.P,U5,3,RING1*%
%TO.N,SDA*%
X169369999Y-72874000D03*
%TO.P,U5,4,RING2*%
%TO.N,SCL*%
X169369999Y-69874000D03*
%TD*%
D72*
%TO.P,JP12,1,A*%
%TO.N,Net-(D36-Pad1)*%
X99895000Y-132025000D03*
D73*
%TO.P,JP12,2,B*%
%TO.N,ROW7*%
X101345000Y-132025000D03*
%TD*%
D21*
%TO.P,D37,1,K*%
%TO.N,Net-(D37-Pad1)*%
X99887500Y-125605000D03*
D11*
X101390000Y-125605000D03*
D22*
X100650000Y-125605000D03*
%TO.P,D37,2,A*%
%TO.N,COL4*%
X97050000Y-125605000D03*
D13*
X96310000Y-125605000D03*
D21*
X97812500Y-125605000D03*
%TD*%
D72*
%TO.P,JP10,1,A*%
%TO.N,Net-(JP10-Pad1)*%
X154620000Y-76030000D03*
D73*
%TO.P,JP10,2,B*%
%TO.N,COL2*%
X156070000Y-76030000D03*
%TD*%
D72*
%TO.P,JP4,1,A*%
%TO.N,Net-(JP3-Pad1)*%
X154629998Y-67970002D03*
D73*
%TO.P,JP4,2,B*%
%TO.N,EN*%
X156079998Y-67970002D03*
%TD*%
D72*
%TO.P,JP8,1,A*%
%TO.N,Net-(JP3-Pad1)*%
X154654998Y-72090002D03*
D73*
%TO.P,JP8,2,B*%
%TO.N,COL1*%
X156104998Y-72090002D03*
%TD*%
D74*
%TO.P,JP2,1,A*%
%TO.N,GND*%
X156170000Y-64300000D03*
D75*
%TO.P,JP2,2,B*%
%TO.N,Net-(D45-Pad2)*%
X154720000Y-64300000D03*
%TD*%
D72*
%TO.P,JP14,1,A*%
%TO.N,Net-(D42-Pad1)*%
X103265000Y-125545000D03*
D73*
%TO.P,JP14,2,B*%
%TO.N,ROW8*%
X104715000Y-125545000D03*
%TD*%
D74*
%TO.P,JP16,1,A*%
%TO.N,+5V*%
X174840000Y-81320000D03*
D76*
%TO.P,JP16,2,C*%
%TO.N,Net-(U5-Pad2)*%
X172840000Y-81320000D03*
D72*
%TO.P,JP16,3,B*%
%TO.N,+3V3*%
X170840000Y-81320000D03*
%TD*%
D11*
%TO.P,D31,1,K*%
%TO.N,Net-(D31-Pad1)*%
X98020000Y-132085000D03*
D21*
X96517500Y-132085000D03*
D22*
X97280000Y-132085000D03*
D13*
%TO.P,D31,2,A*%
%TO.N,COL4*%
X92940000Y-132085000D03*
D22*
X93680000Y-132085000D03*
D21*
X94442500Y-132085000D03*
%TD*%
D77*
%TO.P,IC7,1,GPB0*%
%TO.N,LED_DIN*%
X179392472Y-93795432D03*
D46*
%TO.P,IC7,2,GPB1*%
%TO.N,COL1*%
X179104936Y-96319105D03*
%TO.P,IC7,3,GPB2*%
%TO.N,COL2*%
X178817399Y-98842777D03*
%TO.P,IC7,4,GPB3*%
%TO.N,COL3*%
X178529863Y-101366450D03*
%TO.P,IC7,5,GPB4*%
%TO.N,COL4*%
X178242327Y-103890122D03*
%TO.P,IC7,6,GPB5*%
%TO.N,COL5*%
X177954791Y-106413795D03*
%TO.P,IC7,7,GPB6*%
%TO.N,COL6*%
X177667255Y-108937467D03*
%TO.P,IC7,8,GPB7*%
%TO.N,unconnected-(IC7-Pad8)*%
X177379719Y-111461140D03*
%TO.P,IC7,9,VDD*%
%TO.N,+3V3*%
X177092182Y-113984812D03*
%TO.P,IC7,10,VSS*%
%TO.N,GND*%
X176804646Y-116508485D03*
%TO.P,IC7,11,NC_1*%
%TO.N,unconnected-(IC7-Pad11)*%
X176517110Y-119032157D03*
%TO.P,IC7,12,SCL*%
%TO.N,SCL*%
X176229574Y-121555830D03*
%TO.P,IC7,13,SDA*%
%TO.N,SDA*%
X175942038Y-124079502D03*
%TO.P,IC7,14,NC_2*%
%TO.N,unconnected-(IC7-Pad14)*%
X175654502Y-126603175D03*
%TO.P,IC7,15,A0*%
%TO.N,+3V3*%
X167767528Y-125704568D03*
%TO.P,IC7,16,A1*%
%TO.N,GND*%
X168055064Y-123180895D03*
%TO.P,IC7,17,A2*%
X168342601Y-120657223D03*
%TO.P,IC7,18,~{RESET}*%
%TO.N,unconnected-(IC7-Pad18)*%
X168630137Y-118133550D03*
%TO.P,IC7,19,INTB*%
%TO.N,unconnected-(IC7-Pad19)*%
X168917673Y-115609878D03*
%TO.P,IC7,20,INTA*%
%TO.N,unconnected-(IC7-Pad20)*%
X169205209Y-113086205D03*
%TO.P,IC7,21,GPA0*%
%TO.N,ROW7*%
X169492745Y-110562533D03*
%TO.P,IC7,22,GPA1*%
%TO.N,ROW4*%
X169780281Y-108038860D03*
%TO.P,IC7,23,GPA2*%
%TO.N,ROW3*%
X170067818Y-105515188D03*
%TO.P,IC7,24,GPA3*%
%TO.N,ROW2*%
X170355354Y-102991515D03*
%TO.P,IC7,25,GPA4*%
%TO.N,ROW8*%
X170642890Y-100467843D03*
%TO.P,IC7,26,GPA5*%
%TO.N,ROW1*%
X170930426Y-97944170D03*
%TO.P,IC7,27,GPA6*%
%TO.N,ROW6*%
X171217962Y-95420498D03*
%TO.P,IC7,28,GPA7*%
%TO.N,ROW5*%
X171505498Y-92896825D03*
%TD*%
D78*
%TO.N,GND*%
X130126193Y-123620791D03*
X138820000Y-45720000D03*
X67705389Y-146882297D03*
X40126193Y-92620791D03*
X158480000Y-156355000D03*
X94126193Y-79620791D03*
X85705389Y-145882297D03*
X66705389Y-108882297D03*
X102705389Y-58882297D03*
X120705389Y-100882297D03*
X48705389Y-71882297D03*
X102705389Y-96882297D03*
X76126193Y-83620791D03*
X84705389Y-100882297D03*
X103705389Y-144882297D03*
X58209400Y-91935600D03*
X138705389Y-64882297D03*
X120705389Y-62882297D03*
X58126193Y-129620791D03*
X84705389Y-62882297D03*
X112126193Y-121620791D03*
X141270000Y-124105000D03*
X153720000Y-137115000D03*
X48705389Y-109882297D03*
X161650000Y-129410000D03*
X149800000Y-147995000D03*
X171970000Y-54850000D03*
X141981244Y-145956867D03*
X94126193Y-117620791D03*
X76126193Y-121620791D03*
X122790472Y-142330322D03*
X66705389Y-70882297D03*
X156049142Y-132786578D03*
X130126193Y-85620791D03*
X112126193Y-83620791D03*
X40126193Y-130620791D03*
X156150000Y-62800000D03*
X49705389Y-147882297D03*
X138705389Y-102882297D03*
%TO.N,+3V3*%
X147180000Y-68970000D03*
X159230000Y-111780000D03*
X159278867Y-57684513D03*
X168120000Y-81190000D03*
X174800000Y-82669500D03*
X137290000Y-43900000D03*
%TO.N,+5V*%
X170850000Y-71570000D03*
X174820000Y-79900000D03*
%TO.N,ROW1*%
X143449011Y-60115500D03*
X83110000Y-58305000D03*
X158829347Y-97970000D03*
X103860000Y-63875000D03*
X88306969Y-56928031D03*
X106560000Y-63979199D03*
X158560000Y-54130000D03*
%TO.N,ROW2*%
X104190000Y-82515000D03*
X106480000Y-82435000D03*
X151450000Y-102990000D03*
X83480000Y-77735000D03*
X88381969Y-75823399D03*
%TO.N,ROW3*%
X144180000Y-79330000D03*
X83600000Y-97275000D03*
X139390000Y-89485000D03*
X88700500Y-95645498D03*
X127530000Y-94945000D03*
X102260000Y-102845000D03*
X150883529Y-105290000D03*
X106310000Y-102865000D03*
%TO.N,ROW5*%
X90310000Y-143735000D03*
X135020000Y-151260000D03*
X89324360Y-139362219D03*
X162975467Y-88260487D03*
%TO.N,LED_DIN*%
X136184500Y-44995500D03*
X141170000Y-55309500D03*
X151782580Y-86880011D03*
%TO.N,ROW6*%
X163424987Y-91296502D03*
%TO.N,EN*%
X156163794Y-61800593D03*
X156060000Y-66520000D03*
%TO.N,COL1*%
X164972580Y-109746164D03*
X159728387Y-89223367D03*
X159728387Y-72924513D03*
X164937049Y-89222951D03*
X158975058Y-47735058D03*
X156100000Y-73620000D03*
X159990723Y-109709277D03*
X167724537Y-90887232D03*
%TO.N,COL3*%
X160627427Y-99050000D03*
X160627427Y-78017593D03*
X161297897Y-47563821D03*
X161076479Y-66717437D03*
%TO.N,Net-(D45-Pad2)*%
X165422100Y-112492265D03*
X154740000Y-65750000D03*
X145058271Y-71795582D03*
X146100000Y-112460000D03*
%TO.N,Net-(D46-Pad2)*%
X145394500Y-98650000D03*
X163890000Y-98424903D03*
%TO.N,unconnected-(IC2-Pad3)*%
X90891156Y-75725000D03*
%TO.N,unconnected-(IC3-Pad3)*%
X90355580Y-94935270D03*
%TO.N,unconnected-(IC4-Pad3)*%
X90846156Y-113625402D03*
%TO.N,Net-(D101-Pad2)*%
X40235389Y-90872297D03*
X40235389Y-71872297D03*
%TO.N,Net-(D101-Pad4)*%
X58235389Y-70872297D03*
X49014247Y-73682769D03*
%TO.N,Net-(D102-Pad2)*%
X58235389Y-89872297D03*
X49014247Y-92682769D03*
%TO.N,Net-(D103-Pad2)*%
X40235389Y-128872297D03*
X40235389Y-109872297D03*
%TO.N,Net-(D103-Pad4)*%
X58235389Y-108872297D03*
X49014247Y-111682769D03*
%TO.N,Net-(D104-Pad2)*%
X49014247Y-130682769D03*
X58235389Y-127872297D03*
%TO.N,Net-(D105-Pad4)*%
X59235389Y-146872297D03*
X50014247Y-149682769D03*
%TO.N,Net-(D111-Pad4)*%
X94235389Y-58872297D03*
X85014247Y-64682769D03*
%TO.N,Net-(D112-Pad2)*%
X85014247Y-83682769D03*
X94235389Y-77872297D03*
%TO.N,Net-(D113-Pad4)*%
X94235389Y-96872297D03*
X85014247Y-102682769D03*
%TO.N,Net-(D114-Pad2)*%
X94235389Y-115872297D03*
X85014247Y-121682769D03*
%TO.N,Net-(D115-Pad4)*%
X86014247Y-147682769D03*
X95235389Y-144872297D03*
%TO.N,Net-(D122-Pad2)*%
X121014247Y-83682769D03*
X130235389Y-83872297D03*
%TO.N,Net-(D43-Pad4)*%
X158030647Y-152074495D03*
X160320000Y-157425000D03*
X148340000Y-129830685D03*
%TO.N,unconnected-(D105-Pad2)*%
X41235389Y-147872297D03*
%TO.N,Net-(D106-Pad4)*%
X67014247Y-72682769D03*
X76235389Y-62872297D03*
%TO.N,Net-(D107-Pad2)*%
X76235389Y-81872297D03*
X67014247Y-91682769D03*
%TO.N,Net-(D108-Pad4)*%
X67014247Y-110682769D03*
X76235389Y-100872297D03*
%TO.N,Net-(D109-Pad2)*%
X67014247Y-129682769D03*
X76235389Y-119872297D03*
%TO.N,unconnected-(D44-Pad4)*%
X155310000Y-129055000D03*
%TO.N,Net-(D110-Pad4)*%
X77235389Y-145872297D03*
X68014247Y-148682769D03*
%TO.N,Net-(D116-Pad4)*%
X103014247Y-60682769D03*
X112235389Y-62872297D03*
%TO.N,Net-(D117-Pad2)*%
X103014247Y-79682769D03*
X112235389Y-81872297D03*
%TO.N,Net-(D118-Pad4)*%
X103014247Y-98682769D03*
X112235389Y-100872297D03*
%TO.N,Net-(D119-Pad2)*%
X103014247Y-117682769D03*
X112235389Y-119872297D03*
%TO.N,Net-(D120-Pad4)*%
X114320473Y-142320323D03*
X104014247Y-146682769D03*
%TO.N,Net-(D121-Pad4)*%
X130235389Y-64872297D03*
X121014247Y-64682769D03*
%TO.N,Net-(D123-Pad4)*%
X121014247Y-102682769D03*
X130235389Y-102872297D03*
%TO.N,Net-(D124-Pad2)*%
X121014247Y-121682769D03*
X130235389Y-121872297D03*
%TO.N,Net-(D125-Pad4)*%
X123099330Y-144130794D03*
X133802440Y-143755011D03*
%TO.N,Net-(D127-Pad2)*%
X139014247Y-85682769D03*
X139014247Y-104682769D03*
%TO.N,Net-(D129-Pad2)*%
X139014247Y-123682769D03*
X141813582Y-147775928D03*
X148810000Y-152045000D03*
%TO.N,unconnected-(IC1-Pad3)*%
X90816156Y-56829632D03*
%TO.N,SCL*%
X144670363Y-67429221D03*
X151760000Y-115870000D03*
X169490000Y-62890000D03*
X152232089Y-90560000D03*
%TO.N,SDA*%
X173720000Y-60410000D03*
X152380000Y-116700000D03*
X152681609Y-93100000D03*
%TO.N,SW11*%
X86857958Y-57319632D03*
%TO.N,SW16*%
X92569786Y-57584417D03*
%TO.N,SW21*%
X89294983Y-51850017D03*
X89192609Y-57690812D03*
%TO.N,SW26*%
X87850489Y-56034924D03*
X88660000Y-50885000D03*
%TO.N,SW1*%
X91540656Y-57588949D03*
%TO.N,SW6*%
X89755980Y-56865210D03*
%TO.N,unconnected-(IC5-Pad3)*%
X91833547Y-139263820D03*
%TO.N,SW2*%
X91615656Y-76484317D03*
%TO.N,SW3*%
X91080080Y-95659781D03*
%TO.N,SW4*%
X91570656Y-114384719D03*
%TO.N,SW5*%
X92558047Y-140023137D03*
%TO.N,SW7*%
X89830980Y-75760578D03*
%TO.N,SW8*%
X89592685Y-94289518D03*
%TO.N,SW9*%
X89785980Y-113660980D03*
%TO.N,SW10*%
X90773371Y-139299398D03*
%TO.N,SW12*%
X86932958Y-76215000D03*
%TO.N,SW13*%
X87840000Y-92435000D03*
%TO.N,SW14*%
X86887958Y-114115402D03*
%TO.N,SW15*%
X87875349Y-139753820D03*
%TO.N,SW17*%
X92644786Y-76479785D03*
%TO.N,SW18*%
X91910000Y-94785000D03*
%TO.N,SW19*%
X92523340Y-113902768D03*
%TO.N,SW20*%
X93587177Y-140018605D03*
%TO.N,SW22*%
X89375158Y-70329842D03*
X89267609Y-76586180D03*
%TO.N,SW23*%
X88595023Y-94228900D03*
X89644799Y-89490201D03*
%TO.N,SW24*%
X89222609Y-114486582D03*
X89340000Y-107725000D03*
%TO.N,SW25*%
X90210000Y-140125000D03*
X90350000Y-134455000D03*
%TO.N,SW27*%
X87920390Y-74935391D03*
X88710000Y-69515000D03*
%TO.N,SW28*%
X87697702Y-95667298D03*
X88800000Y-88515000D03*
%TO.N,SW29*%
X88690000Y-106795000D03*
X87880491Y-112830693D03*
%TO.N,SW30*%
X88860996Y-138475996D03*
X89670000Y-133565000D03*
%TO.N,ROW7*%
X160870000Y-140195000D03*
X148985009Y-87307502D03*
X148985009Y-110600000D03*
X144760158Y-149605158D03*
X103590000Y-132015000D03*
X161975987Y-110562533D03*
%TO.N,ROW4*%
X147985518Y-107710000D03*
X92362859Y-121282457D03*
X83950000Y-116755000D03*
X150434009Y-107629029D03*
X88336969Y-113723801D03*
X106490000Y-121235000D03*
%TO.N,COL2*%
X156070000Y-74620000D03*
X160627454Y-64126308D03*
X160177907Y-75755491D03*
X160284384Y-47450330D03*
X160177907Y-96592887D03*
X163424987Y-96625730D03*
%TO.N,COL5*%
X162076427Y-82920000D03*
X161526467Y-104190000D03*
X162301767Y-49344432D03*
X161975987Y-71626260D03*
%TO.N,COL6*%
X162525947Y-85489033D03*
X131480000Y-142265000D03*
X161850000Y-106600000D03*
X162560000Y-50310000D03*
X126800000Y-116065000D03*
X128830000Y-142815000D03*
X126800000Y-96605000D03*
X126800000Y-78085000D03*
%TO.N,COL4*%
X161076947Y-101651927D03*
X161620000Y-48510000D03*
X161076947Y-80451927D03*
X161526476Y-69241279D03*
%TO.N,Net-(D31-Pad1)*%
X105600000Y-129445000D03*
X102444500Y-131285074D03*
%TO.N,Net-(D32-Pad1)*%
X115860000Y-129405000D03*
%TO.N,Net-(D33-Pad1)*%
X129240000Y-126920500D03*
X108670005Y-123984837D03*
X120790000Y-125533860D03*
X106760000Y-124065000D03*
X103330000Y-129275000D03*
X139580000Y-134098060D03*
%TO.N,Net-(D34-Pad1)*%
X136731061Y-131688537D03*
X166230000Y-143565000D03*
X165128681Y-144596319D03*
%TO.N,Net-(D36-Pad1)*%
X103650000Y-130305000D03*
%TO.N,Net-(D37-Pad1)*%
X108640000Y-126990500D03*
X108640000Y-124983889D03*
%TO.N,Net-(D38-Pad1)*%
X117329897Y-126882420D03*
X155410000Y-135395000D03*
X146562378Y-129740500D03*
X147095050Y-123765000D03*
%TO.N,Net-(D40-Pad1)*%
X139140000Y-129455000D03*
X161530000Y-130985000D03*
%TO.N,Net-(D42-Pad1)*%
X106580491Y-126990500D03*
%TO.N,ROW8*%
X142894500Y-118796940D03*
X105570000Y-124365000D03*
X149434529Y-100109509D03*
X105404549Y-118274951D03*
%TO.N,Net-(JP3-Pad1)*%
X154650000Y-73590000D03*
X154197537Y-113229011D03*
X165871620Y-113566938D03*
%TO.N,VRGB*%
X143970000Y-124715000D03*
X102705389Y-115882297D03*
X94126193Y-98620791D03*
X142170000Y-106135000D03*
X138705389Y-121882297D03*
X133244422Y-145415665D03*
X142100000Y-124665000D03*
X141300000Y-82885000D03*
X41126193Y-149620791D03*
X102705389Y-77882297D03*
X94126193Y-60620791D03*
X40126193Y-111620791D03*
X66705389Y-89882297D03*
X59126193Y-148620791D03*
X76126193Y-102620791D03*
X130126193Y-104620791D03*
X112126193Y-64620791D03*
X112126193Y-102620791D03*
X84705389Y-119882297D03*
X84705389Y-81882297D03*
X138705389Y-83882297D03*
X95126193Y-146620791D03*
X76126193Y-64620791D03*
X77126193Y-147620791D03*
X40126193Y-73620791D03*
X114211276Y-144068816D03*
X58126193Y-110620791D03*
X58126193Y-72620791D03*
X142000000Y-58070000D03*
X147380000Y-130465000D03*
X120705389Y-119882297D03*
X120705389Y-81882297D03*
X48705389Y-90882297D03*
X48705389Y-128882297D03*
X150716417Y-152818583D03*
X66705389Y-127882297D03*
X130126193Y-66620791D03*
%TO.N,DRGB*%
X139262701Y-55677299D03*
X139014247Y-66682769D03*
X137260000Y-64075000D03*
X137290000Y-62625989D03*
%TO.N,Net-(JP10-Pad1)*%
X154620000Y-74620000D03*
X154730000Y-62050000D03*
X154380000Y-108763360D03*
X164523060Y-108763360D03*
%TD*%
D79*
%TO.N,GND*%
X56440179Y-129267087D02*
X56425179Y-129267087D01*
X128270389Y-122117297D02*
X129275389Y-121112297D01*
X176804646Y-116508485D02*
X177421121Y-117124960D01*
X93275389Y-115112297D02*
X94582297Y-115112297D01*
X138820000Y-45720000D02*
X128190000Y-45720000D01*
X75275389Y-81112297D02*
X76582297Y-81112297D01*
X128150000Y-45760000D02*
X126177217Y-45760000D01*
X110440179Y-121267087D02*
X110425179Y-121267087D01*
X128270389Y-84117297D02*
X129275389Y-83112297D01*
X47614622Y-111935600D02*
X48705389Y-110844833D01*
X175876556Y-120237390D02*
X176696092Y-120237390D01*
X40126193Y-130620791D02*
X38793883Y-130620791D01*
X132717511Y-73927489D02*
X130637511Y-73927489D01*
X83614622Y-102935600D02*
X84705389Y-101844833D01*
X163824998Y-54020002D02*
X171140002Y-54020002D01*
X128793883Y-85620791D02*
X128440179Y-85267087D01*
X110425179Y-121267087D02*
X110270389Y-121112297D01*
X38425179Y-130267087D02*
X38270389Y-130112297D01*
X83614622Y-64935600D02*
X84705389Y-63844833D01*
X74793883Y-83620791D02*
X74440179Y-83267087D01*
X173481438Y-114291438D02*
X175698485Y-116508485D01*
X56270389Y-129112297D02*
X56270389Y-128117297D01*
X92793883Y-117620791D02*
X92440179Y-117267087D01*
X48000000Y-152505000D02*
X48000000Y-150141200D01*
X48614622Y-149935600D02*
X49705389Y-148844833D01*
X176846049Y-124483951D02*
X176045265Y-125284735D01*
X128793883Y-123620791D02*
X128440179Y-123267087D01*
X47614622Y-73935600D02*
X48705389Y-72844833D01*
X82920000Y-65221200D02*
X83205600Y-64935600D01*
X64942500Y-113485000D02*
X64942500Y-111198700D01*
X57330600Y-91935600D02*
X58209400Y-91935600D01*
X56270389Y-128117297D02*
X57275389Y-127112297D01*
X130126193Y-85620791D02*
X128793883Y-85620791D01*
X155529705Y-157045034D02*
X157106156Y-155468583D01*
X40582297Y-90112297D02*
X41905600Y-91435600D01*
X128440179Y-85267087D02*
X128425179Y-85267087D01*
X38440179Y-130267087D02*
X38425179Y-130267087D01*
X74270389Y-120117297D02*
X75275389Y-119112297D01*
X177421121Y-117124960D02*
X177421121Y-119438879D01*
X126177217Y-45760000D02*
X123625072Y-43207855D01*
X161284998Y-56560002D02*
X163824998Y-54020002D01*
X102614622Y-146935600D02*
X103705389Y-145844833D01*
X110425179Y-83267087D02*
X110270389Y-83112297D01*
X148085489Y-153690830D02*
X151879659Y-157485000D01*
X155404108Y-132141544D02*
X156049142Y-132786578D01*
X38270389Y-129117297D02*
X39275389Y-128112297D01*
X40582297Y-128112297D02*
X41905600Y-129435600D01*
X118880000Y-67455000D02*
X118880000Y-65261200D01*
X168342601Y-120657223D02*
X173485181Y-120657223D01*
X149800000Y-147995000D02*
X148085489Y-149709511D01*
X56440179Y-90304821D02*
X56440179Y-91045179D01*
X74440179Y-121267087D02*
X74425179Y-121267087D01*
X94582297Y-115112297D02*
X95905600Y-116435600D01*
X151879659Y-157485000D02*
X153537251Y-157485000D01*
X110270389Y-121112297D02*
X110270389Y-120117297D01*
X93275389Y-77112297D02*
X94582297Y-77112297D01*
X137614622Y-104935600D02*
X138705389Y-103844833D01*
X100750000Y-61391200D02*
X101205600Y-60935600D01*
X176408556Y-122761062D02*
X176846049Y-123198555D01*
X92440179Y-79267087D02*
X92425179Y-79267087D01*
X119614622Y-102935600D02*
X120705389Y-101844833D01*
X48705389Y-72844833D02*
X48705389Y-71882297D01*
X67705389Y-147844833D02*
X67705389Y-146882297D01*
X94582297Y-77112297D02*
X95905600Y-78435600D01*
X128440179Y-123267087D02*
X128425179Y-123267087D01*
X57597214Y-89147786D02*
X56440179Y-90304821D01*
X112582297Y-119112297D02*
X113905600Y-120435600D01*
X128425179Y-85267087D02*
X128270389Y-85112297D01*
X176696092Y-120237390D02*
X177133585Y-120674883D01*
X38270389Y-92112297D02*
X38270389Y-91117297D01*
X158480000Y-156355000D02*
X157992573Y-156355000D01*
X39275389Y-90112297D02*
X40582297Y-90112297D01*
X130126193Y-123620791D02*
X128793883Y-123620791D01*
X118582500Y-105545000D02*
X119205600Y-104921900D01*
X110270389Y-82117297D02*
X111275389Y-81112297D01*
X137080000Y-107405000D02*
X137080000Y-105061200D01*
X136980000Y-69665000D02*
X136980000Y-67161200D01*
X168564655Y-114291438D02*
X173481438Y-114291438D01*
X74425179Y-83267087D02*
X74270389Y-83112297D01*
X175589020Y-122761062D02*
X176408556Y-122761062D01*
X153537251Y-157485000D02*
X154228501Y-156793750D01*
X92425179Y-117267087D02*
X92270389Y-117112297D01*
X148085489Y-149709511D02*
X148085489Y-153690830D01*
X149800000Y-147995000D02*
X149800000Y-144075000D01*
X47230000Y-114455000D02*
X47230000Y-111960000D01*
X74425179Y-121267087D02*
X74270389Y-121112297D01*
X84050000Y-150565000D02*
X84050000Y-148091200D01*
X146471596Y-145583404D02*
X142032600Y-150022400D01*
X75275389Y-119112297D02*
X76582297Y-119112297D01*
X161650000Y-128872172D02*
X167341277Y-123180895D01*
X153716819Y-133166113D02*
X154741388Y-132141544D01*
X156150000Y-62800000D02*
X156150000Y-64280000D01*
X136980000Y-69665000D02*
X132717511Y-73927489D01*
X56425179Y-129267087D02*
X56270389Y-129112297D01*
X39275389Y-128112297D02*
X40582297Y-128112297D01*
X173485181Y-120657223D02*
X175589020Y-122761062D01*
X76126193Y-121620791D02*
X74793883Y-121620791D01*
X176045265Y-125284735D02*
X175301484Y-125284735D01*
X110793883Y-121620791D02*
X110440179Y-121267087D01*
X141732121Y-146886605D02*
X141981244Y-145956867D01*
X171140002Y-54020002D02*
X171970000Y-54850000D01*
X74270389Y-82117297D02*
X75275389Y-81112297D01*
X94126193Y-79620791D02*
X92793883Y-79620791D01*
X175698485Y-116508485D02*
X176804646Y-116508485D01*
X141270000Y-106511596D02*
X141270000Y-124105000D01*
X112126193Y-121620791D02*
X110793883Y-121620791D01*
X110440179Y-83267087D02*
X110425179Y-83267087D01*
X110270389Y-120117297D02*
X111275389Y-119112297D01*
X177421121Y-119438879D02*
X176622610Y-120237390D01*
X167341277Y-123180895D02*
X168055064Y-123180895D01*
X110793883Y-83620791D02*
X110440179Y-83267087D01*
X56793883Y-129620791D02*
X56440179Y-129267087D01*
X112126193Y-83620791D02*
X110793883Y-83620791D01*
X142032600Y-150022400D02*
X139143452Y-150022400D01*
X130637511Y-73927489D02*
X127804580Y-76760420D01*
X84705389Y-101844833D02*
X84705389Y-100882297D01*
X110270389Y-83112297D02*
X110270389Y-82117297D01*
X120705389Y-101844833D02*
X120705389Y-100882297D01*
X128270389Y-123112297D02*
X128270389Y-122117297D01*
X85705389Y-146844833D02*
X85705389Y-145882297D01*
X74793883Y-121620791D02*
X74440179Y-121267087D01*
X65614622Y-72935600D02*
X66705389Y-71844833D01*
X92425179Y-79267087D02*
X92270389Y-79112297D01*
X56440179Y-91045179D02*
X57330600Y-91935600D01*
X121699706Y-144383626D02*
X122790473Y-143292858D01*
X84614622Y-147935600D02*
X85705389Y-146844833D01*
X130582297Y-83112297D02*
X131905600Y-84435600D01*
X84705389Y-63844833D02*
X84705389Y-62882297D01*
X76126193Y-83620791D02*
X74793883Y-83620791D01*
X66614622Y-148935600D02*
X67705389Y-147844833D01*
X139143452Y-148409704D02*
X140001124Y-147552032D01*
X120705389Y-63844833D02*
X120705389Y-62882297D01*
X127804580Y-76760420D02*
X127804580Y-81641488D01*
X83072500Y-105445000D02*
X83072500Y-103068700D01*
X141270000Y-132979282D02*
X146471596Y-138180879D01*
X92440179Y-117267087D02*
X92425179Y-117267087D01*
X74270389Y-121112297D02*
X74270389Y-120117297D01*
X92270389Y-78117297D02*
X93275389Y-77112297D01*
X129275389Y-83112297D02*
X130582297Y-83112297D01*
X111275389Y-119112297D02*
X112582297Y-119112297D01*
X119614622Y-64935600D02*
X120705389Y-63844833D01*
X153720000Y-140155000D02*
X153720000Y-137115000D01*
X76582297Y-119112297D02*
X77905600Y-120435600D01*
X66705389Y-109844833D02*
X66705389Y-108882297D01*
X102200000Y-149575000D02*
X102200000Y-146941200D01*
X119205600Y-104921900D02*
X119205600Y-102935600D01*
X157992573Y-156355000D02*
X157106156Y-155468583D01*
X139143452Y-150022400D02*
X139143452Y-148409704D01*
X140173404Y-105415000D02*
X141270000Y-106511596D01*
X76582297Y-81112297D02*
X77905600Y-82435600D01*
X48705389Y-110844833D02*
X48705389Y-109882297D01*
X129275389Y-121112297D02*
X130582297Y-121112297D01*
X66705389Y-71844833D02*
X66705389Y-70882297D01*
X101614622Y-98935600D02*
X102705389Y-97844833D01*
X92793883Y-79620791D02*
X92440179Y-79267087D01*
X128190000Y-45720000D02*
X128150000Y-45760000D01*
X141270000Y-124105000D02*
X141270000Y-132979282D01*
X57275389Y-127112297D02*
X58582297Y-127112297D01*
X128425179Y-123267087D02*
X128270389Y-123112297D01*
X47190000Y-76365000D02*
X47190000Y-73951200D01*
X65614622Y-110935600D02*
X66705389Y-109844833D01*
X130582297Y-121112297D02*
X131905600Y-122435600D01*
X176846049Y-123198555D02*
X176846049Y-124483951D01*
X102705389Y-97844833D02*
X102705389Y-96882297D01*
X38440179Y-92267087D02*
X38425179Y-92267087D01*
X118880000Y-65261200D02*
X119205600Y-64935600D01*
X38270389Y-91117297D02*
X39275389Y-90112297D01*
X74270389Y-83112297D02*
X74270389Y-82117297D01*
X65130000Y-75485000D02*
X65130000Y-73011200D01*
X82920000Y-67445000D02*
X82920000Y-65221200D01*
X148584998Y-56560002D02*
X161284998Y-56560002D01*
X103705389Y-145844833D02*
X103705389Y-144882297D01*
X66120000Y-151485000D02*
X66120000Y-149021200D01*
X128270389Y-85112297D02*
X128270389Y-84117297D01*
X101614622Y-60935600D02*
X102705389Y-59844833D01*
X58617786Y-89147786D02*
X57597214Y-89147786D01*
X38793883Y-130620791D02*
X38440179Y-130267087D01*
X177133585Y-121966415D02*
X176338938Y-122761062D01*
X102705389Y-59844833D02*
X102705389Y-58882297D01*
X49705389Y-148844833D02*
X49705389Y-147882297D01*
X121210000Y-146965000D02*
X121210000Y-144464309D01*
X111275389Y-81112297D02*
X112582297Y-81112297D01*
X94126193Y-117620791D02*
X92793883Y-117620791D01*
X59905600Y-90435600D02*
X58617786Y-89147786D01*
X149800000Y-144075000D02*
X153720000Y-140155000D01*
X92270389Y-117112297D02*
X92270389Y-116117297D01*
X122790473Y-143292858D02*
X122790472Y-142330322D01*
X138705389Y-65844833D02*
X138705389Y-64882297D01*
X137685000Y-105415000D02*
X140173404Y-105415000D01*
X74440179Y-83267087D02*
X74425179Y-83267087D01*
X146471596Y-138180879D02*
X146471596Y-145583404D01*
X137205600Y-104935600D02*
X137685000Y-105415000D01*
X58582297Y-127112297D02*
X59905600Y-128435600D01*
X100750000Y-63805000D02*
X100750000Y-61391200D01*
X140396209Y-147657894D02*
X141732121Y-146886605D01*
X92270389Y-116117297D02*
X93275389Y-115112297D01*
X40126193Y-92620791D02*
X38793883Y-92620791D01*
X101050000Y-101535000D02*
X101050000Y-99091200D01*
X38425179Y-92267087D02*
X38270389Y-92112297D01*
X127804580Y-81641488D02*
X129275389Y-83112297D01*
X177133585Y-120674883D02*
X177133585Y-121966415D01*
X92270389Y-79112297D02*
X92270389Y-78117297D01*
X161650000Y-129410000D02*
X161650000Y-128872172D01*
X58126193Y-129620791D02*
X56793883Y-129620791D01*
X138705389Y-103844833D02*
X138705389Y-102882297D01*
X153716819Y-134493731D02*
X153716819Y-133166113D01*
X137614622Y-66935600D02*
X138705389Y-65844833D01*
X112582297Y-81112297D02*
X113905600Y-82435600D01*
X38793883Y-92620791D02*
X38440179Y-92267087D01*
X38270389Y-130112297D02*
X38270389Y-129117297D01*
%TO.N,+3V3*%
X159385487Y-57684513D02*
X162409509Y-57684513D01*
X168250000Y-81320000D02*
X168120000Y-81190000D01*
X173817765Y-111767765D02*
X176034812Y-113984812D01*
X170840000Y-81728940D02*
X171780560Y-82669500D01*
X147165509Y-68955509D02*
X147180000Y-68970000D01*
X170840000Y-81320000D02*
X168250000Y-81320000D01*
X137290000Y-43900000D02*
X133603900Y-43900000D01*
X159230000Y-111780000D02*
X159242235Y-111767765D01*
X133603900Y-43900000D02*
X130949248Y-41245348D01*
X146173509Y-57684513D02*
X159385487Y-57684513D01*
X171780560Y-82669500D02*
X174800000Y-82669500D01*
X162409509Y-57684513D02*
X163824998Y-59100002D01*
X159242235Y-111767765D02*
X168852191Y-111767765D01*
X176034812Y-113984812D02*
X177092182Y-113984812D01*
X168852191Y-111767765D02*
X173817765Y-111767765D01*
X146040998Y-57552002D02*
X147165509Y-58676513D01*
X147165509Y-58676513D02*
X147165509Y-68955509D01*
%TO.N,+5V*%
X176794520Y-72164520D02*
X176794520Y-79365480D01*
X176794520Y-79365480D02*
X174840000Y-81320000D01*
X174840000Y-79920000D02*
X174820000Y-79900000D01*
X163824998Y-51480002D02*
X163824998Y-45674998D01*
X174840000Y-81320000D02*
X174840000Y-79920000D01*
X158070853Y-39920853D02*
X135892330Y-39920853D01*
X167658476Y-71549480D02*
X166360998Y-70252002D01*
X170877020Y-71542980D02*
X176172980Y-71542980D01*
X176172980Y-71542980D02*
X176794520Y-72164520D01*
X170850000Y-71570000D02*
X170877020Y-71542980D01*
X163824998Y-45674998D02*
X158070853Y-39920853D01*
X170829480Y-71549480D02*
X167658476Y-71549480D01*
X170850000Y-71570000D02*
X170829480Y-71549480D01*
%TO.N,ROW1*%
X143449011Y-61419011D02*
X144950000Y-62920000D01*
X148584998Y-54717024D02*
X148584998Y-54020002D01*
X89290000Y-60469632D02*
X88894632Y-60865000D01*
X93711888Y-64891520D02*
X102843480Y-64891520D01*
X170930426Y-97944170D02*
X178044548Y-97944170D01*
X143449011Y-60115500D02*
X143449011Y-58553689D01*
X89135691Y-58415323D02*
X88892506Y-58415323D01*
X143449011Y-58553689D02*
X145575209Y-56427491D01*
X83110000Y-58715000D02*
X83110000Y-58305000D01*
X85260000Y-60865000D02*
X83110000Y-58715000D01*
X146874531Y-56427491D02*
X148584998Y-54717024D01*
X158450002Y-54020002D02*
X158560000Y-54130000D01*
X102843480Y-64891520D02*
X103860000Y-63875000D01*
X88468098Y-57990915D02*
X88468098Y-57089160D01*
X106550000Y-63969199D02*
X106550000Y-59155000D01*
X148584998Y-54020002D02*
X158450002Y-54020002D01*
X144950000Y-62920000D02*
X144950000Y-64081004D01*
X144950000Y-64081004D02*
X146040998Y-65172002D01*
X159139347Y-97660000D02*
X158829347Y-97970000D01*
X170333212Y-97660000D02*
X159139347Y-97660000D01*
X88468098Y-57089160D02*
X88306969Y-56928031D01*
X89290000Y-59519632D02*
X89290000Y-58569632D01*
X170617382Y-97944170D02*
X170333212Y-97660000D01*
X89290000Y-60469632D02*
X93711888Y-64891520D01*
X88894632Y-60865000D02*
X85260000Y-60865000D01*
X89290000Y-58569632D02*
X89135691Y-58415323D01*
X88892506Y-58415323D02*
X88468098Y-57990915D01*
X143449011Y-60115500D02*
X143449011Y-61419011D01*
X145575209Y-56427491D02*
X146874531Y-56427491D01*
X178044548Y-97944170D02*
X178464381Y-97524337D01*
X106560000Y-63979199D02*
X106550000Y-63969199D01*
X89290000Y-59519632D02*
X89290000Y-60469632D01*
%TO.N,ROW2*%
X89365000Y-78415000D02*
X89365000Y-79365000D01*
X89365000Y-78415000D02*
X89365000Y-77465000D01*
X94145000Y-84145000D02*
X102560000Y-84145000D01*
X151451515Y-102991515D02*
X170355354Y-102991515D01*
X83480000Y-77735000D02*
X83480000Y-78078005D01*
X177469476Y-102991515D02*
X177889309Y-102571682D01*
X89365000Y-79365000D02*
X94145000Y-84145000D01*
X102560000Y-84145000D02*
X104190000Y-82515000D01*
X106460000Y-82415000D02*
X106460000Y-75715000D01*
X83480000Y-78078005D02*
X85102415Y-79700420D01*
X89365000Y-77465000D02*
X89210691Y-77310691D01*
X88543098Y-76886283D02*
X88967506Y-77310691D01*
X89210691Y-77310691D02*
X88967506Y-77310691D01*
X151450000Y-102990000D02*
X151451515Y-102991515D01*
X106480000Y-82435000D02*
X106460000Y-82415000D01*
X85102415Y-79700420D02*
X88814580Y-79700420D01*
X170355354Y-102991515D02*
X177469476Y-102991515D01*
X88543098Y-76886283D02*
X88543098Y-75984528D01*
X88543098Y-75984528D02*
X88381969Y-75823399D01*
X88814580Y-79700420D02*
X89310000Y-79205000D01*
%TO.N,ROW3*%
X177181940Y-105515188D02*
X177601773Y-105095355D01*
X136640511Y-92234489D02*
X130240511Y-92234489D01*
X101880000Y-102865000D02*
X102240000Y-102865000D01*
X170067818Y-105515188D02*
X151108717Y-105515188D01*
X102240000Y-102865000D02*
X102260000Y-102845000D01*
X151108717Y-105515188D02*
X150883529Y-105290000D01*
X94395000Y-102865000D02*
X101880000Y-102865000D01*
X89075498Y-95645498D02*
X88700500Y-95645498D01*
X85025420Y-98700420D02*
X88593602Y-98700420D01*
X144180000Y-79330000D02*
X144180000Y-75602700D01*
X88593602Y-98700420D02*
X89425000Y-97869022D01*
X89425000Y-95995000D02*
X89425000Y-97895000D01*
X89425000Y-95995000D02*
X89075498Y-95645498D01*
X89425000Y-97895000D02*
X94395000Y-102865000D01*
X139390000Y-89485000D02*
X136640511Y-92234489D01*
X106570000Y-102605000D02*
X106570000Y-93175000D01*
X170067818Y-105515188D02*
X177181940Y-105515188D01*
X130240511Y-92234489D02*
X127530000Y-94945000D01*
X83600000Y-97275000D02*
X85025420Y-98700420D01*
X144180000Y-75602700D02*
X146040998Y-73741702D01*
X146040998Y-73741702D02*
X146040998Y-72792002D01*
X106310000Y-102865000D02*
X106570000Y-102605000D01*
%TO.N,ROW5*%
X90307391Y-141953820D02*
X90307391Y-141003820D01*
X167165000Y-89165000D02*
X170896825Y-92896825D01*
X164999183Y-88260487D02*
X162975467Y-88260487D01*
X90310000Y-143735000D02*
X90310000Y-141956429D01*
X89485489Y-140425103D02*
X89909897Y-140849511D01*
X129911125Y-141476304D02*
X129911125Y-146151125D01*
X90307391Y-141003820D02*
X90153082Y-140849511D01*
X146040998Y-88032002D02*
X146992002Y-88032002D01*
X129911125Y-146151125D02*
X135020000Y-151260000D01*
X178619621Y-92896825D02*
X179039454Y-92476992D01*
X165903696Y-89165000D02*
X164999183Y-88260487D01*
X89485489Y-140425103D02*
X89485489Y-139523348D01*
X171505498Y-92896825D02*
X178619621Y-92896825D01*
X162975467Y-88260487D02*
X147220487Y-88260487D01*
X170896825Y-92896825D02*
X171505498Y-92896825D01*
X146992002Y-88032002D02*
X147220487Y-88260487D01*
X90153082Y-140849511D02*
X89909897Y-140849511D01*
X167165000Y-89165000D02*
X165903696Y-89165000D01*
X89485489Y-139523348D02*
X89324360Y-139362219D01*
%TO.N,LED_DIN*%
X136184500Y-44995500D02*
X131634421Y-44995500D01*
X142053489Y-65158482D02*
X142053489Y-62667451D01*
X142724511Y-56864011D02*
X141170000Y-55309500D01*
X146040998Y-67712002D02*
X143861016Y-65532020D01*
X142724511Y-61996429D02*
X142724511Y-56864011D01*
X166890000Y-86810000D02*
X171152480Y-91072480D01*
X131634421Y-44995500D02*
X128531975Y-41893054D01*
X151782580Y-86880011D02*
X151852591Y-86810000D01*
X171152480Y-91072480D02*
X171152480Y-91578385D01*
X142053489Y-62667451D02*
X142724511Y-61996429D01*
X142427027Y-65532020D02*
X142053489Y-65158482D01*
X143861016Y-65532020D02*
X142427027Y-65532020D01*
X151852591Y-86810000D02*
X166890000Y-86810000D01*
%TO.N,ROW6*%
X163424987Y-91296502D02*
X163824998Y-91696513D01*
X163412996Y-91284511D02*
X146753507Y-91284511D01*
X144670000Y-95895000D02*
X144670000Y-99202493D01*
X167180933Y-91696513D02*
X170904918Y-95420498D01*
X163424987Y-91296502D02*
X163412996Y-91284511D01*
X163824998Y-91696513D02*
X167180933Y-91696513D01*
X171217962Y-95420498D02*
X178332085Y-95420498D01*
X146040998Y-90572002D02*
X143480000Y-93133000D01*
X144670000Y-99202493D02*
X143530000Y-100342493D01*
X146753507Y-91284511D02*
X146040998Y-90572002D01*
X143480000Y-94705000D02*
X144670000Y-95895000D01*
X178332085Y-95420498D02*
X178751918Y-95000665D01*
%TO.N,EN*%
X156163794Y-60676206D02*
X156209998Y-60630002D01*
X156079998Y-67970002D02*
X166102998Y-67970002D01*
X156060000Y-67950004D02*
X156079998Y-67970002D01*
X156163794Y-61800593D02*
X156163794Y-60676206D01*
X156060000Y-66520000D02*
X156060000Y-67950004D01*
X156994520Y-67055480D02*
X156994520Y-61414524D01*
X156994520Y-61414524D02*
X156209998Y-60630002D01*
X156079998Y-67970002D02*
X156994520Y-67055480D01*
%TO.N,COL1*%
X37804580Y-124475402D02*
X37804580Y-134209580D01*
X164936633Y-89223367D02*
X164937049Y-89222951D01*
X48366031Y-58738969D02*
X70115313Y-58738969D01*
X167724537Y-90961651D02*
X170864944Y-94102058D01*
X37804580Y-86475402D02*
X37804580Y-97209580D01*
X81048595Y-51784969D02*
X85537606Y-47295960D01*
X106088593Y-50616440D02*
X136309971Y-50616440D01*
X156939509Y-72924513D02*
X166228487Y-72924513D01*
X164935693Y-109709277D02*
X159990723Y-109709277D01*
X102768112Y-47295960D02*
X106088593Y-50616440D01*
X156104998Y-73615002D02*
X156100000Y-73620000D01*
X39344982Y-103935000D02*
X37770000Y-105509982D01*
X156104998Y-72090002D02*
X156104998Y-73615002D01*
X138824012Y-48102401D02*
X158607716Y-48102400D01*
X39344982Y-122935000D02*
X37804580Y-124475402D01*
X40720000Y-122935000D02*
X39344982Y-122935000D01*
X40720000Y-103935000D02*
X39344982Y-103935000D01*
X85537606Y-47295960D02*
X102768112Y-47295960D01*
X167724537Y-90887232D02*
X167724537Y-90961651D01*
X77069314Y-51784969D02*
X81048595Y-51784969D01*
X70115313Y-58738969D02*
X77069314Y-51784969D01*
X40720000Y-84935000D02*
X39344982Y-84935000D01*
X39344982Y-84935000D02*
X37804580Y-86475402D01*
X37770000Y-105509982D02*
X37770000Y-116175000D01*
X159728387Y-89223367D02*
X164936633Y-89223367D01*
X136309971Y-50616440D02*
X138824012Y-48102401D01*
X164972580Y-109746164D02*
X164935693Y-109709277D01*
X37820869Y-78225869D02*
X41990000Y-82395000D01*
X158607716Y-48102400D02*
X158975058Y-47735058D01*
X40720000Y-65935000D02*
X40720000Y-68938005D01*
X40720000Y-68938005D02*
X37820869Y-71837136D01*
X37820869Y-71837136D02*
X37820869Y-78225869D01*
X37804580Y-97209580D02*
X41990000Y-101395000D01*
X156104998Y-72090002D02*
X156939509Y-72924513D01*
X44530000Y-62575000D02*
X48366031Y-58738969D01*
X37770000Y-116175000D02*
X41990000Y-120395000D01*
X37804580Y-134209580D02*
X42990000Y-139395000D01*
%TO.N,COL3*%
X163824998Y-66720002D02*
X161079044Y-66720002D01*
X160627427Y-99050000D02*
X160726830Y-99149403D01*
X160627427Y-78017593D02*
X166215407Y-78017593D01*
X76720000Y-75935000D02*
X75344982Y-75935000D01*
X73820869Y-62837136D02*
X73820869Y-69225869D01*
X161209706Y-47652012D02*
X161297897Y-47563821D01*
X102395718Y-48195000D02*
X85910000Y-48195000D01*
X161079044Y-66720002D02*
X161076479Y-66717437D01*
X80530000Y-113125546D02*
X80530000Y-110575000D01*
X73804580Y-107209580D02*
X77990000Y-111395000D01*
X73820869Y-69225869D02*
X77990000Y-73395000D01*
X76720000Y-56935000D02*
X76720000Y-59938005D01*
X73804580Y-96475402D02*
X73804580Y-107209580D01*
X160726830Y-99149403D02*
X170289872Y-99149403D01*
X75344982Y-94935000D02*
X73804580Y-96475402D01*
X82898421Y-116740000D02*
X82898421Y-115493967D01*
X105790000Y-51515480D02*
X105716198Y-51515480D01*
X73804580Y-88209580D02*
X77990000Y-92395000D01*
X136682366Y-51515480D02*
X139196408Y-49001440D01*
X76720000Y-59938005D02*
X73820869Y-62837136D01*
X76720000Y-94935000D02*
X75344982Y-94935000D01*
X139196408Y-49001440D02*
X159757872Y-49001440D01*
X161107300Y-47652012D02*
X161209706Y-47652012D01*
X85910000Y-48195000D02*
X80530000Y-53575000D01*
X85639940Y-118149940D02*
X84308361Y-118149940D01*
X73804580Y-77475402D02*
X73804580Y-88209580D01*
X82898421Y-115493967D02*
X80530000Y-113125546D01*
X89240000Y-121750000D02*
X85639940Y-118149940D01*
X89240000Y-123495000D02*
X89240000Y-121750000D01*
X102395718Y-48195000D02*
X105716198Y-51515480D01*
X85650000Y-132115000D02*
X81530000Y-136235000D01*
X159757872Y-49001440D02*
X161107300Y-47652012D01*
X75344982Y-75935000D02*
X73804580Y-77475402D01*
X105790000Y-51515480D02*
X136682366Y-51515480D01*
X84308361Y-118149940D02*
X82898421Y-116740000D01*
%TO.N,Net-(D45-Pad2)*%
X165422100Y-112492265D02*
X165409854Y-112504511D01*
X154740000Y-65750000D02*
X154740000Y-64320000D01*
X154740000Y-65750000D02*
X149814509Y-70675491D01*
X145186362Y-71667491D02*
X145058271Y-71795582D01*
X149814509Y-70675491D02*
X147207809Y-70675491D01*
X146215809Y-71667491D02*
X147207809Y-70675491D01*
X146215809Y-71667491D02*
X145186362Y-71667491D01*
X146144511Y-112504511D02*
X165409854Y-112504511D01*
X146144511Y-112504511D02*
X146100000Y-112460000D01*
%TO.N,Net-(D46-Pad2)*%
X160327324Y-98325489D02*
X159958302Y-98694511D01*
X163890000Y-98424903D02*
X163790586Y-98325489D01*
X159958302Y-98694511D02*
X145439011Y-98694511D01*
X145439011Y-98694511D02*
X145394500Y-98650000D01*
X163790586Y-98325489D02*
X160327324Y-98325489D01*
%TO.N,unconnected-(IC2-Pad3)*%
X90820000Y-75725000D02*
X90210000Y-75115000D01*
X90015000Y-74939022D02*
X90015000Y-74015000D01*
X90891156Y-75725000D02*
X90820000Y-75725000D01*
X90190978Y-75115000D02*
X90015000Y-74939022D01*
X90210000Y-75115000D02*
X90190978Y-75115000D01*
%TO.N,unconnected-(IC3-Pad3)*%
X90075000Y-93530000D02*
X90075000Y-92545000D01*
X90384511Y-93569511D02*
X90350000Y-93535000D01*
X90355580Y-94935270D02*
X90730000Y-94560850D01*
X90730000Y-93655000D02*
X90644511Y-93569511D01*
X90070000Y-93535000D02*
X90075000Y-93530000D01*
X90730000Y-94560850D02*
X90730000Y-93655000D01*
X90644511Y-93569511D02*
X90384511Y-93569511D01*
X90350000Y-93535000D02*
X90070000Y-93535000D01*
%TO.N,unconnected-(IC4-Pad3)*%
X90846156Y-113625402D02*
X90775000Y-113625402D01*
X89970000Y-112839424D02*
X89970000Y-111915402D01*
X90775000Y-113625402D02*
X90165000Y-113015402D01*
X90165000Y-113015402D02*
X90145978Y-113015402D01*
X90145978Y-113015402D02*
X89970000Y-112839424D01*
%TO.N,Net-(D101-Pad2)*%
X41465600Y-73935600D02*
X40235389Y-72705389D01*
X40235389Y-91705389D02*
X40235389Y-90872297D01*
X40235389Y-72705389D02*
X40235389Y-71872297D01*
X41465600Y-92935600D02*
X40235389Y-91705389D01*
%TO.N,Net-(D101-Pad4)*%
X58235389Y-71705389D02*
X58235389Y-70872297D01*
X48129900Y-71157786D02*
X47205600Y-72082086D01*
X50619821Y-73327865D02*
X50624821Y-73327865D01*
X47205600Y-72082086D02*
X47205600Y-72435600D01*
X49014247Y-73682769D02*
X50264917Y-73682769D01*
X50264917Y-73682769D02*
X50619821Y-73327865D01*
X49720878Y-71157786D02*
X48129900Y-71157786D01*
X59465600Y-72935600D02*
X58235389Y-71705389D01*
X50780389Y-72217297D02*
X49720878Y-71157786D01*
X50624821Y-73327865D02*
X50780389Y-73172297D01*
X50780389Y-73172297D02*
X50780389Y-72217297D01*
%TO.N,Net-(D102-Pad2)*%
X47205600Y-91082086D02*
X47205600Y-91435600D01*
X50619821Y-92327865D02*
X50624821Y-92327865D01*
X50264917Y-92682769D02*
X50619821Y-92327865D01*
X58235389Y-90705389D02*
X58235389Y-89872297D01*
X49720878Y-90157786D02*
X48129900Y-90157786D01*
X48129900Y-90157786D02*
X47205600Y-91082086D01*
X50624821Y-92327865D02*
X50780389Y-92172297D01*
X50780389Y-91217297D02*
X49720878Y-90157786D01*
X50780389Y-92172297D02*
X50780389Y-91217297D01*
X49014247Y-92682769D02*
X50264917Y-92682769D01*
X59465600Y-91935600D02*
X58235389Y-90705389D01*
%TO.N,Net-(D103-Pad2)*%
X40235389Y-110705389D02*
X40235389Y-109872297D01*
X40235389Y-129705389D02*
X40235389Y-128872297D01*
X41465600Y-130935600D02*
X40235389Y-129705389D01*
X41465600Y-111935600D02*
X40235389Y-110705389D01*
%TO.N,Net-(D103-Pad4)*%
X50264917Y-111682769D02*
X50619821Y-111327865D01*
X48129900Y-109157786D02*
X47205600Y-110082086D01*
X49014247Y-111682769D02*
X50264917Y-111682769D01*
X50780389Y-110217297D02*
X49720878Y-109157786D01*
X50619821Y-111327865D02*
X50624821Y-111327865D01*
X50624821Y-111327865D02*
X50780389Y-111172297D01*
X47205600Y-110082086D02*
X47205600Y-110435600D01*
X59465600Y-110935600D02*
X58235389Y-109705389D01*
X50780389Y-111172297D02*
X50780389Y-110217297D01*
X58235389Y-109705389D02*
X58235389Y-108872297D01*
X49720878Y-109157786D02*
X48129900Y-109157786D01*
%TO.N,Net-(D104-Pad2)*%
X50780389Y-130172297D02*
X50780389Y-129217297D01*
X47205600Y-129082086D02*
X47205600Y-129435600D01*
X59465600Y-129935600D02*
X58235389Y-128705389D01*
X50780389Y-129217297D02*
X49720878Y-128157786D01*
X49014247Y-130682769D02*
X50264917Y-130682769D01*
X50264917Y-130682769D02*
X50619821Y-130327865D01*
X48129900Y-128157786D02*
X47205600Y-129082086D01*
X58235389Y-128705389D02*
X58235389Y-127872297D01*
X49720878Y-128157786D02*
X48129900Y-128157786D01*
X50624821Y-130327865D02*
X50780389Y-130172297D01*
X50619821Y-130327865D02*
X50624821Y-130327865D01*
%TO.N,Net-(D105-Pad4)*%
X59235389Y-147705389D02*
X59235389Y-146872297D01*
X51619821Y-149327865D02*
X51624821Y-149327865D01*
X51780389Y-149172297D02*
X51780389Y-148217297D01*
X48205600Y-148082086D02*
X48205600Y-148435600D01*
X60465600Y-148935600D02*
X59235389Y-147705389D01*
X50014247Y-149682769D02*
X51264917Y-149682769D01*
X49129900Y-147157786D02*
X48205600Y-148082086D01*
X50720878Y-147157786D02*
X49129900Y-147157786D01*
X51780389Y-148217297D02*
X50720878Y-147157786D01*
X51624821Y-149327865D02*
X51780389Y-149172297D01*
X51264917Y-149682769D02*
X51619821Y-149327865D01*
%TO.N,Net-(D111-Pad4)*%
X86780389Y-63217297D02*
X85720878Y-62157786D01*
X86264917Y-64682769D02*
X86619821Y-64327865D01*
X86624821Y-64327865D02*
X86780389Y-64172297D01*
X95465600Y-60935600D02*
X94235389Y-59705389D01*
X85720878Y-62157786D02*
X84129900Y-62157786D01*
X85014247Y-64682769D02*
X86264917Y-64682769D01*
X86780389Y-64172297D02*
X86780389Y-63217297D01*
X84129900Y-62157786D02*
X83205600Y-63082086D01*
X94235389Y-59705389D02*
X94235389Y-58872297D01*
X86619821Y-64327865D02*
X86624821Y-64327865D01*
X83205600Y-63082086D02*
X83205600Y-63435600D01*
%TO.N,Net-(D112-Pad2)*%
X85720878Y-81157786D02*
X84129900Y-81157786D01*
X84129900Y-81157786D02*
X83205600Y-82082086D01*
X86780389Y-83172297D02*
X86780389Y-82217297D01*
X86780389Y-82217297D02*
X85720878Y-81157786D01*
X85014247Y-83682769D02*
X86264917Y-83682769D01*
X86624821Y-83327865D02*
X86780389Y-83172297D01*
X86264917Y-83682769D02*
X86619821Y-83327865D01*
X86619821Y-83327865D02*
X86624821Y-83327865D01*
X94235389Y-78705389D02*
X94235389Y-77872297D01*
X95465600Y-79935600D02*
X94235389Y-78705389D01*
X83205600Y-82082086D02*
X83205600Y-82435600D01*
%TO.N,Net-(D113-Pad4)*%
X86624821Y-102327865D02*
X86780389Y-102172297D01*
X85720878Y-100157786D02*
X84129900Y-100157786D01*
X83205600Y-101082086D02*
X83205600Y-101435600D01*
X95465600Y-98935600D02*
X94235389Y-97705389D01*
X86780389Y-101217297D02*
X85720878Y-100157786D01*
X85014247Y-102682769D02*
X86264917Y-102682769D01*
X86619821Y-102327865D02*
X86624821Y-102327865D01*
X86780389Y-102172297D02*
X86780389Y-101217297D01*
X86264917Y-102682769D02*
X86619821Y-102327865D01*
X84129900Y-100157786D02*
X83205600Y-101082086D01*
X94235389Y-97705389D02*
X94235389Y-96872297D01*
%TO.N,Net-(D114-Pad2)*%
X95465600Y-117935600D02*
X94235389Y-116705389D01*
X86780389Y-121172297D02*
X86780389Y-120217297D01*
X86264917Y-121682769D02*
X86619821Y-121327865D01*
X86619821Y-121327865D02*
X86624821Y-121327865D01*
X86624821Y-121327865D02*
X86780389Y-121172297D01*
X85014247Y-121682769D02*
X86264917Y-121682769D01*
X84129900Y-119157786D02*
X83205600Y-120082086D01*
X83205600Y-120082086D02*
X83205600Y-120435600D01*
X86780389Y-120217297D02*
X85720878Y-119157786D01*
X94235389Y-116705389D02*
X94235389Y-115872297D01*
X85720878Y-119157786D02*
X84129900Y-119157786D01*
%TO.N,Net-(D115-Pad4)*%
X87780389Y-147172297D02*
X87780389Y-146217297D01*
X87619821Y-147327865D02*
X87624821Y-147327865D01*
X86014247Y-147682769D02*
X87264917Y-147682769D01*
X87780389Y-146217297D02*
X86720878Y-145157786D01*
X84205600Y-146082086D02*
X84205600Y-146435600D01*
X87264917Y-147682769D02*
X87619821Y-147327865D01*
X85129900Y-145157786D02*
X84205600Y-146082086D01*
X86720878Y-145157786D02*
X85129900Y-145157786D01*
X95235389Y-145705389D02*
X95235389Y-144872297D01*
X87624821Y-147327865D02*
X87780389Y-147172297D01*
X96465600Y-146935600D02*
X95235389Y-145705389D01*
%TO.N,Net-(D122-Pad2)*%
X121720878Y-81157786D02*
X120129900Y-81157786D01*
X122780389Y-82217297D02*
X121720878Y-81157786D01*
X119205600Y-82082086D02*
X119205600Y-82435600D01*
X122619821Y-83327865D02*
X122624821Y-83327865D01*
X122780389Y-83172297D02*
X122780389Y-82217297D01*
X131465600Y-85935600D02*
X130235389Y-84705389D01*
X121014247Y-83682769D02*
X122264917Y-83682769D01*
X122264917Y-83682769D02*
X122619821Y-83327865D01*
X120129900Y-81157786D02*
X119205600Y-82082086D01*
X122624821Y-83327865D02*
X122780389Y-83172297D01*
X130235389Y-84705389D02*
X130235389Y-83872297D01*
%TO.N,Net-(D43-Pad4)*%
X158030647Y-152074495D02*
X158030647Y-153995054D01*
X147691926Y-133299996D02*
X147691926Y-131813074D01*
X148340000Y-129830685D02*
X149262865Y-129830685D01*
X150526930Y-136135000D02*
X147691926Y-133299996D01*
X167020000Y-141385000D02*
X167020000Y-150725000D01*
X149262865Y-129830685D02*
X149761017Y-130328837D01*
X167010000Y-141375000D02*
X161770000Y-136135000D01*
X167010000Y-141375000D02*
X167020000Y-141385000D01*
X161770000Y-136135000D02*
X150526930Y-136135000D01*
X147691926Y-131813074D02*
X149176163Y-130328837D01*
X167020000Y-150725000D02*
X160320000Y-157425000D01*
%TO.N,unconnected-(D105-Pad2)*%
X42465600Y-149935600D02*
X41235389Y-148705389D01*
X41235389Y-148705389D02*
X41235389Y-147872297D01*
%TO.N,Net-(D106-Pad4)*%
X68780389Y-72172297D02*
X68780389Y-71217297D01*
X76235389Y-63705389D02*
X76235389Y-62872297D01*
X77465600Y-64935600D02*
X76235389Y-63705389D01*
X67014247Y-72682769D02*
X68264917Y-72682769D01*
X66129900Y-70157786D02*
X65205600Y-71082086D01*
X68780389Y-71217297D02*
X67720878Y-70157786D01*
X65205600Y-71082086D02*
X65205600Y-71435600D01*
X68619821Y-72327865D02*
X68624821Y-72327865D01*
X68264917Y-72682769D02*
X68619821Y-72327865D01*
X68624821Y-72327865D02*
X68780389Y-72172297D01*
X67720878Y-70157786D02*
X66129900Y-70157786D01*
%TO.N,Net-(D107-Pad2)*%
X68780389Y-91172297D02*
X68780389Y-90217297D01*
X76235389Y-82705389D02*
X76235389Y-81872297D01*
X66129900Y-89157786D02*
X65205600Y-90082086D01*
X68780389Y-90217297D02*
X67720878Y-89157786D01*
X77465600Y-83935600D02*
X76235389Y-82705389D01*
X68624821Y-91327865D02*
X68780389Y-91172297D01*
X68264917Y-91682769D02*
X68619821Y-91327865D01*
X67014247Y-91682769D02*
X68264917Y-91682769D01*
X68619821Y-91327865D02*
X68624821Y-91327865D01*
X65205600Y-90082086D02*
X65205600Y-90435600D01*
X67720878Y-89157786D02*
X66129900Y-89157786D01*
%TO.N,Net-(D108-Pad4)*%
X68619821Y-110327865D02*
X68624821Y-110327865D01*
X76235389Y-101705389D02*
X76235389Y-100872297D01*
X67720878Y-108157786D02*
X66129900Y-108157786D01*
X65205600Y-109082086D02*
X65205600Y-109435600D01*
X68780389Y-109217297D02*
X67720878Y-108157786D01*
X67014247Y-110682769D02*
X68264917Y-110682769D01*
X68264917Y-110682769D02*
X68619821Y-110327865D01*
X68624821Y-110327865D02*
X68780389Y-110172297D01*
X66129900Y-108157786D02*
X65205600Y-109082086D01*
X77465600Y-102935600D02*
X76235389Y-101705389D01*
X68780389Y-110172297D02*
X68780389Y-109217297D01*
%TO.N,Net-(D109-Pad2)*%
X76235389Y-120705389D02*
X76235389Y-119872297D01*
X66129900Y-127157786D02*
X65205600Y-128082086D01*
X65205600Y-128082086D02*
X65205600Y-128435600D01*
X67014247Y-129682769D02*
X68264917Y-129682769D01*
X68624821Y-129327865D02*
X68780389Y-129172297D01*
X68619821Y-129327865D02*
X68624821Y-129327865D01*
X67720878Y-127157786D02*
X66129900Y-127157786D01*
X68780389Y-129172297D02*
X68780389Y-128217297D01*
X77465600Y-121935600D02*
X76235389Y-120705389D01*
X68264917Y-129682769D02*
X68619821Y-129327865D01*
X68780389Y-128217297D02*
X67720878Y-127157786D01*
%TO.N,unconnected-(D44-Pad4)*%
X155310000Y-129055000D02*
X155310000Y-130676424D01*
%TO.N,Net-(D110-Pad4)*%
X67129900Y-146157786D02*
X66205600Y-147082086D01*
X69780389Y-147217297D02*
X68720878Y-146157786D01*
X77235389Y-146705389D02*
X77235389Y-145872297D01*
X69780389Y-148172297D02*
X69780389Y-147217297D01*
X78465600Y-147935600D02*
X77235389Y-146705389D01*
X66205600Y-147082086D02*
X66205600Y-147435600D01*
X69264917Y-148682769D02*
X69619821Y-148327865D01*
X68014247Y-148682769D02*
X69264917Y-148682769D01*
X68720878Y-146157786D02*
X67129900Y-146157786D01*
X69624821Y-148327865D02*
X69780389Y-148172297D01*
X69619821Y-148327865D02*
X69624821Y-148327865D01*
%TO.N,Net-(D116-Pad4)*%
X104264917Y-60682769D02*
X104619821Y-60327865D01*
X104619821Y-60327865D02*
X104624821Y-60327865D01*
X103720878Y-58157786D02*
X102129900Y-58157786D01*
X102129900Y-58157786D02*
X101205600Y-59082086D01*
X103014247Y-60682769D02*
X104264917Y-60682769D01*
X104624821Y-60327865D02*
X104780389Y-60172297D01*
X101205600Y-59082086D02*
X101205600Y-59435600D01*
X104780389Y-59217297D02*
X103720878Y-58157786D01*
X113465600Y-64935600D02*
X112235389Y-63705389D01*
X112235389Y-63705389D02*
X112235389Y-62872297D01*
X104780389Y-60172297D02*
X104780389Y-59217297D01*
%TO.N,Net-(D117-Pad2)*%
X102129900Y-77157786D02*
X101205600Y-78082086D01*
X103014247Y-79682769D02*
X104264917Y-79682769D01*
X104780389Y-79172297D02*
X104780389Y-78217297D01*
X112235389Y-82705389D02*
X112235389Y-81872297D01*
X103720878Y-77157786D02*
X102129900Y-77157786D01*
X104619821Y-79327865D02*
X104624821Y-79327865D01*
X104780389Y-78217297D02*
X103720878Y-77157786D01*
X113465600Y-83935600D02*
X112235389Y-82705389D01*
X104624821Y-79327865D02*
X104780389Y-79172297D01*
X101205600Y-78082086D02*
X101205600Y-78435600D01*
X104264917Y-79682769D02*
X104619821Y-79327865D01*
%TO.N,Net-(D118-Pad4)*%
X103014247Y-98682769D02*
X104264917Y-98682769D01*
X104264917Y-98682769D02*
X104619821Y-98327865D01*
X101205600Y-97082086D02*
X101205600Y-97435600D01*
X104619821Y-98327865D02*
X104624821Y-98327865D01*
X113465600Y-102935600D02*
X112235389Y-101705389D01*
X103720878Y-96157786D02*
X102129900Y-96157786D01*
X102129900Y-96157786D02*
X101205600Y-97082086D01*
X104624821Y-98327865D02*
X104780389Y-98172297D01*
X112235389Y-101705389D02*
X112235389Y-100872297D01*
X104780389Y-98172297D02*
X104780389Y-97217297D01*
X104780389Y-97217297D02*
X103720878Y-96157786D01*
%TO.N,Net-(D119-Pad2)*%
X104264917Y-117682769D02*
X104619821Y-117327865D01*
X103720878Y-115157786D02*
X102129900Y-115157786D01*
X104619821Y-117327865D02*
X104624821Y-117327865D01*
X104624821Y-117327865D02*
X104780389Y-117172297D01*
X104780389Y-116217297D02*
X103720878Y-115157786D01*
X103014247Y-117682769D02*
X104264917Y-117682769D01*
X112235389Y-120705389D02*
X112235389Y-119872297D01*
X104780389Y-117172297D02*
X104780389Y-116217297D01*
X113465600Y-121935600D02*
X112235389Y-120705389D01*
X102129900Y-115157786D02*
X101205600Y-116082086D01*
X101205600Y-116082086D02*
X101205600Y-116435600D01*
%TO.N,Net-(D120-Pad4)*%
X105624821Y-146327865D02*
X105780389Y-146172297D01*
X105619821Y-146327865D02*
X105624821Y-146327865D01*
X102205600Y-145082086D02*
X102205600Y-145435600D01*
X104014247Y-146682769D02*
X105264917Y-146682769D01*
X103129900Y-144157786D02*
X102205600Y-145082086D01*
X114320472Y-143153414D02*
X114320473Y-142320323D01*
X105264917Y-146682769D02*
X105619821Y-146327865D01*
X105780389Y-146172297D02*
X105780389Y-145217297D01*
X104720878Y-144157786D02*
X103129900Y-144157786D01*
X105780389Y-145217297D02*
X104720878Y-144157786D01*
X115550684Y-144383625D02*
X114320472Y-143153414D01*
%TO.N,Net-(D121-Pad4)*%
X122619821Y-64327865D02*
X122624821Y-64327865D01*
X130235389Y-65705389D02*
X130235389Y-64872297D01*
X122624821Y-64327865D02*
X122780389Y-64172297D01*
X120129900Y-62157786D02*
X119205600Y-63082086D01*
X122780389Y-64172297D02*
X122780389Y-63217297D01*
X131465600Y-66935600D02*
X130235389Y-65705389D01*
X119205600Y-63082086D02*
X119205600Y-63435600D01*
X121014247Y-64682769D02*
X122264917Y-64682769D01*
X122780389Y-63217297D02*
X121720878Y-62157786D01*
X122264917Y-64682769D02*
X122619821Y-64327865D01*
X121720878Y-62157786D02*
X120129900Y-62157786D01*
%TO.N,Net-(D123-Pad4)*%
X119205600Y-101082086D02*
X119205600Y-101435600D01*
X122780389Y-102172297D02*
X122780389Y-101217297D01*
X121720878Y-100157786D02*
X120129900Y-100157786D01*
X122264917Y-102682769D02*
X122619821Y-102327865D01*
X121014247Y-102682769D02*
X122264917Y-102682769D01*
X122780389Y-101217297D02*
X121720878Y-100157786D01*
X131465600Y-104935600D02*
X130235389Y-103705389D01*
X130235389Y-103705389D02*
X130235389Y-102872297D01*
X122619821Y-102327865D02*
X122624821Y-102327865D01*
X120129900Y-100157786D02*
X119205600Y-101082086D01*
X122624821Y-102327865D02*
X122780389Y-102172297D01*
%TO.N,Net-(D124-Pad2)*%
X122624821Y-121327865D02*
X122780389Y-121172297D01*
X121014247Y-121682769D02*
X122264917Y-121682769D01*
X120129900Y-119157786D02*
X119205600Y-120082086D01*
X119205600Y-120082086D02*
X119205600Y-120435600D01*
X131465600Y-123935600D02*
X130235389Y-122705389D01*
X122780389Y-121172297D02*
X122780389Y-120217297D01*
X121720878Y-119157786D02*
X120129900Y-119157786D01*
X130235389Y-122705389D02*
X130235389Y-121872297D01*
X122780389Y-120217297D02*
X121720878Y-119157786D01*
X122619821Y-121327865D02*
X122624821Y-121327865D01*
X122264917Y-121682769D02*
X122619821Y-121327865D01*
%TO.N,Net-(D125-Pad4)*%
X121290684Y-142530111D02*
X121290684Y-142883625D01*
X124865473Y-143620322D02*
X124865472Y-142665321D01*
X124350000Y-144130794D02*
X124704905Y-143775891D01*
X123099330Y-144130794D02*
X124350000Y-144130794D01*
X124865472Y-142665321D02*
X123805962Y-141605812D01*
X134456710Y-146066409D02*
X133586821Y-144559715D01*
X124709905Y-143775890D02*
X124865473Y-143620322D01*
X123805962Y-141605812D02*
X122214984Y-141605812D01*
X133586821Y-144559715D02*
X133802440Y-143755011D01*
X124704905Y-143775891D02*
X124709905Y-143775890D01*
X122214984Y-141605812D02*
X121290684Y-142530111D01*
%TO.N,Net-(D127-Pad2)*%
X139014247Y-104682769D02*
X140264917Y-104682769D01*
X141660000Y-88328522D02*
X141660000Y-100715000D01*
X137205600Y-103082086D02*
X137205600Y-103435600D01*
X140624821Y-104327865D02*
X140780389Y-104172297D01*
X141660000Y-100715000D02*
X139969046Y-102405954D01*
X137205600Y-84082086D02*
X137205600Y-84435600D01*
X138129900Y-102157786D02*
X137205600Y-103082086D01*
X140264917Y-85682769D02*
X140619821Y-85327865D01*
X139014247Y-85682769D02*
X141660000Y-88328522D01*
X138129900Y-83157786D02*
X137205600Y-84082086D01*
X139014247Y-85682769D02*
X140264917Y-85682769D01*
X140780389Y-104172297D02*
X140780389Y-103217297D01*
X140780389Y-85172297D02*
X140780389Y-84217297D01*
X139720878Y-83157786D02*
X138129900Y-83157786D01*
X140780389Y-84217297D02*
X139720878Y-83157786D01*
X140780389Y-103217297D02*
X139969046Y-102405954D01*
X139720878Y-102157786D02*
X138129900Y-102157786D01*
X140624821Y-85327865D02*
X140780389Y-85172297D01*
X139969046Y-102405954D02*
X139720878Y-102157786D01*
X140619821Y-104327865D02*
X140624821Y-104327865D01*
X140619821Y-85327865D02*
X140624821Y-85327865D01*
X140264917Y-104682769D02*
X140619821Y-104327865D01*
%TO.N,Net-(D129-Pad2)*%
X152516222Y-152818583D02*
X151699805Y-153635000D01*
X140480849Y-145761674D02*
X140389353Y-146103142D01*
X143456303Y-147848670D02*
X143461132Y-147849964D01*
X140820480Y-125489002D02*
X139014247Y-123682769D01*
X150400000Y-153635000D02*
X151699805Y-153635000D01*
X143149647Y-145519871D02*
X141612882Y-145108095D01*
X140619821Y-123327865D02*
X140624821Y-123327865D01*
X146022076Y-138367076D02*
X140820480Y-133165479D01*
X143149647Y-145519871D02*
X143385129Y-145519871D01*
X143651663Y-147739960D02*
X143898836Y-146817501D01*
X143385129Y-145519871D02*
X146022076Y-142882924D01*
X139720878Y-121157786D02*
X138129900Y-121157786D01*
X143898836Y-146817501D02*
X143149647Y-145519871D01*
X140780389Y-123172297D02*
X140780389Y-122217297D01*
X141813582Y-147775928D02*
X143021636Y-148099624D01*
X138129900Y-121157786D02*
X137205600Y-122082086D01*
X146022076Y-142882924D02*
X146022076Y-138367076D01*
X140264917Y-123682769D02*
X140619821Y-123327865D01*
X143021636Y-148099624D02*
X143456303Y-147848670D01*
X139014247Y-123682769D02*
X140264917Y-123682769D01*
X140624821Y-123327865D02*
X140780389Y-123172297D01*
X150400000Y-153635000D02*
X148810000Y-152045000D01*
X143461132Y-147849964D02*
X143651663Y-147739960D01*
X140820480Y-133165479D02*
X140820480Y-125489002D01*
X141612882Y-145108095D02*
X140480849Y-145761674D01*
X137205600Y-122082086D02*
X137205600Y-122435600D01*
X140780389Y-122217297D02*
X139720878Y-121157786D01*
%TO.N,unconnected-(IC1-Pad3)*%
X90135000Y-56219632D02*
X90115978Y-56219632D01*
X89940000Y-56043654D02*
X89940000Y-55119632D01*
X90816156Y-56829632D02*
X90745000Y-56829632D01*
X90115978Y-56219632D02*
X89940000Y-56043654D01*
X90745000Y-56829632D02*
X90135000Y-56219632D01*
%TO.N,SCL*%
X172802459Y-119338783D02*
X167989583Y-119338783D01*
X169369999Y-69874000D02*
X175663500Y-69874000D01*
X166540000Y-62850000D02*
X163444696Y-62850000D01*
X163444696Y-62850000D02*
X159453240Y-58858544D01*
X143140000Y-73512500D02*
X144333760Y-72318740D01*
X176229574Y-121555830D02*
X175019506Y-121555830D01*
X152244091Y-90572002D02*
X166360998Y-90572002D01*
X167989583Y-119338783D02*
X164580800Y-115930000D01*
X166580000Y-62810000D02*
X169410000Y-62810000D01*
X159453240Y-58858544D02*
X153906456Y-58858544D01*
X164580800Y-115930000D02*
X152800000Y-115930000D01*
X144916487Y-70912752D02*
X144916487Y-67675345D01*
X169410000Y-62810000D02*
X169490000Y-62890000D01*
X175019506Y-121555830D02*
X172802459Y-119338783D01*
X153906456Y-58858544D02*
X148584998Y-64180002D01*
X151810000Y-115920000D02*
X151760000Y-115870000D01*
X152790000Y-115920000D02*
X151810000Y-115920000D01*
X166580000Y-62810000D02*
X166540000Y-62850000D01*
X144916487Y-67675345D02*
X144670363Y-67429221D01*
X152232089Y-90560000D02*
X152244091Y-90572002D01*
X144333760Y-72318740D02*
X144333760Y-71495479D01*
X144333760Y-71495479D02*
X144916487Y-70912752D01*
X152800000Y-115930000D02*
X152790000Y-115920000D01*
%TO.N,SDA*%
X165850000Y-60500000D02*
X173630000Y-60500000D01*
X165850000Y-60500000D02*
X165834509Y-60515491D01*
X175670000Y-72867500D02*
X169376499Y-72867500D01*
X152460000Y-116620000D02*
X152380000Y-116700000D01*
X175279502Y-124079502D02*
X175942038Y-124079502D01*
X161543720Y-58409024D02*
X151815976Y-58409024D01*
X167702046Y-121862455D02*
X162459591Y-116620000D01*
X167702046Y-121862455D02*
X173062455Y-121862455D01*
X152460000Y-116620000D02*
X162459591Y-116620000D01*
X165834509Y-60515491D02*
X163650187Y-60515491D01*
X152681609Y-93100000D02*
X152693611Y-93112002D01*
X173630000Y-60500000D02*
X173720000Y-60410000D01*
X151815976Y-58409024D02*
X148584998Y-61640002D01*
X173062455Y-121862455D02*
X175279502Y-124079502D01*
X152693611Y-93112002D02*
X166360998Y-93112002D01*
X163650187Y-60515491D02*
X161543720Y-58409024D01*
%TO.N,SW11*%
X88640000Y-59101674D02*
X86857958Y-57319632D01*
%TO.N,SW16*%
X90815000Y-55119632D02*
X90590000Y-55119632D01*
X91669580Y-56684211D02*
X91669580Y-55974212D01*
X92569786Y-57584417D02*
X91669580Y-56684211D01*
X91669580Y-55974212D02*
X90815000Y-55119632D01*
X90590000Y-55119632D02*
X93430000Y-52279632D01*
%TO.N,SW21*%
X89031469Y-56538643D02*
X89290000Y-56280112D01*
X89290000Y-56280112D02*
X89290000Y-55119632D01*
X89294983Y-51850017D02*
X89290000Y-51855000D01*
X89192609Y-57690812D02*
X89031469Y-57529672D01*
X89031469Y-57529672D02*
X89031469Y-56538643D01*
X89290000Y-51855000D02*
X89290000Y-55119632D01*
%TO.N,SW26*%
X88640000Y-55245413D02*
X87850489Y-56034924D01*
X88660000Y-50885000D02*
X88570472Y-50974528D01*
X88570472Y-50974528D02*
X88570472Y-55050104D01*
%TO.N,SW1*%
X91015368Y-59519632D02*
X91540656Y-58994344D01*
X91540656Y-58994344D02*
X91540656Y-57588949D01*
X49630000Y-64575000D02*
X53282500Y-64575000D01*
X90590000Y-59519632D02*
X91015368Y-59519632D01*
%TO.N,SW6*%
X89940000Y-59519632D02*
X89940000Y-57049230D01*
X89940000Y-57049230D02*
X89755980Y-56865210D01*
%TO.N,unconnected-(IC5-Pad3)*%
X91133369Y-138653820D02*
X90957391Y-138477842D01*
X90957391Y-138477842D02*
X90957391Y-137553820D01*
X91833547Y-139263820D02*
X91762391Y-139263820D01*
X91762391Y-139263820D02*
X91152391Y-138653820D01*
X91152391Y-138653820D02*
X91133369Y-138653820D01*
%TO.N,SW2*%
X90665000Y-78415000D02*
X90665000Y-77434973D01*
X90665000Y-77434973D02*
X91615656Y-76484317D01*
%TO.N,SW3*%
X90725000Y-96945000D02*
X90725000Y-96014861D01*
X90725000Y-96014861D02*
X91080080Y-95659781D01*
%TO.N,SW4*%
X90620000Y-116315402D02*
X90620000Y-115335375D01*
X90620000Y-115335375D02*
X91570656Y-114384719D01*
%TO.N,SW5*%
X91607391Y-141953820D02*
X91607391Y-140973793D01*
X91607391Y-140973793D02*
X92558047Y-140023137D01*
%TO.N,SW7*%
X90015000Y-78415000D02*
X90015000Y-75944598D01*
X90015000Y-75944598D02*
X89830980Y-75760578D01*
%TO.N,SW8*%
X90075000Y-96945000D02*
X90075000Y-95679304D01*
X89631069Y-94327902D02*
X89592685Y-94289518D01*
X90075000Y-95679304D02*
X89631069Y-95235373D01*
X89631069Y-95235373D02*
X89631069Y-94327902D01*
%TO.N,SW9*%
X89970000Y-113845000D02*
X89785980Y-113660980D01*
X89970000Y-116315402D02*
X89970000Y-113845000D01*
%TO.N,SW10*%
X90957391Y-139483418D02*
X90773371Y-139299398D01*
X90957391Y-141953820D02*
X90957391Y-139483418D01*
%TO.N,SW12*%
X88715000Y-77997042D02*
X86932958Y-76215000D01*
%TO.N,SW13*%
X87950790Y-96945000D02*
X86973191Y-95967401D01*
X88775000Y-96945000D02*
X87950790Y-96945000D01*
X86973191Y-93301809D02*
X87840000Y-92435000D01*
X86973191Y-95967401D02*
X86973191Y-93301809D01*
X85630000Y-93575000D02*
X86700000Y-93575000D01*
X86700000Y-93575000D02*
X86973191Y-93301809D01*
%TO.N,SW14*%
X88670000Y-115897444D02*
X86887958Y-114115402D01*
%TO.N,SW15*%
X89657391Y-141535862D02*
X87875349Y-139753820D01*
%TO.N,SW17*%
X91744580Y-75579579D02*
X91744580Y-74869580D01*
X91744580Y-74869580D02*
X90890000Y-74015000D01*
X90890000Y-74015000D02*
X90665000Y-74015000D01*
X92644786Y-76479785D02*
X91744580Y-75579579D01*
X93430000Y-71250000D02*
X90665000Y-74015000D01*
%TO.N,SW18*%
X93430000Y-89840000D02*
X90725000Y-92545000D01*
X91910000Y-94785000D02*
X91910000Y-94199282D01*
X91910000Y-94199282D02*
X90725000Y-93014282D01*
%TO.N,SW19*%
X90620000Y-111999428D02*
X92523340Y-113902768D01*
X93430000Y-108575000D02*
X90620000Y-111385000D01*
%TO.N,SW20*%
X92686971Y-139118399D02*
X92686971Y-138408400D01*
X94430000Y-137575000D02*
X91628571Y-137575000D01*
X91832391Y-137553820D02*
X91607391Y-137553820D01*
X92686971Y-138408400D02*
X91832391Y-137553820D01*
X93587177Y-140018605D02*
X92686971Y-139118399D01*
%TO.N,SW22*%
X89267609Y-76586180D02*
X89106469Y-76425040D01*
X89365000Y-75175480D02*
X89365000Y-74015000D01*
X89365000Y-70340000D02*
X89365000Y-74015000D01*
X89375158Y-70329842D02*
X89365000Y-70340000D01*
X89106469Y-75434011D02*
X89365000Y-75175480D01*
X89106469Y-76425040D02*
X89106469Y-75434011D01*
%TO.N,SW23*%
X89425000Y-93398923D02*
X89425000Y-92545000D01*
X89644799Y-89490201D02*
X89425000Y-89710000D01*
X89425000Y-89710000D02*
X89425000Y-92545000D01*
X88595023Y-94228900D02*
X89425000Y-93398923D01*
%TO.N,SW24*%
X89340000Y-107725000D02*
X89320000Y-107745000D01*
X89320000Y-113075882D02*
X89320000Y-111915402D01*
X89061469Y-113334413D02*
X89320000Y-113075882D01*
X89061469Y-114325442D02*
X89061469Y-113334413D01*
X89222609Y-114486582D02*
X89061469Y-114325442D01*
X89320000Y-107745000D02*
X89320000Y-111915402D01*
%TO.N,SW25*%
X90307391Y-134497609D02*
X90307391Y-137553820D01*
X90210000Y-140125000D02*
X90048860Y-139963860D01*
X90350000Y-134455000D02*
X90307391Y-134497609D01*
X90048860Y-139963860D02*
X90048860Y-138972831D01*
X90048860Y-138972831D02*
X90307391Y-138714300D01*
X90307391Y-138714300D02*
X90307391Y-137553820D01*
%TO.N,SW27*%
X88710000Y-69515000D02*
X88650647Y-69574353D01*
X88715000Y-74015000D02*
X87920390Y-74809610D01*
X87920390Y-74809610D02*
X87920390Y-74935391D01*
X88650647Y-69574353D02*
X88650647Y-73950647D01*
%TO.N,SW28*%
X87697702Y-93622298D02*
X88775000Y-92545000D01*
X88775000Y-88540000D02*
X88775000Y-92545000D01*
X88800000Y-88515000D02*
X88775000Y-88540000D01*
X87697702Y-95667298D02*
X87697702Y-93622298D01*
%TO.N,SW29*%
X88615489Y-106869511D02*
X88615489Y-111860891D01*
X88670000Y-112041184D02*
X87880491Y-112830693D01*
X88690000Y-106795000D02*
X88615489Y-106869511D01*
%TO.N,SW30*%
X88860996Y-138350215D02*
X88860996Y-138475996D01*
X89657391Y-137553820D02*
X88860996Y-138350215D01*
X89625489Y-134665000D02*
X89657391Y-134696902D01*
X89625489Y-133609511D02*
X89625489Y-134665000D01*
X131225925Y-136569400D02*
X134841685Y-136569400D01*
X89670000Y-133565000D02*
X89625489Y-133609511D01*
X89657391Y-134696902D02*
X89657391Y-137553820D01*
%TO.N,ROW7*%
X150902029Y-87604511D02*
X162025489Y-87604511D01*
X141700316Y-152665000D02*
X144760158Y-149605158D01*
X165708996Y-87380000D02*
X166360998Y-88032002D01*
X131594282Y-149025000D02*
X135234282Y-152665000D01*
X148985009Y-87307502D02*
X149259989Y-87582482D01*
X150880000Y-87582482D02*
X150902029Y-87604511D01*
X169492745Y-110562533D02*
X176606868Y-110562533D01*
X103590000Y-133185000D02*
X103590000Y-132015000D01*
X113539478Y-149025000D02*
X131594282Y-149025000D01*
X135234282Y-152665000D02*
X141700316Y-152665000D01*
X107003489Y-142489011D02*
X113539478Y-149025000D01*
X160584490Y-140440510D02*
X160584490Y-144243932D01*
X107003489Y-135428489D02*
X106220000Y-134645000D01*
X107003489Y-135428489D02*
X107003489Y-142489011D01*
X105050000Y-134645000D02*
X103590000Y-133185000D01*
X149022476Y-110562533D02*
X169492745Y-110562533D01*
X160624490Y-140440510D02*
X160870000Y-140195000D01*
X149259989Y-87582482D02*
X150880000Y-87582482D01*
X162250000Y-87380000D02*
X165708996Y-87380000D01*
X148985009Y-110600000D02*
X149022476Y-110562533D01*
X160584490Y-140440510D02*
X160624490Y-140440510D01*
X162025489Y-87604511D02*
X162250000Y-87380000D01*
X103590000Y-132015000D02*
X101355000Y-132015000D01*
X106220000Y-134645000D02*
X105050000Y-134645000D01*
X176606868Y-110562533D02*
X177026701Y-110142700D01*
%TO.N,ROW4*%
X88859004Y-117700420D02*
X89320000Y-117239424D01*
X88336969Y-114625556D02*
X88336969Y-113723801D01*
X89320000Y-116315402D02*
X89320000Y-115365402D01*
X150353038Y-107710000D02*
X150434009Y-107629029D01*
X89320000Y-118239598D02*
X89320000Y-116315402D01*
X169780281Y-108038860D02*
X176894404Y-108038860D01*
X106520000Y-121205000D02*
X106520000Y-113265000D01*
X83950000Y-116755000D02*
X84895420Y-117700420D01*
X150843840Y-108038860D02*
X150434009Y-107629029D01*
X176894404Y-108038860D02*
X177314237Y-107619027D01*
X169780281Y-108038860D02*
X150843840Y-108038860D01*
X92362859Y-121282457D02*
X89320000Y-118239598D01*
X88922506Y-115211093D02*
X88336969Y-114625556D01*
X147985518Y-107710000D02*
X150353038Y-107710000D01*
X106490000Y-121235000D02*
X106520000Y-121205000D01*
X89165691Y-115211093D02*
X88922506Y-115211093D01*
X89320000Y-115365402D02*
X89165691Y-115211093D01*
X84895420Y-117700420D02*
X88859004Y-117700420D01*
%TO.N,COL2*%
X57344982Y-121935000D02*
X55804580Y-123475402D01*
X55804580Y-104475402D02*
X55804580Y-115209580D01*
X85650000Y-128635000D02*
X85650000Y-129905000D01*
X160681148Y-64180002D02*
X160627454Y-64126308D01*
X55804580Y-96209580D02*
X59990000Y-100395000D01*
X58720000Y-121935000D02*
X57344982Y-121935000D01*
X105902396Y-51065960D02*
X136496168Y-51065960D01*
X58720000Y-121935000D02*
X63339454Y-121935000D01*
X85650000Y-128635000D02*
X86300000Y-128635000D01*
X62530000Y-61575000D02*
X64916511Y-59188489D01*
X160210750Y-96625730D02*
X170577408Y-96625730D01*
X55820869Y-77225869D02*
X59990000Y-81395000D01*
X58720000Y-64935000D02*
X58720000Y-68031968D01*
X58720000Y-102935000D02*
X57344982Y-102935000D01*
X55804580Y-85475402D02*
X55804580Y-96209580D01*
X156070000Y-76030000D02*
X156070000Y-74620000D01*
X55804580Y-133209580D02*
X60990000Y-138395000D01*
X160177907Y-96592887D02*
X160210750Y-96625730D01*
X64929727Y-123527732D02*
X64929727Y-123525273D01*
X55820869Y-70931099D02*
X55820869Y-77225869D01*
X70301511Y-59188489D02*
X77255511Y-52234489D01*
X55804580Y-115209580D02*
X59990000Y-119395000D01*
X136496168Y-51065960D02*
X139010209Y-48551921D01*
X58720000Y-83935000D02*
X57344982Y-83935000D01*
X84360000Y-127345000D02*
X68746995Y-127345000D01*
X84360000Y-127345000D02*
X85650000Y-128635000D01*
X159182794Y-48551920D02*
X160284384Y-47450330D01*
X163824998Y-64180002D02*
X160681148Y-64180002D01*
X68746995Y-127345000D02*
X64929727Y-123527732D01*
X81234793Y-52234489D02*
X85723803Y-47745480D01*
X58720000Y-68031968D02*
X55820869Y-70931099D01*
X139010209Y-48551921D02*
X159182794Y-48551920D01*
X86300000Y-128635000D02*
X89240000Y-125695000D01*
X55804580Y-123475402D02*
X55804580Y-133209580D01*
X156344509Y-75755491D02*
X165937509Y-75755491D01*
X85723803Y-47745480D02*
X102581915Y-47745480D01*
X64929727Y-123525273D02*
X64930000Y-123525546D01*
X63339454Y-121935000D02*
X64929727Y-123525273D01*
X57344982Y-83935000D02*
X55804580Y-85475402D01*
X102581915Y-47745480D02*
X105902396Y-51065960D01*
X64916511Y-59188489D02*
X70301511Y-59188489D01*
X77255511Y-52234489D02*
X81234793Y-52234489D01*
X57344982Y-102935000D02*
X55804580Y-104475402D01*
%TO.N,COL5*%
X111344982Y-75935000D02*
X109760000Y-77519982D01*
X112720000Y-56935000D02*
X112720000Y-59938005D01*
X144515491Y-49900480D02*
X161745719Y-49900480D01*
X112720000Y-75935000D02*
X111344982Y-75935000D01*
X107754511Y-130232989D02*
X107754511Y-117525471D01*
X111344982Y-113935000D02*
X112720000Y-113935000D01*
X162149729Y-71800002D02*
X161975987Y-71626260D01*
X112720000Y-59938005D02*
X109820869Y-62837136D01*
X109700000Y-96579982D02*
X109700000Y-107105000D01*
X109760000Y-88165000D02*
X113990000Y-92395000D01*
X117690480Y-52414520D02*
X137054762Y-52414520D01*
X106992500Y-130995000D02*
X107754511Y-130232989D01*
X144510000Y-49905971D02*
X144515491Y-49900480D01*
X109700000Y-107105000D02*
X113990000Y-111395000D01*
X109760000Y-77519982D02*
X109760000Y-88165000D01*
X109135989Y-135248489D02*
X111713489Y-135248489D01*
X162076427Y-82920000D02*
X162108429Y-82952002D01*
X109820869Y-69225869D02*
X113990000Y-73395000D01*
X106992500Y-130995000D02*
X106992500Y-133105000D01*
X137054762Y-52414520D02*
X139563311Y-49905971D01*
X111344982Y-94935000D02*
X109700000Y-96579982D01*
X161526467Y-104190000D02*
X161533215Y-104196748D01*
X116530000Y-53575000D02*
X117690480Y-52414520D01*
X109820869Y-62837136D02*
X109820869Y-69225869D01*
X139563311Y-49905971D02*
X144510000Y-49905971D01*
X111713489Y-135248489D02*
X112848025Y-136383025D01*
X112720000Y-94935000D02*
X111344982Y-94935000D01*
X162108429Y-82952002D02*
X166360998Y-82952002D01*
X112848025Y-136383025D02*
X114805083Y-136383025D01*
X106992500Y-133105000D02*
X109135989Y-135248489D01*
X107754511Y-117525471D02*
X111344982Y-113935000D01*
X163824998Y-71800002D02*
X162149729Y-71800002D01*
X161533215Y-104196748D02*
X169714800Y-104196748D01*
X161745719Y-49900480D02*
X162301767Y-49344432D01*
%TO.N,COL6*%
X162514509Y-50355491D02*
X162560000Y-50310000D01*
X127160000Y-65498005D02*
X127160000Y-71715080D01*
X127250000Y-132595000D02*
X127250000Y-134565000D01*
X139749509Y-50355491D02*
X162514509Y-50355491D01*
X126800000Y-78085000D02*
X126800000Y-82595000D01*
X126800000Y-82595000D02*
X126770000Y-82625000D01*
X162525947Y-85489033D02*
X162528916Y-85492002D01*
X130720000Y-58935000D02*
X130720000Y-61938005D01*
X131480000Y-142265000D02*
X131480000Y-140339159D01*
X161970420Y-106720420D02*
X161850000Y-106600000D01*
X127240000Y-134575000D02*
X127240000Y-141225000D01*
X133673711Y-138145448D02*
X135807223Y-138145448D01*
X126800000Y-72075080D02*
X126800000Y-78085000D01*
X126800000Y-96605000D02*
X126800000Y-116065000D01*
X162528916Y-85492002D02*
X166360998Y-85492002D01*
X127250000Y-116515000D02*
X127250000Y-132595000D01*
X127240000Y-141225000D02*
X128830000Y-142815000D01*
X126800000Y-116065000D02*
X127250000Y-116515000D01*
X131480000Y-140339159D02*
X133673711Y-138145448D01*
X126770000Y-82625000D02*
X126770000Y-96575000D01*
X127160000Y-71715080D02*
X126800000Y-72075080D01*
X130720000Y-61938005D02*
X127160000Y-65498005D01*
X126770000Y-96575000D02*
X126800000Y-96605000D01*
X134530000Y-55575000D02*
X139749509Y-50355491D01*
X169427263Y-106720420D02*
X161970420Y-106720420D01*
%TO.N,COL4*%
X105229909Y-101269420D02*
X100544329Y-105955000D01*
X92980000Y-129915000D02*
X92980000Y-132045000D01*
X96310000Y-123435000D02*
X96310000Y-125605000D01*
X100544329Y-105955000D02*
X99150000Y-105955000D01*
X96990000Y-136395000D02*
X98710000Y-136395000D01*
X96990000Y-136395000D02*
X95720000Y-137665000D01*
X160679040Y-49450960D02*
X161620000Y-48510000D01*
X101771579Y-95843421D02*
X101906734Y-95708266D01*
X91266159Y-116391846D02*
X91266159Y-119161159D01*
X102384580Y-75159580D02*
X105229909Y-78004909D01*
X101906734Y-95708266D02*
X104023266Y-95708266D01*
X105229909Y-82905882D02*
X101350791Y-86785000D01*
X91266159Y-119161159D02*
X94513489Y-122408489D01*
X102384580Y-74980126D02*
X102384580Y-75159580D01*
X105470000Y-62565000D02*
X105470000Y-64275000D01*
X99339454Y-52935000D02*
X101943702Y-55539248D01*
X99320000Y-86785000D02*
X98530000Y-87575000D01*
X95283489Y-122408489D02*
X96310000Y-123435000D01*
X163824998Y-69260002D02*
X161545199Y-69260002D01*
X105229909Y-78004909D02*
X105229909Y-82905882D01*
X161098095Y-101673075D02*
X170002336Y-101673075D01*
X94345792Y-132111870D02*
X94345792Y-133750792D01*
X96310000Y-126585000D02*
X92980000Y-129915000D01*
X105229909Y-96914909D02*
X105229909Y-101269420D01*
X102492489Y-48927489D02*
X99177511Y-48927489D01*
X105420000Y-59221191D02*
X105420000Y-62515000D01*
X161545199Y-69260002D02*
X161526476Y-69241279D01*
X101350791Y-86785000D02*
X99320000Y-86785000D01*
X97548967Y-95843421D02*
X101771579Y-95843421D01*
X105470000Y-64275000D02*
X101817511Y-67927489D01*
X94513489Y-122408489D02*
X95283489Y-122408489D01*
X104023266Y-95708266D02*
X105229909Y-96914909D01*
X94345792Y-133750792D02*
X96990000Y-136395000D01*
X94720000Y-112938005D02*
X91266159Y-116391846D01*
X161076947Y-101651927D02*
X161098095Y-101673075D01*
X94720000Y-93014454D02*
X97548967Y-95843421D01*
X166360998Y-80412002D02*
X165560999Y-81212001D01*
X101943702Y-55744893D02*
X105420000Y-59221191D01*
X139382605Y-49450960D02*
X160679040Y-49450960D01*
X99177511Y-67927489D02*
X98530000Y-68575000D01*
X105530000Y-51965000D02*
X136868564Y-51965000D01*
X105530000Y-51965000D02*
X102492489Y-48927489D01*
X105420000Y-62515000D02*
X105470000Y-62565000D01*
X98530000Y-68575000D02*
X98530000Y-71125546D01*
X98530000Y-71125546D02*
X102384580Y-74980126D01*
X161837021Y-81212001D02*
X161076947Y-80451927D01*
X96310000Y-125605000D02*
X96310000Y-126585000D01*
X94720000Y-109935000D02*
X94720000Y-112938005D01*
X101817511Y-67927489D02*
X99177511Y-67927489D01*
X136868564Y-51965000D02*
X139382605Y-49450960D01*
X101943702Y-55539248D02*
X101943702Y-55744893D01*
X95720000Y-137665000D02*
X95720000Y-138935000D01*
X165560999Y-81212001D02*
X161837021Y-81212001D01*
X98710000Y-136395000D02*
X99530000Y-135575000D01*
X99177511Y-48927489D02*
X98530000Y-49575000D01*
X94720000Y-52935000D02*
X99339454Y-52935000D01*
X94720000Y-90935000D02*
X94720000Y-93014454D01*
%TO.N,Net-(D31-Pad1)*%
X105503440Y-129445000D02*
X104274614Y-130673826D01*
X104274614Y-130990386D02*
X103979926Y-131285074D01*
X105600000Y-129445000D02*
X105503440Y-129445000D01*
X104274614Y-130673826D02*
X104274614Y-130990386D01*
X103979926Y-131285074D02*
X102444500Y-131285074D01*
%TO.N,Net-(D32-Pad1)*%
X159121798Y-151791008D02*
X161854029Y-149058777D01*
X159121798Y-155972184D02*
X159121798Y-151791008D01*
X155167760Y-143425983D02*
X159198743Y-139395000D01*
X115860000Y-129405000D02*
X112160000Y-133105000D01*
X112160000Y-133105000D02*
X110570000Y-133105000D01*
X159624614Y-156475000D02*
X159121798Y-155972184D01*
X161450000Y-139395000D02*
X165160000Y-143105000D01*
X165160000Y-143105000D02*
X165160000Y-143565000D01*
X165950000Y-144355000D02*
X165950000Y-151125000D01*
X165160000Y-143565000D02*
X165950000Y-144355000D01*
X159198743Y-139395000D02*
X161450000Y-139395000D01*
X165950000Y-151125000D02*
X160600000Y-156475000D01*
X160600000Y-156475000D02*
X159624614Y-156475000D01*
%TO.N,Net-(D33-Pad1)*%
X139646449Y-128730489D02*
X132035489Y-128730489D01*
X107304991Y-124609991D02*
X106760000Y-124065000D01*
X140370960Y-129455000D02*
X139646449Y-128730489D01*
X106895489Y-128720489D02*
X107304991Y-128310987D01*
X130225500Y-126920500D02*
X132035489Y-128730489D01*
X139580000Y-134098060D02*
X140370960Y-133307100D01*
X110219028Y-125533860D02*
X108670005Y-123984837D01*
X130225500Y-126920500D02*
X129240000Y-126920500D01*
X140370960Y-133307100D02*
X140370960Y-129455000D01*
X103330000Y-129275000D02*
X104700000Y-129275000D01*
X105254511Y-128720489D02*
X106895489Y-128720489D01*
X104700000Y-129275000D02*
X105254511Y-128720489D01*
X110219028Y-125533860D02*
X120790000Y-125533860D01*
X107304991Y-128310987D02*
X107304991Y-124609991D01*
%TO.N,Net-(D34-Pad1)*%
X161640480Y-138945480D02*
X166200000Y-143505000D01*
X151374130Y-151250610D02*
X150653544Y-151250610D01*
X164001220Y-145723780D02*
X164001220Y-148525983D01*
X150130000Y-150727066D02*
X150130000Y-149805000D01*
X150524511Y-149410489D02*
X150524511Y-146292327D01*
X165128681Y-144596319D02*
X164001220Y-145723780D01*
X155604933Y-145248777D02*
X155604933Y-147457864D01*
X150524511Y-146292327D02*
X157871358Y-138945480D01*
X155604933Y-147457864D02*
X152784710Y-150278087D01*
X150130000Y-149805000D02*
X150524511Y-149410489D01*
X166200000Y-143535000D02*
X166230000Y-143565000D01*
X166200000Y-143505000D02*
X166200000Y-143535000D01*
X152784710Y-150278087D02*
X152346653Y-150278087D01*
X150653544Y-151250610D02*
X150130000Y-150727066D01*
X136731061Y-131688537D02*
X133844598Y-134575000D01*
X157871358Y-138945480D02*
X161640480Y-138945480D01*
X152346653Y-150278087D02*
X151374130Y-151250610D01*
X133844598Y-134575000D02*
X132320000Y-134575000D01*
%TO.N,Net-(D36-Pad1)*%
X103650000Y-130305000D02*
X101206060Y-130305000D01*
X99895000Y-131750000D02*
X98060000Y-129915000D01*
X101206060Y-130305000D02*
X99895000Y-131616060D01*
%TO.N,Net-(D37-Pad1)*%
X108640000Y-126990500D02*
X108640000Y-124983889D01*
%TO.N,Net-(D38-Pad1)*%
X117329897Y-126882420D02*
X113217317Y-130995000D01*
X158588960Y-124991277D02*
X156517906Y-127062331D01*
X156517906Y-127062331D02*
X156517906Y-132052906D01*
X156900000Y-132435000D02*
X156900000Y-133905000D01*
X146562378Y-129740500D02*
X146560000Y-129738122D01*
X113217317Y-130995000D02*
X110570000Y-130995000D01*
X146560000Y-129738122D02*
X146560000Y-124300050D01*
X146560000Y-124300050D02*
X147095050Y-123765000D01*
X156517906Y-132052906D02*
X156900000Y-132435000D01*
X156900000Y-133905000D02*
X155410000Y-135395000D01*
%TO.N,Net-(D40-Pad1)*%
X139140000Y-129455000D02*
X137940000Y-129455000D01*
X161530000Y-130985000D02*
X160925499Y-130380499D01*
X160925499Y-124813690D02*
X160266311Y-124154502D01*
X134800000Y-132595000D02*
X132330000Y-132595000D01*
X137940000Y-129455000D02*
X134800000Y-132595000D01*
X160925499Y-130380499D02*
X160925499Y-124813690D01*
%TO.N,Net-(D42-Pad1)*%
X106580491Y-126990500D02*
X104301560Y-126990500D01*
X103265000Y-125310000D02*
X101390000Y-123435000D01*
X104301560Y-126990500D02*
X103265000Y-125953940D01*
%TO.N,ROW8*%
X153490643Y-120432630D02*
X151854953Y-118796940D01*
X149434529Y-100109509D02*
X149792863Y-100467843D01*
X149792863Y-100467843D02*
X170642890Y-100467843D01*
X105570000Y-124690000D02*
X104715000Y-125545000D01*
X105404549Y-118274951D02*
X105404549Y-124199549D01*
X105570000Y-124365000D02*
X105570000Y-124690000D01*
X177757012Y-100467843D02*
X178176845Y-100048010D01*
X170642890Y-100467843D02*
X177757012Y-100467843D01*
X151854953Y-118796940D02*
X142894500Y-118796940D01*
X105404549Y-124199549D02*
X105570000Y-124365000D01*
%TO.N,Net-(JP3-Pad1)*%
X165533693Y-113229011D02*
X154197537Y-113229011D01*
X165871620Y-113566938D02*
X165533693Y-113229011D01*
X154650000Y-73590000D02*
X154650000Y-72095000D01*
X154629998Y-72065002D02*
X154629998Y-67970002D01*
%TO.N,VRGB*%
X92270389Y-97117297D02*
X93275389Y-96112297D01*
X141603969Y-64951031D02*
X141603969Y-62481254D01*
X84705389Y-120844833D02*
X84705389Y-119882297D01*
X38270389Y-110117297D02*
X39275389Y-109112297D01*
X130126193Y-66620791D02*
X128793883Y-66620791D01*
X120705389Y-82844833D02*
X120705389Y-81882297D01*
X112525262Y-143715112D02*
X112510263Y-143715112D01*
X148038815Y-129106185D02*
X150087161Y-129106185D01*
X77126193Y-147620791D02*
X75793883Y-147620791D01*
X112582297Y-62112297D02*
X113905600Y-63435600D01*
X133071854Y-142772441D02*
X134334230Y-143110693D01*
X57275389Y-108112297D02*
X58582297Y-108112297D01*
X48705389Y-91844833D02*
X48705389Y-90882297D01*
X139575489Y-63350489D02*
X141390000Y-65165000D01*
X101614622Y-79935600D02*
X102705389Y-78844833D01*
X58275389Y-146112297D02*
X59582297Y-146112297D01*
X56270389Y-110112297D02*
X56270389Y-109117297D01*
X76126193Y-102620791D02*
X74793883Y-102620791D01*
X128425179Y-66267087D02*
X128270389Y-66112297D01*
X141010000Y-151695000D02*
X136600000Y-151695000D01*
X128270389Y-104112297D02*
X128270389Y-103117297D01*
X119205600Y-83935600D02*
X119205600Y-86549400D01*
X130126193Y-104620791D02*
X128793883Y-104620791D01*
X143970000Y-124715000D02*
X143970000Y-128825000D01*
X74425179Y-64267087D02*
X74270389Y-64112297D01*
X131707402Y-144637639D02*
X131692913Y-144633757D01*
X39275389Y-109112297D02*
X40582297Y-109112297D01*
X110793883Y-102620791D02*
X110440179Y-102267087D01*
X111275389Y-100112297D02*
X112582297Y-100112297D01*
X83614622Y-83935600D02*
X84705389Y-82844833D01*
X66705389Y-128844833D02*
X66705389Y-127882297D01*
X141390000Y-82795000D02*
X141390000Y-65165000D01*
X138705389Y-122844833D02*
X138705389Y-121882297D01*
X139575489Y-63350489D02*
X136003965Y-63350489D01*
X110270389Y-64112297D02*
X110270389Y-63117297D01*
X41126193Y-149620791D02*
X39793883Y-149620791D01*
X143970000Y-128825000D02*
X145610000Y-130465000D01*
X38440179Y-73267087D02*
X38425179Y-73267087D01*
X94582297Y-96112297D02*
X95905600Y-97435600D01*
X114211276Y-144068816D02*
X112878967Y-144068817D01*
X92425179Y-60267087D02*
X92270389Y-60112297D01*
X38440179Y-111267087D02*
X38425179Y-111267087D01*
X92440179Y-60267087D02*
X92425179Y-60267087D01*
X92270389Y-60112297D02*
X92270389Y-59117297D01*
X39270389Y-148117297D02*
X40275389Y-147112297D01*
X94126193Y-60620791D02*
X92793883Y-60620791D01*
X112126193Y-64620791D02*
X110793883Y-64620791D01*
X152015455Y-151519545D02*
X150716417Y-152818583D01*
X95582297Y-144112297D02*
X96905600Y-145435600D01*
X110440179Y-64267087D02*
X110425179Y-64267087D01*
X38270389Y-72117297D02*
X39275389Y-71112297D01*
X83205600Y-124479400D02*
X83205600Y-121935600D01*
X133244422Y-145415665D02*
X131957508Y-145070836D01*
X65614622Y-91935600D02*
X66705389Y-90844833D01*
X137040000Y-126445000D02*
X137040000Y-124405718D01*
X58126193Y-72620791D02*
X56793883Y-72620791D01*
X110425179Y-64267087D02*
X110270389Y-64112297D01*
X137614622Y-123935600D02*
X138705389Y-122844833D01*
X56793883Y-110620791D02*
X56440179Y-110267087D01*
X40275389Y-147112297D02*
X41582297Y-147112297D01*
X75275389Y-62112297D02*
X76582297Y-62112297D01*
X58582297Y-108112297D02*
X59905600Y-109435600D01*
X147380000Y-129765000D02*
X148038815Y-129106185D01*
X75270389Y-146117297D02*
X76275389Y-145112297D01*
X113360472Y-141560322D02*
X114667380Y-141560323D01*
X135540000Y-150635000D02*
X135540000Y-149244327D01*
X57270389Y-148112297D02*
X57270389Y-147117297D01*
X134334230Y-143110693D02*
X135269947Y-144731402D01*
X142170000Y-106135000D02*
X142170000Y-124595000D01*
X65162500Y-132405000D02*
X65162500Y-129978700D01*
X137205600Y-88429400D02*
X137205600Y-85935600D01*
X38793883Y-111620791D02*
X38440179Y-111267087D01*
X141603969Y-62481254D02*
X142274991Y-61810232D01*
X57440179Y-148267087D02*
X57425179Y-148267087D01*
X76582297Y-62112297D02*
X77905600Y-63435600D01*
X38270389Y-111112297D02*
X38270389Y-110117297D01*
X138705389Y-84844833D02*
X138705389Y-83882297D01*
X135459454Y-63895000D02*
X130799594Y-63895000D01*
X110793883Y-64620791D02*
X110440179Y-64267087D01*
X119614622Y-121935600D02*
X120705389Y-120844833D01*
X95126193Y-146620791D02*
X93793883Y-146620791D01*
X83614622Y-121935600D02*
X84705389Y-120844833D01*
X142100000Y-124665000D02*
X142100000Y-133173564D01*
X128270389Y-103117297D02*
X129275389Y-102112297D01*
X114667380Y-141560323D02*
X115990684Y-142883626D01*
X74793883Y-64620791D02*
X74440179Y-64267087D01*
X136003965Y-63350489D02*
X135459454Y-63895000D01*
X92270389Y-59117297D02*
X93275389Y-58112297D01*
X56270389Y-72112297D02*
X56270389Y-71117297D01*
X59126193Y-148620791D02*
X57793883Y-148620791D01*
X75270389Y-147112297D02*
X75270389Y-146117297D01*
X41582297Y-147112297D02*
X42905600Y-148435600D01*
X56440179Y-72267087D02*
X56425179Y-72267087D01*
X57425179Y-148267087D02*
X57270389Y-148112297D01*
X47230000Y-95395000D02*
X47230000Y-92960000D01*
X93270389Y-146112297D02*
X93270389Y-145117297D01*
X131957508Y-145070836D02*
X131707402Y-144637639D01*
X58126193Y-110620791D02*
X56793883Y-110620791D01*
X93270389Y-145117297D02*
X94275389Y-144112297D01*
X112878967Y-144068817D02*
X112525262Y-143715112D01*
X65614622Y-129935600D02*
X66705389Y-128844833D01*
X131692913Y-144633757D02*
X131583460Y-144444179D01*
X141300000Y-82885000D02*
X142109520Y-83694520D01*
X153266222Y-151519545D02*
X152015455Y-151519545D01*
X39270389Y-149112297D02*
X39270389Y-148117297D01*
X56440179Y-110267087D02*
X56425179Y-110267087D01*
X84705389Y-82844833D02*
X84705389Y-81882297D01*
X128440179Y-104267087D02*
X128425179Y-104267087D01*
X47614622Y-92935600D02*
X48705389Y-91844833D01*
X94275389Y-144112297D02*
X95582297Y-144112297D01*
X112355472Y-143560322D02*
X112355472Y-142565322D01*
X58582297Y-70112297D02*
X59905600Y-71435600D01*
X93425179Y-146267087D02*
X93270389Y-146112297D01*
X128440179Y-66267087D02*
X128425179Y-66267087D01*
X101205600Y-120609400D02*
X101205600Y-117935600D01*
X93793883Y-146620791D02*
X93440179Y-146267087D01*
X75793883Y-147620791D02*
X75440179Y-147267087D01*
X93440179Y-146267087D02*
X93425179Y-146267087D01*
X76126193Y-64620791D02*
X74793883Y-64620791D01*
X142274991Y-58344991D02*
X142000000Y-58070000D01*
X39793883Y-149620791D02*
X39440179Y-149267087D01*
X129275389Y-64112297D02*
X130582297Y-64112297D01*
X74793883Y-102620791D02*
X74440179Y-102267087D01*
X142170000Y-124595000D02*
X142100000Y-124665000D01*
X56270389Y-71117297D02*
X57275389Y-70112297D01*
X92793883Y-60620791D02*
X92440179Y-60267087D01*
X128270389Y-65117297D02*
X129275389Y-64112297D01*
X83205600Y-86439400D02*
X83205600Y-83935600D01*
X128425179Y-104267087D02*
X128270389Y-104112297D01*
X38425179Y-111267087D02*
X38270389Y-111112297D01*
X92793883Y-98620791D02*
X92440179Y-98267087D01*
X141390000Y-65165000D02*
X141603969Y-64951031D01*
X111275389Y-62112297D02*
X112582297Y-62112297D01*
X146960000Y-138033564D02*
X146960000Y-145745000D01*
X76275389Y-145112297D02*
X77582297Y-145112297D01*
X56425179Y-110267087D02*
X56270389Y-110112297D01*
X75440179Y-147267087D02*
X75425179Y-147267087D01*
X112126193Y-102620791D02*
X110793883Y-102620791D01*
X74270389Y-102112297D02*
X74270389Y-101117297D01*
X110270389Y-101117297D02*
X111275389Y-100112297D01*
X74440179Y-64267087D02*
X74425179Y-64267087D01*
X56425179Y-72267087D02*
X56270389Y-72112297D01*
X38793883Y-73620791D02*
X38440179Y-73267087D01*
X131840985Y-143483082D02*
X133071854Y-142772441D01*
X40582297Y-71112297D02*
X41905600Y-72435600D01*
X40126193Y-111620791D02*
X38793883Y-111620791D01*
X74425179Y-102267087D02*
X74270389Y-102112297D01*
X46910000Y-131231200D02*
X47205600Y-130935600D01*
X112510263Y-143715112D02*
X112355472Y-143560322D01*
X110440179Y-102267087D02*
X110425179Y-102267087D01*
X147380000Y-130465000D02*
X147380000Y-129765000D01*
X146960000Y-145745000D02*
X141010000Y-151695000D01*
X142109520Y-106074520D02*
X142170000Y-106135000D01*
X102705389Y-116844833D02*
X102705389Y-115882297D01*
X102705389Y-78844833D02*
X102705389Y-77882297D01*
X119072500Y-124355000D02*
X119072500Y-122068700D01*
X93275389Y-58112297D02*
X94582297Y-58112297D01*
X130582297Y-102112297D02*
X131905600Y-103435600D01*
X93275389Y-96112297D02*
X94582297Y-96112297D01*
X74270389Y-101117297D02*
X75275389Y-100112297D01*
X110270389Y-63117297D02*
X111275389Y-62112297D01*
X131583460Y-144444179D02*
X131840985Y-143483082D01*
X57793883Y-148620791D02*
X57440179Y-148267087D01*
X47614622Y-130935600D02*
X48705389Y-129844833D01*
X128793883Y-104620791D02*
X128440179Y-104267087D01*
X142274991Y-61810232D02*
X142274991Y-58344991D01*
X94126193Y-98620791D02*
X92793883Y-98620791D01*
X101614622Y-117935600D02*
X102705389Y-116844833D01*
X141300000Y-82885000D02*
X141390000Y-82795000D01*
X57275389Y-70112297D02*
X58582297Y-70112297D01*
X39425179Y-149267087D02*
X39270389Y-149112297D01*
X110425179Y-102267087D02*
X110270389Y-102112297D01*
X137614622Y-85935600D02*
X138705389Y-84844833D01*
X119614622Y-83935600D02*
X120705389Y-82844833D01*
X75425179Y-147267087D02*
X75270389Y-147112297D01*
X75275389Y-100112297D02*
X76582297Y-100112297D01*
X77582297Y-145112297D02*
X78905600Y-146435600D01*
X130582297Y-64112297D02*
X131905600Y-65435600D01*
X74440179Y-102267087D02*
X74425179Y-102267087D01*
X48705389Y-129844833D02*
X48705389Y-128882297D01*
X46910000Y-133555000D02*
X46910000Y-131231200D01*
X74270389Y-63117297D02*
X75275389Y-62112297D01*
X101205600Y-82369400D02*
X101205600Y-79935600D01*
X57270389Y-147117297D02*
X58275389Y-146112297D01*
X74270389Y-64112297D02*
X74270389Y-63117297D01*
X110270389Y-102112297D02*
X110270389Y-101117297D01*
X56793883Y-72620791D02*
X56440179Y-72267087D01*
X128793883Y-66620791D02*
X128440179Y-66267087D01*
X92425179Y-98267087D02*
X92270389Y-98112297D01*
X92270389Y-98112297D02*
X92270389Y-97117297D01*
X112355472Y-142565322D02*
X113360472Y-141560322D01*
X145610000Y-130465000D02*
X147380000Y-130465000D01*
X39440179Y-149267087D02*
X39425179Y-149267087D01*
X65205600Y-94439400D02*
X65205600Y-91935600D01*
X38425179Y-73267087D02*
X38270389Y-73112297D01*
X130799594Y-63895000D02*
X130582297Y-64112297D01*
X142100000Y-133173564D02*
X146960000Y-138033564D01*
X136600000Y-151695000D02*
X135540000Y-150635000D01*
X40126193Y-73620791D02*
X38793883Y-73620791D01*
X39275389Y-71112297D02*
X40582297Y-71112297D01*
X76582297Y-100112297D02*
X77905600Y-101435600D01*
X129275389Y-102112297D02*
X130582297Y-102112297D01*
X38270389Y-73112297D02*
X38270389Y-72117297D01*
X66705389Y-90844833D02*
X66705389Y-89882297D01*
X94582297Y-58112297D02*
X95905600Y-59435600D01*
X40582297Y-109112297D02*
X41905600Y-110435600D01*
X59582297Y-146112297D02*
X60905600Y-147435600D01*
X142109520Y-83694520D02*
X142109520Y-106074520D01*
X120705389Y-120844833D02*
X120705389Y-119882297D01*
X92440179Y-98267087D02*
X92425179Y-98267087D01*
X137040000Y-124405718D02*
X136887741Y-124253459D01*
X56270389Y-109117297D02*
X57275389Y-108112297D01*
X112582297Y-100112297D02*
X113905600Y-101435600D01*
X128270389Y-66112297D02*
X128270389Y-65117297D01*
%TO.N,DRGB*%
X138129900Y-64157786D02*
X137205600Y-65082086D01*
X140264917Y-66682769D02*
X140619821Y-66327865D01*
X140624821Y-66327865D02*
X140780389Y-66172297D01*
X140619821Y-66327865D02*
X140624821Y-66327865D01*
X137205600Y-65082086D02*
X137205600Y-65435600D01*
X141275489Y-58500018D02*
X141275489Y-57690087D01*
X137260000Y-64075000D02*
X137260000Y-65381200D01*
X140780389Y-66172297D02*
X140780389Y-65217297D01*
X137364431Y-62700420D02*
X140749085Y-62700420D01*
X141825471Y-59050000D02*
X141275489Y-58500018D01*
X139014247Y-66682769D02*
X140264917Y-66682769D01*
X140780389Y-65217297D02*
X139720878Y-64157786D01*
X141825471Y-61624034D02*
X141825471Y-59050000D01*
X137290000Y-62625989D02*
X137364431Y-62700420D01*
X140749085Y-62700420D02*
X141825471Y-61624034D01*
X141275489Y-57690087D02*
X139262701Y-55677299D01*
X139720878Y-64157786D02*
X138129900Y-64157786D01*
%TO.N,Net-(JP10-Pad1)*%
X154759998Y-60630002D02*
X154759998Y-62020002D01*
X154759998Y-62020002D02*
X154730000Y-62050000D01*
X164523060Y-108763360D02*
X154380000Y-108763360D01*
X154620000Y-74620000D02*
X154620000Y-76030000D01*
%TO.N,Net-(U5-Pad2)*%
X169369999Y-78057810D02*
X169369999Y-76874000D01*
X172632189Y-81320000D02*
X169369999Y-78057810D01*
%TD*%
M02*
